<?xml version="1.0" standalone="no"?>
<!DOCTYPE svg PUBLIC "-//W3C//DTD SVG 20010904//EN"
 "http://www.w3.org/TR/2001/REC-SVG-20010904/DTD/svg10.dtd">
<svg version="1.0" xmlns="http://www.w3.org/2000/svg"
 width="640.000000pt" height="482.000000pt" viewBox="0 0 640.000000 482.000000"
 preserveAspectRatio="xMidYMid meet">

<g transform="translate(0.000000,482.000000) scale(0.100000,-0.100000)"
fill="#000000" stroke="none">
<path d="M1447 4796 c-32 -30 -51 -68 -67 -134 -9 -40 -18 -56 -37 -65 -20 -9
-24 -16 -19 -38 4 -23 0 -31 -29 -48 -45 -26 -46 -51 -2 -51 67 -1 150 -60
122 -88 -4 -4 -95 -7 -202 -7 -175 0 -197 2 -207 17 -16 27 31 70 85 77 53 8
59 24 20 58 -20 17 -31 37 -31 53 0 20 -7 28 -32 35 -33 10 -38 17 -59 75 -14
38 -94 130 -114 130 -27 0 -85 -91 -100 -157 -3 -18 -16 -40 -28 -48 -16 -11
-22 -26 -23 -57 0 -24 -4 -53 -9 -65 -5 -16 -3 -23 5 -23 23 0 81 -33 91 -52
16 -30 -6 -48 -57 -48 -49 0 -57 7 -88 70 -17 37 -31 50 -76 72 -50 24 -55 30
-55 60 0 28 -4 33 -29 38 -16 3 -32 12 -36 20 -5 8 -22 44 -39 80 -16 36 -42
77 -57 90 l-26 25 -33 -38 c-19 -21 -48 -66 -65 -100 -17 -33 -40 -67 -51 -75
-15 -11 -18 -21 -14 -46 6 -31 4 -33 -32 -44 -66 -20 -123 -91 -137 -172 -4
-19 -8 -997 -9 -2173 l-3 -2138 20 -12 c16 -9 764 -12 3174 -12 3048 0 3154 1
3167 18 7 10 16 51 19 90 3 40 8 1003 9 2142 4 2172 5 2126 -38 2191 -19 30
-87 63 -127 64 -33 0 -36 16 -12 62 16 32 9 47 -23 48 -7 0 -20 15 -29 32 -9
18 -42 64 -72 101 l-56 69 -18 -22 c-9 -12 -36 -55 -58 -95 -30 -54 -48 -76
-70 -83 -26 -10 -28 -14 -23 -45 5 -31 2 -35 -27 -47 -17 -7 -39 -25 -48 -39
-27 -42 -33 -41 -82 9 -38 39 -46 54 -43 74 5 22 0 28 -24 37 -22 7 -33 20
-41 47 -13 43 -99 155 -115 149 -6 -2 -35 -43 -64 -93 -36 -58 -62 -92 -79
-97 -24 -9 -32 -31 -14 -42 12 -7 14 -45 3 -45 -5 0 -23 -9 -41 -20 -28 -17
-32 -23 -22 -35 7 -8 26 -15 42 -15 40 0 96 -54 78 -75 -18 -22 -352 -22 -369
-1 -27 32 39 86 104 86 33 0 32 10 -5 45 -26 24 -29 34 -24 62 5 28 3 33 -13
33 -25 0 -47 25 -62 70 -14 45 -87 130 -111 130 -21 0 -83 -88 -100 -143 -9
-30 -18 -39 -41 -44 -29 -6 -41 -35 -19 -48 21 -13 9 -44 -25 -64 -47 -27 -45
-48 5 -56 47 -8 90 -39 90 -66 0 -19 -7 -19 -177 -17 -172 3 -178 4 -181 24
-4 27 32 51 87 60 52 8 55 34 6 64 -27 17 -35 28 -35 51 0 22 -6 32 -24 39
-17 6 -29 22 -36 47 -6 21 -16 48 -23 60 -17 30 -86 103 -97 103 -18 0 -90
-102 -101 -143 -6 -23 -13 -48 -15 -54 -2 -7 -14 -13 -27 -13 -32 0 -37 -8
-27 -36 8 -20 4 -27 -30 -54 -43 -34 -53 -62 -20 -53 35 9 88 -7 120 -37 27
-25 30 -33 20 -45 -11 -13 -43 -15 -199 -13 -171 3 -186 4 -189 21 -2 11 6 30
19 43 17 19 33 24 69 24 26 0 50 3 53 6 11 12 -12 41 -43 54 -32 13 -37 29
-18 60 14 22 8 32 -24 35 -13 1 -28 3 -35 4 -6 0 -14 19 -18 40 -8 46 -37 89
-90 131 l-38 31 -28 -27 c-30 -29 -75 -112 -84 -156 -4 -23 -11 -28 -36 -28
-30 0 -31 -1 -24 -38 5 -33 3 -41 -24 -65 -17 -15 -31 -31 -31 -36 0 -4 25
-11 55 -14 61 -6 118 -39 113 -66 -3 -14 -26 -16 -187 -19 -118 -1 -188 1
-196 8 -34 29 25 90 86 90 49 0 53 27 8 52 -18 11 -30 25 -28 35 3 33 -1 40
-26 51 -14 6 -25 20 -25 29 -1 44 -92 183 -120 183 -16 0 -89 -122 -96 -158
-8 -46 -21 -62 -49 -62 -30 0 -36 -9 -24 -32 9 -17 5 -26 -21 -53 -38 -39 -33
-55 19 -55 44 0 96 -45 85 -73 -5 -15 -27 -17 -174 -17 -190 0 -209 6 -168 55
18 20 36 28 71 32 26 3 47 9 47 14 0 4 -16 21 -35 36 -26 21 -35 36 -35 58 0
24 -7 33 -33 45 -26 12 -33 23 -40 58 -6 32 -21 57 -56 93 -26 27 -52 49 -58
49 -20 0 -83 -83 -94 -125 -6 -22 -13 -46 -15 -53 -2 -7 -12 -15 -21 -18 -61
-19 -65 -22 -48 -47 14 -22 13 -25 -15 -52 -38 -36 -38 -55 -2 -55 42 0 94
-36 90 -63 -3 -22 -6 -22 -176 -25 -149 -2 -173 0 -178 13 -9 23 24 54 65 61
67 11 68 13 26 48 -37 31 -39 35 -27 60 15 34 8 46 -27 46 -34 0 -43 11 -59
67 -8 26 -33 64 -64 99 l-52 57 -38 -43 c-35 -39 -47 -67 -63 -142 -5 -24 -10
-28 -40 -28 -45 0 -53 -16 -21 -41 34 -27 33 -33 -9 -58 -51 -30 -45 -47 16
-53 57 -6 107 -43 96 -72 -6 -14 -29 -16 -189 -14 -179 3 -183 3 -186 25 -5
33 34 63 84 63 61 0 68 22 16 49 -21 11 -23 17 -17 52 6 36 5 39 -17 39 -35 0
-45 10 -69 74 -20 54 -95 146 -118 146 -5 0 -20 -11 -34 -24z m2333 -112 c17
-36 19 -160 2 -191 -34 -62 -77 12 -70 117 8 106 36 137 68 74z m586 -9 c28
-68 4 -210 -35 -203 -42 8 -53 136 -17 206 21 41 34 40 52 -3z m1157 -6 c21
-39 18 -103 -7 -163 -30 -71 -68 -29 -68 74 0 62 25 134 44 128 7 -2 21 -20
31 -39z m-2295 6 c27 -60 5 -195 -32 -195 -19 0 -36 53 -36 110 0 94 41 145
68 85z m1718 -10 c21 -50 18 -123 -6 -163 -24 -40 -39 -38 -63 9 -13 24 -17
48 -14 84 10 102 54 140 83 70z m-2870 -10 c26 -63 12 -175 -22 -175 -31 0
-52 103 -34 168 13 52 36 55 56 7z m600 2 c4 -12 7 -47 7 -78 -1 -97 -40 -132
-69 -63 -12 29 -13 46 -5 86 6 27 16 58 21 68 13 23 37 16 46 -13z m-1767 -8
c15 -45 14 -113 -4 -155 -27 -66 -69 -15 -61 76 8 103 42 144 65 79z m616 -6
c28 -58 7 -173 -31 -173 -24 0 -47 68 -41 122 11 92 42 114 72 51z m4544 -10
c34 -72 12 -233 -32 -241 -45 -9 -61 142 -23 232 18 43 38 46 55 9z m-5689
-20 c27 -94 18 -209 -18 -221 -33 -10 -58 166 -32 232 14 38 37 32 50 -11z
m-150 -203 c28 -28 26 -92 -4 -145 -31 -53 -105 -96 -130 -76 -19 16 -20 57
-2 133 19 82 39 108 81 108 22 0 43 -8 55 -20z m341 0 c10 -6 31 -34 45 -61
20 -40 29 -50 45 -46 33 9 50 -19 47 -76 -4 -65 -20 -76 -85 -59 -89 24 -158
97 -158 167 0 70 49 105 106 75z m5322 -42 c55 -65 -27 -187 -139 -204 -56 -8
-74 6 -74 58 0 46 18 83 57 119 64 60 120 70 156 27z m392 9 c22 -18 27 -34
32 -84 7 -77 -3 -133 -23 -133 -56 0 -129 89 -129 158 0 74 65 107 120 59z
m-3446 -76 c11 -7 4 -16 -30 -36 -25 -15 -55 -43 -67 -61 -12 -19 -27 -34 -32
-34 -5 0 -23 15 -40 34 -17 19 -51 45 -76 57 -24 13 -44 27 -44 31 0 15 267
23 289 9z m476 -4 c17 -13 15 -16 -27 -45 -26 -17 -61 -50 -79 -73 l-32 -41
-43 45 c-23 25 -60 58 -83 72 -70 47 -59 52 120 54 91 1 130 -3 144 -12z m499
-7 c4 -5 -2 -14 -15 -20 -13 -7 -43 -30 -66 -51 -24 -22 -49 -39 -58 -39 -8 0
-32 15 -52 34 -21 18 -53 41 -72 50 -62 33 -8 46 154 38 55 -2 104 -8 109 -12z
m535 14 c39 -8 40 -28 1 -44 -30 -12 -110 -94 -110 -111 0 -20 -25 -6 -76 40
-29 27 -78 59 -109 72 -95 39 -77 46 121 48 78 0 156 -2 173 -5z m475 0 c35
-5 46 -11 46 -24 0 -28 -64 -77 -108 -85 -46 -7 -114 8 -133 31 -7 8 -33 26
-58 39 -45 23 -46 23 -21 34 28 11 203 14 274 5z m540 -4 c34 -13 33 -27 -5
-48 -17 -9 -67 -41 -111 -70 l-80 -53 -22 20 c-12 12 -30 21 -40 21 -23 0
-116 88 -116 111 0 14 10 19 43 22 92 8 307 6 331 -3z m-4038 -10 c30 0 30 -9
2 -54 -24 -37 -46 -44 -79 -23 -17 10 -22 9 -37 -10 l-17 -22 -60 46 c-33 25
-61 49 -63 54 -4 9 120 18 187 12 24 -1 54 -3 67 -3z m529 1 c3 -6 -6 -18 -21
-28 -14 -10 -46 -35 -69 -56 -40 -35 -46 -38 -78 -29 -19 5 -45 8 -58 6 -18
-3 -38 9 -77 46 -29 27 -50 54 -47 60 8 13 342 14 350 1z m543 -3 c-2 -6 -27
-19 -56 -28 -60 -20 -124 -62 -147 -96 -22 -35 -42 -30 -65 16 -12 23 -38 53
-60 68 -70 48 -59 52 146 52 137 0 185 -3 182 -12z m3190 0 c8 -8 12 -62 12
-179 0 -182 -3 -193 -57 -187 l-28 3 -3 175 c-1 96 0 180 2 187 7 16 58 17 74
1z m-5162 -93 c35 -36 64 -70 64 -75 0 -14 -97 -113 -107 -109 -6 2 -35 32
-66 65 l-57 61 26 39 c28 41 64 84 72 84 3 0 34 -29 68 -65z m444 51 c8 -11
11 -56 8 -151 -3 -122 -5 -138 -22 -151 -21 -15 -55 -10 -68 10 -12 17 -9 265
2 287 13 23 62 26 80 5z m1658 -31 c59 -18 86 -49 84 -98 -1 -37 -40 -77 -75
-77 -33 0 -67 28 -83 66 -15 37 -32 42 -67 20 -12 -8 -41 -17 -64 -21 -31 -5
-51 -16 -73 -41 -37 -43 -41 -80 -7 -69 50 17 105 17 136 0 52 -26 33 -39 -67
-47 -51 -4 -111 -12 -133 -18 -61 -17 -67 -3 -32 72 50 106 140 182 253 212
70 19 67 19 128 1z m3551 -34 c23 -27 41 -53 41 -58 0 -5 -24 -36 -54 -69
l-54 -59 -46 50 c-25 28 -45 56 -46 64 0 23 81 121 100 121 10 0 37 -22 59
-49z m-5031 -20 c28 -33 52 -64 52 -70 0 -6 -9 -15 -21 -21 -15 -9 -19 -18
-14 -38 5 -23 -2 -34 -40 -70 -25 -23 -50 -40 -55 -37 -11 7 -14 253 -4 279
10 27 28 18 82 -43z m2443 49 c20 -6 44 -19 54 -30 18 -20 18 -22 2 -49 -9
-16 -17 -38 -17 -49 0 -46 65 -60 105 -22 29 27 37 25 67 -19 13 -19 43 -48
67 -66 25 -17 46 -36 48 -42 8 -22 -79 -38 -197 -37 -98 0 -126 4 -189 27
-107 38 -151 86 -151 166 0 50 37 95 95 116 48 17 69 18 116 5z m531 -10 c29
-11 70 -33 90 -50 38 -32 93 -130 104 -187 l6 -32 -148 3 c-124 3 -150 6 -152
18 -3 18 88 68 124 68 32 0 54 10 54 26 0 18 -40 44 -69 44 -13 0 -39 11 -57
25 -18 14 -37 25 -42 25 -12 0 -22 -24 -22 -50 0 -30 -28 -50 -71 -50 -103 0
-106 109 -4 156 61 29 118 30 187 4z m1418 -151 c0 -122 -3 -151 -15 -155 -16
-6 -125 82 -125 101 0 7 -9 20 -20 30 -19 17 -18 19 48 94 78 88 81 91 99 84
10 -4 13 -39 13 -154z m-3920 141 c10 -5 24 -26 30 -45 13 -39 20 -42 56 -19
23 16 26 16 49 -6 13 -12 29 -36 36 -53 32 -83 44 -100 101 -138 57 -39 85
-79 72 -101 -5 -7 -42 -9 -106 -5 -85 4 -109 10 -164 37 -67 33 -68 35 -78
118 -6 60 -29 82 -82 82 -53 0 -77 21 -68 58 9 37 32 61 68 71 42 13 64 13 86
1z m466 -9 c58 -26 74 -54 74 -124 0 -67 -17 -106 -68 -159 -38 -40 -66 -48
-76 -22 -12 31 -5 51 29 84 23 22 35 43 35 61 0 56 -87 89 -138 53 -28 -19
-42 -11 -42 27 0 85 90 124 186 80z m995 8 c57 -18 82 -49 87 -111 5 -67 -23
-113 -88 -145 -38 -20 -60 -23 -160 -23 -102 0 -174 7 -257 25 -34 8 -28 20
16 34 26 7 55 29 86 63 l46 51 31 -31 c24 -25 39 -32 69 -32 75 0 104 68 53
121 -38 39 -27 59 32 59 26 0 64 -5 85 -11z m1549 -9 c46 -24 69 -54 77 -103
5 -31 1 -41 -26 -67 -41 -41 -57 -35 -53 19 6 76 -56 107 -114 58 -36 -31 -36
-74 0 -125 23 -34 26 -45 18 -73 -11 -44 -35 -48 -68 -12 -44 48 -58 84 -59
153 0 78 22 117 87 149 54 26 88 27 138 1z m457 -16 c36 -23 63 -74 63 -118 0
-37 -1 -38 -27 -31 -107 27 -143 9 -143 -69 0 -57 -23 -85 -102 -124 -81 -39
-163 -54 -228 -42 -65 12 -90 26 -90 49 0 27 52 67 96 76 85 16 122 51 167
161 36 86 47 96 132 112 59 12 100 7 132 -14z m-4822 -73 c110 -50 162 -203
88 -261 -34 -26 -53 -25 -94 5 -19 13 -44 29 -56 34 -22 10 -23 16 -23 114 0
132 8 143 85 108z m543 -108 c2 -114 1 -123 -16 -123 -10 0 -27 -7 -38 -15
-54 -41 -144 7 -144 77 0 81 98 192 164 186 l31 -3 3 -122z m5089 91 c74 -43
107 -136 67 -193 -15 -20 -22 -22 -63 -17 -25 4 -63 7 -83 7 l-38 -1 0 108 c0
73 4 112 12 120 16 16 50 8 105 -24z m514 -11 c5 -15 7 -57 4 -97 -9 -97 -11
-103 -34 -82 -17 16 -21 16 -54 -4 -42 -25 -72 -16 -88 28 -13 34 -4 68 28
110 53 70 126 93 144 45z m-4882 -87 c16 -19 10 -66 -10 -79 -24 -15 -68 0
-81 28 -9 21 -8 28 7 45 21 23 67 26 84 6z m-191 -28 c7 -7 12 -22 12 -35 0
-60 48 -103 116 -103 45 0 89 -42 129 -124 67 -137 9 -180 -107 -80 -65 57
-103 74 -163 74 -60 0 -82 13 -90 52 -4 18 -16 48 -26 66 -22 38 -24 89 -5
114 30 41 109 61 134 36z m1902 -27 c0 -22 -58 -179 -73 -198 -5 -7 -18 -13
-28 -13 -25 0 -31 -14 -18 -44 11 -24 9 -29 -30 -63 -24 -22 -42 -48 -44 -63
-2 -23 2 -25 52 -30 36 -4 58 -12 67 -25 40 -54 -7 -175 -89 -230 -53 -36 -78
-34 -57 4 15 29 5 41 -34 41 -22 0 -40 8 -55 24 -28 29 -26 60 10 151 34 89
33 184 -3 254 -16 29 -28 59 -28 66 0 8 23 15 68 19 102 10 140 26 196 78 57
53 66 57 66 29z m1891 -10 c32 -33 40 -87 14 -97 -56 -22 -124 73 -83 114 19
19 37 14 69 -17z m-1690 -29 c53 -27 124 -54 160 -61 35 -7 74 -17 87 -22 l22
-9 -30 -56 c-35 -66 -39 -138 -15 -239 22 -91 19 -154 -7 -182 -12 -13 -32
-23 -44 -23 -43 0 -53 -9 -47 -46 8 -49 -15 -44 -71 16 -118 126 -112 263 11
265 50 1 59 10 49 51 -5 18 -20 31 -52 45 -36 15 -45 23 -39 37 3 9 9 29 12
45 5 25 3 27 -29 27 -32 0 -35 3 -76 85 -40 82 -50 115 -34 115 4 0 50 -22
103 -48z m1931 11 c42 -43 46 -88 12 -138 -15 -22 -28 -51 -28 -65 -1 -24 -3
-25 -91 -30 -113 -6 -147 -24 -194 -104 -60 -101 -108 -112 -98 -22 6 61 34
130 71 173 26 31 29 32 84 27 49 -5 61 -3 85 16 29 23 36 66 17 114 -18 49 4
67 74 61 27 -2 48 -13 68 -32z m-2912 -57 c0 -7 -10 -20 -22 -28 -21 -14 -21
-16 -5 -38 30 -43 22 -68 -27 -90 -63 -27 -65 -37 -18 -77 31 -25 46 -48 57
-85 8 -28 12 -55 9 -60 -8 -12 -72 -1 -100 17 -12 8 -30 31 -40 52 -14 27 -30
42 -57 52 -44 16 -57 7 -50 -33 5 -26 -27 -56 -60 -56 -34 0 -67 45 -67 92 0
59 22 88 66 88 25 0 44 9 73 35 27 24 48 35 70 35 38 0 39 9 6 40 -32 30 -23
40 52 56 79 17 113 17 113 0z m297 -25 c85 -43 127 -116 127 -216 0 -110 -46
-180 -135 -207 -77 -22 -160 27 -145 87 10 40 43 51 84 29 33 -18 34 -18 48 1
22 30 17 84 -11 121 -18 24 -25 45 -25 79 0 41 -5 52 -40 87 -22 22 -37 44
-35 48 7 11 89 -7 132 -29z m1492 15 c30 -16 32 -21 27 -49 -14 -69 -15 -68
49 -88 35 -11 72 -16 88 -13 34 7 63 -15 84 -63 11 -28 11 -38 0 -65 -34 -81
-116 -83 -101 -3 7 39 -9 48 -59 34 -39 -11 -54 -25 -82 -82 -17 -33 -29 -43
-73 -60 -70 -25 -95 -63 -88 -128 3 -32 0 -53 -9 -65 -19 -26 -19 -66 2 -102
9 -16 13 -35 9 -43 -36 -73 -96 -165 -109 -167 -20 -4 -70 71 -92 139 -9 27
-22 49 -28 49 -6 0 -22 -11 -36 -24 l-26 -24 -74 42 c-41 22 -76 47 -79 53 -2
8 16 21 42 33 26 11 58 32 72 47 25 27 30 28 126 28 l99 0 39 41 c29 32 45 62
64 126 31 100 45 122 97 148 25 13 39 27 39 39 0 27 -46 61 -82 61 -38 0 -45
22 -19 65 l21 36 -30 17 c-16 9 -30 23 -30 31 0 19 114 10 159 -13z m-3732
-36 c21 -62 9 -183 -20 -202 -48 -30 -74 132 -34 219 15 33 40 25 54 -17z
m3428 20 c4 -6 -5 -30 -19 -55 -18 -29 -26 -58 -26 -89 0 -32 -6 -52 -24 -73
-34 -40 -39 -66 -22 -107 17 -40 26 -43 61 -20 57 37 101 -13 54 -62 -29 -31
-62 -30 -126 2 -40 19 -57 35 -72 68 -52 107 2 270 107 326 42 22 58 24 67 10z
m-620 -125 c6 -55 -13 -146 -32 -152 -45 -15 -69 191 -29 252 l20 30 17 -40
c10 -22 21 -62 24 -90z m-2181 74 c25 -22 46 -49 46 -59 0 -22 -96 -170 -110
-170 -6 0 -10 50 -10 135 0 155 2 158 74 94z m4986 11 c22 -53 -5 -230 -35
-230 -7 0 -21 20 -31 45 -40 106 24 286 66 185z m-5852 -40 c6 0 18 -7 27 -16
14 -15 14 -18 0 -40 -22 -33 -19 -44 15 -56 23 -8 38 -25 62 -72 17 -33 44
-76 59 -94 16 -18 29 -42 29 -53 0 -21 -37 -98 -76 -161 -22 -35 -28 -38 -69
-38 -25 0 -45 -2 -45 -4 0 -2 9 -25 20 -51 25 -59 25 -62 -7 -70 -15 -3 -39
-15 -54 -26 -33 -23 -45 -24 -53 -3 -12 31 -7 709 5 721 9 9 20 6 44 -13 17
-13 37 -24 43 -24z m5256 33 c11 -29 -5 -253 -18 -253 -7 0 -28 21 -48 48 -30
40 -35 53 -30 87 3 25 18 58 40 88 40 52 47 55 56 30z m334 -28 l51 -36 -15
-34 -14 -35 39 -19 c31 -16 45 -34 74 -93 20 -40 44 -85 53 -100 20 -30 23
-23 -53 -158 -44 -76 -52 -85 -87 -93 -36 -9 -38 -11 -32 -43 6 -29 3 -35 -22
-48 -16 -8 -34 -22 -41 -30 -8 -9 -20 -16 -27 -16 -12 0 -14 62 -14 368 0 203
3 372 7 376 10 9 23 3 81 -39z m547 -330 c0 -249 -3 -357 -11 -365 -9 -9 -20
-4 -45 18 -19 16 -44 35 -57 41 -18 9 -22 19 -20 43 3 26 -1 32 -30 42 -27 9
-42 27 -82 100 -28 49 -50 99 -50 110 0 12 12 39 27 61 15 22 37 67 49 100 21
57 23 60 59 63 36 3 37 4 31 37 -5 27 -3 35 12 39 11 4 36 25 57 47 28 30 40
38 49 29 8 -8 11 -115 11 -365z m-4617 319 c23 -14 52 -38 64 -54 l22 -30 27
26 c47 45 63 31 72 -66 15 -157 16 -145 -20 -144 -203 3 -205 4 -161 59 21 27
21 29 4 39 -69 40 -167 176 -145 202 13 16 82 0 137 -32z m-983 -298 c7 -316
4 -386 -16 -386 -6 0 -25 11 -44 25 -18 14 -50 29 -70 32 -45 7 -51 20 -31 66
l14 36 -31 3 c-28 3 -37 12 -81 92 l-49 89 41 81 c22 44 43 92 46 106 9 39 21
51 57 59 30 6 34 11 34 39 0 27 6 35 45 55 83 44 76 67 85 -297z m3238 271 c3
-18 11 -51 18 -74 10 -34 10 -44 0 -57 -37 -44 -111 13 -111 86 0 31 7 46 30
70 36 35 55 28 63 -25z m897 43 c0 -29 -58 -121 -103 -162 l-51 -48 22 -39
c39 -70 22 -99 -43 -76 -22 8 -70 14 -107 15 l-68 0 6 73 c4 41 2 89 -4 111
-19 65 2 75 100 51 20 -5 35 -1 58 15 64 46 190 85 190 60z m-2352 -54 c21
-66 -16 -138 -62 -120 -27 10 -28 47 -6 108 26 68 48 72 68 12z m-1227 -105
l23 -18 -42 -40 c-52 -49 -55 -82 -13 -124 54 -53 127 -35 168 41 18 32 24 35
68 38 26 2 52 -1 57 -6 14 -14 -11 -106 -42 -156 -41 -63 -93 -95 -179 -108
-87 -13 -125 -6 -184 33 -55 36 -87 96 -87 162 0 59 14 94 53 136 57 60 134
78 178 42z m3987 -51 c102 -62 96 -227 -11 -314 -31 -25 -49 -31 -101 -34
-107 -7 -204 52 -246 150 -21 49 -21 52 -4 65 27 20 57 16 98 -12 40 -27 103
-34 124 -13 23 23 14 65 -18 88 -60 43 -24 90 70 90 37 0 65 -6 88 -20z
m-3064 -140 c28 -10 34 -38 14 -58 -18 -18 -69 -14 -106 8 -27 17 -31 24 -22
35 19 22 75 30 114 15z m2086 -10 c36 -22 -73 -89 -124 -76 -35 9 -40 33 -11
62 19 19 34 24 72 24 26 0 55 -5 63 -10z m-1035 -67 c25 -32 45 -64 45 -70 0
-15 -175 -19 -184 -5 -6 10 74 132 86 132 4 0 28 -26 53 -57z m-1399 16 c50
-46 21 -119 -48 -119 -35 0 -40 -10 -22 -46 22 -42 26 -44 85 -57 48 -11 56
-16 72 -50 28 -56 18 -71 -44 -64 -70 9 -120 36 -144 80 -11 20 -27 37 -36 37
-18 0 -37 -38 -41 -85 -4 -39 -39 -58 -95 -51 -42 6 -42 5 -53 -35 -18 -68
-30 -33 -30 90 0 91 3 121 14 130 12 10 18 7 31 -13 24 -36 38 -33 71 15 21
30 28 53 29 91 1 54 11 66 70 94 42 20 110 12 141 -17z m620 1 c61 -31 127
-40 204 -26 38 7 49 2 66 -29 6 -11 32 -31 57 -45 28 -15 46 -31 45 -40 -3
-14 -120 -78 -146 -79 -8 -1 -25 8 -39 19 -31 24 -53 12 -53 -29 0 -14 -9 -40
-19 -57 -21 -34 -80 -84 -100 -84 -6 0 -23 26 -37 58 -14 31 -36 73 -50 94
-24 34 -25 38 -10 67 20 37 20 58 1 95 -16 30 -20 68 -8 79 12 12 29 8 89 -23z
m2224 -23 c18 -9 27 -25 36 -62 6 -28 18 -64 27 -82 10 -18 17 -39 17 -48 0
-27 39 -17 55 15 21 40 33 38 55 -12 25 -58 31 -156 11 -187 -7 -11 -13 -11
-32 3 -13 9 -38 16 -55 16 -41 0 -78 30 -97 78 -30 75 -63 79 -96 14 -19 -38
-84 -82 -120 -82 -22 0 -86 -38 -114 -68 -15 -16 -39 -56 -52 -88 -22 -55 -26
-59 -62 -65 -21 -3 -48 -10 -59 -17 -29 -15 -55 -83 -48 -122 5 -22 2 -31 -10
-36 -21 -8 -41 9 -73 63 l-26 44 27 28 c14 15 26 31 26 37 0 5 -20 17 -44 27
-25 10 -66 41 -92 69 l-48 51 27 23 c33 28 165 59 210 49 69 -15 221 2 263 29
14 10 35 39 46 66 16 39 28 53 62 69 23 10 48 26 55 35 17 20 7 46 -17 46 -19
0 -62 34 -62 50 0 21 24 59 44 69 24 12 109 5 146 -12z m-2680 -39 c36 -59 39
-148 5 -148 -33 0 -65 98 -51 155 9 34 22 32 46 -7z m3423 -100 c9 -152 9
-262 1 -282 -11 -28 -33 -17 -55 27 -11 23 -50 71 -85 107 l-64 66 55 48 c31
27 72 73 92 102 20 30 39 54 43 54 4 0 10 -55 13 -122z m-4398 55 c24 -21 54
-46 66 -55 18 -12 22 -20 14 -31 -5 -9 -27 -40 -48 -71 -21 -31 -45 -76 -55
-101 -25 -67 -42 -59 -43 23 -2 102 2 256 8 265 7 12 14 9 58 -30z m3361 15
c9 -28 8 -103 -1 -117 -14 -24 -43 -31 -59 -15 -22 21 -20 67 4 114 23 45 45
51 56 18z m-3977 -33 c21 -43 19 -161 -3 -203 -19 -37 -35 -37 -54 -1 -14 25
-11 186 3 222 11 26 37 17 54 -18z m5605 -15 c28 -47 29 -158 2 -218 -24 -54
-43 -52 -74 8 -20 38 -23 55 -18 111 6 83 29 142 53 137 9 -2 26 -19 37 -38z
m-3792 -4 c70 -39 92 -106 35 -106 -43 0 -125 84 -113 115 8 21 29 19 78 -9z
m2008 -2 c0 -59 -120 -164 -160 -139 -34 21 15 100 82 134 51 25 78 27 78 5z
m-1083 -46 c-3 -13 -15 -52 -28 -88 -12 -36 -24 -71 -25 -77 -2 -7 -18 -13
-37 -13 -19 0 -54 -7 -77 -15 l-42 -15 -67 62 c-36 33 -70 67 -74 74 -11 18
50 47 143 69 41 9 80 18 85 20 6 2 36 4 69 4 56 1 58 0 53 -21z m206 6 c102
-23 217 -72 217 -92 0 -10 -32 -45 -70 -80 l-70 -63 -31 22 c-18 12 -47 22
-70 23 -38 1 -39 2 -56 51 -9 27 -25 67 -36 88 -36 69 -12 79 116 51z m-1949
-2 c3 -5 6 -67 7 -138 1 -98 -2 -129 -11 -129 -20 0 -80 94 -86 136 -8 51 -27
50 -56 -3 -17 -31 -34 -47 -63 -58 -23 -8 -55 -25 -72 -37 -17 -13 -36 -23
-42 -23 -16 0 -13 36 6 73 46 89 110 140 210 167 78 21 100 23 107 12z m3604
-41 c15 -10 65 -38 112 -61 113 -56 150 -85 150 -116 0 -18 -5 -24 -22 -24
-43 1 -129 38 -162 69 -42 41 -56 40 -49 -2 6 -37 -10 -76 -53 -126 -38 -46
-48 -40 -38 22 4 28 9 95 10 147 1 52 3 98 3 103 2 12 22 8 49 -12z m-2283
-103 c9 -59 25 -163 25 -171 0 -4 -16 -15 -35 -23 -25 -10 -42 -27 -57 -59
-12 -25 -25 -45 -29 -45 -4 0 -22 6 -40 14 -19 8 -62 17 -97 21 -34 4 -65 11
-68 17 -15 24 111 168 211 241 63 46 82 47 90 5z m1028 -55 c73 -63 150 -157
145 -179 -2 -13 -24 -23 -75 -35 -40 -10 -83 -23 -95 -30 -18 -10 -23 -9 -26
2 -3 8 -27 36 -54 62 l-49 48 11 92 c6 50 16 97 21 104 15 17 49 -1 122 -64z
m-1628 51 c17 -11 36 -14 68 -9 34 5 52 2 82 -14 21 -11 62 -25 91 -31 29 -6
55 -17 57 -24 10 -25 -25 -58 -91 -88 l-64 -29 21 -23 c27 -29 27 -35 -10
-108 -35 -69 -28 -70 -82 7 -10 14 -35 36 -56 50 -34 21 -39 29 -43 74 -5 47
-14 65 -74 148 -16 22 -15 23 27 43 53 24 45 23 74 4z m-1504 -23 c14 -10 36
-21 49 -23 21 -2 26 -10 31 -46 3 -24 4 -79 1 -123 l-5 -79 -29 0 c-93 0 -198
138 -169 223 24 67 74 86 122 48z m5220 -17 c16 -17 23 -36 22 -60 -2 -68
-105 -179 -160 -172 l-28 3 0 105 c0 97 2 105 20 108 11 2 29 12 40 22 39 34
70 33 106 -6z m-5618 2 c72 -66 30 -190 -78 -232 -68 -25 -75 -15 -75 113 l0
104 43 19 c57 25 79 24 110 -4z m6000 -16 c22 -17 26 -18 37 -5 24 29 37 16
44 -40 7 -63 -2 -164 -17 -182 -25 -32 -129 4 -167 57 -13 19 -25 53 -28 79
-3 40 0 52 23 79 32 38 70 42 108 12z m-4435 -32 c4 -33 -29 -58 -78 -58 -42
0 -77 21 -65 39 16 26 70 51 105 49 30 -3 35 -7 38 -30z m2894 -15 c35 -23 57
-44 56 -53 -4 -22 -98 -26 -137 -5 -39 20 -52 62 -26 82 28 20 43 16 107 -24z
m-3382 -31 c38 -39 47 -90 25 -147 -22 -59 -47 -75 -116 -75 -73 0 -116 28
-143 93 -15 37 -17 50 -8 59 9 9 22 3 55 -30 34 -34 50 -42 79 -42 20 0 44 7
52 16 34 34 8 84 -45 84 -36 0 -40 31 -7 54 35 25 76 20 108 -12z m671 -11
c36 -37 39 -88 7 -151 -35 -68 -89 -93 -193 -87 -94 4 -155 28 -208 81 -39 38
-56 81 -40 97 6 6 29 1 64 -16 30 -13 66 -25 81 -25 15 0 42 -9 60 -20 40 -24
66 -25 96 -4 21 14 21 17 7 44 -20 39 -19 66 5 90 31 31 85 27 121 -9z m3187
-7 c31 -21 28 -43 -8 -51 -74 -14 -53 -93 24 -93 34 0 71 34 90 80 29 72 56
42 36 -40 -27 -112 -131 -171 -220 -125 -40 21 -50 43 -50 113 0 64 22 105 64
122 30 13 39 12 64 -6z m-2109 -20 c24 -30 46 -97 61 -183 23 -132 -14 -148
-73 -31 -69 137 -60 306 12 214z m305 10 c13 -35 5 -135 -15 -189 -26 -70 -74
-127 -103 -123 -19 3 -21 9 -19 58 4 84 32 185 64 230 30 41 62 52 73 24z
m1160 -23 c13 -14 15 -28 10 -59 -6 -38 -4 -42 19 -53 27 -12 28 -12 174 32
17 6 50 23 72 40 50 36 65 37 57 4 -13 -50 -26 -75 -63 -116 -51 -57 -102 -79
-184 -79 -79 0 -160 36 -190 84 -28 46 -25 111 6 141 29 30 75 33 99 6z
m-4074 -67 l62 -76 -52 -53 -53 -54 -63 57 c-35 31 -63 62 -64 67 0 15 88 135
99 135 4 0 36 -34 71 -76z m5595 -1 c30 -32 54 -65 55 -73 0 -8 -21 -36 -47
-62 -55 -56 -85 -62 -107 -20 -8 15 -30 41 -50 59 -20 17 -36 36 -36 42 0 18
94 109 113 110 10 1 42 -25 72 -56z m-607 -229 c2 -169 0 -214 -11 -223 -11
-8 -29 -5 -78 15 -35 14 -67 31 -70 36 -4 6 0 26 8 45 8 21 13 61 12 98 -2 56
1 69 25 100 15 19 39 60 53 91 17 39 30 54 41 52 15 -3 17 -27 20 -214z
m-3984 190 c15 -39 5 -130 -19 -179 -28 -58 -40 -74 -75 -98 -50 -34 -172 -11
-204 38 -36 54 -11 85 68 85 85 0 136 35 176 120 24 51 43 63 54 34z m-432
-37 c15 -23 37 -54 50 -70 20 -24 21 -31 10 -60 -14 -39 -16 -106 -3 -126 13
-21 4 -36 -41 -66 -67 -44 -68 -41 -68 175 0 210 4 222 52 147z m2973 -39 c36
-80 60 -162 70 -249 8 -77 -4 -87 -76 -59 -30 11 -65 20 -79 20 -41 0 -52 14
-54 68 -1 35 -8 60 -24 81 -12 17 -22 34 -22 39 0 4 16 24 36 43 20 18 43 48
51 64 19 36 43 65 55 65 5 0 24 -33 43 -72z m-1525 -9 c63 -71 63 -71 42 -88
-30 -23 -42 -62 -32 -104 4 -20 5 -39 2 -42 -12 -12 -175 -85 -190 -85 -12 0
-14 12 -9 73 9 112 80 317 110 317 8 0 43 -32 77 -71z m373 38 c85 -55 167
-160 143 -184 -19 -19 -155 80 -200 145 -27 39 -30 72 -6 72 6 0 35 -15 63
-33z m740 19 c9 -22 -39 -112 -81 -153 -132 -128 -146 -29 -15 107 58 59 86
73 96 46z m1373 -28 c40 -79 93 -115 198 -133 l71 -12 -1 -36 c-1 -44 -40 -99
-83 -117 -36 -15 -84 -8 -128 19 -74 46 -149 311 -88 311 8 0 22 -15 31 -32z
m869 -55 c67 -65 81 -147 34 -194 -23 -23 -76 -25 -106 -4 -14 10 -32 13 -48
9 l-25 -6 0 125 c0 91 3 126 13 130 24 8 96 -25 132 -60z m-5667 38 c118 -61
150 -221 43 -221 -10 0 -28 12 -38 26 -16 22 -22 24 -45 15 -14 -5 -29 -7 -32
-4 -8 9 -8 188 1 196 11 12 32 8 71 -12z m553 -13 c12 -22 9 -182 -4 -195 -4
-3 -18 0 -31 7 -23 12 -27 10 -59 -24 -36 -38 -53 -39 -89 -8 -42 36 -23 130
35 175 38 29 107 66 124 67 7 0 17 -10 24 -22z m3675 -34 c44 -36 69 -65 70
-78 0 -12 4 -36 8 -54 10 -40 -4 -59 -49 -68 -37 -7 -135 35 -190 81 l-30 25
22 18 c17 13 22 26 21 56 -1 30 4 44 21 58 35 28 53 23 127 -38z m-2248 31
c12 -9 25 -30 30 -48 6 -21 14 -32 27 -32 30 0 28 -21 -7 -61 -59 -67 -161
-94 -227 -59 -33 16 -41 33 -41 80 0 27 8 39 38 63 91 72 137 87 180 57z
m4160 3 c13 -13 18 -199 6 -211 -4 -3 -15 -2 -25 4 -14 7 -28 3 -60 -21 -51
-36 -82 -38 -114 -5 -26 26 -32 65 -16 108 32 84 168 166 209 125z m-4637 -62
c35 -13 88 -27 117 -31 51 -7 52 -7 52 -41 0 -44 -18 -51 -68 -25 l-40 20 -9
-37 c-7 -32 -16 -41 -60 -62 -28 -14 -57 -31 -66 -38 -8 -7 -38 -25 -66 -41
l-52 -28 95 -62 c53 -34 109 -67 125 -72 19 -7 33 -21 40 -40 10 -29 11 -30
40 -14 17 8 34 15 39 15 12 0 45 -50 38 -57 -2 -3 -39 -9 -81 -14 -51 -5 -100
-19 -147 -40 -78 -37 -87 -33 -88 31 0 51 -41 128 -94 180 -25 24 -46 48 -46
53 0 4 27 33 61 64 70 66 98 114 105 186 10 90 8 90 105 53z m3178 -62 c18
-72 46 -117 101 -167 27 -25 50 -48 50 -52 0 -4 -25 -34 -55 -67 -57 -64 -91
-134 -104 -221 -10 -56 -16 -65 -39 -49 -72 51 -106 64 -174 71 -39 3 -73 11
-75 16 -1 6 6 25 17 43 20 32 21 32 50 17 16 -8 31 -15 35 -15 3 0 5 19 5 43
l1 42 102 50 c56 28 102 55 101 60 0 6 -27 22 -60 37 -126 59 -129 61 -126 91
3 25 0 27 -36 27 -46 0 -72 22 -55 48 7 11 31 19 71 24 33 4 77 16 99 27 62
33 79 28 92 -25z m-1109 -52 l23 -18 -27 -22 c-47 -36 -135 -64 -211 -66 -64
-1 -70 1 -70 19 0 23 22 35 139 76 95 34 116 35 146 11z m-946 -12 c36 -12 78
-31 93 -44 l27 -23 -23 -12 c-45 -25 -252 20 -276 58 -27 45 67 55 179 21z
m3232 -62 c31 -60 31 -221 -1 -264 -13 -18 -14 -18 -33 -1 -23 21 -52 116 -52
170 0 59 33 126 62 127 4 0 15 -14 24 -32z m-5589 -25 c33 -77 15 -239 -26
-231 -38 8 -53 167 -23 241 16 37 30 34 49 -10z m2814 -2 c54 -55 29 -146 -47
-165 -38 -10 -94 21 -110 61 -18 43 -9 77 28 108 42 35 91 34 129 -4z m-1034
-70 c2 -64 0 -83 -12 -87 -17 -7 -125 65 -125 83 0 14 110 93 125 89 6 -1 11
-40 12 -85z m2021 54 c28 -20 52 -41 52 -48 0 -16 -123 -88 -133 -78 -11 11
-21 105 -13 135 9 35 31 33 94 -9z m-4068 -15 c14 -7 32 -16 40 -20 8 -4 14
-18 12 -31 -1 -13 -4 -33 -5 -44 -2 -16 5 -21 33 -23 33 -3 38 -8 62 -60 15
-31 41 -73 57 -92 54 -63 52 -85 -21 -181 -40 -53 -75 -89 -96 -98 -23 -11
-31 -19 -26 -30 4 -9 9 -28 11 -42 4 -22 0 -27 -36 -37 -22 -7 -54 -24 -71
-38 -28 -24 -30 -25 -37 -7 -10 24 -10 702 0 727 6 16 9 17 30 4 12 -8 33 -21
47 -28z m554 4 c8 -20 8 -678 0 -698 -8 -22 -17 -20 -60 9 -20 14 -45 25 -55
25 -29 0 -31 16 -9 59 11 22 20 42 20 45 0 3 -17 6 -37 8 -36 3 -40 7 -90 93
-29 49 -53 101 -53 115 0 14 16 49 35 79 19 30 42 76 50 102 14 42 20 48 48
51 30 3 32 6 32 41 0 33 5 40 40 61 48 29 71 32 79 10z m549 -5 c46 -12 52
-45 10 -56 -41 -11 -135 -8 -161 6 -72 38 48 79 151 50z m605 -11 c71 -22 8
-67 -93 -67 -64 1 -129 20 -133 40 -3 15 24 26 103 42 24 6 79 -1 123 -15z
m2780 -13 c17 -8 32 -19 32 -25 0 -30 -125 -41 -185 -16 -44 19 -44 33 -2 51
36 17 101 12 155 -10z m1664 -296 c8 -307 5 -399 -11 -399 -5 0 -34 11 -66 25
-46 21 -56 29 -50 43 18 43 17 49 -12 55 -16 4 -37 20 -50 39 -12 18 -36 53
-52 77 -19 26 -31 57 -31 75 0 17 20 79 44 136 40 95 47 106 77 116 30 10 34
15 31 42 -3 26 2 33 27 47 17 8 38 27 47 41 35 52 39 27 46 -297z m-559 271
c48 -36 49 -37 35 -101 -2 -10 9 -15 40 -17 31 -2 46 -9 56 -25 118 -197 119
-202 56 -304 -51 -82 -64 -93 -107 -93 l-34 0 17 -29 c21 -36 14 -57 -24 -64
-16 -3 -40 -17 -53 -31 -13 -14 -32 -26 -41 -26 -17 0 -18 24 -18 358 0 197 3
362 7 366 9 8 9 8 66 -34z m-499 0 c32 -12 34 -36 4 -44 -74 -19 -165 13 -131
47 10 10 98 8 127 -3z m-1189 -95 c-13 -120 -76 -299 -118 -333 -18 -16 -30
-6 -87 73 -19 27 -39 54 -44 61 -7 8 -1 22 17 44 35 41 42 72 30 126 -11 47
-3 64 32 64 11 0 49 11 85 24 85 30 94 23 85 -59z m-1693 45 c34 -16 70 -30
79 -30 25 0 39 -22 39 -62 0 -22 9 -56 19 -76 l19 -37 -55 -83 c-30 -45 -60
-82 -67 -82 -42 0 -146 324 -123 383 9 23 15 22 89 -13z m-1321 -3 c35 -24 35
-26 23 -100 -4 -27 -1 -51 11 -77 l18 -39 -36 -40 c-20 -22 -43 -54 -52 -71
-9 -17 -22 -30 -28 -27 -15 5 -29 195 -21 300 6 71 8 77 29 77 12 0 37 -10 56
-23z m-171 -2 c10 -12 11 -53 6 -178 -4 -89 -12 -167 -17 -173 -18 -22 -50
-23 -71 -2 -19 19 -20 29 -16 185 3 128 8 167 19 174 22 14 65 11 79 -6z
m2034 2 c17 -13 16 -15 -13 -39 -68 -58 -262 -103 -277 -64 -9 23 10 41 70 71
83 41 187 56 220 32z m751 -18 c62 -23 92 -54 73 -77 -17 -19 -125 -8 -189 19
-54 24 -95 62 -84 80 11 17 131 4 200 -22z m1766 -69 c1 -47 1 -124 1 -172 -2
-103 -14 -112 -57 -45 -15 23 -40 53 -55 68 -25 23 -27 30 -25 102 1 43 4 80
7 82 16 16 114 63 119 57 4 -4 8 -45 10 -92z m147 78 c8 -8 12 -62 12 -179 0
-179 -4 -194 -52 -187 -20 3 -24 10 -30 68 -9 80 1 281 15 298 12 15 39 16 55
0z m-4227 -48 c87 -45 131 -154 107 -270 -8 -42 -18 -65 -27 -65 -7 0 -23 28
-36 63 -37 103 -86 142 -178 142 -61 0 -77 11 -77 55 0 36 23 73 54 85 39 16
115 11 157 -10z m713 5 c18 -9 47 -31 65 -49 31 -32 31 -32 11 -51 -11 -10
-20 -31 -20 -47 0 -15 -9 -37 -20 -48 -17 -17 -24 -19 -43 -9 -106 56 -161
164 -105 203 28 20 71 20 112 1z m2382 -26 c24 -23 32 -63 14 -74 -5 -3 -14
-23 -19 -43 -7 -25 -24 -48 -53 -70 -23 -17 -44 -32 -47 -32 -3 0 -20 9 -38
20 -31 18 -53 66 -53 114 0 10 -8 25 -17 32 -17 13 -17 15 2 30 71 57 164 67
211 23z m705 9 c46 -13 67 -34 75 -75 7 -37 -7 -47 -79 -56 -93 -13 -150 -57
-183 -143 -9 -24 -20 -44 -25 -44 -29 0 -29 148 1 217 42 98 112 131 211 101z
m-2164 -84 c7 -20 -76 -133 -127 -173 -114 -90 -122 -17 -11 102 69 75 127
105 138 71z m471 -24 c116 -93 181 -221 88 -173 -79 40 -176 146 -176 192 0
33 32 26 88 -19z m-320 -78 c5 -72 -44 -230 -75 -240 -42 -13 -33 137 13 235
32 67 57 69 62 5z m-854 -56 c20 -33 36 -67 36 -75 0 -8 -11 -27 -25 -41 -30
-31 -24 -40 42 -59 54 -15 99 -52 90 -74 -3 -9 -17 -23 -30 -32 -38 -24 -168
-57 -197 -50 -14 4 -62 8 -107 9 -106 1 -117 12 -65 63 44 44 65 79 81 140 7
24 23 51 39 63 36 29 51 58 52 101 0 69 23 57 84 -45z m1023 42 c36 -61 53
-116 53 -175 0 -35 -3 -43 -19 -43 -25 0 -91 145 -98 217 -5 48 -4 53 13 53
13 0 31 -18 51 -52z m853 33 c5 -11 10 -32 10 -46 0 -40 26 -76 78 -110 40
-26 47 -36 57 -81 7 -29 26 -73 43 -99 24 -37 29 -51 21 -62 -17 -19 -70 -16
-104 7 -38 25 -45 25 -87 -4 l-35 -24 -86 32 c-47 18 -97 40 -111 50 -25 16
-26 18 -10 47 18 36 67 59 124 59 33 0 40 3 40 20 0 11 -13 29 -30 42 -16 12
-30 28 -30 35 0 33 79 153 101 153 4 0 13 -9 19 -19z m-2857 -70 c29 -29 32
-37 32 -94 -1 -71 -20 -108 -65 -127 -22 -9 -33 -9 -52 1 -41 22 -53 59 -17
59 76 0 81 87 6 113 -10 4 -32 1 -50 -7 -31 -13 -46 -33 -67 -88 -14 -40 -30
-34 -30 11 0 51 15 89 48 125 37 38 59 46 115 42 39 -3 55 -10 80 -35z m629
16 c70 -35 85 -123 31 -188 -31 -37 -91 -41 -124 -8 -18 18 -20 28 -14 75 l6
54 -30 0 c-20 0 -41 -10 -61 -30 -22 -22 -40 -30 -66 -30 -43 0 -93 -20 -118
-49 -43 -48 -61 -10 -27 57 27 53 80 99 137 122 64 26 210 24 266 -3z m2769
-14 c59 -26 115 -76 140 -125 17 -32 17 -39 5 -44 -8 -3 -27 4 -43 15 -16 12
-52 24 -83 28 -39 4 -65 14 -90 35 -38 31 -90 37 -110 13 -9 -11 -9 -22 0 -49
27 -84 -44 -140 -103 -80 -68 68 -28 193 73 223 51 15 158 7 211 -16z m531 8
c27 -11 68 -48 68 -62 0 -20 -32 -20 -83 1 -50 21 -55 21 -91 6 -35 -14 -37
-18 -34 -53 3 -38 3 -38 53 -43 56 -6 70 -27 39 -61 -26 -29 -77 -25 -115 9
-27 24 -33 38 -37 83 -3 45 0 59 18 82 13 16 32 33 44 37 28 12 109 12 138 1z
m-2559 -111 c10 -17 36 -40 58 -53 41 -23 46 -35 28 -69 -9 -17 -16 -70 -19
-150 -1 -37 -118 40 -216 143 -104 110 -104 127 5 139 40 4 75 11 78 14 16 16
50 4 66 -24z m1131 5 c88 -21 96 -24 96 -46 0 -10 -37 -56 -82 -102 -86 -87
-172 -147 -188 -131 -5 5 -14 43 -20 84 -6 41 -13 83 -16 92 -3 12 4 22 25 33
17 8 43 31 58 50 32 40 37 41 127 20z m-3354 -75 c11 -43 -2 -125 -25 -156
-19 -26 -46 -8 -63 42 -16 45 -3 130 24 173 l17 25 18 -23 c10 -13 23 -40 29
-61z m5591 3 c23 -70 -1 -223 -37 -237 -38 -15 -71 139 -43 206 33 84 59 94
80 31z m-724 -38 c-7 -45 -67 -135 -122 -183 -53 -47 -208 -142 -231 -142 -13
0 -15 6 -10 28 4 15 10 80 13 145 4 81 9 117 17 117 7 0 31 -16 54 -36 38 -32
42 -40 42 -81 0 -55 15 -53 50 7 16 27 43 54 70 70 28 16 54 42 68 68 30 53
57 57 49 7z m-3557 -3 c14 -11 26 -28 28 -40 4 -25 -30 -46 -60 -36 -38 12
-108 59 -108 72 0 35 94 37 140 4z m2961 8 c29 -16 24 -25 -38 -65 -40 -24
-67 -35 -88 -33 -45 4 -45 37 0 77 38 33 87 41 126 21z m-3321 -140 c0 -120
-2 -140 -16 -140 -23 0 -156 63 -207 99 -57 39 -94 95 -77 116 16 20 28 19 75
-5 56 -29 104 -26 151 8 21 16 45 36 53 45 7 9 15 17 17 17 2 0 4 -63 4 -140z
m4034 104 c3 -9 6 -103 6 -210 0 -173 -2 -195 -17 -201 -12 -5 -24 4 -42 28
-41 54 -82 88 -128 105 -24 9 -43 22 -43 29 0 7 31 40 70 74 52 46 77 78 100
127 32 66 43 76 54 48z m-4434 -21 c26 -71 78 -137 138 -174 17 -12 32 -25 32
-30 0 -5 -17 -17 -38 -28 -35 -18 -95 -78 -133 -132 -30 -43 -39 -15 -39 115
0 150 10 276 22 276 5 0 13 -12 18 -27z m1976 -29 c23 -9 52 -14 72 -11 21 4
34 2 36 -6 2 -7 18 -52 36 -101 37 -102 34 -109 -40 -100 -125 15 -270 62
-270 87 0 7 16 29 36 48 19 18 44 49 55 67 24 37 24 37 75 16z m455 0 c7 -9
38 -33 69 -54 80 -55 87 -65 56 -85 -47 -31 -171 -67 -250 -72 l-79 -6 6 24
c3 13 13 57 24 96 l18 73 35 0 c19 0 49 9 65 19 38 24 40 25 56 5z m-1914 -14
c4 -16 14 -20 45 -20 21 0 52 -7 68 -15 27 -14 29 -18 24 -58 -7 -51 9 -77 51
-80 27 -2 32 3 56 53 27 57 58 79 112 80 36 0 44 -22 26 -73 -11 -32 -21 -42
-54 -53 -67 -22 -109 -94 -55 -94 9 0 29 -9 44 -21 59 -47 17 -129 -66 -129
-70 0 -117 40 -118 100 -1 37 -9 55 -49 108 -28 36 -39 39 -56 15 -7 -9 -17
-13 -23 -9 -15 9 -42 101 -42 140 0 65 25 102 37 56z m3371 -20 c5 -52 -7
-135 -23 -156 -11 -15 -16 -17 -26 -6 -18 17 -49 15 -49 -3 0 -9 -9 -34 -21
-56 -11 -23 -23 -60 -27 -82 -6 -35 -13 -45 -42 -59 -49 -25 -130 -24 -158 2
-33 31 -29 69 8 81 53 19 27 75 -51 113 -42 20 -44 23 -47 70 -2 27 1 53 5 57
11 11 123 -18 145 -38 9 -8 20 -32 23 -54 8 -46 25 -50 54 -13 15 19 21 41 21
74 0 40 4 50 26 65 19 12 37 15 65 11 32 -5 41 -3 51 14 19 31 42 20 46 -20z
m-964 -12 c13 -24 32 -69 42 -100 17 -57 17 -57 -6 -102 l-24 -44 27 -39 c48
-69 28 -126 -30 -85 -49 34 -100 45 -179 38 -69 -6 -73 -6 -79 16 -11 35 -36
59 -81 78 -23 10 -45 24 -50 31 -9 15 32 50 88 75 l38 17 30 -28 c37 -35 56
-28 71 27 6 24 17 55 24 69 20 38 71 89 89 89 8 0 26 -19 40 -42z m-1399 -4
c19 -20 39 -50 45 -68 19 -52 27 -61 46 -58 80 14 79 15 153 -33 45 -29 71
-52 69 -62 -2 -8 -27 -23 -56 -32 -29 -10 -67 -31 -83 -47 -27 -26 -36 -28
-90 -26 -71 4 -151 -17 -198 -53 -19 -14 -38 -25 -42 -25 -4 0 -10 18 -14 41
-6 33 -3 47 12 68 27 36 33 64 21 109 -8 34 -5 47 33 130 25 55 48 92 57 92 8
0 29 -16 47 -36z m-2276 5 c37 -13 61 -53 61 -104 0 -79 -58 -153 -143 -181
-50 -17 -51 -17 -69 6 -16 20 -18 38 -16 119 3 90 4 96 24 93 14 -2 25 6 35
24 11 22 33 37 75 54 1 0 15 -5 33 -11z m399 -55 c18 -22 32 -32 37 -25 16 26
25 -6 25 -87 0 -106 -6 -117 -55 -109 -86 14 -165 108 -150 177 8 36 58 80 90
80 15 0 34 -13 53 -36z m5212 1 c32 -17 45 -57 35 -107 -10 -44 -93 -125 -138
-133 -71 -14 -72 -12 -72 105 0 104 0 105 23 102 14 -1 37 9 54 23 34 29 57
31 98 10z m370 -10 c17 -9 40 -13 54 -9 23 5 25 3 31 -49 4 -30 3 -83 -1 -118
l-9 -64 -35 -3 c-48 -3 -109 34 -138 83 -31 54 -26 119 13 152 31 27 46 28 85
8z m-2098 -37 c52 -36 109 -138 78 -138 -37 0 -170 107 -170 137 0 16 30 32
49 25 9 -3 28 -14 43 -24z m-1818 7 c13 -36 -141 -151 -174 -130 -15 9 15 60
62 106 44 42 100 54 112 24z m-294 -45 c41 -22 30 -100 -23 -149 -14 -12 -30
-20 -36 -16 -15 8 -14 111 0 138 11 19 28 36 37 37 2 0 12 -4 22 -10z m2390
-131 c0 -67 -15 -77 -49 -33 -45 57 -14 167 32 113 12 -15 17 -39 17 -80z
m-3981 43 c11 -21 27 -44 36 -52 39 -33 38 -46 -17 -121 l-52 -72 -21 28 c-11
16 -36 46 -55 68 -32 36 -33 41 -20 61 67 103 85 126 96 126 8 0 22 -17 33
-38z m5628 -34 c29 -29 53 -59 53 -67 0 -17 -89 -111 -104 -111 -13 0 -116
101 -116 114 0 10 100 116 109 116 3 0 29 -23 58 -52z m-4680 11 c57 -28 118
-98 132 -154 12 -46 15 -108 6 -117 -3 -3 -29 3 -58 12 -42 14 -53 22 -55 41
-6 59 -23 96 -47 107 -41 19 -64 14 -96 -17 -39 -40 -39 -79 3 -127 38 -43 32
-62 -29 -83 -37 -13 -45 -13 -87 3 -64 25 -90 64 -94 147 -5 78 18 133 71 173
64 49 170 55 254 15z m1908 1 c3 -5 -9 -29 -28 -53 -18 -24 -39 -58 -46 -75
-7 -18 -19 -32 -26 -32 -6 0 -26 22 -44 50 -18 27 -45 59 -62 70 -56 41 -40
50 85 50 63 0 117 -4 121 -10z m186 -20 c8 -23 17 -30 36 -30 28 0 93 -58 93
-84 0 -8 -13 -36 -29 -62 -30 -46 -51 -119 -51 -174 0 -19 -7 -33 -19 -40 -25
-13 -118 -13 -126 0 -3 5 3 27 14 48 23 45 20 52 -21 52 -45 0 -88 48 -88 98
0 59 46 140 106 184 27 21 55 38 62 38 7 0 18 -13 23 -30z m-494 -25 c28 -19
64 -51 79 -70 34 -45 43 -114 20 -151 -16 -23 -22 -25 -74 -22 -52 3 -57 1
-60 -19 -2 -14 10 -36 32 -61 20 -22 36 -42 36 -46 0 -4 -37 -6 -82 -4 l-83 3
-6 85 c-4 58 -13 98 -27 127 -12 23 -22 51 -22 61 0 33 34 64 76 71 35 6 39 9
36 34 -5 36 12 35 75 -8z m2263 4 c145 -82 74 -309 -96 -309 -43 0 -84 22 -84
46 0 8 7 14 15 14 28 0 65 47 65 80 0 38 -47 90 -82 90 -38 0 -80 -33 -108
-85 -23 -42 -31 -50 -56 -50 -25 0 -29 4 -32 31 -6 62 49 148 117 184 54 29
209 28 261 -1z m-4546 -45 c13 -5 16 -25 16 -116 l0 -110 -26 6 c-20 5 -30 1
-45 -19 -41 -51 -119 -14 -119 56 0 60 54 144 112 172 37 19 40 19 62 11z
m1530 -20 c20 -19 7 -49 -25 -59 -26 -8 -126 -8 -139 0 -22 13 -8 37 33 55 51
24 110 26 131 4z m2055 -4 c36 -17 41 -23 31 -34 -18 -23 -112 -41 -138 -27
-28 15 -28 46 0 65 29 21 54 20 107 -4z m1504 -13 c88 -37 134 -116 103 -175
-21 -41 -51 -42 -74 -2 -20 35 -42 38 -67 10 -11 -12 -28 -20 -39 -18 -19 3
-21 11 -24 87 -2 46 -1 90 2 98 7 17 58 17 99 0z m525 -76 c4 -106 1 -114 -35
-100 -20 7 -29 7 -31 -1 -2 -6 -14 -23 -26 -37 -17 -20 -27 -24 -45 -18 -34
10 -54 66 -41 113 15 59 107 135 155 129 18 -2 20 -11 23 -86z m-6105 65 c53
-22 87 -70 87 -122 0 -80 -68 -113 -112 -54 -25 34 -34 36 -59 14 -10 -9 -23
-13 -28 -9 -12 7 -15 167 -4 178 11 12 82 8 116 -7z m2493 -61 c33 -22 54 -72
54 -132 0 -74 -18 -93 -90 -93 -32 0 -62 4 -65 10 -3 5 1 23 10 39 19 37 19
62 1 87 -14 18 -16 18 -44 1 -49 -28 -83 1 -63 55 24 65 124 81 197 33z m1165
6 c32 -32 37 -66 15 -97 -11 -15 -27 -19 -68 -19 -48 0 -53 -2 -56 -24 -2 -13
2 -35 9 -48 18 -33 1 -43 -77 -43 -77 0 -89 12 -79 77 9 60 24 90 67 129 47
44 67 53 116 54 35 0 49 -6 73 -29z m879 -36 c0 -13 -8 -40 -17 -60 -16 -34
-16 -36 4 -63 34 -46 84 -152 77 -163 -12 -19 -134 13 -173 47 -29 24 -31 24
-66 9 -43 -17 -59 -12 -49 18 4 12 8 62 8 110 l1 89 50 4 c28 2 70 10 95 18
64 20 70 19 70 -9z m-2965 0 c78 -1 73 7 59 -87 -5 -40 -3 -54 20 -93 15 -25
24 -50 21 -55 -11 -18 -59 -10 -90 14 l-29 24 -31 -23 c-35 -26 -107 -55 -135
-55 -12 0 -20 7 -20 18 0 24 53 134 73 150 15 13 15 17 -4 54 -28 55 -20 73
29 62 20 -4 69 -9 107 -9z m558 -39 c-2 -29 -47 -86 -68 -86 -6 0 -19 -6 -29
-13 -17 -13 -18 -16 -2 -48 19 -40 47 -60 96 -69 34 -5 35 -7 35 -49 0 -33 5
-47 23 -62 47 -38 -7 -51 -103 -25 -85 22 -98 33 -92 72 5 30 3 35 -21 41 -15
3 -50 19 -78 35 -28 15 -60 28 -72 28 -28 0 -62 53 -62 97 0 45 38 86 80 86
42 0 63 -26 55 -70 -8 -42 6 -48 60 -24 37 16 50 29 66 65 20 47 34 55 84 53
27 -2 30 -5 28 -31z m1757 24 c24 -7 42 -22 59 -50 25 -40 82 -76 106 -66 8 3
15 24 17 53 3 41 7 50 31 61 58 28 117 -25 117 -103 0 -52 -14 -72 -57 -80
-21 -4 -59 -22 -84 -41 -26 -19 -53 -34 -61 -34 -8 0 -22 -6 -32 -13 -16 -12
-16 -14 3 -39 30 -37 27 -46 -21 -68 -67 -31 -208 -22 -208 12 0 5 5 6 10 3 6
-3 19 -3 30 0 17 5 20 15 20 65 0 68 12 85 68 94 49 7 64 25 60 68 -2 27 -8
34 -28 36 -56 6 -68 13 -85 48 -28 59 -13 73 55 54z m1345 -52 c8 -58 -8 -291
-20 -295 -5 -1 -34 19 -64 47 -51 47 -53 52 -49 88 5 36 103 201 120 202 4 0
10 -19 13 -42z m-4416 -65 c54 -75 53 -112 -2 -157 -32 -25 -40 -28 -47 -16
-12 19 -13 230 -1 230 5 0 28 -26 50 -57z m1442 16 c38 -41 41 -105 5 -146
-23 -26 -25 -27 -31 -8 -4 11 -20 48 -37 83 -30 60 -30 63 -13 82 25 28 42 25
76 -11z m1513 -1 c11 -31 -8 -100 -32 -120 -36 -30 -59 84 -26 130 20 29 46
25 58 -10z m-2470 -25 c-1 -51 -29 -94 -93 -144 -38 -30 -57 -37 -104 -41 -71
-6 -96 -27 -108 -94 -10 -54 -24 -67 -53 -52 -81 42 -99 131 -34 176 10 8 18
25 18 41 0 33 14 41 75 41 59 0 84 11 162 70 56 42 73 50 103 48 34 -3 35 -4
34 -45z m1720 -45 c-3 -4 -25 -8 -50 -8 -52 0 -57 15 -22 66 l22 32 27 -41
c15 -23 25 -45 23 -49z m1751 27 c75 -71 116 -85 189 -62 29 9 56 17 59 17 3
0 22 -29 42 -63 47 -85 47 -127 1 -173 -50 -50 -71 -45 -100 20 -29 65 -69 91
-122 81 -47 -8 -85 14 -126 77 -46 70 -64 124 -48 143 21 26 45 17 105 -40z
m1072 -21 c29 -80 12 -229 -25 -222 -26 5 -53 93 -48 154 5 57 31 117 48 112
6 -2 18 -22 25 -44z m-5630 5 c18 -34 17 -190 -1 -214 -12 -17 -16 -17 -30 -5
-55 45 -65 159 -20 228 18 27 34 25 51 -9z m-218 -56 c29 -12 33 -18 28 -42
-6 -30 0 -45 24 -53 8 -3 20 -23 27 -44 6 -22 31 -62 56 -90 24 -28 41 -55 38
-60 -11 -16 -69 -54 -83 -54 -6 0 -29 18 -50 41 -21 23 -43 38 -48 34 -6 -3
-11 -26 -11 -50 0 -24 -3 -51 -6 -60 -8 -21 -57 -46 -72 -36 -9 5 -14 73 -19
229 -7 255 -3 271 51 225 17 -14 46 -32 65 -40z m5564 15 c24 -18 52 -37 61
-43 16 -9 16 -13 2 -47 -21 -49 -21 -47 18 -63 24 -10 43 -30 64 -67 16 -29
40 -71 52 -94 28 -48 23 -67 -22 -90 l-32 -17 -31 36 c-61 71 -100 75 -110 12
-7 -49 -46 -88 -66 -68 -12 12 -18 442 -6 461 12 18 23 15 70 -20z m-5058
-206 c0 -250 -4 -265 -54 -214 -27 26 -31 38 -31 82 l0 52 -44 -36 c-24 -20
-49 -36 -55 -36 -18 0 -81 42 -81 54 0 6 12 28 26 49 14 21 36 61 49 90 22 47
28 52 62 57 36 5 38 6 35 40 -2 30 3 39 35 62 21 15 43 26 48 24 6 -2 10 -85
10 -224z m5600 -5 c0 -148 -3 -209 -12 -218 -17 -17 -40 3 -48 42 -8 36 -28
37 -57 4 -26 -30 -52 -32 -96 -5 -39 24 -39 24 22 142 34 67 50 86 79 100 35
17 36 19 25 49 -10 30 -9 33 28 65 21 18 44 32 49 30 6 -2 10 -80 10 -209z
m-4480 87 c29 -29 -21 -127 -89 -173 -64 -45 -96 -86 -96 -127 0 -24 -5 -36
-17 -40 -10 -3 -40 -15 -68 -27 -74 -30 -138 -28 -174 7 -50 48 -48 79 5 90
52 12 78 48 79 112 1 58 3 60 79 111 88 58 244 84 281 47z m2837 -14 c77 -23
172 -83 187 -117 6 -13 11 -44 11 -68 0 -54 21 -79 82 -96 67 -19 76 -32 45
-63 -18 -18 -37 -26 -62 -26 -48 0 -70 13 -85 50 -9 23 -17 29 -29 24 -46 -19
-51 -15 -171 102 -111 111 -120 122 -120 157 0 30 5 40 23 47 33 13 49 12 119
-10z m-2698 -31 c14 -11 40 -49 56 -84 55 -117 34 -205 -60 -253 -100 -51
-228 13 -198 99 17 49 68 66 68 24 0 -31 41 -75 70 -75 12 0 35 13 51 29 42
42 40 88 -5 132 -30 29 -35 41 -36 84 -1 28 -1 53 -1 58 2 14 28 7 55 -14z
m2491 -53 c-5 -40 -13 -57 -41 -82 -61 -57 -38 -139 38 -132 26 2 36 10 48 35
17 36 39 42 62 16 24 -28 28 -50 16 -84 -18 -53 -109 -76 -183 -45 -64 27
-101 141 -71 221 19 47 110 140 128 129 6 -4 8 -27 3 -58z m-2186 -32 c24 -8
73 -14 108 -14 34 0 63 -4 63 -8 0 -18 -83 -46 -131 -45 -57 1 -65 -15 -23
-50 14 -12 43 -37 64 -54 42 -37 70 -42 70 -14 0 10 7 24 16 32 13 10 17 10
25 -2 12 -18 11 -51 -1 -83 -11 -31 -41 -34 -120 -10 -41 12 -65 28 -104 69
-59 62 -161 219 -151 234 4 7 30 1 73 -15 37 -15 87 -32 111 -40z m-908 46
c22 -12 26 -59 7 -78 -19 -19 -55 -14 -72 10 -20 29 -20 34 4 58 23 23 33 24
61 10z m3699 -30 c11 -11 20 -31 20 -44 0 -27 -42 -66 -71 -66 -28 0 -59 36
-59 69 0 55 70 81 110 41z m-4037 -37 c25 -34 26 -38 11 -54 -15 -17 -14 -20
10 -41 l26 -23 -41 -67 c-23 -38 -45 -68 -50 -68 -11 0 -10 -7 -16 75 -6 92 5
215 20 215 7 -1 24 -17 40 -37z m3209 -1 c-19 -45 -104 -191 -121 -206 -28
-25 -89 -45 -139 -46 -37 0 -44 3 -53 27 -9 26 -4 83 9 83 3 0 16 -9 28 -21
l21 -20 38 25 c21 14 43 26 50 26 19 0 57 47 53 66 -3 15 -12 18 -55 15 -52
-2 -98 13 -122 42 -19 23 -1 27 70 15 52 -9 79 -8 139 4 83 16 92 15 82 -10z
m1193 -138 c0 -170 -9 -180 -75 -79 -41 63 -42 66 -26 90 9 13 16 38 16 54 0
20 9 37 31 56 17 14 37 24 43 22 7 -2 11 -49 11 -143z m-3231 -93 c75 -49 138
-77 194 -86 23 -4 42 -11 42 -16 0 -11 -400 -12 -418 0 -11 6 -6 14 17 30 17
12 45 42 61 67 17 24 34 44 37 44 4 0 34 -18 67 -39z m2156 -116 c0 -3 -90 -5
-200 -5 -118 0 -200 4 -200 9 0 6 21 13 48 16 80 11 139 35 183 74 l42 37 64
-63 c35 -35 63 -66 63 -68z m396 127 c6 -4 21 -25 33 -47 12 -22 27 -48 34
-58 21 -30 -8 -38 -128 -33 -60 3 -116 5 -122 6 -20 0 -15 18 6 25 11 3 47 30
81 60 60 55 75 62 96 47z m-3566 -47 c10 -12 24 -14 55 -9 35 5 46 2 71 -19
49 -43 26 -50 -125 -42 -86 5 -131 11 -131 19 0 11 87 65 106 66 6 0 17 -7 24
-15z m545 -25 c30 -17 55 -36 55 -41 0 -12 -267 -12 -274 0 -3 5 15 25 41 45
59 44 96 43 178 -4z m3549 -1 c78 -42 88 -52 60 -63 -24 -9 -322 -7 -328 2 -3
5 13 26 34 47 35 35 42 37 64 27 21 -9 29 -8 48 8 13 11 28 19 35 20 6 0 46
-18 87 -41z"/>
</g>
</svg>
