<?xml version="1.0" standalone="no"?>
<!DOCTYPE svg PUBLIC "-//W3C//DTD SVG 20010904//EN"
 "http://www.w3.org/TR/2001/REC-SVG-20010904/DTD/svg10.dtd">
<svg version="1.0" xmlns="http://www.w3.org/2000/svg"
 width="494.000000pt" height="640.000000pt" viewBox="0 0 494.000000 640.000000"
 preserveAspectRatio="xMidYMid meet">

<g transform="translate(0.000000,640.000000) scale(0.100000,-0.100000)"
fill="#000000" stroke="none">
<path d="M0 6384 c0 -9 5 -14 12 -12 18 6 21 28 4 28 -9 0 -16 -7 -16 -16z"/>
<path d="M52 6376 c-6 -13 -20 -27 -31 -31 -20 -6 -21 -13 -21 -227 l0 -220
40 36 c26 24 50 36 68 36 55 0 190 -56 275 -114 21 -14 39 -26 41 -26 2 0 -5
30 -15 66 -10 36 -24 101 -30 144 l-12 78 33 58 c18 33 57 94 86 137 30 43 54
80 54 83 0 2 -107 4 -238 4 l-239 0 -11 -24z"/>
<path d="M541 6343 c-70 -94 -141 -219 -141 -247 0 -57 50 -255 85 -339 4 -10
-22 5 -63 35 -78 58 -171 108 -260 139 -55 19 -57 19 -81 1 -14 -10 -38 -34
-54 -54 -24 -30 -28 -43 -25 -84 l3 -49 51 54 51 54 55 -109 c31 -60 59 -119
63 -132 6 -22 5 -23 -32 -16 -21 3 -65 17 -98 31 -99 40 -95 41 -95 -5 l0 -40
71 -26 c40 -15 98 -29 130 -33 l58 -6 16 -53 c15 -51 31 -144 26 -154 -3 -7
-44 -2 -106 12 -40 8 -119 41 -187 76 -5 2 -8 -15 -8 -38 0 -41 1 -41 62 -70
58 -27 190 -60 238 -60 19 0 20 -6 20 -104 l0 -105 -72 20 c-40 11 -109 36
-153 55 -45 19 -84 34 -88 34 -4 0 -7 -17 -7 -37 0 -37 2 -39 66 -66 36 -15
108 -40 159 -54 84 -24 94 -29 90 -47 -2 -12 -11 -63 -21 -114 -9 -52 -22 -96
-29 -98 -17 -7 -127 45 -194 90 -29 20 -57 36 -62 36 -5 0 -9 -18 -9 -39 0
-37 3 -42 58 -75 31 -20 87 -49 124 -64 37 -15 68 -29 68 -32 0 -3 -33 -16
-73 -28 -39 -12 -96 -33 -124 -47 -51 -23 -53 -26 -53 -63 l0 -40 87 38 c130
55 135 56 128 28 -11 -48 -25 -206 -25 -285 0 -76 -3 -86 -36 -144 -20 -34
-54 -100 -76 -146 -29 -62 -43 -82 -51 -74 -6 6 -15 11 -19 11 -4 0 -8 -64 -8
-141 0 -122 2 -140 14 -129 8 6 22 33 31 58 15 45 18 48 102 87 158 72 380
228 476 334 l35 39 7 -55 7 -56 -79 -79 c-141 -143 -333 -288 -515 -387 -77
-42 -78 -43 -78 -82 l0 -40 90 47 c165 85 328 201 520 372 l60 54 0 -74 c0
-112 -10 -136 -99 -226 -135 -137 -306 -241 -489 -299 -81 -25 -82 -26 -82
-59 0 -23 5 -34 14 -34 8 0 64 16 125 36 161 52 315 144 450 270 33 31 61 53
61 49 0 -3 -20 -37 -43 -74 -121 -187 -311 -340 -515 -417 -85 -32 -87 -33
-90 -68 -2 -20 1 -36 6 -36 5 0 40 11 78 24 148 50 292 138 409 249 41 40 72
65 69 57 -33 -76 -27 -178 20 -342 14 -46 19 -76 13 -67 -54 72 -115 140 -132
145 -38 13 -206 -200 -292 -369 -84 -167 -143 -409 -143 -584 l0 -94 50 -73
c72 -107 148 -194 226 -258 90 -74 174 -128 197 -128 24 0 160 137 221 223 26
37 49 67 51 67 2 0 -5 -26 -15 -59 -18 -57 -18 -61 0 -142 10 -46 23 -96 29
-112 15 -40 7 -33 -29 23 -20 31 -39 50 -51 50 -26 0 -163 -86 -264 -165 -149
-116 -313 -303 -407 -464 -33 -57 -38 -74 -38 -128 0 -36 4 -63 10 -63 6 0 22
25 37 55 15 30 30 55 33 55 3 0 39 -38 80 -85 41 -46 119 -124 173 -172 l97
-87 0 -83 0 -84 -58 37 c-94 60 -176 129 -270 229 -50 52 -93 95 -96 95 -3 0
-6 -23 -6 -51 0 -50 1 -51 80 -129 87 -87 190 -167 290 -228 l65 -39 12 -84
c20 -132 23 -130 -90 -55 -111 74 -221 163 -287 230 -58 60 -72 60 -68 -1 3
-46 5 -48 103 -131 55 -46 150 -117 211 -158 l111 -74 100 0 c100 0 100 0 195
49 163 82 376 235 467 335 14 14 28 26 32 26 19 0 13 -39 -12 -75 -37 -55
-157 -185 -232 -252 -87 -77 -89 -83 -27 -83 49 0 51 1 133 83 46 45 107 109
136 142 l52 60 -32 -65 c-17 -36 -53 -97 -80 -137 -27 -40 -49 -75 -49 -78 0
-3 18 -5 40 -5 37 0 43 4 73 46 17 25 49 77 69 116 21 39 39 64 41 57 22 -77
52 -169 63 -192 12 -22 21 -27 53 -27 l38 0 -34 85 c-50 126 -65 210 -61 345
3 87 8 123 22 149 l18 35 33 -105 c52 -169 117 -311 201 -442 42 -64 45 -67
84 -67 22 0 40 3 40 6 0 4 -20 37 -45 74 -101 152 -184 339 -230 518 l-27 103
41 52 c22 29 51 65 65 81 l24 29 7 -69 c19 -194 87 -429 174 -603 48 -94 51
-105 41 -139 -14 -53 -14 -54 27 -50 34 3 38 7 46 38 7 32 16 40 110 87 177
91 339 206 537 381 l60 54 0 -74 c0 -40 -5 -90 -10 -110 -20 -71 -228 -253
-388 -340 -48 -26 -39 -38 26 -38 53 0 65 4 131 49 41 27 107 79 147 115 41
37 74 64 74 61 0 -10 -83 -135 -120 -180 l-32 -40 37 -3 c20 -2 43 -1 49 1 7
3 39 44 72 92 l59 87 3 -41 c3 -33 13 -51 50 -92 45 -49 49 -50 95 -47 l48 3
-61 62 c-53 55 -60 67 -60 102 l0 40 103 -53 c56 -29 134 -61 174 -72 l71 -18
-5 -33 c-5 -32 -5 -33 30 -33 36 0 47 12 47 53 0 15 17 33 51 56 28 19 75 62
106 95 l56 61 -7 -40 c-9 -50 -49 -139 -81 -181 -14 -18 -25 -35 -25 -38 0 -3
19 -6 43 -6 39 0 44 3 68 43 73 118 85 249 35 372 -16 39 -40 87 -53 108 l-23
37 23 0 c41 0 206 110 300 199 l48 46 -25 -57 c-73 -166 -135 -392 -160 -588
-19 -142 -15 -160 30 -160 l33 0 3 67 3 67 49 -67 c48 -65 50 -67 93 -67 23 0
43 2 43 5 0 2 -38 55 -85 117 -83 109 -86 114 -79 153 14 82 13 82 90 12 91
-82 189 -160 288 -231 72 -51 83 -56 132 -56 30 0 54 4 54 9 0 6 -44 39 -97
75 -124 83 -246 180 -350 279 l-81 78 25 75 25 76 52 -50 c102 -99 224 -196
349 -280 l129 -86 -4 -88 -3 -88 38 0 37 0 0 96 c0 95 0 95 32 122 103 87 212
273 250 427 22 86 22 87 39 63 10 -13 34 -51 53 -86 l35 -63 -21 -67 c-55
-180 -164 -339 -300 -439 -26 -19 -48 -39 -48 -44 0 -5 24 -9 53 -9 l53 0 80
83 c110 112 159 190 221 347 9 23 11 22 27 -28 17 -51 17 -56 1 -100 -26 -67
-93 -200 -126 -249 -16 -23 -29 -44 -29 -47 0 -3 19 -6 43 -6 l42 0 47 83 c26
45 52 96 59 112 l12 30 8 -35 c11 -47 14 -140 5 -167 -7 -21 -4 -23 32 -23 39
0 40 1 46 44 12 78 -33 286 -95 443 -123 312 -368 586 -669 747 -47 25 -95 46
-107 46 -13 0 -36 -17 -59 -43 -20 -23 -34 -33 -30 -22 19 53 47 192 48 236
l0 49 51 -57 c29 -31 58 -64 65 -75 24 -33 56 -21 138 50 88 76 193 201 244
291 56 98 60 101 35 19 -53 -167 -68 -271 -69 -458 l-1 -176 42 -65 c48 -73
152 -180 228 -235 28 -20 86 -54 130 -75 l80 -40 3 38 c2 21 0 39 -5 40 -45
15 -190 111 -245 162 -60 55 -158 176 -158 195 0 3 41 -14 91 -40 82 -41 299
-134 313 -134 3 0 6 17 6 38 l0 37 -88 34 c-48 19 -141 62 -207 96 -93 47
-121 66 -123 83 -4 23 7 29 24 13 28 -28 333 -131 386 -131 5 0 8 16 6 36 l-3
36 -91 23 c-129 33 -320 116 -316 138 1 4 2 28 2 55 0 78 4 78 121 23 57 -28
146 -61 197 -75 l92 -25 0 37 0 37 -85 24 c-119 33 -308 126 -301 149 3 9 10
36 15 58 l11 42 59 -24 c75 -30 193 -49 254 -40 45 7 47 9 47 40 l0 34 -88 -1
c-64 0 -104 6 -152 22 -95 31 -96 32 -82 78 6 21 17 46 24 56 13 17 16 17 69
-7 31 -13 83 -30 116 -36 53 -11 62 -16 74 -43 8 -17 20 -33 27 -35 10 -3 12
37 10 189 l-3 193 -80 33 c-44 18 -87 33 -96 33 -17 0 -72 -77 -128 -180 -36
-65 -38 -63 -12 10 42 118 56 218 56 387 l0 162 -60 61 c-71 73 -195 158 -283
194 -73 31 -201 62 -288 70 -61 5 -62 5 -135 -46 -134 -93 -245 -226 -316
-374 l-38 -79 -6 115 c-12 210 -80 425 -188 589 -13 20 -7 18 35 -12 69 -50
146 -83 237 -101 106 -22 121 -21 204 20 131 65 263 207 317 341 l23 55 7 -73
c7 -82 45 -274 70 -359 16 -53 20 -58 139 -146 148 -111 285 -198 434 -277
l113 -59 0 41 c0 39 -2 42 -50 66 -136 69 -348 204 -482 308 -64 49 -80 67
-89 99 -5 22 -8 42 -5 45 11 12 240 -76 378 -144 181 -91 208 -114 208 -178 0
-48 13 -85 30 -85 6 0 10 65 10 163 0 148 -2 173 -31 292 l-32 131 31 43 c26
36 32 53 32 98 0 29 -5 53 -10 53 -6 0 -24 -22 -41 -50 -17 -27 -34 -50 -39
-50 -5 0 -16 24 -26 53 -9 28 -30 80 -45 115 l-28 62 44 114 c25 63 45 119 45
125 0 18 11 13 54 -26 l41 -38 3 44 c4 53 -7 66 -135 162 -113 86 -241 162
-366 219 l-95 42 25 62 c13 33 35 101 47 151 l24 89 7 -89 c4 -50 13 -99 20
-110 19 -31 141 -128 213 -170 64 -37 212 -94 245 -95 13 0 17 8 17 35 0 32
-3 35 -42 46 -68 18 -185 75 -251 123 -57 41 -138 116 -125 116 3 0 43 -18 89
-39 83 -39 219 -83 292 -94 l37 -6 0 40 c0 34 -3 39 -24 39 -43 0 -199 50
-281 91 -105 52 -117 62 -113 92 3 24 4 24 90 -28 86 -52 219 -107 291 -120
37 -7 37 -7 37 28 0 35 -1 35 -69 56 -90 27 -237 101 -300 152 -46 36 -51 43
-51 79 0 22 2 40 5 40 2 0 29 -15 58 -34 74 -48 332 -176 353 -176 2 0 4 34 4
75 0 57 -5 86 -21 116 l-21 41 22 49 c16 39 20 66 18 121 l-3 72 -70 37 c-115
63 -313 117 -329 91 -4 -6 -20 -60 -36 -119 l-28 -108 -1 67 c-1 83 -36 289
-55 327 -9 16 -31 49 -51 75 -19 25 -33 46 -30 46 2 0 29 -18 60 -39 119 -84
282 -131 450 -131 l95 0 0 174 c0 96 -3 176 -8 178 -4 2 -18 56 -31 121 l-24
118 32 32 c26 28 31 41 31 80 0 26 -3 47 -7 47 -5 0 -24 -18 -44 -41 l-35 -41
-28 93 -27 94 40 80 c40 79 81 208 81 252 0 13 5 23 10 23 6 0 10 7 10 16 0
12 -9 14 -42 12 -43 -3 -43 -3 -50 -50 -7 -55 -41 -158 -67 -207 l-18 -33 -42
98 c-23 55 -45 105 -50 113 -5 8 -3 27 5 47 l14 33 -175 0 c-113 0 -175 -3
-175 -10 0 -15 55 -36 162 -61 95 -21 98 -23 112 -57 8 -20 31 -73 50 -119
l35 -82 -27 6 c-91 21 -315 104 -429 160 l-134 65 7 50 7 49 -36 0 c-34 0 -37
-3 -44 -37 -4 -21 -8 -126 -7 -233 1 -189 20 -362 54 -481 11 -41 79 -150 118
-191 30 -33 22 -36 -18 -8 -81 58 -256 106 -359 98 -43 -3 -69 -12 -113 -41
-32 -20 -58 -35 -58 -32 0 2 7 34 16 72 20 86 14 212 -15 304 -21 65 -22 67
-79 92 -85 38 -184 52 -268 38 -121 -21 -228 -82 -264 -150 -24 -44 -24 -37
-5 64 9 44 19 130 22 192 l6 112 -27 7 c-35 8 -224 -11 -351 -37 -264 -54
-582 -195 -769 -342 l-39 -31 7 59 c19 176 26 274 26 403 l0 142 -35 0 c-34 0
-35 -1 -35 -39 l0 -40 -77 -29 c-133 -51 -222 -67 -380 -67 -78 0 -144 3 -148
6 -3 4 9 33 28 64 l34 58 169 1 c171 2 198 6 208 32 5 12 -28 14 -214 14
l-218 0 -35 -57 -35 -56 -21 48 c-11 26 -21 51 -21 56 0 5 -18 9 -40 9 -22 0
-40 -3 -40 -6 0 -4 18 -48 40 -100 l39 -92 -35 -78 -36 -78 -25 40 c-30 48
-124 237 -140 282 -10 28 -16 32 -47 32 -35 0 -36 -1 -30 -27 19 -77 116 -272
187 -372 l24 -35 -31 -93 c-17 -51 -34 -93 -37 -93 -12 0 -117 184 -164 284
-25 53 -63 150 -86 216 l-41 120 -48 0 c-45 0 -48 -2 -89 -57z m223 -358 c35
-71 91 -171 124 -220 l60 -91 -15 -67 -15 -67 -39 48 c-107 128 -235 344 -298
502 -47 120 -47 118 0 184 l42 59 38 -109 c21 -60 67 -167 103 -239z m1085
208 c0 -27 -4 -70 -7 -98 l-7 -49 -74 -23 c-105 -33 -240 -53 -358 -53 -104 0
-251 16 -266 30 -4 4 7 41 26 82 l34 74 144 -4 c166 -5 286 12 414 57 44 16
83 29 88 30 4 1 7 -20 6 -46z m2551 -106 c85 -32 229 -75 302 -91 24 -6 30
-16 54 -92 14 -47 23 -88 21 -91 -7 -6 -174 40 -295 82 -55 19 -160 62 -235
95 -102 47 -136 67 -141 83 -8 29 -8 77 0 115 l6 31 97 -48 c53 -27 139 -64
191 -84z m-1525 35 c-26 -23 -157 -113 -160 -110 -2 2 -8 20 -13 41 -13 45
-15 43 95 62 43 7 80 13 83 14 2 1 0 -3 -5 -7z m-2375 -25 c0 -24 140 -299
191 -375 59 -88 169 -231 193 -251 16 -14 21 -71 8 -104 -6 -15 -21 -5 -88 60
-127 123 -218 264 -277 430 -30 82 -59 226 -51 248 7 17 24 11 24 -8z m2494
-44 c-3 -27 -7 -52 -9 -58 -1 -6 -36 -9 -86 -7 l-83 4 83 54 c46 30 88 54 92
54 5 0 6 -21 3 -47z m-356 -42 c7 -30 11 -55 10 -56 -2 -1 -40 -34 -85 -74
l-83 -72 -2 75 c-1 42 -2 93 -2 113 l-1 37 70 22 c39 12 73 19 76 16 3 -4 11
-31 17 -61z m-310 -365 c-45 -53 -85 -96 -89 -96 -12 0 -59 253 -59 321 0 36
0 36 108 87 l107 50 8 -133 8 -134 -83 -95z m-503 249 l-6 -54 -52 -19 c-98
-36 -152 -52 -250 -72 -132 -27 -357 -44 -428 -34 l-56 9 33 99 c18 54 34 100
36 102 2 2 40 -3 83 -11 166 -30 426 -15 582 33 32 10 60 14 62 9 2 -4 0 -33
-4 -62z m2425 14 c124 -56 358 -136 482 -164 l76 -18 21 -106 c12 -58 24 -114
26 -125 5 -24 -21 -19 -152 30 -192 72 -442 212 -545 306 -31 28 -37 41 -42
86 -4 40 -2 53 7 49 7 -3 64 -29 127 -58z m-1283 -2 c3 -4 0 -35 -6 -69 -20
-103 -14 -96 -78 -86 -31 5 -119 12 -195 16 l-139 7 77 65 c51 44 88 67 112
72 43 7 220 4 229 -5z m526 -8 c38 -10 46 -22 25 -35 -6 -4 -75 -8 -152 -9
-78 -1 -156 -7 -175 -13 -44 -15 -49 -10 -15 13 76 50 223 70 317 44z m-1368
-176 c8 -50 26 -127 38 -171 l24 -80 -66 -100 c-36 -55 -75 -115 -85 -134
l-20 -33 -8 55 c-12 74 -15 411 -5 482 8 53 11 58 55 87 47 30 47 30 50 8 1
-12 9 -63 17 -114z m-1762 24 l29 -23 -41 -52 c-37 -47 -61 -59 -61 -32 0 8
-38 91 -88 194 -6 12 127 -59 161 -87z m3246 20 c13 -74 13 -126 2 -182 l-9
-40 -1 46 c0 25 -10 82 -22 128 -16 65 -18 85 -9 96 21 25 28 17 39 -48z
m-189 13 c0 -5 -21 -10 -47 -10 -64 0 -168 -23 -242 -53 -58 -23 -73 -21 -53
10 22 34 342 84 342 53z m-1619 -52 c-17 -46 -282 -155 -471 -194 -63 -14
-166 -27 -227 -31 l-113 -6 0 24 c0 13 6 46 13 73 l13 50 110 -3 c184 -4 443
34 596 89 74 26 89 26 79 -2z m1722 -153 c2 -102 -16 -185 -44 -211 -26 -24
-29 -17 -17 41 6 28 11 111 12 185 1 74 5 142 11 150 16 25 37 -65 38 -165z
m958 -33 c65 -33 179 -79 253 -103 l135 -44 6 -55 c3 -30 8 -67 10 -82 4 -28
4 -28 -56 -28 -165 0 -361 79 -488 196 -86 79 -167 190 -182 248 -5 23 -12 49
-15 58 -3 11 37 -11 106 -57 61 -41 165 -101 231 -133z m-2556 -30 c0 -144 5
-227 18 -307 l18 -110 -37 -80 -37 -80 -14 40 c-49 140 -55 392 -14 550 17 65
59 185 65 185 0 0 1 -89 1 -198z m897 172 c49 -3 90 -9 93 -14 3 -4 -10 -49
-27 -100 l-32 -92 -41 6 c-84 13 -383 25 -444 19 -44 -4 -62 -3 -60 5 2 6 37
49 77 96 l74 85 76 4 c80 3 136 1 284 -9z m503 -7 c-9 -14 -37 -30 -71 -41
-71 -22 -127 -47 -179 -80 l-41 -25 4 34 c4 30 10 36 70 63 64 29 147 56 202
65 14 2 26 5 28 6 1 0 -4 -9 -13 -22z m-2798 -89 l27 -39 -20 -37 c-20 -39
-141 -172 -155 -172 -5 0 -9 9 -9 21 0 11 -9 57 -20 101 l-21 79 56 60 c30 33
55 65 55 71 0 16 53 -37 87 -84z m2859 -189 c-8 -50 -20 -97 -27 -103 -8 -8
-10 -8 -6 0 13 24 26 192 19 249 -6 47 -4 65 8 81 14 20 15 17 18 -56 1 -43
-4 -120 -12 -171z m-1626 190 c-199 -161 -491 -269 -726 -269 l-74 0 7 48 c3
26 6 48 7 49 1 0 59 6 130 12 218 19 428 71 596 149 77 36 94 39 60 11z m1448
-81 c-20 -36 -137 -137 -160 -138 -19 -1 -7 68 15 88 24 22 144 91 160 92 5 0
-2 -19 -15 -42z m-223 -198 c19 -74 67 -181 90 -200 13 -11 27 -9 83 10 93 32
217 90 285 133 l57 37 -25 -49 c-43 -86 -68 -196 -69 -302 0 -89 3 -102 32
-160 150 -303 433 -527 752 -595 64 -14 79 -21 76 -33 -24 -81 -58 -237 -72
-331 l-17 -116 -44 88 c-135 269 -375 473 -665 563 -69 21 -90 24 -107 16 -19
-11 -21 -9 -21 14 0 46 -41 216 -77 319 -58 169 -149 330 -271 479 -71 88 -85
87 -165 -8 -120 -141 -215 -309 -271 -475 l-25 -75 0 106 c-1 146 -6 167 -43
177 -26 7 -19 11 72 41 l102 33 64 97 c77 119 149 256 195 373 l34 88 7 -83
c3 -45 14 -111 23 -147z m-1215 140 c-15 -79 -12 -287 5 -377 15 -78 49 -188
76 -247 13 -28 13 -28 84 -22 l70 7 -69 -46 c-38 -24 -92 -65 -121 -89 l-52
-45 8 42 c21 110 -2 251 -61 374 -74 150 -139 197 -317 224 l-81 12 101 34
c110 37 204 83 299 148 35 23 64 41 66 40 1 -1 -2 -26 -8 -55z m1527 -32 c-3
-51 -12 -113 -20 -138 l-13 -45 -6 100 c-5 89 -4 104 15 138 11 20 23 37 25
37 3 0 2 -42 -1 -92z m688 40 c161 -36 320 -168 374 -311 9 -22 8 -26 -2 -21
-6 5 -43 28 -80 52 -91 58 -232 124 -342 160 l-90 30 -6 48 c-3 27 -4 53 -2
57 5 9 70 2 148 -15z m-3350 -53 l28 -64 -42 -65 c-24 -36 -82 -102 -129 -148
l-87 -83 -8 98 -8 99 74 71 c41 40 87 91 102 115 15 23 31 42 35 42 4 0 20
-29 35 -65z m3134 -27 c1 -18 -15 -49 -44 -88 -94 -128 -150 -251 -186 -406
l-22 -97 -18 34 c-23 44 -25 181 -4 264 33 124 108 240 210 324 49 40 50 41
57 19 3 -13 6 -35 7 -50z m-1051 42 c52 -5 96 -11 99 -14 3 -2 -19 -50 -48
-106 l-54 -102 -205 -3 c-184 -2 -313 -15 -418 -42 -22 -5 -22 -4 8 48 18 30
57 93 88 141 l57 88 190 0 c105 0 232 -5 283 -10z m-1847 -146 c37 -25 47 -27
132 -27 l92 1 -48 -19 c-115 -45 -225 -136 -267 -218 -53 -107 -108 -310 -111
-410 0 -19 -4 -13 -15 23 l-15 49 -115 -6 -115 -5 47 30 c154 97 264 261 299
444 13 65 12 78 -5 153 -11 45 -25 92 -32 104 -6 12 17 -4 51 -35 35 -31 81
-69 102 -84z m2231 5 c-15 -38 -17 -40 -26 -20 -7 16 -5 26 9 41 28 31 35 24
17 -21z m84 -65 c-3 -8 -12 -14 -20 -14 -13 0 -12 7 2 48 l17 47 3 -33 c2 -19
1 -40 -2 -48z m929 -30 c61 -30 146 -80 190 -112 70 -50 80 -62 83 -91 3 -25
0 -32 -10 -28 -7 3 -49 21 -93 40 -102 43 -187 73 -299 102 -49 14 -91 26 -93
29 -7 6 -32 118 -33 143 l0 23 73 -26 c39 -14 122 -50 182 -80z m-310 -10 l17
-76 -30 -32 c-83 -86 -155 -249 -169 -377 -6 -61 -6 -61 -23 -39 -37 49 8 273
87 435 27 56 93 165 99 165 1 0 10 -34 19 -76z m-3125 -50 c-19 -92 -84 -209
-159 -283 -60 -61 -156 -129 -167 -118 -2 2 2 33 10 68 8 35 17 87 21 116 6
48 10 53 58 86 74 49 145 116 197 185 44 58 45 59 48 30 2 -15 -2 -53 -8 -84z
m695 76 c39 -5 84 -14 100 -20 l28 -11 -32 -33 c-32 -33 -34 -33 -144 -39
-138 -8 -276 -41 -393 -96 -48 -23 -89 -39 -91 -37 -11 11 33 70 79 107 89 70
186 112 293 128 81 12 80 12 160 1z m271 -182 c37 -72 54 -153 54 -253 0 -99
-15 -166 -50 -235 l-24 -45 -12 105 c-17 137 -38 231 -81 359 l-35 103 38 39
37 38 24 -32 c14 -18 36 -53 49 -79z m1012 97 c3 -2 -7 -20 -22 -39 -23 -31
-42 -40 -152 -76 -187 -61 -514 -133 -531 -117 -2 3 13 45 34 94 l38 88 110
22 c61 13 160 27 220 32 105 9 293 7 303 -4z m242 -25 c0 -13 -1 -13 -10 0 -5
8 -10 22 -10 30 0 13 1 13 10 0 5 -8 10 -22 10 -30z m90 -26 c0 -8 -4 -12 -10
-9 -5 3 -10 13 -10 21 0 8 5 12 10 9 6 -3 10 -13 10 -21z m-117 -88 c26 -40
49 -87 52 -102 11 -77 14 -125 6 -119 -14 8 -95 133 -124 192 l-26 51 20 26
c11 14 22 26 23 26 1 0 24 -33 49 -74z m1133 39 c109 -31 203 -67 312 -116
l82 -38 0 -51 c0 -27 -2 -50 -5 -50 -3 0 -36 15 -74 34 -73 37 -235 96 -318
115 -51 13 -52 13 -72 72 -11 32 -18 59 -16 59 1 0 43 -11 91 -25z m-2646 9
c0 -4 -19 -31 -42 -60 l-43 -53 -85 -1 c-48 0 -121 -9 -167 -20 -79 -19 -215
-78 -228 -100 -12 -19 -22 -10 -18 15 9 46 188 145 336 185 60 17 126 27 235
39 6 0 12 -2 12 -5z m2504 -70 l18 -57 -25 -46 c-47 -86 -71 -187 -72 -293 0
-54 -2 -98 -5 -98 -2 0 -24 19 -47 42 -42 41 -43 44 -43 108 0 75 28 197 60
262 26 51 83 138 91 138 3 0 13 -25 23 -56z m-2390 -54 c36 -109 64 -259 72
-385 6 -109 6 -110 -19 -134 l-26 -23 -11 43 c-31 125 -83 285 -119 369 -34
77 -39 96 -29 109 55 71 93 110 99 104 4 -5 19 -42 33 -83z m1590 -11 c-8 -26
-23 -66 -33 -89 l-18 -41 -7 47 c-10 75 -7 96 16 141 l22 42 17 -26 c15 -23
16 -30 3 -74z m1666 41 c0 -5 -2 -10 -4 -10 -3 0 -8 5 -11 10 -3 6 -1 10 4 10
6 0 11 -4 11 -10z m-1857 -217 l77 -103 0 -88 -1 -87 -25 30 c-62 73 -146 188
-195 264 l-53 84 29 53 29 54 31 -52 c16 -28 65 -98 108 -155z m1976 165 c20
-12 37 -22 38 -23 6 -3 -29 -95 -35 -95 -4 0 -21 21 -39 47 -26 39 -30 50 -21
69 14 29 12 29 57 2z m-110 -90 c13 -16 22 -31 19 -33 -7 -8 -198 89 -198 101
0 22 152 -36 179 -68z m-3556 -3 c-23 -34 -44 -55 -56 -55 -79 0 -234 -67
-326 -141 l-61 -49 0 28 c0 82 10 101 77 149 108 77 229 119 355 122 l48 1
-37 -55z m1965 16 c8 -24 4 -47 -24 -130 -33 -99 -59 -159 -86 -194 -12 -16
-14 -9 -16 60 -3 76 -2 80 47 177 28 55 51 106 51 113 0 22 17 6 28 -26z m950
4 c59 -19 150 -56 202 -82 l95 -48 -3 -45 c-2 -25 -5 -46 -6 -47 -1 -1 -42 13
-91 32 -50 18 -126 41 -169 52 l-79 18 -25 55 c-33 76 -42 100 -37 100 3 0 54
-16 113 -35z m-1773 15 c-3 -5 -10 -10 -16 -10 -5 0 -9 5 -9 10 0 6 7 10 16
10 8 0 12 -4 9 -10z m-89 -34 c4 -19 -3 -32 -38 -64 -48 -45 -58 -41 -58 24 0
38 3 42 33 52 49 15 56 14 63 -12z m1719 -204 c-14 -41 -28 -105 -31 -143 -4
-38 -10 -69 -13 -69 -41 2 -68 130 -52 245 11 72 20 108 41 160 l12 30 34 -74
34 -74 -25 -75z m-2636 123 c45 -116 79 -224 101 -322 l18 -82 -40 -31 c-22
-18 -40 -30 -42 -29 -1 2 -10 41 -20 87 -16 79 -74 254 -109 333 -15 34 -15
36 15 82 17 26 33 47 37 47 4 0 22 -38 40 -85z m3309 26 c42 -21 105 -49 140
-61 57 -21 66 -28 88 -71 13 -27 24 -51 24 -54 0 -9 -205 98 -277 145 -43 27
-63 46 -63 60 0 11 2 20 5 20 3 0 40 -17 83 -39z m-2555 -28 c4 -27 9 -57 12
-68 6 -20 -40 -94 -57 -95 -5 0 -8 43 -8 95 0 79 3 96 18 104 27 16 29 14 35
-36z m385 15 c-5 -14 -155 -57 -198 -57 l-25 0 29 22 c18 13 57 26 100 33 96
16 98 16 94 2z m264 -108 c36 -52 103 -139 147 -192 l82 -98 -3 -67 -3 -67
-76 75 c-136 135 -268 333 -255 385 12 48 27 77 35 68 4 -5 37 -52 73 -104z
m-771 -51 c5 -63 7 -125 3 -139 -6 -25 -6 -25 -15 -3 -4 12 -14 69 -20 127
-10 86 -10 108 1 121 7 8 15 14 17 12 2 -2 8 -55 14 -118z m1249 -41 c-36
-102 -147 -296 -170 -298 -3 0 -3 26 0 58 4 41 14 69 36 102 38 55 97 171 114
225 19 61 24 64 34 18 7 -35 5 -54 -14 -105z m-2112 124 c-1 -5 -18 -37 -37
-73 -34 -64 -34 -64 -106 -87 -40 -13 -98 -39 -129 -58 -31 -19 -59 -34 -62
-34 -2 0 -4 11 -4 25 0 55 166 184 284 221 50 15 59 16 54 6z m1372 -31 c0
-15 -19 -26 -87 -51 -100 -36 -269 -83 -283 -78 -6 2 7 22 28 45 36 41 40 43
135 59 54 8 117 22 140 29 58 18 67 18 67 -4z m-1247 -117 c19 -55 45 -145 57
-200 l21 -98 -23 -18 c-23 -18 -58 -33 -62 -26 -1 1 -15 44 -30 93 -16 50 -43
122 -61 161 l-32 70 40 73 c27 50 42 69 48 60 4 -8 23 -59 42 -115z m-727 64
c-63 -73 -178 -222 -195 -250 -22 -39 -32 -35 -26 10 2 20 10 83 16 140 11 97
13 103 36 108 21 6 164 29 197 33 5 1 -8 -18 -28 -41z m3675 26 c120 -35 209
-75 209 -93 0 -28 -8 -30 -58 -15 -26 8 -74 17 -106 22 -58 7 -60 8 -88 55
-15 26 -24 47 -20 47 5 0 33 -7 63 -16z m-2316 -41 c9 -67 35 -223 42 -253 9
-41 -13 -12 -36 46 -34 87 -54 204 -40 231 18 34 27 28 34 -24z m-1237 -47
c18 -96 18 -96 -54 -149 -60 -45 -219 -136 -236 -137 -12 0 87 136 166 228 39
46 78 92 86 103 8 10 18 18 21 19 3 0 11 -29 17 -64z m3450 13 c25 -44 28 -57
21 -88 -5 -20 -9 -55 -9 -78 0 -47 -6 -51 -52 -27 l-31 16 6 76 c6 71 23 152
32 152 2 0 17 -23 33 -51z m-1615 -43 c-5 -32 -12 -40 -53 -61 -98 -49 -278
-95 -378 -95 l-32 0 20 40 c12 24 29 42 43 44 93 20 247 61 318 85 46 15 85
28 86 27 1 -1 0 -19 -4 -40z m345 -225 c48 -48 104 -102 125 -118 36 -28 37
-32 31 -71 l-6 -42 -32 22 c-61 44 -220 205 -278 281 -59 80 -69 112 -52 174
5 18 15 8 66 -68 33 -49 99 -129 146 -178z m-975 4 c36 -78 37 -81 24 -130
l-13 -50 -32 44 c-65 90 -93 224 -68 336 l8 40 22 -80 c12 -44 38 -116 59
-160z m2477 163 l52 -12 -7 -35 c-4 -19 -12 -48 -18 -64 l-12 -29 -46 64 c-25
35 -49 69 -53 76 -9 16 16 16 84 0z m-3323 -10 c-31 -78 -40 -98 -47 -98 -4 0
-35 -18 -70 -41 -34 -22 -64 -39 -66 -37 -2 2 -6 22 -10 44 -6 40 -5 41 42 71
101 64 162 88 151 61z m702 -210 c24 -69 80 -156 126 -197 25 -22 48 -31 88
-36 l55 -7 -76 -62 c-85 -68 -183 -179 -235 -267 l-34 -59 -18 83 c-24 110
-94 314 -146 423 -24 49 -43 92 -43 95 -1 3 33 33 74 66 41 33 98 84 125 112
l50 52 7 -73 c4 -40 16 -99 27 -130z m-557 19 c28 -84 30 -99 18 -107 -8 -5
-17 -10 -20 -10 -3 0 -22 33 -42 73 -21 39 -44 83 -53 97 -15 23 -15 28 6 75
l22 50 18 -40 c10 -22 33 -84 51 -138z m3077 98 c43 -57 40 -64 -18 -44 -28
10 -31 15 -31 55 0 24 2 44 4 44 2 0 22 -25 45 -55z m-1769 21 c0 -3 -4 -16
-10 -30 -16 -44 -195 -86 -367 -86 -87 0 -102 2 -97 15 5 11 23 15 71 15 80 0
242 32 326 65 64 25 77 28 77 21z m-1774 -91 c-8 -31 -197 -211 -291 -276 -92
-65 -230 -142 -244 -137 -5 1 23 66 62 142 l72 140 65 26 c100 40 194 90 263
141 l62 46 8 -30 c5 -17 6 -40 3 -52z m2634 69 c0 -25 -85 -189 -135 -261 -52
-74 -127 -163 -137 -163 -17 0 14 63 58 116 62 76 123 172 165 257 33 66 49
83 49 51z m-571 -194 c47 -47 116 -108 154 -135 65 -47 67 -50 67 -92 l0 -44
-32 18 c-53 30 -252 233 -296 303 -25 38 -42 77 -42 94 0 29 0 29 32 -15 17
-24 70 -82 117 -129z m798 155 c37 -15 38 -16 35 -60 -2 -25 -8 -45 -13 -45
-5 0 -9 4 -9 10 0 5 -13 32 -30 60 -16 27 -27 50 -25 50 3 0 22 -7 42 -15z
m-66 -99 c17 -32 29 -60 26 -62 -5 -5 -119 34 -129 44 -4 4 4 32 18 62 24 53
26 54 41 35 8 -11 28 -46 44 -79z m-927 -4 l26 -42 -51 0 c-45 0 -50 2 -44 18
3 9 12 39 18 66 10 42 12 46 18 25 3 -14 18 -44 33 -67z m610 46 c-40 -71
-100 -149 -102 -135 -2 9 20 46 49 82 49 61 69 81 53 53z m538 -15 c28 -17 30
-21 25 -63 -6 -51 -46 -180 -56 -180 -4 0 -17 23 -29 51 -22 53 -22 55 14 197
4 16 10 15 46 -5z m-2790 -61 c-9 -34 -19 -62 -23 -62 -8 0 -29 47 -29 65 0
12 60 68 67 62 1 -2 -5 -31 -15 -65z m132 -1 c14 -32 26 -63 26 -68 0 -10 -98
-48 -106 -40 -7 7 37 167 46 167 4 0 19 -26 34 -59z m1361 32 c-87 -65 -255
-122 -382 -130 l-91 -6 12 54 12 54 65 -3 c80 -5 230 13 324 37 76 19 91 18
60 -6z m-1581 -129 c23 -49 50 -95 58 -102 17 -13 80 2 205 52 l63 24 -110
-105 c-97 -93 -180 -186 -245 -276 l-20 -27 0 264 c0 145 1 263 3 262 1 -2 22
-43 46 -92z m3004 74 c17 -17 15 -180 -2 -245 -20 -73 -65 -168 -75 -157 -5 5
-17 39 -28 76 l-20 66 33 68 c18 37 40 98 49 136 18 70 23 76 43 56z m-1088
-178 c42 -42 116 -102 163 -135 81 -55 88 -58 112 -45 26 14 127 116 186 189
l36 43 -20 -88 c-16 -73 -20 -129 -21 -309 l-1 -220 38 -73 38 -73 -48 8 c-26
4 -111 8 -188 8 -164 0 -274 -23 -399 -84 -42 -20 -76 -36 -76 -34 0 1 18 28
40 59 52 75 59 101 66 274 9 193 -14 416 -61 615 -7 28 -5 27 25 -15 18 -25
68 -79 110 -120z m714 114 c43 -13 84 -24 90 -24 7 0 22 -22 33 -50 12 -27 18
-50 13 -50 -24 0 -260 113 -260 125 0 20 15 35 29 29 9 -4 51 -18 95 -30z
m969 -61 c31 -42 56 -77 54 -79 -3 -3 -138 34 -144 40 -6 6 19 116 26 116 3 0
32 -35 64 -77z m-2989 -20 c6 -20 -1 -26 -63 -58 -39 -19 -71 -33 -71 -29 0 3
21 44 47 91 l46 86 17 -34 c10 -19 21 -44 24 -56z m984 14 c-29 -34 -65 -78
-80 -97 l-27 -35 6 65 c11 120 16 124 121 129 l33 1 -53 -63z m2141 22 c42
-23 78 -43 80 -45 2 -2 -28 -51 -47 -74 -2 -3 -8 3 -14 13 -5 10 -32 47 -58
82 -27 36 -46 65 -43 65 3 0 40 -19 82 -41z m-559 -104 c0 -60 -26 -157 -61
-230 -31 -64 -114 -175 -135 -182 -6 -2 -14 22 -20 56 -9 54 -8 61 14 92 33
47 87 165 100 219 6 25 14 74 18 109 l7 64 38 -44 c31 -35 38 -52 39 -84z
m-2761 21 c-41 -85 -42 -86 -61 -69 -45 40 -43 49 29 108 36 30 68 53 70 51 2
-2 -15 -42 -38 -90z m1284 -33 c-40 -35 -153 -99 -153 -88 0 10 96 132 139
178 l36 38 8 -48 c8 -47 8 -49 -30 -80z m-283 -31 c-12 -138 -12 -141 -60
-232 -36 -70 -49 -88 -53 -74 -24 78 -33 257 -19 353 7 43 9 45 72 72 36 15
66 26 68 24 2 -2 -2 -66 -8 -143z m1319 0 c73 -27 74 -28 91 -77 27 -81 32
-105 19 -105 -43 0 -379 189 -379 213 0 7 5 28 10 48 l10 35 87 -43 c49 -24
121 -56 162 -71z m1211 14 c24 -17 48 -33 52 -36 8 -6 -56 -188 -72 -204 -5
-5 -20 14 -36 45 -15 30 -38 71 -51 92 -27 42 -26 46 12 107 16 25 30 38 38
34 7 -4 32 -21 57 -38z m-2717 -326 c8 -36 20 -77 26 -92 8 -21 5 -41 -13 -95
l-24 -68 -22 50 c-61 139 -104 327 -98 427 3 50 5 54 53 90 l50 38 6 -143 c3
-78 13 -171 22 -207z m-555 254 c13 -42 20 -80 15 -84 -4 -4 -28 -15 -53 -24
-25 -10 -101 -46 -169 -82 -68 -35 -121 -58 -119 -51 3 6 18 50 33 96 22 63
37 89 61 107 41 31 185 114 199 114 5 0 20 -34 33 -76z m2903 52 c155 -51 161
-55 217 -152 28 -48 50 -89 48 -91 -1 -2 -50 12 -107 31 -57 18 -141 42 -187
51 -81 18 -83 19 -78 44 3 14 8 52 12 84 3 31 10 57 14 57 4 0 41 -11 81 -24z
m-3275 -48 l41 -43 -38 -108 -37 -107 -30 47 c-16 27 -43 71 -59 100 l-28 52
50 50 c27 28 52 51 55 51 3 0 24 -19 46 -42z m1454 7 c0 -32 -59 -98 -158
-176 -80 -64 -209 -145 -218 -136 -3 3 15 46 40 95 l46 89 68 26 c37 15 101
49 142 76 41 27 76 50 78 50 1 1 2 -10 2 -24z m1510 -40 c0 -52 -39 -175 -85
-272 -42 -86 -157 -253 -174 -253 -5 0 -11 33 -14 73 l-5 72 68 71 c37 40 84
100 103 135 39 70 77 177 77 218 1 25 1 25 15 7 8 -11 15 -34 15 -51z m-746
-14 c75 -47 223 -122 291 -146 65 -24 70 -30 82 -93 10 -51 10 -52 -11 -46
-60 18 -245 108 -340 164 -90 54 -106 67 -102 85 3 11 6 32 6 48 0 15 3 27 6
27 4 0 35 -18 68 -39z m-1448 -286 c14 -49 46 -135 72 -190 44 -93 56 -155 32
-155 -13 0 -94 134 -139 230 -38 82 -91 244 -91 279 0 10 17 37 37 61 l37 43
13 -89 c7 -48 24 -129 39 -179z m622 79 c-41 -39 -108 -96 -149 -127 -75 -57
-235 -157 -250 -157 -4 0 1 27 13 60 l20 60 98 51 c107 54 231 143 295 209
l40 41 3 -33 c3 -30 -4 -40 -70 -104z m-1518 7 l63 -105 -21 -110 c-12 -61
-22 -119 -22 -128 0 -10 -2 -18 -4 -18 -17 0 -196 215 -226 269 -7 15 1 34 41
92 61 89 90 122 99 112 4 -5 35 -55 70 -112z m3164 78 c38 -189 -77 -433 -258
-551 -33 -21 -63 -38 -68 -38 -4 0 -8 21 -8 46 0 43 5 51 60 110 32 35 78 91
101 125 50 75 123 227 140 292 13 55 24 60 33 16z m-2600 -93 c9 -49 14 -91
12 -93 -2 -2 -64 -32 -137 -67 -74 -35 -181 -90 -239 -123 -58 -33 -106 -57
-108 -53 -5 14 39 214 50 228 35 42 384 221 399 204 4 -4 14 -47 23 -96z
m2906 48 c63 -18 147 -46 185 -62 l70 -29 43 -107 c24 -59 42 -109 40 -111 -2
-2 -69 18 -148 45 -80 26 -195 60 -256 75 l-112 28 -5 51 c-3 28 -2 74 0 103
6 52 6 52 37 46 17 -3 83 -21 146 -39z m-1005 -91 c55 -28 139 -65 186 -83
l87 -33 6 -45 c7 -55 8 -122 1 -122 -3 0 -34 14 -68 31 -144 72 -262 154 -359
248 -47 45 -58 61 -58 88 l0 33 53 -34 c28 -18 97 -56 152 -83z m-1722 -41
c38 -116 105 -249 177 -350 51 -71 60 -89 59 -125 -1 -90 -7 -89 -101 3 -92
92 -144 179 -173 295 -21 85 -19 266 4 265 3 0 19 -40 34 -88z m847 -7 c-5
-65 -6 -67 -70 -132 -77 -78 -156 -133 -254 -178 -66 -31 -186 -68 -193 -61
-4 4 13 87 19 89 175 89 328 191 425 282 37 35 70 64 73 65 3 0 3 -29 0 -65z
m888 -176 c40 -25 120 -69 177 -95 l105 -49 0 -54 0 -54 -56 7 c-110 13 -226
77 -317 175 -62 67 -117 164 -117 206 0 24 3 23 67 -31 37 -32 100 -79 141
-105z m-2714 100 c25 -43 158 -200 200 -236 l34 -30 -6 -156 c-2 -86 -8 -154
-13 -151 -35 21 -193 282 -254 418 l-38 86 23 50 c13 28 26 50 30 50 3 0 14
-14 24 -31z m826 -37 c0 -16 3 -69 6 -119 l7 -90 -104 -54 c-123 -65 -244
-144 -354 -232 l-80 -65 -3 87 c-1 47 1 119 5 160 l8 75 80 48 c85 52 410 218
426 218 5 0 9 -13 9 -28z m2905 -37 c83 -24 195 -60 249 -82 l100 -38 18 -60
c20 -68 59 -247 54 -252 -2 -2 -35 15 -75 37 -108 61 -242 118 -386 165 l-130
42 -11 69 c-6 38 -14 93 -17 122 l-6 52 27 -6 c15 -4 95 -26 177 -49z m-1977
-111 c-47 -66 -151 -159 -231 -206 -62 -37 -225 -101 -237 -93 -3 2 -3 27 0
55 l5 52 92 23 c114 29 237 89 329 161 38 29 70 54 72 54 2 0 -12 -21 -30 -46z
m-1809 -102 c54 -108 150 -256 227 -351 47 -58 49 -64 60 -151 5 -49 7 -90 4
-90 -9 0 -119 124 -158 178 -76 105 -151 283 -172 405 -6 34 -13 72 -15 85
-10 42 5 22 54 -76z m2497 75 c3 -3 -21 -41 -52 -85 l-57 -81 -71 -12 c-220
-37 -511 -151 -693 -273 -37 -25 -68 -44 -70 -43 -1 2 2 21 8 43 24 87 156
234 288 319 107 69 222 113 371 139 31 6 270 0 276 -7z m-1443 -165 c44 -58
123 -127 193 -168 l43 -25 85 20 c47 11 115 34 151 50 l65 30 -44 -62 c-51
-72 -69 -140 -87 -325 -21 -210 16 -460 97 -667 63 -158 139 -283 259 -426
l73 -86 -107 -6 c-365 -22 -738 -219 -966 -512 -35 -45 -85 -117 -110 -159
-40 -68 -47 -90 -56 -160 -5 -44 -9 -88 -9 -96 0 -8 -23 52 -50 133 -53 157
-130 347 -186 460 -20 38 -33 71 -30 74 3 3 8 -1 12 -10 3 -9 44 -49 91 -89
l85 -72 61 13 c171 35 380 125 542 234 118 80 309 269 318 315 37 190 29 422
-22 626 -70 275 -189 484 -393 690 -96 96 -111 107 -134 102 l-26 -7 20 25
c16 21 21 48 27 138 l7 112 25 -49 c14 -27 44 -73 66 -103z m1560 64 c80 -120
147 -283 179 -431 26 -125 9 -495 -23 -495 -5 0 -9 26 -9 58 0 205 -106 505
-247 697 -32 45 -51 80 -47 87 22 39 96 138 103 138 5 0 24 -24 44 -54z
m-1733 -71 c0 -45 -2 -47 -147 -195 -123 -127 -324 -307 -353 -318 -5 -2 -11
28 -15 65 -3 37 -8 82 -11 100 -4 30 1 37 78 103 46 39 117 94 158 123 78 54
269 167 282 167 5 0 8 -20 8 -45z m-1110 -92 c-1 -24 -2 -26 -11 -10 -5 9 -7
22 -4 27 10 17 15 11 15 -17z m2532 -46 c-35 -61 -40 -65 -102 -86 -208 -72
-439 -214 -609 -374 l-61 -57 -1 33 c-2 100 4 183 14 196 20 25 188 131 277
176 126 63 251 111 380 144 63 17 120 30 127 31 6 0 -5 -29 -25 -63z m189 -60
c130 -202 199 -435 199 -670 l0 -99 -59 -72 c-91 -111 -87 -111 -95 -4 -9 117
-38 289 -70 416 -27 105 -98 318 -122 364 -14 27 -13 32 26 99 49 83 46 83
121 -34z m-2634 51 c-3 -7 -5 -2 -5 12 0 14 2 19 5 13 2 -7 2 -19 0 -25z
m-109 -79 c46 -70 51 -83 57 -155 l7 -79 -32 43 c-42 55 -120 192 -120 210 0
13 31 65 36 60 1 -2 25 -38 52 -79z m3802 -1 c122 -38 265 -124 344 -207 36
-38 29 -39 -21 -5 -88 60 -286 149 -399 178 -53 14 -84 35 -84 59 0 11 81 -1
160 -25z m-2615 -192 l8 -118 -33 17 c-17 9 -66 50 -109 91 l-76 74 35 31 c19
17 62 51 95 76 l60 45 6 -48 c4 -27 10 -102 14 -168z m2395 164 c0 -3 -41 -39
-91 -80 -96 -79 -187 -178 -247 -267 -19 -29 -37 -53 -39 -53 -6 0 27 73 59
130 58 103 161 220 258 293 l35 26 12 -22 c7 -12 12 -24 13 -27z m-3385 0 c5
-16 -39 -156 -55 -173 -4 -4 -10 23 -13 60 -6 59 -4 74 15 110 23 43 40 44 53
3z m1079 -9 c16 -17 16 -25 5 -75 -7 -31 -14 -55 -15 -53 -7 7 -20 147 -14
147 4 0 15 -9 24 -19z m-1399 -40 c9 -29 82 -139 140 -211 l52 -65 6 -95 7
-95 -31 35 c-48 53 -160 207 -207 283 l-43 68 27 49 c29 54 39 60 49 31z
m2540 -108 c-42 -98 -51 -111 -88 -132 -148 -84 -335 -251 -437 -389 l-54 -74
-13 44 c-7 25 -19 80 -27 124 l-14 79 100 98 c144 140 326 258 548 354 14 6
27 9 29 7 2 -2 -18 -52 -44 -111z m178 -60 c72 -216 110 -411 123 -631 l7
-113 -44 -45 c-24 -24 -47 -44 -51 -44 -4 0 -8 33 -8 74 0 160 -66 439 -146
613 l-35 77 47 108 c25 59 50 106 54 103 4 -3 28 -67 53 -142z m1352 47 c55
-27 132 -70 170 -97 66 -46 70 -50 73 -91 2 -23 1 -42 -2 -42 -3 0 -49 30
-103 67 -92 62 -303 173 -330 173 -14 0 -37 33 -48 68 l-6 22 73 -26 c40 -14
118 -47 173 -74z m-307 45 c11 -27 12 -40 5 -42 -25 -9 -163 -110 -230 -170
-40 -35 -100 -98 -133 -139 -39 -49 -60 -69 -60 -56 0 29 115 196 189 275 76
81 191 179 204 174 5 -1 17 -20 25 -42z m-2242 -26 l38 -52 -28 -51 c-37 -67
-129 -206 -137 -206 -16 0 6 117 43 233 22 70 42 127 43 127 2 0 20 -23 41
-51z m-1127 15 c16 -35 -15 -148 -72 -264 l-42 -85 -5 80 -6 79 48 95 c26 52
48 100 48 108 0 22 16 15 29 -13z m303 -223 c24 -12 29 -11 58 9 29 21 26 14
-28 -66 -33 -49 -75 -118 -95 -152 l-35 -64 -7 63 c-11 97 -50 257 -82 339
l-29 75 96 -95 c52 -52 107 -101 122 -109z m422 137 c40 -40 100 -89 134 -108
l61 -35 1 -82 c0 -46 -4 -83 -8 -83 -21 0 -128 42 -185 72 -60 32 -197 150
-197 170 0 10 108 138 116 138 2 0 37 -33 78 -72z m-1152 -108 c36 -52 105
-142 152 -198 l87 -104 -2 -59 c-1 -32 -6 -59 -11 -59 -16 0 -155 145 -210
220 -31 41 -72 105 -92 141 l-36 66 17 52 c9 28 19 48 23 44 4 -4 36 -51 72
-103z m3858 34 c11 -36 20 -68 20 -70 0 -2 -37 -22 -82 -45 -109 -54 -202
-124 -282 -210 l-65 -70 -16 32 c-17 31 -16 32 20 85 49 72 223 238 310 296
39 26 71 48 72 48 1 0 11 -30 23 -66z m245 -36 c39 -22 107 -68 153 -102 l82
-61 -6 -40 c-3 -22 -7 -41 -9 -43 -1 -2 -38 22 -80 53 -89 64 -179 115 -246
140 -43 15 -46 20 -59 68 -7 29 -15 58 -18 65 -6 16 89 -25 183 -80z m-3625
-99 c-32 -88 -79 -176 -134 -254 l-36 -50 0 57 c0 48 5 64 36 109 41 60 119
218 130 264 l7 29 13 -37 c12 -35 11 -45 -16 -118z m1215 54 c43 -87 47 -99
37 -126 -37 -97 -161 -252 -276 -345 -43 -35 -80 -62 -82 -60 -2 2 3 42 12 88
8 46 17 116 21 154 6 68 9 74 69 148 34 42 84 113 111 157 26 44 51 80 54 81
3 0 28 -44 54 -97z m-679 -74 c80 -63 170 -110 258 -134 l68 -19 -6 -50 c-13
-104 -39 -254 -46 -266 -21 -33 -366 258 -464 392 l-28 37 44 62 c24 34 48 68
53 76 8 11 14 8 34 -17 13 -17 53 -53 87 -81z m1449 -8 c-13 -43 -33 -121 -46
-172 -22 -90 -26 -98 -103 -194 -45 -55 -101 -130 -126 -167 -25 -37 -49 -68
-53 -68 -9 0 -107 197 -107 215 0 23 105 161 189 249 74 76 243 216 262 216 4
0 -4 -35 -16 -79z m159 -78 c48 -139 76 -292 83 -451 l6 -133 -33 -34 c-19
-19 -37 -35 -41 -35 -3 0 -12 28 -19 63 -19 89 -76 251 -117 328 l-34 67 21
88 c11 48 32 126 46 173 31 100 29 101 88 -66z m-2564 -156 c43 -45 99 -98
124 -117 41 -32 45 -39 46 -77 0 -24 -4 -43 -9 -43 -34 0 -226 186 -313 303
-58 79 -63 92 -52 158 l6 37 60 -89 c33 -49 95 -126 138 -172z m3847 191 l9
-53 -36 -21 c-117 -68 -221 -158 -300 -262 l-25 -32 -31 54 -32 54 48 59 c26
32 78 84 116 115 66 54 206 138 231 138 6 0 15 -24 20 -52z m146 11 c69 -35
152 -91 211 -142 35 -30 38 -36 32 -68 -13 -67 -18 -67 -93 -7 -37 30 -101 77
-140 103 -40 26 -73 51 -73 54 -1 3 -5 25 -9 49 -5 24 -5 42 1 42 5 0 37 -14
71 -31z m-608 -335 c20 -31 32 -54 28 -52 -87 43 -131 61 -177 70 -54 12 -59
11 -119 -19 -34 -17 -83 -47 -109 -67 -27 -20 -48 -33 -48 -30 0 3 19 28 43
54 78 86 189 240 197 273 4 18 11 45 14 60 6 25 13 14 71 -103 36 -72 81 -156
100 -186z m-2611 176 c89 -103 221 -217 345 -298 47 -31 88 -58 90 -59 3 -2
-48 -194 -54 -201 -4 -5 -124 66 -198 117 -40 28 -107 81 -150 118 -77 67
-207 210 -207 227 0 7 92 186 95 186 1 0 36 -40 79 -90z m972 -28 l16 -73 -28
-41 c-50 -72 -174 -197 -260 -261 -82 -62 -221 -143 -230 -135 -2 3 6 42 18
87 l22 83 75 50 c95 64 263 234 316 320 24 39 43 61 47 54 4 -6 15 -44 24 -84z
m-1281 -57 c-46 -96 -142 -239 -194 -290 -38 -36 -41 -37 -41 -16 0 13 17 43
39 67 53 60 143 197 188 286 51 100 58 57 8 -47z m3405 51 c0 -43 -2 -45 -52
-74 -81 -45 -153 -106 -200 -168 l-42 -56 -18 22 c-17 21 -17 23 14 68 52 76
127 150 206 203 40 27 78 49 83 49 5 0 9 -20 9 -44z m243 -94 c37 -30 67 -58
67 -64 0 -7 -27 -67 -35 -76 -1 -1 -33 29 -70 67 -37 39 -83 80 -101 93 -30
20 -34 28 -34 66 l0 44 53 -37 c28 -21 82 -62 120 -93z m-4206 -32 c60 -64
172 -161 231 -200 20 -13 22 -20 15 -54 l-8 -38 -60 45 c-138 104 -305 308
-305 370 l0 30 30 -41 c16 -23 60 -73 97 -112z m4581 42 c23 -48 42 -91 42
-95 0 -12 -57 2 -117 29 l-53 23 38 65 c20 36 40 66 43 66 3 0 24 -39 47 -88z
m62 67 c0 -6 -4 -7 -10 -4 -5 3 -10 11 -10 16 0 6 5 7 10 4 6 -3 10 -11 10
-16z m-4247 -105 c-39 -59 -59 -81 -61 -69 -2 10 4 28 15 40 10 13 36 45 58
73 22 27 41 48 43 47 2 -2 -23 -42 -55 -91z m3567 -66 l0 -63 -46 -19 c-26
-10 -74 -45 -109 -77 -47 -44 -65 -55 -73 -47 -7 7 -12 19 -12 28 0 38 106
155 192 211 24 16 44 29 46 29 1 0 2 -28 2 -62z m-3000 -247 c47 -34 124 -85
172 -113 l87 -50 -24 -64 c-40 -107 -32 -106 -126 -23 -106 92 -276 265 -370
375 l-72 85 12 39 12 39 112 -112 c62 -62 150 -141 197 -176z m3159 212 c39
-42 71 -81 71 -86 0 -5 -9 -22 -21 -38 l-21 -29 -59 60 c-60 61 -60 61 -58
116 1 30 6 54 10 54 4 0 39 -35 78 -77z m-2333 -200 c-47 -44 -133 -113 -191
-152 -142 -95 -365 -201 -352 -168 2 6 14 40 27 74 l22 61 93 45 c163 79 317
196 427 325 l53 62 3 -82 3 -83 -85 -82z m757 92 c15 -44 34 -114 42 -155 l15
-75 -31 -26 c-17 -15 -50 -41 -75 -58 l-44 -32 0 113 c0 109 14 303 26 362 l6
28 17 -38 c10 -22 30 -75 44 -119z m-153 25 c-5 -56 -10 -156 -10 -221 0 -65
-2 -119 -5 -119 -8 0 -86 87 -126 141 l-38 51 26 42 c43 68 155 217 160 213 2
-3 -1 -51 -7 -107z m890 34 c11 -36 20 -68 20 -69 0 -2 -26 -15 -57 -30 -93
-42 -246 -149 -338 -236 -69 -66 -85 -77 -85 -60 0 53 94 192 197 293 69 68
206 168 229 168 7 0 22 -30 34 -66z m160 29 c25 -15 73 -54 108 -87 70 -66
129 -172 139 -246 l6 -42 -86 88 c-47 49 -119 112 -160 139 -68 45 -76 54 -86
95 -6 25 -14 56 -17 69 -7 22 -5 23 22 17 16 -4 49 -19 74 -33z m-2631 -296
c72 -74 203 -197 281 -261 l34 -28 -58 -114 -58 -114 -27 20 c-44 31 -165 163
-208 226 -84 123 -160 306 -178 426 -13 85 -1 85 71 1 37 -43 101 -113 143
-156z m3136 161 c-4 -24 -10 -46 -14 -49 -3 -3 -27 -25 -52 -47 l-46 -42 -22
24 -22 23 28 33 c28 34 111 99 126 100 5 0 6 -19 2 -42z m134 -84 c-28 -30
-33 -30 -54 2 -12 19 -15 36 -10 67 l7 41 40 -43 40 -42 -23 -25z m-759 13 c0
-16 -11 -28 -37 -42 -51 -27 -186 -128 -246 -184 -28 -25 -76 -78 -107 -118
l-58 -72 -12 44 c-11 40 -10 47 9 74 54 76 231 216 356 283 82 44 95 46 95 15z
m-515 -73 c-30 -47 -57 -94 -60 -104 -8 -27 50 -244 100 -375 47 -123 115
-261 176 -362 l41 -66 -60 54 c-75 67 -151 114 -232 141 -74 26 -74 26 -153
-68 -50 -58 -101 -148 -145 -254 -8 -19 -11 9 -11 120 -1 171 -21 352 -59 543
-15 75 -26 137 -25 137 2 0 12 -5 23 -12 15 -10 24 -9 45 2 47 25 269 197 340
264 39 36 71 65 72 66 1 0 -23 -39 -52 -86z m650 36 c64 -49 152 -141 188
-195 24 -36 26 -44 16 -78 l-10 -38 -73 98 c-40 54 -98 129 -129 167 -80 97
-78 112 8 46z m-1595 -35 c-11 -69 -45 -113 -166 -219 -165 -144 -389 -265
-576 -310 l-28 -6 53 103 52 103 80 29 c169 60 374 180 520 304 38 33 71 59
72 57 1 -1 -2 -29 -7 -61z m2140 -25 c0 -5 -5 -10 -11 -10 -5 0 -7 5 -4 10 3
6 8 10 11 10 2 0 4 -4 4 -10z m-99 -33 c-8 -8 -11 -7 -11 4 0 20 13 34 18 19
3 -7 -1 -17 -7 -23z m-567 -33 l6 -57 -42 -35 c-53 -44 -285 -275 -322 -321
-15 -18 -29 -32 -31 -30 -2 2 -12 27 -23 55 l-20 50 54 71 c74 99 182 203 278
268 44 30 83 55 87 55 3 0 9 -25 13 -56z m-2824 -10 c0 -11 -64 -74 -75 -74
-2 0 3 17 12 38 8 20 19 48 25 61 8 23 9 23 23 5 8 -10 15 -24 15 -30z m-138
-25 c-19 -44 -19 -44 -32 -19 -12 22 -10 26 16 46 15 13 30 22 31 20 2 -2 -5
-23 -15 -47z m3178 -141 c33 -47 60 -91 60 -97 0 -5 -5 -21 -11 -35 -11 -24
-15 -19 -100 109 -71 107 -89 142 -89 171 l0 36 40 -48 c23 -27 68 -88 100
-136z m-3255 60 l28 -41 -19 -74 c-10 -40 -21 -73 -25 -73 -11 0 -99 136 -98
151 0 11 73 79 84 79 1 0 15 -19 30 -42z m295 -14 l25 -46 -49 -44 c-45 -41
-177 -114 -206 -114 -7 0 -10 6 -7 13 3 7 13 40 22 74 16 57 20 62 63 82 26
12 63 35 82 51 19 16 37 30 40 30 3 0 17 -21 30 -46z m2730 -118 l-13 -75 -76
-59 c-42 -33 -109 -90 -149 -127 -40 -37 -74 -66 -76 -64 -2 2 -9 14 -15 27
-11 21 -8 29 35 80 59 71 295 305 301 298 3 -2 -1 -38 -7 -80z m-1101 45
c-113 -136 -190 -234 -205 -260 -10 -17 -21 -31 -24 -31 -7 0 6 173 18 240 8
49 11 51 152 69 36 5 69 9 74 10 5 0 -2 -12 -15 -28z m1275 -122 l50 -81 -19
-34 c-22 -41 -28 -42 -50 -7 -10 14 -35 46 -57 69 l-40 43 13 72 13 72 20 -26
c12 -15 43 -63 70 -108z m-3292 0 l58 -77 -17 -83 c-9 -46 -17 -86 -19 -87 -9
-13 -133 148 -170 221 -28 53 -28 52 30 115 l31 33 15 -23 c8 -12 41 -57 72
-99z m2127 49 c7 -35 14 -70 17 -79 3 -10 -19 -33 -63 -66 -72 -54 -243 -151
-243 -136 0 21 253 340 271 342 4 1 12 -27 18 -61z m-394 20 c-11 -48 -25
-207 -25 -285 0 -77 -2 -85 -42 -155 -23 -40 -57 -107 -76 -148 -40 -88 -42
-86 -68 67 -19 108 -17 434 3 454 10 10 191 88 206 89 4 0 5 -10 2 -22z
m-1255 -28 l21 -40 -38 -46 c-73 -88 -236 -198 -340 -229 -27 -8 -28 2 -12 91
16 90 15 89 77 108 84 27 161 68 212 114 25 23 48 41 52 42 4 0 17 -18 28 -40z
m3160 -120 c23 -72 40 -133 37 -136 -9 -10 -207 101 -207 116 1 14 112 160
119 156 4 -3 27 -64 51 -136z m63 126 c12 -8 41 -25 64 -39 l41 -26 -13 -43
c-7 -24 -20 -61 -30 -83 l-17 -40 -33 105 c-18 58 -36 113 -40 123 -9 21 -2
22 28 3z m-3754 -328 c56 -61 61 -70 60 -110 -1 -23 -4 -54 -9 -68 -7 -24 -14
-18 -148 117 -77 77 -145 150 -150 160 -9 16 -3 31 30 81 l40 62 58 -88 c32
-48 85 -117 119 -154z m1487 65 c0 -175 12 -271 56 -418 l20 -70 -33 -104 -34
-104 -32 69 c-77 164 -132 380 -149 580 l-6 80 48 40 c37 31 124 94 129 94 1
0 1 -75 1 -167z m-876 106 c12 -22 18 -48 15 -59 -9 -29 -152 -160 -233 -214
-67 -45 -233 -125 -258 -126 -9 0 -9 105 1 136 2 7 28 20 57 29 127 42 287
146 363 237 17 20 31 37 32 37 2 1 12 -17 23 -40z m3383 -17 l38 -39 -21 -52
c-38 -96 -125 -251 -142 -251 -4 0 -10 17 -14 38 -3 20 -12 60 -19 89 -12 47
-11 54 7 83 16 28 54 117 72 173 7 23 27 13 79 -41z m-751 -4 c61 -84 61 -79
16 -131 -22 -26 -43 -47 -48 -47 -5 0 -18 13 -30 30 l-21 29 23 75 c13 42 26
76 29 76 4 0 17 -15 31 -32z m-137 -47 c-15 -45 -26 -58 -103 -116 -83 -62
-101 -67 -102 -28 0 12 211 205 218 198 2 -2 -4 -26 -13 -54z m-889 -36 c-8
-30 -196 -211 -286 -274 -87 -61 -236 -144 -250 -139 -5 2 23 65 63 141 l72
139 90 37 c100 42 187 91 255 144 l45 35 8 -31 c5 -16 6 -40 3 -52z m1320 12
c27 -17 88 -50 135 -72 l86 -39 17 -84 c10 -46 16 -86 14 -88 -12 -11 -353
240 -346 254 2 4 10 19 17 35 8 15 18 27 22 27 4 0 29 -15 55 -33z m579 -44
c70 -80 -19 -366 -163 -528 -47 -53 -52 -54 -52 -7 0 21 -5 76 -11 121 l-11
82 44 57 c59 75 122 184 144 250 10 28 20 52 22 52 2 0 14 -12 27 -27z m-3405
-82 c16 -41 30 -79 30 -86 0 -14 -87 -91 -177 -157 -127 -94 -415 -217 -435
-186 -4 7 -8 47 -8 89 l0 76 62 23 c156 56 308 153 423 269 32 34 63 57 67 53
4 -4 21 -40 38 -81z m2768 -35 c78 -63 205 -150 278 -191 58 -32 53 -20 70
-209 l7 -79 -106 72 c-112 76 -235 180 -328 277 l-57 59 29 63 c15 34 31 62
34 62 3 0 36 -24 73 -54z m-1239 -37 c1 -34 -7 -44 -107 -140 -149 -145 -354
-293 -520 -378 -51 -26 -52 -24 -11 94 l30 90 127 62 c149 74 276 162 387 270
87 85 92 85 94 2z m896 26 c-52 -40 -57 -39 -35 6 20 38 23 40 38 25 15 -15
15 -17 -3 -31z m-531 -86 c37 -71 37 -74 17 -77 -12 -2 -51 10 -87 27 l-66 31
39 49 c21 28 43 49 48 47 6 -1 27 -36 49 -77z m388 41 c-13 -20 -22 -28 -27
-20 -7 11 34 65 42 56 2 -2 -5 -18 -15 -36z m-282 -1 c41 -25 48 -34 40 -48
-10 -19 -39 -46 -43 -40 -13 21 -56 119 -52 119 3 0 27 -14 55 -31z m-1917
-214 c-41 -57 -224 -208 -336 -279 -61 -38 -237 -129 -274 -140 -22 -7 -25 2
-47 170 l-6 42 67 16 c179 45 380 156 533 293 l45 41 20 -57 21 -56 -23 -30z
m2061 91 c14 -19 26 -41 26 -48 0 -15 -100 -142 -106 -135 -3 2 -12 32 -20 65
l-16 62 37 45 c21 25 41 45 45 45 4 0 19 -15 34 -34z m-339 -40 c33 -13 81
-27 107 -31 52 -8 52 -8 73 -114 l7 -33 -43 7 c-59 10 -114 32 -174 70 -77 49
-86 63 -69 104 8 20 19 31 26 28 7 -3 40 -17 73 -31z m442 -135 c9 -34 -21
-84 -97 -160 l-65 -66 -8 63 -8 63 49 44 c27 24 59 60 73 79 22 33 25 34 37
18 7 -9 16 -28 19 -41z m-521 -21 c68 -47 144 -78 219 -86 l55 -7 0 -69 0 -68
-27 6 c-114 27 -323 139 -323 172 0 24 12 92 16 92 2 0 29 -18 60 -40z"/>
<path d="M2922 5378 c-6 -15 -20 -45 -31 -67 l-21 -40 35 6 c22 4 41 1 51 -8
15 -12 16 -11 9 11 -5 14 -13 48 -20 75 -12 49 -12 50 -23 23z"/>
<path d="M3355 5173 c-38 -20 -109 -50 -157 -67 l-87 -32 31 -48 c46 -75 113
-213 142 -294 31 -87 76 -261 76 -295 0 -21 8 -26 81 -45 179 -48 342 -139
479 -268 79 -74 180 -203 213 -271 22 -46 37 -48 37 -5 0 15 12 77 25 137 14
61 28 122 31 136 5 24 3 27 -34 32 -62 10 -190 56 -272 97 -211 107 -399 296
-502 505 l-39 80 4 125 c3 89 10 143 25 188 11 34 19 62 18 62 0 -1 -32 -17
-71 -37z"/>
<path d="M2583 4927 c-18 -7 -33 -15 -34 -20 -4 -19 14 -110 18 -97 3 8 18 41
34 73 15 31 25 57 21 56 -4 0 -22 -6 -39 -12z"/>
<path d="M1705 5424 c-11 -9 -73 -42 -138 -74 l-118 -58 73 -22 c60 -18 81
-30 118 -69 25 -25 60 -71 78 -101 l32 -55 -7 45 c-5 25 -8 114 -8 198 0 83
-2 152 -5 152 -3 0 -14 -8 -25 -16z"/>
<path d="M1804 4787 c1 -42 3 -77 6 -77 3 1 20 14 38 29 31 27 32 30 14 35
-11 4 -29 25 -40 48 l-19 41 1 -76z"/>
<path d="M785 5258 c11 -49 8 -100 -11 -172 -6 -27 -4 -26 35 17 24 25 66 61
94 79 52 33 52 33 22 36 -17 2 -56 23 -88 48 -31 24 -59 44 -61 44 -2 0 2 -23
9 -52z"/>
<path d="M670 4858 c-14 -22 -52 -66 -86 -98 l-61 -58 64 -4 c61 -3 64 -2 69
22 3 14 15 58 25 99 11 40 18 75 17 76 -2 2 -14 -15 -28 -37z"/>
<path d="M1555 4272 c-28 -26 -69 -63 -93 -82 l-43 -35 39 -85 c47 -100 95
-232 126 -348 l22 -84 38 59 c22 32 78 97 127 146 67 66 83 87 67 87 -30 0
-131 108 -166 179 -17 34 -38 95 -47 136 -10 41 -18 75 -19 75 0 0 -24 -22
-51 -48z"/>
<path d="M770 3851 c0 -71 -3 -138 -6 -148 -3 -10 9 0 27 22 19 22 67 75 108
118 41 42 70 77 64 77 -5 0 -30 -6 -54 -13 -57 -17 -83 -8 -110 38 -12 19 -23
35 -25 35 -2 0 -4 -58 -4 -129z"/>
<path d="M2626 3903 c7 -38 19 -136 25 -220 14 -177 0 -419 -26 -459 -8 -13
-15 -25 -15 -28 0 -2 32 7 70 20 123 41 232 57 368 52 67 -3 122 -4 122 -2 0
1 -10 24 -22 51 -20 44 -22 64 -22 238 -1 105 3 217 7 250 l8 60 -68 -66 c-92
-90 -103 -95 -156 -70 -59 29 -204 140 -255 195 -23 25 -44 46 -46 46 -1 0 3
-30 10 -67z"/>
<path d="M1648 2970 l-3 -63 116 -116 c125 -125 218 -255 288 -400 22 -46 43
-86 46 -89 3 -3 2 15 -1 40 -13 91 35 431 65 461 21 21 11 26 -22 12 -18 -7
-64 -20 -102 -28 -60 -12 -75 -12 -104 -1 -59 24 -160 103 -212 167 -28 34
-55 66 -59 71 -5 4 -10 -20 -12 -54z"/>
<path d="M2204 1701 c-2 -115 -20 -254 -37 -286 -5 -11 -40 -51 -76 -89 -36
-38 -57 -66 -46 -62 115 44 222 71 360 89 l85 12 -45 55 c-68 83 -134 184
-188 290 -27 52 -50 96 -51 97 0 0 -2 -47 -2 -106z"/>
<path d="M1510 943 c-70 -27 -241 -73 -270 -73 -9 0 -38 16 -63 35 l-46 35 43
-98 c23 -53 58 -140 76 -192 36 -104 50 -128 50 -89 0 47 123 235 229 352 29
31 51 56 50 56 -2 -1 -33 -12 -69 -26z"/>
<path d="M854 2436 c6 -18 42 -164 52 -215 5 -22 10 -17 48 44 l44 68 -47 35
c-25 19 -59 46 -75 61 -24 21 -28 22 -22 7z"/>
<path d="M3542 2104 c-7 -14 -37 -59 -67 -100 -52 -69 -54 -74 -26 -59 40 20
76 19 150 -4 l62 -19 -36 64 c-20 35 -44 82 -54 104 l-18 40 -11 -26z"/>
<path d="M2815 1345 c-77 -58 -147 -105 -156 -105 -15 0 -15 -6 -3 -57 22 -92
54 -328 62 -451 l7 -113 50 76 c28 43 72 97 98 122 44 41 51 44 85 38 20 -3
76 -25 125 -48 48 -24 86 -40 84 -37 -20 34 -97 205 -124 275 -53 138 -105
349 -93 380 5 14 8 25 7 25 -1 0 -65 -47 -142 -105z"/>
<path d="M1946 6193 c-4 -115 -10 -234 -15 -265 -4 -32 -5 -58 -3 -58 2 0 52
30 110 67 244 153 560 262 832 288 36 3 85 8 108 11 l44 5 -82 57 c-45 30 -87
66 -93 79 l-10 23 -442 0 -442 0 -7 -207z"/>
<path d="M2872 6388 c8 -23 290 -206 428 -277 132 -67 391 -176 450 -187 26
-6 32 -2 60 42 64 100 142 290 165 402 6 31 6 32 -29 32 -30 0 -37 -4 -42 -25
-3 -14 -8 -25 -11 -25 -2 0 -19 11 -37 25 -24 18 -45 25 -79 25 -26 0 -47 -4
-47 -8 0 -4 32 -34 71 -65 59 -49 69 -61 63 -80 -13 -40 -59 -143 -75 -167
-15 -22 -16 -21 -38 61 -12 46 -37 122 -55 169 -32 84 -34 85 -70 88 -20 2
-36 -1 -36 -6 0 -4 18 -56 39 -113 40 -105 86 -258 79 -264 -1 -2 -34 10 -73
25 -86 34 -88 40 -83 227 l3 133 -36 0 -36 0 -6 -72 c-4 -40 -4 -106 0 -145 3
-40 4 -73 1 -73 -3 0 -22 7 -41 15 -38 16 -52 47 -77 175 -6 30 -13 65 -16 78
-3 18 -11 22 -39 22 -41 0 -41 3 -15 -114 11 -49 19 -91 17 -92 -1 -2 -25 9
-52 24 -42 23 -50 33 -57 67 -23 109 -26 115 -64 115 -35 0 -35 -1 -29 -32 4
-18 9 -42 12 -53 6 -19 5 -19 -23 -1 -16 10 -50 34 -77 52 -38 28 -56 34 -98
34 -36 0 -49 -4 -47 -12z"/>
<path d="M4005 6374 c-35 -161 -153 -426 -208 -468 -26 -19 -29 -19 -77 -4
-27 9 -50 15 -50 15 0 -1 9 -31 21 -67 24 -78 35 -209 21 -268 -9 -39 -8 -43
6 -36 58 24 92 33 127 33 56 1 159 -17 222 -38 30 -10 52 -15 51 -12 -2 3 -15
29 -29 56 -58 111 -99 459 -81 685 10 123 9 160 -3 104z"/>
<path d="M3096 6086 c-3 -55 -9 -118 -12 -139 l-7 -38 44 29 c61 41 157 72
234 75 36 1 65 3 65 4 0 1 -48 26 -107 56 -60 30 -131 68 -159 85 l-51 30 -7
-102z"/>
<path d="M4445 5212 c8 -19 17 -57 35 -146 l12 -60 13 32 c9 20 23 34 40 38
40 10 216 -40 309 -86 43 -22 80 -40 82 -40 2 0 4 40 4 89 l0 88 -122 6 c-134
6 -219 24 -317 68 -52 24 -62 26 -56 11z"/>
<path d="M0 4645 c0 -41 3 -75 7 -75 4 0 42 14 85 32 l78 32 -83 43 c-45 24
-83 43 -84 43 -2 0 -3 -34 -3 -75z"/>
<path d="M4416 4279 c-21 -57 -36 -102 -34 -104 2 -1 32 -14 68 -30 137 -60
318 -172 443 -277 l47 -39 0 69 0 70 -67 16 c-150 37 -392 191 -435 276 -12
22 -19 29 -22 19z"/>
<path d="M4136 3216 c-55 -102 -182 -216 -305 -273 -67 -31 -79 -34 -130 -28
-77 9 -167 33 -213 56 -20 10 -40 19 -43 19 -3 0 5 -21 19 -47 37 -74 84 -233
102 -340 8 -54 17 -99 18 -101 2 -1 15 17 30 42 48 82 145 194 222 256 103 82
127 93 198 91 56 -2 186 -24 223 -38 13 -5 12 0 -5 23 -21 30 -53 148 -78 288
-7 43 -15 80 -17 82 -1 2 -11 -12 -21 -30z"/>
<path d="M415 3138 c-99 -75 -230 -144 -343 -179 l-72 -23 1 -375 c1 -207 4
-365 6 -351 29 187 77 339 151 485 60 117 175 278 242 339 49 44 80 43 118 -2
l23 -27 -6 25 c-3 14 -11 59 -18 101 l-12 75 -90 -68z"/>
<path d="M4705 2402 c0 -81 -3 -174 -8 -207 -7 -58 -7 -59 10 -38 30 36 61 36
151 -1 l82 -33 0 158 c0 141 -2 159 -16 159 -9 0 -62 24 -118 54 l-101 54 0
-146z"/>
<path d="M0 1465 l0 -518 41 64 c100 155 271 341 406 443 l52 39 -37 20 c-151
80 -300 225 -417 403 l-45 68 0 -519z"/>
<path d="M652 1620 l-63 -70 50 31 c31 20 58 30 71 26 21 -5 23 3 11 55 -6 27
-7 27 -69 -42z"/>
<path d="M4396 1529 c-32 -39 -95 -102 -140 -140 -103 -88 -121 -89 -187 -18
l-47 51 -11 -52 c-6 -28 -11 -53 -11 -55 0 -3 12 -5 26 -5 50 0 245 -111 355
-202 26 -21 49 -38 51 -38 3 0 1 26 -4 58 -12 69 -3 289 16 392 7 41 13 76 12
77 -1 2 -28 -29 -60 -68z"/>
<path d="M4713 740 c113 -183 183 -379 220 -610 3 -14 4 98 3 249 l-1 273 -47
19 c-47 18 -130 64 -178 97 l-24 17 27 -45z"/>
<path d="M3605 680 c-9 -15 -179 -127 -205 -135 -19 -6 -19 -7 5 -55 30 -59
65 -182 65 -228 0 -52 -28 -151 -60 -209 l-28 -53 47 0 47 0 2 58 c4 134 52
372 107 531 31 88 38 120 20 91z"/>
<path d="M0 107 c0 -40 4 -46 44 -75 34 -25 55 -32 90 -32 25 0 46 4 46 9 0 9
-163 141 -174 141 -3 0 -6 -19 -6 -43z"/>
<path d="M1292 103 c-12 -21 -31 -53 -43 -70 l-21 -33 75 0 75 0 -24 57 c-13
32 -24 64 -24 71 0 23 -16 12 -38 -25z"/>
<path d="M2629 76 c-9 -11 -24 -33 -33 -48 l-18 -28 73 0 73 0 -26 28 c-14 15
-31 37 -39 48 l-14 21 -16 -21z"/>
<path d="M0 16 c0 -9 7 -16 16 -16 9 0 14 5 12 12 -6 18 -28 21 -28 4z"/>
<path d="M4917 23 c-12 -11 -8 -23 8 -23 8 0 15 7 15 15 0 16 -12 20 -23 8z"/>
</g>
</svg>
