<?xml version="1.0" standalone="no"?>
<!DOCTYPE svg PUBLIC "-//W3C//DTD SVG 20010904//EN"
 "http://www.w3.org/TR/2001/REC-SVG-20010904/DTD/svg10.dtd">
<svg version="1.0" xmlns="http://www.w3.org/2000/svg"
 width="1583.000000pt" height="2048.000000pt" viewBox="0 0 1583.000000 2048.000000"
 preserveAspectRatio="xMidYMid meet">
<metadata>
Created by potrace 1.16, written by Peter Selinger 2001-2019
</metadata>
<g transform="translate(0.000000,2048.000000) scale(0.100000,-0.100000)"
fill="#000000" stroke="none">
<path d="M1651 20100 c-1001 -5 -1014 -5 -1025 -25 -6 -11 -17 -24 -23 -28
-19 -12 -19 -4172 -1 -4161 10 6 10 4 2 -7 -6 -8 -12 -21 -12 -29 -2 -56 -2
-8536 0 -11440 l3 -3556 25 -31 25 -32 4448 0 c2603 -1 4447 3 4447 8 0 5 -7
12 -16 15 -9 3 -2004 6 -4434 6 -2430 0 -4425 3 -4433 6 -9 3 -18 13 -21 21
-4 9 -6 811 -6 1784 0 1179 -3 1769 -10 1769 -7 0 -11 -576 -13 -1720 l-2
-1720 0 1722 c0 1648 1 1723 18 1726 16 3 241 -60 477 -133 69 -22 129 -39
420 -125 225 -66 348 -103 425 -126 88 -27 214 -64 345 -101 47 -13 105 -30
130 -37 25 -7 81 -23 125 -35 44 -13 123 -35 175 -51 52 -16 176 -49 275 -75
99 -25 209 -56 245 -68 76 -26 172 -27 665 -8 160 6 481 18 715 26 234 8 601
22 815 30 215 8 521 19 680 25 160 6 412 15 560 20 435 17 1379 51 2340 85
504 18 854 30 1395 50 635 24 921 34 1105 40 150 5 379 13 1485 55 151 6 597
22 990 36 393 14 825 29 960 34 149 5 246 5 248 -1 2 -5 8 -7 13 -3 5 3 9 -7
8 -23 0 -20 -2 -23 -7 -11 -6 16 -6 -1160 1 -2594 1 -300 -1 -544 -5 -541 -5
2 -8 -5 -8 -15 0 -39 -20 -43 -224 -43 -165 0 -196 -2 -196 -14 0 -13 29 -15
173 -17 196 -1 221 0 225 12 2 5 9 7 15 4 7 -2 20 9 30 25 16 27 17 132 17
1652 0 1531 -1 1624 -17 1642 -17 19 -17 20 0 14 16 -6 17 270 15 5789 l-3
5795 -835 -1 -835 0 -51 24 c-61 28 -96 64 -129 130 l-25 50 0 835 0 836 25
50 c37 77 91 126 158 146 34 10 1622 13 1669 3 l27 -6 0 1118 c0 1074 0 1120
-18 1154 -11 19 -21 34 -23 32 -1 -2 -10 -1 -18 2 -19 8 -12166 13 -13529 6z
m446 -17 c-257 -2 -677 -2 -935 0 -257 1 -46 2 468 2 514 0 725 -1 467 -2z
m571 -914 l2 -899 -1035 0 -1035 1 2 827 3 827 2 -817 c2 -534 7 -818 13 -818
7 0 10 300 10 871 0 581 3 877 10 890 10 19 32 19 1011 19 797 0 999 3 993 13
-5 9 -3 9 7 -1 12 -11 14 -158 17 -913z m1735 914 c-310 -2 -816 -2 -1125 0
-310 1 -57 2 562 2 619 0 872 -1 563 -2z m3047 -18 c11 -29 14 -7932 3 -7960
-4 -13 -16 6 -41 66 -50 117 -54 221 -18 409 31 162 32 193 6 262 -31 83 -92
139 -172 158 -64 14 -160 12 -225 -6 -32 -9 -74 -19 -94 -23 l-36 -8 -7 126
c-3 69 -13 337 -21 595 -13 380 -13 471 -3 484 7 8 55 35 105 59 202 97 271
255 217 496 -51 225 -196 334 -354 266 l-48 -21 -61 23 c-69 25 -163 23 -201
-4 -19 -13 -26 -13 -59 0 -53 21 -106 4 -171 -54 -84 -76 -109 -148 -87 -259
8 -40 7 -42 -26 -61 -39 -24 -67 -76 -67 -128 0 -79 105 -241 180 -280 15 -7
78 -14 153 -17 70 -3 133 -10 138 -15 6 -6 14 -73 19 -149 12 -176 30 -757 30
-932 l0 -132 -27 6 c-125 28 -251 68 -263 83 -14 19 -103 36 -175 34 -75 -2
-162 -20 -380 -82 -111 -31 -206 -28 -371 15 -103 27 -162 37 -227 38 l-87 1
2 3510 c2 2666 6 3510 15 3510 6 0 15 3 19 8 4 4 529 7 1166 7 l1158 0 10 -25z
m1753 18 c-310 -2 -816 -2 -1125 0 -310 1 -57 2 562 2 619 0 872 -1 563 -2z
m2400 0 c-309 -2 -817 -2 -1130 0 -312 1 -59 2 562 2 622 0 877 -1 568 -2z
m3297 -3 l-225 -6 252 -2 c245 -2 252 -3 267 -24 13 -18 15 -113 16 -709 0
-379 3 -695 6 -704 14 -36 -24 -10 -61 42 -173 245 -265 353 -300 353 -19 0
-78 -42 -125 -90 -9 -8 -28 -26 -43 -39 l-27 -25 2 602 3 602 -1180 -2 -1180
-3 1168 -2 1167 -3 0 -608 0 -607 -236 -235 c-130 -129 -297 -299 -371 -377
l-135 -142 -391 -3 -392 -3 -58 -29 c-64 -31 -126 -99 -149 -163 -10 -31 -13
-253 -13 -1173 l0 -1135 23 -46 c28 -58 80 -112 135 -142 l42 -22 773 -3 772
-2 0 -3507 0 -3506 -42 6 c-24 3 -122 17 -218 31 -316 46 -541 76 -616 83 -41
3 -76 9 -79 12 -15 25 -46 394 -55 652 -17 484 -56 895 -110 1148 -18 81 -62
174 -104 218 -146 152 -492 233 -988 233 l-158 0 2 748 3 747 33 155 c92 441
162 1004 209 1685 25 363 25 1261 1 1423 -49 316 -135 512 -226 512 l-22 0 0
2030 c0 1800 2 2029 15 2024 8 -4 15 -1 15 5 0 8 385 10 1413 9 776 -1 1311
-5 1187 -8z m-9842 -3525 c1 -1933 1 -3515 -1 -3515 -2 0 -37 -12 -77 -26
-141 -49 -292 -50 -515 -2 -135 28 -245 21 -415 -27 -138 -39 -127 -39 -313 6
-148 35 -247 45 -316 30 -29 -6 -98 -33 -154 -61 -125 -61 -194 -74 -322 -60
-95 11 -106 12 -197 30 l-58 11 0 1305 c0 829 4 1304 10 1304 5 0 34 9 63 20
61 23 127 82 160 144 l22 41 3 1120 c2 788 0 1135 -8 1171 -21 98 -99 182
-196 210 l-54 15 0 902 0 902 1182 -2 1183 -3 3 -3515z m7182 1491 l0 -2024
-30 -12 c-17 -7 -47 -32 -68 -55 -35 -40 -120 -199 -148 -277 -7 -21 -26 -66
-42 -100 -16 -35 -42 -97 -57 -138 -16 -41 -32 -77 -35 -80 -3 -3 -25 -54 -49
-115 -24 -60 -54 -135 -66 -165 -13 -30 -49 -120 -80 -200 -32 -80 -68 -170
-81 -200 -12 -30 -48 -120 -79 -200 -31 -80 -67 -170 -80 -200 -21 -48 -99
-249 -119 -304 -5 -16 -14 -10 -65 41 -69 71 -146 112 -225 120 -56 6 -56 6
-67 47 -6 23 -26 92 -45 153 -38 126 -40 143 -19 143 16 0 30 42 22 64 -3 7 7
23 24 35 22 16 29 30 29 55 0 43 -19 59 -110 89 l-75 25 -43 139 c-24 76 -50
154 -57 173 -7 19 -26 69 -40 110 -58 161 -163 385 -233 498 -109 175 -193
266 -292 315 -53 26 -76 32 -130 32 -36 0 -75 -4 -87 -8 l-23 -8 0 2034 c0
1118 2 2036 4 2038 2 2 536 3 1185 1 l1181 -2 0 -2024z m-2390 -12 l0 -2036
-49 -54 c-123 -134 -174 -339 -221 -879 -23 -263 -115 -1005 -270 -2160 -11
-82 -20 -158 -20 -167 0 -40 -18 -13 -43 65 -23 73 -252 748 -392 1157 -29 85
-74 216 -99 290 -26 74 -53 151 -60 170 -8 19 -42 114 -76 210 -157 446 -318
813 -446 1020 -91 146 -182 220 -270 220 -42 0 -119 -31 -150 -62 -150 -143
-203 -651 -148 -1433 55 -798 207 -1576 491 -2515 56 -188 125 -406 134 -429
5 -12 18 -53 29 -90 16 -57 128 -383 174 -510 29 -78 42 -74 -201 -67 -120 3
-338 9 -485 12 l-268 6 0 4644 0 4644 1185 0 1185 0 0 -2036z m5058 929 c56
-57 109 -126 217 -283 l80 -115 3 -228 c3 -182 1 -228 -10 -232 -7 -3 -295 -4
-640 -3 l-627 3 75 80 c85 90 480 489 630 636 105 103 204 188 217 189 5 0 30
-21 55 -47z m-12157 -738 c56 -20 119 -77 147 -136 l22 -45 0 -1137 0 -1138
-25 -48 c-28 -55 -71 -96 -133 -123 -41 -19 -82 -19 -1085 -19 l-1042 0 -3
130 -3 130 823 3 823 3 57 28 c71 35 120 88 147 162 22 57 22 59 19 884 -3
633 -6 835 -16 863 -19 55 -71 119 -127 153 l-48 30 -830 3 c-466 1 -835 6
-841 11 -7 6 -10 54 -8 135 l3 126 1038 0 c906 0 1043 -2 1082 -15z m-2144
-187 c-2 -24 -4 -5 -4 42 0 47 2 66 4 43 2 -24 2 -62 0 -85z m14599 17 c9 -8
11 -15 5 -15 -6 0 -11 -9 -11 -21 0 -11 3 -18 8 -16 4 3 5 -34 2 -81 l-5 -87
-820 -5 -820 -5 -50 -23 c-70 -32 -131 -95 -155 -160 -19 -51 -20 -79 -20
-882 0 -803 1 -831 20 -882 21 -58 81 -123 140 -154 33 -18 78 -19 867 -22
l833 -2 5 -23 c11 -52 10 -255 -2 -266 -9 -8 -280 -11 -1050 -9 l-1038 3 -42
22 c-55 30 -106 84 -132 139 -21 43 -21 51 -21 1164 0 1094 0 1120 20 1173 23
62 68 109 136 143 l49 23 1033 1 c906 0 1035 -2 1048 -15z m-12907 -120 c65
-23 117 -69 148 -133 l28 -57 0 -835 c0 -695 -2 -841 -14 -870 -38 -95 -115
-155 -218 -170 -92 -13 -1600 -13 -1608 0 -3 5 -6 471 -5 1035 0 911 -1 1025
-15 1025 -8 0 -15 4 -15 10 0 6 302 10 828 10 713 0 835 -2 871 -15z m-1692
-1517 c-1 -277 -2 -51 -2 502 0 553 1 779 2 503 2 -277 2 -729 0 -1005z m9476
-477 c45 -22 134 -101 182 -161 95 -118 228 -381 319 -628 66 -178 130 -372
124 -377 -2 -2 -64 14 -137 36 -126 37 -135 38 -153 23 -21 -20 -24 -74 -5
-93 6 -6 12 -29 12 -49 0 -36 3 -38 67 -72 38 -20 122 -54 187 -75 l119 -40
38 -120 c73 -233 79 -275 42 -275 -5 0 -28 -15 -52 -32 -49 -37 -108 -111
-139 -175 -18 -38 -47 -59 -47 -35 0 21 -119 123 -174 152 -126 63 -249 61
-364 -7 -50 -29 -152 -126 -152 -145 0 -4 -6 -13 -12 -20 -32 -33 -85 -157
-115 -268 -14 -52 -17 -103 -17 -255 1 -169 3 -200 25 -282 l25 -92 -51 -12
c-61 -14 -179 -69 -220 -103 -23 -20 -13 -16 46 14 135 70 246 87 329 49 86
-39 120 -88 120 -172 0 -95 -46 -169 -131 -212 -77 -40 -175 -34 -337 20 -7 3
-10 0 -7 -5 9 -14 102 -61 150 -75 l40 -12 16 -79 c48 -237 142 -385 315 -497
137 -89 267 -126 469 -134 259 -10 483 47 601 153 49 45 102 144 130 244 20
72 31 338 15 368 -15 29 -24 28 -108 -13 -109 -53 -268 -110 -378 -136 -81
-19 -128 -23 -245 -23 -162 1 -254 18 -373 72 -64 29 -177 106 -177 120 0 4
11 20 24 36 l23 30 29 -21 c16 -11 57 -31 91 -43 52 -19 77 -22 146 -18 73 4
91 9 148 41 80 45 140 104 190 186 21 35 40 68 42 74 2 6 32 -19 68 -55 105
-107 199 -142 310 -113 61 15 152 72 163 102 10 26 24 12 46 -49 12 -35 65
-171 117 -303 52 -132 112 -287 135 -345 22 -58 48 -123 58 -145 28 -64 110
-272 110 -279 0 -3 11 -29 24 -58 14 -29 41 -93 61 -143 20 -49 43 -103 50
-120 8 -16 25 -58 40 -93 14 -34 38 -91 54 -125 16 -34 39 -84 51 -112 68
-150 131 -260 221 -385 22 -30 54 -75 71 -100 28 -40 175 -227 188 -240 3 -3
32 -39 65 -80 33 -41 62 -77 65 -80 10 -10 187 -226 220 -270 19 -25 40 -51
47 -58 7 -7 13 -17 13 -20 0 -4 12 -20 26 -35 51 -55 166 -249 201 -340 33
-85 36 -102 41 -222 4 -112 1 -143 -17 -215 -25 -96 -52 -154 -84 -181 -93
-78 -468 -227 -777 -308 -576 -151 -1284 -207 -1805 -141 -228 29 -563 95
-715 140 -36 11 -112 34 -170 51 -401 120 -873 342 -1065 500 -29 24 -58 54
-64 67 -32 67 -44 313 -22 453 21 132 61 276 137 498 41 119 75 236 76 259 1
38 -5 59 -48 159 -8 17 -14 37 -14 45 0 8 -4 18 -9 23 -27 29 -293 796 -426
1230 -78 256 -92 304 -149 505 -258 919 -373 1636 -411 2575 -16 374 39 788
122 932 60 104 186 116 277 26 68 -67 179 -263 293 -517 24 -56 53 -119 63
-141 21 -44 147 -376 178 -470 11 -33 44 -125 72 -205 29 -80 70 -197 92 -260
21 -63 43 -126 48 -140 65 -188 255 -746 265 -780 17 -57 84 -255 100 -295 7
-16 96 -286 200 -600 103 -313 193 -586 200 -605 37 -101 148 -376 155 -383
18 -19 -85 339 -179 623 -110 334 -133 404 -168 503 -33 95 -34 99 -23 175 19
138 119 906 176 1352 30 239 63 496 74 570 10 74 26 212 35 305 46 510 66 655
111 804 45 146 93 223 163 262 47 25 129 21 194 -10z m2247 -3 c69 -74 130
-314 151 -598 15 -209 6 -944 -16 -1265 -28 -416 -79 -924 -115 -1140 -5 -33
-17 -105 -25 -160 -70 -453 -172 -877 -290 -1201 -56 -153 -95 -238 -105 -227
-4 4 -12 22 -18 38 -6 17 -49 125 -97 240 -48 116 -98 239 -112 275 -13 36
-63 162 -110 280 -99 250 -220 563 -233 601 -6 19 -3 38 11 65 50 106 61 136
79 226 27 131 27 359 1 496 -17 88 -79 270 -100 296 -15 18 -15 49 -1 81 17
39 24 57 53 135 56 145 138 354 151 384 7 17 21 51 31 76 10 25 23 59 30 75 7
17 27 68 45 115 17 46 40 102 50 125 10 22 35 83 55 135 47 119 225 552 267
645 112 252 131 285 182 316 46 28 80 24 116 -13z m-11723 -315 c-2 -27 -3 -5
-3 47 0 52 1 74 3 48 2 -27 2 -69 0 -95z m2058 -1378 l0 -1300 -73 3 c-166 8
-255 -57 -346 -251 -54 -115 -81 -151 -136 -183 -16 -10 -30 -22 -30 -26 0 -4
-6 -8 -14 -8 -9 0 -15 24 -19 93 -16 248 -58 846 -67 957 -5 69 -13 185 -16
258 -6 120 -5 132 10 132 33 0 137 61 184 109 76 77 91 158 46 250 l-27 53 36
33 c44 42 60 91 55 169 -6 101 -75 181 -192 220 -58 20 -146 21 -191 1 -31
-12 -40 -12 -76 0 -68 24 -114 19 -191 -22 -39 -20 -83 -53 -99 -73 -22 -27
-38 -37 -60 -38 -46 -1 -95 -40 -121 -96 -20 -43 -23 -65 -23 -165 0 -130 23
-219 76 -297 53 -78 169 -142 264 -146 54 -2 49 12 64 -188 6 -80 23 -282 36
-450 14 -168 30 -363 35 -435 6 -71 15 -175 20 -230 25 -274 25 -282 -4 -323
-46 -67 -105 -116 -188 -157 -70 -34 -87 -47 -112 -88 -57 -93 -48 -175 42
-397 l55 -135 -2 -176 c-2 -189 8 -262 55 -381 13 -34 24 -66 24 -71 0 -6 -91
-7 -232 -3 -317 9 -620 -5 -713 -34 -38 -12 -78 -23 -87 -24 -17 -1 -18 122
-18 2352 0 1293 0 2357 0 2362 0 7 341 9 1018 8 l1017 -3 0 -1300z m-2058
-2227 c-1 -645 -2 -120 -2 1167 0 1287 1 1815 2 1173 2 -641 2 -1694 0 -2340z
m14595 3357 c11 -4 12 -605 8 -3559 -3 -1955 -7 -3557 -10 -3559 -3 -3 -30 1
-60 9 -57 16 -153 36 -250 54 -30 6 -94 18 -142 27 l-88 16 0 3502 c0 1926 3
3505 7 3508 7 8 515 10 535 2z m-8510 -433 l27 -11 -34 -57 c-19 -31 -39 -80
-46 -109 -11 -51 -14 -54 -53 -63 -23 -6 -62 -14 -87 -17 l-46 -7 -7 37 c-10
54 3 141 28 178 42 63 133 83 218 49z m274 2 c52 -25 100 -88 131 -173 24 -66
28 -90 28 -186 0 -100 -3 -115 -27 -161 -31 -58 -93 -116 -152 -142 -140 -60
-166 -90 -166 -186 0 -34 9 -302 19 -596 14 -400 16 -537 7 -542 -13 -9 -73
-10 -113 -2 l-30 6 -7 356 c-7 376 -22 768 -32 840 -8 66 -31 76 -188 80 -148
5 -167 12 -225 90 -36 47 -71 128 -71 162 0 72 58 103 230 125 69 8 156 22
194 30 73 15 87 11 80 -24 -11 -60 -18 -74 -45 -106 -39 -44 -106 -65 -205
-65 -75 0 -89 -6 -78 -34 8 -21 141 -22 209 -1 27 8 50 13 50 12 1 -1 10 -22
21 -47 20 -48 68 -100 91 -100 28 0 26 31 -5 63 -49 51 -66 114 -38 143 19 18
22 18 59 -8 37 -27 117 -30 162 -8 50 26 84 86 91 161 4 37 3 88 0 113 -6 41
-10 47 -29 44 -20 -3 -22 -9 -22 -98 -2 -128 -20 -162 -101 -185 -29 -8 -74
11 -93 38 -15 20 -21 76 -21 181 0 44 38 134 72 170 33 34 97 65 136 66 19 0
49 -7 68 -16z m-536 -14 c0 -6 -8 -23 -17 -37 -14 -21 -18 -48 -18 -124 l0
-97 -74 -11 c-41 -6 -76 -10 -78 -8 -8 9 -15 108 -9 139 6 33 72 114 111 136
25 14 85 16 85 2z m4154 -176 c271 -80 390 -134 296 -134 -23 0 -31 -5 -35
-23 -4 -13 -5 -30 -3 -38 2 -8 -4 -13 -13 -11 -21 3 -301 107 -328 122 -26 14
-27 26 -1 33 31 8 24 34 -15 53 -31 14 -47 34 -28 34 4 0 61 -16 127 -36z
m-8792 -48 c15 -11 16 -18 7 -43 -5 -17 -9 -53 -7 -79 3 -42 6 -49 26 -52 20
-3 22 0 22 48 0 93 45 140 134 140 54 0 140 -31 177 -62 71 -62 91 -162 46
-229 -27 -41 -69 -58 -92 -39 -14 11 -13 16 5 47 26 45 26 65 -1 61 -27 -4
-57 -43 -65 -85 -5 -26 -1 -36 22 -58 16 -15 43 -41 60 -57 42 -39 59 -101 45
-155 -17 -61 -97 -130 -195 -167 l-78 -30 6 -65 c4 -37 18 -230 31 -431 30
-438 51 -746 65 -935 5 -77 17 -243 26 -370 8 -126 21 -306 28 -398 6 -92 9
-171 6 -176 -4 -6 -94 -41 -105 -41 -3 0 -24 200 -30 285 -6 89 -79 994 -95
1175 -5 63 -14 176 -20 250 -6 74 -15 187 -20 250 -5 63 -14 174 -20 245 -6
72 -13 154 -16 183 l-5 52 -69 0 c-105 0 -207 54 -255 136 -81 138 -85 383 -8
443 39 31 50 26 56 -25 5 -49 27 -81 47 -69 8 5 9 23 5 56 -6 39 -3 55 15 86
47 84 199 150 252 109z m9342 -661 c126 -84 209 -228 268 -466 19 -79 23 -121
23 -259 0 -142 -3 -178 -24 -260 -63 -246 -200 -400 -344 -388 -73 6 -137 39
-199 104 -79 83 -79 82 -50 193 22 83 26 118 26 256 1 217 -33 375 -114 520
l-32 57 36 72 c34 67 69 112 128 164 41 37 95 53 164 48 51 -3 72 -10 118 -41z
m-701 -66 c123 -62 236 -209 296 -386 56 -162 74 -371 46 -529 -19 -109 -68
-248 -111 -316 -40 -61 -126 -142 -181 -170 -69 -33 -198 -33 -271 1 -29 14
-52 28 -52 33 0 4 -7 8 -15 8 -8 0 -15 3 -16 8 0 4 -1 41 -3 82 -1 45 -9 88
-19 106 -24 46 -95 104 -144 117 -51 13 -65 42 -94 190 -70 359 53 739 275
854 89 45 201 46 289 2z m-4102 -990 c237 -95 413 -109 649 -52 177 42 280 23
347 -64 46 -62 51 -112 22 -252 -18 -89 -24 -148 -24 -251 l0 -135 44 -100
c67 -152 65 -222 -11 -384 -74 -158 -75 -364 -4 -542 35 -87 33 -125 -11 -244
-31 -87 -36 -112 -36 -190 0 -72 5 -104 25 -160 69 -186 75 -274 29 -415 -69
-209 -68 -298 9 -535 48 -150 51 -165 46 -233 -4 -48 -22 -121 -52 -210 -60
-180 -64 -219 -30 -316 14 -42 31 -107 36 -144 23 -158 4 -447 -34 -520 -22
-42 -37 -42 -238 9 -228 57 -313 58 -493 6 -203 -59 -248 -59 -460 -3 -190 51
-333 53 -410 6 -80 -49 -220 -46 -451 12 -112 28 -146 32 -254 32 -188 -1
-338 -28 -454 -84 -92 -44 -163 -54 -299 -41 -62 6 -255 11 -428 11 -246 0
-362 4 -534 21 -121 12 -222 23 -224 25 -2 1 5 38 14 81 24 106 17 228 -18
303 -44 97 -76 186 -88 241 -17 77 -6 194 22 254 22 45 24 64 24 185 0 151 -7
184 -96 460 -44 136 -51 169 -56 268 -3 62 0 179 6 260 l13 147 -26 65 c-13
36 -41 101 -60 145 -20 44 -43 113 -52 152 -17 77 -17 82 22 318 10 65 14 129
10 182 -5 86 -19 122 -112 296 -50 95 -62 170 -41 267 9 41 23 100 32 130 19
69 19 140 0 215 -19 72 -60 173 -96 235 -83 144 -109 288 -72 400 16 50 21 55
50 58 18 2 104 -9 190 -24 173 -30 340 -36 408 -15 22 7 87 36 144 64 103 51
105 52 195 51 69 -1 128 -10 245 -38 168 -41 193 -41 297 -6 126 44 298 62
374 40 81 -23 222 -42 325 -43 111 0 170 10 298 54 91 30 190 26 343 -16 199
-55 273 -50 544 30 93 27 203 44 255 38 28 -3 93 -23 146 -44z m-3865 -136
c-15 -59 -18 -194 -7 -240 7 -27 45 -115 86 -198 112 -227 126 -311 75 -475
-52 -169 -40 -239 83 -476 65 -126 69 -189 26 -439 -31 -176 -19 -255 67 -442
62 -136 64 -147 52 -289 -5 -71 -8 -187 -5 -259 4 -119 9 -141 46 -255 73
-217 103 -345 108 -460 5 -97 3 -111 -22 -175 -54 -140 -44 -299 30 -461 69
-152 80 -242 44 -391 l-12 -53 -46 0 c-25 0 -147 6 -271 14 -124 8 -300 18
-391 21 l-167 7 -6 31 c-17 85 -17 201 0 347 25 207 23 270 -12 356 -15 38
-39 89 -54 115 -41 68 -96 187 -119 257 -25 74 -28 222 -6 322 23 104 19 161
-13 217 -44 77 -99 203 -116 270 -23 87 -20 150 10 234 18 50 26 92 26 135 0
56 -7 74 -70 200 -39 77 -78 159 -87 184 -61 166 -59 152 -60 370 l-1 205 -48
115 c-64 152 -89 242 -82 303 6 56 35 108 68 124 13 6 49 23 81 38 34 16 81
50 112 81 l53 54 6 -57 c23 -224 28 -335 18 -342 -22 -13 -52 -123 -52 -189 0
-50 6 -78 26 -118 l26 -53 -36 -32 c-20 -17 -48 -51 -61 -74 l-25 -42 16 -83
c47 -247 165 -496 291 -612 110 -100 252 -111 334 -25 75 80 109 285 89 547
-18 241 -36 336 -71 374 -23 24 -23 33 -4 80 59 140 24 417 -58 470 -42 28
-114 31 -186 7 -35 -12 -64 -21 -66 -19 -3 3 -25 301 -25 334 0 13 10 25 28
33 88 40 146 106 203 231 48 107 74 146 121 180 51 37 62 38 54 3z m7591 -403
c87 -82 252 -148 425 -171 l96 -13 5 -36 c13 -85 19 -180 11 -180 -5 0 -41 -5
-81 -10 -60 -8 -80 -6 -125 9 -30 10 -87 24 -128 31 -41 7 -93 22 -114 33 -93
46 -202 87 -218 81 -14 -4 -20 6 -33 50 -22 76 -43 180 -38 189 2 4 16 7 31 8
15 0 47 8 72 19 60 24 60 24 97 -10z m1243 -95 c0 -52 -5 -116 -11 -143 -9
-45 -13 -50 -43 -55 -18 -3 -63 -17 -99 -32 -37 -14 -89 -30 -117 -34 -63 -10
-64 -8 -75 130 l-7 96 79 27 c79 28 144 55 217 91 23 12 44 19 49 17 4 -2 7
-45 7 -97z m-375 -97 c3 -29 7 -78 8 -108 l2 -55 -115 -11 c-188 -19 -187 -19
-194 19 -3 17 -8 62 -12 98 l-6 66 88 7 c49 4 114 13 144 20 80 20 78 21 85
-36z m-922 -111 c29 -13 77 -34 108 -47 l55 -25 -4 -80 c-2 -44 -6 -82 -8 -84
-5 -5 -93 66 -122 98 -39 43 -102 143 -96 152 7 12 9 12 67 -14z m1261 -39
c-28 -93 -97 -198 -128 -198 -16 0 -33 157 -19 171 11 11 113 47 136 48 15 1
17 -4 11 -21z m-8941 -48 c63 -50 94 -234 62 -376 -9 -43 -21 -84 -26 -90 -5
-6 -54 -9 -126 -9 l-118 2 -7 119 c-4 65 -11 163 -16 217 -4 54 -5 102 -2 108
12 19 105 48 156 49 37 0 59 -6 77 -20z m8761 -22 c3 -18 8 -63 12 -99 l6 -66
-58 -21 c-61 -22 -160 -48 -204 -54 l-25 -3 -3 117 -3 116 33 8 c34 7 191 31
219 33 11 1 19 -10 23 -31z m-709 -13 l70 -23 7 -99 c3 -54 4 -100 2 -102 -10
-10 -128 22 -193 51 -59 26 -70 35 -75 61 -9 44 -7 92 4 122 10 26 13 27 63
21 28 -4 84 -18 122 -31z m1860 -1274 c-19 -18 -85 92 -172 285 -72 162 -93
214 -93 232 0 17 15 55 79 197 30 66 116 331 152 467 l34 128 3 -652 c1 -358
0 -654 -3 -657z m-1454 1159 c4 -63 5 -117 2 -120 -9 -9 -228 -12 -263 -3
l-35 9 0 110 0 109 120 5 c66 3 131 5 145 5 25 0 25 -1 31 -115z m-3325 -602
l-1 -523 -50 0 -50 0 3 35 c2 19 19 81 38 137 43 128 44 177 4 280 -55 140
-63 304 -21 425 21 61 69 168 75 168 2 0 3 -235 2 -522z m-5572 385 c4 -54 9
-119 12 -145 3 -27 2 -48 -3 -48 -15 0 -53 84 -59 132 -7 47 18 158 35 158 5
0 12 -44 15 -97z m421 -164 c22 -6 47 -20 56 -30 49 -57 79 -533 44 -699 -25
-121 -59 -170 -130 -189 -164 -43 -356 199 -450 568 -36 143 -34 158 22 214
103 103 331 171 458 136z m-1698 -721 c-3 -8 -6 -5 -6 6 -1 11 2 17 5 13 3 -3
4 -12 1 -19z m1160 -90 c64 -125 67 -155 29 -268 -48 -140 -28 -270 74 -476
66 -133 70 -156 45 -259 -19 -79 -19 -245 0 -320 8 -33 57 -143 107 -245 50
-102 95 -205 99 -230 4 -27 1 -91 -8 -160 -14 -101 -21 -379 -11 -449 4 -28
30 -27 -407 -11 -137 5 -433 12 -657 16 l-406 7 -4 31 c-1 17 -1 563 2 1213 5
1167 5 1182 25 1197 24 19 111 46 180 56 27 4 236 7 464 6 l414 -1 54 -107z
m6430 -4 l282 -7 57 -151 c60 -161 80 -211 95 -238 19 -36 7 -93 -52 -266 -69
-199 -121 -383 -145 -517 -22 -121 -22 -337 -1 -434 16 -71 16 -75 -3 -100
-35 -50 -87 -165 -118 -261 -125 -391 -118 -800 18 -1085 53 -112 102 -180
202 -284 l87 -90 -42 -5 c-23 -3 -98 -7 -167 -8 l-125 -3 3 26 c5 44 -26 169
-54 217 -44 74 -99 127 -164 156 -182 82 -332 49 -424 -94 -46 -70 -60 -141
-52 -252 l6 -88 -80 0 c-43 0 -81 4 -84 9 -3 5 -6 344 -6 755 l-1 745 -25 98
c-53 205 -53 177 -6 320 90 275 91 308 16 533 -46 139 -48 149 -48 260 1 104
3 123 32 196 17 45 35 115 41 156 14 104 4 160 -63 343 -8 22 -15 51 -16 64
l0 24 278 -6 c152 -4 404 -10 559 -13z m4686 -44 c77 -11 162 -27 190 -35 186
-49 315 -132 358 -230 70 -159 126 -633 149 -1276 10 -292 20 -420 44 -566 7
-46 10 -83 7 -83 -17 0 -423 -70 -430 -75 -5 -2 -11 33 -15 78 -4 45 -13 114
-21 153 l-15 71 29 59 c50 100 72 199 72 326 1 219 -49 349 -227 598 -37 52
-87 120 -111 150 -25 30 -50 62 -56 70 -28 35 -283 346 -292 356 -59 64 -315
412 -315 428 0 17 481 -1 633 -24z m-12276 -1757 c-1 -318 -2 -58 -2 577 0
635 1 895 2 578 2 -318 2 -838 0 -1155z m7899 49 c127 -115 476 -303 769 -414
630 -238 1253 -352 1830 -335 726 22 1393 165 1883 405 62 30 115 53 117 50 2
-2 7 -22 11 -44 5 -37 3 -43 -27 -67 -19 -15 -40 -32 -46 -37 -30 -24 -206
-112 -293 -145 -52 -20 -105 -40 -116 -45 -124 -50 -437 -127 -674 -164 -592
-95 -1284 -82 -1845 34 -55 11 -136 28 -180 36 -285 56 -697 189 -942 304
-194 91 -394 218 -498 317 -55 52 -57 57 -38 92 21 36 23 37 49 13z m-23 -165
c188 -160 425 -292 727 -403 52 -19 111 -41 130 -49 57 -22 263 -81 435 -124
352 -88 683 -138 1096 -167 l85 -5 12 -79 c12 -86 55 -186 100 -233 63 -66
166 -85 245 -46 23 12 98 56 167 98 130 81 214 121 250 121 27 0 110 -42 133
-68 28 -31 15 -54 -82 -154 -74 -78 -123 -140 -134 -172 -2 -5 -30 3 -63 18
-96 45 -229 85 -389 117 -181 36 -226 34 -91 -3 54 -16 168 -53 254 -83 378
-134 480 -222 490 -425 3 -69 0 -95 -17 -140 -30 -77 -39 -90 -51 -69 -13 22
-139 178 -165 205 -11 11 -36 40 -55 64 -19 24 -47 56 -62 70 -29 28 -28 40 4
40 11 0 18 7 18 20 0 29 -35 35 -190 35 -147 -1 -229 -12 -360 -51 -81 -24
-239 -91 -250 -106 -3 -3 -16 -9 -30 -13 -21 -5 -27 -1 -39 27 -21 49 -91 133
-133 160 -21 12 -38 26 -38 29 0 13 -159 80 -234 99 -149 38 -244 22 -273 -47
-14 -33 -14 -52 -4 -149 20 -201 11 -267 -39 -294 -28 -15 -81 12 -126 63 -39
46 -74 145 -74 211 -1 65 -18 171 -36 216 -32 79 -115 90 -220 30 -132 -76
-214 -235 -231 -448 l-6 -83 -56 7 c-121 15 -271 86 -394 186 -62 51 -275 261
-312 308 -31 40 -89 141 -109 190 -10 25 -22 54 -27 65 -22 50 -48 180 -59
283 -22 228 14 499 98 730 15 39 30 72 35 72 5 0 37 -24 70 -53z m4652 -437
c-9 -137 -34 -253 -96 -436 -68 -202 -65 -192 -46 -174 8 8 41 66 72 128 30
61 58 112 60 112 2 0 59 -20 125 -45 255 -95 477 -210 514 -267 27 -41 40
-111 30 -158 l-9 -42 -35 31 c-19 17 -43 33 -53 37 -14 4 -16 12 -11 40 l6 34
-68 0 c-138 0 -349 -79 -489 -182 -309 -228 -438 -578 -300 -813 37 -64 89
-59 55 6 -6 10 -7 19 -3 19 15 0 203 -73 203 -79 0 -11 -63 -40 -112 -52 -166
-40 -563 100 -751 264 -31 27 -26 35 33 59 52 22 165 97 250 166 162 132 168
144 22 48 -214 -140 -407 -229 -542 -248 -93 -14 -125 -7 -145 32 -14 28 -14
33 9 77 34 69 49 147 45 240 l-4 81 150 5 c110 3 171 10 230 26 112 31 222 87
259 134 29 36 31 44 31 121 0 80 -1 83 -51 171 -29 50 -59 104 -68 122 -17 33
-21 90 -8 109 10 15 47 34 68 34 30 0 97 -38 153 -85 142 -121 241 -114 308
22 27 57 28 62 27 223 0 140 -3 175 -21 228 l-21 63 40 20 c23 12 62 36 87 54
l46 34 8 -27 c4 -15 5 -74 2 -132z m872 45 c153 -19 319 -42 368 -50 50 -8
162 -26 250 -40 213 -35 447 -82 514 -103 35 -11 56 -23 59 -35 3 -10 8 -14
11 -9 8 13 4 -3937 -4 -4004 l-6 -51 -132 -7 c-73 -3 -386 -15 -697 -26 -976
-34 -1128 -39 -1385 -50 -137 -5 -446 -17 -685 -25 -505 -17 -596 -20 -1100
-40 -206 -8 -512 -19 -680 -25 -168 -6 -489 -17 -715 -25 -496 -18 -865 -31
-1245 -45 -273 -10 -661 -24 -970 -35 -80 -3 -332 -12 -560 -20 -228 -9 -588
-22 -800 -30 -212 -8 -461 -17 -555 -20 -228 -7 -637 -22 -1110 -40 -214 -8
-525 -19 -690 -25 -165 -5 -343 -12 -396 -15 -117 -6 -191 7 -277 48 -105 50
-205 167 -227 265 l-6 30 73 6 c40 3 156 8 258 11 102 3 316 10 475 15 160 6
502 17 760 25 259 8 664 22 900 30 237 8 639 21 895 29 256 9 524 18 595 21
215 8 462 16 1970 65 336 10 741 24 900 30 377 14 1631 56 2540 85 248 8 511
17 585 20 118 5 600 21 1670 55 168 5 373 12 457 16 l151 6 5 -23 c2 -13 4 -4
4 21 1 25 -1 37 -4 28 -4 -15 -16 -18 -66 -18 -34 0 -258 -7 -497 -15 -239 -8
-712 -24 -1050 -35 -704 -23 -1117 -36 -1510 -50 -151 -6 -552 -19 -890 -30
-886 -28 -1476 -48 -1785 -60 -148 -5 -421 -14 -605 -20 -184 -6 -526 -17
-760 -25 -234 -8 -506 -17 -605 -20 -99 -3 -297 -10 -440 -15 -143 -6 -478
-17 -745 -25 -267 -8 -548 -17 -625 -20 -320 -12 -1738 -59 -2441 -81 l-221
-7 -6 84 c-4 46 -7 262 -7 479 0 789 -30 2482 -50 2802 -11 180 -39 240 -150
314 -243 163 -850 249 -1635 231 -277 -7 -375 2 -452 40 l-38 18 0 123 c0 121
0 123 24 129 36 9 988 -14 1566 -37 858 -35 1548 -103 1845 -181 136 -36 186
-63 222 -121 57 -91 60 -267 8 -548 -98 -535 -102 -787 -16 -957 49 -98 153
-172 291 -208 33 -9 123 -25 200 -36 280 -41 1156 -35 1750 11 244 19 730 60
895 76 177 16 321 13 514 -12 204 -26 1378 -48 3491 -65 655 -6 1246 -12 1315
-15 108 -4 142 -2 255 21 505 103 612 110 817 59 139 -35 280 -48 448 -41 212
9 351 38 399 86 35 34 65 134 85 283 47 352 43 1239 -5 1334 -22 43 -168 78
-589 138 -295 43 -797 101 -918 108 -24 1 -45 5 -48 10 -8 13 8 157 20 172 10
13 104 31 466 89 50 8 74 6 347 -28z m-1061 -59 c21 -60 37 -205 31 -286 -12
-179 -101 -284 -198 -235 -19 10 -62 40 -96 66 -97 76 -123 89 -176 89 -40 0
-54 -5 -78 -29 -43 -44 -39 -87 16 -186 109 -194 121 -241 83 -315 -61 -119
-289 -190 -585 -182 l-63 2 -21 43 c-25 49 -86 112 -147 152 -34 22 -41 32
-36 49 9 31 43 72 126 156 83 84 98 106 98 148 0 34 -26 60 -97 96 -48 24 -57
25 -100 16 -64 -14 -97 -30 -225 -111 -121 -77 -189 -113 -231 -123 -119 -29
-256 140 -257 317 l0 37 153 0 c492 0 1035 78 1432 206 115 38 265 95 312 119
37 19 44 16 59 -29z m-12329 -48 c-3 -8 -6 -5 -6 6 -1 11 2 17 5 13 3 -3 4
-12 1 -19z m14600 -20 c-3 -7 -5 -2 -5 12 0 14 2 19 5 13 2 -7 2 -19 0 -25z
m-10067 -29 c31 -7 50 -16 50 -25 0 -8 -3 -14 -7 -14 -5 0 -33 -22 -64 -48
-30 -26 -70 -58 -89 -72 -18 -14 -49 -40 -69 -57 -20 -18 -42 -33 -49 -33 -8
0 -59 25 -115 57 -56 31 -123 68 -149 82 -27 14 -48 29 -48 34 0 24 161 63
316 76 146 12 168 12 224 0z m845 -14 c44 -6 142 -29 230 -54 17 -5 43 -12 60
-16 29 -6 28 -7 -39 -46 -37 -21 -72 -39 -77 -39 -5 0 -9 -3 -9 -7 0 -9 -49
-33 -67 -33 -7 0 -13 4 -13 8 0 5 -12 15 -27 23 -16 8 -30 16 -33 19 -3 3 -49
34 -102 70 -54 36 -98 68 -98 72 0 8 65 16 100 12 14 -1 48 -6 75 -9z m1085
-35 c167 -43 248 -50 274 -24 9 8 16 14 16 12 0 -2 3 -64 6 -139 6 -134 6
-137 -17 -153 -21 -14 -101 -16 -835 -16 l-812 0 -26 34 c-14 19 -26 40 -26
47 0 6 17 44 39 83 63 115 76 136 84 136 4 0 75 -45 158 -100 83 -55 156 -100
162 -99 7 0 26 9 42 19 17 10 41 25 55 33 14 7 69 39 122 70 68 39 115 59 159
67 35 7 83 18 107 26 189 65 256 65 492 4z m-6473 -82 c-2 -24 -4 -5 -4 42 0
47 2 66 4 43 2 -24 2 -62 0 -85z m4861 65 c93 -14 126 -15 180 -5 71 12 81 10
64 -10 -5 -7 -22 -35 -38 -63 -15 -27 -38 -67 -51 -87 l-23 -38 -73 0 -73 0
-72 109 c-40 59 -72 111 -72 116 0 4 10 4 23 1 12 -4 73 -14 135 -23z m-154
-86 c33 -50 63 -94 66 -97 4 -3 12 -15 19 -27 9 -18 7 -30 -11 -68 l-22 -45
-501 0 -501 0 -13 44 c-17 58 -69 118 -126 145 -25 12 -105 37 -178 55 l-132
34 115 1 c63 0 169 -4 235 -10 86 -7 143 -7 203 1 l83 11 50 -31 c27 -16 51
-30 54 -30 2 0 30 -15 62 -33 32 -19 92 -52 133 -75 l76 -41 74 60 c41 34 86
71 100 82 14 12 41 34 60 48 19 15 46 36 59 48 13 11 27 21 30 21 3 0 33 -42
65 -93z m8021 3 c61 -6 166 -18 235 -26 69 -8 148 -17 175 -20 258 -30 637
-86 774 -114 148 -30 167 -39 175 -86 14 -88 27 -535 22 -759 -10 -380 -50
-715 -86 -715 -4 0 -47 22 -96 48 -49 27 -138 74 -199 106 -138 73 -139 73
-124 115 18 51 -7 143 -87 319 -13 29 -24 55 -24 59 0 3 -23 51 -51 106 -54
106 -105 181 -177 260 -31 34 -42 53 -37 65 29 68 10 199 -35 254 -69 83 -265
183 -600 305 -59 22 -67 34 -50 77 9 25 14 27 43 22 17 -3 82 -10 142 -16z
m-12570 -184 c74 -13 135 -15 345 -10 446 11 980 -25 1245 -85 189 -42 339
-105 408 -169 66 -62 78 -97 87 -269 15 -251 29 -927 40 -1908 14 -1167 16
-1415 11 -1415 -11 0 -129 32 -146 40 -11 5 -83 27 -160 50 -174 51 -275 81
-435 130 -69 21 -141 41 -160 45 -19 4 -41 11 -50 16 -8 5 -78 27 -155 49 -77
22 -176 52 -220 65 -84 27 -420 128 -565 171 -47 14 -126 39 -177 55 -50 16
-115 34 -143 40 -28 6 -53 16 -56 22 -2 7 -5 729 -7 1605 l-2 1594 25 -5 c14
-3 66 -12 115 -21z m4877 -30 c18 -24 39 -52 46 -62 6 -11 44 -63 82 -117 39
-54 70 -101 70 -105 0 -4 -14 -13 -31 -21 -43 -19 -97 -73 -114 -115 -8 -19
-18 -59 -21 -90 -5 -41 -12 -59 -28 -70 -11 -7 -34 -26 -51 -40 -39 -34 -64
-41 -78 -23 -31 40 -167 197 -204 237 -24 25 -43 50 -43 56 0 15 18 54 113
242 l77 152 75 0 74 0 33 -44z m-5035 -2313 c-1 -433 -2 -81 -2 782 0 864 1
1218 2 788 2 -430 2 -1136 0 -1570z m6775 1855 c2 -227 1 -416 -2 -420 -5 -7
-184 51 -220 71 -8 4 -16 23 -17 42 -12 193 -50 276 -148 328 -93 48 -245 34
-479 -46 -72 -24 -138 -47 -147 -49 -11 -4 -19 6 -28 38 -29 96 -108 208 -146
208 -11 0 -15 11 -15 39 0 23 -8 48 -19 62 -19 23 -25 24 -183 27 l-163 3 -27
39 c-16 21 -28 43 -28 49 0 8 234 12 803 14 441 1 805 3 809 5 4 1 9 -184 10
-410z m-2052 372 c0 -5 -10 -30 -22 -55 l-22 -45 -218 0 -219 0 -26 -26 c-23
-23 -25 -31 -21 -85 6 -88 7 -88 235 -89 l191 0 59 -67 c32 -38 60 -70 63 -73
3 -3 25 -30 50 -60 24 -30 63 -76 87 -102 l43 -47 61 47 c106 82 94 79 120 25
14 -28 62 -87 116 -141 52 -53 93 -102 93 -113 0 -18 -11 -19 -304 -19 -277 0
-310 2 -370 20 -36 11 -68 24 -70 29 -3 5 -10 41 -16 81 -21 149 -83 275 -165
338 -109 83 -283 62 -558 -66 -53 -25 -99 -43 -101 -41 -7 7 16 133 27 147 6
8 40 12 105 12 124 0 132 7 132 103 0 100 -8 107 -127 107 l-93 0 0 65 0 65
475 0 c289 -1 475 -4 475 -10z m808 -112 c5 -7 12 -24 14 -37 l3 -23 -133 -2
-133 -2 -17 28 c-9 15 -20 28 -24 28 -4 0 -8 5 -8 10 0 16 285 13 298 -2z
m-892 -67 c-47 -103 -31 -96 -217 -94 -91 1 -173 5 -182 9 -13 5 -17 18 -17
58 0 29 5 57 12 64 9 9 71 12 220 12 l207 0 -23 -49z m-680 15 c16 -22 16
-108 0 -129 -12 -15 -27 -17 -107 -15 l-94 3 3 65 c5 101 0 95 99 93 64 -2 91
-7 99 -17z m3462 -13 l57 -27 -61 -5 c-66 -6 -95 -24 -121 -74 -23 -45 -27
-188 -9 -306 20 -133 20 -210 0 -312 -22 -106 -15 -114 91 -114 55 1 75 -3 75
-12 0 -7 -11 -13 -25 -13 -38 0 -89 -24 -119 -56 -42 -44 -77 -110 -78 -143
-1 -41 -19 -40 -97 7 -70 42 -179 146 -187 177 -2 11 4 49 14 85 18 62 20 65
63 80 84 30 119 51 121 74 3 46 -5 73 -32 114 -49 75 -75 165 -75 267 0 78 4
97 28 147 53 109 124 152 235 142 38 -3 86 -15 120 -31z m-2001 -82 c-20 -22
-41 -59 -47 -82 -13 -49 -1 -110 56 -288 72 -223 89 -307 72 -356 -4 -11 -3
-27 2 -35 11 -17 69 -17 111 1 25 10 33 10 45 -3 14 -14 12 -18 -20 -37 -19
-12 -44 -37 -55 -54 -24 -40 -43 -147 -34 -200 l6 -40 -39 8 c-21 4 -89 10
-150 14 -101 6 -116 10 -148 34 -20 16 -41 37 -47 49 -14 27 -6 100 18 156 15
36 28 48 73 70 67 33 91 66 98 132 8 81 -11 119 -102 207 -104 101 -138 163
-138 248 0 64 15 100 57 138 43 38 157 74 239 76 l38 1 -35 -39z m182 -18 c37
-39 52 -66 78 -143 37 -109 58 -243 48 -314 -19 -150 -103 -276 -182 -276 -18
0 -19 6 -15 54 5 66 -4 109 -79 346 -33 102 -59 203 -59 225 1 51 26 97 70
130 52 39 85 33 139 -22z m1912 21 c43 -21 55 -34 77 -82 56 -120 36 -328 -49
-499 -64 -127 -107 -160 -200 -151 l-34 3 5 50 c5 52 5 218 -1 465 -4 165 4
199 54 224 46 22 91 20 148 -10z m5493 -6 c51 -29 47 -26 132 -96 159 -134
253 -286 378 -612 62 -161 51 -203 -69 -259 -101 -48 -153 -56 -350 -55 -156
1 -197 4 -308 28 -118 25 -292 81 -474 153 -59 23 -74 33 -83 57 -14 40 -12
141 4 201 40 153 178 342 315 434 20 14 38 28 41 31 13 18 146 82 226 109 107
37 134 38 188 9z m-3962 -5 c24 -28 37 -80 48 -203 11 -119 28 -183 63 -235
88 -131 202 -140 236 -19 14 50 14 86 0 209 -7 55 -9 121 -5 146 8 57 30 69
124 69 174 -1 376 -100 476 -234 50 -67 56 -94 25 -118 -181 -141 -270 -320
-256 -512 10 -137 46 -208 81 -160 10 13 19 12 76 -14 36 -16 120 -49 187 -73
68 -24 123 -47 123 -50 0 -29 -230 -48 -348 -29 -131 21 -369 122 -532 226
-79 50 -194 141 -301 236 -188 167 -246 205 -341 222 l-38 7 0 65 c0 167 69
333 175 420 75 61 175 84 207 47z m-2718 -112 c80 -19 141 -114 155 -242 6
-62 5 -69 -10 -69 -22 0 -310 97 -321 108 -8 8 44 62 60 62 5 0 17 9 27 20 23
25 8 45 -27 37 -59 -15 -131 -98 -158 -181 -27 -83 6 -318 47 -333 29 -11 35
12 19 68 -9 29 -16 56 -16 60 0 4 30 -1 68 -12 37 -11 96 -29 132 -39 36 -10
79 -24 94 -30 l28 -10 -23 -24 c-65 -63 -159 -116 -208 -116 -61 0 -233 61
-414 147 -44 20 -44 26 -12 138 17 58 16 165 -1 261 -5 25 -2 32 13 37 10 3
43 15 73 27 70 27 160 55 230 70 30 7 69 16 85 21 42 10 113 10 159 0z m-2023
-16 c80 -27 130 -92 172 -225 25 -77 40 -160 29 -160 -8 0 -316 102 -321 107
-9 7 32 41 69 58 25 11 40 25 40 36 0 29 -17 31 -64 11 -60 -27 -120 -84 -158
-150 -28 -50 -32 -65 -32 -137 -1 -119 42 -221 78 -185 6 6 4 27 -7 63 -19 60
-22 97 -8 97 9 0 277 -93 338 -116 22 -9 22 -9 -10 -45 -69 -78 -182 -129
-283 -129 -66 0 -158 35 -269 103 -44 27 -82 52 -85 56 -3 4 -21 18 -40 31
-19 14 -44 32 -54 42 -11 10 -24 18 -29 18 -13 0 0 121 26 254 l22 109 110 50
c267 120 376 146 476 112z m6487 -103 c45 -47 130 -142 160 -180 19 -22 43
-51 54 -64 43 -49 147 -186 191 -253 26 -38 51 -75 56 -82 26 -31 43 -116 39
-191 -7 -120 -51 -188 -153 -233 -98 -44 -361 -36 -595 17 -236 55 -448 120
-579 180 -42 19 -93 43 -113 52 -34 16 -38 21 -44 72 -10 78 8 184 45 262 112
241 477 425 864 436 43 2 61 -2 75 -16z m-2708 -89 c14 -9 27 -20 30 -23 3 -3
21 -17 40 -30 19 -14 43 -31 52 -40 34 -31 155 -97 215 -118 35 -12 100 -28
145 -36 117 -21 168 -33 208 -50 33 -13 115 -71 150 -105 186 -182 370 -316
579 -421 136 -69 177 -84 291 -113 l85 -22 -140 -3 c-191 -4 -1986 27 -2210
38 -99 5 -234 16 -300 24 -160 20 -254 20 -507 -4 -563 -51 -638 -58 -1013
-82 -410 -27 -1269 -33 -1460 -10 -363 42 -483 101 -553 268 -40 96 -60 334
-28 334 8 0 16 -4 18 -8 2 -4 26 -23 53 -42 28 -19 52 -38 55 -41 11 -14 120
-79 185 -110 66 -32 76 -34 175 -34 99 1 109 2 174 35 43 22 94 59 133 97 l62
62 188 -66 c429 -150 395 -135 420 -183 44 -83 78 -100 223 -111 295 -24 285
-24 321 2 48 33 55 41 81 90 43 82 22 225 -42 289 -16 16 -19 25 -11 33 7 7
42 -4 118 -40 177 -84 276 -116 363 -117 98 -1 136 18 252 123 l48 44 57 -16
c168 -44 358 -109 367 -125 15 -28 116 -120 179 -164 103 -70 194 -97 264 -77
52 14 109 73 146 150 39 83 42 105 22 150 -18 39 -18 40 4 67 41 50 111 207
133 295 l21 87 46 1 c41 2 244 13 311 17 14 1 37 -6 50 -15z m-1031 -108 c23
-41 41 -83 41 -93 0 -14 -18 -26 -69 -46 l-69 -27 -59 19 -58 19 -8 79 c-12
125 -13 124 92 124 l89 0 41 -75z m-803 20 c70 -25 130 -47 132 -49 2 -2 -6
-22 -17 -45 -12 -22 -21 -49 -21 -61 0 -30 -14 -28 -190 30 -53 17 -55 20 -58
57 -3 34 13 113 23 113 2 0 61 -20 131 -45z m-1965 -86 c68 -23 125 -43 127
-44 2 -2 -27 -103 -32 -112 -1 -1 -53 16 -116 39 -63 22 -126 43 -140 47 -18
6 -25 14 -23 32 3 43 22 79 41 79 11 0 75 -19 143 -41z m2231 -5 c43 -14 78
-29 78 -32 -1 -12 -37 -112 -43 -118 -8 -9 -177 47 -178 60 -5 45 26 116 50
116 9 0 51 -12 93 -26z m209 -70 c41 -15 75 -27 76 -28 3 -2 -34 -106 -40
-112 -5 -5 -73 12 -165 42 -25 8 14 124 42 124 7 0 46 -12 87 -26z m-2173 -17
c51 -18 93 -37 93 -43 -1 -19 -35 -104 -41 -102 -3 2 -49 18 -102 37 l-96 33
10 37 c12 43 26 71 36 71 4 0 49 -15 100 -33z m2333 -38 c19 -7 35 -13 37 -14
5 -4 -20 -99 -28 -108 -4 -4 -28 -2 -54 5 -47 12 -47 13 -41 48 7 37 30 80 44
80 4 0 23 -5 42 -11z m-1588 -19 c17 0 17 -2 -3 -29 -12 -18 -41 -37 -74 -50
l-53 -20 -136 46 c-75 25 -135 49 -133 52 3 5 223 5 399 1z m-503 -27 c47 -15
87 -28 89 -30 4 -3 -27 -101 -34 -111 -1 -1 -29 7 -61 18 -33 12 -78 28 -101
36 -47 17 -50 25 -28 78 18 44 25 44 135 9z m231 -79 c57 -19 107 -38 111 -42
6 -7 -13 -96 -23 -106 -3 -3 -50 9 -105 28 -142 48 -133 43 -124 74 7 27 31
82 35 82 1 0 49 -16 106 -36z m6527 -11 c50 -43 62 -52 118 -90 244 -164 551
-253 725 -209 35 9 84 30 109 48 42 29 47 30 85 19 210 -61 397 -86 580 -78
148 6 246 29 328 75 l54 31 59 -31 c142 -73 377 -198 384 -205 27 -25 -232
-73 -394 -73 -127 0 -292 19 -396 45 -52 13 -124 27 -160 30 -88 9 -273 -10
-450 -46 -305 -62 -368 -71 -475 -65 -55 3 -296 9 -535 12 l-434 6 49 30 c104
65 145 145 145 281 -1 48 -7 98 -16 122 -30 78 -31 75 17 76 24 0 73 8 109 18
36 10 68 19 71 20 3 0 15 -7 27 -16z m-5837 -70 c41 -104 -24 -253 -110 -253
-26 0 -36 48 -26 128 14 115 107 199 136 125z m1757 19 c10 -7 9 -17 -2 -50
-38 -108 -129 -185 -190 -162 -32 12 -33 38 -7 95 21 44 53 82 91 108 26 18
86 23 108 9z m3007 -442 c76 -17 141 -33 144 -35 8 -8 -443 -4 -464 4 -16 6
-10 10 31 20 27 7 63 21 80 32 16 11 38 18 49 15 11 -3 83 -19 160 -36z
m-10366 -1580 c9 -4 126 -41 261 -80 135 -40 288 -86 340 -102 52 -16 124 -37
160 -48 36 -11 153 -46 260 -79 107 -32 274 -82 370 -111 96 -28 186 -55 200
-60 14 -4 57 -17 95 -29 39 -11 135 -40 215 -64 80 -24 176 -53 213 -63 74
-20 87 -34 102 -104 9 -39 41 -94 93 -159 27 -33 31 -42 16 -38 -10 3 -53 15
-94 26 -112 31 -656 187 -810 233 -135 39 -249 72 -305 88 -16 4 -97 28 -180
53 -82 25 -166 50 -185 55 -153 45 -282 83 -320 95 -25 9 -101 32 -170 52 -69
19 -170 49 -225 66 -55 17 -106 32 -112 35 -10 2 -13 37 -13 130 l0 126 36 -7
c20 -3 44 -10 53 -15z m-112 -167 c-2 -21 -4 -4 -4 37 0 41 2 58 4 38 2 -21 2
-55 0 -75z"/>
<path d="M5698 20073 c320 -2 844 -2 1165 0 320 1 58 2 -583 2 -641 0 -903 -1
-582 -2z"/>
<path d="M9788 15569 c-39 -22 -14 -69 37 -69 50 0 71 33 39 64 -18 18 -51 20
-76 5z"/>
<path d="M8110 15245 c-26 -32 13 -81 48 -59 34 22 22 74 -18 74 -10 0 -23 -7
-30 -15z"/>
<path d="M10397 15113 c-13 -12 -7 -42 11 -51 40 -21 97 26 60 49 -16 10 -62
12 -71 2z"/>
<path d="M9930 14705 c-85 -58 -179 -122 -208 -142 -60 -41 -82 -76 -72 -113
6 -22 11 -25 49 -23 36 2 41 0 31 -12 -16 -20 -17 -80 -1 -99 8 -9 22 -16 32
-16 18 0 127 60 151 83 7 7 29 24 48 37 19 13 37 27 40 30 3 3 21 17 40 30 51
36 68 50 127 104 43 40 53 55 53 81 0 38 -21 60 -50 52 -15 -4 -20 0 -20 13 0
24 -21 70 -31 70 -4 0 -13 2 -21 5 -7 3 -83 -42 -168 -100z m205 -45 l39 -5
-54 -46 c-133 -111 -334 -253 -351 -247 -5 2 2 19 16 38 47 64 25 99 -53 85
l-37 -6 50 36 c28 20 95 66 150 103 55 37 102 69 105 73 3 3 23 17 45 31 l40
25 5 -41 c5 -39 7 -41 45 -46z"/>
<path d="M11025 11599 c-97 -68 -163 -83 -320 -76 -66 4 -147 13 -180 22 -122
30 -97 6 50 -48 68 -25 95 -30 180 -30 109 -1 169 15 235 61 38 26 110 101
110 114 0 11 4 13 -75 -43z"/>
<path d="M11352 10028 c-7 -7 -12 -22 -12 -35 0 -44 80 -42 89 2 6 34 -51 59
-77 33z"/>
<path d="M12542 9328 c-32 -32 2 -67 54 -54 42 11 25 66 -21 66 -12 0 -26 -5
-33 -12z"/>
<path d="M10969 9034 c-18 -22 0 -48 37 -52 35 -5 58 22 43 49 -12 24 -61 25
-80 3z"/>
<path d="M12255 8781 c-26 -59 -60 -69 -132 -42 -31 12 -58 19 -60 17 -18 -18
61 -56 116 -56 20 0 47 7 59 16 25 17 65 88 55 98 -12 12 -20 5 -38 -33z"/>
<path d="M12375 8678 c-20 -44 -52 -80 -99 -112 -31 -21 -50 -26 -100 -26 -65
0 -152 26 -197 59 -38 28 -63 30 -67 6 -2 -14 11 -29 45 -51 170 -109 351 -83
444 64 34 54 38 92 9 92 -12 0 -25 -12 -35 -32z"/>
<path d="M11699 13243 c-10 -2 -19 -13 -22 -24 -7 -25 28 -63 50 -55 8 3 19 6
23 6 5 0 14 9 20 20 8 15 6 24 -10 40 -20 20 -29 22 -61 13z"/>
<path d="M10980 13627 c-44 -22 -65 -81 -64 -177 0 -132 41 -224 111 -251 117
-44 166 227 68 380 -37 60 -67 72 -115 48z"/>
<path d="M10388 13553 c-43 -49 -53 -86 -53 -193 0 -98 2 -109 30 -160 52 -95
119 -96 168 -1 22 45 27 67 27 131 0 144 -48 240 -120 240 -23 0 -43 -7 -52
-17z"/>
<path d="M5677 12724 c-4 -4 -7 -81 -7 -171 0 -122 -3 -164 -12 -167 -7 -2
-45 -12 -85 -23 -40 -11 -76 -17 -80 -14 -4 3 -35 61 -68 129 -42 86 -64 122
-77 122 -9 0 -20 -5 -23 -10 -4 -6 21 -67 54 -136 34 -68 61 -128 61 -132 0
-4 -21 -20 -48 -37 -102 -64 -195 -162 -250 -263 l-28 -51 -44 60 c-55 76
-146 159 -225 206 -33 20 -62 38 -64 40 -6 5 18 82 44 138 44 98 60 154 48
166 -23 23 -40 -2 -92 -140 -30 -77 -55 -141 -57 -141 -1 0 -32 7 -67 15 -36
8 -87 16 -113 18 l-49 3 -12 84 c-6 47 -14 115 -18 153 -6 57 -9 67 -26 67
-11 0 -22 -6 -25 -14 -3 -7 2 -73 10 -147 9 -73 13 -136 8 -139 -6 -6 -178
-50 -192 -50 -3 0 -36 61 -75 135 -49 95 -75 135 -87 135 -32 0 -20 -45 47
-173 l65 -124 -58 -39 c-216 -147 -343 -377 -359 -647 -3 -59 -9 -109 -13
-112 -3 -2 -37 -9 -74 -15 -65 -10 -216 -57 -253 -79 -27 -16 5 -14 53 3 86
30 233 49 328 42 176 -12 269 -86 270 -216 0 -97 -71 -191 -187 -249 -104 -51
-185 -60 -327 -36 l-35 6 32 -15 c18 -8 60 -20 93 -27 58 -11 60 -13 66 -48
22 -127 97 -394 154 -551 86 -234 269 -564 392 -708 144 -168 337 -323 490
-395 169 -78 266 -101 438 -101 146 0 199 10 345 66 231 89 451 283 558 493
78 154 182 507 228 774 18 107 21 152 16 298 -2 94 -1 175 3 180 5 4 15 28 23
53 l15 45 49 -3 c52 -3 164 18 228 43 22 8 29 13 15 10 -14 -3 -71 -8 -127
-12 -131 -8 -158 2 -167 60 -11 65 -43 114 -89 132 -39 16 -39 16 -33 56 21
134 134 207 321 209 85 2 95 3 65 12 -19 6 -71 8 -116 6 l-81 -4 -6 125 c-7
151 -30 239 -95 371 -39 81 -60 109 -142 190 -62 62 -117 107 -157 128 -35 18
-63 38 -63 44 0 9 21 57 95 223 23 51 23 70 -2 73 -17 3 -26 -4 -34 -25 -5
-15 -17 -41 -25 -58 -9 -16 -29 -64 -46 -105 -16 -41 -34 -80 -39 -86 -6 -7
-30 -7 -81 2 -40 7 -88 13 -105 14 l-33 0 -2 167 c-3 142 -5 168 -18 171 -9 1
-19 0 -23 -4z m233 -412 c108 -38 209 -98 268 -162 154 -166 221 -342 222
-582 l0 -86 -45 -22 c-56 -27 -112 -91 -126 -145 -17 -62 -23 -69 -69 -77 -87
-15 -157 -48 -306 -144 -120 -77 -340 -184 -380 -184 -45 0 -196 131 -254 222
l-37 57 23 93 c19 73 24 121 24 223 0 138 -11 205 -57 337 -26 76 -26 77 -8
115 68 144 210 282 349 336 126 50 285 57 396 19z m-1261 -48 c228 -56 413
-244 496 -504 33 -104 44 -278 25 -397 -14 -89 -65 -230 -106 -295 -148 -230
-398 -361 -629 -329 -134 19 -232 61 -334 144 -91 74 -93 78 -48 123 147 148
96 373 -98 433 -37 12 -83 21 -102 21 l-36 0 6 103 c8 159 51 289 140 420 43
65 149 173 178 182 11 4 19 10 19 14 0 12 126 68 190 85 74 20 218 20 299 0z
m1615 -1089 c53 -22 71 -57 71 -135 0 -148 -110 -269 -306 -334 -156 -52 -322
-65 -679 -53 -35 2 -45 -2 -48 -15 -5 -24 47 -35 203 -43 123 -6 381 13 428
31 23 9 22 -13 -2 -26 -11 -5 -26 -16 -33 -23 -19 -20 -94 -67 -158 -100 -178
-92 -406 -134 -670 -124 -176 7 -291 27 -430 73 -255 86 -487 229 -667 412
-59 60 -64 74 -30 89 19 9 31 2 96 -58 135 -125 283 -182 466 -183 124 0 195
18 320 82 89 46 233 188 289 285 21 37 42 67 47 67 4 0 16 -15 28 -33 26 -42
137 -152 181 -179 l35 -21 -45 -13 c-25 -8 -53 -14 -63 -14 -22 0 -34 -27 -18
-43 8 -8 27 -8 73 2 152 31 343 115 525 230 221 139 297 163 387 126z m-2327
-372 c95 -95 129 -125 183 -163 19 -13 41 -30 48 -37 14 -14 116 -74 197 -116
83 -43 175 -83 263 -112 l82 -28 0 -127 c0 -153 4 -178 37 -216 l25 -29 156
-3 c170 -4 211 5 228 52 4 11 10 77 14 146 l5 125 55 0 55 0 5 -129 5 -128 35
-29 34 -29 152 0 c145 0 204 9 230 34 26 27 34 85 34 251 l0 172 74 47 c41 26
108 78 149 116 41 39 79 70 84 70 25 0 174 95 195 124 25 36 21 -265 -6 -412
-27 -145 -94 -397 -136 -509 -23 -59 -45 -121 -51 -138 -40 -130 -153 -272
-329 -416 -32 -27 -135 -89 -146 -89 -5 0 -31 23 -59 51 -94 96 -221 183 -325
222 -64 24 -179 35 -261 25 -53 -6 -82 -5 -121 7 -72 21 -216 19 -307 -5 -40
-10 -78 -23 -84 -29 -17 -17 -41 -13 -62 12 -10 12 -46 54 -80 92 -33 39 -71
88 -85 110 -13 22 -26 42 -30 45 -26 24 -161 269 -206 375 -96 229 -214 620
-214 710 0 31 3 34 33 38 17 2 33 5 34 5 1 1 41 -37 90 -85z m1791 -558 l4
-164 -26 -26 -26 -26 -156 3 c-193 4 -184 -4 -184 158 l0 116 94 18 c52 10
137 33 188 51 51 18 95 33 98 34 3 0 7 -73 8 -164z m-793 65 c44 -6 104 -10
133 -10 l52 0 0 -122 c0 -164 7 -158 -175 -158 -186 0 -179 -7 -183 177 l-4
136 49 -7 c26 -4 84 -11 128 -16z m-52 -844 c39 -19 79 -52 122 -99 36 -38 65
-73 65 -78 0 -5 9 -9 20 -9 46 0 12 70 -72 152 -21 21 -38 40 -38 43 0 3 31 5
69 5 97 0 206 -36 305 -101 92 -60 202 -161 193 -176 -9 -15 -112 -50 -187
-63 -89 -16 -260 -14 -345 4 -116 25 -245 78 -352 146 -67 42 -181 132 -187
147 -13 33 112 64 244 60 91 -3 113 -7 163 -31z"/>
<path d="M5610 11981 c-111 -36 -197 -142 -230 -280 -17 -73 -8 -201 20 -275
27 -70 29 -73 97 -142 109 -111 256 -109 369 5 183 185 138 562 -79 673 -44
22 -137 32 -177 19z m157 -41 c73 -33 131 -102 164 -196 29 -83 30 -219 1
-293 -83 -212 -266 -283 -407 -159 -81 71 -126 175 -126 292 -1 128 33 225
103 297 74 77 177 100 265 59z"/>
<path d="M5629 11782 c-44 -22 -82 -96 -87 -173 -9 -129 67 -234 156 -214 40
9 56 25 86 82 79 157 -28 368 -155 305z"/>
<path d="M4620 11911 c-107 -33 -192 -140 -221 -281 -6 -31 -9 -99 -7 -155 4
-84 10 -111 35 -166 59 -128 142 -193 248 -194 104 0 190 67 248 195 26 56 31
80 35 173 5 120 -10 194 -56 281 -59 109 -187 176 -282 147z m156 -57 c89 -51
154 -193 154 -337 0 -213 -107 -368 -255 -371 -133 -1 -240 139 -253 330 -7
112 12 200 58 277 76 126 186 164 296 101z"/>
<path d="M4604 11673 c-105 -114 -51 -363 79 -363 34 0 46 6 78 40 64 67 76
189 28 285 -25 50 -63 75 -114 75 -30 0 -44 -7 -71 -37z"/>
<path d="M6855 12694 c-69 -35 -114 -159 -95 -263 34 -188 197 -229 270 -69
22 49 27 159 9 222 -6 21 -27 56 -47 77 -44 45 -91 57 -137 33z m116 -45 c30
-30 59 -110 59 -162 0 -59 -26 -130 -60 -167 -52 -55 -120 -34 -166 51 -26 48
-26 180 0 229 10 18 24 39 30 45 40 40 99 42 137 4z"/>
<path d="M3035 12630 c-40 -12 -94 -65 -116 -115 -23 -49 -25 -169 -5 -236 36
-118 154 -229 244 -229 40 0 99 24 130 53 66 62 88 215 48 324 -54 145 -190
237 -301 203z m120 -34 c54 -23 103 -74 138 -145 29 -59 32 -75 32 -153 0 -73
-4 -94 -24 -132 -91 -165 -310 -79 -367 144 -49 192 72 348 221 286z"/>
<path d="M2938 11894 c-70 -37 -104 -166 -65 -246 79 -164 307 -100 307 86 0
73 -33 131 -92 162 -35 18 -115 17 -150 -2z m130 -18 c67 -35 102 -112 83
-181 -27 -99 -120 -143 -199 -95 -44 27 -72 76 -72 128 0 113 102 193 188 148z"/>
<path d="M6599 11364 c-11 -14 -10 -18 6 -30 10 -8 26 -14 35 -14 9 0 25 6 35
14 16 12 17 16 6 30 -7 9 -26 16 -41 16 -15 0 -34 -7 -41 -16z"/>
<path d="M6372 11298 c3 -25 33 -34 57 -19 23 15 5 41 -29 41 -27 0 -31 -3
-28 -22z"/>
<path d="M3520 11285 c-17 -20 -4 -35 31 -35 22 0 29 5 29 19 0 17 -18 31 -40
31 -4 0 -13 -7 -20 -15z"/>
<path d="M3789 11284 c-11 -14 -10 -18 6 -30 10 -8 26 -14 35 -14 9 0 25 6 35
14 16 12 17 16 6 30 -7 9 -26 16 -41 16 -15 0 -34 -7 -41 -16z"/>
<path d="M6555 11191 c-8 -14 32 -33 55 -26 28 9 13 35 -20 35 -16 0 -31 -4
-35 -9z"/>
<path d="M3680 11077 c0 -16 34 -29 56 -20 24 9 10 28 -24 31 -23 2 -32 -1
-32 -11z"/>
<path d="M6866 9940 c-72 -36 -120 -97 -163 -207 -22 -57 -27 -85 -27 -173 -1
-97 1 -109 29 -165 38 -76 79 -105 149 -105 131 1 251 165 264 360 14 224
-107 362 -252 290z m140 -30 c63 -40 99 -161 82 -283 -12 -92 -35 -150 -83
-216 -132 -180 -305 -97 -305 147 0 239 171 435 306 352z"/>
<path d="M3373 9594 c-56 -28 -85 -77 -91 -154 -6 -84 20 -147 76 -185 103
-70 231 19 231 160 1 140 -110 231 -216 179z m115 -28 c66 -34 93 -156 52
-236 -80 -157 -272 -41 -229 138 23 92 103 137 177 98z"/>
<path d="M3827 9046 c-101 -37 -151 -122 -151 -256 1 -73 5 -94 31 -151 89
-193 285 -250 405 -117 46 51 62 116 56 224 -5 88 -31 149 -91 219 -64 74
-173 110 -250 81z m180 -56 c123 -81 177 -272 113 -404 -33 -70 -88 -106 -159
-106 -97 0 -179 60 -229 167 -23 50 -27 71 -27 148 0 95 13 133 59 180 63 66
156 72 243 15z"/>
<path d="M5175 8963 c-11 -3 -78 -27 -150 -53 -71 -26 -153 -51 -180 -55 -54
-7 -177 16 -228 42 -46 23 -42 8 5 -20 120 -70 258 -74 418 -13 52 20 121 41
152 48 52 11 64 9 145 -15 128 -39 198 -50 283 -43 87 7 157 26 215 60 71 42
73 58 3 26 -133 -60 -283 -61 -449 -5 -73 26 -176 39 -214 28z"/>
<path d="M6780 8953 c-72 -14 -137 -116 -125 -197 14 -88 55 -126 137 -126 36
0 47 6 84 44 32 34 44 56 49 90 13 84 -19 156 -81 182 -18 8 -35 13 -36 13 -2
-1 -14 -4 -28 -6z m65 -39 c96 -45 58 -239 -51 -260 -40 -7 -69 8 -94 49 -40
65 -10 178 54 210 40 20 51 20 91 1z"/>
<path d="M2392 10099 c-57 -28 -127 -111 -154 -179 -32 -83 -36 -227 -9 -304
30 -86 65 -131 124 -161 63 -31 98 -31 164 -1 165 77 234 354 137 548 -13 25
-36 55 -51 67 -15 11 -34 26 -41 32 -7 6 -39 13 -70 16 -45 3 -66 0 -100 -18z
m183 -44 c22 -16 48 -51 64 -84 23 -50 26 -68 26 -166 0 -127 -20 -192 -81
-264 -106 -123 -249 -102 -316 47 -77 171 -7 420 137 488 47 23 126 13 170
-21z"/>
<path d="M2502 8832 c-29 -9 -81 -59 -93 -89 -30 -78 8 -197 71 -223 43 -18
116 -8 147 21 83 77 66 232 -31 278 -44 22 -56 23 -94 13z m114 -59 c53 -62
53 -151 -2 -206 -107 -107 -254 67 -164 193 28 39 54 51 103 46 26 -3 46 -13
63 -33z"/>
<path d="M6502 7734 c-19 -13 -22 -24 -22 -77 1 -108 -22 -102 366 -102 l336
0 19 24 c32 39 22 138 -15 163 -6 4 -157 8 -336 8 -279 0 -329 -2 -348 -16z
m678 -24 c14 -21 12 -104 -2 -118 -18 -18 -642 -17 -655 1 -31 38 -24 113 11
127 11 5 160 8 329 7 261 -2 309 -4 317 -17z"/>
<path d="M7694 7476 c-24 -24 -34 -44 -36 -67 -5 -106 33 -163 92 -139 37 15
50 48 50 124 0 49 -5 69 -21 90 -27 34 -44 33 -85 -8z m74 -21 c23 -49 8 -147
-24 -159 -60 -23 -86 104 -33 160 29 31 43 30 57 -1z"/>
<path d="M5787 7373 c-12 -12 -7 -83 8 -121 18 -42 52 -82 71 -82 38 0 56 67
34 124 -21 56 -89 104 -113 79z m79 -75 c19 -36 19 -98 0 -98 -25 0 -61 94
-57 149 1 19 38 -14 57 -51z"/>
<path d="M11299 7034 c-20 -24 1 -48 45 -52 21 -2 44 2 52 9 19 15 18 45 -2
53 -30 11 -82 6 -95 -10z"/>
<path d="M15210 17775 c0 -3 0 -461 0 -1017 0 -897 1 -1013 15 -1016 13 -3 15
111 15 1017 0 901 -2 1021 -15 1021 -8 0 -15 -2 -15 -5z"/>
<path d="M963 3733 c20 -2 54 -2 75 0 20 2 3 4 -38 4 -41 0 -58 -2 -37 -4z"/>
<path d="M14798 3693 c28 -2 76 -2 105 0 28 2 5 3 -53 3 -58 0 -81 -1 -52 -3z"/>
<path d="M11838 3653 c18 -2 45 -2 60 0 15 2 0 4 -33 4 -33 0 -45 -2 -27 -4z"/>
<path d="M13303 3653 c37 -2 97 -2 135 0 37 2 6 3 -68 3 -74 0 -105 -1 -67 -3z"/>
<path d="M5488 3513 c12 -2 30 -2 40 0 9 3 -1 5 -23 4 -22 0 -30 -2 -17 -4z"/>
<path d="M2401 3376 c11 -9 119 -15 119 -6 0 6 -27 10 -62 10 -34 0 -59 -2
-57 -4z"/>
<path d="M7921 3376 c11 -9 119 -15 119 -6 0 6 -27 10 -62 10 -34 0 -59 -2
-57 -4z"/>
<path d="M9878 3373 c23 -2 61 -2 85 0 23 2 4 4 -43 4 -47 0 -66 -2 -42 -4z"/>
<path d="M11023 3303 c26 -2 67 -2 90 0 23 2 2 3 -48 3 -49 0 -68 -1 -42 -3z"/>
<path d="M12423 3303 c26 -2 68 -2 95 0 26 2 4 3 -48 3 -52 0 -74 -1 -47 -3z"/>
<path d="M14098 3303 c56 -2 148 -2 205 0 56 1 10 3 -103 3 -113 0 -159 -2
-102 -3z"/>
<path d="M14983 3303 c15 -2 37 -2 50 0 12 2 0 4 -28 4 -27 0 -38 -2 -22 -4z"/>
<path d="M1160 3090 c0 -5 18 -10 40 -10 22 0 40 5 40 10 0 6 -18 10 -40 10
-22 0 -40 -4 -40 -10z"/>
<path d="M8880 3090 c0 -6 35 -10 86 -10 54 0 83 4 79 10 -3 6 -42 10 -86 10
-46 0 -79 -4 -79 -10z"/>
<path d="M4388 2933 c39 -2 105 -2 145 0 39 1 7 3 -73 3 -80 0 -112 -2 -72 -3z"/>
<path d="M6378 2933 c34 -2 88 -2 120 0 31 2 3 3 -63 3 -66 0 -92 -1 -57 -3z"/>
<path d="M12243 2933 c9 -2 23 -2 30 0 6 3 -1 5 -18 5 -16 0 -22 -2 -12 -5z"/>
<path d="M13963 2933 c26 -2 68 -2 95 0 26 2 4 3 -48 3 -52 0 -74 -1 -47 -3z"/>
<path d="M3303 2763 c15 -2 37 -2 50 0 12 2 0 4 -28 4 -27 0 -38 -2 -22 -4z"/>
<path d="M2032 2563 c37 -2 100 -2 140 0 40 1 10 3 -67 3 -77 0 -110 -1 -73
-3z"/>
<path d="M7618 2563 c34 -2 88 -2 120 0 31 2 3 3 -63 3 -66 0 -92 -1 -57 -3z"/>
<path d="M13048 2563 c17 -2 47 -2 65 0 17 2 3 4 -33 4 -36 0 -50 -2 -32 -4z"/>
<path d="M5480 2480 c0 -6 30 -10 71 -10 44 0 68 4 64 10 -3 6 -35 10 -71 10
-36 0 -64 -4 -64 -10z"/>
<path d="M11498 2433 c68 -2 176 -2 240 0 64 1 9 3 -123 3 -132 0 -185 -2
-117 -3z"/>
<path d="M3100 2320 c20 -13 97 -13 105 0 4 6 -17 10 -57 10 -44 0 -59 -3 -48
-10z"/>
<path d="M9065 2320 c3 -5 26 -10 50 -10 24 0 47 5 50 10 4 6 -15 10 -50 10
-35 0 -54 -4 -50 -10z"/>
<path d="M14300 2320 c38 -12 340 -12 340 0 0 6 -67 10 -182 9 -108 -1 -173
-4 -158 -9z"/>
<path d="M10123 2053 c70 -2 184 -2 255 0 70 1 12 3 -128 3 -140 0 -198 -2
-127 -3z"/>
<path d="M13680 1870 c0 -13 210 -13 230 0 10 7 -25 10 -107 10 -76 0 -123 -4
-123 -10z"/>
<path d="M4040 1801 c0 -12 287 -14 295 -2 4 8 -42 11 -144 11 -83 0 -151 -4
-151 -9z"/>
<path d="M7255 1801 c8 -13 392 -14 400 -1 4 7 -61 10 -200 10 -123 0 -204 -4
-200 -9z"/>
<path d="M1018 1753 c12 -2 32 -2 45 0 12 2 2 4 -23 4 -25 0 -35 -2 -22 -4z"/>
<path d="M2343 1593 c37 -2 96 -2 130 0 34 2 4 3 -68 3 -71 0 -99 -1 -62 -3z"/>
<path d="M5593 1593 c31 -2 83 -2 115 0 31 2 5 3 -58 3 -63 0 -89 -1 -57 -3z"/>
<path d="M9113 1443 c86 -2 228 -2 315 0 86 1 15 3 -158 3 -173 0 -244 -2
-157 -3z"/>
<path d="M12212 1303 c37 -2 100 -2 140 0 40 1 10 3 -67 3 -77 0 -110 -1 -73
-3z"/>
<path d="M6616 1228 c-6 -4 41 -7 104 -6 118 1 111 5 -19 10 -40 2 -78 0 -85
-4z"/>
<path d="M9773 1082 c-2 -39 0 -44 9 -27 16 29 16 29 35 14 14 -11 13 -6 -4
21 -30 48 -38 47 -40 -8z"/>
<path d="M10103 1113 c-4 -10 -18 -33 -31 -51 -18 -23 -20 -31 -8 -26 9 3 16
13 16 20 0 8 11 20 25 26 14 6 25 19 25 30 0 23 -19 24 -27 1z"/>
<path d="M11641 950 c-2 -121 1 -180 8 -180 7 0 10 50 10 143 0 78 0 148 0
156 1 7 7 11 16 7 22 -8 18 12 -5 24 -11 6 -18 15 -15 21 4 5 2 9 -2 9 -5 0
-10 -81 -12 -180z"/>
<path d="M11980 1118 c0 -6 -7 -20 -17 -30 -15 -17 -15 -18 0 -18 9 0 23 14
32 30 14 27 14 30 0 30 -8 0 -15 -5 -15 -12z"/>
<path d="M13220 945 c0 -110 4 -175 10 -175 6 0 10 65 10 175 0 110 -4 175
-10 175 -6 0 -10 -65 -10 -175z"/>
<path d="M10123 1015 c0 -33 2 -45 4 -27 2 18 2 45 0 60 -2 15 -4 0 -4 -33z"/>
<path d="M11992 1050 c0 -14 2 -19 5 -12 2 6 2 18 0 25 -3 6 -5 1 -5 -13z"/>
<path d="M11020 1039 c0 -5 5 -7 10 -4 6 3 10 8 10 11 0 2 -4 4 -10 4 -5 0
-10 -5 -10 -11z"/>
<path d="M11705 1040 c3 -5 8 -10 11 -10 2 0 4 5 4 10 0 6 -5 10 -11 10 -5 0
-7 -4 -4 -10z"/>
<path d="M7995 1010 c-4 -6 40 -10 124 -10 81 0 131 4 131 10 0 6 -48 10 -124
10 -73 0 -127 -4 -131 -10z"/>
<path d="M10037 1013 c-4 -3 -7 -11 -7 -17 0 -6 5 -5 12 2 6 6 9 14 7 17 -3 3
-9 2 -12 -2z"/>
<path d="M11906 1005 c-3 -8 -1 -15 4 -15 6 0 10 7 10 15 0 8 -2 15 -4 15 -2
0 -6 -7 -10 -15z"/>
<path d="M10280 1000 c-11 -7 -7 -8 17 -4 61 12 97 -2 122 -47 18 -32 22 -49
17 -81 -4 -26 -3 -37 4 -33 25 15 7 108 -29 147 -23 24 -106 36 -131 18z"/>
<path d="M10596 1002 c-2 -4 13 -6 34 -4 21 2 41 -1 44 -7 4 -6 12 -11 18 -11
7 0 6 6 -2 15 -13 16 -85 21 -94 7z"/>
<path d="M10845 985 c-14 -13 -25 -28 -25 -34 0 -5 14 4 30 21 26 26 36 30 74
26 24 -1 42 0 39 5 -2 4 -24 7 -49 7 -34 0 -51 -6 -69 -25z"/>
<path d="M11550 994 c0 -8 5 -12 10 -9 6 3 10 10 10 16 0 5 -4 9 -10 9 -5 0
-10 -7 -10 -16z"/>
<path d="M11730 1001 c0 -5 5 -13 10 -16 6 -3 10 -2 10 4 0 5 -4 13 -10 16 -5
3 -10 2 -10 -4z"/>
<path d="M12221 1007 c2 -1 15 -11 29 -22 l25 -20 -19 23 c-11 12 -24 22 -29
22 -6 0 -8 -1 -6 -3z"/>
<path d="M12436 1002 c-3 -5 8 -6 25 -4 17 2 39 -3 54 -12 14 -9 25 -12 25 -7
0 24 -91 44 -104 23z"/>
<path d="M12705 1000 c-3 -5 -1 -10 4 -10 6 0 11 5 11 10 0 6 -2 10 -4 10 -3
0 -8 -4 -11 -10z"/>
<path d="M12763 1003 c20 -2 37 -8 37 -14 0 -5 5 -9 11 -9 8 0 8 5 -1 15 -7 9
-27 14 -49 13 l-36 -1 38 -4z"/>
<path d="M13788 1003 c7 -3 16 -2 19 1 4 3 -2 6 -13 5 -11 0 -14 -3 -6 -6z"/>
<path d="M13840 1001 c0 -10 30 -24 37 -17 3 2 -5 9 -16 16 -12 6 -21 7 -21 1z"/>
<path d="M14023 998 c-12 -6 -25 -18 -28 -26 -4 -12 -1 -11 16 4 23 20 97 26
134 10 l20 -9 -20 16 c-23 18 -89 21 -122 5z"/>
<path d="M14361 1006 c11 -9 69 -15 64 -6 -3 6 -20 10 -37 10 -17 0 -29 -2
-27 -4z"/>
<path d="M14518 1003 c7 -3 16 -2 19 1 4 3 -2 6 -13 5 -11 0 -14 -3 -6 -6z"/>
<path d="M14575 998 c11 -6 25 -19 32 -27 7 -9 13 -11 13 -5 0 15 -33 44 -51
44 -9 0 -7 -5 6 -12z"/>
<path d="M10530 958 c0 -23 3 -38 6 -35 11 10 13 77 3 77 -5 0 -9 -19 -9 -42z"/>
<path d="M12119 983 c-13 -16 -12 -17 4 -4 16 13 21 21 13 21 -2 0 -10 -8 -17
-17z"/>
<path d="M12371 945 l1 -60 9 50 c5 30 4 54 -1 59 -7 7 -10 -12 -9 -49z"/>
<path d="M13112 980 c7 -10 14 -18 15 -16 6 6 -9 36 -18 36 -5 0 -4 -9 3 -20z"/>
<path d="M14280 984 c0 -8 5 -12 10 -9 6 3 10 10 10 16 0 5 -4 9 -10 9 -5 0
-10 -7 -10 -16z"/>
<path d="M9880 970 c6 -11 13 -20 16 -20 2 0 0 9 -6 20 -6 11 -13 20 -16 20
-2 0 0 -9 6 -20z"/>
<path d="M11994 880 c0 -63 1 -89 3 -57 2 31 2 83 0 115 -2 31 -3 5 -3 -58z"/>
<path d="M11288 897 c4 -126 9 -142 10 -37 1 52 -2 100 -6 107 -4 6 -6 -26 -4
-70z"/>
<path d="M11876 964 c-4 -10 -1 -14 6 -12 15 5 23 28 10 28 -5 0 -13 -7 -16
-16z"/>
<path d="M12847 973 c-7 -13 4 -73 15 -73 5 0 6 16 2 38 -8 42 -10 47 -17 35z"/>
<path d="M13712 968 c-7 -7 -12 -19 -12 -27 0 -11 5 -8 16 7 18 25 15 39 -4
20z"/>
<path d="M9774 957 c-3 -8 -4 -47 -2 -88 l3 -74 5 88 c5 87 4 99 -6 74z"/>
<path d="M10000 949 c-7 -11 -10 -23 -7 -25 2 -2 9 7 15 21 14 30 7 33 -8 4z"/>
<path d="M11541 954 c0 -11 3 -14 6 -6 3 7 2 16 -1 19 -3 4 -6 -2 -5 -13z"/>
<path d="M14460 962 c-12 -6 -14 -23 -9 -102 l5 -95 2 91 c1 54 7 95 14 102
13 13 11 14 -12 4z"/>
<path d="M1905 950 c3 -5 26 -10 50 -10 24 0 47 5 50 10 4 6 -15 10 -50 10
-35 0 -54 -4 -50 -10z"/>
<path d="M3970 950 c0 -5 11 -10 25 -10 14 0 25 5 25 10 0 6 -11 10 -25 10
-14 0 -25 -4 -25 -10z"/>
<path d="M11006 945 c4 -8 10 -15 15 -15 5 0 9 7 9 15 0 8 -7 15 -15 15 -9 0
-12 -6 -9 -15z"/>
<path d="M12540 950 c0 -5 5 -10 10 -10 6 0 10 5 10 10 0 6 -4 10 -10 10 -5 0
-10 -4 -10 -10z"/>
<path d="M14281 863 c2 -108 6 -100 11 20 2 42 0 77 -4 77 -5 0 -7 -44 -7 -97z"/>
<path d="M11404 920 c3 -19 11 -39 16 -44 5 -5 5 8 -1 30 -14 50 -24 60 -15
14z"/>
<path d="M13120 927 c0 -9 -5 -17 -12 -17 -9 0 -9 -3 0 -12 16 -16 15 -85 0
-91 -9 -4 -7 -6 3 -6 13 -1 18 13 23 61 4 37 2 66 -4 72 -7 7 -10 4 -10 -7z"/>
<path d="M14182 899 c2 -26 6 -45 11 -42 10 6 8 55 -3 73 -7 11 -9 2 -8 -31z"/>
<path d="M9910 923 c0 -4 5 -15 10 -23 8 -13 10 -13 10 2 0 9 -4 20 -10 23 -5
3 -10 3 -10 -2z"/>
<path d="M11780 921 c0 -5 5 -13 10 -16 6 -3 10 -2 10 4 0 5 -4 13 -10 16 -5
3 -10 2 -10 -4z"/>
<path d="M12261 916 c-8 -10 -9 -16 -1 -21 5 -3 13 1 16 10 9 22 -1 29 -15 11z"/>
<path d="M13485 917 c-4 -10 -5 -21 -1 -24 10 -10 18 4 13 24 -4 17 -4 17 -12
0z"/>
<path d="M13967 923 c-10 -9 -8 -61 2 -67 5 -3 9 12 9 34 1 42 0 44 -11 33z"/>
<path d="M10220 889 c0 -19 5 -41 10 -49 7 -10 8 -1 4 30 -8 56 -14 64 -14 19z"/>
<path d="M10710 901 c0 -11 4 -22 9 -25 4 -3 6 6 3 19 -5 30 -12 33 -12 6z"/>
<path d="M10800 900 c0 -11 2 -20 4 -20 2 0 6 9 9 20 3 11 1 20 -4 20 -5 0 -9
-9 -9 -20z"/>
<path d="M11516 905 c-9 -26 -7 -32 5 -12 6 10 9 21 6 23 -2 3 -7 -2 -11 -11z"/>
<path d="M12642 900 c0 -14 2 -19 5 -12 2 6 2 18 0 25 -3 6 -5 1 -5 -13z"/>
<path d="M11265 900 c3 -5 8 -10 11 -10 2 0 4 5 4 10 0 6 -5 10 -11 10 -5 0
-7 -4 -4 -10z"/>
<path d="M13684 899 c-3 -6 -1 -16 5 -22 8 -8 11 -5 11 11 0 24 -5 28 -16 11z"/>
<path d="M9950 885 c-8 -9 -8 -15 -2 -15 12 0 26 19 19 26 -2 2 -10 -2 -17
-11z"/>
<path d="M11025 890 c-3 -5 -1 -10 4 -10 6 0 11 5 11 10 0 6 -2 10 -4 10 -3 0
-8 -4 -11 -10z"/>
<path d="M13415 890 c-3 -5 1 -10 9 -10 9 0 16 5 16 10 0 6 -4 10 -9 10 -6 0
-13 -4 -16 -10z"/>
<path d="M14625 890 c-3 -5 -1 -10 4 -10 6 0 11 5 11 10 0 6 -2 10 -4 10 -3 0
-8 -4 -11 -10z"/>
<path d="M10533 830 c0 -36 2 -50 4 -32 2 17 2 47 0 65 -2 17 -4 3 -4 -33z"/>
<path d="M13018 883 c7 -3 16 -2 19 1 4 3 -2 6 -13 5 -11 0 -14 -3 -6 -6z"/>
<path d="M12105 860 c-10 -11 -15 -20 -12 -20 4 0 16 9 27 20 11 11 16 20 12
20 -5 0 -17 -9 -27 -20z"/>
<path d="M12267 853 c-3 -16 -7 -36 -9 -45 -2 -9 1 -18 6 -20 5 -2 11 18 13
45 5 51 -2 63 -10 20z"/>
<path d="M12368 834 c-2 -25 0 -51 4 -57 4 -7 8 14 8 46 0 68 -7 75 -12 11z"/>
<path d="M12852 855 c0 -16 2 -22 5 -12 2 9 2 23 0 30 -3 6 -5 -1 -5 -18z"/>
<path d="M10806 857 c3 -10 9 -15 12 -12 3 3 0 11 -7 18 -10 9 -11 8 -5 -6z"/>
<path d="M11015 860 c-4 -6 -3 -16 3 -22 6 -6 12 -6 17 2 4 6 3 16 -3 22 -6 6
-12 6 -17 -2z"/>
<path d="M11506 861 c-4 -7 -5 -15 -2 -18 9 -9 19 4 14 18 -4 11 -6 11 -12 0z"/>
<path d="M11116 844 c-8 -21 -7 -47 2 -60 10 -15 62 -27 62 -14 0 5 -9 10 -20
10 -24 0 -43 34 -35 60 8 24 0 27 -9 4z"/>
<path d="M12951 839 c-7 -12 -10 -23 -8 -26 3 -3 11 5 17 17 15 28 8 35 -9 9z"/>
<path d="M12645 840 c3 -5 8 -10 11 -10 2 0 4 5 4 10 0 6 -5 10 -11 10 -5 0
-7 -4 -4 -10z"/>
<path d="M13320 822 c0 -17 4 -34 10 -37 6 -4 7 6 3 27 -8 44 -13 48 -13 10z"/>
<path d="M11442 810 c0 -14 2 -19 5 -12 2 6 2 18 0 25 -3 6 -5 1 -5 -13z"/>
<path d="M11482 813 c-7 -12 -12 -32 -12 -45 1 -19 3 -18 16 11 17 39 13 67
-4 34z"/>
<path d="M10404 799 c-19 -22 -19 -22 4 -8 12 8 22 17 22 21 0 12 -6 9 -26
-13z"/>
<path d="M10830 811 c0 -10 19 -25 25 -20 1 2 -3 10 -11 17 -8 7 -14 8 -14 3z"/>
<path d="M10995 810 c-3 -5 1 -10 9 -10 9 0 16 5 16 10 0 6 -4 10 -9 10 -6 0
-13 -4 -16 -10z"/>
<path d="M12832 808 c3 -7 13 -15 23 -17 17 -3 17 -2 3 13 -20 19 -31 21 -26
4z"/>
<path d="M13475 810 c-3 -5 1 -10 10 -10 9 0 13 5 10 10 -3 6 -8 10 -10 10 -2
0 -7 -4 -10 -10z"/>
<path d="M12104 793 c24 -29 44 -35 81 -24 29 9 28 9 -14 10 -27 1 -53 8 -65
19 -21 17 -21 17 -2 -5z"/>
<path d="M12956 801 c-8 -13 39 -41 68 -41 14 0 28 5 31 10 4 6 -8 10 -29 10
-42 0 -68 9 -60 21 3 5 3 9 0 9 -3 0 -7 -4 -10 -9z"/>
<path d="M13870 799 c0 -5 5 -7 10 -4 6 3 10 8 10 11 0 2 -4 4 -10 4 -5 0 -10
-5 -10 -11z"/>
<path d="M10121 784 c0 -11 3 -14 6 -6 3 7 2 16 -1 19 -3 4 -6 -2 -5 -13z"/>
<path d="M10265 790 c3 -5 8 -10 11 -10 2 0 4 5 4 10 0 6 -5 10 -11 10 -5 0
-7 -4 -4 -10z"/>
<path d="M10717 793 c-4 -3 -7 -11 -7 -17 0 -6 5 -5 12 2 6 6 9 14 7 17 -3 3
-9 2 -12 -2z"/>
<path d="M12551 784 c0 -11 3 -14 6 -6 3 7 2 16 -1 19 -3 4 -6 -2 -5 -13z"/>
<path d="M10923 782 c-24 -2 -43 -8 -43 -14 0 -7 15 -8 42 -4 69 11 69 23 1
18z"/>
<path d="M12755 781 c-44 -5 -47 -7 -23 -14 24 -6 78 5 78 18 0 3 -1 4 -2 3
-2 0 -25 -4 -53 -7z"/>
<path d="M13120 780 c0 -5 5 -10 10 -10 6 0 10 5 10 10 0 6 -4 10 -10 10 -5 0
-10 -4 -10 -10z"/>
<path d="M13395 781 c-33 -4 -45 -9 -37 -14 16 -11 79 0 87 13 4 6 5 9 3 8 -2
0 -25 -4 -53 -7z"/>
<path d="M10308 768 c16 -8 28 -8 45 0 19 9 17 11 -23 11 -40 0 -42 -2 -22
-11z"/>
<path d="M11200 769 c0 -5 5 -7 10 -4 6 3 10 8 10 11 0 2 -4 4 -10 4 -5 0 -10
-5 -10 -11z"/>
<path d="M13782 769 c18 -7 33 -7 45 0 14 8 9 10 -27 10 -42 -1 -43 -1 -18
-10z"/>
<path d="M14057 768 c15 -7 30 -7 50 0 26 10 24 10 -22 11 -42 0 -46 -2 -28
-11z"/>
<path d="M11437 691 c-4 -17 -3 -21 5 -13 5 5 8 16 6 23 -3 8 -7 3 -11 -10z"/>
<path d="M11390 660 c0 -5 5 -10 10 -10 6 0 10 5 10 10 0 6 -4 10 -10 10 -5 0
-10 -4 -10 -10z"/>
</g>
</svg>
