<?xml version="1.0" standalone="no"?>
<!DOCTYPE svg PUBLIC "-//W3C//DTD SVG 20010904//EN"
 "http://www.w3.org/TR/2001/REC-SVG-20010904/DTD/svg10.dtd">
<svg version="1.0" xmlns="http://www.w3.org/2000/svg"
 width="1583.000000pt" height="2048.000000pt" viewBox="0 0 1583.000000 2048.000000"
 preserveAspectRatio="xMidYMid meet">
<metadata>
Created by potrace 1.16, written by Peter Selinger 2001-2019
</metadata>
<g transform="translate(0.000000,2048.000000) scale(0.100000,-0.100000)"
fill="#000000" stroke="none">
<path d="M6246 20100 c-5596 -5 -5609 -5 -5620 -25 -6 -11 -17 -24 -23 -28
-10 -6 -13 -1085 -11 -5350 1 -2938 5 -5250 8 -5137 l6 205 2 -200 c1 -123 -2
-205 -8 -211 -6 -6 -9 -1459 -7 -4258 l2 -4248 28 -24 c15 -13 24 -25 20 -26
-13 -4 8889 -13 8924 -9 28 3 30 5 18 17 -12 12 -664 14 -4463 14 -2448 0
-4456 2 -4464 5 -7 3 -18 13 -23 23 -7 11 -9 799 -7 2226 l2 2209 338 -6 c508
-11 1457 -41 2397 -77 281 -11 587 -22 680 -26 94 -3 175 -7 182 -9 9 -3 7
-16 -7 -47 -49 -112 -42 -241 19 -336 38 -59 150 -167 231 -222 l55 -37 44
-179 c38 -157 103 -369 141 -459 7 -16 16 -39 21 -50 69 -163 189 -381 244
-442 5 -6 21 -26 35 -44 14 -18 51 -58 83 -88 203 -193 388 -239 571 -142 51
27 171 138 223 207 76 100 167 274 228 438 36 95 95 323 95 364 0 16 7 26 20
29 47 12 165 76 219 117 42 33 61 55 71 85 18 54 8 156 -24 248 -21 60 -22 73
-10 73 8 0 68 -13 132 -29 313 -78 659 -134 997 -161 77 -7 141 -12 142 -13 1
-1 -10 -40 -24 -87 -28 -97 -28 -210 0 -253 30 -46 253 -180 408 -246 l46 -19
37 -108 c36 -105 109 -291 127 -323 4 -9 29 -59 53 -111 89 -187 212 -381 348
-547 13 -15 58 -62 101 -105 165 -163 340 -197 525 -104 160 81 317 268 402
481 101 253 213 653 248 879 6 41 11 51 32 57 14 3 55 20 93 38 37 17 71 31
76 31 15 0 136 83 159 109 60 68 72 142 48 296 -20 126 -41 323 -35 329 2 2
58 0 124 -5 262 -19 541 -41 770 -60 215 -17 558 -44 870 -69 61 -5 243 -20
405 -34 162 -14 430 -37 595 -51 165 -14 306 -28 314 -31 12 -4 13 -42 7 -237
-12 -436 -65 -948 -103 -1006 l-17 -26 -11 45 c-7 25 -15 104 -18 175 -12 238
-61 368 -186 494 -98 98 -130 123 -220 167 -131 64 -232 55 -313 -28 -43 -43
-78 -110 -78 -146 0 -43 39 -81 186 -178 151 -101 207 -154 224 -213 13 -47
56 -310 69 -431 13 -113 46 -423 62 -570 38 -369 49 -444 78 -506 56 -119 161
-205 305 -248 72 -22 250 -53 496 -87 133 -19 419 -16 522 4 195 39 313 116
358 234 21 54 22 69 16 223 -4 91 -2 287 3 435 6 149 11 339 12 422 2 84 5
157 8 162 3 5 15 11 26 14 17 4 16 5 -5 6 l-25 1 -3 123 c-4 148 -17 242 -41
282 -13 24 -25 31 -55 33 -52 4 -133 -26 -172 -65 -57 -57 -67 -110 -68 -360
-1 -163 -4 -225 -13 -234 -22 -22 -37 6 -40 79 -2 37 -11 186 -19 332 -9 146
-17 338 -18 427 l-1 162 28 28 28 28 253 0 c241 0 256 1 283 21 42 30 68 91
83 193 14 90 14 91 43 91 15 0 35 -6 43 -14 15 -15 19 -46 7 -46 -5 0 -6 -778
-3 -1729 3 -951 2 -1727 -2 -1724 -5 2 -8 -5 -8 -15 0 -38 -21 -43 -204 -43
-166 -1 -176 -2 -176 -20 0 -10 5 -19 10 -19 6 0 10 5 10 11 0 5 5 7 11 4 17
-11 323 -7 327 4 2 5 9 8 15 5 7 -2 20 10 29 27 17 29 18 243 17 4022 -1 2196
-1 4001 -1 4012 0 11 0 2525 1 5587 1 5156 0 5570 -15 5602 -13 26 -25 36 -51
41 -59 11 -2036 6 -2047 -5 -7 -7 -214 -9 -611 -8 l-600 3 605 5 605 5 -600 3
c-330 2 -616 4 -635 5 -19 1 -2559 0 -5644 -3z m2812 -17 c-1534 -2 -4042 -2
-5575 0 -1534 1 -279 2 2787 2 3066 0 4321 -1 2788 -2z m3468 -13 c484 0 614
-3 614 -12 0 -7 5 -65 10 -128 20 -225 82 -389 200 -527 114 -133 200 -168
340 -139 143 30 323 136 505 295 64 56 353 348 440 444 l79 87 206 -2 205 -2
-205 -6 -205 -6 232 -2 c229 -2 233 -2 247 -24 13 -20 15 -106 13 -598 l-2
-575 -75 -7 c-253 -23 -372 -43 -504 -85 -162 -51 -270 -113 -359 -205 -94
-99 -129 -177 -172 -386 -15 -73 -22 -254 -14 -370 9 -124 33 -240 70 -342 19
-52 87 -189 99 -200 3 -3 18 -23 33 -46 42 -62 163 -177 240 -228 132 -88 263
-138 537 -207 121 -30 183 -56 155 -66 -7 -2 -8 -419 -5 -1215 3 -803 2 -1216
-5 -1221 -24 -18 -181 180 -283 358 -42 74 -153 297 -186 375 -11 25 -41 93
-68 152 -26 60 -48 110 -48 113 0 5 -24 61 -147 335 -170 381 -318 604 -455
684 -91 53 -267 77 -388 52 -195 -41 -350 -172 -432 -367 -47 -112 -58 -165
-65 -304 -8 -192 0 -243 143 -830 72 -296 144 -664 169 -861 l6 -51 -72 -7
c-140 -13 -358 -79 -537 -161 -29 -14 -55 -25 -57 -25 -4 0 -152 -86 -300
-175 -390 -233 -899 -567 -1258 -824 -82 -58 -169 -121 -195 -139 -26 -17 -54
-38 -62 -45 -8 -7 -31 -23 -50 -37 -19 -14 -42 -30 -50 -37 -55 -44 -126 -93
-136 -93 -11 0 -30 20 -105 106 -101 117 -202 313 -253 490 -105 368 -85 727
56 1009 35 68 121 210 138 225 3 3 29 34 59 70 103 122 235 246 496 465 168
140 337 312 397 400 287 427 311 938 77 1588 -125 343 -209 469 -372 551 -226
115 -502 82 -975 -116 -79 -33 -145 -59 -147 -57 -2 3 12 49 31 103 178 511
122 786 -176 867 -75 21 -271 15 -375 -10 -238 -57 -476 -192 -750 -425 -85
-72 -340 -327 -415 -415 -30 -36 -73 -85 -95 -111 -22 -25 -67 -81 -100 -124
-33 -43 -70 -90 -82 -104 l-23 -27 -96 33 c-187 64 -430 200 -579 325 -457
383 -727 928 -726 1467 0 495 210 834 656 1062 130 67 233 103 400 140 134 30
425 32 585 5 290 -51 627 -180 1005 -385 184 -99 434 -239 450 -251 6 -5 37
-23 70 -41 33 -18 94 -52 135 -75 68 -38 226 -124 385 -210 113 -61 350 -164
456 -199 148 -49 216 -60 359 -59 140 0 229 21 373 87 257 117 397 279 443
514 35 182 -1 427 -96 652 -18 41 -34 89 -36 105 -2 17 -1 24 2 18 4 -10 138
-13 620 -13z m2124 10 c0 -30 -285 -334 -441 -470 -126 -110 -137 -119 -220
-176 -217 -149 -392 -191 -500 -119 -187 123 -299 354 -316 653 l-6 102 709 2
709 3 -655 5 -655 5 688 3 c435 1 687 -2 687 -8z m-2761 -72 c92 -203 131
-361 132 -535 1 -122 -13 -202 -52 -295 -27 -64 -45 -93 -109 -172 -32 -40
-178 -140 -267 -182 -147 -71 -223 -88 -388 -88 -112 0 -157 4 -225 22 -272
71 -559 214 -1372 683 -36 22 -70 39 -73 39 -4 0 -19 9 -34 19 -27 20 -409
213 -491 249 -153 67 -256 105 -403 147 -319 92 -620 105 -895 39 -313 -75
-628 -262 -784 -464 -95 -122 -158 -257 -204 -432 -26 -96 -28 -118 -28 -308
-1 -241 12 -331 80 -540 104 -316 264 -579 498 -815 213 -214 488 -390 738
-471 81 -27 103 -43 79 -59 -15 -9 -221 -308 -303 -440 -132 -213 -299 -510
-388 -691 l-45 -92 -155 -51 -156 -51 -17 -46 c-16 -43 -16 -49 -1 -80 10 -21
24 -34 35 -34 26 0 24 -12 -7 -39 -50 -43 -15 -131 59 -147 30 -7 31 -8 18
-32 -11 -21 -31 -67 -102 -239 l-54 -133 -40 0 c-45 0 -159 -28 -220 -54 -81
-35 -182 -107 -255 -183 -72 -74 -140 -155 -140 -166 0 -3 -17 -34 -38 -68
-88 -145 -150 -337 -178 -544 -26 -193 -4 -406 59 -570 18 -47 30 -99 30 -125
0 -49 -101 -360 -174 -535 -22 -55 -57 -138 -76 -185 -19 -47 -38 -89 -42 -95
-4 -5 -20 -40 -35 -77 -16 -38 -34 -68 -41 -68 -38 0 -233 87 -365 163 -105
61 -195 119 -268 171 -117 86 -256 190 -282 212 -14 12 -79 65 -144 119 -66
54 -133 110 -150 125 -74 66 -203 178 -230 201 -16 13 -38 33 -50 44 -12 11
-60 54 -106 95 -82 72 -120 107 -240 215 -30 28 -93 84 -140 125 -46 41 -94
84 -106 95 -11 11 -40 36 -64 55 -24 19 -53 44 -64 55 -27 25 -172 147 -251
209 -33 26 -68 54 -78 62 -58 47 -265 177 -337 212 -144 69 -290 95 -415 73
-134 -24 -203 -105 -226 -265 -21 -153 18 -381 131 -766 73 -249 242 -727 270
-765 4 -5 14 -28 23 -50 63 -161 416 -865 554 -1105 33 -58 71 -125 85 -150
14 -25 45 -78 68 -118 38 -65 42 -79 38 -121 -6 -62 -34 -100 -98 -135 -89
-49 -194 -32 -349 55 -236 134 -319 177 -401 209 -78 31 -94 34 -200 34 -111
1 -118 0 -184 -33 -87 -42 -155 -110 -178 -178 -25 -72 -24 -192 3 -277 49
-154 199 -309 342 -350 200 -58 355 -43 558 52 88 42 187 72 234 72 45 0 94
-30 120 -74 44 -75 78 -203 77 -291 0 -141 -33 -200 -186 -334 -121 -105 -169
-172 -193 -269 -15 -65 -15 -75 0 -151 19 -97 36 -135 85 -191 53 -62 131
-108 224 -132 165 -41 251 -13 398 133 90 89 154 202 165 294 8 62 -9 173 -57
375 -16 69 -30 150 -30 180 -1 107 53 179 141 188 43 4 52 1 84 -27 41 -37 72
-87 117 -191 17 -41 54 -121 81 -178 l48 -103 -93 -138 c-113 -168 -150 -243
-210 -426 -91 -282 -118 -455 -99 -644 10 -102 10 -106 -18 -186 -42 -121 -49
-189 -56 -535 -6 -316 2 -450 38 -685 35 -227 122 -542 181 -658 30 -60 17
-63 -42 -10 -134 121 -181 150 -294 179 -390 101 -954 173 -1036 131 -37 -18
-119 -144 -198 -302 -207 -415 -307 -773 -261 -938 6 -22 9 -40 7 -42 -2 -1
-144 -12 -317 -25 -291 -21 -314 -21 -330 -6 -14 15 -16 60 -16 439 l0 422
-28 70 c-15 38 -35 78 -45 88 -31 34 -110 67 -300 123 -263 78 -294 90 -341
135 -61 59 -74 97 -68 199 6 109 31 170 151 382 15 25 33 52 41 58 8 7 15 16
15 21 0 5 7 17 15 26 8 10 37 47 65 83 72 92 77 97 139 170 30 36 110 121 177
190 68 69 133 139 145 155 13 17 26 32 30 35 26 20 142 215 199 332 294 611
273 1143 -55 1353 -88 57 -338 146 -505 181 -147 31 -400 30 -518 -2 l-22 -6
0 5096 c0 3495 3 5103 10 5117 11 19 84 19 5616 19 l5604 0 29 -62z m-11282
-7636 c-1 -1384 -2 -251 -2 2518 0 2769 1 3902 2 2517 2 -1384 2 -3650 0
-5035z m14608 6458 c16 -6 17 -9 5 -14 -13 -5 -15 -125 -12 -1008 1 -551 -1
-1005 -5 -1009 -7 -7 -265 57 -393 97 -69 22 -215 93 -277 135 -244 166 -387
425 -424 767 -18 171 0 384 46 542 60 204 254 363 530 435 182 48 474 78 530
55z m-5230 -809 c101 -45 139 -91 165 -200 41 -175 -50 -519 -248 -931 -142
-296 -161 -339 -205 -455 -146 -384 -163 -623 -132 -1805 19 -708 36 -944 101
-1380 52 -349 134 -748 223 -1085 27 -101 44 -160 98 -346 3 -10 -15 -32 -49
-61 -97 -83 -457 -454 -458 -471 0 -5 19 8 43 28 83 71 303 251 352 288 27 21
76 62 110 91 132 117 218 189 390 326 99 79 182 147 185 150 3 3 21 17 40 30
19 13 40 29 46 35 38 35 574 431 664 490 25 17 47 32 50 35 3 3 39 28 80 55
41 26 77 51 80 55 3 4 109 75 235 158 127 83 235 156 242 162 7 5 14 10 16 10
2 0 44 26 93 58 227 150 667 410 759 450 44 19 99 43 123 54 43 18 143 51 253
82 142 40 299 41 390 2 147 -62 167 -278 56 -601 -48 -139 -173 -399 -254
-530 -151 -244 -301 -469 -428 -641 -16 -23 -52 -72 -79 -110 -178 -249 -398
-549 -516 -704 -15 -19 -60 -80 -101 -135 -41 -55 -77 -102 -80 -105 -3 -3
-40 -51 -82 -107 -42 -57 -112 -149 -154 -205 -42 -57 -79 -105 -83 -108 -3
-3 -35 -43 -70 -90 -35 -47 -66 -87 -69 -90 -4 -3 -26 -32 -51 -65 -25 -33
-63 -83 -85 -111 -22 -28 -51 -66 -65 -84 -14 -18 -29 -38 -35 -44 -5 -6 -30
-38 -54 -71 -25 -33 -47 -62 -51 -65 -3 -3 -35 -43 -70 -90 -35 -47 -66 -87
-70 -90 -3 -3 -28 -34 -56 -70 -27 -36 -74 -96 -103 -134 -30 -38 -60 -76 -67
-85 -77 -95 -120 -156 -240 -336 -76 -115 -143 -213 -149 -217 -6 -5 -6 -8 2
-8 6 0 39 33 74 73 34 39 92 106 129 147 37 41 91 102 120 135 29 33 56 64 61
69 5 5 13 -2 18 -17 6 -15 19 -46 30 -70 149 -332 260 -751 261 -985 1 -199
-43 -305 -185 -448 -103 -104 -154 -146 -291 -243 -55 -39 -103 -74 -109 -79
-5 -4 -17 -11 -25 -15 -8 -3 -46 -27 -85 -51 -335 -215 -887 -470 -1320 -611
-521 -169 -931 -255 -1420 -296 -178 -15 -655 -15 -845 0 -330 26 -738 96
-960 166 -25 7 -106 33 -180 56 -256 79 -522 196 -801 350 -91 50 -341 206
-349 218 -3 4 -27 23 -55 41 -27 19 -56 40 -65 46 -8 7 -64 52 -123 99 -538
430 -707 860 -552 1400 48 166 97 299 141 382 36 69 165 267 184 283 3 3 17
21 30 40 14 19 30 42 37 50 34 41 297 380 376 485 50 66 93 122 97 125 6 6 86
114 150 205 68 97 305 457 326 495 10 19 22 37 27 38 4 2 7 8 7 12 0 5 19 42
43 82 130 219 347 633 452 863 15 33 40 87 56 120 85 184 222 532 285 725 19
58 36 111 39 118 3 8 29 -12 67 -54 129 -137 251 -194 418 -194 186 0 341 72
500 233 41 42 77 73 81 69 4 -4 19 -29 34 -57 110 -202 283 -320 485 -332 336
-20 663 265 817 712 88 258 98 613 22 837 -24 72 -97 221 -110 226 -5 2 -9 9
-9 16 0 8 -33 47 -74 89 -161 165 -385 218 -596 142 -126 -46 -216 -109 -333
-232 -22 -24 -43 -43 -47 -43 -3 0 -21 28 -40 63 -79 148 -203 257 -346 306
-30 10 -57 20 -59 23 -7 6 143 377 168 415 4 6 32 17 63 23 125 26 317 107
370 156 58 53 69 99 32 134 -19 18 -32 21 -71 17 -51 -4 -51 -2 -4 45 24 25
37 61 30 86 -8 34 -46 44 -119 30 -35 -6 -66 -9 -69 -7 -5 5 14 43 93 189 39
72 135 244 180 323 31 53 184 300 194 312 5 6 54 78 110 160 56 83 104 152
108 155 3 3 17 21 30 40 20 29 81 107 167 215 183 228 443 489 653 656 70 56
178 129 189 129 6 0 11 5 11 10 0 6 4 10 9 10 5 0 42 19 83 43 108 64 248 114
398 141 14 3 75 3 135 2 87 -3 121 -8 160 -25z m1108 -686 c93 -20 181 -69
254 -142 47 -49 74 -88 117 -175 95 -195 190 -484 238 -728 30 -155 33 -478 5
-610 -53 -245 -163 -460 -326 -632 -62 -66 -195 -185 -436 -390 -11 -9 -31
-26 -43 -37 -218 -187 -395 -397 -487 -581 -42 -83 -80 -191 -107 -305 -31
-132 -31 -403 1 -565 57 -295 180 -549 353 -733 52 -55 54 -51 -47 -128 -68
-51 -190 -147 -230 -180 -11 -9 -69 -57 -130 -105 -60 -49 -115 -93 -121 -99
-52 -47 -84 -67 -84 -50 0 3 -22 83 -49 177 -70 249 -127 488 -180 763 -12 61
-28 144 -36 185 -42 216 -85 543 -110 841 -22 262 -47 1282 -42 1674 5 371 15
469 68 674 46 180 84 278 209 536 71 147 121 254 150 321 24 57 5 46 245 147
97 41 278 102 355 120 36 9 83 20 105 25 61 15 252 13 328 -3z m2794 -1002
c104 -23 179 -74 263 -179 119 -149 219 -346 465 -914 92 -213 114 -262 176
-389 126 -259 247 -447 358 -556 46 -44 51 -54 53 -95 l1 -45 6 45 c5 41 4
-2897 -2 -4567 -1 -380 1 -689 6 -686 4 2 7 -6 7 -19 0 -18 -2 -20 -10 -8 -8
12 -10 12 -10 1 0 -8 -24 10 -54 40 -40 40 -74 62 -128 84 -70 28 -80 30 -223
30 -142 0 -156 -2 -250 -32 -253 -82 -391 -230 -431 -463 -20 -113 -14 -391
11 -585 8 -66 18 -201 22 -300 5 -149 3 -193 -11 -255 -48 -211 -191 -309
-621 -424 -288 -77 -373 -115 -455 -202 -70 -75 -92 -105 -162 -219 -68 -110
-143 -258 -204 -399 l-43 -101 -92 0 -92 0 -52 156 c-87 261 -194 450 -274
481 -61 23 -334 56 -613 74 -60 3 -108 10 -108 13 0 4 13 65 30 137 47 205 63
345 63 569 0 209 -14 343 -52 492 -16 64 -19 110 -19 248 2 185 -11 280 -63
485 -49 190 -171 527 -240 663 l-20 38 23 32 c12 18 25 34 28 37 4 3 31 37 60
75 99 130 184 240 225 290 22 28 54 68 70 89 17 22 48 62 70 90 22 28 60 78
85 111 25 33 47 62 50 65 7 6 51 64 131 170 35 47 66 87 70 90 3 3 41 52 84
110 43 58 81 107 85 110 3 3 30 39 60 80 30 41 57 77 61 80 8 7 543 723 604
810 28 39 55 77 60 83 33 41 77 100 115 157 24 36 46 67 50 70 4 3 53 75 111
160 57 85 107 157 110 160 3 3 38 55 77 115 39 61 75 115 81 122 6 7 11 15 11
18 0 3 15 29 33 58 145 226 279 523 336 742 42 165 37 314 -14 415 -43 85
-143 148 -248 158 -71 6 -68 0 -97 190 -11 78 -41 238 -65 355 -46 220 -54
254 -125 547 -89 366 -101 439 -102 600 -1 160 20 257 83 387 74 154 231 283
380 312 73 15 184 12 266 -6z m-6347 -750 c0 -10 -75 -63 -87 -63 -17 0 -31
-44 -22 -67 13 -35 98 -52 166 -31 6 1 12 -1 13 -7 8 -33 -287 -141 -437 -161
-78 -10 -70 14 18 57 82 39 106 66 89 98 -10 19 -20 21 -102 21 -86 0 -91 1
-76 17 17 16 129 55 328 114 107 31 110 32 110 22z m-439 -919 c134 -48 243
-151 319 -300 17 -32 30 -64 30 -71 0 -7 -20 -48 -44 -92 -100 -181 -161 -385
-175 -594 -13 -172 -4 -258 46 -475 6 -24 -15 -55 -84 -127 -101 -107 -222
-179 -351 -210 -171 -42 -355 28 -481 182 -263 322 -250 929 30 1348 197 294
471 425 710 339z m1130 -88 c193 -68 339 -259 399 -522 49 -215 20 -532 -69
-756 -96 -242 -261 -444 -436 -533 -271 -138 -538 -55 -694 214 -130 223 -163
541 -90 846 22 88 57 195 71 210 4 5 8 17 8 26 0 10 3 19 8 21 4 2 21 29 37
62 112 219 317 402 503 445 75 18 193 12 263 -13z m-5451 -337 c93 -25 200
-79 322 -160 51 -34 95 -65 98 -69 3 -3 21 -17 40 -30 19 -13 37 -27 40 -30 3
-3 30 -24 60 -47 30 -23 69 -54 87 -70 41 -36 66 -58 133 -113 30 -25 60 -49
66 -55 6 -5 44 -39 85 -75 40 -36 96 -85 124 -110 27 -25 55 -49 61 -55 6 -5
49 -44 95 -86 119 -107 292 -261 444 -394 44 -39 85 -74 91 -80 69 -63 346
-291 424 -348 36 -26 72 -54 80 -60 8 -7 31 -23 50 -37 19 -13 37 -27 40 -30
6 -9 218 -150 224 -150 2 0 33 -18 69 -39 86 -53 206 -111 297 -146 41 -15 78
-31 83 -35 6 -6 -204 -435 -275 -560 -14 -25 -47 -85 -74 -135 -26 -49 -70
-125 -96 -168 -26 -43 -48 -81 -48 -83 0 -3 -18 -32 -40 -64 -22 -32 -40 -62
-40 -65 0 -9 -238 -360 -308 -455 -31 -41 -74 -100 -96 -130 -56 -78 -188
-249 -276 -360 -15 -19 -47 -59 -70 -89 l-43 -54 -31 34 c-35 37 -205 244
-246 299 -14 18 -30 38 -35 44 -57 62 -365 516 -508 750 -7 11 -26 43 -43 70
-71 116 -200 343 -292 516 -30 58 -66 123 -78 145 -48 83 -344 688 -344 702 0
2 -25 55 -55 119 -61 129 -109 256 -185 489 -28 88 -60 185 -70 215 -35 101
-99 344 -126 470 -18 91 -26 160 -27 255 -2 118 0 135 22 183 38 84 89 110
216 111 52 1 106 -6 155 -20z m-246 -3114 c84 -18 184 -64 376 -172 202 -116
279 -146 360 -147 51 0 76 6 116 27 59 30 102 77 111 119 6 31 23 49 23 24 0
-8 4 -16 8 -18 4 -1 34 -46 66 -98 32 -52 83 -132 112 -177 30 -46 54 -85 54
-87 0 -3 -11 1 -26 8 -46 25 -135 -10 -154 -60 -24 -61 -2 -145 48 -184 71
-56 204 25 189 116 -6 34 6 47 16 20 12 -31 326 -456 367 -496 3 -3 21 -25 42
-50 20 -25 57 -67 82 -95 25 -27 45 -55 46 -60 0 -17 -58 -95 -71 -95 -8 0
-70 125 -127 256 -54 125 -102 197 -145 217 -79 38 -172 6 -217 -73 -35 -62
-33 -148 8 -311 17 -69 38 -175 47 -235 16 -110 16 -110 -8 -185 -13 -42 -38
-96 -54 -120 -35 -50 -112 -129 -163 -168 -19 -14 -37 -29 -40 -32 -3 -3 -21
-15 -40 -25 -50 -26 -174 -24 -259 5 -125 43 -202 119 -242 238 -17 53 -21 82
-17 152 4 79 7 91 42 146 21 33 66 85 99 115 213 190 242 239 242 395 -1 74
-7 108 -34 194 -70 216 -157 239 -437 117 -165 -71 -208 -80 -359 -73 -137 6
-203 24 -290 83 -104 69 -198 200 -224 315 -37 160 11 295 132 367 101 61 193
74 321 47z m1209 -555 c30 -24 62 -100 53 -128 -25 -78 -139 -104 -179 -40
-40 62 -32 139 16 169 41 24 78 24 110 -1z m-2575 -759 c241 -51 470 -145 556
-226 133 -128 183 -286 173 -544 -10 -250 -86 -509 -228 -778 -95 -180 -152
-257 -318 -428 -203 -209 -290 -310 -395 -460 -31 -44 -60 -85 -65 -91 -40
-49 -130 -237 -162 -339 -20 -64 -16 -173 8 -225 42 -92 107 -136 273 -184
219 -63 381 -119 406 -139 15 -11 37 -45 50 -74 43 -97 48 -167 36 -482 -8
-197 -9 -315 -2 -380 6 -52 9 -95 8 -96 -3 -2 -544 -32 -740 -42 l-138 -6 0
1509 0 1508 48 -46 c166 -164 359 -71 506 243 56 119 76 210 76 343 0 162 -38
296 -118 412 -51 75 -76 98 -136 125 -40 17 -61 20 -110 16 -74 -7 -146 -31
-207 -69 -25 -15 -50 -28 -55 -28 -9 0 -9 443 0 466 4 9 45 20 146 38 57 10
299 -4 388 -23z m-171 -432 c78 -38 156 -148 203 -289 34 -100 38 -269 11
-383 -25 -104 -77 -219 -136 -302 -58 -81 -100 -120 -159 -146 -89 -39 -168
-9 -261 102 -19 23 -20 41 -23 471 l-3 447 45 30 c119 82 243 109 323 70z
m-390 -721 c-1 -101 -2 -19 -2 182 0 201 1 283 2 183 2 -101 2 -265 0 -365z
m14321 377 c93 -22 149 -51 199 -102 49 -51 73 -99 73 -147 0 -18 5 -37 12
-44 7 -7 8 -12 2 -12 -5 0 -7 -493 -4 -1330 4 -1102 3 -1331 -8 -1335 -19 -7
-275 -6 -545 2 l-227 6 0 306 c0 279 -2 310 -19 348 -27 58 -67 78 -156 77
-90 -2 -182 -37 -207 -80 -39 -67 -50 -141 -55 -398 l-6 -249 -236 6 c-130 4
-419 7 -643 7 -224 1 -409 4 -412 9 -9 15 133 317 211 446 156 261 236 330
448 389 50 14 110 32 135 40 25 8 77 22 115 32 105 26 271 92 348 138 37 22
90 64 118 93 121 126 138 288 84 798 -50 480 -20 672 130 820 151 150 434 229
643 180z m-14321 -587 c-3 -8 -6 -5 -6 6 -1 11 2 17 5 13 3 -3 4 -12 1 -19z
m3 -1620 l-5 -1503 -3 1490 c-2 1331 -1 1515 10 1515 2 0 1 -676 -2 -1502z
m3390 1215 c0 -4 73 -120 87 -138 4 -6 30 -40 57 -75 88 -117 307 -320 492
-457 16 -12 50 -37 77 -57 26 -20 51 -36 56 -36 5 0 11 -3 13 -8 2 -4 35 -28
73 -53 491 -320 1017 -534 1605 -653 298 -60 571 -87 950 -93 459 -8 794 21
1196 102 477 96 869 222 1414 455 100 43 478 236 564 288 37 23 70 42 73 42 2
0 31 18 63 40 32 22 63 40 69 40 5 0 11 4 13 9 2 4 42 33 89 64 48 31 93 62
100 69 8 8 42 35 77 62 104 79 240 215 279 278 41 66 49 64 59 -16 6 -42 4
-49 -32 -93 -72 -90 -226 -247 -300 -308 -266 -217 -511 -375 -839 -537 -101
-51 -291 -138 -300 -138 -2 0 -28 -11 -57 -24 -29 -13 -91 -39 -138 -56 -47
-18 -101 -38 -120 -45 -19 -8 -91 -32 -160 -53 -628 -200 -1159 -293 -1815
-318 -273 -10 -670 19 -1020 77 -755 124 -1397 362 -1957 726 -54 34 -106 69
-115 77 -10 8 -41 32 -69 53 -47 35 -82 63 -183 148 -107 89 -268 266 -338
370 -57 86 -73 134 -73 218 0 69 15 181 27 201 4 6 83 -146 83 -161z m-73
-340 c57 -81 112 -144 217 -247 81 -78 117 -111 214 -192 23 -19 24 -24 14
-50 -43 -103 -56 -343 -26 -463 32 -128 98 -232 169 -265 38 -18 121 -21 161
-6 15 6 75 42 134 80 59 39 117 70 129 70 29 0 71 -46 71 -78 0 -18 -14 -38
-47 -66 -120 -105 -163 -151 -186 -199 -35 -72 -40 -106 -27 -179 58 -324 444
-552 1016 -600 173 -14 263 -4 332 39 81 50 87 70 87 283 0 102 4 195 8 208
21 56 110 0 141 -89 76 -217 164 -308 310 -317 258 -16 485 190 587 533 l27
90 343 6 c373 7 521 19 849 69 335 51 677 132 1015 240 128 42 402 144 483
181 35 16 65 29 67 29 24 0 451 215 565 285 52 32 104 63 115 69 11 6 58 37
105 69 248 168 393 290 563 476 32 35 61 60 65 56 14 -14 6 -408 -11 -528 -49
-348 -148 -638 -336 -982 -41 -75 -132 -215 -139 -215 -3 0 -13 6 -21 14 -30
27 -126 74 -184 91 -80 23 -216 23 -292 -1 -53 -16 -172 -72 -230 -107 -78
-47 -171 -126 -370 -316 -204 -194 -231 -286 -127 -437 35 -50 63 -73 151
-121 68 -38 133 -91 155 -124 27 -43 20 -160 -12 -191 -42 -42 -177 -15 -252
51 -58 52 -93 66 -160 66 -75 0 -130 -24 -196 -84 -79 -72 -108 -165 -125
-407 -6 -87 -9 -220 -7 -294 5 -117 9 -144 33 -203 15 -38 25 -71 22 -73 -6
-6 -8 -6 -137 -22 -408 -51 -808 6 -1123 160 -101 50 -242 138 -264 166 -19
23 -15 118 8 197 11 39 27 95 36 125 19 69 13 189 -13 245 l-18 40 -7 -85 c-4
-47 -12 -98 -18 -114 l-11 -29 -113 7 c-117 7 -471 48 -567 66 -430 78 -793
174 -1082 286 -21 7 -55 20 -75 28 -275 104 -538 233 -783 384 -132 82 -273
173 -280 181 -3 4 -21 18 -40 31 -19 14 -42 30 -50 37 -8 7 -42 34 -75 60
-144 115 -310 272 -354 335 -8 13 -24 32 -34 43 -50 54 -180 278 -225 390 -97
237 -156 458 -191 722 -33 243 -53 633 -33 633 4 0 26 -26 49 -57z m658 -605
c247 -168 532 -317 860 -448 11 -4 36 -15 55 -23 204 -86 743 -233 1015 -277
238 -38 407 -61 518 -71 73 -6 135 -14 139 -18 9 -8 -44 -166 -82 -243 -57
-114 -151 -220 -235 -264 -51 -26 -123 -44 -179 -44 -130 1 -188 57 -265 255
-46 119 -122 183 -205 172 -84 -12 -106 -79 -99 -302 6 -174 -1 -200 -64 -231
-49 -24 -188 -30 -326 -14 -516 58 -850 261 -892 541 -12 78 8 124 84 198 37
36 85 82 107 101 54 47 74 78 74 117 0 81 -77 163 -153 163 -23 0 -128 -45
-137 -59 -12 -17 -128 -89 -163 -100 -28 -10 -45 -10 -70 -2 -36 13 -87 58
-87 78 0 7 -4 13 -8 13 -14 0 -51 122 -63 205 -14 102 -1 236 31 320 10 26 11
27 33 11 12 -9 63 -44 112 -78z m7105 -338 c180 -13 361 -37 419 -55 67 -22
119 -88 188 -240 53 -118 127 -340 120 -359 -6 -14 -44 -16 -304 -16 -164 0
-462 -5 -662 -11 -200 -5 -365 -9 -367 -7 -2 2 9 22 23 44 72 105 209 404 275
597 l23 67 70 -5 c39 -3 135 -10 215 -15z m2650 5 c16 -9 37 -30 47 -48 19
-37 20 -45 15 -1264 -3 -867 -6 -822 71 -888 95 -81 251 -84 291 -6 37 71 62
272 72 582 l7 216 39 26 c57 37 129 52 165 35 45 -21 52 -52 58 -227 3 -88 8
-168 12 -176 9 -26 -4 -583 -17 -680 -7 -49 -21 -114 -32 -143 -30 -81 -40
-84 -326 -80 -325 4 -322 7 -322 -229 0 -74 7 -241 15 -371 8 -130 16 -287 19
-348 4 -127 18 -167 57 -172 47 -6 53 27 54 283 0 225 1 231 25 280 21 41 35
55 81 78 30 15 71 30 91 33 34 6 36 4 52 -36 27 -67 38 -229 32 -466 -3 -120
-8 -425 -12 -677 -5 -415 -7 -462 -24 -501 -30 -72 -102 -133 -200 -171 -182
-71 -480 -71 -915 0 -242 39 -321 67 -408 145 -92 82 -136 172 -140 288 -1 40
-5 72 -8 72 -3 0 -9 37 -13 83 -4 45 -18 181 -31 302 -14 121 -27 245 -29 275
-12 157 -69 543 -91 615 -22 75 -61 114 -224 224 -141 95 -191 138 -191 166 0
22 77 130 111 155 48 35 161 35 234 -1 118 -58 246 -167 304 -258 57 -89 101
-248 101 -364 0 -115 18 -229 39 -250 19 -19 20 -19 44 5 40 40 63 192 96 623
32 426 35 550 16 875 -35 594 4 800 164 868 74 32 122 35 206 17 75 -17 78
-17 103 2 15 11 30 35 34 54 4 19 7 201 6 404 -1 386 7 491 42 571 20 47 23
49 93 75 63 22 148 24 187 4z m-11240 -120 c91 -14 190 -30 220 -34 97 -16
343 -71 408 -92 50 -17 143 -75 172 -108 3 -3 23 -21 45 -40 103 -87 153 -141
184 -196 37 -67 151 -235 179 -263 9 -10 30 -33 46 -52 l29 -33 -6 -110 c-4
-61 -11 -115 -15 -119 -5 -5 -58 -13 -118 -18 -60 -5 -163 -14 -229 -19 -343
-30 -1339 -112 -1538 -127 -253 -19 -238 -22 -257 46 -42 148 80 553 283 940
67 129 143 242 169 254 27 12 271 -4 428 -29z m7637 -611 c59 -20 153 -79 153
-96 0 -13 -83 -142 -107 -166 -7 -7 -13 -17 -13 -20 0 -4 -10 -18 -22 -32 -13
-14 -43 -52 -68 -85 -56 -74 -69 -90 -100 -125 -14 -15 -44 -50 -66 -76 -23
-27 -82 -90 -130 -140 -119 -121 -176 -186 -169 -192 3 -3 26 5 52 18 27 13
51 25 55 27 4 2 5 -81 1 -184 -5 -186 1 -271 31 -478 30 -198 15 -251 -90
-315 -133 -80 -467 -200 -727 -260 -96 -22 -98 -22 -119 -4 -11 11 -30 39 -42
64 -18 39 -21 69 -24 219 -7 288 24 516 76 576 91 105 195 122 282 45 91 -80
250 -114 328 -70 50 28 73 75 80 163 10 133 -54 216 -238 311 -51 26 -71 45
-108 100 -42 65 -43 115 -3 177 40 63 288 303 395 382 28 21 59 45 69 53 9 7
19 14 22 14 2 0 26 13 52 28 68 40 149 73 202 83 61 11 170 3 228 -17z m2893
17 l355 -6 0 -178 c0 -203 0 -203 -75 -190 -25 4 -83 8 -130 7 -70 0 -93 -4
-130 -23 -80 -42 -121 -101 -158 -226 -20 -69 -27 -461 -13 -679 6 -93 9 -171
8 -173 -2 -1 -131 9 -288 22 -156 14 -419 36 -584 49 -165 14 -349 30 -410 36
-60 6 -254 22 -430 35 -176 14 -403 32 -505 40 -253 20 -665 53 -777 61 l-93
7 1 111 c0 61 4 148 8 193 l8 83 69 71 c81 83 74 76 144 159 30 36 57 67 60
70 13 12 109 139 140 185 19 28 39 55 45 61 5 6 48 68 94 138 53 79 92 128
105 131 81 18 1829 29 2556 16z m1435 -25 c66 -3 127 -7 135 -10 13 -6 14 -98
10 -779 -3 -474 -1 -775 4 -779 17 -12 -16 -39 -43 -36 l-26 3 1 115 c2 155
-15 731 -23 800 -4 42 -13 61 -35 84 -27 27 -33 28 -91 24 -35 -3 -80 -14
-102 -26 -75 -38 -74 -35 -85 -273 -18 -407 -36 -538 -80 -589 -31 -35 -121
-40 -181 -10 -52 26 -86 56 -104 90 -22 44 -26 238 -19 826 l7 573 256 -5
c141 -2 310 -6 376 -8z m-10526 -344 c83 -72 147 -124 231 -185 36 -26 72 -53
80 -60 26 -21 228 -157 234 -157 2 0 42 -23 88 -51 118 -73 446 -237 598 -299
30 -13 73 -31 95 -41 51 -23 77 -32 312 -110 l192 -64 25 -55 c57 -127 73
-263 36 -300 -34 -34 -130 -91 -194 -116 -130 -52 -179 -59 -376 -58 -200 1
-284 12 -485 64 -98 26 -167 48 -382 124 -18 6 -33 14 -33 18 0 5 -7 8 -15 8
-24 0 -297 136 -377 189 -188 123 -290 237 -304 343 -8 58 7 112 70 243 59
124 87 230 110 415 9 69 16 131 16 138 0 20 10 14 79 -46z m-187 -177 c-4 -65
-15 -110 -54 -217 l-32 -88 -51 0 c-27 0 -144 5 -260 10 -190 9 -605 25 -1285
50 -135 4 -516 16 -847 26 -331 10 -600 20 -598 22 3 4 270 24 560 42 88 6
216 15 285 20 69 6 220 17 335 25 492 36 1370 109 1740 145 99 10 187 17 195
16 12 -1 14 -13 12 -51z m-3745 -3487 c-1 -585 -2 -107 -2 1062 0 1169 1 1647
2 1063 2 -585 2 -1541 0 -2125z m4158 2376 c329 -157 608 -242 910 -279 142
-18 345 -15 415 5 17 5 32 5 35 -1 8 -13 -42 -218 -76 -308 -61 -164 -154
-350 -217 -431 -68 -88 -163 -172 -229 -202 -62 -28 -75 -30 -149 -26 -75 4
-87 8 -154 48 -96 58 -205 162 -279 266 -34 46 -61 87 -61 90 0 3 -8 18 -19
32 -56 80 -153 300 -220 497 -24 73 -101 354 -101 371 0 7 6 5 145 -62z m5178
-496 c-17 -146 -192 -738 -255 -863 -89 -177 -227 -331 -354 -395 -61 -31 -76
-35 -149 -35 -71 0 -88 4 -150 34 -220 108 -525 569 -712 1075 -24 65 -41 121
-38 124 3 3 30 -2 61 -12 127 -40 264 -57 494 -63 176 -4 254 -2 360 12 240
29 435 71 625 134 123 41 124 40 118 -11z"/>
<path d="M12672 17930 c-138 -36 -240 -109 -295 -210 -64 -118 -50 -345 33
-510 71 -140 169 -210 310 -218 170 -10 367 104 451 261 75 140 39 341 -90
504 -58 74 -125 138 -176 167 -54 32 -126 34 -233 6z m238 -43 c145 -104 241
-253 271 -421 14 -80 8 -115 -32 -194 -79 -158 -301 -278 -467 -252 -66 11
-146 54 -183 99 -85 103 -146 295 -136 429 7 103 20 141 68 202 73 92 179 148
321 170 74 11 106 5 158 -33z"/>
<path d="M14603 20073 c9 -2 23 -2 30 0 6 3 -1 5 -18 5 -16 0 -22 -2 -12 -5z"/>
<path d="M3335 18754 c-16 -2 -70 -9 -120 -15 -219 -26 -479 -82 -564 -122
-107 -50 -250 -235 -371 -482 -165 -335 -178 -506 -46 -639 76 -77 111 -91
229 -91 53 0 97 -3 97 -7 0 -5 -4 -8 -8 -8 -10 0 -42 -65 -42 -86 0 -29 47
-61 128 -88 123 -41 169 -106 158 -227 -7 -80 3 -97 91 -154 156 -102 205
-154 212 -227 2 -16 24 -7 52 21 60 61 33 123 -108 246 -104 91 -113 106 -113
194 0 99 -15 130 -94 186 -55 39 -66 51 -66 76 0 29 43 81 94 114 29 19 55 11
146 -50 98 -65 139 -114 150 -178 4 -28 13 -64 19 -79 15 -38 75 -102 165
-173 82 -65 110 -108 121 -188 14 -103 60 -189 127 -238 35 -24 50 -29 87 -27
85 6 81 46 -15 172 -62 81 -67 91 -74 154 -10 97 -24 119 -100 167 -105 64
-177 164 -201 277 -18 83 -43 123 -104 163 -122 81 -136 112 -88 188 29 46
147 167 162 167 5 0 12 -9 16 -19 9 -29 105 -114 192 -168 148 -94 167 -119
202 -272 36 -153 56 -180 186 -253 62 -35 68 -43 125 -171 15 -32 29 -49 46
-53 41 -10 55 18 52 107 -5 119 -38 174 -162 269 -54 41 -105 87 -112 102 -8
15 -19 65 -25 110 -18 131 -34 153 -182 252 -66 44 -147 130 -147 155 1 9 8
25 18 36 25 30 134 111 174 131 l35 16 84 -68 c175 -144 170 -138 185 -245 14
-105 39 -173 77 -211 13 -14 56 -67 95 -119 38 -52 78 -101 88 -110 82 -71
151 -27 125 77 -20 79 -82 154 -189 226 -56 39 -72 79 -77 195 l-4 98 -81 75
c-44 41 -94 97 -111 124 l-30 48 41 58 c68 98 63 150 -13 150 -24 0 -28 3 -22
18 4 9 9 44 12 77 5 52 1 69 -24 125 -34 74 -93 139 -155 172 -38 19 -60 22
-178 24 -74 1 -148 0 -165 -2z m309 -36 c23 -7 60 -33 91 -63 81 -80 120 -185
95 -260 -24 -73 -128 -165 -187 -165 -51 0 -101 -31 -183 -115 -41 -42 -96
-90 -122 -107 -26 -17 -45 -35 -42 -40 10 -17 90 38 179 123 99 95 111 103
170 114 51 9 82 25 131 69 46 43 70 51 107 37 28 -11 28 -11 11 -43 -9 -18
-30 -52 -45 -75 -16 -23 -29 -51 -29 -64 0 -28 78 -137 127 -177 92 -76 90
-72 96 -180 7 -136 25 -169 128 -233 79 -49 144 -153 137 -220 -7 -74 -75 -39
-158 81 -21 30 -62 83 -92 117 -61 70 -73 102 -90 230 -13 103 -13 103 -181
237 l-108 87 -68 -36 c-37 -20 -93 -59 -125 -86 -61 -55 -68 -76 -41 -133 17
-35 107 -119 152 -143 58 -30 113 -80 131 -118 11 -22 23 -74 26 -115 10 -96
34 -138 110 -192 139 -99 181 -159 192 -275 9 -103 -30 -113 -66 -16 -35 95
-55 119 -130 159 -76 39 -117 75 -132 114 -6 14 -21 66 -33 115 -42 161 -67
197 -186 270 -135 82 -219 159 -219 199 0 63 -167 -77 -226 -190 -42 -78 -25
-111 94 -191 71 -48 88 -72 107 -154 30 -133 87 -215 200 -289 73 -48 95 -76
95 -122 1 -70 21 -120 76 -191 75 -96 88 -121 69 -137 -36 -30 -136 34 -176
112 -11 22 -29 80 -40 130 -10 50 -26 102 -34 114 -8 12 -49 50 -92 85 -43 34
-95 80 -116 103 -36 39 -67 114 -67 161 0 42 -66 111 -170 179 -98 65 -120 70
-166 38 -45 -30 -91 -79 -100 -105 -10 -33 5 -64 48 -99 23 -18 57 -48 75 -66
32 -32 33 -36 33 -114 0 -99 12 -120 112 -209 140 -125 163 -160 133 -206
l-18 -27 -18 35 c-22 45 -91 107 -176 163 -105 68 -117 84 -109 148 14 114
-48 215 -150 248 -22 7 -61 22 -88 33 -46 19 -48 22 -43 53 8 45 71 119 132
154 78 45 199 150 186 163 -7 7 -24 -2 -54 -29 -75 -67 -93 -81 -161 -119 -70
-39 -150 -65 -202 -65 -92 0 -201 74 -245 167 -56 117 -37 235 77 484 131 288
290 490 423 539 107 41 436 102 641 119 119 11 247 6 304 -11z"/>
<path d="M3312 18441 c-18 -5 -50 -20 -71 -34 -113 -75 -143 -127 -114 -201 9
-22 21 -45 27 -49 17 -12 109 1 163 24 110 46 158 105 151 184 -5 63 -74 96
-156 76z m101 -22 c30 -16 37 -28 37 -68 0 -69 -56 -123 -169 -162 -98 -34
-131 -21 -147 59 -6 29 -1 37 53 89 80 79 170 111 226 82z"/>
<path d="M2860 18414 c-67 -30 -106 -79 -95 -121 10 -43 24 -53 69 -53 43 0
92 26 149 78 52 49 26 122 -43 122 -14 0 -50 -12 -80 -26z m118 -6 c31 -31 5
-79 -65 -122 -74 -46 -147 -26 -128 35 20 62 156 124 193 87z"/>
<path d="M2564 18264 c-123 -83 -154 -125 -154 -212 0 -92 53 -103 177 -39 73
38 116 75 139 118 14 28 14 38 3 71 -28 87 -92 111 -165 62z m107 -4 c23 -13
49 -61 49 -91 0 -68 -190 -194 -266 -175 -21 6 -24 12 -24 57 0 58 15 92 62
136 78 74 134 97 179 73z"/>
<path d="M2859 18094 c-33 -21 -69 -74 -69 -102 0 -29 38 -62 72 -62 89 0 165
114 110 163 -23 21 -79 21 -113 1z m109 -42 c3 -26 -3 -39 -31 -67 -41 -41
-85 -47 -117 -15 -24 24 -19 37 30 88 27 29 37 33 73 30 39 -3 42 -5 45 -36z"/>
<path d="M2595 17933 c-93 -17 -234 -112 -260 -176 -21 -53 -19 -81 11 -116
48 -58 152 -64 226 -14 63 42 144 189 132 237 -10 42 -65 77 -109 69z m69 -44
c14 -17 26 -36 26 -42 0 -18 -47 -114 -71 -149 -34 -48 -106 -88 -156 -88 -48
0 -109 33 -119 63 -21 66 42 146 168 211 87 45 118 46 152 5z"/>
<path d="M5694 18485 c-86 -43 -139 -105 -174 -203 -29 -79 -24 -165 13 -243
51 -109 122 -160 231 -167 93 -6 154 14 219 69 183 157 157 449 -48 545 -71
34 -173 33 -241 -1z m236 -25 c51 -26 78 -52 116 -111 26 -40 28 -52 29 -134
0 -79 -4 -97 -28 -147 -66 -135 -200 -202 -328 -164 -72 21 -121 63 -158 138
-49 98 -42 212 21 311 76 119 231 167 348 107z"/>
<path d="M5682 18387 c-71 -40 -117 -194 -73 -248 17 -21 21 -22 44 -10 17 9
27 25 31 50 3 20 22 62 41 94 40 66 43 87 17 110 -22 20 -30 20 -60 4z m56
-19 c14 -14 16 -48 4 -48 -13 0 -58 -88 -71 -137 -9 -31 -17 -43 -30 -43 -32
0 -43 24 -35 77 9 63 27 103 60 136 29 29 53 34 72 15z"/>
<path d="M6021 18200 c-2 -42 -29 -119 -52 -151 -11 -16 -39 -39 -61 -50 -41
-21 -46 -36 -8 -24 65 21 136 142 127 217 -3 25 -4 27 -6 8z"/>
<path d="M5705 17972 c15 -15 105 -27 105 -13 0 6 -15 11 -32 11 -18 0 -44 3
-58 6 -17 5 -22 3 -15 -4z"/>
<path d="M1689 16057 c-66 -25 -108 -66 -149 -147 -30 -58 -33 -168 -6 -218
33 -64 85 -111 139 -127 64 -19 81 -19 146 1 61 18 131 81 156 140 54 131 8
281 -106 340 -44 22 -135 28 -180 11z m134 -18 c127 -35 189 -201 124 -330
-60 -117 -175 -162 -292 -113 -125 52 -157 249 -58 364 64 74 144 102 226 79z"/>
<path d="M1641 15951 c-16 -15 -34 -45 -41 -67 -14 -47 -10 -117 8 -120 7 -1
8 0 2 3 -13 6 -13 68 0 112 12 42 47 81 72 81 31 0 31 -25 -1 -84 -17 -31 -31
-64 -31 -74 0 -9 16 16 36 56 39 80 40 101 7 113 -17 6 -29 2 -52 -20z"/>
<path d="M1925 15798 c-4 -24 -14 -55 -21 -70 -19 -36 -61 -78 -79 -78 -8 0
-15 -5 -15 -10 0 -26 83 37 105 80 14 27 31 120 22 120 -3 0 -8 -19 -12 -42z"/>
<path d="M1635 15770 c-3 -5 -1 -10 4 -10 6 0 11 5 11 10 0 6 -2 10 -4 10 -3
0 -8 -4 -11 -10z"/>
<path d="M1685 15630 c3 -5 25 -10 47 -10 51 0 47 5 -10 14 -29 4 -41 3 -37
-4z"/>
<path d="M5780 15193 c-87 -33 -134 -147 -96 -236 46 -111 189 -119 266 -15
32 44 39 129 13 178 -33 64 -118 97 -183 73z m103 -19 c96 -50 111 -171 31
-249 -61 -60 -134 -59 -190 2 -45 49 -54 108 -25 164 27 51 41 66 83 84 43 19
62 18 101 -1z"/>
<path d="M3465 14701 c-65 -16 -105 -58 -120 -128 -25 -120 107 -217 205 -151
39 26 80 98 80 141 0 50 -61 137 -97 137 -6 0 -17 2 -25 4 -7 2 -26 1 -43 -3z
m93 -31 c41 -25 55 -61 50 -128 -10 -117 -126 -167 -212 -91 -59 51 -53 146
12 206 43 40 98 44 150 13z"/>
<path d="M1464 12359 c-89 -26 -163 -143 -150 -236 14 -108 85 -172 191 -174
47 -1 63 3 98 27 91 64 127 168 91 262 -38 101 -131 150 -230 121z m154 -45
c155 -119 30 -395 -157 -344 -142 38 -174 220 -60 333 10 9 23 17 29 17 5 0
10 4 10 9 0 13 46 20 99 15 28 -3 57 -14 79 -30z"/>
<path d="M1409 12263 c-13 -16 -12 -17 4 -4 16 13 21 21 13 21 -2 0 -10 -8
-17 -17z"/>
<path d="M1426 12165 c-3 -9 -6 -22 -5 -28 0 -7 5 -1 10 12 5 13 8 26 5 28 -2
2 -6 -3 -10 -12z"/>
<path d="M1371 12144 c0 -11 3 -14 6 -6 3 7 2 16 -1 19 -3 4 -6 -2 -5 -13z"/>
<path d="M1483 12003 c9 -2 23 -2 30 0 6 3 -1 5 -18 5 -16 0 -22 -2 -12 -5z"/>
<path d="M2863 8241 c-23 -11 -50 -32 -59 -48 -10 -15 -23 -31 -29 -35 -5 -4
-10 -39 -10 -77 0 -55 4 -75 21 -97 89 -120 260 -82 293 65 18 83 -13 157 -83
191 -52 25 -79 25 -133 1z m144 -23 c61 -42 81 -149 39 -213 -30 -45 -82 -77
-129 -77 -101 -2 -163 95 -131 203 29 97 141 141 221 87z"/>
<path d="M9143 16853 c-40 -44 -47 -54 -60 -88 -19 -49 -26 -102 -14 -110 33
-20 88 47 118 143 16 48 16 54 1 69 -15 15 -19 14 -45 -14z"/>
<path d="M8269 15519 c-30 -11 -55 -73 -44 -108 6 -21 4 -23 -27 -21 -82 5
-116 -15 -123 -72 -5 -32 -2 -35 112 -118 155 -111 307 -223 313 -230 3 -3 32
-25 65 -48 70 -49 102 -52 136 -16 20 21 24 36 24 85 l0 59 34 0 c39 0 60 22
61 63 1 99 -204 293 -396 375 -87 36 -121 43 -155 31z m167 -122 c73 -37 172
-112 237 -179 68 -71 77 -102 20 -67 -21 12 -42 26 -47 31 -15 12 -80 10 -94
-4 -22 -22 -12 -47 44 -107 43 -46 55 -66 52 -86 -3 -26 -6 -24 -118 60 -63
48 -169 125 -234 173 -124 89 -138 117 -32 63 68 -34 103 -33 112 4 7 27 -7
56 -47 98 -28 29 -35 47 -23 60 7 7 66 -13 130 -46z"/>
<path d="M8686 12655 c-30 -30 -6 -55 84 -89 46 -17 85 -36 87 -41 3 -10 -405
-216 -457 -231 -14 -4 -54 -20 -89 -36 -192 -87 -580 -194 -856 -234 -166 -25
-503 -25 -635 -1 -192 35 -356 88 -506 164 -72 36 -99 38 -110 8 -4 -9 1 -24
10 -34 17 -19 195 -111 214 -111 51 0 68 -301 27 -473 -18 -78 -54 -176 -93
-257 -24 -51 -119 -209 -132 -220 -3 -3 -21 -25 -40 -50 -19 -25 -73 -85 -121
-134 l-87 -89 -40 31 c-22 18 -68 64 -102 102 -65 73 -91 85 -110 49 -16 -28
2 -53 120 -170 373 -370 914 -502 1495 -364 93 22 239 69 310 99 17 7 46 19
65 27 59 23 256 127 327 174 280 182 498 431 668 765 120 236 221 538 270 810
10 52 19 97 21 98 5 7 110 -76 141 -112 38 -45 76 -47 81 -6 2 20 -11 40 -55
87 -86 91 -246 182 -417 237 -60 19 -51 19 -70 1z m234 -216 c0 -24 -42 -229
-63 -309 -16 -57 -86 -269 -110 -330 -77 -197 -223 -456 -325 -579 l-28 -33
-70 22 c-140 43 -338 60 -476 40 -64 -9 -200 -49 -235 -69 -11 -6 -33 -4 -62
4 -268 78 -595 51 -794 -66 -113 -67 -232 -170 -304 -264 -38 -49 -133 -203
-133 -215 0 -20 -22 -20 -62 1 -70 34 -208 123 -208 133 0 5 39 50 88 100 107
112 161 182 239 311 59 98 118 238 148 352 28 103 39 258 28 363 -6 52 -9 97
-7 99 2 3 55 -7 117 -22 169 -39 264 -50 462 -50 356 0 714 71 1130 225 176
65 498 214 610 282 50 30 55 31 55 5z m-764 -1270 c85 -15 174 -40 174 -50 0
-6 -99 -106 -164 -164 -21 -19 -171 -122 -206 -141 -19 -10 -37 -21 -40 -24
-13 -13 -194 -102 -275 -136 -233 -96 -445 -143 -685 -151 -184 -6 -283 4
-442 43 -143 36 -142 36 -117 82 156 281 349 439 615 503 78 19 109 21 249 16
99 -3 175 -10 198 -19 l39 -14 -44 -40 c-58 -53 -143 -162 -134 -171 4 -4 17
4 30 17 86 90 319 216 451 244 83 17 268 20 351 5z"/>
<path d="M11680 11316 c-46 -30 -90 -94 -90 -130 0 -27 2 -28 39 -23 63 8 141
92 141 151 0 22 -4 26 -27 25 -16 0 -44 -11 -63 -23z"/>
<path d="M6015 10065 c-39 -20 -95 -83 -95 -107 0 -28 28 -33 67 -13 100 54
128 170 28 120z"/>
<path d="M4661 8941 c-44 -44 -57 -76 -47 -116 19 -76 162 33 154 117 -3 29
-7 33 -35 36 -26 3 -39 -4 -72 -37z"/>
<path d="M7357 8282 c-24 -26 -38 -72 -39 -125 0 -51 14 -77 42 -77 51 0 101
142 70 201 -13 24 -52 25 -73 1z"/>
<path d="M5925 7856 c-55 -38 -74 -58 -92 -99 -40 -88 18 -206 125 -254 47
-22 61 -24 124 -18 67 7 99 16 176 51 35 16 44 52 17 74 -12 10 -28 7 -82 -15
-71 -28 -147 -41 -185 -32 -30 8 -96 70 -108 102 -18 47 24 106 101 145 21 11
39 27 39 34 0 56 -44 60 -115 12z"/>
<path d="M5641 7771 c-14 -26 -14 -67 3 -177 49 -325 304 -460 644 -341 169
59 278 146 270 215 -2 23 -8 27 -33 27 -20 0 -33 -7 -41 -22 -48 -98 -247
-183 -424 -183 -225 0 -342 144 -353 435 -2 57 -3 60 -29 63 -18 2 -30 -3 -37
-17z"/>
<path d="M14631 13029 c-158 -79 -224 -277 -148 -442 29 -64 69 -107 130 -139
34 -18 58 -23 127 -23 76 0 91 3 138 29 62 35 101 76 140 149 24 47 27 62 27
157 0 118 -14 157 -80 223 -56 56 -109 77 -197 77 -64 0 -84 -5 -137 -31z
m221 -4 c56 -20 124 -84 152 -144 32 -71 29 -178 -8 -259 -129 -280 -516 -205
-516 100 0 214 187 366 372 303z"/>
<path d="M14605 12917 c-78 -78 -83 -267 -7 -243 15 5 26 24 37 62 9 30 29 75
45 101 34 53 37 75 14 97 -24 25 -53 19 -89 -17z m90 -8 c4 -12 1 -27 -8 -37
-21 -25 -59 -102 -66 -136 -9 -41 -38 -57 -57 -31 -29 38 11 176 61 211 29 21
63 18 70 -7z"/>
<path d="M14962 12710 c-12 -67 -63 -143 -107 -160 -22 -8 -43 -30 -29 -30 22
0 85 48 107 82 25 39 53 136 45 160 -2 6 -9 -17 -16 -52z"/>
<path d="M14660 12520 c14 -9 109 -15 99 -6 -2 2 -29 6 -59 9 -37 4 -50 3 -40
-3z"/>
<path d="M14407 11010 c-116 -35 -185 -207 -127 -319 81 -159 305 -137 370 36
11 30 20 67 20 82 0 37 -24 105 -51 143 -40 56 -134 81 -212 58z m143 -30 c22
-11 51 -38 65 -59 87 -131 -15 -321 -173 -321 -36 0 -98 37 -128 76 -33 42
-44 129 -24 188 36 110 162 166 260 116z"/>
<path d="M14398 10933 c7 -3 16 -2 19 1 4 3 -2 6 -13 5 -11 0 -14 -3 -6 -6z"/>
<path d="M14360 10919 c0 -5 5 -7 10 -4 6 3 10 8 10 11 0 2 -4 4 -10 4 -5 0
-10 -5 -10 -11z"/>
<path d="M14421 10894 c0 -11 3 -14 6 -6 3 7 2 16 -1 19 -3 4 -6 -2 -5 -13z"/>
<path d="M14335 10879 c-4 -6 -5 -12 -2 -15 2 -3 7 2 10 11 7 17 1 20 -8 4z"/>
<path d="M14324 10811 c1 -30 6 -46 16 -48 10 -3 11 -2 3 4 -6 4 -13 26 -16
48 -4 40 -4 40 -3 -4z"/>
<path d="M14372 10791 c-6 -17 -9 -31 -6 -31 7 0 25 52 20 57 -2 2 -8 -10 -14
-26z"/>
<path d="M14586 10723 c-6 -14 -5 -15 5 -6 7 7 10 15 7 18 -3 3 -9 -2 -12 -12z"/>
<path d="M14557 10693 c-4 -3 -7 -11 -7 -17 0 -6 5 -5 12 2 6 6 9 14 7 17 -3
3 -9 2 -12 -2z"/>
<path d="M14428 10643 c12 -2 30 -2 40 0 9 3 -1 5 -23 4 -22 0 -30 -2 -17 -4z"/>
<path d="M13086 9905 c-48 -17 -105 -62 -127 -101 -27 -45 -42 -126 -35 -177
4 -25 20 -65 36 -89 89 -134 280 -124 366 20 62 102 52 213 -25 292 -64 67
-133 84 -215 55z m152 -29 c73 -38 118 -128 105 -210 -27 -179 -218 -264 -336
-149 -34 33 -67 108 -67 153 0 43 32 118 67 156 65 70 154 90 231 50z"/>
<path d="M13048 9819 c-10 -5 -18 -15 -18 -20 0 -6 7 -3 16 5 32 33 70 4 46
-35 -17 -26 -15 -33 4 -15 22 22 15 70 -11 73 -11 2 -28 -2 -37 -8z"/>
<path d="M13003 9755 c-3 -9 -3 -18 -1 -21 3 -3 8 4 11 16 6 23 -1 27 -10 5z"/>
<path d="M13060 9709 c-7 -11 -10 -23 -7 -25 2 -2 9 7 15 21 14 30 7 33 -8 4z"/>
<path d="M12992 9690 c-1 -19 2 -41 7 -48 12 -19 45 -11 47 11 2 13 1 14 -3 2
-9 -31 -38 -11 -44 30 l-6 40 -1 -35z"/>
<path d="M13302 9660 c0 -14 2 -19 5 -12 2 6 2 18 0 25 -3 6 -5 1 -5 -13z"/>
<path d="M13276 9595 c-9 -26 -7 -32 5 -12 6 10 9 21 6 23 -2 3 -7 -2 -11 -11z"/>
<path d="M13240 9555 c-8 -9 -8 -15 -2 -15 12 0 26 19 19 26 -2 2 -10 -2 -17
-11z"/>
<path d="M13098 9513 c12 -2 30 -2 40 0 9 3 -1 5 -23 4 -22 0 -30 -2 -17 -4z"/>
<path d="M13595 8252 c-70 -33 -105 -94 -105 -182 0 -83 39 -140 113 -166 61
-22 115 -11 167 33 52 45 70 85 70 158 0 65 -15 98 -61 140 -43 38 -123 45
-184 17z m132 -7 c40 -8 89 -71 98 -126 12 -73 -37 -168 -101 -195 -129 -54
-251 58 -214 195 21 77 110 148 170 136 8 -2 29 -6 47 -10z"/>
<path d="M13569 8173 l-24 -28 28 24 c15 14 27 26 27 28 0 8 -8 1 -31 -24z"/>
<path d="M13541 8094 c0 -11 3 -14 6 -6 3 7 2 16 -1 19 -3 4 -6 -2 -5 -13z"/>
<path d="M13638 7943 c6 -2 18 -2 25 0 6 3 1 5 -13 5 -14 0 -19 -2 -12 -5z"/>
<path d="M6910 13992 c-47 -25 -107 -105 -125 -166 -21 -70 -19 -181 4 -231
20 -45 62 -95 80 -95 6 0 11 -4 11 -10 0 -5 20 -10 45 -10 129 0 234 134 235
299 0 84 -16 134 -60 183 -34 38 -41 42 -96 45 -45 3 -67 0 -94 -15z"/>
<path d="M7883 13909 c-45 -13 -115 -84 -144 -144 -18 -38 -25 -71 -27 -138
-4 -78 -1 -93 22 -140 29 -61 91 -107 143 -107 72 0 146 58 190 149 25 49 28
67 28 151 0 75 -4 103 -20 134 -40 79 -119 118 -192 95z"/>
<path d="M4095 12550 c-20 -32 48 -95 113 -106 77 -12 63 49 -22 91 -53 27
-81 31 -91 15z"/>
<path d="M14152 6570 c0 -14 2 -19 5 -12 2 6 2 18 0 25 -3 6 -5 1 -5 -13z"/>
<path d="M14145 6519 c-3 -8 -1 -34 4 -59 l9 -45 1 37 c1 20 7 38 14 41 9 3 7
9 -5 23 -14 14 -18 15 -23 3z"/>
<path d="M13747 5464 c-14 -15 -6 -34 14 -34 14 0 19 5 17 17 -3 18 -20 27
-31 17z"/>
<path d="M13693 5443 c9 -2 23 -2 30 0 6 3 -1 5 -18 5 -16 0 -22 -2 -12 -5z"/>
<path d="M13798 5443 c7 -3 16 -2 19 1 4 3 -2 6 -13 5 -11 0 -14 -3 -6 -6z"/>
<path d="M13848 5443 c7 -3 16 -2 19 1 4 3 -2 6 -13 5 -11 0 -14 -3 -6 -6z"/>
<path d="M14272 5248 c-19 -19 -14 -28 14 -28 21 0 24 3 15 13 -6 8 -8 17 -4
20 3 4 2 7 -3 7 -6 0 -15 -5 -22 -12z"/>
<path d="M14282 5175 c0 -16 2 -22 5 -12 2 9 2 23 0 30 -3 6 -5 -1 -5 -18z"/>
<path d="M15042 5150 c0 -19 2 -27 5 -17 2 9 2 25 0 35 -3 9 -5 1 -5 -18z"/>
<path d="M15042 5104 c-16 -11 -20 -19 -13 -27 5 -7 11 -28 14 -47 l4 -35 1
38 c1 20 6 37 11 37 6 0 12 50 6 50 0 0 -11 -7 -23 -16z"/>
<path d="M14938 5083 c7 -3 16 -2 19 1 4 3 -2 6 -13 5 -11 0 -14 -3 -6 -6z"/>
<path d="M13762 4732 c-1 -24 -6 -41 -10 -38 -4 2 -8 -4 -8 -15 0 -10 4 -19 8
-19 4 0 9 -19 10 -42 1 -41 1 -41 5 -8 3 19 9 40 14 46 5 6 5 14 -1 20 -5 5
-10 29 -13 54 l-4 45 -1 -43z"/>
<path d="M14870 4360 c-1 -25 -2 -48 -1 -52 0 -5 -6 -8 -14 -8 -12 0 -12 -3 3
-18 9 -10 20 -14 23 -9 4 5 22 13 40 17 l34 8 -32 1 c-34 1 -38 7 -46 76 -3
23 -5 19 -7 -15z"/>
<path d="M14783 4293 c9 -2 25 -2 35 0 9 3 1 5 -18 5 -19 0 -27 -2 -17 -5z"/>
<path d="M14968 4293 c7 -3 16 -2 19 1 4 3 -2 6 -13 5 -11 0 -14 -3 -6 -6z"/>
<path d="M14872 4230 c0 -14 2 -19 5 -12 2 6 2 18 0 25 -3 6 -5 1 -5 -13z"/>
<path d="M12994 3941 c-11 -27 -10 -28 17 -25 17 2 29 -1 29 -8 0 -6 3 -9 6
-6 7 7 -24 68 -34 68 -4 0 -12 -13 -18 -29z"/>
<path d="M14161 3753 c0 -23 -5 -45 -11 -48 -5 -3 -10 -13 -10 -21 0 -8 5 -12
10 -9 6 4 10 -11 11 -37 l1 -43 8 50 c4 28 4 73 0 100 l-7 50 -2 -42z"/>
<path d="M14802 3303 c-1 -23 -7 -45 -12 -48 -7 -5 -8 -11 -1 -18 5 -7 11 -28
14 -47 l4 -35 1 37 c1 20 8 39 15 41 9 4 9 7 0 14 -6 5 -13 29 -16 53 l-4 45
-1 -42z"/>
<path d="M13172 3085 c-1 -23 -7 -46 -13 -52 -15 -15 -3 -33 21 -33 10 0 20
-3 23 -7 2 -5 2 -1 -1 7 -3 8 -5 23 -6 32 0 9 -4 15 -8 12 -4 -2 -9 15 -11 38
l-4 43 -1 -40z"/>
<path d="M13918 2889 c7 -9 10 -24 6 -33 -4 -11 -1 -16 13 -16 28 0 34 10 22
32 -6 11 -13 17 -16 14 -4 -3 -13 0 -22 7 -14 10 -14 10 -3 -4z"/>
<path d="M13868 2853 c7 -3 16 -2 19 1 4 3 -2 6 -13 5 -11 0 -14 -3 -6 -6z"/>
<path d="M13242 2329 c-9 -14 -10 -24 -4 -28 6 -3 12 -20 15 -36 l4 -30 2 34
c1 29 3 32 16 21 13 -11 14 -10 9 3 -5 13 3 17 43 20 l48 3 -57 2 c-42 2 -57
6 -60 17 -2 12 -6 11 -16 -6z"/>
<path d="M14752 2210 c0 -19 2 -27 5 -17 2 9 2 25 0 35 -3 9 -5 1 -5 -18z"/>
<path d="M14741 2151 c-13 -23 7 -45 28 -32 10 7 11 13 2 30 -14 26 -18 26
-30 2z"/>
<path d="M14658 2133 c12 -2 32 -2 45 0 12 2 2 4 -23 4 -25 0 -35 -2 -22 -4z"/>
<path d="M14790 2101 c0 -6 4 -13 10 -16 6 -3 7 1 4 9 -7 18 -14 21 -14 7z"/>
<path d="M13826 1934 c-10 -26 -7 -31 14 -30 23 1 24 4 15 29 -9 21 -21 22
-29 1z"/>
<path d="M11594 5879 c-3 -6 -2 -15 3 -20 5 -5 9 -1 9 11 0 23 -2 24 -12 9z"/>
<path d="M11668 5843 c17 -2 47 -2 65 0 17 2 3 4 -33 4 -36 0 -50 -2 -32 -4z"/>
<path d="M11098 5283 c7 -3 16 -2 19 1 4 3 -2 6 -13 5 -11 0 -14 -3 -6 -6z"/>
<path d="M12718 4963 c7 -3 16 -2 19 1 4 3 -2 6 -13 5 -11 0 -14 -3 -6 -6z"/>
<path d="M14558 5673 c12 -2 32 -2 45 0 12 2 2 4 -23 4 -25 0 -35 -2 -22 -4z"/>
<path d="M5120 3836 c-36 -45 33 -211 74 -177 23 20 20 88 -6 141 -25 48 -47
60 -68 36z"/>
<path d="M3400 4817 c-50 -13 -64 -39 -30 -57 33 -18 187 -24 253 -11 50 11
57 15 57 36 0 20 -7 24 -63 34 -79 14 -159 13 -217 -2z m248 -26 c13 -7 6 -12
-28 -21 -51 -14 -206 -9 -236 8 -20 11 -17 13 56 26 37 7 190 -3 208 -13z"/>
<path d="M2092 4670 c-12 -11 -26 -38 -32 -59 -16 -61 -29 -223 -30 -365 l0
-130 -50 56 c-81 91 -174 128 -271 107 -95 -20 -169 -102 -169 -187 0 -50 23
-73 113 -116 83 -40 186 -122 237 -188 89 -117 249 -153 350 -80 153 112 211
139 395 187 101 26 155 59 155 94 0 32 -41 83 -83 101 -91 42 -263 14 -344
-55 -23 -19 -43 -35 -45 -35 -2 0 1 39 8 88 17 116 17 289 0 383 -18 102 -61
179 -113 208 -35 18 -96 14 -121 -9z m108 -15 c103 -53 140 -310 91 -620 -21
-131 -16 -180 12 -114 60 145 328 219 429 119 54 -55 32 -85 -87 -114 -177
-44 -264 -81 -355 -151 -114 -87 -158 -100 -240 -67 -70 28 -102 51 -140 99
-54 69 -157 150 -246 194 -120 59 -133 110 -48 195 93 93 227 80 336 -33 52
-54 80 -123 87 -217 3 -44 11 -81 16 -83 7 -2 10 114 11 339 0 378 6 431 55
455 31 16 44 16 79 -2z"/>
<path d="M2110 4475 c0 -8 2 -15 4 -15 2 0 6 7 10 15 3 8 1 15 -4 15 -6 0 -10
-7 -10 -15z"/>
<path d="M2132 4395 c0 -16 2 -22 5 -12 2 9 2 23 0 30 -3 6 -5 -1 -5 -18z"/>
<path d="M2115 4280 c3 -5 8 -10 11 -10 2 0 4 5 4 10 0 6 -5 10 -11 10 -5 0
-7 -4 -4 -10z"/>
<path d="M11050 4179 c-98 -11 -134 -22 -138 -42 -5 -25 31 -37 153 -49 85 -8
148 -8 241 0 123 11 154 20 154 48 0 22 -40 33 -158 44 -119 11 -144 11 -252
-1z m249 -19 c185 -17 187 -34 6 -52 -111 -11 -327 0 -356 18 -25 15 14 26
117 33 60 5 111 9 114 9 3 1 56 -3 119 -8z"/>
<path d="M6760 3605 c-8 -2 -32 -6 -52 -10 -29 -4 -38 -11 -38 -25 0 -14 10
-21 38 -27 60 -13 304 -9 330 5 57 32 3 53 -148 58 -63 1 -122 1 -130 -1z
m250 -30 c20 -13 -42 -24 -135 -24 -136 -1 -231 21 -137 32 61 8 257 2 272 -8z"/>
<path d="M3945 3575 c-22 -8 -41 -15 -42 -15 -2 0 -3 -8 -3 -19 0 -11 11 -23
28 -29 106 -41 288 -14 267 40 -14 35 -173 50 -250 23z m217 -23 c19 -19 -2
-30 -66 -37 -64 -7 -176 9 -176 25 0 26 217 37 242 12z"/>
<path d="M1208 3498 c-16 -5 -28 -15 -28 -23 0 -24 28 -36 97 -41 113 -9 189
30 123 63 -29 15 -153 16 -192 1z m176 -14 c29 -11 17 -23 -29 -30 -80 -12
-199 13 -137 29 26 7 148 8 166 1z"/>
<path d="M12150 3277 c-38 -10 -45 -16 -45 -37 0 -39 62 -52 226 -48 108 3
141 7 162 21 34 22 34 32 1 54 -34 22 -275 29 -344 10z m301 -19 c22 -6 39
-14 39 -18 0 -16 -85 -30 -181 -30 -149 0 -226 26 -146 49 46 13 243 13 288
-1z"/>
<path d="M3020 2815 c-58 -17 -72 -29 -68 -60 2 -13 19 -25 53 -38 41 -15 72
-18 170 -15 136 3 178 17 183 59 2 20 -4 28 -35 43 -53 26 -228 32 -303 11z
m286 -27 c70 -34 25 -60 -113 -66 -114 -5 -179 2 -208 24 -17 13 -17 16 -4 29
8 9 35 20 60 25 60 12 231 5 265 -12z"/>
<path d="M6415 2770 c-116 -11 -175 -33 -175 -65 0 -22 10 -29 74 -49 10 -4
63 -11 117 -17 181 -18 406 20 397 68 -10 53 -208 83 -413 63z m220 -20 c114
-10 178 -29 167 -47 -10 -17 -110 -40 -202 -48 -124 -10 -340 22 -340 50 0 16
69 36 155 45 99 10 108 10 220 0z"/>
<path d="M9999 2515 c-78 -16 -108 -32 -115 -62 -8 -29 0 -40 46 -63 105 -54
374 -52 489 3 129 62 -9 138 -249 136 -58 -1 -135 -7 -171 -14z m335 -20 c69
-15 116 -37 116 -55 0 -30 -162 -70 -278 -70 -138 1 -267 34 -267 69 0 22 54
49 116 60 85 14 237 12 313 -4z"/>
<path d="M12601 1747 c-51 -14 -71 -37 -53 -60 20 -24 93 -37 205 -37 166 0
242 38 170 86 -35 22 -254 30 -322 11z m308 -26 c23 -13 24 -14 7 -27 -55 -40
-392 -25 -350 16 32 31 292 39 343 11z"/>
<path d="M1270 1621 c-72 -11 -92 -20 -88 -40 6 -28 107 -42 268 -37 80 3 159
9 175 14 45 13 44 38 -2 52 -49 14 -282 21 -353 11z m342 -30 c21 -8 20 -9
-17 -17 -59 -13 -346 -11 -370 3 -21 12 -18 13 80 27 47 7 281 -3 307 -13z"/>
<path d="M7785 1369 c-113 -17 -156 -40 -132 -73 43 -59 495 -76 652 -24 55
18 61 52 13 72 -78 33 -381 47 -533 25z m489 -31 c96 -27 62 -49 -106 -69
-180 -21 -493 5 -493 40 0 16 30 27 115 41 80 13 424 5 484 -12z"/>
<path d="M10073 1369 c-18 -5 -33 -16 -33 -24 0 -29 43 -40 155 -40 137 0 185
9 185 35 0 14 -11 22 -37 29 -46 13 -226 13 -270 0z m261 -18 c27 -10 11 -18
-57 -26 -101 -13 -266 12 -184 28 38 7 221 6 241 -2z"/>
<path d="M4235 1083 c-11 -2 -43 -8 -71 -14 -55 -11 -97 -41 -88 -63 27 -69
445 -90 596 -29 28 11 38 21 38 38 0 47 -127 76 -330 74 -69 -1 -134 -3 -145
-6z m325 -24 c73 -11 130 -29 130 -41 0 -43 -293 -75 -451 -49 -139 23 -175
48 -102 72 85 28 303 38 423 18z"/>
<path d="M13274 890 c0 -107 2 -151 3 -97 2 53 2 141 0 195 -1 53 -3 9 -3 -98z"/>
<path d="M10147 1051 c-2 -11 -1 -23 3 -28 5 -4 10 -21 13 -38 2 -17 5 -5 6
28 1 55 -11 77 -22 38z"/>
<path d="M11686 1048 c1 -13 3 -26 3 -30 2 -14 19 -8 25 8 6 16 -9 44 -24 44
-3 0 -6 -10 -4 -22z"/>
<path d="M12026 1063 c-11 -11 -6 -23 9 -23 8 0 15 4 15 9 0 13 -16 22 -24 14z"/>
<path d="M12903 1015 c0 -33 2 -45 4 -27 2 18 2 45 0 60 -2 15 -4 0 -4 -33z"/>
<path d="M9813 1044 c-3 -8 -1 -25 5 -37 10 -20 11 -18 11 16 1 39 -5 48 -16
21z"/>
<path d="M11061 1003 c0 -21 4 -47 9 -58 6 -14 9 -4 9 38 1 32 -3 57 -9 57 -5
0 -10 -17 -9 -37z"/>
<path d="M12031 1014 c0 -11 3 -14 6 -6 3 7 2 16 -1 19 -3 4 -6 -2 -5 -13z"/>
<path d="M10111 1002 c-6 -12 -11 -27 -11 -34 1 -7 8 0 16 15 9 16 13 31 11
34 -3 2 -10 -4 -16 -15z"/>
<path d="M11991 1004 c0 -11 3 -14 6 -6 3 7 2 16 -1 19 -3 4 -6 -2 -5 -13z"/>
<path d="M11750 980 c6 -11 12 -20 14 -20 2 0 2 9 -1 20 -3 11 -9 20 -15 20
-5 0 -4 -9 2 -20z"/>
<path d="M9880 970 c0 -5 5 -10 11 -10 5 0 7 5 4 10 -3 6 -8 10 -11 10 -2 0
-4 -4 -4 -10z"/>
<path d="M11684 969 c-3 -6 -1 -16 5 -22 8 -8 11 -5 11 11 0 24 -5 28 -16 11z"/>
<path d="M11967 973 c-4 -3 -7 -11 -7 -17 0 -6 5 -5 12 2 6 6 9 14 7 17 -3 3
-9 2 -12 -2z"/>
<path d="M10075 940 c-4 -12 -5 -24 -2 -27 3 -2 8 5 12 17 4 12 5 24 2 27 -3
2 -8 -5 -12 -17z"/>
<path d="M10980 940 c0 -5 7 -10 16 -10 8 0 12 5 9 10 -3 6 -10 10 -16 10 -5
0 -9 -4 -9 -10z"/>
<path d="M12498 943 c7 -3 16 -2 19 1 4 3 -2 6 -13 5 -11 0 -14 -3 -6 -6z"/>
<path d="M12546 943 c-3 -3 4 -13 15 -22 14 -11 23 -35 29 -71 l8 -55 1 56 c1
47 -3 59 -23 76 -13 12 -27 19 -30 16z"/>
<path d="M12898 928 c-3 -13 -2 -68 2 -123 l7 -100 1 123 c2 119 -1 146 -10
100z"/>
<path d="M14138 943 c7 -3 16 -2 19 1 4 3 -2 6 -13 5 -11 0 -14 -3 -6 -6z"/>
<path d="M14410 945 c0 -2 14 -8 32 -13 26 -7 34 -15 47 -57 l15 -50 4 35 c2
24 12 43 34 63 18 15 29 27 25 27 -3 0 -22 -14 -41 -30 l-34 -30 -6 24 c-3 13
-16 26 -28 30 -28 7 -48 8 -48 1z"/>
<path d="M10315 930 c-3 -6 1 -7 9 -4 18 7 21 14 7 14 -6 0 -13 -4 -16 -10z"/>
<path d="M10420 930 c20 -13 33 -13 25 0 -3 6 -14 10 -23 10 -15 0 -15 -2 -2
-10z"/>
<path d="M10700 936 c0 -2 7 -7 16 -10 8 -3 12 -2 9 4 -6 10 -25 14 -25 6z"/>
<path d="M11190 925 c-7 -8 -9 -15 -6 -15 4 0 14 7 22 15 9 8 11 15 6 15 -5 0
-15 -7 -22 -15z"/>
<path d="M12734 932 c-16 -10 -54 -83 -54 -104 0 -10 5 -18 10 -18 6 0 10 16
10 35 0 19 5 35 10 35 6 0 10 6 10 14 0 8 10 22 22 30 22 16 14 23 -8 8z"/>
<path d="M13155 918 c21 -31 19 -53 -7 -72 -21 -15 -22 -16 -3 -14 21 3 21 3
24 -101 1 -13 4 -21 7 -18 8 7 5 182 -2 202 -3 7 -12 16 -20 19 -13 5 -13 2 1
-16z"/>
<path d="M13785 930 c-3 -6 1 -7 9 -4 18 7 21 14 7 14 -6 0 -13 -4 -16 -10z"/>
<path d="M13890 938 c0 -2 9 -11 20 -21 11 -9 20 -13 20 -7 0 5 -9 14 -20 20
-11 6 -20 9 -20 8z"/>
<path d="M14045 920 c-27 -29 -15 -32 20 -4 20 16 25 24 14 24 -9 0 -24 -9
-34 -20z"/>
<path d="M14634 925 c8 -8 18 -15 22 -15 3 0 1 7 -6 15 -7 8 -17 15 -22 15 -5
0 -3 -7 6 -15z"/>
<path d="M11437 895 c3 -22 7 -42 9 -44 8 -9 2 45 -6 64 -7 14 -8 8 -3 -20z"/>
<path d="M11790 921 c0 -6 4 -13 10 -16 6 -3 7 1 4 9 -7 18 -14 21 -14 7z"/>
<path d="M11933 918 c-15 -20 -25 -38 -20 -38 3 0 12 11 21 25 17 26 16 35 -1
13z"/>
<path d="M12850 926 c0 -2 7 -7 16 -10 8 -3 12 -2 9 4 -6 10 -25 14 -25 6z"/>
<path d="M14190 915 c7 -9 15 -13 17 -11 7 7 -7 26 -19 26 -6 0 -6 -6 2 -15z"/>
<path d="M14332 910 c-9 -15 -10 -25 -2 -38 8 -13 10 -13 8 -2 -1 8 3 25 10
38 16 28 1 29 -16 2z"/>
<path d="M10746 910 c5 -8 12 -58 15 -110 l7 -95 -2 97 c-1 69 -5 101 -15 110
-12 11 -12 10 -5 -2z"/>
<path d="M12427 913 c-4 -3 -7 -13 -7 -22 1 -13 3 -13 11 2 11 19 8 33 -4 20z"/>
<path d="M10580 873 c0 -43 5 -41 13 5 4 18 2 32 -3 32 -6 0 -10 -16 -10 -37z"/>
<path d="M11045 901 c-4 -8 -2 -17 5 -21 10 -6 11 -26 6 -79 -4 -45 -3 -71 4
-71 16 0 16 121 1 164 -6 14 -10 16 -16 7z"/>
<path d="M11689 903 c-4 -53 -2 -193 4 -193 4 0 7 45 7 100 0 55 -2 100 -5
100 -3 0 -5 -3 -6 -7z"/>
<path d="M10036 884 c-9 -24 -7 -27 9 -10 17 17 19 26 6 26 -5 0 -12 -7 -15
-16z"/>
<path d="M10272 875 c-14 -30 -16 -89 -3 -65 8 15 22 90 17 90 -2 0 -8 -11
-14 -25z"/>
<path d="M12310 881 c0 -24 -12 -33 -70 -48 l-45 -12 45 6 c61 7 80 19 80 48
0 14 -2 25 -5 25 -3 0 -5 -9 -5 -19z"/>
<path d="M14660 808 c0 -59 4 -98 10 -98 13 0 13 160 0 180 -7 10 -10 -16 -10
-82z"/>
<path d="M9946 877 c3 -10 9 -15 12 -12 3 3 0 11 -7 18 -10 9 -11 8 -5 -6z"/>
<path d="M10163 840 c0 -25 2 -35 4 -22 2 12 2 32 0 45 -2 12 -4 2 -4 -23z"/>
<path d="M10852 834 c-1 -31 4 -57 13 -70 8 -10 15 -14 15 -8 0 5 -4 14 -9 20
-6 5 -12 32 -14 59 l-3 50 -2 -51z"/>
<path d="M11327 861 c-3 -13 -15 -21 -38 -23 -33 -3 -33 -4 9 -9 40 -4 42 -4
42 23 0 33 -6 36 -13 9z"/>
<path d="M11562 843 c-15 -48 -8 -55 8 -8 7 20 10 38 8 41 -3 2 -10 -13 -16
-33z"/>
<path d="M12030 840 c0 -22 5 -40 10 -40 6 0 10 18 10 40 0 22 -4 40 -10 40
-5 0 -10 -18 -10 -40z"/>
<path d="M14228 840 c2 -22 6 -40 8 -40 2 0 4 18 4 40 0 22 -3 40 -8 40 -4 0
-6 -18 -4 -40z"/>
<path d="M11830 851 c0 -5 5 -13 10 -16 6 -3 10 -2 10 4 0 5 -4 13 -10 16 -5
3 -10 2 -10 -4z"/>
<path d="M13536 852 c-2 -4 -1 -14 5 -22 7 -12 9 -10 9 8 0 23 -5 28 -14 14z"/>
<path d="M13733 825 c0 -22 2 -30 4 -17 2 12 2 30 0 40 -3 9 -5 -1 -4 -23z"/>
<path d="M10007 839 c-9 -5 -23 -7 -30 -3 -8 5 -7 2 2 -9 17 -22 23 -21 39 3
14 23 13 23 -11 9z"/>
<path d="M10480 814 c0 -22 -5 -45 -12 -52 -9 -9 -9 -12 0 -12 18 0 38 78 24
92 -9 9 -12 3 -12 -28z"/>
<path d="M11875 830 c-10 -11 -16 -22 -13 -25 3 -3 13 6 22 20 20 30 16 32 -9
5z"/>
<path d="M14008 831 c-7 -24 18 -89 29 -77 3 3 1 11 -5 18 -6 7 -12 29 -14 48
-3 31 -4 32 -10 11z"/>
<path d="M13483 833 c9 -2 23 -2 30 0 6 3 -1 5 -18 5 -16 0 -22 -2 -12 -5z"/>
<path d="M11460 818 c0 -9 5 -20 10 -23 13 -8 13 5 0 25 -8 13 -10 13 -10 -2z"/>
<path d="M13438 823 c7 -3 16 -2 19 1 4 3 -2 6 -13 5 -11 0 -14 -3 -6 -6z"/>
<path d="M12310 791 c0 -16 -6 -31 -12 -34 -7 -2 -9 -8 -5 -13 4 -5 12 -2 17
6 10 16 14 70 5 70 -3 0 -5 -13 -5 -29z"/>
<path d="M13386 804 c-11 -8 -16 -14 -10 -14 13 0 39 18 34 24 -3 2 -14 -2
-24 -10z"/>
<path d="M12685 790 c3 -5 8 -10 11 -10 2 0 4 5 4 10 0 6 -5 10 -11 10 -5 0
-7 -4 -4 -10z"/>
<path d="M14321 758 c-1 -27 3 -48 7 -48 4 0 6 17 4 38 -5 58 -10 62 -11 10z"/>
<path d="M14503 760 c0 -25 2 -35 4 -22 2 12 2 32 0 45 -2 12 -4 2 -4 -23z"/>
<path d="M10271 780 c0 -20 34 -60 51 -60 8 0 5 7 -8 18 -12 9 -26 26 -32 37
-8 14 -11 15 -11 5z"/>
<path d="M11158 777 c-5 -10 -8 -22 -8 -27 0 -12 30 -40 43 -40 6 0 3 6 -5 13
-9 6 -18 26 -20 42 -2 24 -4 26 -10 12z"/>
<path d="M13535 767 c-4 -10 -5 -21 -1 -24 10 -10 18 4 13 24 -4 17 -4 17 -12
0z"/>
<path d="M14215 769 c-4 -6 -5 -12 -2 -15 2 -3 7 2 10 11 7 17 1 20 -8 4z"/>
<path d="M11324 748 c3 -13 6 -26 6 -30 0 -5 4 -8 8 -8 5 0 7 14 4 30 -2 17
-9 30 -14 30 -6 0 -8 -10 -4 -22z"/>
<path d="M11480 761 c0 -5 7 -15 17 -22 15 -13 15 -12 4 9 -12 23 -21 28 -21
13z"/>
<path d="M12130 768 c-1 -21 21 -58 31 -52 7 4 7 9 2 13 -5 3 -15 15 -21 26
-6 11 -12 17 -12 13z"/>
<path d="M12990 768 c0 -4 4 -18 10 -32 8 -23 15 -26 57 -24 l48 1 -43 6 c-33
4 -47 12 -58 31 -7 14 -13 22 -14 18z"/>
<path d="M13750 761 c0 -6 4 -13 10 -16 6 -3 7 1 4 9 -7 18 -14 21 -14 7z"/>
<path d="M13912 734 c-7 -8 -8 -14 -3 -14 10 0 25 19 20 25 -2 1 -10 -3 -17
-11z"/>
<path d="M10434 731 c-5 -6 -27 -11 -49 -14 l-40 -4 40 -1 c39 -2 75 11 64 22
-3 3 -10 2 -15 -3z"/>
<path d="M11521 728 c0 -9 -4 -25 -7 -35 -5 -17 -5 -17 6 0 6 10 9 25 7 35 -4
15 -5 15 -6 0z"/>
<path d="M13389 714 c19 -8 36 -12 39 -9 5 5 -43 25 -61 25 -7 -1 3 -7 22 -16z"/>
<path d="M13805 716 c17 -8 32 -12 34 -10 7 6 -2 11 -34 17 l-30 6 30 -13z"/>
<path d="M14050 726 c0 -2 7 -7 16 -10 8 -3 12 -2 9 4 -6 10 -25 14 -25 6z"/>
<path d="M14170 720 c-8 -5 -10 -10 -5 -10 6 0 17 5 25 10 8 5 11 10 5 10 -5
0 -17 -5 -25 -10z"/>
<path d="M10914 713 c2 -3 21 -5 41 -5 20 0 39 2 42 5 2 3 -16 5 -42 5 -26 0
-44 -2 -41 -5z"/>
<path d="M11233 713 c9 -2 23 -2 30 0 6 3 -1 5 -18 5 -16 0 -22 -2 -12 -5z"/>
<path d="M12186 710 c6 -6 21 -6 39 -1 30 9 30 9 -9 10 -26 1 -37 -2 -30 -9z"/>
<path d="M12758 713 c6 -2 18 -2 25 0 6 3 1 5 -13 5 -14 0 -19 -2 -12 -5z"/>
<path d="M12808 713 c6 -2 18 -2 25 0 6 3 1 5 -13 5 -14 0 -19 -2 -12 -5z"/>
<path d="M13448 713 c6 -2 18 -2 25 0 6 3 1 5 -13 5 -14 0 -19 -2 -12 -5z"/>
<path d="M13868 713 c7 -3 16 -2 19 1 4 3 -2 6 -13 5 -11 0 -14 -3 -6 -6z"/>
<path d="M14103 709 c11 -7 23 -7 35 0 14 9 11 10 -18 10 -29 0 -32 -1 -17
-10z"/>
<path d="M11478 632 c-7 -10 -22 -24 -33 -30 -15 -9 -16 -11 -4 -12 15 0 37
20 53 48 11 19 -1 14 -16 -6z"/>
</g>
</svg>
