<?xml version="1.0" standalone="no"?>
<!DOCTYPE svg PUBLIC "-//W3C//DTD SVG 20010904//EN"
 "http://www.w3.org/TR/2001/REC-SVG-20010904/DTD/svg10.dtd">
<svg version="1.0" xmlns="http://www.w3.org/2000/svg"
 width="1583.000000pt" height="2048.000000pt" viewBox="0 0 1583.000000 2048.000000"
 preserveAspectRatio="xMidYMid meet">
<metadata>
Created by potrace 1.16, written by Peter Selinger 2001-2019
</metadata>
<g transform="translate(0.000000,2048.000000) scale(0.100000,-0.100000)"
fill="#000000" stroke="none">
<path d="M7881 20100 c-7231 -5 -7244 -5 -7255 -25 -6 -11 -17 -24 -23 -28
-10 -6 -13 -1537 -13 -7597 0 -7583 0 -7588 20 -7583 19 5 20 14 20 289 0 180
-4 284 -10 284 -6 0 -11 -106 -13 -282 l-2 -283 -3 288 c-2 278 -1 287 17 287
11 0 93 -9 183 -21 130 -17 194 -20 318 -16 277 10 404 43 720 187 333 152
530 210 670 197 163 -14 261 -95 337 -277 94 -222 142 -415 150 -597 5 -117
-7 -268 -24 -295 -8 -14 -59 20 -99 66 -21 24 -66 84 -99 132 -72 105 -165
202 -220 229 -36 18 -60 20 -225 19 -299 -1 -765 -61 -1420 -183 -146 -27
-277 -47 -292 -44 l-28 5 3 -1999 2 -1999 25 -31 25 -32 4438 0 c3940 -1 4437
1 4437 14 0 13 -495 15 -4424 15 -2433 0 -4430 2 -4438 5 -7 3 -18 13 -23 23
-7 11 -9 549 -7 1508 l2 1490 113 12 c128 14 350 36 582 57 88 8 230 21 315
29 1274 120 2917 262 2927 253 3 -3 -4 -34 -16 -69 -28 -87 -67 -249 -80 -333
-20 -130 -41 -309 -41 -350 0 -34 -7 -49 -45 -90 -65 -72 -90 -127 -89 -200 0
-104 60 -183 166 -223 71 -27 244 -37 1108 -66 80 -3 440 -11 800 -17 786 -14
1108 -6 1181 32 116 59 150 190 88 339 -27 64 -57 93 -118 117 l-44 17 6 180
c4 100 12 327 18 506 6 179 15 329 20 334 9 10 907 -11 989 -23 l45 -6 2 -60
c4 -112 25 -509 37 -705 7 -107 10 -201 8 -207 -2 -7 -16 -13 -31 -13 -17 0
-44 -14 -69 -36 -96 -81 -114 -239 -46 -381 18 -38 33 -54 56 -62 62 -22 2037
-8 2703 19 379 15 456 28 521 86 60 54 72 179 25 275 -28 58 -84 124 -119 141
-25 12 -28 20 -34 88 -21 232 -76 544 -114 652 -8 23 -12 44 -9 46 3 3 87 0
188 -6 100 -7 353 -23 562 -37 209 -14 477 -32 595 -41 220 -17 773 -16 1946
3 297 4 416 3 430 -5 10 -6 15 -12 9 -12 -7 0 -8 -540 -5 -1609 3 -885 2
-1607 -2 -1604 -5 2 -8 -5 -8 -15 0 -39 -20 -42 -239 -43 -182 -1 -212 -3
-209 -16 3 -13 35 -15 213 -14 129 0 211 4 213 10 2 5 9 8 15 5 7 -2 20 10 29
27 17 29 18 178 18 2687 0 2719 1 2691 -35 2663 -5 -5 -116 -11 -245 -14 -312
-8 -488 -33 -659 -96 -103 -38 -154 -67 -207 -120 -102 -102 -150 -288 -178
-693 -17 -237 -24 -262 -84 -276 -20 -5 -97 -24 -171 -41 -161 -39 -245 -77
-299 -135 -33 -36 -41 -54 -51 -110 -13 -74 -15 -312 -5 -478 l7 -108 -109 0
c-60 0 -197 7 -304 15 -107 8 -330 24 -495 35 -810 53 -930 62 -937 68 -3 4
-14 30 -23 57 -9 28 -40 95 -68 150 -68 132 -174 242 -292 303 -154 79 -366
122 -597 122 -136 0 -120 -15 -138 135 -17 144 -98 623 -120 710 -38 154 -55
172 -162 182 -54 5 -57 7 -62 37 -11 61 -78 608 -74 610 1 2 44 31 93 64 113
77 126 89 146 132 17 37 100 294 119 368 6 23 13 42 15 42 3 0 27 -21 55 -47
78 -73 153 -119 263 -162 135 -52 212 -65 361 -58 93 4 137 11 191 30 291 101
514 341 581 622 24 104 22 306 -6 410 -12 44 -23 89 -26 100 -4 16 2 25 23 35
171 88 394 303 541 521 83 124 173 293 225 424 42 103 96 303 118 435 29 176
13 459 -37 640 -52 186 -184 432 -335 622 -61 76 -207 227 -269 277 -25 20
-54 44 -65 55 -11 10 -74 54 -140 98 -141 94 -350 200 -489 247 l-98 34 6 36
c3 20 9 72 12 117 8 95 -3 138 -46 179 -17 16 -30 34 -29 39 0 6 46 40 102 76
115 74 233 161 357 264 110 93 341 324 421 423 35 43 66 80 69 83 3 3 17 21
30 40 13 19 27 37 30 40 11 9 156 224 192 285 53 89 73 125 129 238 27 56 56
113 63 127 16 29 69 164 119 300 80 219 146 507 178 780 13 104 18 527 9 670
-4 70 -3 75 15 72 11 -2 56 -10 100 -19 47 -9 141 -15 230 -16 162 -1 201 6
471 88 62 19 164 42 228 51 100 15 128 16 189 6 149 -26 213 -95 255 -272 52
-221 56 -449 9 -593 -58 -180 -154 -286 -392 -433 -149 -93 -238 -157 -296
-214 -126 -124 -187 -268 -196 -461 -16 -332 134 -577 439 -718 111 -52 192
-72 314 -78 93 -5 108 -3 170 21 202 77 448 258 567 416 54 72 109 183 134
270 23 84 23 388 -1 635 -30 308 -31 361 -8 452 21 83 50 140 94 182 30 29 70
39 62 16 -4 -8 -10 -12 -15 -9 -5 3 -9 -2 -9 -11 0 -9 3 -14 8 -12 8 6 5
-8260 -3 -8273 -3 -5 4 -14 15 -20 l20 -11 0 4465 c0 3562 -3 4465 -12 4469
-10 4 -10 6 -1 6 10 1 13 335 13 1596 0 1421 -2 1595 -15 1595 -14 0 -15 -163
-13 -1501 2 -825 0 -1490 -4 -1477 l-6 23 -1 -24 c-1 -19 -9 -12 -42 38 -58
86 -73 95 -164 89 -92 -6 -157 -41 -189 -103 -31 -59 -30 -212 2 -272 66 -124
233 -140 347 -32 l40 39 7 -38 c10 -58 12 -457 2 -475 -5 -8 -31 -38 -57 -66
-58 -61 -92 -133 -107 -226 -12 -72 -10 -131 15 -400 34 -369 30 -572 -15
-705 -72 -214 -305 -442 -605 -590 l-90 -45 -125 1 c-109 0 -135 4 -205 28
-151 52 -248 107 -339 194 -150 145 -214 319 -204 556 8 181 65 311 190 437
62 62 109 96 378 271 110 72 171 127 225 202 86 121 125 261 125 447 0 230
-58 465 -135 545 -70 75 -188 104 -339 85 -106 -14 -174 -29 -351 -81 -211
-62 -230 -65 -380 -64 -133 1 -252 14 -322 35 -29 9 -33 15 -38 57 -54 455
-222 957 -447 1335 -32 55 -58 102 -58 105 1 9 85 48 157 74 131 45 347 47
478 3 216 -73 376 -176 850 -548 107 -84 278 -195 355 -231 145 -66 247 -70
395 -13 65 25 90 41 137 88 46 48 61 71 78 125 48 156 14 361 -97 579 -145
285 -203 489 -203 709 1 259 92 469 287 660 136 134 270 194 411 183 l72 -5 0
843 c0 762 -2 848 -16 879 -11 22 -26 36 -43 39 -14 3 -33 7 -41 9 -8 2 -3275
1 -7259 -2z m3637 -17 c-1985 -2 -5231 -2 -7215 0 -1985 1 -361 2 3607 2 3968
0 5592 -1 3608 -2z m3676 -35 c13 -18 15 -125 16 -834 0 -447 3 -820 6 -828 7
-18 -11 -23 -113 -30 -208 -14 -429 -198 -567 -471 -57 -114 -77 -201 -83
-360 -4 -123 -2 -155 21 -265 27 -134 82 -283 161 -440 106 -211 142 -344 133
-498 -10 -175 -83 -267 -261 -327 -74 -25 -157 -29 -227 -11 -146 38 -273 118
-645 411 -196 154 -398 295 -424 295 -5 0 -11 3 -13 8 -4 9 -98 55 -168 81
-114 43 -181 55 -310 56 -141 0 -216 -16 -339 -72 -41 -18 -75 -33 -76 -33 -2
0 -18 24 -36 53 -118 186 -265 365 -463 563 -72 71 -160 155 -196 185 -36 29
-67 57 -70 60 -10 11 -138 106 -215 160 -328 228 -696 400 -1075 503 -331 89
-509 115 -862 123 l-268 6 0 40 c0 86 -73 180 -177 232 -73 36 -337 119 -468
147 -71 15 -137 22 -225 22 -110 1 -130 -2 -171 -21 -57 -29 -90 -63 -127
-134 l-30 -57 -47 48 c-92 93 -218 134 -363 119 -89 -9 -142 -26 -231 -75 -66
-36 -202 -123 -211 -134 -3 -3 -21 -17 -40 -30 -121 -82 -342 -292 -386 -367
-28 -47 -34 -107 -13 -144 17 -29 95 -109 129 -131 14 -9 23 -18 20 -21 -3 -3
-49 -15 -101 -27 -176 -38 -303 -94 -373 -163 -119 -120 -127 -494 -14 -739
17 -37 39 -75 49 -84 26 -23 24 -38 -10 -87 -89 -130 -241 -422 -314 -603
-171 -423 -244 -789 -254 -1268 -10 -496 64 -924 235 -1361 127 -325 348 -702
560 -952 41 -48 43 -55 33 -80 -18 -47 -111 -376 -111 -395 0 -23 -25 -23 -58
0 -36 25 -85 46 -161 71 -115 38 -215 51 -380 51 -230 0 -340 -29 -388 -100
-13 -18 -23 -46 -23 -61 0 -31 29 -99 42 -99 4 0 8 -6 8 -14 0 -9 -20 -16 -62
-20 -187 -21 -395 -90 -542 -179 -133 -81 -222 -160 -311 -279 -27 -34 -51
-66 -54 -70 -4 -4 -88 -28 -186 -53 -292 -72 -641 -174 -815 -238 -201 -73
-262 -97 -350 -141 -76 -38 -101 -46 -148 -46 -78 0 -299 27 -342 41 -85 29
-136 90 -161 190 -13 57 -8 237 11 334 12 63 12 74 -4 107 -57 119 -219 180
-414 157 -203 -25 -366 -144 -432 -314 -18 -46 -24 -87 -28 -179 -9 -234 37
-331 225 -472 95 -72 120 -97 138 -141 21 -50 19 -162 -4 -223 -23 -59 -89
-154 -161 -230 -271 -285 -371 -451 -416 -687 -24 -129 -15 -354 21 -482 86
-313 295 -539 610 -661 169 -65 380 -87 507 -54 33 8 61 14 63 12 1 -2 26 -50
56 -108 47 -92 154 -260 274 -430 58 -82 151 -284 176 -380 69 -273 8 -458
-191 -582 -114 -71 -204 -99 -325 -99 -151 -1 -333 63 -597 207 -68 36 -161
87 -208 112 -47 25 -96 53 -110 62 -14 9 -83 49 -155 89 -71 40 -146 81 -165
92 -218 122 -493 226 -690 259 -36 6 -74 12 -85 15 -20 4 -20 11 -17 6230 1
4259 5 6233 12 6246 11 19 109 19 7275 19 l7264 0 15 -22z m-14587 -9371 c-1
-1695 -2 -308 -2 3083 0 3391 1 4778 2 3082 2 -1695 2 -4469 0 -6165z m7828
8053 c160 -33 420 -115 491 -156 93 -53 132 -130 114 -224 -5 -29 -10 -54 -10
-56 0 -12 -53 -54 -90 -71 -94 -43 -336 -85 -568 -99 l-111 -7 -14 34 c-17 40
-76 95 -126 117 -20 8 -63 21 -96 27 l-60 11 3 79 c4 131 49 272 103 321 52
47 199 57 364 24z m-777 -35 c102 -24 179 -83 214 -163 17 -38 19 -57 13 -133
-8 -99 -2 -93 -100 -104 -131 -15 -340 -100 -471 -193 -38 -27 -101 -81 -139
-120 l-68 -70 -101 -7 -102 -7 -70 45 c-70 46 -99 72 -128 118 -17 28 -12 61
16 90 7 8 29 33 49 55 42 47 145 144 208 194 24 19 48 40 55 45 6 6 27 22 46
35 19 13 37 27 40 30 12 15 153 102 207 130 140 69 217 82 331 55z m2082 -390
c567 -77 1101 -280 1535 -583 94 -66 232 -169 255 -191 9 -9 43 -38 76 -66
152 -128 366 -359 503 -545 56 -75 211 -306 211 -314 0 -1 27 -51 60 -110 33
-59 60 -110 60 -112 0 -2 18 -41 39 -86 21 -46 42 -94 46 -108 4 -14 11 -30
16 -36 16 -19 108 -293 137 -406 89 -343 116 -556 117 -908 0 -387 -47 -701
-156 -1050 -103 -327 -253 -637 -444 -915 -71 -104 -113 -162 -130 -181 -5 -6
-26 -30 -45 -55 -139 -175 -374 -409 -530 -529 -25 -19 -47 -37 -50 -40 -3 -3
-21 -17 -40 -30 -19 -13 -37 -27 -40 -31 -7 -9 -188 -128 -237 -155 l-41 -24
-104 53 c-131 67 -359 162 -658 272 -129 48 -241 91 -249 95 -10 5 31 30 125
77 280 140 460 250 589 359 95 80 175 164 175 183 0 5 3 11 8 13 14 6 50 84
62 136 15 66 7 124 -31 222 -33 87 -177 334 -209 360 -3 3 -17 21 -30 40 -39
55 -61 82 -113 132 l-48 47 20 78 c12 43 25 105 30 138 6 33 17 101 25 150 15
91 30 225 42 368 6 68 9 78 28 82 12 2 68 14 126 25 297 61 473 157 541 295
28 58 31 72 27 128 -7 80 -34 141 -84 190 -56 54 -90 69 -169 74 -59 4 -82 0
-144 -22 -119 -43 -202 -102 -373 -264 l-38 -35 -73 70 c-77 73 -82 77 -167
139 -133 97 -345 204 -529 266 -204 70 -505 131 -740 150 -75 6 -138 13 -140
15 -2 2 24 58 58 123 80 156 101 218 101 301 0 55 -5 73 -28 111 -36 55 -88
101 -155 136 -41 21 -70 27 -137 31 -74 4 -93 1 -148 -21 -164 -67 -207 -202
-167 -532 8 -66 15 -157 15 -203 0 -79 -2 -89 -48 -185 -27 -56 -67 -133 -90
-171 -23 -37 -42 -70 -42 -72 0 -9 -184 -297 -206 -323 -2 -2 -36 5 -76 16
-178 51 -310 33 -517 -69 -176 -87 -296 -228 -350 -408 -38 -126 -31 -356 15
-518 65 -231 289 -605 615 -1028 42 -54 85 -108 96 -119 21 -22 63 -81 63 -87
0 -3 -127 -8 -282 -11 -156 -4 -377 -14 -493 -22 -206 -14 -493 -47 -527 -60
-11 -4 -23 1 -35 15 -10 12 -26 31 -37 43 -38 44 -164 214 -213 287 -85 127
-137 219 -221 385 -176 352 -284 710 -339 1115 -25 189 -25 698 1 879 48 344
140 678 264 955 54 122 170 343 228 434 32 51 64 102 69 113 7 15 15 18 30 12
41 -16 188 -6 255 17 79 27 166 67 202 92 15 10 29 15 31 11 2 -5 0 -38 -6
-74 -19 -127 16 -217 102 -259 71 -35 218 -40 336 -10 171 43 403 149 620 285
33 20 72 45 88 54 48 29 129 124 152 181 12 30 26 54 31 53 5 -1 29 -10 54
-19 58 -21 149 -14 212 16 67 31 127 88 201 188 35 48 103 134 151 192 122
146 116 139 162 200 167 224 174 336 22 409 -52 24 -58 30 -39 36 50 15 89 66
115 149 6 18 17 19 259 13 138 -3 304 -13 367 -22z m-1697 -93 c116 -39 150
-82 145 -182 -5 -96 -31 -144 -146 -263 -82 -87 -253 -190 -392 -237 -344
-117 -619 -13 -545 205 37 108 129 215 267 313 25 17 51 32 56 32 6 0 12 3 14
8 5 12 130 69 211 97 141 47 296 58 390 27z m929 -142 c83 -25 102 -46 95
-100 -7 -51 -121 -224 -238 -360 -45 -52 -93 -111 -108 -130 -14 -19 -34 -44
-44 -55 -11 -11 -36 -45 -57 -76 -123 -180 -274 -208 -416 -79 -84 76 -269
285 -269 303 0 6 14 18 30 26 17 8 75 60 130 115 108 108 163 199 173 281 l4
42 147 12 c80 7 182 19 226 26 129 20 253 18 327 -5z m-1912 -243 c0 -2 -9
-22 -20 -45 -13 -27 -20 -61 -20 -103 0 -94 16 -133 78 -190 l54 -49 -36 -59
c-37 -61 -124 -240 -146 -301 -21 -58 -191 -161 -331 -200 -131 -36 -216 -19
-251 50 -7 14 -16 27 -19 30 -11 10 -39 91 -56 162 -13 52 -18 115 -18 218 0
226 31 296 161 355 113 52 226 82 404 110 58 9 112 18 120 19 21 5 80 7 80 3z
m856 -364 c32 -37 95 -105 139 -151 88 -93 99 -111 89 -156 -14 -68 -43 -106
-130 -176 -27 -22 -152 -100 -160 -100 -3 0 -18 -8 -32 -19 -34 -23 -200 -109
-267 -137 -112 -47 -134 -54 -215 -75 -116 -30 -225 -29 -288 3 -64 31 -74 55
-68 153 7 131 87 346 199 536 l39 66 137 -1 c107 0 154 5 221 22 88 22 183 56
235 85 17 9 33 16 36 17 3 0 33 -30 65 -67z m1000 -1193 c60 -26 120 -85 140
-136 16 -42 16 -48 -1 -112 -10 -37 -54 -136 -98 -221 -81 -157 -89 -190 -50
-206 10 -3 72 -11 138 -15 409 -31 755 -117 1048 -261 190 -94 331 -195 471
-337 l69 -70 86 88 c97 98 218 191 306 235 86 42 178 47 238 12 87 -51 121
-170 76 -264 -21 -44 -101 -123 -125 -123 -7 0 -14 -4 -16 -9 -4 -12 -186 -79
-277 -101 -42 -11 -118 -26 -170 -34 -52 -9 -95 -17 -97 -19 -2 -2 -11 -82
-19 -178 -21 -244 -58 -480 -97 -629 l-23 -85 -70 -11 c-94 -16 -218 -41 -281
-58 -51 -13 -52 -13 -95 17 -24 16 -81 47 -127 69 -86 41 -102 55 -41 38 94
-27 232 -1 345 65 64 38 132 114 169 190 72 151 73 282 2 422 -15 29 -27 58
-27 64 0 6 28 37 62 68 45 42 60 62 55 74 -10 27 -28 20 -94 -38 -33 -30 -63
-55 -66 -55 -2 0 -20 14 -38 30 -19 17 -46 38 -61 47 -16 10 -28 21 -28 26 0
5 16 40 36 78 20 38 34 75 30 84 -12 32 -37 12 -77 -61 l-42 -76 -36 7 c-20 3
-55 9 -78 12 l-42 6 -3 86 c-3 78 -5 86 -23 86 -18 0 -20 -8 -23 -87 -3 -81
-4 -88 -23 -88 -33 0 -170 -49 -197 -70 -36 -29 -47 -25 -61 20 -7 22 -30 66
-51 96 l-39 57 55 63 c52 59 65 92 38 101 -6 2 -25 -11 -41 -29 -17 -18 -45
-48 -62 -65 l-30 -33 -53 35 c-99 63 -94 49 -53 143 37 84 38 102 6 102 -12 0
-24 -15 -36 -42 -10 -24 -27 -63 -39 -86 -21 -43 -21 -44 -65 -38 -24 3 -65 6
-92 6 l-48 0 -6 58 c-12 117 -14 124 -38 120 -24 -3 -25 -10 -14 -120 l6 -66
-52 -17 c-210 -68 -347 -273 -335 -500 7 -120 51 -217 137 -304 81 -80 80 -79
161 -116 56 -25 79 -30 175 -33 100 -4 117 -1 180 22 39 15 87 38 108 52 22
14 40 24 42 22 1 -2 15 -30 31 -63 28 -59 152 -195 178 -195 6 0 20 -8 31 -17
l20 -15 -20 5 c-11 3 -65 20 -120 36 -198 61 -271 74 -416 76 -156 1 -148 -2
-309 121 -167 129 -291 248 -440 424 -75 90 -170 183 -227 221 -26 18 -51 37
-55 43 -3 5 13 37 36 70 120 173 283 461 335 594 26 65 27 139 5 317 -21 170
-16 335 11 390 49 99 199 139 321 85z m6191 -856 c60 -64 87 -129 88 -211 0
-71 -1 -73 -40 -114 -51 -53 -106 -79 -172 -79 -70 0 -113 22 -148 78 -25 39
-30 58 -33 132 -4 73 -1 93 17 127 36 71 93 101 195 102 55 1 61 -1 93 -35z
m-5786 -419 c128 -33 227 -111 287 -225 91 -170 58 -373 -82 -512 -110 -108
-257 -150 -401 -113 -137 36 -233 113 -293 234 -36 73 -37 77 -37 190 0 112 1
119 34 186 91 185 303 289 492 240z m-1266 -199 c139 -53 294 -182 427 -356
117 -155 440 -428 594 -502 39 -20 42 -24 46 -70 4 -41 68 -192 88 -208 3 -3
17 -21 30 -40 13 -19 27 -37 30 -40 3 -3 27 -32 52 -65 48 -63 126 -140 168
-169 36 -23 86 -20 176 13 150 54 164 61 266 120 54 31 132 99 170 147 10 14
37 26 70 34 231 50 339 70 374 70 44 0 51 -6 124 -100 19 -25 37 -47 41 -50
13 -10 138 -207 172 -272 118 -222 102 -314 -83 -498 -282 -281 -995 -624
-1465 -705 -184 -31 -466 -12 -644 45 -172 55 -341 190 -556 444 -28 32 -58
68 -68 80 -65 74 -160 194 -259 326 -303 405 -491 738 -545 968 -27 116 -24
323 6 419 39 124 108 222 201 286 25 17 47 33 50 36 22 25 173 86 265 107 83
19 185 11 270 -20z m2016 -56 c124 -23 240 -113 299 -231 27 -53 34 -79 38
-150 6 -111 -10 -177 -61 -257 -66 -103 -155 -165 -269 -187 -141 -27 -283 15
-382 112 -48 47 -106 150 -106 187 0 10 18 45 39 77 54 81 81 167 84 269 l2
85 55 37 c91 61 187 79 301 58z m-598 -840 c146 -35 352 -106 450 -155 131
-65 130 -64 70 -122 -63 -61 -172 -123 -305 -174 -143 -54 -151 -54 -229 29
-90 94 -126 139 -191 243 -54 86 -87 177 -72 201 10 16 176 3 277 -22z m-1302
-1462 l116 -123 -406 -6 c-223 -3 -537 -14 -697 -24 -220 -14 -294 -16 -305
-7 -8 6 -41 33 -74 58 -78 61 -125 109 -125 127 0 24 145 44 510 72 259 20
291 21 600 23 l265 2 116 -122z m-1305 -240 c383 -253 1005 -505 1584 -642
247 -58 488 -96 735 -117 186 -15 765 -6 935 15 343 43 626 102 854 177 82 27
153 49 158 49 22 0 -6 -281 -33 -331 -5 -11 -75 -39 -191 -77 -325 -107 -580
-165 -916 -209 -193 -26 -232 -27 -587 -28 -385 0 -415 2 -735 46 -406 55
-876 183 -1239 335 -221 94 -232 100 -271 164 -81 131 -159 185 -282 196 -90
8 -147 30 -247 94 -112 72 -116 77 -101 142 10 44 76 286 96 350 4 15 17 8 73
-40 37 -33 112 -88 167 -124z m1357 33 c75 -4 140 -11 144 -14 19 -19 -4 -343
-34 -473 l-16 -71 -39 8 c-150 34 -495 152 -728 249 -149 62 -493 234 -510
255 -11 13 -7 15 21 15 19 0 113 5 209 11 377 24 752 31 953 20z m1868 -75
c175 -62 315 -112 344 -125 11 -5 36 -15 55 -22 19 -6 58 -22 85 -34 28 -12
88 -37 135 -55 112 -44 346 -163 343 -174 -3 -13 -256 -96 -292 -96 -9 0 -25
6 -36 14 -35 24 -216 116 -309 157 -141 63 -435 171 -608 225 -86 27 -154 52
-150 56 4 3 30 13 57 21 67 21 143 50 180 69 17 9 33 16 36 17 3 1 75 -23 160
-53z m-3961 -11 c110 -23 239 -75 291 -117 22 -18 33 -148 19 -216 -13 -56
-11 -55 -120 -67 -95 -11 -467 -71 -675 -110 -306 -57 -589 -113 -763 -151
-112 -24 -205 -44 -208 -44 -14 0 4 24 64 85 197 204 463 323 766 344 68 5
129 11 135 15 23 14 10 52 -34 101 -75 82 -73 117 11 148 99 37 366 43 514 12z
m2384 -4 c141 -80 407 -135 625 -130 l106 3 -5 -85 c-3 -46 -4 -159 -4 -252
l1 -167 -31 4 c-17 3 -65 8 -106 11 -124 10 -386 52 -530 84 -184 42 -181 41
-176 60 28 93 56 312 56 438 0 35 3 63 6 63 4 0 30 -13 58 -29z m1134 -126
c193 -58 435 -142 602 -210 183 -73 394 -176 383 -185 -20 -18 -428 -81 -653
-100 -196 -18 -635 -19 -652 -2 -10 10 -13 64 -13 225 0 117 4 228 8 248 7 34
10 37 60 46 94 18 143 14 265 -22z m-3050 -215 c36 -15 16 -30 -39 -30 -49 0
-49 0 -43 28 10 41 14 44 37 27 12 -8 32 -20 45 -25z m-4238 -121 c26 -8 62
-31 89 -56 40 -39 43 -45 38 -80 -3 -21 -11 -67 -16 -103 -22 -138 -7 -299 35
-383 21 -42 81 -104 118 -124 73 -38 147 -50 410 -68 304 -20 416 -43 541
-112 97 -53 217 -174 277 -278 139 -239 179 -485 119 -725 -53 -212 -170 -345
-486 -553 -178 -117 -229 -156 -256 -197 -249 -367 -491 -577 -705 -610 -56
-9 -91 -8 -170 4 -93 14 -229 52 -284 79 -335 164 -509 411 -539 766 -15 171
17 369 79 492 25 48 108 181 119 189 4 3 14 15 23 28 16 23 50 62 147 167 81
87 113 125 141 165 13 19 27 37 30 40 11 10 49 96 59 135 6 22 11 70 11 107 0
120 -53 211 -169 291 -97 66 -143 115 -176 185 -55 115 -54 308 2 422 53 109
167 194 303 224 74 17 193 15 260 -5z m4582 5 c81 -27 149 -117 233 -309 43
-99 55 -332 22 -455 -80 -301 -195 -394 -645 -526 -86 -25 -160 -48 -164 -50
-21 -13 -26 10 -12 54 40 131 48 196 49 387 0 168 -3 200 -23 275 -28 103 -84
225 -143 311 -43 64 -178 207 -213 226 -28 15 -12 29 41 37 423 57 488 64 644
65 126 1 176 -3 211 -15z m-979 -125 c133 -88 257 -244 324 -409 87 -213 90
-484 7 -757 -16 -54 -31 -84 -42 -87 -9 -3 -89 -26 -177 -51 -88 -25 -196 -57
-240 -71 -44 -13 -100 -31 -125 -39 -95 -29 -162 -46 -167 -41 -3 3 9 47 25
98 100 306 83 634 -44 875 -35 65 -66 115 -81 131 -7 7 -20 26 -30 42 -9 17
-61 72 -115 124 -73 72 -93 96 -80 100 26 7 307 62 447 86 39 7 99 18 135 25
94 19 95 19 163 -26z m-815 -154 c124 -93 257 -259 323 -402 107 -232 110
-531 9 -819 -17 -49 -34 -96 -36 -105 -4 -10 -59 -32 -162 -65 -86 -27 -240
-77 -342 -110 -102 -34 -187 -60 -189 -58 -3 3 6 37 18 76 46 141 62 232 68
373 9 230 -23 387 -118 578 -58 117 -118 197 -235 314 l-102 103 37 9 c20 6
97 24 171 41 74 16 153 34 175 40 125 29 287 64 317 69 3 1 33 -19 66 -44z
m2230 -51 c453 -197 1080 -348 1625 -390 l88 -7 -8 -26 c-4 -14 -8 -64 -8
-111 1 -70 5 -92 24 -126 l23 -42 -31 -56 c-17 -31 -45 -82 -62 -113 -78 -142
-154 -280 -169 -308 -9 -16 -36 -66 -60 -110 -23 -44 -46 -84 -50 -90 -4 -5
-10 -19 -14 -31 -6 -19 1 -23 66 -42 110 -32 206 -53 278 -60 63 -7 65 -8 88
-50 17 -31 25 -65 29 -121 5 -71 3 -84 -21 -132 -15 -30 -49 -85 -77 -124
-118 -167 -142 -278 -88 -420 89 -232 72 -391 -62 -602 -120 -188 -146 -263
-136 -393 3 -41 15 -109 26 -150 78 -281 83 -324 55 -439 -18 -72 -60 -160
-99 -205 -87 -101 -136 -225 -138 -346 -3 -147 43 -245 91 -196 15 15 15 21
-1 80 -38 144 -10 253 104 407 72 98 116 199 128 298 13 104 2 189 -45 348
-40 132 -54 269 -35 339 6 23 43 95 83 160 186 309 204 419 111 694 -28 85
-34 115 -30 157 6 61 34 127 85 201 20 30 42 61 47 70 6 9 16 23 24 31 23 25
51 100 57 154 5 46 -2 112 -22 198 l-6 26 104 6 c79 4 120 12 178 34 74 29 75
29 78 68 6 73 -72 366 -153 570 -19 49 -35 96 -35 102 0 7 18 31 39 52 53 53
67 105 53 192 -6 36 -14 73 -18 82 -5 15 3 17 67 17 346 1 914 99 1303 225 60
19 113 35 118 35 15 0 4 -366 -18 -577 l-6 -62 -77 -25 c-133 -42 -174 -54
-236 -66 -33 -6 -88 -18 -121 -26 -34 -8 -164 -21 -290 -29 -358 -23 -375 -26
-413 -66 -19 -21 -20 -32 -20 -453 0 -445 1 -438 -47 -757 -29 -190 -6 -229
143 -237 142 -8 447 42 692 113 68 19 125 34 127 32 2 -2 -3 -28 -11 -58 -8
-30 -69 -272 -136 -539 -66 -267 -147 -586 -180 -710 -34 -124 -67 -250 -75
-280 -8 -30 -42 -149 -76 -265 -33 -115 -69 -238 -78 -271 -25 -85 -59 -176
-73 -195 -28 -36 -245 -168 -389 -237 -583 -277 -1235 -366 -1918 -262 -204
32 -571 130 -730 196 -157 66 -504 257 -530 293 -3 4 -32 28 -65 53 -117 89
-257 244 -346 383 -52 81 -104 208 -140 340 -22 78 -17 348 9 540 11 88 37
282 56 430 20 149 51 385 71 525 20 140 51 374 70 520 29 222 61 464 90 678 4
25 11 42 19 42 13 0 236 63 401 113 213 65 349 138 437 235 58 64 118 188 148
307 37 143 30 380 -15 488 -11 26 6 22 123 -29z m3909 -43 c100 -37 241 -104
322 -153 34 -21 65 -38 68 -38 6 0 122 -78 154 -104 14 -12 43 -34 65 -51 54
-42 194 -176 194 -186 0 -5 -16 -9 -36 -9 -83 0 -286 -62 -399 -122 -118 -62
-240 -176 -316 -293 -61 -94 -139 -300 -139 -366 0 -16 -6 -32 -14 -35 -7 -3
-45 11 -83 30 -39 20 -77 36 -84 36 -40 1 -41 11 -20 176 31 238 50 479 62
774 7 146 16 270 20 276 5 6 27 16 49 23 33 10 42 18 47 42 3 16 11 29 19 29
7 0 48 -13 91 -29z m-6967 -79 c39 -31 184 -173 217 -214 31 -37 143 -225 143
-238 0 -6 7 -24 15 -39 25 -49 53 -172 64 -278 12 -113 1 -272 -25 -383 -29
-121 -87 -272 -109 -281 -31 -13 -476 -180 -512 -193 -18 -6 -33 -14 -33 -18
0 -5 -6 -8 -14 -8 -7 0 -26 -7 -42 -15 -15 -8 -30 -12 -32 -10 -3 2 7 33 21
68 60 150 79 386 43 550 -69 315 -276 591 -516 685 -69 27 -151 49 -213 58
-29 4 -46 11 -44 18 6 19 278 120 552 205 161 50 408 119 430 120 11 0 36 -12
55 -27z m5083 -292 c2 -3 12 -27 21 -54 39 -118 6 -184 -108 -217 -36 -11
-105 6 -123 29 -42 54 -56 161 -30 225 l14 32 111 -5 c61 -3 112 -7 115 -10z
m2808 -292 c53 -66 139 -198 175 -269 15 -30 31 -56 34 -59 3 -3 24 -50 47
-105 48 -117 78 -235 93 -360 10 -94 14 -255 5 -255 -3 0 -36 26 -74 58 -224
187 -520 277 -762 232 -118 -22 -286 -85 -351 -131 l-27 -20 -22 43 c-12 24
-32 57 -45 73 -22 29 -22 32 -9 112 7 46 21 107 30 135 16 50 92 207 105 218
3 3 17 21 30 40 62 93 190 193 319 252 96 44 265 84 368 87 40 1 45 -2 84 -51z
m-2933 -58 l63 -5 25 -60 c70 -171 173 -536 161 -568 -13 -35 -208 -59 -365
-46 -98 9 -289 45 -311 58 -8 5 2 33 35 92 25 46 60 109 77 139 16 30 41 75
55 100 14 25 52 95 84 155 81 149 87 157 101 148 7 -4 40 -10 75 -13z m1672
-131 c0 -102 -93 -732 -155 -1043 -48 -244 -50 -250 -82 -266 -215 -99 -836
-201 -883 -145 -15 18 -9 112 14 225 27 132 36 296 36 697 l0 391 38 6 c20 4
147 13 282 21 263 16 435 44 630 104 116 36 120 36 120 10z m-4764 -286 c-7
-31 -73 -523 -112 -823 -13 -107 -36 -271 -49 -365 -67 -470 -155 -1160 -155
-1219 0 -20 -5 -36 -11 -36 -7 0 -42 24 -78 54 -158 130 -281 301 -340 474
-56 162 -63 220 -71 587 -9 360 -13 393 -63 490 -33 65 -119 153 -187 189
-116 63 -259 42 -361 -53 -42 -38 -50 -51 -45 -69 9 -28 59 -30 78 -4 18 26
85 67 132 82 119 38 293 -87 342 -245 13 -39 18 -126 24 -390 5 -187 7 -342 5
-343 -2 -2 -48 -6 -102 -9 -260 -14 -493 68 -634 225 -167 187 -250 478 -240
843 l1 45 63 23 c365 135 877 300 1562 506 44 13 109 33 145 44 92 28 103 27
96 -6z m4865 -252 c111 -47 186 -113 215 -188 15 -37 15 -46 0 -95 -23 -78
-87 -168 -206 -288 -111 -112 -228 -215 -235 -208 -3 2 15 103 39 224 24 120
49 253 56 294 7 41 18 110 26 154 8 43 14 91 14 107 0 36 8 36 91 0z m980
-115 c110 -24 306 -117 374 -178 8 -7 41 -35 73 -63 83 -70 83 -69 66 -156
-26 -142 -53 -231 -116 -389 -57 -141 -190 -380 -261 -465 -9 -11 -24 -31 -35
-44 l-18 -23 -13 82 c-46 302 -179 522 -401 662 -115 73 -281 129 -422 144
-38 3 -68 8 -68 10 0 2 22 34 48 72 27 37 59 95 73 130 26 68 44 84 155 140
64 32 201 79 249 85 72 10 235 5 296 -7z m-7788 -388 c7 -172 31 -307 78 -443
18 -49 35 -94 39 -100 4 -5 20 -32 35 -60 77 -142 204 -260 352 -326 123 -56
219 -73 405 -73 l166 1 7 -36 c4 -19 18 -70 31 -113 20 -64 23 -82 13 -100 -7
-13 -15 -25 -19 -28 -3 -3 -26 -34 -50 -70 -296 -440 -645 -805 -884 -924 -67
-34 -159 -46 -205 -26 -49 20 -136 120 -170 195 -77 169 -78 354 -8 920 64
506 72 611 70 920 -1 149 -3 289 -5 313 l-3 43 65 29 c36 16 68 29 71 29 3 1
9 -68 12 -151z m-177 46 c13 -51 19 -274 12 -471 -7 -218 -19 -346 -79 -828
-46 -375 -55 -509 -40 -636 19 -164 61 -267 150 -363 80 -86 150 -103 262 -66
82 28 149 67 244 143 156 125 330 309 508 537 36 47 156 211 182 250 37 55 39
58 68 94 l23 29 33 -65 c35 -71 34 -69 120 -178 73 -93 139 -155 256 -242 61
-46 75 -62 75 -88 0 -38 24 -140 51 -215 50 -142 111 -254 212 -383 27 -35 46
-70 43 -77 -15 -39 -241 -65 -656 -75 -431 -11 -534 -27 -691 -105 -148 -75
-216 -180 -245 -375 -50 -343 59 -631 298 -787 87 -56 139 -78 273 -115 243
-66 283 -77 360 -101 204 -65 215 -70 215 -93 0 -12 -9 -82 -19 -156 -11 -73
-22 -156 -26 -185 l-7 -51 -96 -6 c-321 -21 -577 -83 -682 -166 -21 -17 -42
-30 -47 -30 -6 0 -34 48 -63 108 -69 138 -130 231 -194 293 -67 65 -123 84
-246 84 -85 0 -102 -3 -160 -31 -90 -42 -155 -110 -201 -209 -71 -153 -73
-300 -9 -565 17 -67 30 -129 30 -139 0 -16 -12 -19 -87 -25 -49 -4 -111 -10
-139 -13 l-51 -5 -6 90 c-8 104 -42 212 -78 243 -80 70 -237 107 -494 118
-152 6 -160 7 -158 26 24 193 26 241 14 349 -18 169 -64 341 -144 536 -89 218
-206 305 -409 302 -169 -2 -312 -46 -638 -197 -326 -150 -468 -185 -767 -185
-183 0 -414 27 -428 51 -3 4 -6 467 -8 1028 l-2 1021 34 0 c96 0 304 -58 481
-133 111 -47 304 -147 490 -255 319 -184 617 -339 732 -381 154 -57 293 -74
410 -50 85 18 246 99 308 156 101 93 140 193 140 364 0 84 -5 125 -25 195 -36
125 -139 329 -232 459 -101 141 -180 268 -232 372 -23 46 -41 85 -41 88 0 2
15 12 33 21 159 80 389 308 540 535 45 69 74 95 172 159 90 59 183 121 229
153 27 19 163 133 176 147 19 22 191 119 212 120 4 0 11 -12 14 -26z m7333
-189 c385 -99 595 -364 637 -802 l6 -72 -38 -37 c-62 -59 -135 -118 -189 -154
-27 -19 -51 -37 -53 -42 -2 -4 -8 -8 -14 -8 -5 0 -24 -11 -41 -24 -18 -13 -66
-41 -107 -62 -41 -21 -76 -42 -78 -46 -2 -5 -8 -8 -13 -8 -4 0 -39 -14 -76
-31 -80 -37 -160 -69 -172 -69 -4 0 3 32 16 70 55 163 32 387 -54 522 -12 21
-23 41 -23 44 0 17 -119 165 -184 229 -89 88 -129 122 -188 163 -27 18 -48 39
-48 46 0 8 42 45 93 84 50 38 128 104 172 146 l80 77 105 -5 c58 -2 134 -12
169 -21z m-538 -452 c327 -264 446 -593 317 -876 l-22 -48 -33 36 c-41 45 -76
45 -81 1 -2 -16 0 -32 5 -35 5 -3 22 -24 39 -46 66 -89 100 -198 89 -290 -7
-55 -52 -157 -85 -193 -29 -31 -20 -72 15 -72 41 0 122 119 140 207 9 42 14
45 55 25 59 -29 87 -52 100 -83 24 -57 80 -62 80 -7 0 61 -45 108 -157 164
-60 29 -73 40 -73 59 0 13 -11 54 -24 90 l-24 65 27 6 c46 11 253 97 330 137
40 21 79 36 86 33 25 -9 50 -153 49 -281 0 -141 -16 -212 -74 -330 -99 -201
-299 -366 -511 -421 -79 -21 -252 -23 -329 -5 -82 20 -177 59 -253 105 -78 47
-175 139 -184 174 -5 21 27 161 72 312 32 108 112 417 215 830 61 245 116 462
121 483 7 27 14 36 22 30 7 -5 46 -37 88 -70z m-10254 -2805 c-1 -277 -2 -51
-2 502 0 553 1 779 2 503 2 -277 2 -729 0 -1005z m5569 780 c-16 -166 -37
-371 -46 -448 -13 -115 -40 -391 -40 -412 0 -11 -8 -18 -20 -18 -49 0 -121
-23 -144 -47 -33 -33 -67 -108 -100 -219 -30 -104 -66 -274 -66 -315 0 -15 -3
-30 -8 -33 -4 -2 -73 17 -152 44 -80 27 -222 69 -317 94 -222 60 -268 76 -350
124 -104 62 -186 149 -239 256 -66 136 -79 195 -79 371 0 159 14 251 48 320
106 217 356 295 948 295 198 0 356 11 484 35 39 7 74 13 78 14 5 0 6 -27 3
-61z m131 6 c17 -18 49 -45 70 -60 21 -16 40 -32 43 -35 10 -13 167 -122 225
-156 177 -105 388 -201 558 -254 l107 -33 0 -36 c0 -45 -48 -418 -55 -429 -3
-5 -29 -3 -58 5 -113 30 -259 54 -552 89 -66 8 -207 18 -312 21 -129 5 -193
11 -193 18 0 6 5 49 10 96 5 47 21 193 34 325 56 549 50 512 74 493 9 -7 31
-27 49 -44z m3557 -391 c4 -37 20 -164 36 -281 17 -117 30 -216 30 -220 0 -5
-138 -13 -307 -20 -366 -14 -619 -40 -786 -79 -37 -8 -70 -14 -71 -12 -4 4
-45 333 -43 336 1 1 47 8 102 17 331 53 680 162 950 299 39 19 73 33 76 31 3
-2 9 -34 13 -71z m-2264 -217 c286 -60 481 -78 795 -74 l250 3 21 -170 c21
-169 22 -195 1 -195 -18 0 -77 -50 -92 -79 -38 -75 -51 -484 -32 -1055 l8
-249 -113 7 c-62 3 -295 9 -517 13 l-404 6 5 421 c7 635 -5 827 -55 874 -27
25 -93 62 -110 62 -7 0 -21 6 -31 13 -15 11 -16 20 -7 82 6 39 17 133 26 210
23 203 14 185 82 169 32 -8 110 -25 173 -38z m7611 -63 c11 -13 11 -17 2 -20
-7 -3 -13 -12 -13 -21 0 -11 3 -13 8 -5 4 6 7 -426 7 -960 0 -741 -3 -974 -12
-980 -14 -9 -290 -16 -663 -18 l-265 -1 -7 249 c-8 329 -1 497 22 518 34 31
121 46 296 52 l172 6 16 -49 c22 -68 36 -278 36 -538 0 -121 3 -217 6 -213 10
9 5 468 -7 597 -11 132 -22 182 -45 201 -40 33 -404 4 -474 -38 -26 -15 -29
-22 -35 -97 -4 -45 -6 -217 -4 -384 l4 -303 -70 -3 c-38 -2 -245 -6 -460 -7
l-390 -4 -6 70 c-10 109 -10 423 0 492 20 138 103 192 395 258 82 19 156 41
166 50 24 21 28 49 45 265 24 310 44 422 96 560 32 82 43 98 111 151 154 122
445 185 869 188 163 1 188 -1 200 -16z m-8646 -308 c366 -35 672 -94 793 -153
86 -41 85 -32 85 -652 -1 -439 -34 -1635 -47 -1647 -2 -2 -36 1 -77 7 -208 27
-418 32 -1586 37 l-1223 5 0 32 c1 100 41 369 76 511 76 305 202 534 360 656
40 31 148 77 229 98 111 30 361 61 480 61 232 0 508 -48 641 -111 71 -33 101
-37 106 -11 8 36 -6 51 -75 82 -120 54 -375 110 -500 110 -32 0 -49 5 -53 14
-11 28 51 437 97 641 49 222 83 307 127 324 42 15 390 13 567 -4z m3538 -20
c24 -10 32 -32 62 -169 42 -190 129 -759 119 -777 -2 -3 -36 -9 -77 -12 -240
-21 -607 -132 -607 -184 0 -22 18 -43 37 -43 7 0 32 9 56 19 205 93 468 141
767 141 251 0 462 -41 603 -117 105 -57 225 -196 271 -313 10 -25 24 -58 32
-75 67 -143 150 -547 166 -805 l3 -45 -755 3 c-739 3 -1012 -3 -1630 -33 -168
-9 -341 -16 -385 -18 l-80 -2 -12 175 c-34 516 -56 1077 -57 1505 -1 454 7
580 37 609 65 62 403 123 812 146 166 9 612 6 638 -5z m-5590 -710 c47 -22
116 -91 165 -165 43 -65 152 -275 152 -293 0 -7 -15 -29 -34 -49 -46 -49 -109
-143 -146 -219 -17 -35 -35 -72 -41 -81 -5 -10 -9 -24 -9 -32 0 -8 -4 -17 -9
-20 -9 -6 -457 -46 -510 -46 -27 0 -28 3 -59 138 -71 302 -70 415 2 569 50
105 133 181 236 214 45 15 211 5 253 -16z m-1971 -57 c52 -23 142 -117 222
-233 142 -206 149 -210 396 -219 213 -7 328 -28 424 -75 53 -26 68 -39 85 -74
27 -56 51 -160 51 -224 l0 -51 -37 -6 c-38 -6 -193 -20 -403 -36 -63 -5 -241
-21 -395 -35 -154 -14 -356 -32 -450 -40 -93 -9 -289 -27 -434 -40 -145 -14
-272 -25 -283 -25 -16 0 -18 9 -18 78 0 107 -26 275 -50 330 -39 88 -73 101
-216 83 -113 -15 -327 -49 -379 -61 -22 -5 -113 -23 -202 -40 -89 -17 -175
-35 -192 -40 l-30 -8 -3 244 -3 244 30 10 c102 33 932 169 1275 210 283 33
544 37 612 8z m-1935 -595 c-1 -54 -3 -12 -3 92 0 105 2 149 3 98 2 -51 2
-136 0 -190z m995 -14 c42 -53 67 -166 75 -335 l6 -121 -89 -7 c-91 -7 -493
-45 -754 -71 -80 -8 -161 -15 -180 -15 l-35 0 3 207 c2 115 6 211 10 215 14
13 684 138 817 152 79 8 127 0 147 -25z m-988 -125 c3 -8 2 -12 -4 -9 -6 3
-10 10 -10 16 0 14 7 11 14 -7z m-7 -296 c-1 -51 -3 -12 -3 87 0 99 2 141 3
93 2 -48 2 -129 0 -180z m0 -2331 c-1 -397 -2 -72 -2 723 0 795 1 1120 2 722
2 -397 2 -1047 0 -1445z m10911 1667 c69 -5 88 -10 113 -31 59 -50 96 -156 78
-226 -10 -40 -36 -62 -90 -78 -111 -32 -1139 -59 -2333 -61 -838 -1 -752 -11
-781 88 -27 92 -13 168 39 219 l31 32 215 12 c217 11 576 29 683 34 l58 2 -8
-35 c-4 -19 -8 -67 -8 -107 0 -65 3 -75 31 -110 33 -41 68 -54 77 -29 4 10 -5
28 -24 47 -39 40 -48 103 -25 182 l17 57 97 1 c53 1 201 4 327 8 266 7 1380 3
1503 -5z m-4583 -14 c316 -15 506 -38 579 -72 40 -18 76 -100 76 -172 0 -82
-25 -118 -100 -143 -51 -17 -104 -18 -750 -17 -677 1 -1026 9 -1785 39 -461
19 -493 25 -551 100 -54 71 -42 151 35 234 l38 41 1119 0 c615 0 1218 -5 1339
-10z"/>
<path d="M14011 19688 c-74 -11 -118 -34 -172 -89 -66 -67 -82 -108 -87 -214
-5 -104 6 -139 66 -217 27 -37 55 -58 109 -85 67 -33 76 -35 155 -31 98 4 155
28 217 92 111 115 125 280 34 417 -63 96 -194 148 -322 127z m189 -43 c110
-56 170 -156 170 -283 0 -82 -24 -140 -83 -200 -61 -63 -108 -85 -197 -90
-133 -7 -236 52 -297 172 -21 40 -27 66 -27 121 -1 144 96 269 239 306 51 14
141 1 195 -26z"/>
<path d="M2648 19681 c-93 -30 -208 -122 -266 -214 -61 -97 -75 -146 -80 -282
-4 -113 -2 -129 33 -265 27 -105 38 -166 37 -220 0 -164 -68 -243 -212 -244
-120 0 -182 48 -447 345 -223 250 -374 330 -565 299 -151 -24 -235 -96 -283
-240 -26 -79 -24 -225 4 -310 33 -103 94 -202 156 -256 51 -45 167 -114 190
-113 6 0 -21 16 -60 36 -130 67 -242 206 -280 349 -21 76 -21 202 0 279 18 70
77 160 120 186 16 10 35 22 40 27 21 17 120 36 191 35 54 -1 88 -8 148 -32
118 -47 215 -132 416 -362 174 -199 251 -252 365 -253 127 -1 198 54 225 172
16 68 8 141 -32 291 -36 138 -47 288 -28 383 10 55 51 154 69 168 3 3 17 21
30 40 34 50 117 114 195 151 60 28 75 31 135 27 98 -7 165 -55 227 -163 61
-105 28 -249 -131 -581 -26 -53 -44 -98 -42 -101 5 -4 32 49 110 217 90 197
124 352 94 429 -27 66 -85 138 -140 173 -44 27 -63 32 -122 35 -38 1 -82 -2
-97 -6z"/>
<path d="M5520 19060 c-78 -16 -135 -61 -164 -132 -36 -86 -8 -212 58 -263
127 -97 292 -59 357 80 75 162 -75 350 -251 315z m147 -46 c76 -44 108 -108
101 -199 -8 -90 -89 -174 -176 -183 -94 -9 -174 34 -217 117 -25 49 -18 155
13 199 71 98 178 124 279 66z"/>
<path d="M2785 18806 c-34 -37 -95 -224 -95 -287 1 -44 33 -114 58 -128 37
-20 120 -13 190 16 113 45 197 95 425 252 131 91 211 121 320 121 49 0 79 -6
109 -21 54 -27 63 -37 96 -101 25 -50 27 -61 27 -183 0 -111 -3 -138 -23 -188
-38 -99 -102 -173 -182 -210 -97 -45 -301 -31 -466 32 -98 38 -225 63 -282 57
-101 -12 -148 -52 -188 -163 -23 -62 -26 -84 -22 -152 5 -92 33 -150 97 -200
61 -48 57 -37 -8 27 -87 86 -104 180 -57 319 35 104 79 145 166 158 49 7 218
-23 267 -48 36 -19 221 -64 295 -72 119 -13 238 32 314 119 145 166 142 500
-4 601 -38 26 -54 30 -124 34 -87 4 -146 -9 -223 -47 -46 -23 -163 -98 -175
-112 -3 -3 -39 -28 -80 -55 -41 -26 -87 -56 -101 -66 -14 -9 -58 -34 -99 -54
-184 -93 -280 -87 -310 19 -18 66 4 167 65 287 26 52 29 67 10 45z"/>
<path d="M12390 18787 c-57 -30 -72 -44 -95 -91 -67 -134 20 -277 169 -278
166 -2 254 192 144 318 -17 19 -47 41 -66 49 -43 19 -119 19 -152 2z m137 -18
c67 -25 118 -106 110 -176 -14 -127 -163 -198 -268 -129 -45 30 -79 90 -79
139 0 37 23 102 44 123 50 49 130 67 193 43z"/>
<path d="M1290 18148 c68 -22 180 -27 425 -19 227 7 274 -35 275 -244 0 -168
-35 -269 -122 -355 -47 -46 -63 -55 -243 -131 -144 -61 -213 -118 -259 -214
-50 -105 -57 -246 -15 -339 29 -67 40 -65 13 2 -35 86 -39 162 -15 255 34 130
115 218 253 273 176 71 229 99 276 145 23 23 42 46 42 50 0 4 6 14 13 21 8 7
24 40 37 73 19 48 24 85 28 191 5 150 -4 190 -51 234 -47 43 -104 56 -237 51
-225 -9 -352 -5 -399 13 -24 9 -53 16 -65 15 -11 0 8 -10 44 -21z"/>
<path d="M2323 18106 c-40 -18 -64 -64 -65 -124 0 -47 17 -110 28 -99 3 3 0
15 -6 28 -20 36 -8 134 19 163 26 27 73 39 118 30 23 -5 35 -15 46 -43 41 -96
35 -140 -27 -176 -43 -25 -100 -33 -111 -15 -3 6 -11 10 -17 10 -7 0 -6 -6 2
-15 18 -21 76 -19 126 6 56 27 72 69 55 143 -17 73 -38 97 -92 102 -26 3 -57
-2 -76 -10z"/>
<path d="M2910 17613 c0 -4 19 -21 43 -36 92 -60 186 -137 270 -222 40 -41
125 -157 135 -185 3 -8 14 -35 26 -60 31 -67 30 -208 -2 -268 -37 -70 -96
-127 -163 -157 -52 -23 -72 -27 -128 -23 -58 3 -78 10 -139 46 -74 44 -122 86
-179 157 -18 22 -32 34 -33 27 0 -26 163 -177 225 -207 52 -26 71 -30 145 -30
75 0 90 3 134 29 64 37 118 91 147 146 20 38 24 60 24 135 0 108 -11 148 -66
240 -55 91 -51 86 -144 180 -89 90 -295 250 -295 228z"/>
<path d="M2415 17600 c-34 -14 -91 -83 -108 -130 -9 -25 -23 -116 -32 -202 -9
-87 -22 -195 -30 -240 -16 -90 -18 -131 -5 -83 13 43 38 221 50 351 13 145 31
199 81 253 38 41 45 45 98 49 67 5 108 -12 140 -56 22 -31 51 -177 51 -258 0
-76 27 -264 46 -320 17 -51 32 -77 20 -34 -4 14 -14 48 -21 75 -8 28 -21 131
-30 230 -24 281 -42 335 -123 366 -29 11 -110 11 -137 -1z"/>
<path d="M2185 16848 c-46 -77 -163 -167 -275 -212 -123 -49 -178 -56 -270
-31 -73 19 -74 13 -2 -14 84 -30 113 -27 254 25 132 49 266 152 309 236 29 58
19 55 -16 -4z"/>
<path d="M1390 16776 c0 -4 7 -14 15 -22 8 -8 20 -23 27 -32 21 -28 109 -92
127 -91 10 0 8 4 -7 10 -25 10 -25 10 -106 88 -31 30 -56 51 -56 47z"/>
<path d="M3920 15670 c-98 -21 -218 -104 -279 -194 -69 -101 -89 -247 -52
-378 93 -324 517 -427 750 -183 227 238 141 619 -165 735 -67 25 -185 34 -254
20z m204 -26 c325 -84 435 -500 190 -722 -73 -66 -71 -65 -147 -95 -201 -80
-438 16 -538 219 -33 66 -34 73 -34 184 0 114 0 115 39 188 101 189 292 277
490 226z"/>
<path d="M1460 14963 c-73 -38 -104 -144 -63 -213 32 -56 122 -85 185 -61 43
16 87 71 94 117 7 51 -20 118 -61 147 -38 27 -113 32 -155 10z m136 -25 c41
-32 52 -48 59 -90 7 -40 -12 -94 -45 -123 -24 -22 -89 -30 -131 -16 -77 25
-106 138 -52 201 14 18 36 36 47 40 40 16 92 11 122 -12z"/>
<path d="M2690 13001 c-73 -38 -106 -131 -75 -209 73 -182 342 -118 323 78 -6
57 -28 94 -78 128 -42 28 -120 30 -170 3z m152 -17 c48 -23 71 -60 76 -121 6
-67 -22 -113 -87 -145 -40 -19 -49 -20 -90 -9 -89 24 -136 101 -112 184 7 23
18 48 25 56 39 49 126 65 188 35z"/>
<path d="M11520 16613 c-78 -40 -104 -93 -108 -224 -6 -145 30 -242 196 -539
42 -74 84 -153 95 -175 54 -110 85 -256 122 -580 46 -401 82 -530 170 -618 54
-54 119 -70 259 -65 120 4 164 19 218 73 65 64 91 211 76 425 -29 418 -140
813 -337 1202 -91 181 -227 392 -277 430 -69 52 -181 91 -274 95 -78 4 -90 2
-140 -24z m253 -22 c31 -10 82 -33 113 -52 49 -29 67 -51 139 -159 276 -417
448 -918 496 -1447 25 -277 -16 -421 -136 -475 -42 -18 -67 -22 -150 -21 -125
1 -175 14 -220 59 -83 82 -126 233 -160 559 -41 396 -76 547 -157 690 -172
301 -229 422 -254 534 -31 138 2 263 82 308 51 29 165 31 247 4z"/>
<path d="M8780 16058 c0 -57 -8 -113 -25 -177 -14 -52 -24 -96 -21 -98 2 -2
15 10 29 26 61 73 86 221 50 296 -9 19 -20 35 -25 35 -4 0 -8 -37 -8 -82z"/>
<path d="M10976 14955 c-51 -18 -141 -80 -171 -119 -38 -48 -9 -44 81 12 165
102 184 114 184 118 0 9 -57 2 -94 -11z"/>
<path d="M9137 14675 c-51 -26 -77 -65 -77 -115 0 -101 117 -165 200 -108 49
33 69 93 51 145 -28 78 -106 114 -174 78z"/>
<path d="M8167 14282 c-28 -43 -93 -104 -134 -125 -53 -28 -118 -40 -218 -41
l-100 -1 -3 -27 c-4 -38 25 -48 139 -48 l89 0 0 -39 c0 -51 36 -353 54 -456
39 -222 127 -499 213 -675 83 -168 216 -340 333 -430 114 -88 271 -155 424
-181 100 -17 359 -6 461 20 142 35 312 102 413 163 34 21 66 38 71 38 5 0 11
4 13 8 2 5 26 23 53 42 149 100 341 292 454 452 19 26 37 48 41 48 3 0 19 -14
36 -31 48 -50 90 -72 114 -59 20 10 29 60 11 60 -20 0 -102 85 -139 143 -21
34 -56 106 -76 160 -36 92 -40 97 -67 97 -42 0 -42 -37 -3 -134 13 -34 20 -64
16 -68 -5 -5 -76 -18 -158 -28 -166 -22 -406 -26 -549 -10 -293 34 -595 138
-850 293 -44 27 -81 53 -83 58 -2 5 -8 9 -13 9 -17 0 -144 101 -253 200 -113
104 -236 243 -313 353 l-26 38 36 34 c73 69 109 154 71 169 -27 10 -33 7 -57
-32z m-49 -304 c204 -265 441 -476 705 -627 31 -18 57 -38 57 -45 0 -12 -28
-79 -98 -230 l-27 -58 -60 8 c-33 5 -154 9 -270 9 l-210 0 -35 105 c-81 236
-137 522 -156 797 -7 100 -3 133 14 133 5 0 41 -42 80 -92z m917 -731 c33 -14
96 -39 140 -55 75 -28 80 -31 79 -58 -2 -36 -65 -171 -115 -247 -45 -67 -48
-87 -16 -87 14 0 31 14 48 38 26 36 102 188 133 265 17 42 20 42 94 23 29 -8
95 -20 145 -27 51 -7 96 -15 100 -19 11 -9 -52 -155 -153 -355 l-86 -170 -54
1 c-83 2 -395 84 -590 156 -61 23 -62 25 -35 67 21 34 135 267 135 277 0 2 15
37 33 76 19 40 40 90 48 111 7 21 18 36 24 33 5 -2 37 -15 70 -29z m1385 -132
c0 -10 -54 -91 -108 -160 -67 -86 -237 -255 -317 -316 -75 -56 -188 -129 -201
-129 -5 0 -25 15 -44 33 -19 18 -55 48 -80 67 -25 19 -54 43 -64 52 -11 10
-23 18 -28 18 -16 0 -7 30 37 119 25 50 45 93 45 96 0 3 16 39 35 81 19 41 35
80 35 85 0 5 68 9 159 9 141 0 455 30 470 45 6 7 61 6 61 0z m-1790 -136 c46
-5 87 -12 92 -15 9 -6 -53 -135 -88 -181 -37 -49 -29 -84 25 -113 105 -55 552
-183 691 -196 81 -8 100 5 150 100 19 36 40 66 45 66 6 0 24 -13 41 -28 18
-15 57 -47 87 -72 31 -25 58 -50 61 -57 9 -22 -219 -106 -374 -139 -109 -22
-326 -23 -425 -1 -234 52 -415 178 -555 387 -59 88 -130 218 -130 239 0 20
246 27 380 10z"/>
<path d="M9873 14435 c-93 -74 -44 -225 74 -225 52 0 94 21 117 60 19 33 20
96 2 128 -35 64 -135 83 -193 37z"/>
<path d="M6905 11965 c-14 -13 -25 -36 -25 -50 0 -33 41 -75 73 -75 39 0 77
36 77 74 0 68 -78 99 -125 51z m87 -12 c24 -21 23 -48 -2 -73 -23 -23 -40 -25
-62 -7 -28 21 -31 54 -9 76 25 25 48 27 73 4z"/>
<path d="M7865 11568 c-28 -16 -35 -28 -35 -65 0 -53 49 -84 103 -64 72 27 42
143 -36 141 -7 0 -21 -6 -32 -12z m66 -18 c38 -21 15 -100 -28 -100 -25 0 -53
30 -53 56 0 13 10 30 22 38 26 19 33 19 59 6z"/>
<path d="M10773 11485 c-73 -31 -49 -135 32 -135 37 0 62 19 71 54 15 59 -44
106 -103 81z m71 -31 c20 -19 20 -34 0 -62 -18 -26 -50 -28 -76 -5 -34 31 -12
83 37 83 13 0 31 -7 39 -16z"/>
<path d="M10078 11345 c-60 -33 -38 -126 32 -133 69 -7 106 73 55 123 -27 28
-48 31 -87 10z m72 -25 c24 -24 26 -53 4 -74 -31 -31 -84 -11 -84 32 0 31 9
47 30 55 25 9 29 8 50 -13z"/>
<path d="M9103 11320 c-73 -30 -47 -140 33 -140 37 0 74 38 74 75 0 49 -59 85
-107 65z m51 -22 c33 -15 42 -43 22 -73 -19 -29 -51 -32 -78 -8 -24 21 -23 44
2 71 24 26 22 25 54 10z"/>
<path d="M3155 10520 c-167 -24 -336 -112 -443 -228 -129 -142 -216 -364 -225
-576 -2 -46 2 -61 16 -70 31 -20 51 4 59 70 41 350 173 561 422 674 58 26 190
60 235 60 11 0 24 7 29 16 10 18 5 54 -8 54 -5 0 -14 2 -22 4 -7 2 -36 0 -63
-4z"/>
<path d="M10462 10189 c-34 -13 -60 -58 -72 -127 l-12 -68 -64 -22 c-35 -12
-84 -34 -108 -49 -48 -29 -96 -94 -96 -130 0 -23 26 -83 40 -93 4 -3 13 -36
20 -75 19 -106 31 -127 127 -224 148 -149 185 -161 263 -83 55 54 155 208 170
261 5 20 10 71 10 115 0 69 3 82 25 108 32 38 32 78 0 111 -28 27 -121 75
-165 84 -27 5 -28 7 -32 83 -3 44 -10 85 -17 93 -14 18 -61 26 -89 16z m52
-65 c3 -9 6 -44 6 -80 0 -73 4 -77 107 -114 61 -22 113 -58 113 -79 0 -17 -33
-22 -181 -26 -122 -3 -162 -8 -258 -34 -62 -17 -117 -31 -121 -31 -15 0 -20
32 -7 54 25 48 66 72 214 126 34 13 53 49 53 102 0 45 26 98 48 98 11 0 23 -7
26 -16z m176 -435 c0 -67 -4 -90 -26 -132 -48 -96 -160 -237 -188 -237 -15 0
-97 70 -163 140 -68 70 -89 117 -95 204 -3 47 -2 50 27 58 105 31 210 47 323
47 l122 1 0 -81z"/>
<path d="M3630 6194 c-83 -22 -158 -78 -192 -143 -69 -132 -9 -373 115 -457
55 -38 115 -49 188 -33 99 21 187 83 237 167 23 41 27 57 26 122 -1 62 -7 86
-33 141 -38 79 -77 128 -143 180 -42 33 -57 39 -96 38 -26 0 -72 -7 -102 -15z
m164 -30 c23 -15 60 -50 83 -78 96 -118 127 -241 84 -330 -29 -59 -83 -110
-151 -144 -78 -38 -179 -39 -236 -1 -81 54 -135 172 -137 300 -1 90 24 152 81
199 36 29 127 65 187 73 17 2 34 5 39 6 5 0 27 -11 50 -25z"/>
<path d="M14435 5634 c-16 -8 -37 -22 -45 -30 -8 -9 3 -5 25 8 24 13 65 25
100 29 l60 6 -55 1 c-33 1 -67 -4 -85 -14z"/>
<path d="M14588 5633 c7 -3 16 -2 19 1 4 3 -2 6 -13 5 -11 0 -14 -3 -6 -6z"/>
<path d="M14648 5610 c42 -26 56 -26 17 0 -16 11 -34 20 -40 20 -5 0 5 -9 23
-20z"/>
<path d="M14354 5545 c-7 -19 -13 -51 -13 -72 1 -35 2 -34 9 13 4 28 13 60 19
72 6 12 9 22 6 22 -3 0 -13 -16 -21 -35z"/>
<path d="M14704 5560 c9 -13 16 -34 16 -47 0 -12 4 -24 9 -27 16 -10 -7 66
-25 83 -16 15 -16 15 0 -9z"/>
<path d="M14721 5443 c0 -12 -13 -35 -27 -52 -14 -17 -22 -31 -17 -31 15 0 55
69 50 87 -4 15 -5 14 -6 -4z"/>
<path d="M14390 5390 c19 -16 55 -35 80 -42 56 -16 148 -16 175 0 18 11 16 11
-10 5 -77 -20 -193 1 -238 43 -14 13 -30 24 -34 24 -4 0 8 -14 27 -30z"/>
<path d="M7074 4981 c-105 -64 -183 -267 -184 -481 0 -264 91 -445 225 -442
84 1 150 66 205 200 40 98 53 196 48 353 -4 111 -9 146 -30 206 -28 80 -75
146 -119 168 -39 21 -108 19 -145 -4z m152 -67 c62 -67 94 -186 94 -350 0
-288 -127 -510 -253 -442 -28 14 -41 31 -73 92 -54 102 -68 293 -34 454 47
232 173 348 266 246z"/>
<path d="M5407 4553 c-32 -4 -38 -8 -35 -26 3 -22 6 -22 233 -28 571 -17 765
-124 855 -474 26 -103 43 -292 38 -417 -6 -111 1 -137 32 -118 22 14 20 376
-3 480 -42 186 -99 307 -185 387 -91 86 -280 156 -487 182 -99 13 -387 22
-448 14z"/>
<path d="M8840 5019 c-169 -68 -202 -505 -58 -792 118 -237 306 -199 364 74
21 96 13 290 -15 406 -36 144 -113 271 -184 304 -47 21 -70 22 -107 8z m79
-53 c65 -34 125 -135 163 -274 31 -115 32 -330 0 -429 -26 -83 -74 -143 -114
-143 -70 0 -150 114 -195 276 -23 87 -27 117 -27 244 0 124 3 153 22 199 26
65 60 117 87 130 27 13 32 13 64 -3z"/>
<path d="M10290 4539 c-323 -30 -573 -128 -679 -265 -45 -59 -65 -105 -92
-209 -21 -81 -23 -113 -24 -305 0 -230 5 -270 33 -270 16 0 17 18 17 233 0
245 7 302 56 433 82 218 440 344 982 344 l137 0 0 25 0 25 -167 -1 c-93 -1
-211 -6 -263 -10z"/>
<path d="M6537 3263 c-15 -14 -6 -34 19 -45 55 -25 60 -103 13 -170 -26 -36
-24 -58 4 -58 18 0 30 12 49 48 34 63 41 95 28 142 -15 57 -87 110 -113 83z"/>
<path d="M12843 12479 c-82 -40 -125 -130 -104 -216 16 -63 50 -106 104 -132
98 -47 211 -12 257 79 27 54 31 85 20 136 -28 124 -162 188 -277 133z m167
-19 c58 -30 94 -89 94 -155 0 -204 -291 -240 -345 -43 -38 144 117 266 251
198z"/>
<path d="M14596 11900 c-93 -39 -159 -99 -205 -185 -24 -46 -26 -60 -26 -165
0 -107 2 -118 28 -165 79 -142 203 -212 356 -203 140 9 250 81 310 203 93 187
18 405 -171 501 -74 38 -219 44 -292 14z m287 -34 c168 -83 242 -289 164 -459
-34 -74 -84 -127 -159 -168 -59 -32 -69 -34 -158 -34 -82 0 -103 4 -152 27
-66 31 -134 97 -169 165 -21 42 -24 61 -24 158 l0 110 38 63 c41 66 109 125
182 155 65 28 204 19 278 -17z"/>
<path d="M13645 10079 c-64 -15 -135 -75 -172 -148 -29 -55 -33 -72 -33 -140
0 -63 5 -87 26 -129 114 -228 452 -213 543 24 44 117 21 226 -69 316 -80 80
-173 104 -295 77z m227 -49 c193 -117 180 -387 -24 -487 -66 -33 -166 -32
-234 2 -62 32 -82 50 -115 100 -39 61 -54 136 -40 200 22 97 102 187 192 214
19 6 64 9 101 7 55 -3 77 -9 120 -36z"/>
<path d="M12922 7919 c-64 -32 -95 -79 -100 -150 -6 -77 2 -102 44 -149 88
-98 236 -87 308 23 25 38 27 49 24 113 -3 60 -8 77 -32 109 -55 72 -160 95
-244 54z m172 -18 c46 -29 71 -62 84 -112 24 -96 -27 -182 -125 -209 -41 -12
-52 -11 -96 4 -55 20 -61 24 -96 74 -20 28 -23 43 -19 96 4 73 34 122 90 149
46 23 123 22 162 -2z"/>
<path d="M13827 3913 c-12 -3 -17 -12 -15 -26 3 -25 33 -34 114 -36 93 -2 150
36 88 59 -25 10 -153 12 -187 3z m183 -13 c12 -7 12 -12 3 -21 -16 -16 -151
-17 -178 -2 -19 11 -19 12 5 22 32 13 150 14 170 1z"/>
<path d="M3663 3848 c-28 -14 -37 -38 -20 -55 21 -21 131 -34 191 -22 86 16
102 58 29 78 -48 14 -171 13 -200 -1z m224 -21 c16 -15 14 -18 -20 -32 -41
-17 -152 -20 -191 -5 -36 13 -32 37 7 49 50 16 185 8 204 -12z"/>
<path d="M815 3574 c-65 -15 -94 -29 -98 -46 -12 -45 65 -72 192 -66 137 6
188 48 112 92 -33 19 -157 32 -206 20z m187 -24 c89 -25 31 -71 -97 -77 -81
-3 -180 20 -180 42 0 6 16 18 35 27 40 21 180 25 242 8z"/>
<path d="M12350 3574 c-98 -18 -131 -40 -111 -73 25 -39 229 -55 329 -26 45
14 52 19 52 41 0 19 -8 28 -35 40 -35 14 -189 26 -235 18z m189 -22 c36 -9 66
-22 68 -29 3 -6 -11 -20 -29 -30 -47 -25 -245 -25 -303 1 l-40 17 23 19 c13
10 44 22 70 25 26 3 54 8 62 9 36 8 89 3 149 -12z"/>
<path d="M2492 3190 c-69 -13 -122 -36 -122 -53 0 -42 71 -65 230 -73 168 -9
296 14 324 58 13 21 -10 42 -64 58 -48 15 -303 21 -368 10z m275 -11 c140 -19
180 -44 115 -73 -106 -45 -384 -42 -479 6 -32 16 -29 23 20 43 81 33 211 42
344 24z"/>
<path d="M14171 3149 c-83 -14 -106 -44 -53 -69 40 -19 207 -24 267 -8 53 14
73 42 38 55 -10 4 -20 10 -23 14 -9 13 -171 18 -229 8z m218 -20 c91 -32 -45
-68 -189 -50 -94 12 -118 29 -67 48 41 15 214 16 256 2z"/>
<path d="M3885 2550 c-73 -15 -97 -28 -93 -52 5 -36 56 -57 154 -64 223 -16
343 74 154 116 -53 11 -158 11 -215 0z m256 -27 c21 -8 39 -21 39 -28 0 -44
-247 -66 -338 -30 -66 27 -54 45 48 74 47 14 202 4 251 -16z"/>
<path d="M7680 2550 c-86 -15 -151 -54 -149 -89 0 -26 50 -57 120 -75 169 -42
396 6 387 82 -8 67 -197 110 -358 82z m270 -27 c25 -9 54 -24 64 -34 44 -41
-35 -90 -170 -104 -129 -14 -299 32 -292 79 11 72 260 109 398 59z"/>
<path d="M12607 2550 c-95 -24 -87 -89 13 -111 100 -21 210 8 210 56 0 17 -9
29 -32 41 -38 20 -138 27 -191 14z m142 -11 c57 -12 80 -32 65 -57 -22 -34
-162 -46 -227 -18 -53 22 -47 46 18 70 49 18 80 19 144 5z"/>
<path d="M1477 1880 c-82 -21 -113 -71 -64 -103 60 -39 277 -48 358 -14 71 29
74 63 10 101 -26 15 -57 20 -149 22 -65 2 -134 -1 -155 -6z m277 -22 c133 -48
2 -119 -195 -105 -241 16 -184 132 61 123 52 -2 113 -10 134 -18z"/>
<path d="M14480 1874 c-192 -36 -181 -100 21 -125 115 -14 372 -6 448 15 60
16 88 41 70 63 -28 33 -111 46 -314 49 -110 1 -211 0 -225 -2z m397 -15 c77
-12 133 -32 133 -48 0 -31 -163 -61 -330 -61 -227 0 -397 53 -286 90 87 28
346 39 483 19z"/>
<path d="M11023 1799 c-89 -28 -97 -70 -20 -105 35 -16 66 -19 192 -19 132 0
154 2 184 20 19 11 39 28 45 38 16 26 -29 62 -94 76 -82 18 -236 13 -307 -10z
m302 -4 c66 -17 91 -35 82 -59 -12 -30 -78 -48 -193 -53 -122 -6 -206 10 -238
46 -17 19 -17 20 9 37 66 43 230 57 340 29z"/>
<path d="M5435 1709 c-70 -9 -146 -34 -157 -52 -4 -7 -8 -22 -8 -35 0 -93 472
-103 521 -11 23 43 -33 79 -153 99 -71 11 -116 11 -203 -1z m259 -24 c99 -26
114 -63 39 -97 -43 -19 -66 -22 -203 -22 -137 0 -160 3 -202 22 -32 14 -48 27
-48 39 0 24 49 53 108 63 82 14 244 11 306 -5z"/>
<path d="M8850 1389 c-86 -24 -102 -37 -82 -64 27 -38 185 -60 327 -45 152 16
202 58 113 95 -51 21 -301 31 -358 14z m339 -21 c58 -17 62 -34 14 -55 -49
-22 -327 -26 -385 -5 -58 21 -52 48 15 61 28 6 61 13 72 15 38 9 240 -2 284
-16z"/>
<path d="M3446 1209 c-91 -10 -166 -41 -166 -70 0 -50 153 -84 340 -76 132 6
205 24 235 57 15 16 16 22 5 35 -22 26 -78 45 -169 55 -97 11 -132 11 -245 -1z
m319 -25 c96 -24 113 -59 39 -82 -130 -41 -388 -36 -475 9 -39 20 -40 21 -24
39 25 28 79 43 180 50 114 7 204 2 280 -16z"/>
<path d="M10993 1070 c0 -30 2 -43 4 -27 2 15 2 39 0 55 -2 15 -4 2 -4 -28z"/>
<path d="M13191 1038 c2 -78 2 -80 9 -33 12 72 11 115 0 115 -6 0 -9 -33 -9
-82z"/>
<path d="M11620 1081 c0 -12 6 -21 15 -21 8 0 15 4 15 9 0 5 -7 14 -15 21 -13
10 -15 9 -15 -9z"/>
<path d="M12831 1070 c-2 -19 -2 -43 -1 -54 1 -10 -4 -31 -10 -47 -10 -23 -10
-36 0 -59 17 -40 23 -33 9 9 -9 25 -9 35 0 40 8 5 11 31 8 77 -1 38 -4 53 -6
34z"/>
<path d="M9740 1065 c0 -14 5 -25 10 -25 6 0 10 4 10 9 0 5 3 16 6 25 4 11 1
16 -10 16 -10 0 -16 -9 -16 -25z"/>
<path d="M10057 1063 c-11 -13 -17 -26 -15 -29 7 -7 40 34 37 44 -2 6 -12 -1
-22 -15z"/>
<path d="M11953 1083 c-18 -7 -16 -20 2 -20 8 0 15 6 15 14 0 7 -1 13 -2 12
-2 0 -9 -3 -15 -6z"/>
<path d="M9780 1051 c0 -5 5 -13 10 -16 6 -3 10 -2 10 4 0 5 -4 13 -10 16 -5
3 -10 2 -10 -4z"/>
<path d="M11911 1034 c0 -11 3 -14 6 -6 3 7 2 16 -1 19 -3 4 -6 -2 -5 -13z"/>
<path d="M11671 1035 c1 -19 18 -51 18 -35 0 8 -4 22 -9 30 -5 8 -9 11 -9 5z"/>
<path d="M9816 997 c3 -10 9 -15 12 -12 3 3 0 11 -7 18 -10 9 -11 8 -5 -6z"/>
<path d="M10017 1003 c-4 -3 -7 -11 -7 -17 0 -6 5 -5 12 2 6 6 9 14 7 17 -3 3
-9 2 -12 -2z"/>
<path d="M11610 985 c0 -14 5 -25 10 -25 6 0 10 11 10 25 0 14 -4 25 -10 25
-5 0 -10 -11 -10 -25z"/>
<path d="M11875 978 l-16 -33 20 25 c20 24 26 40 16 40 -2 0 -12 -15 -20 -32z"/>
<path d="M11962 990 c0 -14 2 -19 5 -12 2 6 2 18 0 25 -3 6 -5 1 -5 -13z"/>
<path d="M10288 983 c6 -2 18 -2 25 0 6 3 1 5 -13 5 -14 0 -19 -2 -12 -5z"/>
<path d="M10625 974 c46 -24 50 -30 56 -107 l7 -72 -2 76 c-1 69 -4 79 -26 98
-14 11 -34 20 -45 21 -16 0 -13 -4 10 -16z"/>
<path d="M10991 974 c0 -11 3 -14 6 -6 3 7 2 16 -1 19 -3 4 -6 -2 -5 -13z"/>
<path d="M11168 983 c6 -2 18 -2 25 0 6 3 1 5 -13 5 -14 0 -19 -2 -12 -5z"/>
<path d="M12158 983 c6 -2 18 -2 25 0 6 3 1 5 -13 5 -14 0 -19 -2 -12 -5z"/>
<path d="M12665 970 c-16 -11 -25 -20 -20 -20 6 0 21 7 33 16 14 9 36 14 52
12 16 -2 27 -1 24 4 -9 15 -59 8 -89 -12z"/>
<path d="M13018 983 c7 -3 16 -2 19 1 4 3 -2 6 -13 5 -11 0 -14 -3 -6 -6z"/>
<path d="M13368 983 c7 -3 16 -2 19 1 4 3 -2 6 -13 5 -11 0 -14 -3 -6 -6z"/>
<path d="M13768 983 c7 -3 16 -2 19 1 4 3 -2 6 -13 5 -11 0 -14 -3 -6 -6z"/>
<path d="M14048 983 c6 -2 18 -2 25 0 6 3 1 5 -13 5 -14 0 -19 -2 -12 -5z"/>
<path d="M10502 933 c1 -47 1 -47 5 -9 3 26 7 35 12 27 5 -7 11 -9 14 -4 3 5
-3 14 -14 21 -18 11 -19 9 -17 -35z"/>
<path d="M11230 972 c0 -12 19 -26 26 -19 2 2 -2 10 -11 17 -9 8 -15 8 -15 2z"/>
<path d="M11521 968 c0 -9 -4 -25 -7 -35 -5 -17 -5 -17 6 0 6 10 9 25 7 35 -4
15 -5 15 -6 0z"/>
<path d="M11700 972 c0 -5 7 -15 15 -22 8 -7 15 -8 15 -2 0 5 -7 15 -15 22 -8
7 -15 8 -15 2z"/>
<path d="M12343 926 c-1 -47 -1 -49 9 -21 6 17 14 35 19 40 5 6 1 15 -9 22
-16 9 -18 5 -19 -41z"/>
<path d="M14550 978 c0 -2 9 -11 20 -21 11 -9 20 -13 20 -7 0 5 -9 14 -20 20
-11 6 -20 9 -20 8z"/>
<path d="M10220 960 c-8 -5 -12 -11 -10 -14 3 -2 14 2 24 10 22 15 10 19 -14
4z"/>
<path d="M10350 966 c0 -2 7 -7 16 -10 8 -3 12 -2 9 4 -6 10 -25 14 -25 6z"/>
<path d="M10816 961 c-4 -5 3 -7 14 -4 23 6 26 13 6 13 -8 0 -17 -4 -20 -9z"/>
<path d="M12487 962 c6 -4 17 -20 23 -36 6 -16 13 -26 16 -23 9 8 -25 67 -39
67 -9 0 -9 -2 0 -8z"/>
<path d="M13315 959 c-11 -16 -1 -19 13 -3 7 8 8 14 3 14 -5 0 -13 -5 -16 -11z"/>
<path d="M13700 960 c-8 -5 -10 -10 -5 -10 6 0 17 5 25 10 8 5 11 10 5 10 -5
0 -17 -5 -25 -10z"/>
<path d="M13970 960 c-8 -5 -12 -11 -10 -14 3 -2 14 2 24 10 22 15 10 19 -14
4z"/>
<path d="M14105 960 c3 -5 11 -10 16 -10 6 0 7 5 4 10 -3 6 -11 10 -16 10 -6
0 -7 -4 -4 -10z"/>
<path d="M14397 963 c-4 -6 0 -18 8 -26 11 -11 16 -40 17 -104 l2 -88 5 90 c4
61 2 93 -5 100 -7 6 -14 17 -16 25 -3 9 -7 10 -11 3z"/>
<path d="M14450 960 c-8 -5 -12 -11 -10 -14 3 -2 14 2 24 10 22 15 10 19 -14
4z"/>
<path d="M10970 954 c0 -7 7 -27 15 -45 10 -24 14 -28 14 -14 0 21 -28 78 -29
59z"/>
<path d="M11964 855 c0 -60 1 -84 3 -52 2 32 2 81 0 110 -2 29 -3 3 -3 -58z"/>
<path d="M12080 949 c0 -5 5 -7 10 -4 6 3 10 8 10 11 0 2 -4 4 -10 4 -5 0 -10
-5 -10 -11z"/>
<path d="M13092 940 c0 -14 2 -19 5 -12 2 6 2 18 0 25 -3 6 -5 1 -5 -13z"/>
<path d="M13461 944 c0 -11 3 -14 6 -6 3 7 2 16 -1 19 -3 4 -6 -2 -5 -13z"/>
<path d="M14253 940 c-7 -10 -9 -21 -4 -24 4 -3 13 6 19 19 14 30 2 33 -15 5z"/>
<path d="M11361 934 c0 -11 3 -14 6 -6 3 7 2 16 -1 19 -3 4 -6 -2 -5 -13z"/>
<path d="M10391 940 c0 -3 6 -25 13 -50 8 -25 15 -36 15 -25 0 17 -26 88 -28
75z"/>
<path d="M10196 915 c-3 -9 -6 -31 -5 -48 1 -28 2 -26 10 12 9 46 6 65 -5 36z"/>
<path d="M12232 902 c-7 -15 -8 -30 -3 -35 5 -5 12 4 16 23 9 40 3 46 -13 12z"/>
<path d="M13672 910 c0 -14 2 -19 5 -12 2 6 2 18 0 25 -3 6 -5 1 -5 -13z"/>
<path d="M13947 923 c-4 -3 -7 -16 -6 -27 0 -19 1 -19 10 3 10 24 8 36 -4 24z"/>
<path d="M9938 886 c-16 -19 -28 -39 -28 -43 0 -9 34 31 51 60 15 27 7 20 -23
-17z"/>
<path d="M13457 898 c-3 -12 -2 -29 3 -37 7 -12 9 -6 10 22 0 42 -5 48 -13 15z"/>
<path d="M14594 835 c0 -49 1 -71 3 -48 2 23 2 64 0 90 -2 26 -3 8 -3 -42z"/>
<path d="M13192 855 c0 -53 1 -57 10 -32 7 20 7 39 0 60 -9 29 -10 27 -10 -28z"/>
<path d="M11475 845 c-10 -30 -15 -58 -13 -61 3 -3 14 20 23 51 10 30 15 58
13 61 -3 3 -14 -20 -23 -51z"/>
<path d="M12613 865 c0 -22 2 -30 4 -17 2 12 2 30 0 40 -3 9 -5 -1 -4 -23z"/>
<path d="M13066 886 l-29 -13 31 -5 c26 -4 32 -1 32 14 0 10 -1 18 -2 17 -2 0
-16 -6 -32 -13z"/>
<path d="M14150 890 c0 -5 5 -10 10 -10 6 0 10 5 10 10 0 6 -4 10 -10 10 -5 0
-10 -4 -10 -10z"/>
<path d="M11238 883 c7 -3 16 -2 19 1 4 3 -2 6 -13 5 -11 0 -14 -3 -6 -6z"/>
<path d="M11382 864 c7 -15 14 -21 16 -15 5 16 -5 41 -17 41 -7 0 -6 -10 1
-26z"/>
<path d="M10503 840 c0 -25 2 -35 4 -22 2 12 2 32 0 45 -2 12 -4 2 -4 -23z"/>
<path d="M10771 864 c0 -11 3 -14 6 -6 3 7 2 16 -1 19 -3 4 -6 -2 -5 -13z"/>
<path d="M11198 873 c7 -3 16 -2 19 1 4 3 -2 6 -13 5 -11 0 -14 -3 -6 -6z"/>
<path d="M12178 873 c6 -2 18 -2 25 0 6 3 1 5 -13 5 -14 0 -19 -2 -12 -5z"/>
<path d="M12523 815 c0 -38 2 -53 4 -32 2 20 2 52 0 70 -2 17 -4 1 -4 -38z"/>
<path d="M13655 870 c3 -5 8 -10 11 -10 2 0 4 5 4 10 0 6 -5 10 -11 10 -5 0
-7 -4 -4 -10z"/>
<path d="M14151 833 c0 -31 2 -34 9 -18 12 28 12 55 0 55 -5 0 -10 -17 -9 -37z"/>
<path d="M10986 837 c-5 -15 -6 -31 -2 -34 11 -11 18 5 14 34 l-4 28 -8 -28z"/>
<path d="M11101 836 c-15 -16 -21 -32 -18 -48 4 -23 4 -23 6 2 1 25 23 52 52
63 11 4 10 6 -2 6 -8 1 -26 -10 -38 -23z"/>
<path d="M11780 850 c0 -5 5 -10 10 -10 6 0 10 5 10 10 0 6 -4 10 -10 10 -5 0
-10 -4 -10 -10z"/>
<path d="M12086 847 c-11 -8 -16 -20 -13 -28 4 -11 6 -11 6 2 1 9 11 21 24 27
12 6 17 11 11 11 -5 1 -18 -5 -28 -12z"/>
<path d="M12943 841 c-30 -25 -30 -65 -1 -85 24 -17 98 -22 98 -7 0 6 -15 7
-34 4 -84 -13 -106 70 -26 100 13 5 13 5 0 6 -8 0 -25 -8 -37 -18z"/>
<path d="M13312 844 c-14 -10 -22 -25 -21 -42 1 -26 1 -26 10 6 5 17 16 32 24
32 7 0 17 5 20 10 9 15 -8 12 -33 -6z"/>
<path d="M12820 820 c0 -11 5 -20 10 -20 6 0 10 9 10 20 0 11 -4 20 -10 20 -5
0 -10 -9 -10 -20z"/>
<path d="M13660 831 c0 -5 5 -13 10 -16 6 -3 10 -2 10 4 0 5 -4 13 -10 16 -5
3 -10 2 -10 -4z"/>
<path d="M11256 821 c-4 -7 -5 -15 -2 -18 9 -9 19 4 14 18 -4 11 -6 11 -12 0z"/>
<path d="M11400 816 c0 -8 4 -17 9 -20 5 -4 7 3 4 14 -6 23 -13 26 -13 6z"/>
<path d="M12234 793 c1 -23 5 -45 9 -49 10 -10 8 46 -3 71 -5 14 -7 8 -6 -22z"/>
<path d="M13096 821 c-4 -7 -5 -15 -2 -18 9 -9 19 4 14 18 -4 11 -6 11 -12 0z"/>
<path d="M10200 809 c0 -28 46 -60 92 -65 49 -5 41 1 -15 11 -28 4 -43 14 -57
38 -11 18 -20 25 -20 16z"/>
<path d="M13455 799 c-4 -12 -2 -26 4 -32 8 -8 11 -7 11 5 0 9 3 23 6 32 3 9
1 16 -4 16 -6 0 -14 -9 -17 -21z"/>
<path d="M13940 812 c0 -5 7 -15 15 -22 8 -7 15 -8 15 -2 0 5 -7 15 -15 22 -8
7 -15 8 -15 2z"/>
<path d="M10391 794 c0 -11 3 -14 6 -6 3 7 2 16 -1 19 -3 4 -6 -2 -5 -13z"/>
<path d="M12630 790 c6 -11 15 -20 20 -20 6 0 2 9 -7 20 -10 11 -19 20 -21 20
-1 0 2 -9 8 -20z"/>
<path d="M10790 796 c0 -3 12 -17 27 -31 29 -26 75 -33 102 -16 10 6 1 8 -25
4 -33 -4 -45 -1 -72 22 -18 15 -32 24 -32 21z"/>
<path d="M10957 780 c-4 -17 -3 -19 9 -9 11 9 16 7 23 -12 10 -23 10 -23 10 5
1 16 -2 26 -6 23 -3 -4 -12 -2 -18 3 -9 8 -14 5 -18 -10z"/>
<path d="M11235 780 c-3 -5 3 -10 14 -10 11 0 23 5 26 10 3 6 -3 10 -14 10
-11 0 -23 -4 -26 -10z"/>
<path d="M12070 770 c6 -11 15 -20 20 -20 6 0 2 9 -7 20 -10 11 -19 20 -21 20
-1 0 2 -9 8 -20z"/>
<path d="M12821 783 c0 -4 4 -17 9 -28 8 -19 9 -19 9 2 1 12 -3 25 -9 28 -5 3
-10 3 -9 -2z"/>
<path d="M13085 780 c3 -5 8 -10 11 -10 2 0 4 5 4 10 0 6 -5 10 -11 10 -5 0
-7 -4 -4 -10z"/>
<path d="M14252 770 c0 -14 2 -19 5 -12 2 6 2 18 0 25 -3 6 -5 1 -5 -13z"/>
<path d="M12194 770 c-5 -5 -27 -14 -49 -19 -36 -8 -37 -9 -10 -10 17 0 44 8
60 19 17 11 25 20 20 20 -6 0 -15 -4 -21 -10z"/>
<path d="M13830 765 c-7 -8 -9 -15 -6 -15 4 0 14 7 22 15 9 8 11 15 6 15 -5 0
-15 -7 -22 -15z"/>
<path d="M10350 760 c-9 -6 -10 -10 -3 -10 6 0 15 5 18 10 8 12 4 12 -15 0z"/>
<path d="M11438 764 c-5 -4 -8 -19 -8 -33 1 -23 2 -24 11 -8 11 19 9 53 -3 41z"/>
<path d="M13300 759 c0 -5 4 -9 9 -9 5 0 17 -3 27 -7 11 -4 15 -3 11 4 -9 14
-47 24 -47 12z"/>
<path d="M13989 757 c9 -11 27 -17 55 -16 l41 1 -35 8 c-19 4 -44 11 -55 16
-18 7 -18 6 -6 -9z"/>
<path d="M11110 750 c8 -5 28 -10 44 -10 39 0 30 6 -19 13 -27 4 -35 3 -25 -3z"/>
<path d="M11610 749 c0 -5 5 -7 10 -4 6 3 10 8 10 11 0 2 -4 4 -10 4 -5 0 -10
-5 -10 -11z"/>
<path d="M12677 748 c6 -11 81 -10 87 0 3 5 -17 8 -44 8 -26 -1 -46 -4 -43 -8z"/>
<path d="M13370 750 c-13 -8 -13 -10 2 -10 9 0 20 5 23 10 8 13 -5 13 -25 0z"/>
<path d="M13753 743 c9 -2 25 -2 35 0 9 3 1 5 -18 5 -19 0 -27 -2 -17 -5z"/>
<path d="M11380 640 c-9 -6 -10 -10 -3 -10 6 0 15 5 18 10 8 12 4 12 -15 0z"/>
</g>
</svg>
