<?xml version="1.0" standalone="no"?>
<!DOCTYPE svg PUBLIC "-//W3C//DTD SVG 20010904//EN"
 "http://www.w3.org/TR/2001/REC-SVG-20010904/DTD/svg10.dtd">
<svg version="1.0" xmlns="http://www.w3.org/2000/svg"
 width="1583.000000pt" height="2048.000000pt" viewBox="0 0 1583.000000 2048.000000"
 preserveAspectRatio="xMidYMid meet">
<metadata>
Created by potrace 1.16, written by Peter Selinger 2001-2019
</metadata>
<g transform="translate(0.000000,2048.000000) scale(0.100000,-0.100000)"
fill="#000000" stroke="none">
<path d="M7881 20100 c-7231 -5 -7244 -5 -7255 -25 -6 -11 -17 -24 -23 -28
-10 -6 -13 -1394 -13 -6881 0 -5888 2 -6875 14 -6879 8 -3 17 -3 20 0 3 4 6
3097 6 6875 0 4710 3 6875 10 6889 11 19 107 19 7275 19 l7265 0 15 -23 c13
-21 15 -540 12 -4868 -2 -3858 -5 -4853 -15 -4888 -38 -130 -114 -228 -197
-251 -131 -37 -291 48 -362 191 -46 92 -92 199 -153 349 -112 278 -175 387
-286 497 -120 119 -249 169 -414 161 -99 -5 -169 -33 -245 -100 -149 -131
-227 -403 -180 -626 30 -146 98 -267 217 -383 130 -128 243 -191 429 -239 187
-48 219 -58 267 -80 114 -54 172 -135 158 -222 -22 -138 -116 -329 -207 -420
-92 -91 -167 -117 -379 -129 -274 -15 -376 -48 -486 -158 -125 -125 -181 -320
-138 -485 37 -144 163 -308 285 -373 53 -28 56 -28 224 -28 186 1 243 11 363
66 100 45 172 109 236 208 31 49 183 352 206 411 36 93 110 180 180 212 34 16
57 19 102 15 66 -6 106 -30 139 -83 20 -32 21 -45 16 -122 -4 -50 -22 -145
-43 -222 -83 -311 -97 -414 -70 -520 16 -64 92 -231 124 -273 40 -52 122 -124
167 -147 58 -29 82 -49 69 -58 -5 -4 -7 -196 -4 -469 4 -392 3 -464 -9 -468
-13 -5 -243 8 -351 20 -123 14 -1310 86 -1715 105 -121 6 -312 15 -425 20
-742 36 -1686 60 -2617 67 -475 3 -863 9 -863 13 0 4 12 29 27 55 31 57 43
170 23 229 -6 21 -10 40 -7 43 8 7 133 12 717 24 289 6 526 11 526 12 1 1 7
90 13 197 7 107 23 375 36 595 42 685 65 1091 65 1129 0 23 -4 26 -34 26 -32
0 -35 -3 -40 -37 -3 -21 -10 -135 -16 -253 -6 -118 -13 -231 -15 -250 -2 -19
-4 -38 -5 -43 0 -4 -570 -6 -1266 -5 l-1266 3 -27 67 c-14 36 -30 70 -34 74
-17 18 -5 56 32 93 51 52 98 134 140 243 l34 87 31 -21 c40 -28 148 -109 162
-123 6 -5 22 -17 34 -25 12 -8 28 -21 35 -27 7 -7 49 -39 92 -70 44 -32 110
-82 148 -110 37 -29 71 -53 75 -53 4 0 18 9 31 21 13 11 36 28 52 37 15 9 27
20 27 24 0 4 6 8 14 8 8 0 16 4 18 8 2 5 26 23 53 42 28 18 52 37 55 40 3 3
28 21 55 40 28 19 66 46 85 60 19 15 77 57 128 95 l94 68 106 14 c59 7 179 30
267 51 144 33 174 37 295 37 107 -1 154 -6 225 -24 360 -92 507 -61 594 122
43 90 84 269 94 407 l2 35 50 -5 c28 -3 129 -5 225 -5 187 1 326 19 426 56
119 45 229 140 279 243 26 55 55 155 55 193 0 29 17 36 145 58 141 25 285 61
390 98 80 28 97 39 155 97 107 109 328 507 582 1050 22 47 56 119 75 160 34
73 61 133 88 195 8 17 29 65 49 107 32 69 160 373 199 473 15 39 16 40 61 37
156 -10 360 77 502 215 94 92 129 137 216 283 156 259 245 510 223 628 -17 91
-77 172 -155 207 -37 17 -40 21 -40 59 0 128 -69 241 -172 283 -21 8 -38 22
-38 30 0 27 60 138 113 208 28 39 124 140 212 225 309 299 335 331 337 412 2
105 -74 157 -227 158 -139 0 -335 -64 -431 -141 -73 -58 -197 -198 -259 -291
-119 -178 -286 -542 -362 -791 l-8 -28 -40 32 c-22 17 -69 46 -105 63 -59 28
-74 31 -160 31 -84 -1 -101 -4 -150 -29 -118 -62 -224 -212 -271 -387 -26 -94
-35 -278 -20 -388 13 -98 60 -240 94 -285 39 -49 99 -109 142 -141 83 -60 125
-107 125 -140 0 -32 -53 -179 -147 -405 -58 -140 -62 -149 -137 -318 -25 -56
-46 -104 -46 -106 0 -7 -114 -247 -182 -381 -96 -191 -156 -302 -190 -352 -15
-23 -28 -44 -28 -48 0 -12 -134 -191 -162 -217 -45 -40 -153 -94 -270 -133
-58 -19 -111 -35 -117 -35 -6 0 -11 10 -11 21 0 35 -40 160 -71 219 -32 63
-76 113 -121 136 -25 13 -51 15 -122 11 -119 -6 -217 -41 -460 -163 -49 -25
-90 -44 -91 -42 -1 2 18 55 42 118 24 63 53 160 65 215 17 88 19 118 12 245
-5 80 -8 253 -8 385 0 279 3 300 100 690 59 235 66 273 71 396 6 147 0 221
-48 519 -17 102 -33 244 -36 315 -5 128 -5 133 50 405 84 414 101 558 93 815
-3 116 -10 228 -16 251 -5 22 -17 110 -26 195 -19 179 -14 479 13 794 9 105
16 273 17 375 1 210 -5 239 -76 348 -83 128 -216 218 -384 260 l-104 26 -25
50 c-15 30 -25 67 -25 94 0 56 39 139 85 181 86 78 145 64 335 -79 100 -75
137 -97 206 -120 113 -39 206 -18 292 67 75 74 115 163 120 268 3 71 1 84 -20
115 -14 20 -47 47 -81 64 -49 25 -69 30 -135 29 -49 0 -106 -8 -157 -22 -227
-65 -352 -85 -429 -70 -61 11 -86 33 -86 73 1 63 38 115 193 274 256 263 283
303 275 411 -6 81 -35 140 -91 185 -32 26 -48 31 -106 34 -118 7 -216 -33
-306 -123 -80 -79 -117 -184 -134 -375 -13 -134 -43 -210 -100 -247 -72 -48
-179 -16 -237 69 -28 41 -93 184 -146 322 -52 135 -147 255 -234 295 -157 74
-282 40 -378 -103 -71 -105 -77 -296 -14 -424 32 -64 118 -154 191 -200 75
-46 93 -53 222 -87 171 -44 227 -95 205 -187 -23 -99 -72 -194 -124 -241 -63
-57 -112 -74 -235 -80 -158 -9 -220 -28 -286 -89 -46 -42 -58 -48 -96 -48 -74
-1 -177 -19 -339 -60 -296 -74 -389 -74 -620 4 -74 26 -169 53 -210 62 -109
24 -323 22 -480 -5 -265 -44 -373 -54 -585 -55 -129 0 -241 4 -290 12 -111 19
-257 56 -340 88 -237 90 -403 95 -705 19 -231 -58 -268 -65 -368 -65 -127 0
-239 20 -457 80 -155 44 -325 80 -415 90 -152 17 -241 -1 -491 -101 -117 -46
-203 -69 -259 -69 -37 0 -47 6 -94 53 -39 39 -59 70 -79 122 -55 147 -43 320
29 404 78 90 160 110 489 121 138 4 275 13 305 20 315 68 460 216 485 495 18
196 -69 446 -195 559 -71 64 -119 80 -219 73 -217 -15 -337 -113 -611 -496
-24 -34 -51 -71 -60 -81 -8 -10 -31 -38 -50 -62 -38 -47 -180 -192 -220 -223
-71 -57 -136 -88 -183 -89 -42 -1 -51 3 -81 34 -96 103 -106 229 -51 650 17
134 29 276 32 409 9 309 -8 375 -124 482 -181 167 -404 173 -572 15 -253 -239
-303 -606 -128 -941 17 -33 73 -123 123 -200 94 -143 126 -207 150 -305 19
-77 17 -121 -6 -183 -24 -65 -69 -108 -153 -148 -101 -47 -196 -41 -352 24
-58 25 -253 129 -362 195 -175 105 -401 202 -519 222 -113 20 -264 9 -349 -25
-243 -97 -346 -253 -332 -505 8 -141 45 -249 130 -375 172 -254 426 -369 782
-352 146 7 242 33 405 110 169 79 232 99 331 105 96 5 123 -4 177 -59 52 -54
51 -60 -31 -143 -77 -76 -171 -211 -247 -351 -73 -134 -90 -174 -120 -275 -31
-106 -52 -141 -107 -185 -26 -22 -50 -42 -53 -45 -3 -3 -21 -17 -40 -30 -19
-13 -37 -27 -40 -30 -3 -3 -34 -26 -70 -51 -72 -49 -65 -44 -177 -133 -103
-83 -129 -133 -174 -336 -52 -238 -76 -301 -131 -341 -35 -26 -140 -79 -156
-79 -22 0 -150 -133 -185 -191 -110 -187 -122 -442 -32 -688 16 -45 84 -183
125 -256 50 -90 131 -198 237 -321 60 -69 80 -136 98 -339 29 -329 76 -454
230 -615 98 -102 114 -121 160 -185 81 -114 132 -228 156 -349 6 -28 14 -154
19 -281 9 -220 25 -332 51 -359 5 -6 9 -18 9 -27 0 -10 3 -19 8 -21 4 -2 18
-23 31 -48 33 -61 72 -110 163 -205 104 -109 154 -172 181 -225 19 -40 22 -61
22 -190 l0 -145 49 -95 c27 -52 68 -130 92 -172 47 -82 52 -102 30 -115 -17
-10 -96 -115 -96 -127 0 -5 -6 -17 -14 -25 -13 -16 -76 -173 -102 -258 -59
-194 -103 -491 -111 -748 l-5 -200 23 -11 c13 -6 50 -25 81 -42 32 -17 106
-49 164 -71 59 -22 108 -42 110 -43 1 -2 14 -145 28 -318 14 -173 30 -367 36
-430 24 -297 49 -676 51 -791 l2 -105 -49 -85 c-139 -237 -197 -419 -220 -691
-5 -61 -8 -68 -27 -68 -12 0 -89 -7 -172 -15 -82 -8 -204 -19 -270 -25 -66 -6
-199 -19 -295 -30 -96 -11 -321 -36 -500 -55 -179 -20 -414 -47 -523 -60 -109
-13 -212 -22 -228 -18 l-29 6 2 -2712 3 -2711 32 -30 32 -30 308 -2 c169 0
2165 0 4436 1 3666 1 4127 3 4127 16 0 13 -462 15 -4145 13 -3206 -2 -4145 0
-4145 9 0 6 8 18 18 25 10 7 33 33 52 58 19 25 37 47 40 50 27 27 85 155 106
231 23 86 22 233 -1 330 -25 102 -55 170 -233 539 -223 463 -300 744 -274
1007 15 155 44 239 152 448 217 418 321 827 323 1265 1 249 -32 427 -109 585
-44 90 -135 212 -114 152 5 -15 16 -39 23 -55 37 -72 52 -174 52 -347 -1 -277
-60 -514 -192 -780 -61 -122 -80 -151 -201 -310 -85 -112 -166 -260 -217 -397
-16 -42 -31 -76 -32 -74 -7 7 -2 2670 4 2677 9 7 51 12 602 75 398 45 1239
130 1341 136 l55 3 6 -90 c4 -49 18 -140 32 -202 40 -174 91 -262 191 -327 28
-19 62 -45 76 -58 51 -49 163 -75 245 -57 48 11 57 10 81 -6 22 -14 41 -16 96
-13 82 6 129 37 166 108 33 66 29 98 -32 223 -70 144 -95 221 -103 313 -3 40
-4 74 -2 74 2 0 31 -26 65 -58 77 -73 139 -97 229 -89 52 4 73 11 111 38 65
47 89 97 88 181 l-2 67 72 6 c39 4 123 10 186 13 l114 8 78 -48 c75 -44 127
-67 278 -121 l65 -23 0 -70 c0 -311 -17 -1745 -21 -1844 l-6 -125 -53 3 c-65
5 -115 -19 -183 -86 -137 -135 -174 -296 -104 -457 23 -54 26 -73 26 -195 1
-108 4 -141 18 -166 57 -104 332 -302 444 -320 33 -5 60 2 149 35 60 23 116
41 124 41 9 0 45 -30 81 -66 129 -132 279 -229 415 -269 81 -25 248 -24 330 0
58 18 135 49 204 83 89 45 193 174 248 307 26 64 28 81 28 195 0 127 -1 133
-48 240 -22 49 -85 136 -129 175 -77 70 -119 95 -223 131 -75 26 -265 24 -369
-5 -44 -11 -80 -21 -82 -21 -1 0 -13 19 -27 43 -53 88 -144 183 -271 280 l-78
60 6 201 c3 110 9 552 12 982 l7 781 106 7 c113 7 275 37 344 62 176 66 327
170 373 256 12 24 21 27 86 32 82 7 861 32 1299 42 l286 7 35 -26 c46 -36 138
-75 227 -98 41 -10 76 -20 77 -22 2 -1 -4 -194 -11 -427 -8 -234 -22 -625 -30
-870 -24 -718 -26 -760 -42 -760 -23 0 -94 -40 -141 -79 -59 -49 -137 -168
-163 -249 -26 -83 -36 -231 -20 -299 8 -31 27 -68 52 -98 l39 -47 0 -111 0
-111 56 -53 c67 -61 192 -126 279 -143 33 -7 109 -12 170 -12 98 0 116 3 167
28 l56 27 53 -46 c59 -52 183 -117 279 -147 88 -27 254 -36 361 -20 220 33
389 136 495 301 58 89 84 186 84 309 -1 117 -10 162 -58 257 -64 131 -156 207
-297 248 -121 36 -399 -4 -558 -80 l-69 -32 -36 56 c-52 79 -50 76 -127 156
-39 40 -90 82 -113 94 l-44 22 6 177 c3 97 11 470 17 827 6 358 14 740 18 849
l6 199 40 3 c22 1 92 5 155 8 208 11 380 58 500 138 l75 50 715 -6 c665 -6
1335 -18 1715 -31 485 -16 776 -27 1090 -40 409 -18 1362 -70 1550 -85 72 -6
234 -17 360 -26 410 -27 550 -40 570 -52 11 -6 16 -12 10 -12 -7 0 -9 -106 -7
-302 1 -167 -1 -298 -6 -293 -5 6 -16 43 -25 84 -42 179 -135 278 -240 255
-45 -9 -105 -41 -155 -81 -48 -40 -102 -94 -102 -105 0 -4 12 -13 27 -20 95
-46 64 -190 -107 -493 -81 -144 -114 -238 -131 -378 -38 -314 105 -691 340
-897 154 -134 184 -181 198 -310 6 -58 -5 -236 -14 -227 -2 3 -11 38 -19 79
-41 198 -161 347 -344 423 -36 15 -90 42 -121 61 -31 19 -60 34 -63 34 -4 0
-42 23 -84 52 -302 203 -552 450 -665 659 -61 110 -81 195 -74 313 7 125 44
273 98 386 35 74 93 175 109 190 3 3 23 27 44 54 l40 49 -30 -7 c-51 -12 -175
-75 -238 -121 -165 -119 -260 -255 -312 -445 -27 -97 -25 -321 4 -457 43 -201
135 -404 257 -568 127 -173 328 -335 535 -434 121 -57 175 -102 224 -184 71
-120 74 -281 8 -542 -67 -268 -80 -386 -58 -533 12 -77 24 -119 48 -165 31
-58 109 -147 153 -174 57 -36 118 -63 185 -85 99 -31 318 -33 420 -4 36 10 72
19 80 19 13 2 16 -87 20 -725 3 -399 2 -724 -2 -721 -5 2 -8 -5 -8 -15 0 -39
-20 -43 -229 -43 -169 0 -201 -2 -201 -14 0 -13 30 -15 178 -17 201 -1 226 0
230 12 2 5 9 7 15 4 7 -2 20 10 30 27 16 29 17 493 17 9610 0 9487 0 9580 -20
9617 -10 20 -19 33 -20 28 0 -5 -6 -4 -12 1 -7 6 -24 12 -38 14 -14 2 -3285 2
-7269 -1z m3637 -17 c-1985 -2 -5231 -2 -7215 0 -1985 1 -361 2 3607 2 3968 0
5592 -1 3608 -2z m-10911 -10366 c-1 -1871 -2 -340 -2 3403 0 3743 1 5274 2
3402 2 -1871 2 -4933 0 -6805z m2565 10073 c131 -67 200 -146 223 -257 28
-132 15 -425 -35 -801 -25 -182 -26 -358 -4 -432 30 -103 104 -180 171 -180
44 0 106 24 166 64 62 41 232 211 311 311 31 39 59 75 64 80 4 6 28 39 52 75
78 115 135 186 216 265 104 103 202 151 327 161 61 6 79 3 118 -15 91 -43 169
-145 225 -293 26 -68 28 -83 28 -233 1 -151 0 -164 -25 -223 -98 -232 -309
-320 -769 -322 -365 -1 -501 -76 -532 -289 -22 -156 17 -310 101 -398 17 -18
31 -34 31 -37 0 -18 -128 4 -352 59 l-108 27 0 54 c0 71 -30 133 -88 184 -51
45 -84 51 -154 23 -86 -33 -121 -88 -117 -181 l3 -55 -65 -13 c-82 -17 -142
-40 -199 -76 -41 -26 -46 -27 -55 -12 -75 127 -203 159 -390 96 -50 -17 -151
-57 -225 -90 -74 -33 -165 -67 -202 -76 -196 -49 -466 -23 -633 61 -286 144
-470 502 -399 777 32 124 94 202 219 272 238 132 502 88 913 -153 40 -24 75
-43 78 -43 3 0 18 -8 32 -19 41 -29 301 -158 352 -174 113 -36 213 -30 312 19
56 28 125 96 144 142 38 87 23 239 -35 359 -16 33 -65 113 -110 180 -161 241
-221 402 -221 591 0 149 60 313 161 437 55 68 56 68 123 114 70 49 118 62 208
57 61 -3 89 -10 140 -36z m8068 -1049 c79 -41 132 -159 110 -242 -16 -58 -98
-160 -270 -336 -159 -161 -189 -204 -198 -278 -3 -34 0 -47 21 -71 24 -28 30
-29 119 -32 99 -4 177 10 398 68 94 25 126 30 175 25 77 -9 143 -41 173 -85
21 -31 23 -44 20 -105 -7 -104 -38 -175 -112 -249 -70 -72 -122 -92 -210 -83
-66 7 -170 58 -255 126 -35 28 -92 68 -125 89 -54 33 -68 37 -128 37 -59 0
-70 -3 -104 -31 -52 -41 -104 -145 -103 -204 0 -49 22 -123 39 -128 5 -2 10
-8 10 -13 0 -5 -45 -9 -100 -9 -95 0 -100 1 -100 21 0 29 -63 87 -103 94 -66
13 -143 -38 -189 -124 l-17 -31 -115 0 c-89 0 -152 7 -288 34 -95 18 -200 37
-233 41 -33 4 -64 9 -68 12 -15 9 78 73 128 88 28 9 104 18 170 22 104 5 126
10 172 34 77 40 136 112 176 214 71 179 25 244 -216 306 -138 36 -195 67 -285
155 -82 82 -117 148 -131 250 -25 176 73 361 208 394 66 16 149 -1 219 -43 91
-54 147 -137 231 -342 109 -267 149 -324 245 -346 75 -16 119 -6 165 40 50 50
70 110 82 250 17 190 66 307 162 384 53 43 57 45 120 68 69 24 162 25 207 0z
m-7965 -1178 c48 -48 74 -106 75 -162 l0 -43 -32 6 c-18 4 -83 10 -145 13
l-111 6 -7 33 c-14 76 27 147 100 172 55 19 80 14 120 -25z m1700 -293 c353
-93 392 -101 531 -107 152 -7 194 -1 454 64 172 43 194 47 315 47 139 0 163
-4 312 -60 260 -96 540 -130 869 -104 126 10 398 45 425 54 8 3 65 10 127 15
190 17 295 1 540 -83 209 -72 340 -70 657 12 172 44 186 46 325 46 126 1 166
-4 310 -33 91 -18 201 -36 245 -40 89 -9 263 1 428 24 219 30 382 14 517 -53
95 -47 178 -129 221 -220 39 -82 47 -177 30 -392 -49 -636 -51 -883 -10 -1170
17 -118 23 -204 23 -360 1 -217 -10 -334 -50 -535 -85 -425 -94 -478 -94 -573
1 -97 19 -251 60 -517 16 -102 22 -187 23 -310 l1 -170 -62 -240 c-111 -438
-132 -608 -110 -878 19 -235 17 -395 -6 -492 -10 -44 -52 -165 -93 -270 -83
-210 -118 -334 -127 -446 -3 -41 -11 -218 -16 -394 -14 -446 -30 -583 -87
-735 -54 -145 -137 -176 -355 -131 -51 11 -140 29 -198 42 -138 28 -305 23
-460 -16 -294 -73 -546 -86 -785 -39 -280 54 -395 66 -605 60 -211 -5 -217 -6
-625 -96 -138 -31 -318 -24 -636 24 -308 46 -481 60 -659 53 -141 -6 -188 -14
-410 -69 -104 -26 -221 -27 -310 -3 -263 70 -534 79 -917 29 -65 -8 -136 -19
-158 -24 -93 -22 -88 -26 -139 132 -65 204 -113 403 -133 551 -14 109 -15 143
-5 235 16 143 15 221 -3 327 -25 141 -60 251 -139 433 -62 144 -71 217 -67
537 9 633 9 629 -22 735 -36 119 -83 248 -147 400 -66 157 -118 308 -129 375
-8 46 -11 192 -9 430 3 318 1 365 -14 400 -53 128 -118 386 -162 645 -4 19
-10 157 -15 305 -15 451 -49 581 -264 1017 -85 170 -147 311 -166 373 -34 111
-61 308 -61 450 0 138 -41 333 -95 450 -7 17 -25 55 -38 85 -14 30 -41 83 -61
117 -42 73 -38 80 56 93 144 21 262 8 536 -60 310 -76 439 -73 674 16 276 105
277 105 428 101 124 -4 151 -9 335 -57z m5552 30 c35 -21 57 -54 50 -74 -5
-13 -220 -43 -245 -35 -22 7 39 88 83 109 50 25 72 25 112 0z m-7642 -172
c125 -222 185 -444 185 -693 0 -131 25 -282 65 -403 20 -59 87 -210 149 -337
140 -285 146 -298 185 -416 60 -182 71 -259 81 -567 6 -165 16 -322 25 -375
39 -227 92 -437 157 -617 18 -51 19 -77 16 -430 -2 -297 0 -386 11 -430 14
-57 115 -329 171 -460 35 -85 95 -252 113 -320 9 -32 12 -184 12 -535 1 -565
-4 -530 99 -787 35 -90 77 -212 92 -273 25 -104 26 -116 19 -255 -11 -199 -8
-339 11 -445 22 -123 76 -338 117 -465 19 -58 34 -106 32 -108 -2 -2 -59 24
-128 58 -168 83 -239 95 -472 85 -296 -14 -280 -15 -283 20 -4 46 -41 272 -56
345 -40 190 -51 234 -83 335 -36 112 -99 257 -114 263 -5 2 -9 10 -9 17 0 8
-33 48 -73 89 -99 101 -179 140 -289 141 -87 0 -75 -10 -145 120 -112 208
-108 193 -108 355 0 137 -2 148 -27 198 -36 69 -83 130 -177 227 -139 145
-205 245 -237 362 -11 39 -19 129 -24 274 -8 232 -25 344 -67 444 -73 177
-108 226 -315 449 -107 115 -151 227 -173 442 -28 273 -35 317 -64 379 -15 33
-34 67 -42 75 -8 8 -34 40 -59 70 -25 30 -47 57 -51 60 -39 34 -165 240 -224
366 -137 293 -116 585 56 769 25 26 76 60 143 93 169 84 204 140 265 418 52
236 54 240 142 319 29 26 78 62 183 135 21 14 124 92 160 120 55 43 119 108
132 133 9 15 30 75 49 132 59 184 200 433 316 559 51 56 162 146 180 146 4 0
29 -37 54 -82z m11872 -2039 c49 -24 62 -53 43 -99 -13 -30 -100 -122 -290
-306 -232 -224 -311 -328 -363 -480 -14 -38 -15 -39 -76 -46 -108 -12 -234
-54 -314 -105 -21 -13 -41 -22 -44 -20 -8 9 107 288 176 427 97 195 187 328
300 440 71 71 113 104 161 126 168 81 322 104 407 63z m-489 -1037 c49 -39 71
-83 79 -153 l6 -59 -84 0 c-167 -1 -320 -63 -432 -175 l-37 -37 -17 32 c-10
18 -42 71 -70 117 -29 47 -53 88 -53 92 0 11 81 85 125 114 94 62 263 108 374
102 63 -3 79 -8 109 -33z m-887 -83 c53 -13 148 -78 197 -135 48 -55 132 -191
152 -244 11 -31 10 -41 -8 -80 -11 -25 -23 -55 -27 -68 -11 -39 -92 -72 -176
-72 -62 0 -79 4 -140 36 -69 37 -155 111 -198 172 -30 43 -65 41 -69 -4 -6
-59 141 -201 265 -255 52 -23 164 -31 239 -16 l41 8 5 -68 c8 -115 69 -212
156 -249 47 -21 154 -21 209 -1 104 38 205 151 289 323 59 121 66 159 33 169
-21 7 -59 -18 -59 -39 0 -21 -68 -155 -109 -213 -95 -139 -172 -189 -274 -180
-109 10 -158 70 -165 205 -4 68 -1 93 18 145 50 139 153 251 285 311 81 38
133 49 225 50 184 1 280 -74 280 -219 0 -164 -211 -588 -381 -766 -153 -160
-328 -242 -479 -225 -30 3 -65 7 -78 9 -21 2 -28 -11 -81 -148 -31 -82 -69
-176 -84 -207 -15 -31 -27 -59 -27 -62 0 -5 -35 -86 -105 -241 -7 -16 -31 -69
-54 -117 -23 -48 -41 -89 -41 -92 0 -17 -353 -729 -427 -860 -79 -141 -181
-300 -214 -335 -45 -47 -133 -84 -295 -124 -255 -63 -676 -129 -697 -108 -12
12 -23 225 -13 265 5 22 13 25 64 31 335 37 608 127 737 242 50 44 165 213
268 393 57 100 252 498 331 678 20 45 51 117 70 160 59 133 134 316 188 459
82 216 76 246 -70 365 -143 116 -184 172 -216 294 -93 361 36 743 277 820 42
13 88 11 158 -7z m552 -2775 c217 -52 345 -202 502 -584 194 -474 245 -549
409 -596 138 -39 260 15 327 146 22 42 24 43 30 20 l7 -25 1 24 c1 13 2 22 4
20 5 -10 -9 -2638 -15 -2644 -11 -12 -90 36 -136 83 -62 64 -115 149 -154 246
-29 74 -32 90 -32 186 1 95 7 128 63 350 55 215 62 254 59 322 -4 87 -18 114
-87 163 -38 27 -51 30 -114 30 -158 0 -206 -53 -372 -410 -115 -246 -186 -345
-295 -409 -121 -70 -214 -91 -410 -91 -177 0 -191 4 -282 80 -122 101 -208
269 -208 408 0 115 64 270 145 352 42 41 123 90 180 108 68 21 105 26 290 37
180 10 240 25 330 85 109 73 186 186 246 366 52 154 43 235 -33 305 -69 64
-142 94 -343 144 -240 59 -380 146 -540 335 -75 89 -135 267 -135 403 0 171
64 342 166 445 115 115 224 143 397 101z m-2228 -204 c58 -36 113 -142 133
-258 7 -38 6 -55 -2 -57 -78 -26 -236 -43 -236 -26 0 6 9 31 21 55 26 57 23
90 -11 94 -33 4 -63 -47 -90 -153 -43 -167 -34 -346 26 -533 27 -83 47 -108
78 -96 20 8 20 38 0 97 -9 26 -14 53 -11 61 4 9 40 18 109 26 57 6 111 14 121
16 24 7 23 -46 -3 -122 -70 -202 -229 -289 -575 -315 -121 -9 -170 -9 -250 2
l-99 14 3 185 c5 348 18 549 41 634 32 120 42 138 91 165 201 107 335 167 459
206 95 30 153 31 195 5z m-8662 -529 c80 -39 166 -137 219 -251 85 -182 143
-420 204 -847 32 -219 35 -204 -54 -264 -134 -90 -269 -118 -458 -94 -123 16
-233 52 -367 119 l-102 51 2 135 c7 537 179 1081 367 1166 44 20 131 13 189
-15z m1077 -1224 c25 -8 111 -47 193 -87 l147 -73 0 -304 c0 -279 -1 -303 -17
-303 -16 0 -839 153 -1077 200 -54 11 -100 20 -102 20 -5 0 -13 60 -18 156
l-6 90 53 17 c68 22 153 71 222 127 l55 45 -2 55 -3 55 80 7 c44 4 89 9 100
12 43 10 331 -3 375 -17z m4516 -82 c60 -8 163 -26 229 -40 66 -14 164 -28
218 -32 54 -3 96 -10 95 -14 -2 -4 -50 -42 -108 -84 -58 -42 -112 -82 -120
-88 -9 -7 -38 -28 -65 -47 -28 -18 -52 -37 -55 -40 -3 -3 -27 -21 -55 -40 -27
-19 -52 -37 -56 -42 -5 -7 -225 150 -340 244 -11 9 -65 50 -120 90 -54 40 -99
78 -99 85 0 16 33 20 211 22 91 0 200 -5 265 -14z m-1888 -20 c81 -9 185 -22
232 -30 47 -7 124 -19 173 -25 48 -7 87 -15 87 -19 0 -3 -23 -22 -52 -41 -28
-19 -56 -40 -62 -45 -6 -6 -27 -22 -46 -35 -19 -13 -37 -27 -40 -30 -3 -3 -21
-17 -40 -30 -19 -13 -37 -27 -40 -30 -3 -3 -21 -17 -40 -30 -19 -14 -42 -30
-50 -37 -8 -6 -43 -33 -77 -58 l-62 -46 -143 62 c-79 34 -179 77 -223 96 -44
19 -95 41 -112 49 -18 8 -49 21 -68 29 -19 8 -50 22 -67 30 -18 8 -80 34 -137
59 -85 36 -100 46 -80 50 13 3 92 21 176 41 246 58 407 67 671 40z m-1228 -23
c49 -12 90 -28 188 -73 35 -16 66 -29 68 -29 3 0 33 -13 67 -29 34 -16 89 -40
122 -54 74 -31 205 -87 265 -114 25 -11 106 -46 180 -78 74 -32 158 -68 185
-80 85 -39 127 -55 142 -55 13 0 63 31 92 58 7 7 26 21 40 30 14 9 33 22 41
29 8 7 71 53 140 104 69 51 157 116 196 146 40 29 76 53 80 53 5 0 15 -14 23
-31 24 -53 126 -203 169 -246 23 -23 42 -47 42 -52 0 -6 -20 -53 -45 -106
l-45 -95 -68 0 c-37 0 -580 -7 -1207 -15 -627 -8 -1255 -15 -1395 -15 l-255
-1 -3 304 -2 304 42 7 c223 33 354 49 473 54 161 8 399 0 465 -16z m2550 14
c0 -26 -51 -159 -88 -231 -70 -133 -156 -194 -254 -179 -69 11 -106 31 -159
87 -42 44 -159 219 -159 239 0 3 48 6 108 7 111 1 173 10 377 60 140 34 175
37 175 17z m-5034 -203 l132 -6 6 -111 c6 -95 29 -407 66 -886 14 -181 39
-411 51 -462 9 -37 16 -47 37 -53 87 -22 213 -177 252 -310 6 -22 15 -95 19
-162 7 -113 10 -126 40 -175 18 -29 53 -75 77 -103 99 -110 121 -218 55 -277
-36 -32 -99 -51 -138 -42 -104 25 -198 125 -220 235 -3 16 -9 32 -13 34 -4 3
-23 -26 -43 -63 -73 -140 -53 -307 64 -538 52 -105 59 -140 32 -184 -52 -89
-204 -55 -295 65 -72 95 -108 226 -108 395 0 125 -4 140 -35 140 -42 0 -48
-20 -42 -162 7 -195 56 -352 139 -440 16 -17 26 -33 24 -36 -3 -2 -25 -1 -49
2 -91 14 -159 84 -191 196 -20 71 -36 195 -36 274 0 35 -5 67 -12 74 -21 21
-47 14 -54 -14 -8 -31 1 -269 11 -299 4 -14 2 -12 -9 5 -21 33 -51 137 -67
230 -18 100 -18 366 0 455 30 151 99 336 165 445 18 30 45 77 60 103 36 66 36
87 -9 707 -8 113 -20 261 -25 330 -28 338 -50 613 -50 632 0 15 4 18 18 13 9
-4 76 -9 148 -12z m4724 -279 c71 -3 86 -6 92 -21 4 -10 34 -83 66 -163 33
-80 85 -212 117 -293 l59 -148 -18 -34 c-10 -19 -26 -42 -35 -52 -9 -10 -27
-34 -41 -53 -13 -19 -27 -37 -30 -40 -3 -3 -17 -21 -30 -40 -13 -19 -27 -37
-30 -40 -4 -3 -22 -27 -40 -55 -19 -27 -40 -56 -47 -63 -7 -7 -20 -26 -30 -42
-9 -17 -20 -30 -23 -30 -3 0 -46 39 -96 88 -251 240 -344 333 -344 347 0 17
22 66 150 330 45 94 96 199 112 235 37 80 47 93 67 84 9 -4 54 -9 101 -10z
m-4360 -58 c163 -30 416 -78 560 -106 80 -15 213 -40 295 -55 83 -15 161 -30
175 -34 l25 -8 0 -644 c0 -424 -3 -643 -10 -642 -5 1 -32 11 -60 21 -27 11
-117 45 -200 77 -184 70 -415 160 -475 185 -25 10 -81 32 -125 49 -44 17 -114
44 -155 60 l-75 29 -7 53 c-18 148 -85 1028 -79 1035 3 3 15 3 26 0 11 -2 58
-11 105 -20z m4012 -213 c-9 -21 -24 -51 -33 -68 l-16 -30 -481 -3 -482 -2 0
-185 0 -185 454 0 455 0 25 -23 c22 -20 386 -370 422 -404 18 -18 32 -16 44 6
5 11 16 25 23 33 7 7 28 35 47 63 19 27 40 56 47 65 7 8 59 77 115 153 l103
138 440 2 440 2 3 168 2 167 -469 0 c-532 0 -471 -11 -510 89 l-21 51 1248 0
1247 0 -7 -142 c-5 -129 -39 -688 -56 -958 l-7 -105 -530 -12 c-291 -6 -748
-16 -1015 -22 -267 -6 -674 -16 -905 -21 -583 -14 -2108 -48 -2650 -60 -247
-5 -530 -12 -627 -16 l-178 -6 0 655 0 654 208 6 c114 2 365 6 557 7 193 1
595 6 895 9 300 4 699 8 887 9 l343 2 -18 -37z m-92 -187 c0 -3 -22 -52 -50
-110 l-49 -106 -371 0 -370 0 0 110 0 110 420 0 c231 0 420 -2 420 -4z m1623
-86 l0 -85 -383 0 -382 0 -27 72 c-14 39 -29 75 -34 79 -4 4 -7 11 -7 16 0 4
187 7 416 6 l416 -3 1 -85z m6274 -532 c-3 -8 -6 -5 -6 6 -1 11 2 17 5 13 3
-3 4 -12 1 -19z m8 -118 c3 -5 1 -10 -4 -10 -6 0 -11 5 -11 10 0 6 2 10 4 10
3 0 8 -4 11 -10z m-11499 -158 c109 -43 251 -98 314 -122 63 -24 116 -44 117
-45 1 0 -4 -22 -12 -49 -8 -26 -20 -85 -26 -132 -18 -136 8 -236 81 -312 12
-13 20 -25 17 -28 -7 -7 -337 -30 -346 -24 -4 3 -18 21 -31 40 -13 19 -44 57
-68 84 -83 94 -94 122 -102 264 -8 124 -21 181 -59 254 -26 50 -69 115 -81
123 -9 6 -14 25 -7 25 2 0 94 -35 203 -78z m5471 -229 c20 -50 19 -152 -2
-197 -36 -76 -135 -144 -269 -185 -240 -74 -656 -80 -943 -15 -169 38 -273 97
-330 187 -20 32 -24 49 -21 86 6 62 44 119 83 126 31 4 1053 31 1318 33 l148
2 16 -37z m-4902 9 c28 -10 66 -26 85 -34 94 -43 76 -42 772 -29 365 7 678 15
696 18 39 6 56 -6 84 -60 82 -161 56 -254 -110 -396 -41 -34 -204 -109 -285
-130 -228 -59 -556 -54 -817 14 -256 66 -448 176 -507 288 -25 49 -29 173 -8
260 24 101 17 96 90 69z m3287 -25 c-17 -22 -33 -109 -26 -145 7 -37 30 -88
60 -128 l15 -22 -113 -6 c-178 -8 -1262 -41 -1378 -41 -89 0 -104 2 -100 15 3
8 5 56 5 106 -1 79 -4 98 -27 142 -15 29 -24 53 -20 56 9 5 331 13 997 26 297
6 549 12 560 13 27 4 38 -3 27 -16z m712 -498 l58 -2 -6 -476 c-4 -262 -9
-510 -12 -553 -7 -87 -3 -83 -115 -94 -41 -4 -86 -2 -119 6 l-53 13 6 181 c4
99 11 348 18 551 6 204 12 375 14 381 2 7 26 8 76 2 41 -4 100 -8 133 -9z
m-3335 -213 c74 -9 135 -17 137 -18 1 -2 -1 -221 -4 -487 l-7 -484 -40 -15
c-43 -16 -255 -23 -288 -10 -16 7 -17 37 -11 515 3 280 7 513 9 520 3 8 13 9
37 3 18 -5 93 -16 167 -24z m10102 -167 c63 -67 106 -204 115 -366 10 -162
-25 -268 -139 -427 -137 -191 -148 -286 -57 -513 16 -41 50 -105 75 -143 39
-61 60 -82 141 -138 18 -12 19 -49 19 -1060 0 -576 -2 -1027 -4 -1002 l-5 45
-5 -43 -6 -43 -64 32 c-140 70 -236 197 -261 344 -15 88 0 193 66 466 72 300
85 373 91 520 5 122 3 144 -17 210 -22 73 -24 76 -155 204 -172 169 -231 253
-300 435 -49 126 -66 221 -66 360 0 163 44 327 119 448 168 270 218 470 135
541 l-27 24 54 48 c82 72 144 101 207 96 43 -3 57 -9 84 -38z m-14454 -1926
c-1 -357 -2 -65 -2 647 0 712 1 1004 2 648 2 -357 2 -939 0 -1295z m13213
1708 c0 -6 -4 -13 -10 -16 -18 -11 -90 -141 -125 -224 -78 -189 -110 -414 -76
-536 22 -78 93 -213 158 -300 56 -76 223 -252 288 -306 187 -153 317 -241 495
-335 14 -7 60 -29 103 -49 59 -27 96 -53 146 -103 98 -98 142 -192 162 -346
14 -107 10 -155 -26 -301 -49 -203 -86 -389 -92 -466 -10 -136 24 -250 107
-350 43 -52 153 -130 209 -149 l42 -14 -3 -50 -3 -50 -60 -18 c-315 -94 -646
13 -760 245 -42 86 -55 150 -55 266 0 118 12 191 67 409 41 167 46 200 47 302
0 136 -23 220 -82 299 -54 71 -89 97 -225 163 -450 221 -731 624 -787 1132 -8
72 -7 115 5 199 36 258 169 446 410 579 54 30 65 33 65 19z m1410 -256 c0 -8
-4 -15 -10 -15 -5 0 -7 7 -4 15 4 8 8 15 10 15 2 0 4 -7 4 -15z m-22 -589 c-2
-261 0 -472 5 -469 4 2 7 0 7 -5 0 -26 -33 -17 -74 20 -82 71 -172 256 -195
398 -16 99 0 149 94 290 88 131 130 212 142 270 l6 35 9 -32 c5 -18 7 -246 6
-507z m-7008 239 c25 0 64 4 88 8 l42 9 0 -80 c0 -61 -4 -83 -16 -93 -21 -17
-208 -25 -246 -10 -28 10 -28 12 -28 96 l0 85 58 -7 c31 -5 77 -8 102 -8z
m-6866 -93 c88 -266 87 -610 -4 -1047 -44 -216 -146 -476 -304 -775 -72 -138
-106 -280 -106 -449 0 -136 18 -252 60 -399 49 -167 92 -270 240 -577 208
-431 238 -524 227 -693 -9 -145 -87 -318 -187 -419 -76 -77 -68 -75 -274 -73
-117 0 -187 -3 -191 -10 -3 -5 -12 -10 -18 -10 -7 0 -4 5 6 11 9 5 17 14 17
19 0 5 12 22 26 37 73 78 114 219 114 389 0 235 -51 431 -186 709 -34 72 -76
165 -93 208 l-31 78 0 596 0 596 36 106 c64 192 149 349 269 501 116 147 197
302 283 540 73 204 108 532 76 714 -12 64 12 34 40 -52z m3754 -42 c2 -25 1
-64 -3 -86 -6 -41 -6 -41 -62 -53 -70 -14 -162 -13 -228 3 l-50 11 0 80 c0 74
1 80 20 77 68 -12 185 -11 230 2 79 22 89 19 93 -34z m3105 -117 c51 3 101 7
112 9 25 4 29 -17 20 -98 l-6 -63 -57 -8 c-73 -10 -170 -7 -205 6 -26 10 -27
13 -27 84 0 41 3 76 6 80 3 3 19 1 35 -5 17 -6 69 -8 122 -5z m-3242 -109 c36
3 80 9 97 12 l32 7 0 -96 0 -96 -47 -8 c-117 -20 -291 1 -294 36 -3 26 3 156
7 162 2 3 34 -1 71 -9 42 -8 93 -12 134 -8z m3369 -311 l0 -182 -28 -19 c-37
-27 -107 -45 -145 -37 -18 4 -54 16 -80 28 l-48 20 2 181 c0 100 3 183 4 186
2 3 69 5 149 5 l146 0 0 -182z m-3372 52 l132 0 0 -220 c0 -121 -3 -230 -6
-242 -3 -12 -21 -29 -39 -37 -67 -32 -149 -14 -263 58 l-42 26 0 208 c0 115 3
212 7 215 4 4 23 4 42 0 20 -5 96 -8 169 -8z m3019 -297 c15 -7 30 -15 33 -19
14 -17 127 -49 175 -49 57 0 127 22 158 49 17 14 22 13 61 -8 89 -46 194 -172
272 -323 16 -32 32 -58 36 -58 4 0 14 15 22 34 17 41 73 76 171 106 160 49
333 65 426 40 185 -50 312 -248 296 -460 -20 -251 -185 -429 -461 -494 -101
-24 -147 -27 -249 -16 -208 23 -364 107 -490 263 -40 49 -147 127 -227 164
-86 40 -126 53 -246 83 -150 37 -182 50 -222 92 -34 34 -62 109 -62 162 1 59
30 171 65 245 36 75 91 139 155 179 41 25 49 26 87 10z m-3209 -224 c148 -77
202 -88 279 -59 51 20 103 61 103 81 0 28 22 22 77 -22 118 -95 215 -212 244
-296 13 -37 34 -48 54 -29 23 22 156 52 251 58 169 10 274 -28 384 -137 96
-95 160 -231 160 -339 0 -179 -115 -374 -269 -455 -194 -102 -372 -112 -548
-31 -99 46 -180 106 -304 227 -159 155 -192 180 -444 331 -141 84 -234 144
-245 156 -3 3 -26 23 -51 43 -85 69 -121 208 -83 326 20 61 75 135 132 179 68
52 105 47 260 -33z m3232 -554 c41 -11 105 -34 141 -52 74 -34 79 -43 79 -155
l0 -53 -57 0 c-122 1 -265 56 -348 135 -42 39 -42 41 -44 111 l-2 72 78 -19
c43 -11 112 -28 153 -39z m-3527 -29 c56 -39 247 -161 252 -161 2 0 26 -14 54
-31 l51 -32 0 -98 c0 -115 0 -115 -88 -70 -80 41 -160 97 -229 161 -88 82 -93
92 -93 182 0 43 3 78 6 78 3 0 24 -13 47 -29z m-3849 -108 c-10 -40 -14 -41
-14 -5 0 18 5 32 10 32 6 0 8 -11 4 -27z m7746 -74 c0 -4 -14 -14 -30 -23 -30
-14 -31 -14 -40 10 -12 30 -13 68 -3 78 7 7 73 -52 73 -65z m-7753 -791 c-1
-139 -2 -28 -2 247 0 275 1 389 2 253 2 -136 2 -361 0 -500z m4349 660 c24
-18 42 -37 41 -42 -4 -11 -96 -46 -101 -38 -2 4 -2 18 -1 32 2 14 4 37 4 53 1
15 4 27 8 27 3 0 25 -15 49 -32z m10268 -900 c4 -17 2 -28 -4 -28 -5 0 -10 14
-10 32 0 36 4 35 14 -4z m-14604 -240 c0 -5 -4 -8 -10 -8 -5 0 -10 10 -10 23
0 18 2 19 10 7 5 -8 10 -18 10 -22z m93 -178 c90 -188 128 -289 168 -447 29
-113 33 -143 33 -263 0 -201 -38 -324 -128 -414 -58 -58 -121 -67 -149 -20 -4
7 -7 293 -7 636 0 701 -1 689 7 668 3 -8 37 -80 76 -160z m-106 -753 c-1 -155
-2 -28 -2 283 0 311 1 438 2 282 2 -155 2 -409 0 -565z"/>
<path d="M10501 17723 c-64 -25 -94 -132 -51 -178 33 -36 116 -36 149 -1 24
26 37 89 27 129 -9 38 -82 67 -125 50z m76 -30 c35 -16 35 -17 30 -67 -8 -86
-80 -122 -139 -69 -30 27 -24 89 11 124 34 33 49 35 98 12z"/>
<path d="M4430 16751 c-87 -19 -245 -148 -317 -258 -198 -307 -118 -675 163
-748 204 -53 545 47 710 209 143 140 185 366 102 543 -46 98 -171 196 -307
240 -52 17 -295 27 -351 14z m283 -26 c156 -27 307 -134 357 -251 105 -243
-17 -503 -293 -628 -340 -154 -611 -112 -715 113 -24 51 -26 68 -27 181 0 107
4 134 24 189 51 137 151 264 275 346 96 63 216 79 379 50z"/>
<path d="M10685 16668 c-90 -23 -239 -149 -286 -240 -45 -88 -63 -243 -38
-331 16 -59 76 -113 142 -128 164 -36 404 103 492 286 93 191 50 361 -104 413
-41 14 -151 14 -206 0z m230 -38 c134 -65 138 -265 10 -440 -100 -134 -285
-221 -419 -196 -91 17 -144 117 -132 248 14 148 94 274 230 359 63 39 94 47
185 48 65 1 94 -4 126 -19z"/>
<path d="M6288 16407 c-89 -8 -108 -13 -108 -26 0 -9 11 -115 25 -235 14 -121
24 -220 23 -221 -2 -1 -50 -12 -108 -23 -118 -24 -198 -48 -283 -86 -32 -14
-64 -26 -73 -26 -9 0 -24 21 -36 48 -31 72 -88 201 -113 257 -13 28 -32 71
-43 98 -21 47 -30 55 -47 38 -6 -5 -47 -28 -92 -51 -46 -23 -83 -47 -83 -53 0
-7 14 -37 31 -67 17 -30 46 -82 64 -115 66 -119 111 -200 125 -221 19 -30 9
-47 -55 -94 -76 -56 -202 -181 -262 -260 -106 -139 -159 -240 -232 -442 -84
-234 -87 -595 -5 -853 30 -96 80 -216 111 -267 13 -21 23 -40 23 -42 0 -2 -21
-16 -47 -32 -149 -87 -219 -222 -178 -345 25 -74 51 -116 109 -176 51 -54 72
-63 94 -41 21 21 13 39 -36 89 -62 62 -102 143 -102 204 0 85 72 165 210 232
115 55 173 68 315 67 131 -1 205 -15 345 -65 268 -97 531 -314 555 -459 9 -53
-12 -157 -41 -208 -14 -24 -48 -59 -75 -79 -51 -36 -58 -57 -28 -76 40 -25
129 39 174 126 l29 55 75 6 c134 12 260 45 406 106 78 33 98 43 180 91 142 83
302 231 420 390 42 57 80 105 84 106 3 2 29 -34 58 -80 82 -130 180 -241 298
-337 80 -65 191 -140 207 -140 6 0 8 -3 4 -7 -4 -4 -73 -14 -154 -23 -142 -15
-147 -16 -150 -39 -2 -13 2 -28 10 -32 47 -30 494 28 793 102 99 25 384 120
456 152 195 88 257 117 459 215 311 152 326 157 480 157 116 0 129 -2 181 -27
69 -33 129 -89 155 -143 29 -63 26 -166 -8 -235 -38 -77 -101 -149 -181 -206
-37 -27 -74 -54 -80 -60 -27 -24 -276 -138 -422 -193 -223 -85 -428 -139 -685
-182 -102 -17 -455 -18 -550 -1 -104 19 -215 50 -276 77 -84 38 -114 37 -114
-4 0 -25 7 -31 69 -60 121 -56 283 -90 486 -103 l180 -11 35 -31 c19 -17 60
-47 90 -66 30 -19 57 -37 60 -40 3 -4 21 -15 40 -26 19 -10 37 -21 40 -24 5
-6 52 -34 120 -72 90 -52 120 -70 120 -77 0 -9 -321 -47 -550 -66 -624 -50
-1408 -44 -1865 15 -416 53 -741 160 -961 316 -81 57 -183 168 -222 242 -34
64 -62 158 -62 209 0 31 2 33 28 27 55 -14 137 -48 195 -81 62 -37 107 -39
107 -5 0 25 -10 35 -65 68 -156 94 -374 139 -559 116 -85 -11 -112 -27 -102
-60 7 -20 14 -20 159 -19 l152 2 6 -70 c4 -38 7 -286 8 -550 1 -555 16 -1180
32 -1310 25 -214 58 -344 119 -466 44 -86 77 -133 147 -204 174 -179 374 -269
758 -339 443 -81 977 -62 1251 43 121 47 182 93 210 160 27 62 52 217 74 456
36 384 74 605 112 653 8 9 92 12 358 12 l347 0 6 113 c4 61 7 195 8 297 1 102
4 217 8 255 l6 70 80 6 c104 8 455 61 455 68 0 4 -17 15 -37 26 -175 93 -389
219 -507 298 -112 74 -115 68 39 87 341 41 899 238 1143 402 95 64 141 106
199 181 66 85 95 163 95 258 0 93 -31 165 -99 233 -44 45 -146 101 -203 112
-36 8 -36 4 10 114 82 195 117 421 100 645 -23 296 -115 537 -296 775 -53 70
-176 194 -237 240 -25 19 -47 39 -47 45 0 8 135 213 150 225 3 3 32 45 65 94
55 82 59 90 42 100 -11 6 -53 32 -95 58 -41 26 -79 45 -83 43 -7 -5 -30 -44
-92 -155 -66 -119 -139 -245 -148 -255 -6 -6 -29 1 -62 17 -76 39 -201 83
-289 103 -59 13 -78 21 -77 34 0 9 12 119 27 244 25 203 26 229 12 236 -8 5
-58 11 -112 14 -74 5 -97 3 -101 -7 -3 -7 -6 -87 -7 -177 -1 -90 -5 -195 -8
-234 l-7 -70 -40 3 c-64 5 -259 -17 -351 -38 -89 -21 -104 -20 -104 7 0 17
-20 88 -51 183 -10 30 -27 93 -39 140 -33 130 -23 125 -141 80 -56 -22 -104
-42 -107 -45 -8 -8 35 -127 98 -270 78 -178 81 -194 28 -211 -34 -11 -140 -76
-223 -138 -87 -64 -201 -175 -255 -246 -19 -25 -37 -47 -41 -50 -3 -3 -23 -31
-43 -62 -20 -32 -40 -58 -44 -58 -4 0 -22 24 -40 54 -118 199 -355 425 -546
521 -21 11 -40 25 -43 32 -2 6 10 42 27 80 18 37 44 93 57 123 14 30 33 73 43
95 76 168 81 185 55 185 -8 0 -54 11 -101 25 -47 14 -92 25 -99 25 -7 0 -26
-48 -44 -112 -56 -192 -100 -339 -105 -347 -3 -5 -43 2 -89 14 -90 24 -183 40
-289 50 l-68 7 -2 240 c-2 151 -7 242 -13 243 -5 1 -58 -3 -117 -8z m362 -582
c235 -49 432 -144 612 -295 53 -43 115 -103 139 -132 24 -29 50 -59 56 -66 39
-40 107 -150 151 -242 60 -124 94 -224 119 -346 24 -120 24 -384 -1 -504 -66
-325 -229 -598 -476 -799 -25 -20 -47 -38 -50 -41 -12 -13 -149 -99 -190 -119
-136 -67 -321 -123 -451 -136 l-67 -7 -3 78 c-4 71 -8 86 -44 144 -113 188
-387 369 -674 447 -127 34 -331 43 -436 18 -116 -28 -113 -29 -151 45 -190
361 -199 819 -25 1192 192 410 584 704 1032 773 116 18 352 13 459 -10z m2398
-26 c324 -35 593 -165 822 -398 102 -103 210 -242 210 -269 0 -6 3 -12 8 -14
13 -5 90 -181 117 -265 43 -138 58 -236 58 -398 0 -212 -31 -363 -116 -560
-32 -76 -35 -80 -68 -83 -133 -9 -248 -52 -564 -209 -132 -65 -256 -125 -275
-133 -19 -7 -57 -23 -85 -35 -185 -83 -527 -184 -726 -215 -71 -11 -78 -11
-120 10 -255 129 -464 330 -594 572 -30 57 -30 63 -5 113 28 55 75 212 96 320
12 62 18 141 18 255 0 189 -16 295 -71 455 -50 145 -50 136 -7 207 129 213
345 410 564 516 240 117 482 159 738 131z m-3224 -3255 c139 -138 293 -224
546 -308 116 -38 311 -83 460 -106 74 -12 137 -23 140 -26 3 -3 8 -164 11
-359 6 -329 10 -382 27 -371 4 2 203 12 442 21 239 10 438 21 443 24 7 7 -2
245 -19 528 l-7 112 138 3 c75 2 141 1 145 -2 7 -5 5 -80 -16 -522 l-7 -148
57 0 c62 0 68 -9 45 -67 -20 -52 -48 -222 -64 -390 -26 -276 -55 -504 -71
-576 -17 -70 -60 -128 -106 -143 -24 -7 -35 3 -103 102 -22 32 -83 101 -135
154 -159 159 -310 245 -507 286 -109 23 -309 15 -416 -16 -69 -21 -79 -21 -95
-8 -33 28 -167 90 -257 119 -182 58 -406 74 -590 44 -49 -8 -97 -15 -106 -15
-20 0 -36 104 -50 320 -10 157 -30 1460 -22 1473 2 4 16 -9 30 -30 14 -21 53
-65 87 -99z m3151 -751 c-4 -175 -9 -321 -12 -325 -2 -5 -173 -8 -380 -8
l-376 0 6 118 c4 64 9 191 12 282 4 91 8 175 10 186 5 20 12 22 192 29 104 4
249 13 323 20 74 6 157 13 184 14 l49 1 -8 -317z m-1795 297 c58 -5 217 -14
355 -20 137 -5 252 -13 256 -18 7 -8 31 -553 24 -560 -5 -5 -557 -31 -676 -32
l-76 0 -7 310 c-4 171 -4 315 -1 320 7 12 -3 12 125 0z m-897 -1270 c37 -6
109 -24 160 -40 90 -30 277 -117 277 -129 0 -4 15 -15 32 -26 18 -10 70 -52
115 -92 85 -75 102 -84 123 -58 10 12 9 20 -5 41 -20 31 -116 124 -127 124 -4
0 -8 6 -8 14 0 17 21 23 139 36 315 36 601 -110 840 -427 28 -37 50 -75 48
-83 -3 -19 -90 -42 -243 -66 -165 -25 -562 -26 -754 -1 -362 47 -608 123 -778
239 -70 47 -162 144 -214 223 -46 71 -105 211 -94 222 28 28 351 43 489 23z"/>
<path d="M6825 14960 c-211 -29 -390 -176 -461 -379 -84 -242 3 -501 219 -655
151 -107 373 -127 552 -48 33 14 62 29 65 32 3 3 21 17 40 30 79 54 176 187
206 285 9 27 19 90 21 138 14 229 -108 441 -315 546 -85 43 -223 65 -327 51z
m225 -95 c85 -29 135 -60 197 -122 100 -100 143 -203 143 -348 0 -160 -66
-295 -189 -387 -190 -142 -427 -139 -611 9 -165 131 -225 372 -143 568 63 151
211 269 373 299 46 8 184 -3 230 -19z"/>
<path d="M6887 14670 c-166 -42 -275 -213 -237 -372 25 -103 103 -194 198
-231 66 -26 176 -23 238 8 79 39 121 80 155 152 29 61 31 71 27 152 -3 77 -8
94 -36 140 -40 64 -71 93 -137 126 -57 28 -150 39 -208 25z"/>
<path d="M8595 14900 c-158 -25 -317 -133 -399 -271 -60 -101 -79 -182 -73
-312 5 -131 26 -198 89 -295 193 -297 622 -339 875 -85 101 100 153 220 161
366 6 119 -7 184 -56 287 -65 136 -222 265 -362 298 -66 16 -178 22 -235 12z
m209 -86 c162 -42 292 -161 345 -317 29 -83 34 -141 23 -225 -39 -278 -309
-473 -579 -418 -107 22 -177 59 -253 136 -156 157 -192 369 -95 566 101 205
338 315 559 258z"/>
<path d="M8580 14634 c-166 -59 -251 -243 -190 -407 96 -256 457 -275 577 -29
23 47 27 70 28 137 0 68 -4 89 -28 137 -31 64 -76 111 -140 147 -56 31 -181
39 -247 15z"/>
<path d="M4460 15511 c-112 -35 -190 -134 -190 -243 0 -66 23 -101 84 -129
112 -51 278 8 327 115 28 61 26 163 -4 207 -12 18 -34 39 -47 46 -27 14 -130
16 -170 4z m155 -27 c39 -11 60 -54 60 -124 -1 -132 -83 -209 -223 -210 -99 0
-151 34 -159 104 -9 80 64 192 148 225 26 11 142 14 174 5z"/>
<path d="M5316 13554 c-21 -21 -20 -30 6 -48 31 -22 110 -21 138 2 l23 19 -21
21 c-28 28 -121 31 -146 6z"/>
<path d="M5912 13458 c-25 -25 -13 -47 29 -58 67 -18 129 18 93 55 -19 18
-105 20 -122 3z"/>
<path d="M5613 13290 c-45 -18 -13 -50 49 -50 40 0 78 23 63 39 -15 15 -87 22
-112 11z"/>
<path d="M10206 11899 c-183 -63 -353 -250 -396 -438 -25 -107 3 -299 59 -409
23 -46 79 -74 183 -92 231 -40 547 139 665 377 36 72 38 82 38 168 -1 131 -21
182 -105 265 -130 131 -297 179 -444 129z m194 -15 c134 -31 272 -138 310
-241 24 -65 27 -178 6 -248 -50 -164 -271 -351 -475 -400 -115 -28 -272 -8
-332 42 -38 32 -80 195 -81 309 0 146 52 273 157 378 71 72 178 139 255 160
70 19 82 19 160 0z"/>
<path d="M4950 10755 c-54 -28 -138 -105 -174 -159 -21 -31 -26 -51 -26 -97 0
-50 4 -62 27 -85 25 -25 31 -26 99 -22 78 5 124 26 197 89 57 49 80 100 75
169 -4 63 -30 100 -81 119 -41 16 -67 13 -117 -14z m139 -31 c34 -28 47 -74
36 -126 -11 -50 -109 -141 -182 -168 -61 -23 -121 -23 -148 0 -8 7 -17 28 -21
46 -11 57 19 116 92 183 105 96 165 114 223 65z"/>
<path d="M10028 10605 c-119 -30 -233 -112 -276 -198 -25 -51 -52 -162 -52
-219 0 -106 46 -195 117 -224 43 -19 175 -18 248 1 175 46 288 176 315 363 11
72 10 87 -6 131 -46 129 -184 187 -346 146z m254 -58 c19 -15 45 -47 57 -73
20 -39 23 -57 19 -113 -18 -233 -182 -384 -418 -385 -109 -1 -155 19 -188 84
-21 41 -23 55 -19 145 5 124 30 192 91 256 74 77 155 115 276 128 77 8 133 -5
182 -42z"/>
<path d="M5170 10236 c-30 -7 -71 -20 -90 -30 -56 -30 -144 -101 -175 -143
-16 -21 -32 -40 -35 -43 -16 -13 -52 -84 -70 -136 -24 -69 -27 -208 -6 -278
42 -139 157 -185 342 -137 163 42 307 159 381 308 35 71 38 84 38 162 0 71 -4
94 -24 133 -34 67 -76 107 -146 139 -73 33 -142 41 -215 25z m213 -51 c60 -30
114 -85 134 -139 14 -39 16 -149 3 -197 -15 -53 -79 -152 -139 -214 -59 -62
-175 -124 -276 -150 -180 -46 -287 27 -302 204 -13 151 48 295 170 407 136
124 277 154 410 89z"/>
<path d="M5835 10020 c15 -24 76 -76 235 -200 53 -41 215 -124 279 -142 60
-18 85 -19 276 -12 389 15 439 12 615 -34 187 -49 277 -62 420 -62 253 0 452
76 590 227 47 52 97 123 87 123 -1 0 -33 -29 -71 -65 -38 -36 -72 -65 -77 -65
-4 0 -14 -6 -21 -13 -20 -19 -108 -64 -159 -81 -191 -65 -484 -61 -783 9 -144
34 -274 40 -426 21 -209 -27 -364 -31 -439 -11 -128 33 -227 87 -396 215 -140
106 -140 106 -130 90z"/>
<path d="M2506 16021 c-265 -156 -416 -496 -377 -851 35 -322 161 -544 329
-580 67 -15 121 0 174 48 47 42 124 155 152 222 10 25 22 54 27 65 70 164 119
415 119 607 0 116 -20 248 -48 318 -66 166 -246 247 -376 171z m215 -24 c74
-36 136 -120 158 -214 31 -133 29 -389 -4 -555 -53 -261 -181 -528 -286 -593
-74 -47 -180 -26 -249 51 -74 82 -119 174 -162 330 -30 109 -32 392 -4 499 50
191 168 363 321 470 47 33 54 35 120 32 41 -2 85 -10 106 -20z"/>
<path d="M2760 13822 c-104 -14 -173 -66 -250 -187 -97 -151 -152 -403 -131
-600 24 -222 122 -345 273 -345 74 0 145 36 215 108 74 75 76 77 112 156 50
107 72 212 78 382 10 273 -41 420 -162 469 -35 14 -99 23 -135 17z m99 -32
c115 -33 164 -133 177 -364 18 -306 -97 -588 -277 -681 -158 -81 -288 -2 -341
208 -34 133 -16 365 39 517 24 66 102 196 148 247 61 68 167 98 254 73z"/>
<path d="M3303 12771 c-60 -15 -164 -74 -187 -105 -62 -84 -98 -246 -99 -441
-1 -301 63 -558 185 -740 49 -74 78 -96 134 -103 54 -6 108 24 176 96 184 199
289 505 275 802 -13 260 -78 394 -226 467 -44 22 -71 27 -140 30 -47 1 -100
-2 -118 -6z m229 -41 c158 -59 228 -212 228 -495 0 -208 -36 -362 -126 -539
-89 -174 -241 -314 -315 -291 -60 19 -154 167 -203 320 -54 170 -70 276 -70
475 -1 158 2 197 21 270 40 159 67 201 150 240 114 53 210 60 315 20z"/>
<path d="M3690 10986 c-63 -17 -111 -48 -167 -110 -86 -94 -153 -311 -153
-492 0 -124 31 -188 96 -200 110 -20 286 135 382 337 128 269 42 520 -158 465z
m142 -57 c40 -47 51 -99 45 -199 -6 -93 -25 -154 -76 -245 -33 -58 -129 -185
-140 -185 -3 0 -20 -12 -36 -28 -73 -66 -164 -84 -197 -38 -46 64 -48 199 -4
367 45 172 105 270 207 334 46 30 64 34 124 31 42 -3 53 -8 77 -37z"/>
<path d="M13483 13153 c-53 -49 -61 -65 -43 -93 7 -11 15 -12 37 -5 22 8 32
22 46 64 28 84 19 91 -40 34z"/>
<path d="M14846 9570 c-41 -13 -75 -48 -102 -105 -46 -97 -22 -179 63 -217 55
-24 133 -20 172 10 55 41 82 149 58 234 -15 55 -123 99 -191 78z m114 -38 c3
-4 14 -12 24 -18 42 -23 45 -136 6 -199 -32 -52 -104 -69 -172 -40 -71 29 -87
99 -43 186 34 66 75 92 135 83 25 -3 47 -9 50 -12z"/>
<path d="M3434 8414 c4 -60 9 -141 12 -180 l6 -71 72 -16 c39 -9 148 -33 241
-52 94 -20 228 -49 298 -66 71 -16 133 -29 138 -29 5 0 9 74 9 174 l0 173 -32
6 c-18 3 -130 29 -248 57 -321 75 -431 100 -469 107 l-34 6 7 -109z m250 -25
c344 -80 442 -105 448 -114 10 -13 10 -173 1 -178 -5 -2 -42 4 -83 13 -101 24
-446 98 -492 106 -37 6 -38 7 -38 53 0 25 -3 70 -6 99 -8 64 -12 64 170 21z"/>
<path d="M9172 8098 l3 -163 588 -3 587 -2 -2 162 -3 163 -588 3 -587 2 2
-162z m1096 -3 l3 -90 -511 0 -510 0 0 93 0 92 508 -2 507 -3 3 -90z"/>
<path d="M4917 8243 c-4 -3 -7 -78 -7 -165 l0 -158 585 0 585 0 0 165 0 165
-578 0 c-318 0 -582 -3 -585 -7z m1083 -163 l0 -90 -507 2 -508 3 -3 88 -3 87
511 0 510 0 0 -90z"/>
<path d="M13530 4801 c0 -27 101 -221 156 -298 86 -121 315 -343 354 -343 21
0 6 17 -72 79 -163 130 -315 330 -393 514 -28 66 -45 85 -45 48z"/>
<path d="M9020 3953 c-64 -25 -74 -33 -104 -77 -52 -77 -22 -156 59 -156 36 0
182 69 209 98 9 11 19 35 22 54 13 79 -84 121 -186 81z m125 -47 c17 -12 18
-17 6 -40 -19 -34 -152 -100 -186 -92 -59 15 -8 105 74 131 60 18 83 18 106 1z"/>
<path d="M5722 3630 c-34 -15 -47 -29 -63 -66 -20 -44 -20 -46 -3 -66 46 -50
135 -61 198 -25 87 49 95 104 23 150 -49 32 -95 34 -155 7z m118 -45 c39 -20
38 -41 -2 -65 -38 -23 -62 -25 -107 -9 -39 14 -39 30 0 63 35 30 67 33 109 11z"/>
<path d="M12215 19454 c-179 -98 -191 -368 -21 -481 40 -27 58 -33 102 -33 60
0 128 27 162 63 90 97 99 274 19 378 -17 23 -41 47 -52 53 -11 6 -23 15 -27
21 -13 18 -150 17 -183 -1z m135 -5 c54 -12 114 -66 141 -125 75 -166 -26
-367 -185 -367 -203 0 -293 289 -137 442 22 21 57 43 78 49 50 13 51 13 103 1z"/>
<path d="M12340 19340 c-23 -23 -25 -47 -6 -72 15 -21 66 -24 84 -6 18 18 14
63 -6 81 -25 22 -48 21 -72 -3z m66 -25 c8 -33 -1 -55 -24 -55 -22 0 -42 19
-42 40 0 42 56 55 66 15z"/>
<path d="M6538 18360 c-77 -23 -146 -99 -169 -184 -16 -58 -6 -155 22 -211 77
-155 252 -180 364 -53 110 124 75 357 -63 427 -45 22 -117 32 -154 21z m134
-31 c138 -70 178 -260 82 -392 -43 -59 -96 -87 -167 -87 -115 0 -207 107 -207
242 0 75 19 133 58 179 65 76 155 98 234 58z"/>
<path d="M6627 18233 c-35 -39 -11 -93 42 -93 34 0 51 17 51 50 0 35 -11 49
-46 56 -22 4 -34 1 -47 -13z m71 -19 c21 -38 -21 -80 -53 -54 -15 13 -20 51
-8 63 12 13 52 7 61 -9z"/>
<path d="M14642 17805 c-60 -31 -95 -72 -123 -145 -35 -91 -17 -203 45 -285
30 -39 117 -85 161 -85 44 0 115 26 147 54 14 13 39 43 55 67 26 41 28 51 28
149 0 99 -2 108 -29 150 -50 78 -98 109 -180 117 -42 4 -61 0 -104 -22z m173
-14 c163 -75 178 -346 25 -447 -143 -95 -320 25 -320 216 0 177 153 297 295
231z"/>
<path d="M14767 17692 c-22 -24 -21 -55 1 -75 49 -45 116 6 86 65 -17 33 -62
38 -87 10z m77 -25 c9 -15 7 -22 -12 -37 -13 -11 -30 -16 -38 -13 -17 6 -29
47 -19 63 10 17 56 8 69 -13z"/>
<path d="M13483 16416 c-131 -42 -236 -157 -288 -316 -23 -67 -25 -201 -6
-280 58 -236 258 -386 466 -349 242 43 397 308 345 590 -15 81 -76 196 -134
254 -76 76 -151 109 -256 112 -51 2 -101 -3 -127 -11z m259 -49 c144 -71 238
-235 238 -417 0 -144 -46 -257 -143 -352 -71 -70 -143 -100 -237 -102 -189 -3
-340 134 -385 350 -44 212 47 428 218 515 66 34 87 39 173 36 64 -3 93 -9 136
-30z"/>
<path d="M13659 16191 c-64 -64 -20 -171 69 -171 55 0 102 45 102 98 -1 90
-108 136 -171 73z m121 -23 c61 -66 -30 -156 -101 -100 -15 13 -22 30 -22 52
0 63 80 94 123 48z"/>
<path d="M11758 12829 c-149 -33 -229 -226 -159 -383 85 -192 326 -191 411 2
30 67 30 171 1 237 -49 110 -149 167 -253 144z m104 -21 c45 -13 108 -72 133
-124 57 -120 6 -287 -106 -344 -45 -24 -128 -26 -167 -6 -36 19 -85 72 -107
116 -10 20 -20 67 -23 107 -4 60 -1 79 18 118 32 65 67 105 114 126 49 21 85
23 138 7z"/>
<path d="M11852 12713 c-23 -9 -32 -39 -21 -72 9 -26 16 -31 45 -31 23 0 37 6
44 19 29 55 -12 107 -68 84z m56 -25 c20 -20 14 -47 -13 -54 -36 -9 -55 2 -55
30 0 34 43 49 68 24z"/>
<path d="M1087 9556 c-233 -87 -248 -457 -22 -562 204 -95 411 128 341 369
-43 147 -194 240 -319 193z m144 -21 c210 -72 228 -419 27 -519 -59 -30 -107
-33 -169 -11 -140 50 -209 249 -137 396 33 66 75 108 131 131 53 21 92 22 148
3z"/>
<path d="M1197 9429 c-24 -14 -47 -69 -47 -113 0 -77 83 -124 130 -74 74 79 3
237 -83 187z m64 -28 c48 -39 23 -161 -33 -161 -22 0 -58 55 -58 88 0 28 25
78 42 85 21 9 25 8 49 -12z"/>
<path d="M11697 6669 c-80 -19 -142 -73 -178 -154 -96 -217 85 -469 288 -401
149 50 223 245 153 402 -21 48 -86 124 -106 124 -8 0 -14 4 -14 9 0 5 -13 11
-29 14 -16 3 -39 8 -52 11 -13 2 -41 0 -62 -5z m113 -26 c67 -13 145 -124 157
-222 6 -54 -21 -181 -38 -181 -5 0 -9 -6 -9 -14 0 -23 -77 -83 -125 -96 -113
-32 -221 34 -270 163 -14 36 -17 63 -12 116 7 90 43 157 110 210 25 20 107 41
136 35 13 -3 36 -7 51 -11z"/>
<path d="M11774 6542 c-25 -17 -44 -59 -44 -97 0 -38 19 -80 44 -97 6 -4 23
-8 39 -8 20 0 32 8 47 33 41 66 11 177 -47 177 -16 0 -33 -4 -39 -8z m52 -20
c37 -25 45 -106 14 -140 -27 -29 -44 -28 -70 6 -46 57 2 171 56 134z"/>
<path d="M13460 6351 c-93 -11 -140 -28 -140 -52 0 -13 13 -26 38 -37 30 -14
68 -17 197 -17 129 0 167 3 198 17 24 11 37 24 37 36 0 40 -184 69 -330 53z
m283 -30 c90 -29 -15 -70 -178 -70 -106 -1 -206 16 -228 38 -11 11 16 27 70
40 51 13 288 7 336 -8z"/>
<path d="M6434 6241 c-56 -9 -94 -26 -94 -42 0 -5 17 -18 38 -27 30 -13 70
-16 212 -16 183 0 255 13 255 44 0 27 -74 42 -220 45 -77 2 -163 0 -191 -4z
m358 -23 c21 -6 38 -14 38 -18 0 -20 -104 -35 -240 -34 -238 2 -314 41 -125
65 77 10 277 2 327 -13z"/>
<path d="M10045 5400 c-162 -18 -247 -56 -229 -104 19 -49 231 -92 399 -82
183 12 295 46 295 92 0 46 -78 77 -240 94 -105 11 -123 11 -225 0z m365 -35
c59 -18 97 -46 86 -64 -48 -78 -465 -98 -623 -30 -81 35 -50 73 83 103 93 21
374 15 454 -9z"/>
<path d="M3373 5193 c-36 -5 -61 -29 -46 -44 38 -38 380 -38 443 1 13 8 13 12
-3 27 -15 15 -40 18 -190 19 -94 1 -186 0 -204 -3z m337 -14 c96 -20 55 -35
-124 -45 -99 -5 -229 6 -244 21 -9 9 7 18 45 25 60 12 267 11 323 -1z"/>
<path d="M7412 5054 c-48 -21 -39 -46 23 -62 72 -19 243 -12 278 11 36 23 34
35 -8 53 -47 19 -247 18 -293 -2z m258 -5 c71 -15 65 -34 -16 -49 -96 -18
-254 -2 -254 25 0 30 173 45 270 24z"/>
<path d="M12643 4621 c-77 -13 -127 -40 -131 -72 -3 -23 4 -30 45 -50 43 -22
62 -24 178 -24 134 0 206 16 236 51 20 25 -7 61 -60 79 -57 18 -198 27 -268
16z m284 -39 c91 -47 1 -96 -177 -97 -114 0 -189 16 -216 46 -16 18 -16 21 -2
36 31 30 107 43 233 40 100 -3 127 -7 162 -25z"/>
<path d="M2057 3099 c-283 -20 -440 -92 -327 -150 94 -49 256 -70 534 -69 259
0 429 21 513 62 198 98 -233 192 -720 157z m505 -24 c172 -23 251 -51 246 -88
-4 -30 -99 -61 -253 -82 -170 -24 -546 -16 -689 15 -54 11 -112 28 -127 36
-37 19 -38 49 -1 67 38 20 152 46 242 56 125 14 465 12 582 -4z"/>
<path d="M10265 2804 c-108 -15 -140 -50 -66 -72 48 -15 273 -16 324 -1 48 13
51 42 5 58 -34 12 -213 22 -263 15z m250 -28 l40 -13 -30 -14 c-43 -20 -300
-20 -335 0 l-25 15 40 12 c53 16 259 16 310 0z"/>
<path d="M7605 2183 c-67 -4 -160 -21 -217 -39 -53 -17 -70 -45 -43 -74 57
-63 452 -90 661 -44 313 68 20 184 -401 157z m376 -27 c115 -21 164 -53 127
-84 -43 -35 -296 -65 -467 -56 -178 10 -320 54 -290 90 14 17 97 44 163 54 88
13 386 10 467 -4z"/>
<path d="M13445 2176 c-115 -19 -165 -36 -183 -64 -14 -21 -14 -25 4 -41 91
-86 573 -92 679 -10 33 26 32 43 -4 68 -65 47 -342 73 -496 47z m438 -36 c32
-12 61 -29 64 -37 22 -56 -199 -100 -419 -83 -214 16 -312 62 -227 106 67 34
147 44 339 40 162 -3 192 -6 243 -26z"/>
<path d="M3955 1724 c-165 -20 -309 -52 -383 -87 -55 -26 -112 -78 -112 -104
0 -127 352 -223 765 -210 188 6 276 17 408 53 147 40 211 80 223 141 17 87
-169 169 -461 203 -83 9 -370 12 -440 4z m390 -14 c127 -12 261 -35 323 -56
101 -34 182 -91 182 -129 0 -23 -42 -66 -88 -89 -134 -68 -323 -98 -602 -98
-219 0 -353 14 -484 53 -136 41 -196 83 -196 139 0 122 459 217 865 180z"/>
<path d="M11009 1043 c0 -43 0 -109 1 -146 1 -40 -4 -74 -11 -83 -7 -9 -8 -14
-1 -14 6 0 13 -12 15 -27 2 -16 5 56 6 160 0 103 -1 187 -4 187 -3 0 -5 -35
-6 -77z"/>
<path d="M13213 930 c-1 -107 2 -184 5 -170 4 14 5 102 2 195 l-6 170 -1 -195z"/>
<path d="M9762 1088 c5 -15 28 -23 28 -10 0 5 -7 13 -16 16 -10 4 -14 1 -12
-6z"/>
<path d="M11630 1086 c0 -9 7 -16 16 -16 17 0 14 22 -4 28 -7 2 -12 -3 -12
-12z"/>
<path d="M11952 1066 c-21 -36 -21 -36 -1 -26 22 12 33 33 27 51 -2 7 -14 -4
-26 -25z"/>
<path d="M12853 1040 c0 -36 2 -50 4 -32 2 17 2 47 0 65 -2 17 -4 3 -4 -33z"/>
<path d="M10100 1063 c0 -16 4 -34 9 -42 6 -10 9 -1 8 27 -2 46 -17 59 -17 15z"/>
<path d="M9763 1015 c0 -27 2 -38 4 -22 2 15 2 37 0 50 -2 12 -4 0 -4 -28z"/>
<path d="M9796 1051 c-3 -5 1 -11 9 -14 9 -4 12 -1 8 9 -6 16 -10 17 -17 5z"/>
<path d="M11695 1020 c9 -16 18 -30 21 -30 2 0 -2 14 -11 30 -9 17 -18 30 -21
30 -2 0 2 -13 11 -30z"/>
<path d="M11634 895 c0 -82 2 -115 3 -72 2 43 2 110 0 150 -1 40 -3 5 -3 -78z"/>
<path d="M11981 1014 c0 -11 3 -14 6 -6 3 7 2 16 -1 19 -3 4 -6 -2 -5 -13z"/>
<path d="M10037 1014 c-4 -4 -7 -14 -7 -23 0 -11 3 -12 11 -4 6 6 10 16 7 23
-2 6 -7 8 -11 4z"/>
<path d="M10114 895 c0 -55 1 -76 3 -47 2 29 2 74 0 100 -2 26 -3 2 -3 -53z"/>
<path d="M10303 983 c9 -2 23 -2 30 0 6 3 -1 5 -18 5 -16 0 -22 -2 -12 -5z"/>
<path d="M10628 983 c7 -3 16 -2 19 1 4 3 -2 6 -13 5 -11 0 -14 -3 -6 -6z"/>
<path d="M11198 983 c6 -2 18 -2 25 0 6 3 1 5 -13 5 -14 0 -19 -2 -12 -5z"/>
<path d="M12168 983 c6 -2 18 -2 25 0 6 3 1 5 -13 5 -14 0 -19 -2 -12 -5z"/>
<path d="M12728 983 c6 -2 18 -2 25 0 6 3 1 5 -13 5 -14 0 -19 -2 -12 -5z"/>
<path d="M13033 983 c9 -2 23 -2 30 0 6 3 -1 5 -18 5 -16 0 -22 -2 -12 -5z"/>
<path d="M13755 980 c-7 -12 2 -12 30 0 19 8 19 9 -2 9 -12 1 -25 -3 -28 -9z"/>
<path d="M14070 983 c13 -3 33 -11 44 -19 11 -8 27 -14 36 -14 8 0 -2 9 -23
20 -20 11 -47 19 -59 19 -22 -2 -21 -2 2 -6z"/>
<path d="M14382 976 c16 -8 34 -18 40 -22 7 -4 4 2 -6 14 -11 12 -29 22 -40
22 -18 0 -17 -2 6 -14z"/>
<path d="M10523 862 l0 -117 6 98 c4 60 11 101 18 105 9 6 7 11 -6 19 -18 11
-19 6 -18 -105z"/>
<path d="M11360 971 c0 -6 4 -13 10 -16 6 -3 7 1 4 9 -7 18 -14 21 -14 7z"/>
<path d="M11887 973 c-4 -3 -7 -11 -7 -17 0 -6 5 -5 12 2 6 6 9 14 7 17 -3 3
-9 2 -12 -2z"/>
<path d="M12116 965 c-11 -8 -17 -17 -14 -20 2 -3 13 4 23 15 21 23 18 25 -9
5z"/>
<path d="M12355 930 c0 -27 3 -50 8 -50 4 0 7 13 7 29 0 17 5 33 10 36 9 5
-10 35 -22 35 -2 0 -3 -22 -3 -50z"/>
<path d="M12490 972 c0 -4 9 -13 20 -20 22 -13 27 -3 8 16 -14 14 -28 16 -28
4z"/>
<path d="M13840 971 c0 -9 30 -24 36 -18 2 1 -6 8 -16 15 -11 7 -20 8 -20 3z"/>
<path d="M14273 868 c1 -93 1 -98 4 -29 2 47 9 91 15 98 9 11 8 18 -4 29 -13
13 -15 3 -15 -98z"/>
<path d="M14560 970 c0 -5 6 -10 14 -10 24 0 30 -20 36 -125 l7 -100 1 96 c2
84 -1 100 -19 123 -21 26 -39 34 -39 16z"/>
<path d="M10678 952 c19 -21 27 -20 19 3 -4 8 -13 15 -22 15 -13 0 -12 -3 3
-18z"/>
<path d="M10830 960 c-8 -5 -10 -10 -5 -10 6 0 17 5 25 10 8 5 11 10 5 10 -5
0 -17 -5 -25 -10z"/>
<path d="M12670 960 c-9 -6 -10 -10 -3 -10 6 0 15 5 18 10 8 12 4 12 -15 0z"/>
<path d="M13335 960 c-3 -6 1 -7 9 -4 18 7 21 14 7 14 -6 0 -13 -4 -16 -10z"/>
<path d="M13714 962 c-13 -9 -44 -76 -44 -95 0 -9 5 -19 10 -22 6 -4 10 5 8
22 -2 30 12 61 38 87 16 16 8 22 -12 8z"/>
<path d="M10980 955 c0 -5 5 -17 10 -25 5 -8 10 -10 10 -5 0 6 -5 17 -10 25
-5 8 -10 11 -10 5z"/>
<path d="M11265 950 c3 -5 8 -10 11 -10 2 0 4 5 4 10 0 6 -5 10 -11 10 -5 0
-7 -4 -4 -10z"/>
<path d="M12820 953 c0 -5 5 -15 10 -23 8 -12 10 -11 10 8 0 12 -4 22 -10 22
-5 0 -10 -3 -10 -7z"/>
<path d="M12852 940 c0 -14 2 -19 5 -12 2 6 2 18 0 25 -3 6 -5 1 -5 -13z"/>
<path d="M13480 927 c0 -18 -5 -38 -11 -44 -7 -7 -6 -12 5 -16 13 -5 16 2 16
43 0 28 -2 50 -5 50 -3 0 -5 -15 -5 -33z"/>
<path d="M9870 945 c0 -5 5 -17 10 -25 5 -8 10 -10 10 -5 0 6 -5 17 -10 25 -5
8 -10 11 -10 5z"/>
<path d="M11523 925 c-3 -9 -3 -18 -1 -21 3 -3 8 4 11 16 6 23 -1 27 -10 5z"/>
<path d="M11750 931 c0 -6 4 -13 10 -16 6 -3 7 1 4 9 -7 18 -14 21 -14 7z"/>
<path d="M9961 894 c-18 -20 -31 -38 -28 -41 7 -6 47 34 47 46 0 5 6 11 13 14
6 2 10 7 7 10 -3 3 -20 -10 -39 -29z"/>
<path d="M10795 897 c-4 -18 -3 -49 2 -68 8 -30 9 -25 10 34 0 37 -1 67 -3 67
-2 0 -6 -15 -9 -33z"/>
<path d="M11280 910 c0 -11 -4 -20 -10 -20 -6 0 -6 -9 1 -23 8 -18 7 -33 -5
-62 -15 -35 -15 -36 0 -24 15 12 16 11 10 -9 -5 -13 -3 -22 3 -22 7 0 11 33
11 90 0 50 -2 90 -5 90 -3 0 -5 -9 -5 -20z"/>
<path d="M12635 910 c-4 -12 -5 -24 -2 -27 3 -2 8 5 12 17 4 12 5 24 2 27 -3
2 -8 -5 -12 -17z"/>
<path d="M13108 908 c-6 -32 6 -58 15 -34 4 9 3 26 -2 38 -8 21 -8 21 -13 -4z"/>
<path d="M13960 911 c-12 -24 -12 -69 1 -96 7 -15 8 -11 6 20 -2 22 0 52 4 68
9 32 4 35 -11 8z"/>
<path d="M14160 918 c0 -9 5 -20 10 -23 13 -8 13 5 0 25 -8 13 -10 13 -10 -2z"/>
<path d="M14444 835 c0 -55 1 -76 3 -47 2 29 2 74 0 100 -2 26 -3 2 -3 -53z"/>
<path d="M10206 893 c-3 -10 -2 -31 3 -48 8 -27 9 -26 9 18 -1 50 -3 57 -12
30z"/>
<path d="M10421 898 c1 -7 5 -24 9 -38 8 -24 8 -24 9 7 1 17 -3 35 -9 38 -5 3
-10 0 -9 -7z"/>
<path d="M11391 900 c0 -8 4 -22 9 -30 12 -18 12 -2 0 25 -6 13 -9 15 -9 5z"/>
<path d="M9906 875 c4 -8 8 -15 10 -15 2 0 4 7 4 15 0 8 -4 15 -10 15 -5 0 -7
-7 -4 -15z"/>
<path d="M11511 874 c0 -11 3 -14 6 -6 3 7 2 16 -1 19 -3 4 -6 -2 -5 -13z"/>
<path d="M12220 880 c0 -5 5 -10 10 -10 6 0 10 5 10 10 0 6 -4 10 -10 10 -5 0
-10 -4 -10 -10z"/>
<path d="M10703 840 c0 -25 2 -35 4 -22 2 12 2 32 0 45 -2 12 -4 2 -4 -23z"/>
<path d="M12852 860 c0 -14 2 -19 5 -12 2 6 2 18 0 25 -3 6 -5 1 -5 -13z"/>
<path d="M11792 861 c2 -7 7 -12 11 -12 12 1 9 15 -3 20 -7 2 -11 -2 -8 -8z"/>
<path d="M12145 863 c-11 -3 -24 -10 -30 -15 -12 -13 35 0 50 13 5 5 7 8 5 8
-3 -1 -14 -3 -25 -6z"/>
<path d="M12631 844 c0 -11 3 -14 6 -6 3 7 2 16 -1 19 -3 4 -6 -2 -5 -13z"/>
<path d="M12968 849 c-10 -5 -18 -15 -18 -22 0 -9 2 -9 8 0 4 7 19 16 32 22
14 5 18 10 10 10 -8 0 -23 -4 -32 -10z"/>
<path d="M11115 839 c-11 -16 -1 -19 13 -3 7 8 8 14 3 14 -5 0 -13 -5 -16 -11z"/>
<path d="M11482 816 c-15 -33 -11 -44 7 -22 7 8 11 23 9 32 -2 14 -6 11 -16
-10z"/>
<path d="M13311 818 c-16 -44 13 -79 63 -77 l31 1 -31 7 c-49 12 -56 20 -52
57 5 39 1 43 -11 12z"/>
<path d="M12082 798 c-2 -39 17 -58 55 -58 11 1 6 6 -14 15 -25 10 -33 21 -36
47 l-4 33 -1 -37z"/>
<path d="M13481 786 c-1 -30 3 -46 8 -40 5 5 6 27 1 49 l-8 40 -1 -49z"/>
<path d="M12827 806 c-4 -10 -5 -21 -2 -24 9 -9 17 6 13 25 -3 17 -4 17 -11
-1z"/>
<path d="M11431 794 c0 -11 3 -14 6 -6 3 7 2 16 -1 19 -3 4 -6 -2 -5 -13z"/>
<path d="M10230 791 c0 -6 4 -13 10 -16 6 -3 7 1 4 9 -7 18 -14 21 -14 7z"/>
<path d="M10396 783 c-6 -14 -5 -15 5 -6 7 7 10 15 7 18 -3 3 -9 -2 -12 -12z"/>
<path d="M14150 789 c0 -5 5 -7 10 -4 6 3 10 8 10 11 0 2 -4 4 -10 4 -5 0 -10
-5 -10 -11z"/>
<path d="M9757 770 c-3 -11 -1 -23 4 -26 5 -3 9 6 9 20 0 31 -6 34 -13 6z"/>
<path d="M10112 770 c0 -14 2 -19 5 -12 2 6 2 18 0 25 -3 6 -5 1 -5 -13z"/>
<path d="M12940 782 c0 -24 28 -42 62 -41 l33 1 -33 8 c-18 4 -39 16 -47 26
-9 12 -14 14 -15 6z"/>
<path d="M10700 765 c0 -8 5 -15 10 -15 6 0 10 7 10 15 0 8 -4 15 -10 15 -5 0
-10 -7 -10 -15z"/>
<path d="M11112 760 c10 -15 24 -20 55 -20 23 0 44 3 46 8 3 4 -15 7 -41 7
-27 0 -47 5 -49 13 -3 6 -9 12 -14 12 -5 0 -4 -9 3 -20z"/>
<path d="M12800 772 c0 -6 -19 -15 -42 -21 l-43 -11 39 5 c40 4 65 19 53 32
-4 3 -7 1 -7 -5z"/>
<path d="M12847 765 c-4 -8 -2 -17 3 -20 6 -4 10 3 10 14 0 25 -6 27 -13 6z"/>
<path d="M13075 770 c-3 -6 1 -7 9 -4 18 7 21 14 7 14 -6 0 -13 -4 -16 -10z"/>
<path d="M13855 770 c-3 -6 1 -7 9 -4 18 7 21 14 7 14 -6 0 -13 -4 -16 -10z"/>
<path d="M13996 765 c4 -8 12 -15 20 -15 20 0 17 7 -6 20 -16 9 -18 8 -14 -5z"/>
<path d="M10847 759 c7 -7 15 -10 18 -7 3 3 -2 9 -12 12 -14 6 -15 5 -6 -5z"/>
<path d="M11440 751 c0 -12 5 -21 10 -21 6 0 10 6 10 14 0 8 -4 18 -10 21 -5
3 -10 -3 -10 -14z"/>
<path d="M12677 759 c7 -7 15 -10 18 -7 3 3 -2 9 -12 12 -14 6 -15 5 -6 -5z"/>
<path d="M13110 760 c0 -5 5 -10 11 -10 5 0 7 5 4 10 -3 6 -8 10 -11 10 -2 0
-4 -4 -4 -10z"/>
<path d="M14117 763 c-4 -3 -24 -10 -44 -14 l-38 -8 43 3 c43 4 60 11 50 21
-2 3 -8 2 -11 -2z"/>
<path d="M10277 748 c6 -11 81 -10 87 0 3 5 -17 8 -44 8 -26 -1 -46 -4 -43 -8z"/>
<path d="M10880 749 c0 -5 9 -9 20 -9 11 0 20 2 20 4 0 2 -9 6 -20 9 -11 3
-20 1 -20 -4z"/>
<path d="M11980 749 c0 -5 5 -7 10 -4 6 3 10 8 10 11 0 2 -4 4 -10 4 -5 0 -10
-5 -10 -11z"/>
<path d="M12170 750 c-13 -8 -13 -10 2 -10 9 0 20 5 23 10 8 13 -5 13 -25 0z"/>
<path d="M13753 748 c16 -10 75 -10 80 0 3 4 -17 7 -43 7 -26 0 -43 -3 -37 -7z"/>
<path d="M11440 701 c-12 -24 -13 -34 -1 -27 9 6 22 46 15 46 -2 0 -8 -9 -14
-19z"/>
<path d="M11396 644 c-17 -12 -17 -14 -4 -14 9 0 20 5 23 11 11 17 2 18 -19 3z"/>
</g>
</svg>
