<?xml version="1.0" standalone="no"?>
<!DOCTYPE svg PUBLIC "-//W3C//DTD SVG 20010904//EN"
 "http://www.w3.org/TR/2001/REC-SVG-20010904/DTD/svg10.dtd">
<svg version="1.0" xmlns="http://www.w3.org/2000/svg"
 width="567.000000pt" height="640.000000pt" viewBox="0 0 567.000000 640.000000"
 preserveAspectRatio="xMidYMid meet">

<g transform="translate(0.000000,640.000000) scale(0.100000,-0.100000)"
fill="#000000" stroke="none">
<path d="M2650 6393 c-260 -15 -689 -62 -905 -99 -210 -36 -319 -104 -341
-212 -15 -75 54 -160 149 -183 l52 -12 -80 -27 c-44 -15 -94 -34 -112 -43
l-32 -17 -12 38 c-6 20 -23 59 -37 86 -20 42 -22 53 -12 70 18 29 24 128 10
170 -41 126 -201 189 -321 127 l-47 -23 -63 20 c-153 49 -340 64 -503 39 l-99
-15 -31 23 c-40 30 -110 48 -158 41 -56 -9 -108 -37 -108 -58 0 -16 3 -15 38
5 51 30 144 31 191 1 l33 -21 -32 -12 c-19 -6 -55 -8 -85 -5 -86 10 -123 -20
-139 -114 l-6 -32 53 31 c218 128 529 163 798 88 218 -60 421 -243 475 -427
l16 -53 -65 -68 c-67 -71 -112 -142 -142 -224 l-18 -49 -19 38 c-39 80 -102
120 -170 109 -55 -10 -128 -82 -147 -145 l-13 -45 -24 46 c-26 52 -72 96 -111
105 -74 19 -180 -64 -243 -191 -43 -87 -40 -82 -48 -68 -17 27 -79 53 -125 53
-112 0 -218 -111 -216 -227 l0 -48 23 61 c39 105 89 158 168 176 33 7 48 5 84
-13 54 -25 60 -46 40 -125 -41 -158 -43 -324 -10 -580 l16 -121 -37 -49 c-54
-70 -126 -227 -178 -389 -25 -77 -59 -184 -77 -238 -20 -64 -30 -113 -28 -140
l3 -42 18 60 c84 281 132 432 159 500 110 285 283 442 533 483 90 14 106 15
191 0 102 -17 197 -57 275 -114 l49 -36 -34 -32 c-23 -21 -39 -49 -47 -79 -6
-27 -14 -46 -18 -44 -131 72 -281 40 -376 -81 -64 -81 -95 -173 -102 -301 l-6
-103 -36 5 c-20 4 -83 17 -140 31 -59 14 -117 22 -133 19 -32 -6 -68 -46 -68
-74 0 -23 48 -78 100 -114 l40 -28 -59 -54 c-143 -129 -234 -300 -277 -519
-18 -93 -37 -1006 -27 -1339 l6 -200 -27 -24 c-14 -14 -26 -35 -26 -49 0 -22
4 -21 53 24 100 91 203 124 396 124 l114 0 -6 -82 c-4 -46 -7 -118 -7 -161 l0
-79 -31 26 c-45 38 -99 36 -134 -6 -23 -27 -26 -39 -22 -76 3 -25 14 -53 27
-67 l21 -23 -37 -48 c-41 -54 -69 -115 -80 -169 -5 -29 -13 -38 -48 -53 -41
-19 -73 -48 -64 -58 3 -3 23 6 43 21 21 14 41 25 44 25 3 0 6 -56 6 -124 l0
-123 -52 0 c-65 0 -114 -29 -148 -87 -37 -62 -76 -185 -73 -226 3 -31 5 -27
21 35 10 39 34 102 53 142 40 85 77 113 147 113 40 0 52 -5 87 -38 44 -42 50
-73 26 -120 -21 -40 -46 -172 -46 -240 0 -59 11 -130 30 -204 18 -65 27 -42
12 30 -19 90 -12 298 13 367 53 152 184 191 292 87 72 -70 99 -156 113 -354 5
-76 14 -146 19 -155 8 -13 9 9 5 77 -10 152 25 311 84 382 52 62 139 75 221
33 96 -48 138 -127 171 -321 13 -71 25 -141 28 -157 2 -15 8 -27 13 -27 5 0 6
12 2 28 -4 15 -7 61 -7 102 1 226 132 420 283 420 98 0 173 -84 229 -260 23
-72 52 -216 52 -261 0 -19 5 -29 15 -29 18 0 19 22 5 103 -11 69 1 186 31 298
l20 75 86 -3 c73 -2 88 -5 100 -23 18 -26 69 -27 84 -1 12 18 12 18 30 0 26
-26 54 -24 78 7 19 24 21 25 45 9 29 -19 69 -14 98 12 15 13 20 12 46 -7 31
-23 59 -21 87 6 13 13 17 12 35 -6 26 -26 72 -26 96 1 l18 20 8 -20 c10 -29
54 -38 79 -16 18 18 20 17 42 -3 28 -27 74 -28 107 -5 18 13 47 18 105 20 44
1 99 8 123 16 23 8 44 12 46 8 2 -3 9 -78 16 -166 6 -88 14 -198 18 -245 l6
-85 6 80 c7 93 -5 312 -20 379 l-10 47 48 47 c75 74 91 172 39 245 -19 28 -19
29 -1 47 24 22 194 174 246 218 l38 34 215 -157 c118 -85 224 -168 236 -183
21 -27 21 -28 14 -390 -5 -247 -4 -362 3 -362 14 0 20 111 26 439 4 218 2 281
-9 307 -9 21 -41 53 -89 89 -84 62 -85 65 -61 158 45 173 183 322 340 368 187
55 356 13 542 -135 184 -147 240 -281 215 -523 -12 -111 -75 -600 -87 -670 -5
-25 -2 -33 9 -33 19 0 16 -14 78 425 42 295 45 489 10 574 -24 56 -64 119
-103 160 -21 22 -21 25 -6 50 9 14 72 119 139 233 68 114 126 207 130 207 4 1
3 -12 -2 -29 -13 -44 4 -37 41 17 l32 46 24 -47 c27 -54 43 -52 43 5 0 21 3
39 8 38 4 0 21 -19 37 -42 17 -23 35 -42 40 -42 5 0 8 20 6 44 l-3 44 32 -23
c17 -12 34 -19 38 -16 3 4 39 -26 79 -66 66 -65 73 -70 73 -47 0 19 -29 53
-125 145 -118 113 -125 121 -125 159 -1 71 -29 247 -56 345 -15 52 -28 104
-31 115 -7 33 35 130 78 179 43 49 85 76 117 76 40 0 93 -63 116 -137 7 -20 5
-21 -24 -10 -40 15 -59 -4 -66 -69 -7 -61 20 -104 66 -104 40 0 50 24 50 120
0 66 -4 90 -25 129 -13 27 -36 58 -51 70 -31 25 -92 28 -132 7 -51 -27 -120
-114 -141 -177 l-12 -36 -35 33 c-65 62 -136 58 -201 -12 l-41 -45 -7 30 c-3
16 1 66 9 110 14 75 14 85 -1 124 -9 23 -17 68 -19 100 -3 68 -15 87 -55 87
-22 0 -29 5 -29 18 0 35 -32 52 -97 52 -92 0 -96 12 -33 106 56 82 117 154
131 154 5 0 9 -7 9 -16 0 -8 14 -29 30 -46 26 -25 36 -29 62 -24 18 3 43 16
56 29 20 19 23 29 20 81 l-3 59 75 -6 c187 -14 356 -128 447 -303 42 -78 42
-79 43 -41 0 44 -18 84 -69 148 -51 65 -125 126 -188 157 -51 25 -53 28 -53
67 0 58 -44 140 -93 176 -59 43 -137 63 -214 55 l-63 -7 0 43 c0 24 4 48 8 54
5 8 55 -9 155 -52 82 -35 158 -64 168 -64 32 0 69 44 69 83 0 83 -152 211
-319 268 -30 11 -65 19 -78 19 -13 0 -23 6 -23 14 0 7 -16 45 -35 83 -79 158
-213 223 -456 223 -38 0 -69 2 -69 4 0 21 91 202 132 263 60 89 136 94 353 23
285 -93 469 -196 626 -350 53 -52 108 -111 122 -130 l27 -35 0 28 c0 16 -9 40
-20 54 -21 27 -19 43 6 43 8 0 14 5 14 11 0 6 -9 8 -22 4 -13 -4 -26 -8 -29
-9 -6 -1 -149 132 -149 138 0 2 45 21 100 42 55 21 100 45 100 51 0 18 -2 18
-116 -33 l-104 -47 -40 27 c-23 15 -40 34 -40 45 0 10 -3 32 -6 49 -6 28 -3
31 27 40 113 32 279 124 279 154 0 13 -10 10 -52 -19 -58 -39 -198 -109 -239
-118 -25 -6 -26 -5 -37 72 -19 124 -18 129 26 136 74 12 302 136 302 165 0 6
-2 12 -3 12 -2 0 -40 -22 -85 -49 -74 -44 -251 -126 -258 -118 -6 6 -25 220
-19 225 3 3 69 32 147 64 79 33 148 61 154 64 6 3 19 -21 29 -56 10 -34 22
-63 27 -66 17 -11 7 60 -22 159 -17 56 -40 153 -50 215 -19 112 -19 114 0 163
33 83 20 172 -34 244 -27 35 -56 113 -56 150 0 39 28 111 94 244 60 121 61
126 61 205 0 97 -17 134 -77 173 -52 35 -146 42 -239 19 -109 -28 -269 -111
-338 -177 -15 -14 -26 -19 -28 -12 -9 27 -48 65 -85 84 -87 44 -433 102 -721
120 -254 16 -612 -4 -663 -37 -23 -16 -26 -16 -48 5 -13 12 -46 31 -75 41 -47
19 -75 20 -364 18 -171 -1 -337 -3 -367 -5z m735 -49 c57 -31 77 -57 82 -107
6 -47 -18 -106 -54 -139 -24 -22 -120 -66 -162 -74 -30 -6 -32 -5 -27 17 16
77 17 101 4 97 -15 -5 -30 -55 -58 -192 -29 -140 -25 -134 -64 -94 -51 52
-100 73 -176 72 -143 -1 -253 -111 -326 -328 -13 -38 -24 -78 -24 -88 0 -32
-17 -11 -23 29 -10 58 -71 177 -116 226 -23 24 -41 46 -41 49 0 3 54 8 120 11
144 8 180 22 180 69 0 22 -10 40 -35 63 -96 91 -300 86 -412 -10 l-41 -34 -73
15 c-59 13 -101 14 -209 8 -74 -4 -182 -8 -240 -8 -160 -1 -235 36 -247 121
-10 77 52 143 170 182 112 37 572 98 912 121 251 17 264 17 550 16 256 -1 272
-2 310 -22z m1052 -33 c250 -35 396 -67 450 -100 59 -37 68 -67 68 -242 l0
-156 -125 -6 c-69 -3 -152 -13 -185 -22 -94 -25 -203 -84 -269 -146 l-61 -56
-50 13 c-223 59 -449 55 -656 -12 -13 -5 -18 4 -23 41 -19 122 -73 222 -147
267 -27 17 -49 34 -49 38 0 49 25 123 51 151 47 51 63 88 63 154 1 54 4 61 26
72 79 37 645 40 907 4z m1130 -13 c78 -73 71 -196 -21 -352 -25 -43 -28 -45
-43 -30 -26 26 -60 34 -137 34 -102 0 -166 -21 -210 -70 -22 -25 -36 -50 -36
-66 0 -26 -1 -27 -56 -21 -31 3 -60 9 -65 14 -10 10 -13 81 -11 211 l2 103 46
45 c72 70 263 154 379 166 55 6 127 -10 152 -34z m-4418 -19 c106 -24 173
-130 153 -243 l-7 -39 -26 34 c-15 19 -29 55 -33 82 -9 56 -52 112 -92 120
-15 2 -41 1 -60 -4 -26 -8 -39 -6 -65 10 -36 22 -33 25 35 41 43 11 45 11 95
-1z m-1009 -16 c-1 -9 -111 -75 -117 -70 -7 7 40 59 61 67 27 11 56 12 56 3z
m1023 -65 c18 -9 47 -65 47 -88 0 -7 -26 11 -57 39 -31 28 -61 51 -66 51 -4 0
-5 5 -2 10 6 10 46 4 78 -12z m2214 -182 c-3 -8 -9 -30 -12 -49 -6 -32 -10
-35 -52 -41 -41 -5 -97 -35 -115 -61 -11 -15 -10 5 3 62 l12 49 76 25 c95 32
94 32 88 15z m-929 -28 c-5 -15 -68 -24 -68 -9 0 5 12 12 28 14 15 2 31 5 35
6 5 0 7 -5 5 -11z m82 2 c10 0 11 -3 3 -11 -14 -14 -55 -8 -61 10 -4 10 1 12
19 8 13 -4 31 -7 39 -7z m-170 -14 c0 -10 -33 -36 -46 -36 -21 0 -17 16 9 28
24 12 37 14 37 8z m255 -16 c81 -39 77 -95 -6 -106 -41 -6 -48 -4 -58 15 -12
21 -55 29 -65 12 -3 -5 -23 -7 -45 -4 -32 4 -41 2 -55 -18 l-16 -23 -66 32
c-65 32 -66 34 -47 51 13 12 29 17 49 14 20 -3 37 1 47 11 11 11 25 14 41 10
13 -3 33 -1 44 5 14 7 28 7 51 -2 26 -10 34 -9 48 6 22 22 28 21 78 -3z m2868
-60 c22 -18 24 -24 16 -48 -9 -27 -17 -30 -134 -56 -93 -20 -137 -25 -175 -20
-49 6 -51 8 -45 33 17 71 98 109 231 110 67 1 86 -3 107 -19z m-3268 -34 c154
-59 233 -137 288 -286 22 -58 34 -123 52 -287 l6 -53 -170 0 -170 0 -49 49
c-32 32 -59 72 -77 115 -26 60 -31 67 -54 64 -41 -5 -63 -58 -58 -143 2 -38 7
-77 11 -86 6 -13 -12 -19 -105 -37 -185 -37 -300 -97 -323 -170 -5 -16 -12
-18 -59 -11 -146 20 -258 -68 -228 -178 23 -83 111 -133 236 -133 73 0 73 0
80 -30 8 -36 44 -66 98 -81 22 -6 50 -23 64 -40 19 -22 33 -29 62 -29 20 0 46
7 58 15 18 13 22 12 38 -5 21 -24 53 -26 81 -5 21 14 21 13 28 -48 3 -34 9
-101 12 -149 l7 -88 -79 0 -79 0 -28 73 c-45 122 -116 188 -222 208 -59 11
-271 -3 -337 -22 -50 -14 -62 3 -91 125 -44 180 -58 297 -66 541 l-8 230 37
77 c104 215 212 302 445 363 179 46 241 55 390 51 123 -3 148 -6 210 -30z
m786 13 c39 -13 94 -62 115 -101 12 -22 12 -36 2 -80 -8 -33 -13 -131 -13
-255 0 -156 -3 -203 -12 -203 -10 0 -13 26 -13 98 0 116 -12 147 -55 147 -27
0 -37 -10 -90 -91 -101 -152 -82 -140 -224 -148 l-123 -7 4 108 c4 91 10 125
40 213 88 260 216 370 369 319z m409 -8 c69 -36 123 -138 144 -272 6 -35 5
-37 -55 -74 -69 -42 -166 -123 -278 -232 -41 -40 -78 -70 -81 -67 -10 11 -3
380 9 444 17 90 55 165 99 195 45 31 112 33 162 6z m-952 -18 c2 -9 -8 -13
-33 -13 -33 0 -36 2 -25 15 15 18 51 16 58 -2z m77 7 c4 -6 -5 -10 -19 -10
-14 0 -26 5 -26 10 0 6 9 10 19 10 11 0 23 -4 26 -10z m2937 -133 l-4 -64 -90
46 -90 46 79 16 c117 25 108 28 105 -44z m-452 32 c96 -11 253 -49 336 -80 68
-26 164 -112 193 -174 29 -62 27 -128 -4 -192 -38 -75 -113 -126 -231 -157
-190 -49 -543 -59 -689 -18 -190 52 -346 182 -345 288 1 99 135 237 288 294
121 46 283 60 452 39z m-820 -184 c47 -10 86 -19 88 -20 1 -1 -7 -23 -19 -49
-21 -47 -22 -99 -4 -153 7 -20 5 -21 -32 -13 -49 12 -81 4 -115 -28 -96 -89
23 -250 146 -198 44 18 67 53 69 105 l1 41 26 -23 c14 -13 37 -31 51 -39 23
-15 27 -24 32 -93 3 -42 11 -83 17 -91 17 -19 57 -18 68 2 6 11 11 -15 16 -82
11 -151 26 -270 47 -368 10 -49 16 -92 13 -97 -13 -22 -30 -6 -32 29 -6 93
-43 252 -73 313 -23 46 -89 106 -145 129 -132 57 -394 45 -478 -21 l-28 -22
-103 33 c-113 35 -154 34 -180 -3 -36 -52 0 -117 91 -162 58 -29 61 -32 51
-55 -5 -14 -20 -65 -32 -115 l-22 -90 -53 105 c-77 153 -146 273 -170 295 -28
25 -80 24 -114 -2 -15 -12 -52 -52 -83 -90 -30 -37 -58 -69 -62 -71 -3 -1 -3
78 0 175 3 97 2 196 -1 220 l-7 44 81 79 c226 219 330 283 551 334 47 11 324
-2 405 -19z m-3164 -59 c55 -64 65 -115 75 -381 4 -132 13 -269 19 -305 11
-64 51 -218 65 -252 9 -23 0 -23 -33 1 -80 56 -181 91 -292 100 l-75 6 3 30
c2 17 -2 173 -7 348 -11 346 -10 358 45 433 54 73 146 82 200 20z m-375 -13
c17 -10 41 -40 56 -71 28 -56 31 -99 47 -573 l6 -176 -54 -7 c-110 -13 -249
-78 -334 -157 -50 -46 -46 -56 -63 149 -21 251 -1 443 60 597 80 200 190 292
282 238z m2377 -45 c8 -8 12 -47 12 -110 l0 -98 -97 0 -97 0 21 22 c16 16 25
19 35 11 21 -17 58 -26 58 -14 0 6 -8 11 -19 11 -30 0 -45 24 -29 49 15 25 21
26 38 6 7 -8 22 -15 34 -15 16 1 14 4 -11 15 -18 8 -33 20 -33 28 0 22 23 35
45 26 28 -11 47 -11 40 1 -3 6 -15 10 -25 10 -28 0 -34 18 -16 45 18 28 27 30
44 13z m-970 -50 c23 -51 20 -58 -18 -58 -16 0 -32 -4 -35 -10 -8 -13 26 -13
58 -1 20 8 27 6 31 -5 4 -10 -7 -21 -37 -34 -50 -22 -33 -27 19 -5 31 13 38
13 50 1 20 -21 18 -24 -21 -32 -19 -3 -35 -11 -35 -16 0 -6 6 -8 14 -5 42 16
83 18 95 4 11 -14 1 -16 -74 -19 -105 -4 -110 1 -110 107 0 67 15 115 35 115
5 0 18 -19 28 -42z m2216 -118 c28 -27 29 -99 2 -129 -43 -47 -139 -32 -165
25 -13 30 -14 74 -1 94 26 41 127 47 164 10z m1276 -69 c0 -26 -7 -32 -72 -64
-93 -45 -118 -52 -118 -35 0 7 24 23 54 36 29 13 68 38 87 56 43 42 49 43 49
7z m-2470 -14 c48 -24 52 -47 44 -297 l-7 -230 -57 -78 c-133 -181 -302 -447
-379 -598 -32 -62 -42 -74 -47 -58 -44 126 -103 197 -199 239 -29 13 -103 32
-164 42 -110 18 -111 18 -111 46 0 15 -4 27 -10 27 -5 0 -10 -14 -10 -31 0
-28 -3 -31 -22 -25 -13 3 -31 6 -40 6 -16 0 -18 10 -18 74 0 66 -11 152 -26
199 -5 15 -2 16 22 7 21 -8 35 -7 65 8 34 17 39 17 53 3 21 -20 80 -19 104 2
17 16 21 16 51 1 38 -19 73 -13 114 22 24 20 39 24 90 24 l62 -1 -24 -19 c-25
-21 -66 -27 -76 -10 -3 6 -11 10 -17 10 -7 0 -6 -6 2 -15 18 -21 73 -18 104 6
24 19 27 19 48 5 34 -24 85 -20 114 9 14 14 36 25 49 25 15 0 25 6 25 14 0 12
-19 13 -102 10 -57 -2 -277 -9 -489 -14 -335 -9 -389 -9 -414 4 l-28 15 26 12
c35 16 34 28 -3 36 -37 7 -38 16 -5 31 36 16 31 32 -10 32 -43 0 -44 10 -5 33
35 21 39 37 8 37 -40 0 -9 13 64 26 40 7 116 13 169 13 53 1 130 4 172 7 68 6
77 9 77 27 0 17 -5 19 -37 13 -64 -11 -366 -19 -417 -12 -41 7 -46 9 -31 20
14 10 15 16 6 34 -6 12 -17 22 -23 22 -6 0 -4 8 5 18 23 25 21 30 -10 34 l-28
3 30 17 c25 14 27 17 13 22 -10 3 -26 9 -35 12 -16 5 -15 8 10 29 33 29 34 35
5 35 -66 1 76 36 242 61 41 6 228 14 415 18 554 12 627 12 655 -2z m1454 -101
c-27 -85 -56 -109 -73 -63 -8 20 -15 96 -12 118 1 4 21 -3 46 -14 37 -17 44
-25 39 -41z m1036 -54 c12 -63 18 -117 14 -122 -7 -6 -185 -86 -281 -127 -13
-5 -20 26 -26 130 -5 66 -4 68 14 51 18 -16 20 -16 39 1 11 10 20 28 20 39 0
50 12 64 68 86 32 12 73 30 92 40 19 10 36 17 36 17 1 -1 12 -53 24 -115z
m-890 23 c0 -13 -52 -89 -67 -98 -22 -14 -37 15 -41 76 l-4 65 56 -16 c31 -8
56 -21 56 -27z m654 8 c-14 -101 -27 -107 -55 -25 -19 56 -18 58 38 61 20 1
21 -3 17 -36z m-115 -29 c-11 -58 -15 -64 -43 -64 -30 0 -45 19 -53 63 -6 38
1 42 73 46 l31 1 -8 -46z m-148 -49 c-11 -25 -26 -45 -34 -45 -15 0 -27 41
-27 91 0 25 4 28 38 31 46 4 51 -13 23 -77z m-273 69 l30 -6 -22 -57 c-16 -41
-28 -57 -44 -59 -22 -3 -22 -5 -41 86 -9 41 -9 42 19 42 15 0 41 -3 58 -6z
m162 -51 c-28 -89 -66 -108 -94 -49 -9 19 -16 48 -16 65 0 30 1 30 58 33 31 2
58 0 60 -4 2 -4 -2 -25 -8 -45z m319 -503 c12 -91 26 -183 31 -205 18 -79 19
-79 -92 -22 -173 89 -465 187 -555 187 -26 0 -34 5 -38 23 -17 76 -46 294 -58
428 -3 35 -2 36 20 26 19 -9 28 -6 49 14 14 13 34 40 44 59 l18 35 7 -30 c15
-73 21 -89 38 -99 24 -15 47 1 72 50 l19 39 7 -33 c9 -45 37 -74 68 -70 25 3
54 45 76 110 7 19 9 14 14 -26 10 -83 49 -86 91 -7 11 21 19 29 20 19 0 -19
45 -58 67 -58 28 0 63 48 65 87 1 21 5 -52 8 -162 4 -110 17 -274 29 -365z
m-3859 471 c0 -12 -40 -41 -57 -41 -24 0 -13 28 15 38 36 14 42 14 42 3z m100
0 c0 -32 -72 -40 -78 -8 -3 14 4 17 37 17 23 0 41 -4 41 -9z m43 -31 c3 -14 1
-20 -6 -17 -7 2 -14 14 -15 26 -4 28 13 20 21 -9z m-89 -20 c12 0 28 6 35 13
10 10 14 9 22 -5 6 -10 17 -18 26 -18 9 0 30 -9 47 -19 30 -18 85 -32 191 -47
l50 -7 -85 -19 c-51 -11 -97 -28 -117 -44 -26 -20 -37 -23 -52 -14 -28 15 -77
12 -90 -4 -11 -13 -15 -12 -32 5 -23 23 -57 24 -88 3 -22 -16 -24 -15 -53 13
-39 39 -48 98 -20 133 16 20 22 22 35 12 16 -13 59 -3 72 17 4 8 11 6 21 -4 9
-8 25 -15 38 -15z m2743 -1 c129 -17 202 -60 244 -141 24 -46 55 -176 68 -282
l9 -78 -33 -47 c-34 -48 -145 -262 -145 -280 0 -7 -30 -11 -80 -11 -177 0
-285 -52 -329 -158 -7 -18 -16 -32 -20 -32 -4 0 -31 55 -60 123 -30 67 -88
189 -128 271 l-74 148 26 114 c43 185 99 277 203 332 90 48 183 60 319 41z
m-546 -47 c24 4 37 -1 56 -19 13 -14 30 -22 38 -19 20 7 18 -4 -5 -32 -16 -20
-22 -21 -39 -11 -15 10 -28 10 -58 1 -36 -12 -39 -11 -65 18 -30 32 -36 68
-16 88 9 9 17 7 34 -9 17 -16 32 -20 55 -17z m9 28 c11 -7 7 -10 -17 -10 -17
0 -35 5 -38 10 -8 13 35 13 55 0z m98 -25 c12 -4 20 -11 17 -16 -9 -13 -49
-11 -63 3 -18 18 -15 30 6 24 9 -2 27 -7 40 -11z m-355 -42 c23 -38 112 -204
201 -378 62 -120 254 -529 251 -533 -1 -1 -36 9 -78 23 -161 54 -296 53 -455
-1 -70 -24 -85 -26 -177 -21 -55 4 -136 16 -179 27 -107 27 -158 26 -192 -3
-37 -32 -37 -78 1 -117 30 -31 153 -100 179 -100 24 0 20 -7 -35 -68 -56 -61
-115 -145 -148 -209 -12 -24 -23 -43 -25 -43 -3 0 -16 53 -31 118 -15 64 -40
168 -56 230 l-29 113 47 82 c188 332 361 589 551 820 71 85 85 96 124 97 21 0
33 -9 51 -37z m302 -63 c3 -5 4 -14 1 -19 -7 -11 -76 8 -76 21 0 12 68 10 75
-2z m-2257 -38 c2 -7 -6 -12 -20 -12 -34 0 -68 11 -68 21 0 6 10 14 23 18 23
9 57 -5 65 -27z m103 18 c34 -19 21 -30 -33 -30 l-53 1 24 19 c27 23 35 24 62
10z m1169 -179 c0 -5 -13 -14 -30 -21 -24 -10 -36 -10 -60 0 -46 19 -36 30 30
30 33 0 60 -4 60 -9z m-912 -11 l57 -1 -24 -19 c-28 -24 -52 -25 -91 -5 -31
16 -42 42 -14 31 9 -3 41 -6 72 -6z m466 1 c9 -13 -40 -41 -72 -41 -27 0 -52
15 -52 31 0 7 30 12 97 17 12 1 24 -2 27 -7z m127 -11 c-27 -23 -83 -26 -100
-7 -17 21 -3 27 63 27 l61 -1 -24 -19z m-421 2 c0 -16 -25 -32 -50 -32 -25 0
-50 16 -50 32 0 4 23 8 50 8 28 0 50 -4 50 -8z m131 -12 c-13 -11 -33 -20 -46
-20 -13 0 -33 9 -46 20 l-24 19 70 0 70 0 -24 -19z m-448 -74 c46 -19 113 -98
137 -162 11 -30 20 -59 20 -64 0 -5 -21 -11 -47 -15 -78 -9 -165 -35 -209 -60
-53 -31 -117 -101 -148 -164 l-26 -50 -41 18 c-50 23 -77 17 -85 -18 -3 -14
-7 -30 -8 -36 -2 -5 -11 35 -21 90 -22 126 -49 215 -75 248 -37 47 -7 153 52
183 75 39 382 59 451 30z m-619 -140 c50 -21 102 -80 125 -144 17 -47 131
-651 131 -696 0 -7 -22 -18 -54 -25 -29 -6 -88 -30 -131 -51 -58 -31 -75 -36
-70 -23 46 110 56 210 29 289 l-16 46 35 52 c68 100 75 140 31 175 -33 26 -58
26 -201 -1 -136 -25 -175 -48 -156 -91 11 -24 10 -25 -35 -30 -26 -3 -55 -9
-64 -12 -16 -7 -18 1 -18 81 1 268 121 444 302 444 32 0 74 -6 92 -14z m1227
-150 c154 -28 228 -74 278 -175 28 -54 37 -88 81 -291 11 -52 36 -152 56 -222
l36 -127 -26 -78 c-35 -106 -56 -220 -56 -309 0 -41 -2 -74 -5 -74 -3 0 -22
11 -43 24 -57 38 -119 49 -240 44 -78 -4 -127 -12 -179 -30 -68 -23 -73 -23
-73 -7 0 35 -57 174 -95 234 -117 182 -312 300 -516 312 l-87 6 -6 51 c-11 97
-6 280 9 341 34 131 110 236 201 276 93 41 157 49 374 45 125 -3 239 -10 291
-20z m2329 -147 c36 -5 88 -20 116 -33 150 -69 229 -263 209 -517 l-7 -90 -38
-19 c-89 -45 -213 -192 -272 -321 -22 -47 -24 -49 -53 -42 -16 5 -66 8 -110 8
-103 -1 -173 -34 -262 -122 l-63 -63 0 120 c0 109 7 139 25 110 10 -17 61 -11
87 9 24 20 25 20 41 0 29 -33 74 -25 118 21 21 22 42 40 48 40 19 0 61 62 61
91 0 28 2 29 46 29 92 0 183 21 215 51 38 36 39 79 3 108 -31 25 -84 27 -248
10 l-107 -11 -22 29 c-12 15 -57 69 -99 120 -43 51 -78 94 -78 97 0 4 9 6 20
6 32 0 80 51 87 92 12 81 -44 138 -134 138 -62 0 -99 -26 -109 -74 l-6 -34
-59 41 c-53 37 -59 45 -54 67 15 62 74 112 156 134 65 18 390 21 489 5z
m-3260 -79 c13 -9 13 -11 0 -19 -9 -6 -19 -6 -27 1 -28 23 -5 39 27 18z m-252
-11 c53 -18 52 -51 -2 -129 -17 -24 -34 -49 -38 -54 -4 -6 -24 2 -50 20 -47
34 -98 54 -134 54 -64 0 -99 51 -48 70 39 15 54 12 64 -15 10 -26 50 -42 72
-29 7 4 24 8 37 8 25 1 30 10 47 74 4 15 12 15 52 1z m237 -29 c23 0 45 -17
45 -36 0 -6 -16 -14 -36 -16 -31 -4 -37 -1 -45 20 -5 13 -9 35 -8 50 0 27 0
27 11 5 6 -13 20 -23 33 -23z m1589 27 c60 -16 68 -31 27 -51 -42 -22 -68 -20
-96 9 -52 51 -26 66 69 42z m843 -20 c198 -70 359 -201 568 -462 130 -163 135
-171 135 -224 0 -76 24 -72 -634 -93 -683 -22 -726 -24 -726 -44 0 -8 6 -14
14 -14 8 0 17 -9 21 -20 18 -56 110 -79 165 -40 28 20 29 20 35 1 8 -26 57
-44 95 -36 17 4 48 25 69 47 31 32 40 36 45 23 3 -9 22 -23 42 -31 42 -17 83
-8 120 27 l22 21 21 -21 c44 -44 103 -39 151 12 l30 32 0 -60 c0 -124 -42
-317 -74 -344 -11 -9 -12 16 -8 136 2 82 2 145 -2 142 -3 -3 -8 -63 -10 -135
-2 -71 -7 -137 -11 -146 -14 -36 -64 -12 -79 37 -3 11 -13 83 -22 160 -8 77
-18 142 -21 145 -6 6 5 -161 18 -255 5 -38 16 -80 24 -92 34 -51 113 -36 145
28 23 45 50 199 50 287 0 34 2 62 4 62 1 0 17 -5 33 -10 23 -8 40 -7 73 4 l43
15 -7 -162 c-10 -220 -54 -758 -72 -865 l-5 -33 -50 45 c-68 61 -141 87 -261
94 -91 4 -98 6 -99 26 -2 20 -2 20 -6 -1 -5 -26 -11 -27 -132 -43 -160 -19
-272 -10 -368 31 l-43 18 0 180 c0 189 16 349 51 513 27 126 20 149 -9 30 -44
-184 -55 -279 -56 -499 l-1 -212 -60 6 c-42 4 -71 1 -96 -10 l-36 -15 -12 107
c-21 184 -89 441 -146 551 -29 57 -15 238 31 398 98 336 382 631 682 707 90
23 269 14 359 -18z m-2749 -4 c-3 -30 -25 -42 -34 -19 -9 22 2 46 21 46 12 0
15 -8 13 -27z m1807 7 c9 -29 54 -60 85 -60 15 0 39 9 54 21 l26 20 26 -30
c21 -25 33 -31 67 -31 l42 0 -30 -25 c-26 -21 -37 -23 -77 -18 -36 4 -54 1
-73 -11 -25 -17 -28 -16 -73 10 -84 49 -114 98 -80 132 17 17 26 15 33 -8z
m-1865 -20 c0 -25 -4 -30 -23 -30 -15 0 -28 9 -35 24 -10 23 -9 25 16 29 15 2
30 5 35 6 4 0 7 -12 7 -29z m430 20 c0 -5 -4 -10 -10 -10 -5 0 -10 5 -10 10 0
6 5 10 10 10 6 0 10 -4 10 -10z m1739 -20 c43 0 44 0 26 -20 -25 -28 -76 -35
-114 -16 -17 9 -31 18 -31 20 0 3 -3 11 -6 19 -4 12 2 13 38 6 24 -4 63 -8 87
-9z m90 -4 c-2 -2 -14 -9 -26 -15 -19 -10 -22 -9 -17 4 4 8 15 15 27 15 11 0
18 -2 16 -4z m-2822 -40 c11 -11 -10 -26 -38 -26 -16 0 -29 2 -29 4 0 2 -3 12
-7 22 -6 15 -2 16 32 11 20 -3 40 -8 42 -11z m939 -60 c19 -9 22 -20 27 -145
3 -75 9 -144 13 -154 6 -15 3 -18 -17 -15 -21 3 -24 12 -50 163 -16 88 -31
176 -34 195 l-7 35 24 -35 c13 -19 33 -39 44 -44z m2909 60 c57 -24 73 -90 34
-140 -16 -21 -29 -26 -62 -26 -34 0 -48 6 -79 37 -44 43 -49 79 -15 110 39 36
70 41 122 19z m-3924 -27 c17 -17 29 -20 56 -16 24 4 40 1 50 -8 17 -18 47
-19 74 -4 16 8 25 7 40 -7 20 -18 20 -18 -8 -32 -15 -8 -49 -28 -76 -44 l-47
-30 -54 43 c-60 48 -82 79 -73 103 8 21 13 20 38 -5z m148 15 c34 -7 40 -18
15 -28 -22 -9 -51 1 -58 19 -6 17 -2 18 43 9z m901 -19 c0 -17 -2 -18 -24 -9
-23 9 -20 24 4 24 11 0 20 -7 20 -15z m-763 -11 c13 -4 20 -10 17 -15 -8 -14
-38 -11 -60 6 -19 14 -19 14 1 15 11 0 30 -3 42 -6z m307 -18 c62 -19 111 -58
137 -108 17 -34 20 -54 17 -122 -6 -123 -42 -201 -144 -309 l-81 -86 -21 28
c-48 65 -147 62 -198 -5 -53 -68 -26 -169 51 -194 19 -6 44 -9 54 -5 19 6 19
4 -4 -62 -13 -37 -29 -86 -35 -108 l-10 -41 -115 -33 c-211 -61 -327 -136
-381 -247 -38 -78 -38 -138 -1 -170 15 -13 40 -24 55 -24 58 0 151 33 271 96
68 36 125 64 126 62 2 -2 4 -50 5 -108 2 -95 0 -111 -24 -164 -40 -86 -56
-170 -66 -339 -5 -84 -10 -161 -10 -172 0 -19 -7 -20 -133 -21 -139 -1 -225
-17 -300 -55 -21 -11 -42 -17 -45 -14 -4 4 -7 309 -7 678 0 594 2 685 18 783
41 261 139 442 316 584 94 75 245 146 351 163 55 9 129 6 174 -7z m2104 -12
c21 -6 22 -8 7 -24 -13 -14 -23 -16 -47 -9 -42 12 -45 17 -17 28 30 12 29 12
57 5z m2016 -70 c38 -7 46 -18 20 -28 -26 -10 -47 -7 -66 11 -21 19 -24 37 -4
30 8 -3 31 -9 50 -13z m12 -48 c16 4 24 0 29 -15 9 -30 48 -53 82 -49 23 2 31
-3 43 -27 13 -26 21 -30 55 -30 22 0 46 -4 53 -9 20 -12 34 -57 27 -86 l-7
-25 -14 28 c-18 33 -50 48 -82 36 -19 -7 -25 -4 -34 16 -12 27 -41 39 -79 33
-17 -2 -24 3 -29 22 -3 14 -17 31 -30 38 -24 12 -38 12 -71 -2 -13 -6 -16 2
-18 43 l-1 50 27 -14 c15 -8 37 -12 49 -9z m98 1 c41 -23 48 -40 21 -45 -31
-7 -62 7 -73 33 -7 14 -12 28 -12 30 0 11 28 3 64 -18z m120 -86 c19 -21 19
-21 -5 -21 -30 0 -49 17 -49 42 0 15 4 17 18 9 9 -5 26 -19 36 -30z m-200 -7
c16 -16 22 -54 9 -54 -22 0 -93 35 -93 46 0 26 60 32 84 8z m108 -61 c16 -15
25 -43 13 -43 -14 0 -85 33 -85 40 0 22 48 25 72 3z m112 -49 c9 -8 16 -22 16
-29 0 -12 -8 -11 -45 3 -41 15 -44 18 -29 29 23 17 39 16 58 -3z m-3679 -29
c228 -59 406 -241 471 -480 7 -27 10 -52 6 -55 -4 -3 -34 -26 -66 -50 -106
-80 -161 -172 -193 -323 -15 -68 -18 -131 -18 -362 0 -154 4 -292 8 -307 6
-22 3 -28 -14 -33 -35 -11 -99 -76 -124 -124 -21 -43 -68 -219 -95 -356 -6
-33 -14 -68 -16 -77 -9 -30 -33 -20 -38 15 -3 17 -10 64 -16 102 -6 39 -23 97
-37 130 -45 107 -66 311 -43 413 19 79 54 136 141 228 111 116 132 156 127
240 -3 51 -10 70 -34 101 l-29 38 23 45 c40 77 16 154 -59 193 -62 33 -148 14
-365 -79 -7 -3 -13 18 -18 57 -11 105 -72 179 -148 179 -62 -1 -173 -76 -214
-146 -51 -87 -26 -198 51 -225 l34 -13 -57 -42 c-68 -50 -123 -101 -180 -169
-32 -38 -42 -45 -42 -30 4 215 31 436 70 562 97 314 329 540 598 583 74 12
201 5 277 -15z m3118 -32 c10 -10 -13 -33 -33 -33 -24 0 -46 26 -28 33 19 8
54 8 61 0z m-218 -22 c-8 -13 -52 -14 -60 -2 -3 5 9 11 27 13 39 4 42 3 33
-11z m107 -1 c-18 -15 -28 -17 -43 -10 -32 17 -22 30 24 30 l42 -1 -23 -19z
m158 -26 c0 -28 -25 -43 -43 -25 -16 16 -58 14 -78 -5 -13 -12 -22 -13 -38 -5
-29 16 -87 13 -101 -4 -11 -13 -14 -13 -26 2 -18 24 -17 33 3 33 9 0 25 7 35
16 16 16 18 16 24 0 7 -18 63 -23 80 -6 6 6 21 6 42 -2 28 -11 35 -10 59 9 33
24 43 21 43 -13z m421 -5 c61 -34 100 -88 107 -145 4 -42 3 -47 -12 -41 -10 4
-28 10 -41 13 -23 6 -23 6 -4 25 25 25 24 54 -1 79 -22 22 -37 24 -74 10 -21
-8 -26 -16 -26 -43 0 -18 5 -38 11 -44 7 -7 -9 -12 -53 -17 -132 -13 -248
-102 -339 -258 l-42 -71 -18 35 c-10 20 -32 47 -49 61 -16 14 -30 28 -30 30 0
12 99 168 137 218 66 84 155 150 229 168 63 16 156 7 205 -20z m-581 -55 c12
-12 6 -14 -48 -14 -64 0 -75 12 -28 30 25 10 55 4 76 -16z m104 17 c7 -11 -52
-26 -62 -16 -8 8 18 25 40 25 9 0 19 -4 22 -9z m510 -47 c9 -8 16 -19 16 -24
0 -13 -30 -40 -44 -40 -17 0 -36 21 -36 40 0 19 19 40 36 40 7 0 20 -7 28 -16z
m-4418 -75 c26 -25 31 -48 12 -67 -9 -9 -14 -5 -22 21 -9 25 -17 33 -39 35
-38 5 -57 -14 -57 -53 0 -40 21 -59 59 -53 27 4 29 3 19 -16 -15 -29 -28 -36
-70 -36 -28 0 -42 7 -62 31 -39 45 -35 92 9 136 33 33 39 35 81 30 28 -3 54
-13 70 -28z m4264 -79 c0 -42 -33 -90 -62 -90 -28 0 -58 31 -58 60 0 24 7 33
38 49 20 11 47 20 60 21 19 0 22 -5 22 -40z m-679 -9 c-18 -33 -79 -43 -101
-16 -20 24 -2 35 56 35 50 0 54 -1 45 -19z m-291 0 c0 -5 -16 -16 -36 -26 -37
-17 -76 -14 -103 8 -12 10 -9 13 15 18 45 10 124 10 124 0z m150 -1 c0 -12
-34 -30 -58 -30 -11 0 -30 9 -43 20 l-24 19 63 1 c34 0 62 -4 62 -10z m-520
-8 c0 -5 -12 -19 -26 -33 -37 -35 -107 -34 -134 1 l-19 25 77 6 c42 3 83 6 90
7 6 1 12 -2 12 -6z m180 -1 c0 -19 -53 -51 -83 -51 -29 0 -77 33 -77 52 0 4
36 8 80 8 44 0 80 -4 80 -9z m-380 -6 c0 -2 -14 -20 -31 -39 -37 -43 -87 -56
-124 -32 -33 21 -34 63 -2 69 31 6 157 8 157 2z m-200 -14 c0 -19 -54 -51 -85
-51 -31 0 -85 32 -85 51 0 5 38 9 85 9 47 0 85 -4 85 -9z m1255 -109 c34 -19
60 -43 81 -77 56 -89 65 -95 139 -95 64 0 66 -1 77 -30 7 -20 19 -32 36 -36
54 -12 54 -12 47 -54 -5 -30 -1 -54 16 -94 20 -49 21 -60 11 -112 -15 -72 -15
-157 -1 -171 7 -7 2 -26 -21 -66 -17 -30 -41 -97 -53 -147 l-23 -92 -13 64
c-15 75 -55 153 -94 182 -38 28 -106 28 -144 0 -41 -30 -81 -91 -108 -165
l-24 -64 -1 50 c-3 245 -67 387 -187 411 -89 18 -149 -29 -219 -169 -25 -51
-43 -80 -40 -66 3 14 9 64 12 111 l7 85 38 -1 c94 -2 164 152 109 241 -14 24
-31 35 -65 44 -41 10 -45 14 -45 41 0 34 75 120 149 171 106 73 227 88 316 39z
m-2048 -37 c24 -7 58 -24 76 -38 32 -25 79 -100 91 -147 7 -24 6 -24 -9 2 -17
30 -62 58 -93 58 -26 0 -69 -35 -87 -70 -8 -16 -15 -48 -15 -71 0 -33 6 -47
34 -75 38 -38 70 -43 115 -19 33 17 61 69 62 117 l0 33 15 -40 c35 -95 80
-310 99 -470 5 -49 4 -51 -40 -97 -26 -27 -48 -48 -51 -48 -2 0 -5 10 -5 23
-1 17 -2 18 -6 4 -3 -10 0 -24 6 -31 8 -10 6 -25 -8 -57 -11 -24 -25 -72 -31
-106 l-13 -63 -58 0 c-32 0 -95 -9 -141 -20 -119 -28 -213 -26 -360 10 -67 17
-130 30 -140 30 -12 0 -18 8 -19 23 -2 22 -2 22 -6 0 -3 -18 -12 -22 -56 -25
-29 -2 -54 -3 -57 -1 -2 2 -8 77 -14 166 -10 186 4 457 29 552 38 145 124 249
260 315 70 34 106 44 225 64 38 6 148 -4 197 -19z m-1399 -48 c36 -33 52 -70
58 -134 l6 -58 -125 -63 c-123 -62 -126 -63 -160 -49 -48 21 -67 52 -67 111 0
64 34 123 97 169 85 61 143 69 191 24z m458 -129 c29 -13 30 -21 7 -44 -61
-61 -142 -45 -143 28 0 20 6 28 23 31 28 6 82 -1 113 -15z m1063 -4 c30 -38
28 -104 -2 -140 -50 -57 -137 -18 -137 62 0 19 4 34 9 34 5 0 13 9 16 20 17
55 80 68 114 24z m-2004 -14 c-21 -23 -55 -27 -55 -6 0 13 18 21 59 25 10 1 9
-4 -4 -19z m785 -5 c0 -36 42 -75 80 -75 34 0 79 20 99 44 7 9 17 13 22 10 12
-7 11 -77 -2 -111 -22 -60 -50 -81 -451 -342 -54 -35 -98 -68 -98 -72 0 -14
12 -11 48 11 30 19 35 19 55 5 12 -8 34 -15 50 -15 24 0 31 7 45 39 15 35 20
39 44 34 34 -7 58 11 58 43 0 21 4 23 24 18 30 -7 56 18 56 57 0 27 2 29 21
19 30 -17 68 -4 75 25 5 19 13 25 34 25 22 0 31 6 38 28 l10 27 16 -37 c20
-46 21 -108 2 -151 -7 -18 -52 -75 -99 -125 -145 -155 -174 -228 -164 -417 3
-60 9 -118 12 -128 4 -10 -19 7 -50 38 -73 70 -178 123 -273 137 -197 31 -411
-82 -504 -267 l-35 -68 4 84 c20 430 30 506 83 625 72 159 224 301 441 410 73
37 337 152 352 153 4 1 7 -10 7 -24z m-884 -20 c-19 -14 -66 -21 -66 -10 0 8
42 24 65 24 20 0 20 0 1 -14z m86 -7 c21 21 25 13 17 -30 -4 -24 -8 -62 -9
-85 0 -32 -4 -43 -19 -48 -11 -3 -23 -15 -26 -26 -5 -13 -15 -19 -38 -19 -38
0 -50 -7 -66 -38 -8 -16 -18 -21 -30 -17 -24 7 -69 -13 -76 -35 -4 -13 -16
-17 -51 -16 -38 1 -50 -4 -69 -26 -27 -31 -51 -35 -80 -14 -26 18 -26 79 -1
134 15 33 24 42 44 42 27 0 62 25 62 45 0 7 9 10 24 8 32 -7 64 12 72 42 5 20
11 24 29 19 21 -5 55 16 55 35 0 4 13 6 28 3 18 -2 37 4 52 16 19 16 29 18 47
9 17 -8 27 -7 35 1z m-179 -28 c-3 -13 -14 -20 -29 -20 -28 0 -33 26 -6 33 34
9 40 7 35 -13z m3741 -11 c31 -37 33 -77 7 -135 -16 -36 -62 -84 -80 -84 -4 0
-15 6 -24 13 -14 11 -15 24 -4 125 l11 112 32 0 c24 0 39 -8 58 -31z m-3818
-15 c-3 -9 -6 -22 -6 -29 0 -19 -34 -37 -54 -29 -25 10 -19 30 17 53 39 25 51
26 43 5z m-110 -89 c-9 -14 -23 -25 -31 -25 -22 0 -19 10 12 42 31 33 43 21
19 -17z m364 -49 c0 -8 -4 -18 -10 -21 -5 -3 -10 3 -10 14 0 12 5 21 10 21 6
0 10 -6 10 -14z m990 -20 c0 -20 -28 -39 -46 -32 -15 6 -14 9 6 31 23 25 40
25 40 1z m-1046 -14 c6 -10 -64 -46 -72 -37 -3 2 3 14 13 25 19 20 50 27 59
12z m972 -46 c-6 -25 -37 -42 -56 -31 -17 11 -11 22 22 43 38 24 43 22 34 -12z
m2818 -6 c45 -27 83 -104 96 -195 24 -170 24 -929 -1 -805 -6 31 -7 32 -8 8
-1 -23 -6 -28 -26 -28 -17 0 -25 6 -26 18 0 13 -2 12 -9 -5 -6 -16 -18 -23
-35 -23 -20 0 -25 5 -25 26 0 14 -4 23 -9 20 -4 -3 -6 -17 -3 -31 4 -21 1 -25
-21 -25 -15 0 -32 9 -41 22 -13 18 -16 19 -16 6 0 -9 5 -20 12 -24 8 -5 -2
-14 -27 -25 -39 -18 -40 -18 -53 4 -13 21 -13 21 -7 -5 3 -16 1 -28 -5 -28 -5
0 -10 2 -10 5 0 15 -53 382 -67 465 -8 52 -24 113 -34 134 -24 51 -24 83 2
187 38 151 119 292 184 320 30 13 90 4 129 -21z m-3894 -8 c0 -9 -62 -34 -68
-27 -3 2 1 11 8 20 13 15 60 21 60 7z m980 -41 c0 -20 -24 -51 -39 -51 -15 0
-37 33 -25 37 6 2 20 10 30 18 26 20 34 18 34 -4z m3746 -7 c43 -20 81 -83
106 -173 20 -72 53 -253 62 -343 l6 -58 -30 6 c-73 15 -83 3 -258 -295 -103
-176 -92 -177 -113 14 -6 55 -22 159 -35 230 -28 151 -30 215 -9 305 33 139
157 330 214 330 13 0 38 -7 57 -16z m-4846 -3 c0 -5 -18 -13 -40 -19 -41 -10
-54 -1 -22 17 21 13 62 14 62 2z m5254 -7 c16 -15 22 -78 10 -108 -15 -40 -74
-1 -74 48 0 32 23 76 40 76 5 0 16 -7 24 -16z m-4234 -43 c0 -39 -23 -57 -55
-43 -33 15 -31 23 8 49 42 29 47 28 47 -6z m-90 -46 c0 -29 -30 -75 -48 -75
-10 0 -27 7 -38 15 -16 13 -17 16 -4 25 8 5 29 18 45 29 37 24 45 25 45 6z
m3503 -68 c24 -24 39 -55 55 -108 25 -88 82 -378 111 -574 12 -77 23 -151 25
-165 3 -16 -9 -47 -30 -85 -55 -97 -50 -93 -78 -66 -21 19 -23 27 -15 48 5 14
7 28 4 31 -3 4 -8 -4 -12 -16 -7 -28 -16 -28 -53 0 -23 17 -27 25 -20 39 6 10
10 24 9 31 0 7 -5 3 -11 -9 -12 -26 -21 -28 -48 -13 -16 9 -18 15 -9 37 5 14
7 28 5 31 -3 3 -10 -7 -15 -22 -12 -31 -13 -31 -52 -10 -27 13 -30 19 -25 47
6 31 6 31 -6 7 -7 -14 -13 -26 -14 -28 -1 -2 -13 0 -28 4 -21 5 -26 12 -27 38
l-1 31 -11 -27 c-7 -17 -18 -28 -30 -28 -18 0 -19 5 -14 83 4 45 9 168 12 272
4 105 11 213 17 240 16 76 61 167 102 208 31 32 43 37 81 37 37 0 50 -6 78
-33z m-1693 -62 c114 -43 192 -50 358 -31 168 20 294 20 358 1 104 -31 184
-106 223 -211 11 -28 32 -132 46 -230 15 -98 32 -214 39 -257 10 -65 10 -77
-1 -73 -10 4 -11 1 -3 -14 8 -15 5 -22 -20 -40 -25 -18 -34 -19 -45 -10 -10 8
-15 9 -15 2 0 -6 5 -14 11 -17 7 -5 4 -14 -7 -26 -13 -14 -20 -16 -31 -8 -8 8
-13 8 -13 1 0 -6 5 -12 12 -14 8 -3 6 -13 -8 -31 -11 -16 -25 -24 -34 -21 -39
15 -43 15 -23 -3 l23 -18 -25 -62 c-14 -34 -30 -88 -36 -120 -6 -32 -12 -59
-13 -60 -1 -2 -67 45 -147 102 -79 58 -149 104 -156 103 -6 -2 -77 -65 -156
-140 -80 -76 -149 -138 -155 -138 -5 0 -24 8 -43 18 -27 13 -60 17 -161 17
l-127 0 -6 60 c-3 33 -17 186 -31 340 -28 316 -43 393 -84 459 -25 39 -91 98
-121 108 -12 4 27 160 52 209 37 73 86 117 159 140 36 11 83 2 180 -36z m-985
-341 c140 -38 231 -41 350 -14 173 40 243 31 312 -42 60 -62 75 -120 98 -367
12 -141 13 -176 3 -183 -50 -32 -165 -17 -373 47 -277 86 -377 103 -489 85
-120 -19 -176 -61 -176 -132 0 -56 47 -103 148 -150 175 -81 411 -120 599
-100 98 11 205 33 290 60 l31 10 7 -74 c4 -41 5 -78 2 -81 -4 -3 -140 -9 -304
-14 -463 -13 -645 -31 -731 -71 -48 -23 -97 -81 -107 -129 -9 -41 30 -117 75
-147 l36 -23 -23 -87 c-12 -48 -22 -101 -22 -119 -2 -63 -14 -68 -28 -12 -15
61 -76 195 -101 222 -12 14 -17 45 -20 135 -3 98 0 136 22 235 35 159 35 238
-1 307 -22 42 -39 58 -78 79 -27 14 -51 26 -53 27 -5 2 68 300 88 363 66 199
182 245 445 175z m-992 -19 c89 -23 156 -62 222 -129 72 -72 108 -144 129
-253 28 -151 29 -149 -9 -174 -59 -41 -151 -206 -171 -309 -4 -16 -9 -30 -13
-30 -3 0 -19 14 -35 30 -55 56 -128 48 -190 -21 -20 -21 -36 -44 -36 -50 0 -6
-18 5 -39 24 -77 70 -173 72 -242 7 -22 -21 -42 -33 -44 -27 -1 7 -10 59 -20
117 -9 58 -23 126 -31 152 -16 48 -62 98 -91 98 -13 0 -14 9 -9 58 12 95 44
219 72 274 35 69 127 158 199 193 108 53 208 66 308 40z m-651 -436 c21 -11
48 -66 48 -97 0 -14 -15 -23 -56 -36 -55 -17 -57 -17 -76 1 -10 11 -21 35 -25
55 -10 62 53 107 109 77z m1708 -46 c0 -5 -17 -30 -38 -58 -45 -59 -76 -68
-110 -32 -13 13 -25 41 -29 61 l-6 36 92 0 c50 0 91 -3 91 -7z m-195 -40 c9
-47 54 -93 92 -93 35 0 59 21 99 84 29 47 29 47 72 41 38 -6 313 -88 332 -100
4 -2 13 -25 20 -50 13 -46 49 -85 79 -85 26 0 78 36 96 68 12 20 32 33 65 43
l48 15 6 -29 c3 -16 6 -48 6 -71 l0 -42 -56 -18 c-87 -27 -154 -43 -216 -51
l-57 -6 -20 40 c-39 75 -84 75 -117 1 -23 -51 -55 -55 -74 -10 -37 90 -95 107
-150 44 -37 -42 -41 -42 -168 6 -183 70 -234 164 -124 228 51 29 59 28 67 -15z
m-345 -52 c72 -52 89 -167 49 -341 -15 -67 -22 -131 -23 -217 0 -68 -2 -123
-4 -123 -1 0 -15 8 -29 17 -38 25 -126 22 -179 -5 -23 -12 -64 -47 -92 -78
l-50 -56 -11 54 c-37 190 -18 373 60 568 70 177 183 250 279 181z m-1050 -39
c19 -20 32 -48 44 -99 20 -91 51 -303 65 -453 7 -63 14 -137 17 -165 l5 -50
-26 45 c-15 25 -38 58 -53 74 -63 68 -172 86 -248 41 -41 -24 -43 -24 -49 -6
-3 11 -20 33 -36 49 l-31 30 4 159 c5 172 17 222 75 306 64 92 176 126 233 69z
m2095 3 c22 -3 50 -8 63 -11 l23 -5 -21 -29 c-46 -65 -94 -61 -130 9 -25 51
-25 54 3 48 12 -3 40 -8 62 -12z m-390 -111 c13 -5 55 -72 55 -87 0 -6 -124
14 -139 23 -12 6 -8 14 16 39 33 32 41 35 68 25z m225 -46 c11 -18 20 -36 20
-40 0 -5 -25 -8 -55 -8 -55 0 -55 0 -44 23 15 29 40 57 51 57 4 0 17 -15 28
-32z m-1302 -104 c41 -29 46 -51 47 -234 1 -133 5 -189 18 -234 17 -57 17 -62
-2 -120 -11 -34 -23 -74 -27 -91 -7 -29 -7 -29 -15 15 -17 107 -94 237 -149
255 -18 6 -20 16 -20 100 0 70 -6 112 -22 160 l-21 66 30 37 c50 61 113 80
161 46z m-305 -28 c80 -34 128 -126 135 -262 l5 -92 -69 5 c-54 3 -77 0 -104
-14 -48 -25 -94 -90 -116 -163 -16 -53 -20 -59 -25 -39 -4 13 -7 65 -8 114 0
50 -6 147 -12 216 -13 144 -10 165 28 204 47 47 104 57 166 31z m2323 -71 c60
-30 84 -67 84 -132 0 -73 -41 -132 -117 -169 -54 -27 -66 -29 -178 -29 -66 0
-190 8 -275 19 -181 21 -421 18 -610 -10 -63 -9 -143 -14 -178 -11 -142 11
-214 125 -143 226 60 84 223 108 781 117 179 3 327 7 329 10 2 2 61 4 131 4
114 0 131 -2 176 -25z m-816 -325 c0 -28 -73 -39 -103 -16 -18 14 -18 14 0 19
34 9 103 7 103 -3z m134 -5 c-8 -21 -51 -30 -80 -16 -40 18 -27 31 31 31 44 0
53 -3 49 -15z m99 9 c44 -8 47 -16 11 -33 -32 -14 -60 -7 -74 20 -12 22 -3 23
63 13z m-373 -10 c0 -19 -24 -44 -43 -44 -29 0 -54 37 -29 43 26 7 72 8 72 1z
m489 0 c25 -5 29 -9 20 -20 -10 -12 -59 -20 -59 -10 0 2 -3 11 -6 20 -7 18 -1
19 45 10z m-599 -10 c0 -3 -5 -14 -10 -25 -12 -21 -40 -25 -58 -7 -23 23 -15
28 56 37 6 0 12 -2 12 -5z m769 -20 c2 -2 -9 -8 -25 -15 -22 -8 -34 -8 -53 3
-46 25 -36 36 21 26 29 -5 55 -11 57 -14z"/>
<path d="M2818 6244 c-15 -8 -35 -28 -43 -44 -54 -104 63 -214 159 -151 124
82 14 266 -116 195z m120 -38 c72 -70 -21 -191 -107 -140 -52 31 -65 84 -30
128 40 51 93 55 137 12z"/>
<path d="M2827 6183 c-11 -11 -8 -58 5 -71 19 -19 66 -15 78 7 14 27 13 37 -6
55 -15 16 -65 22 -77 9z"/>
<path d="M1723 6191 c-40 -25 -56 -54 -56 -102 0 -41 26 -82 61 -98 13 -6 48
-11 78 -11 49 0 59 4 86 30 27 27 30 36 25 71 -13 100 -116 159 -194 110z
m133 -45 c40 -40 46 -92 15 -120 -24 -22 -101 -25 -136 -6 -51 27 -53 109 -3
144 39 27 85 21 124 -18z"/>
<path d="M1798 6129 c-36 -21 -16 -79 27 -79 44 0 58 37 25 70 -23 23 -28 24
-52 9z"/>
<path d="M3726 6125 c-88 -31 -140 -113 -134 -210 7 -115 80 -185 192 -185 67
0 93 9 141 52 107 94 99 275 -15 335 -50 27 -123 30 -184 8z m163 -33 c50 -25
74 -63 79 -126 13 -160 -153 -267 -281 -182 -38 25 -77 97 -77 143 0 67 50
140 115 169 43 19 124 17 164 -4z"/>
<path d="M3802 5988 c-31 -31 0 -85 33 -58 20 16 19 56 -1 64 -20 8 -18 8 -32
-6z"/>
<path d="M4405 6121 c-84 -12 -131 -45 -160 -114 -29 -70 -12 -143 46 -197 86
-78 264 -52 322 48 24 41 34 150 18 189 -25 60 -114 89 -226 74z m109 -30 c36
-6 57 -16 74 -37 22 -25 24 -34 19 -97 -5 -79 -24 -113 -79 -140 -132 -65
-268 1 -268 130 0 44 5 56 38 93 49 56 106 69 216 51z"/>
<path d="M4424 5986 c-11 -28 1 -51 25 -51 32 0 49 28 32 49 -17 20 -50 21
-57 2z"/>
<path d="M4170 6016 c0 -8 4 -17 9 -20 5 -4 7 3 4 14 -6 23 -13 26 -13 6z"/>
<path d="M4701 5974 c0 -11 3 -14 6 -6 3 7 2 16 -1 19 -3 4 -6 -2 -5 -13z"/>
<path d="M4083 5765 c0 -22 2 -30 4 -17 2 12 2 30 0 40 -3 9 -5 -1 -4 -23z"/>
<path d="M4142 5750 c0 -19 2 -27 5 -17 2 9 2 25 0 35 -3 9 -5 1 -5 -18z"/>
<path d="M3890 5705 c0 -11 5 -27 10 -35 8 -12 10 -12 10 5 0 11 -5 27 -10 35
-8 12 -10 12 -10 -5z"/>
<path d="M4292 5680 c0 -14 2 -19 5 -12 2 6 2 18 0 25 -3 6 -5 1 -5 -13z"/>
<path d="M3652 5670 c0 -14 2 -19 5 -12 2 6 2 18 0 25 -3 6 -5 1 -5 -13z"/>
<path d="M5408 6234 c-35 -18 -44 -55 -26 -102 29 -79 146 -93 184 -21 45 88
-65 174 -158 123z m105 -55 c37 -51 -6 -93 -64 -63 -33 17 -47 57 -28 80 19
23 69 14 92 -17z"/>
<path d="M5450 6170 c0 -11 6 -20 13 -20 19 0 27 10 20 26 -8 21 -33 17 -33
-6z"/>
<path d="M5067 6129 c-22 -13 -47 -61 -47 -91 0 -70 77 -93 124 -37 39 46 32
100 -15 124 -33 17 -38 18 -62 4z m65 -44 c15 -33 -3 -75 -32 -75 -32 0 -47
43 -26 75 21 32 43 32 58 0z"/>
<path d="M5080 6065 c0 -10 7 -15 18 -13 21 4 19 22 -2 26 -10 2 -16 -3 -16
-13z"/>
<path d="M5280 6050 c0 -4 13 -11 30 -15 16 -4 38 -17 49 -31 23 -29 35 -31
26 -4 -5 16 -2 20 17 21 13 1 -2 7 -33 13 -30 7 -63 15 -72 19 -9 3 -17 2 -17
-3z"/>
<path d="M2190 5652 c-66 -66 -64 -140 7 -202 27 -24 43 -30 81 -30 109 0 172
99 125 197 -22 48 -66 73 -127 73 -43 0 -53 -4 -86 -38z m173 -22 c39 -44 38
-107 -2 -152 -26 -29 -36 -33 -79 -33 -57 0 -86 20 -109 73 -12 29 -11 36 11
80 29 57 56 73 111 67 29 -3 48 -12 68 -35z"/>
<path d="M2245 5618 c-23 -13 -35 -28 -35 -46 0 -19 46 -62 68 -62 50 0 72 61
37 100 -20 22 -41 25 -70 8z"/>
<path d="M1404 5556 c-43 -19 -64 -53 -64 -101 0 -76 61 -135 138 -135 78 0
158 81 148 149 -7 46 -30 69 -89 86 -62 18 -92 18 -133 1z m138 -26 c21 -6 42
-19 48 -30 44 -82 -52 -176 -153 -149 -41 11 -77 56 -77 97 0 28 25 78 42 85
23 9 102 7 140 -3z"/>
<path d="M1465 5500 c-24 -27 -13 -68 22 -76 34 -9 57 6 61 42 6 49 -49 72
-83 34z"/>
<path d="M1905 5509 c18 -79 22 -135 12 -154 -10 -19 -10 -19 -17 0 -5 13 -9
15 -14 6 -6 -9 -11 -9 -22 0 -8 6 -21 8 -31 4 -10 -5 -22 -7 -27 -6 -5 1 -12
-2 -15 -8 -4 -6 -15 28 -25 75 -11 46 -23 87 -29 91 -6 4 -8 -3 -4 -18 3 -13
15 -69 27 -123 16 -71 29 -106 46 -123 39 -38 91 -27 119 27 27 53 15 236 -17
256 -8 5 -9 -3 -3 -27z"/>
<path d="M1333 5185 c0 -27 2 -38 4 -22 2 15 2 37 0 50 -2 12 -4 0 -4 -28z"/>
<path d="M1242 5005 c0 -16 2 -22 5 -12 2 9 2 23 0 30 -3 6 -5 -1 -5 -18z"/>
<path d="M1221 4685 c0 -11 4 -29 9 -40 l9 -20 0 20 c0 11 -4 29 -9 40 l-9 20
0 -20z"/>
<path d="M1312 4660 c0 -8 4 -26 8 -40 6 -20 8 -21 8 -5 0 11 -3 29 -8 40 -5
12 -8 14 -8 5z"/>
<path d="M1410 4650 c0 -8 5 -22 10 -30 9 -13 10 -13 10 0 0 8 -5 22 -10 30
-9 13 -10 13 -10 0z"/>
<path d="M1521 4624 c0 -11 3 -14 6 -6 3 7 2 16 -1 19 -3 4 -6 -2 -5 -13z"/>
<path d="M1862 4420 c0 -19 2 -27 5 -17 2 9 2 25 0 35 -3 9 -5 1 -5 -18z"/>
<path d="M1946 4365 c3 -22 10 -47 15 -55 11 -18 0 46 -13 75 -5 13 -6 7 -2
-20z"/>
<path d="M2792 5748 c-13 -13 -16 -60 -6 -71 13 -12 44 14 44 37 0 31 -22 50
-38 34z"/>
<path d="M2997 5753 c-13 -12 -7 -50 9 -64 19 -16 34 2 34 44 0 20 -5 27 -18
27 -10 0 -22 -3 -25 -7z"/>
<path d="M2860 5530 c-18 -6 -4 -8 48 -9 42 -1 72 3 72 9 0 12 -84 12 -120 0z"/>
<path d="M3366 5785 c-5 -14 17 -45 33 -45 16 0 31 28 25 44 -8 20 -50 21 -58
1z"/>
<path d="M3214 5755 c-10 -25 4 -47 28 -43 28 4 33 21 13 42 -20 20 -34 20
-41 1z"/>
<path d="M3342 5603 c-35 -8 -61 -17 -58 -20 8 -9 156 19 156 28 0 12 -22 10
-98 -8z"/>
<path d="M4610 5617 c-32 -16 -54 -61 -45 -94 3 -14 19 -38 35 -54 23 -23 37
-29 74 -29 54 0 76 24 76 85 -1 78 -73 126 -140 92z m99 -43 c55 -71 -17 -151
-86 -96 -36 28 -43 62 -20 94 28 38 77 39 106 2z"/>
<path d="M4657 5563 c-12 -12 -7 -41 7 -46 19 -7 40 18 32 38 -6 15 -28 20
-39 8z"/>
<path d="M5095 5574 c-78 -41 -97 -94 -48 -140 33 -31 65 -39 105 -28 84 24
95 146 15 174 -38 13 -36 13 -72 -6z m93 -42 c51 -65 -63 -139 -125 -80 -29
27 -29 39 0 66 45 42 98 48 125 14z"/>
<path d="M5108 5518 c-8 -21 2 -38 24 -38 14 0 19 6 16 22 -3 25 -33 36 -40
16z"/>
<path d="M3494 5369 c-18 -5 -46 -26 -64 -46 -30 -33 -32 -41 -28 -90 10 -114
121 -164 226 -101 40 25 62 65 62 115 -1 100 -87 154 -196 122z m125 -35 c13
-9 30 -32 38 -51 48 -115 -128 -206 -207 -106 -24 31 -26 90 -4 122 33 47 128
66 173 35z"/>
<path d="M3547 5214 c-14 -15 -6 -34 14 -34 14 0 19 5 17 17 -3 18 -20 27 -31
17z"/>
<path d="M3847 5293 c-16 -15 -7 -101 14 -127 24 -30 71 -35 106 -11 25 17 44
74 36 105 -9 33 -23 23 -23 -18 0 -53 -23 -82 -65 -82 -29 0 -37 5 -51 32 -10
20 -14 45 -11 70 5 40 5 42 -6 31z"/>
<path d="M4042 5045 c0 -16 2 -22 5 -12 2 9 2 23 0 30 -3 6 -5 -1 -5 -18z"/>
<path d="M3223 5015 c0 -22 2 -30 4 -17 2 12 2 30 0 40 -3 9 -5 -1 -4 -23z"/>
<path d="M3807 5037 c-11 -29 -9 -43 4 -30 6 6 9 19 7 29 -3 18 -4 18 -11 1z"/>
<path d="M4371 5035 c0 -11 4 -27 9 -35 9 -13 10 -13 9 0 0 8 -4 24 -9 35 l-9
20 0 -20z"/>
<path d="M3392 5015 c0 -16 2 -22 5 -12 2 9 2 23 0 30 -3 6 -5 -1 -5 -18z"/>
<path d="M3482 5000 c0 -19 2 -27 5 -17 2 9 2 25 0 35 -3 9 -5 1 -5 -18z"/>
<path d="M3912 5000 c0 -14 2 -19 5 -12 2 6 2 18 0 25 -3 6 -5 1 -5 -13z"/>
<path d="M3211 4858 c0 -9 -4 -25 -7 -35 -5 -14 -4 -15 5 -7 7 7 11 22 8 35
-2 13 -5 16 -6 7z"/>
<path d="M3632 4680 c0 -19 2 -27 5 -17 2 9 2 25 0 35 -3 9 -5 1 -5 -18z"/>
<path d="M905 5368 c-25 -29 -27 -38 -23 -104 4 -81 25 -122 72 -139 22 -8 31
-5 53 18 23 23 28 37 31 97 5 84 -1 113 -30 140 -33 30 -71 26 -103 -12z m95
-8 c39 -39 21 -196 -23 -213 -40 -15 -77 53 -77 141 0 32 6 49 25 67 29 30 49
31 75 5z"/>
<path d="M954 5306 c-11 -28 1 -81 18 -84 26 -5 42 36 29 71 -11 29 -38 36
-47 13z"/>
<path d="M1014 4989 c-27 -27 -41 -32 -98 -36 -73 -6 -92 -20 -82 -59 10 -37
47 -70 94 -85 35 -10 48 -9 87 5 59 23 89 65 89 127 0 82 -37 101 -90 48z m70
-12 c7 -29 -8 -84 -29 -107 -43 -47 -121 -49 -169 -5 -37 34 -35 65 4 65 23 0
30 -4 30 -20 0 -15 7 -20 24 -20 14 0 28 5 31 10 3 6 19 10 35 10 32 0 42 17
33 60 -5 25 -2 30 15 30 12 0 22 -9 26 -23z m-54 -37 c0 -11 -6 -20 -14 -20
-21 0 -31 21 -15 31 22 14 29 11 29 -11z m-67 -25 c-6 -17 -25 -15 -31 3 -2 7
5 12 17 12 14 0 19 -5 14 -15z"/>
<path d="M523 5329 c-44 -28 -73 -92 -73 -162 0 -72 17 -114 64 -155 43 -37
77 -41 123 -12 60 36 80 106 63 213 -10 59 -18 77 -45 104 -39 39 -83 43 -132
12z m108 -11 c29 -25 38 -45 49 -111 22 -142 -51 -243 -139 -191 -89 52 -97
229 -13 294 28 23 81 26 103 8z"/>
<path d="M579 5233 c-30 -7 -40 -91 -14 -113 39 -32 78 34 56 93 -11 27 -13
28 -42 20z"/>
<path d="M520 4887 c-34 -17 -48 -30 -56 -57 -13 -38 -6 -69 19 -84 19 -12
172 10 205 30 46 29 18 97 -51 123 -41 16 -66 13 -117 -12z m106 -26 c-1 -3
-6 -14 -10 -25 -5 -15 -9 -16 -21 -6 -8 7 -15 20 -15 30 0 13 6 16 25 12 14
-2 23 -7 21 -11z m-56 -5 c0 -24 -26 -38 -40 -22 -6 9 -9 20 -5 26 9 15 45 12
45 -4z m115 -27 c4 -12 3 -25 -2 -29 -12 -12 -172 -42 -189 -36 -17 6 -18 39
-3 67 10 19 11 19 29 -3 16 -20 22 -21 39 -11 13 8 22 9 26 3 12 -20 36 -9 46
20 9 25 14 28 29 20 10 -6 22 -19 25 -31z"/>
<path d="M4187 5193 c-14 -13 -7 -33 11 -33 24 0 32 8 25 26 -5 15 -25 19 -36
7z"/>
<path d="M2583 5110 c-80 -16 -123 -64 -123 -136 0 -80 70 -138 166 -137 102
1 174 64 174 154 0 101 -82 145 -217 119z m120 -21 c42 -11 77 -56 77 -100 0
-37 -39 -91 -80 -111 -44 -23 -123 -23 -160 -2 -15 9 -35 29 -44 44 -17 29
-21 87 -8 106 14 23 120 68 167 73 6 0 27 -4 48 -10z"/>
<path d="M2570 5020 c-29 -55 30 -105 73 -62 17 18 19 26 11 49 -13 37 -67 45
-84 13z"/>
<path d="M2417 4423 c8 -50 13 -55 13 -10 0 20 -4 38 -9 42 -6 3 -7 -10 -4
-32z"/>
<path d="M2730 4406 c0 -8 4 -17 9 -20 5 -4 7 3 4 14 -6 23 -13 26 -13 6z"/>
<path d="M2872 4385 c0 -16 2 -22 5 -12 2 9 2 23 0 30 -3 6 -5 -1 -5 -18z"/>
<path d="M2162 4380 c0 -14 2 -19 5 -12 2 6 2 18 0 25 -3 6 -5 1 -5 -13z"/>
<path d="M2208 4370 c2 -16 6 -30 8 -30 2 0 4 14 4 30 0 17 -4 30 -8 30 -5 0
-7 -13 -4 -30z"/>
<path d="M2352 4370 c0 -19 2 -27 5 -17 2 9 2 25 0 35 -3 9 -5 1 -5 -18z"/>
<path d="M2580 4337 c0 -14 5 -29 10 -32 7 -4 8 3 4 22 -9 38 -14 42 -14 10z"/>
<path d="M2241 4314 c0 -11 3 -14 6 -6 3 7 2 16 -1 19 -3 4 -6 -2 -5 -13z"/>
<path d="M2251 4274 c0 -11 3 -14 6 -6 3 7 2 16 -1 19 -3 4 -6 -2 -5 -13z"/>
<path d="M2392 4270 c0 -14 2 -19 5 -12 2 6 2 18 0 25 -3 6 -5 1 -5 -13z"/>
<path d="M2492 4225 c0 -16 2 -22 5 -12 2 9 2 23 0 30 -3 6 -5 -1 -5 -18z"/>
<path d="M2663 4185 c0 -33 2 -45 4 -27 2 18 2 45 0 60 -2 15 -4 0 -4 -33z"/>
<path d="M2750 4212 c0 -18 5 -32 10 -32 6 0 8 11 4 28 -10 39 -14 40 -14 4z"/>
<path d="M2642 4015 c0 -16 2 -22 5 -12 2 9 2 23 0 30 -3 6 -5 -1 -5 -18z"/>
<path d="M5131 4834 c0 -11 3 -14 6 -6 3 7 2 16 -1 19 -3 4 -6 -2 -5 -13z"/>
<path d="M4763 4775 c0 -27 2 -38 4 -22 2 15 2 37 0 50 -2 12 -4 0 -4 -28z"/>
<path d="M4652 4750 c0 -19 2 -27 5 -17 2 9 2 25 0 35 -3 9 -5 1 -5 -18z"/>
<path d="M5141 4764 c0 -11 3 -14 6 -6 3 7 2 16 -1 19 -3 4 -6 -2 -5 -13z"/>
<path d="M4971 4750 c0 -8 4 -24 9 -35 5 -13 9 -14 9 -5 0 8 -4 24 -9 35 -5
13 -9 14 -9 5z"/>
<path d="M5072 4715 c0 -16 2 -22 5 -12 2 9 2 23 0 30 -3 6 -5 -1 -5 -18z"/>
<path d="M5218 4650 c2 -16 6 -30 8 -30 2 0 4 14 4 30 0 17 -4 30 -8 30 -5 0
-7 -13 -4 -30z"/>
<path d="M4702 4645 c0 -16 2 -22 5 -12 2 9 2 23 0 30 -3 6 -5 -1 -5 -18z"/>
<path d="M4710 4546 c0 -22 3 -27 11 -19 8 8 8 16 0 30 -9 16 -10 14 -11 -11z"/>
<path d="M4871 4534 c0 -11 3 -14 6 -6 3 7 2 16 -1 19 -3 4 -6 -2 -5 -13z"/>
<path d="M5177 4425 c3 -33 7 -62 9 -64 8 -9 2 85 -6 104 -5 12 -6 -4 -3 -40z"/>
<path d="M3890 4813 c-31 -11 -70 -58 -76 -91 -15 -77 44 -166 111 -166 111 0
147 196 45 249 -30 15 -53 18 -80 8z m87 -45 c42 -47 42 -115 -2 -162 -54 -59
-125 -17 -133 78 -4 48 -1 57 21 80 34 34 85 35 114 4z"/>
<path d="M3920 4725 c-6 -8 -9 -23 -5 -35 10 -31 59 -24 63 9 6 37 -34 55 -58
26z"/>
<path d="M4241 4751 c-48 -45 -41 -124 15 -176 36 -33 92 -34 121 -2 40 43 55
145 27 185 -13 18 -25 22 -74 22 -50 0 -62 -4 -89 -29z m138 0 c20 -13 10
-124 -14 -151 -18 -20 -60 -26 -81 -12 -47 33 -58 109 -19 147 25 26 85 34
114 16z"/>
<path d="M4300 4715 c-26 -32 13 -81 48 -59 24 16 27 45 6 61 -23 17 -39 16
-54 -2z"/>
<path d="M4060 4501 c-33 -63 32 -149 86 -113 29 19 49 112 24 112 -5 0 -10
-14 -10 -31 0 -43 -17 -69 -45 -69 -32 0 -49 33 -41 81 7 43 2 49 -14 20z"/>
<path d="M3781 4360 c0 -8 4 -24 9 -35 5 -13 9 -14 9 -5 0 8 -4 24 -9 35 -5
13 -9 14 -9 5z"/>
<path d="M4390 4316 c0 -8 4 -17 9 -20 5 -4 7 3 4 14 -6 23 -13 26 -13 6z"/>
<path d="M4078 4243 c29 -2 74 -2 100 0 26 2 2 3 -53 3 -55 0 -76 -1 -47 -3z"/>
<path d="M4241 4205 c1 -19 18 -51 18 -35 0 8 -4 22 -9 30 -5 8 -9 11 -9 5z"/>
<path d="M3962 4065 c0 -16 2 -22 5 -12 2 9 2 23 0 30 -3 6 -5 -1 -5 -18z"/>
<path d="M3260 4589 c-35 -15 -59 -39 -81 -81 -72 -142 80 -339 230 -298 61
16 99 70 120 169 21 98 -7 153 -97 193 -52 23 -137 32 -172 17z m179 -49 c61
-31 75 -58 67 -131 -8 -82 -37 -144 -75 -163 -129 -67 -291 97 -236 240 25 66
62 87 142 80 34 -3 80 -14 102 -26z"/>
<path d="M3313 4500 c-28 -11 -43 -40 -43 -83 0 -46 50 -92 89 -82 42 11 61
34 61 76 0 62 -56 109 -107 89z"/>
<path d="M3716 4150 c3 -14 10 -32 15 -40 7 -13 8 -13 8 0 0 8 -6 26 -15 40
l-15 25 7 -25z"/>
<path d="M2972 4120 c0 -14 2 -19 5 -12 2 6 2 18 0 25 -3 6 -5 1 -5 -13z"/>
<path d="M3485 4120 c-3 -5 -1 -10 4 -10 6 0 11 5 11 10 0 6 -2 10 -4 10 -3 0
-8 -4 -11 -10z"/>
<path d="M3042 4090 c0 -14 2 -19 5 -12 2 6 2 18 0 25 -3 6 -5 1 -5 -13z"/>
<path d="M3636 4067 c3 -10 9 -15 12 -12 3 3 0 11 -7 18 -10 9 -11 8 -5 -6z"/>
<path d="M3332 4030 c0 -14 2 -19 5 -12 2 6 2 18 0 25 -3 6 -5 1 -5 -13z"/>
<path d="M2767 3723 c-4 -3 -7 -20 -6 -37 l1 -31 8 35 c9 36 8 45 -3 33z"/>
<path d="M2822 3630 c0 -19 2 -27 5 -17 2 9 2 25 0 35 -3 9 -5 1 -5 -18z"/>
<path d="M1572 4387 c-30 -32 -29 -81 3 -112 72 -73 178 28 114 109 -27 35
-86 36 -117 3z m106 -9 c21 -21 15 -75 -10 -92 -30 -21 -54 -20 -78 4 -24 24
-26 57 -3 82 18 20 73 24 91 6z"/>
<path d="M1614 4355 c-4 -9 -2 -21 4 -27 15 -15 44 -1 40 19 -4 23 -36 29 -44
8z"/>
<path d="M1298 4365 c-33 -18 -52 -72 -39 -108 23 -59 99 -76 145 -31 70 71
-18 188 -106 139z m87 -30 c30 -29 32 -68 4 -96 -46 -46 -133 5 -112 67 9 28
43 54 71 54 7 0 24 -11 37 -25z"/>
<path d="M1340 4301 c0 -24 25 -34 40 -16 15 18 5 35 -21 35 -12 0 -19 -7 -19
-19z"/>
<path d="M1516 4270 c7 -27 7 -28 5 -47 -2 -20 -31 -15 -31 5 0 10 -7 27 -16
38 -15 18 -15 17 -9 -16 7 -44 26 -64 54 -55 26 8 29 52 5 81 -14 18 -15 18
-8 -6z"/>
<path d="M1025 4215 c-51 -50 -21 -145 45 -145 75 0 111 135 43 161 -39 15
-62 11 -88 -16z m86 -5 c26 -14 25 -60 -2 -94 -26 -33 -58 -31 -78 5 -32 58
23 119 80 89z"/>
<path d="M1060 4170 c0 -11 6 -20 13 -20 19 0 27 10 20 26 -8 21 -33 17 -33
-6z"/>
<path d="M799 4187 c-64 -49 -32 -157 47 -157 46 0 63 9 79 41 22 42 18 67
-14 100 -32 31 -82 39 -112 16z m101 -27 c41 -41 10 -110 -47 -110 -34 0 -46
8 -62 37 -14 27 -5 70 18 83 27 16 70 11 91 -10z"/>
<path d="M844 4145 c-7 -18 3 -35 21 -35 21 0 28 19 15 35 -16 19 -29 19 -36
0z"/>
<path d="M2330 4073 c-65 -21 -96 -69 -85 -132 8 -48 59 -100 106 -107 80 -13
155 54 144 130 -8 52 -21 74 -58 96 -30 19 -74 24 -107 13z m118 -48 c15 -19
22 -39 22 -70 0 -58 -41 -95 -105 -95 -36 0 -48 5 -69 31 -25 29 -31 50 -26
94 7 70 128 97 178 40z"/>
<path d="M2342 3988 c-25 -25 -7 -68 29 -68 25 0 42 26 35 55 -7 27 -42 35
-64 13z"/>
<path d="M1695 4046 c-42 -18 -65 -57 -65 -107 0 -33 6 -47 34 -75 28 -28 42
-34 75 -34 53 0 97 22 116 60 54 104 -49 204 -160 156z m142 -61 c31 -64 -16
-135 -89 -135 -81 0 -120 89 -65 148 47 51 127 44 154 -13z"/>
<path d="M1727 3973 c-11 -11 -8 -48 5 -61 32 -32 87 18 58 53 -13 15 -51 20
-63 8z"/>
<path d="M2092 3920 c3 -27 17 -73 31 -102 25 -49 25 -54 10 -65 -22 -17 -22
-16 -59 6 -38 23 -62 72 -73 148 l-9 58 -1 -65 c0 -50 4 -74 22 -105 28 -51
87 -83 123 -66 36 16 39 36 14 83 -12 24 -25 69 -28 101 -3 41 -9 57 -20 57
-11 0 -14 -10 -10 -50z"/>
<path d="M2015 3664 c-142 -29 -263 -70 -297 -101 -23 -21 -23 -56 1 -77 20
-18 66 -28 436 -91 256 -43 287 -45 346 -21 29 12 53 69 47 113 -12 83 -85
139 -223 168 -64 13 -260 19 -310 9z m145 -23 c0 -14 -50 -51 -69 -51 -19 0
-61 27 -61 40 0 9 35 15 98 18 17 1 32 -2 32 -7z m-156 -25 c-7 -19 -45 -30
-73 -21 -34 10 -24 22 27 32 55 11 54 11 46 -11z m265 18 c25 -5 29 -9 20 -20
-15 -18 -49 -18 -77 2 -12 8 -22 10 -22 5 0 -20 53 -39 85 -30 22 6 32 5 38
-6 29 -53 91 -70 135 -39 29 20 48 7 61 -43 12 -42 1 -75 -31 -97 -33 -23 -67
-20 -90 9 -20 26 -60 33 -87 16 -10 -7 -24 -2 -44 15 -33 28 -63 31 -94 9 -20
-14 -24 -13 -47 10 -18 18 -36 25 -65 25 -22 0 -43 -5 -46 -11 -5 -7 4 -8 27
-4 26 5 40 2 58 -14 l25 -21 -53 6 c-37 5 -61 14 -78 30 -25 26 -81 33 -101
13 -17 -17 -118 -2 -145 22 l-23 19 23 20 c22 18 26 18 47 4 29 -19 69 -10 95
23 18 23 20 23 43 8 27 -18 75 -12 84 10 3 10 13 9 38 -7 40 -23 65 -18 113
23 33 30 55 34 111 23z m126 -35 c30 -11 55 -24 55 -29 0 -14 -54 -28 -76 -19
-21 7 -54 45 -54 61 0 12 15 10 75 -13z m-525 -5 c-21 -25 -49 -36 -73 -28
-19 6 -15 10 28 25 28 9 52 18 54 18 2 1 -2 -6 -9 -15z m105 -125 c11 -11 0
-11 -45 -3 -22 5 -28 9 -18 15 14 9 47 3 63 -12z m273 -31 c21 -21 13 -26 -30
-17 -24 4 -47 8 -51 9 -5 0 -5 5 -2 10 9 14 68 13 83 -2z m113 -18 c30 -16 23
-26 -16 -22 -42 5 -46 21 -7 31 2 1 12 -4 23 -9z"/>
<path d="M1492 3615 c0 -16 2 -22 5 -12 2 9 2 23 0 30 -3 6 -5 -1 -5 -18z"/>
<path d="M2632 3430 c0 -19 2 -27 5 -17 2 9 2 25 0 35 -3 9 -5 1 -5 -18z"/>
<path d="M2581 3290 c0 -14 4 -32 9 -40 8 -12 10 -12 9 5 0 11 -4 29 -9 40 -8
18 -9 18 -9 -5z"/>
<path d="M2162 3230 c0 -19 2 -27 5 -17 2 9 2 25 0 35 -3 9 -5 1 -5 -18z"/>
<path d="M2442 3195 c0 -16 2 -22 5 -12 2 9 2 23 0 30 -3 6 -5 -1 -5 -18z"/>
<path d="M2331 3134 c0 -11 3 -14 6 -6 3 7 2 16 -1 19 -3 4 -6 -2 -5 -13z"/>
<path d="M2585 3075 c7 -31 12 -41 19 -34 2 2 -3 18 -11 34 l-14 30 6 -30z"/>
<path d="M2152 3055 c0 -16 2 -22 5 -12 2 9 2 23 0 30 -3 6 -5 -1 -5 -18z"/>
<path d="M2430 3062 c0 -12 19 -26 26 -19 2 2 -2 10 -11 17 -9 8 -15 8 -15 2z"/>
<path d="M4564 3876 c-27 -27 -34 -42 -34 -71 0 -115 139 -176 214 -94 25 28
28 37 23 82 -4 42 -10 56 -41 84 -30 27 -44 33 -82 33 -39 0 -51 -5 -80 -34z
m137 -9 c45 -35 53 -111 14 -147 -20 -19 -32 -22 -65 -17 -23 3 -50 13 -61 23
-40 36 -41 112 -2 142 21 15 93 15 114 -1z"/>
<path d="M4607 3824 c-13 -13 -7 -55 8 -60 21 -9 47 15 43 40 -3 21 -37 34
-51 20z"/>
<path d="M3821 3643 c-79 -81 -88 -177 -25 -252 63 -75 183 -60 230 30 22 44
20 130 -5 183 -26 52 -58 76 -113 84 -36 4 -42 1 -87 -45z m144 0 c71 -53 74
-208 4 -257 -27 -19 -87 -21 -123 -4 -76 34 -93 163 -30 227 13 13 24 27 24
31 0 14 45 29 73 25 15 -3 38 -13 52 -22z"/>
<path d="M3880 3570 c-11 -11 -20 -31 -20 -45 0 -14 9 -34 20 -45 39 -39 110
-11 110 44 0 27 -42 66 -71 66 -11 0 -28 -9 -39 -20z"/>
<path d="M3167 3648 c-78 -21 -138 -114 -123 -191 9 -46 43 -96 86 -125 30
-20 45 -23 96 -20 69 4 122 36 149 88 18 34 20 122 4 153 -41 79 -127 117
-212 95z m146 -48 c45 -39 61 -79 54 -136 -6 -55 -31 -93 -78 -116 -101 -52
-223 19 -223 129 1 98 57 153 156 153 49 0 62 -4 91 -30z"/>
<path d="M3200 3550 c-43 -43 -14 -110 47 -110 37 0 63 27 63 67 0 57 -69 84
-110 43z"/>
<path d="M3362 2920 c0 -19 2 -27 5 -17 2 9 2 25 0 35 -3 9 -5 1 -5 -18z"/>
<path d="M4021 2843 c-1 -24 4 -43 9 -43 12 0 12 24 0 60 -7 21 -8 19 -9 -17z"/>
<path d="M3490 2792 c0 -29 4 -52 9 -52 8 0 3 90 -5 99 -2 2 -4 -19 -4 -47z"/>
<path d="M3676 2790 c4 -19 11 -39 16 -45 6 -6 7 1 2 20 -10 46 -25 66 -18 25z"/>
<path d="M3267 2770 c-4 -14 -6 -36 -6 -50 1 -22 2 -20 10 8 6 19 9 41 7 50
-3 12 -6 10 -11 -8z"/>
<path d="M3192 2588 c-1 -14 -5 -35 -8 -45 -5 -14 -4 -15 5 -7 7 7 11 26 8 45
-3 28 -4 29 -5 7z"/>
<path d="M3422 2590 c0 -14 2 -19 5 -12 2 6 2 18 0 25 -3 6 -5 1 -5 -13z"/>
<path d="M3303 2555 c0 -27 2 -38 4 -22 2 15 2 37 0 50 -2 12 -4 0 -4 -28z"/>
<path d="M3617 2586 c-4 -10 -7 -25 -6 -34 0 -11 4 -9 10 7 5 13 8 29 6 35 -2
5 -6 2 -10 -8z"/>
<path d="M3817 2565 c3 -22 7 -42 9 -44 8 -9 2 45 -6 64 -7 14 -8 8 -3 -20z"/>
<path d="M3931 2530 c-1 -8 -4 -26 -7 -40 -5 -19 -4 -22 5 -14 7 6 11 24 8 40
-2 16 -5 22 -6 14z"/>
<path d="M3682 2470 c0 -19 2 -27 5 -17 2 9 2 25 0 35 -3 9 -5 1 -5 -18z"/>
<path d="M3356 2449 c-9 -46 -7 -79 4 -79 6 0 10 25 10 55 0 62 -5 70 -14 24z"/>
<path d="M3170 2360 c0 -22 5 -40 10 -40 6 0 10 18 10 40 0 22 -4 40 -10 40
-5 0 -10 -18 -10 -40z"/>
<path d="M3468 2305 c2 -14 6 -25 8 -25 2 0 4 11 4 25 0 14 -4 25 -9 25 -4 0
-6 -11 -3 -25z"/>
<path d="M3553 2285 c0 -27 2 -38 4 -22 2 15 2 37 0 50 -2 12 -4 0 -4 -28z"/>
<path d="M3931 2300 c0 -14 4 -34 9 -45 7 -17 9 -16 9 10 0 17 -4 37 -9 45 -8
12 -10 10 -9 -10z"/>
<path d="M3701 2290 c0 -14 4 -32 9 -40 9 -13 10 -13 9 0 -1 8 -5 26 -9 40
l-8 25 -1 -25z"/>
<path d="M3817 2293 c-2 -5 0 -21 4 -38 7 -29 7 -29 8 8 1 35 -3 46 -12 30z"/>
<path d="M3363 2230 c0 -25 2 -35 4 -22 2 12 2 32 0 45 -2 12 -4 2 -4 -23z"/>
<path d="M3222 2210 c0 -14 2 -19 5 -12 2 6 2 18 0 25 -3 6 -5 1 -5 -13z"/>
<path d="M4033 2135 c0 -22 2 -30 4 -17 2 12 2 30 0 40 -3 9 -5 -1 -4 -23z"/>
<path d="M4192 3848 c-19 -19 -14 -56 8 -63 24 -8 50 10 50 34 0 19 -19 41
-35 41 -6 0 -16 -5 -23 -12z"/>
<path d="M274 3189 c-41 -12 -91 -69 -100 -114 -8 -45 17 -113 52 -139 66 -47
158 -25 194 48 39 82 19 175 -45 202 -38 16 -56 16 -101 3z m114 -42 c60 -64
24 -191 -60 -211 -35 -8 -90 14 -112 45 -18 27 -21 100 -5 130 30 57 137 79
177 36z"/>
<path d="M296 3114 c-24 -23 -20 -70 6 -88 46 -32 98 -7 98 46 0 49 -69 78
-104 42z"/>
<path d="M560 2953 c0 -21 -5 -45 -10 -53 -15 -23 -44 0 -51 41 l-6 34 -2 -37
c-2 -64 50 -90 76 -38 15 30 17 90 3 90 -5 0 -10 -17 -10 -37z"/>
<path d="M301 2764 c0 -11 3 -14 6 -6 3 7 2 16 -1 19 -3 4 -6 -2 -5 -13z"/>
<path d="M172 2635 c0 -16 2 -22 5 -12 2 9 2 23 0 30 -3 6 -5 -1 -5 -18z"/>
<path d="M162 2270 c0 -19 2 -27 5 -17 2 9 2 25 0 35 -3 9 -5 1 -5 -18z"/>
<path d="M593 2235 c0 -33 2 -45 4 -27 2 18 2 45 0 60 -2 15 -4 0 -4 -33z"/>
<path d="M443 2135 c0 -22 2 -30 4 -17 2 12 2 30 0 40 -3 9 -5 -1 -4 -23z"/>
<path d="M153 2120 c0 -25 2 -35 4 -22 2 12 2 32 0 45 -2 12 -4 2 -4 -23z"/>
<path d="M293 2075 c0 -33 2 -45 4 -27 2 18 2 45 0 60 -2 15 -4 0 -4 -33z"/>
<path d="M382 2075 c0 -16 2 -22 5 -12 2 9 2 23 0 30 -3 6 -5 -1 -5 -18z"/>
<path d="M188 1980 c2 -22 6 -40 8 -40 2 0 4 18 4 40 0 22 -3 40 -8 40 -4 0
-6 -18 -4 -40z"/>
<path d="M272 1865 c0 -16 2 -22 5 -12 2 9 2 23 0 30 -3 6 -5 -1 -5 -18z"/>
<path d="M503 1765 c0 -22 2 -30 4 -17 2 12 2 30 0 40 -3 9 -5 -1 -4 -23z"/>
<path d="M162 1760 c0 -19 2 -27 5 -17 2 9 2 25 0 35 -3 9 -5 1 -5 -18z"/>
<path d="M302 1740 c0 -14 2 -19 5 -12 2 6 2 18 0 25 -3 6 -5 1 -5 -13z"/>
<path d="M1665 3126 c-113 -49 -143 -141 -76 -233 75 -104 244 -112 316 -15
15 20 20 43 20 89 0 57 -3 65 -35 99 -64 67 -154 91 -225 60z m159 -36 c53
-26 86 -74 86 -126 -1 -79 -52 -126 -144 -132 -54 -3 -66 0 -108 27 -56 35
-78 67 -85 119 -4 31 0 44 23 71 15 19 42 40 59 47 45 20 122 17 169 -6z"/>
<path d="M1692 3047 c-47 -50 -9 -127 62 -127 84 0 103 95 26 135 -40 21 -63
19 -88 -8z"/>
<path d="M1444 2916 c-6 -17 2 -36 17 -36 12 0 12 37 -1 45 -6 3 -13 -1 -16
-9z"/>
<path d="M1360 2872 c0 -34 14 -43 24 -15 4 9 0 23 -9 32 -13 14 -15 12 -15
-17z"/>
<path d="M1548 2023 c-32 -20 -78 -100 -78 -135 0 -46 31 -61 109 -56 78 6
117 25 127 62 8 32 -13 103 -37 127 -24 24 -84 25 -121 2z m62 -18 c0 -19 -24
-29 -47 -21 -14 6 -14 8 3 21 25 19 44 19 44 0z m40 5 c13 -8 13 -10 -2 -10
-9 0 -20 5 -23 10 -8 13 5 13 25 0z m22 -35 c13 -17 9 -76 -4 -74 -24 3 -38
-1 -38 -10 0 -5 10 -7 23 -4 18 5 20 3 9 -8 -10 -11 -16 -11 -32 -1 -30 18
-61 15 -67 -8 -3 -11 -11 -20 -18 -20 -47 0 -58 36 -29 93 22 42 21 42 38 28
15 -13 56 -6 56 9 0 11 53 7 62 -5z m-62 -105 c0 -5 -9 -10 -21 -10 -11 0 -17
5 -14 10 3 6 13 10 21 10 8 0 14 -4 14 -10z"/>
<path d="M4937 3320 c-42 -13 -57 -29 -57 -61 0 -36 32 -59 82 -59 36 0 68 26
68 56 0 14 -48 74 -58 73 -4 0 -20 -5 -35 -9z m61 -69 c-2 -19 -10 -27 -27
-29 -35 -5 -72 18 -69 42 4 29 38 34 38 7 0 -12 6 -21 15 -21 10 0 15 10 15
26 0 23 2 25 16 14 8 -8 14 -25 12 -39z"/>
<path d="M5205 3269 c-10 -15 3 -25 16 -12 7 7 7 13 1 17 -6 3 -14 1 -17 -5z"/>
<path d="M5014 3125 c-4 -9 -2 -21 4 -27 16 -16 47 -5 47 17 0 26 -42 34 -51
10z"/>
<path d="M4533 2830 c-32 -13 -51 -48 -62 -116 -20 -129 27 -238 102 -238 75
0 121 61 120 159 -1 130 -80 226 -160 195z m62 -32 c36 -16 65 -77 71 -151 4
-51 2 -68 -15 -95 -39 -62 -107 -68 -136 -12 -34 66 -31 214 6 251 22 22 38
24 74 7z"/>
<path d="M4573 2697 c-30 -38 -23 -77 12 -77 23 0 35 17 35 50 0 25 -34 44
-47 27z"/>
<path d="M2020 2782 c-38 -38 -55 -102 -40 -148 15 -45 50 -67 105 -67 54 0
107 36 122 85 l11 33 1 -45 c3 -106 72 -313 124 -368 50 -54 116 -67 160 -32
48 38 46 71 -23 288 -34 108 -66 201 -71 206 -25 28 -14 -22 46 -204 70 -214
74 -245 32 -275 -30 -21 -58 -19 -98 8 -62 41 -129 200 -151 359 -6 43 -15 78
-20 78 -4 0 -8 9 -8 21 0 12 -15 36 -34 55 -29 29 -41 34 -81 34 -38 0 -52 -5
-75 -28z m119 -6 c59 -31 67 -102 17 -152 -28 -28 -42 -34 -75 -34 -76 0 -108
59 -72 133 30 63 75 81 130 53z"/>
<path d="M2098 2739 c-25 -14 -24 -75 1 -89 11 -5 24 -10 30 -10 16 0 51 38
51 55 0 18 -35 55 -52 55 -7 0 -21 -5 -30 -11z"/>
<path d="M2370 2638 c0 -9 5 -20 10 -23 13 -8 13 5 0 25 -8 13 -10 13 -10 -2z"/>
<path d="M2327 2609 c4 -13 8 -18 11 -10 2 7 -1 18 -6 23 -8 8 -9 4 -5 -13z"/>
<path d="M2287 2549 c4 -13 8 -18 11 -10 2 7 -1 18 -6 23 -8 8 -9 4 -5 -13z"/>
<path d="M2341 2494 c0 -11 3 -14 6 -6 3 7 2 16 -1 19 -3 4 -6 -2 -5 -13z"/>
<path d="M2320 2418 c0 -9 5 -20 10 -23 13 -8 13 5 0 25 -8 13 -10 13 -10 -2z"/>
<path d="M2370 2341 c0 -5 5 -13 10 -16 6 -3 10 -2 10 4 0 5 -4 13 -10 16 -5
3 -10 2 -10 -4z"/>
<path d="M2430 2341 c0 -6 4 -13 10 -16 6 -3 7 1 4 9 -7 18 -14 21 -14 7z"/>
<path d="M2792 2295 c0 -16 2 -22 5 -12 2 9 2 23 0 30 -3 6 -5 -1 -5 -18z"/>
<path d="M2540 2207 c-57 -27 -76 -31 -150 -32 -47 0 -105 4 -130 8 -25 5 -40
5 -34 0 6 -4 14 -20 17 -34 8 -32 31 -43 58 -29 11 6 19 7 19 2 0 -16 38 -21
57 -7 13 9 23 10 36 3 13 -7 23 -6 30 1 6 6 25 11 43 11 18 0 34 5 36 12 3 7
20 12 39 12 31 1 34 4 37 34 2 17 7 32 13 32 5 0 9 5 9 10 0 14 -7 12 -80 -23z
m46 -23 c-3 -9 -6 -18 -6 -20 0 -2 -9 -4 -20 -4 -25 0 -26 16 -2 29 25 15 35
13 28 -5z m-279 -38 c-2 -6 -13 -12 -25 -14 -16 -3 -22 2 -22 16 0 15 5 18 25
14 14 -2 24 -10 22 -16z m207 9 c-7 -16 -44 -21 -44 -6 0 8 16 16 42 20 4 0 5
-6 2 -14z m-134 -20 c-7 -8 -21 -15 -31 -15 -11 0 -19 7 -19 15 0 10 10 15 31
15 27 0 30 -2 19 -15z m70 5 c0 -5 -9 -10 -20 -10 -11 0 -20 5 -20 10 0 6 9
10 20 10 11 0 20 -4 20 -10z"/>
<path d="M1973 2135 c0 -22 2 -30 4 -17 2 12 2 30 0 40 -3 9 -5 -1 -4 -23z"/>
<path d="M2660 2153 c0 -12 5 -25 10 -28 13 -8 13 15 0 35 -8 12 -10 11 -10
-7z"/>
<path d="M2067 2154 c-4 -4 -7 -14 -7 -23 0 -11 3 -12 11 -4 6 6 10 16 7 23
-2 6 -7 8 -11 4z"/>
<path d="M1890 2091 c0 -11 5 -23 10 -26 6 -3 10 3 10 14 0 11 -4 23 -10 26
-5 3 -10 -3 -10 -14z"/>
<path d="M2166 2053 c10 -40 14 -41 14 -5 0 18 -5 32 -10 32 -6 0 -8 -11 -4
-27z"/>
<path d="M2450 2021 c0 -11 4 -22 9 -25 4 -3 6 6 3 19 -5 30 -12 33 -12 6z"/>
<path d="M2392 2010 c0 -14 2 -19 5 -12 2 6 2 18 0 25 -3 6 -5 1 -5 -13z"/>
<path d="M2121 2004 c0 -11 3 -14 6 -6 3 7 2 16 -1 19 -3 4 -6 -2 -5 -13z"/>
<path d="M2622 1990 c0 -19 2 -27 5 -17 2 9 2 25 0 35 -3 9 -5 1 -5 -18z"/>
<path d="M2000 1980 c0 -11 4 -20 9 -20 5 0 7 9 4 20 -3 11 -7 20 -9 20 -2 0
-4 -9 -4 -20z"/>
<path d="M2301 1988 c0 -7 4 -22 9 -33 8 -18 9 -17 9 7 1 15 -3 30 -9 33 -5 3
-10 0 -9 -7z"/>
<path d="M2581 1984 c0 -11 3 -14 6 -6 3 7 2 16 -1 19 -3 4 -6 -2 -5 -13z"/>
<path d="M1862 1950 c0 -14 2 -19 5 -12 2 6 2 18 0 25 -3 6 -5 1 -5 -13z"/>
<path d="M1910 1946 c0 -9 5 -16 10 -16 6 0 10 4 10 9 0 6 -4 13 -10 16 -5 3
-10 -1 -10 -9z"/>
<path d="M2061 1944 c0 -11 3 -14 6 -6 3 7 2 16 -1 19 -3 4 -6 -2 -5 -13z"/>
<path d="M2682 1910 c0 -14 2 -19 5 -12 2 6 2 18 0 25 -3 6 -5 1 -5 -13z"/>
<path d="M2420 1898 c0 -9 5 -20 10 -23 13 -8 13 5 0 25 -8 13 -10 13 -10 -2z"/>
<path d="M2520 1903 c0 -4 5 -15 10 -23 8 -13 10 -13 10 2 0 9 -4 20 -10 23
-5 3 -10 3 -10 -2z"/>
<path d="M2626 1885 c4 -8 8 -15 10 -15 2 0 4 7 4 15 0 8 -4 15 -10 15 -5 0
-7 -7 -4 -15z"/>
<path d="M2212 1860 c0 -14 2 -19 5 -12 2 6 2 18 0 25 -3 6 -5 1 -5 -13z"/>
<path d="M2286 1855 c4 -8 8 -15 10 -15 2 0 4 7 4 15 0 8 -4 15 -10 15 -5 0
-7 -7 -4 -15z"/>
<path d="M2360 1853 c0 -4 5 -15 10 -23 8 -13 10 -13 10 2 0 9 -4 20 -10 23
-5 3 -10 3 -10 -2z"/>
<path d="M1053 2842 c-27 -4 -73 -56 -73 -83 0 -58 99 -81 145 -34 56 55 11
130 -72 117z"/>
<path d="M2606 2728 c-21 -30 -20 -44 4 -68 24 -24 34 -25 54 -4 30 30 10 94
-29 94 -8 0 -21 -10 -29 -22z"/>
<path d="M860 2398 c-59 -30 -90 -77 -90 -137 0 -85 56 -141 141 -141 96 0
179 92 165 182 -9 57 -21 75 -66 98 -51 26 -95 25 -150 -2z m167 -32 c57 -66
37 -151 -47 -209 -31 -21 -108 -22 -138 -1 -79 55 -64 176 28 226 51 28 126
20 157 -16z"/>
<path d="M907 2342 c-40 -44 -7 -122 51 -122 35 0 72 37 72 71 0 56 -87 91
-123 51z"/>
<path d="M852 1960 c0 -14 2 -19 5 -12 2 6 2 18 0 25 -3 6 -5 1 -5 -13z"/>
<path d="M651 1954 c0 -11 3 -14 6 -6 3 7 2 16 -1 19 -3 4 -6 -2 -5 -13z"/>
<path d="M1092 1925 c0 -16 2 -22 5 -12 2 9 2 23 0 30 -3 6 -5 -1 -5 -18z"/>
<path d="M733 1923 c2 -12 6 -26 10 -29 11 -11 8 19 -3 36 -8 12 -9 10 -7 -7z"/>
<path d="M1151 1884 c0 -11 3 -14 6 -6 3 7 2 16 -1 19 -3 4 -6 -2 -5 -13z"/>
<path d="M652 1850 c0 -14 2 -19 5 -12 2 6 2 18 0 25 -3 6 -5 1 -5 -13z"/>
<path d="M841 1854 c0 -11 3 -14 6 -6 3 7 2 16 -1 19 -3 4 -6 -2 -5 -13z"/>
<path d="M722 1815 c0 -16 2 -22 5 -12 2 9 2 23 0 30 -3 6 -5 -1 -5 -18z"/>
<path d="M1281 1824 c0 -11 3 -14 6 -6 3 7 2 16 -1 19 -3 4 -6 -2 -5 -13z"/>
<path d="M1361 1774 c0 -11 3 -14 6 -6 3 7 2 16 -1 19 -3 4 -6 -2 -5 -13z"/>
<path d="M652 1755 c0 -16 2 -22 5 -12 2 9 2 23 0 30 -3 6 -5 -1 -5 -18z"/>
<path d="M606 1645 c-3 -8 -1 -15 4 -15 6 0 10 7 10 15 0 8 -2 15 -4 15 -2 0
-6 -7 -10 -15z"/>
<path d="M4169 2629 c-7 -14 -8 -24 -1 -31 17 -17 42 -1 42 27 0 31 -25 34
-41 4z"/>
<path d="M4356 2259 c-12 -59 -7 -89 19 -115 32 -32 65 -28 83 9 28 59 -10
137 -67 137 -24 0 -29 -5 -35 -31z m82 -22 c16 -33 7 -86 -16 -94 -23 -9 -52
33 -52 76 0 21 3 41 7 45 15 15 48 0 61 -27z"/>
<path d="M4387 2210 c3 -11 14 -20 24 -20 12 0 19 7 19 20 0 14 -7 20 -24 20
-19 0 -23 -4 -19 -20z"/>
<path d="M4134 2253 c-10 -16 -20 -51 -22 -79 -4 -43 -1 -55 17 -73 74 -74
164 82 93 162 -24 27 -67 22 -88 -10z m88 -28 c24 -53 -23 -138 -67 -121 -39
15 -38 103 1 147 20 22 49 11 66 -26z"/>
<path d="M4167 2204 c-4 -4 -7 -18 -7 -31 0 -18 5 -24 18 -21 10 2 17 12 17
27 0 24 -15 37 -28 25z"/>
<path d="M4248 1823 c12 -2 32 -2 45 0 12 2 2 4 -23 4 -25 0 -35 -2 -22 -4z"/>
<path d="M5061 2204 c-34 -43 -31 -99 6 -132 48 -43 113 -4 113 68 0 49 -32
90 -70 90 -19 0 -36 -9 -49 -26z m83 -10 c23 -22 20 -80 -4 -104 -26 -26 -36
-25 -65 5 -28 27 -29 33 -14 72 17 45 54 57 83 27z"/>
<path d="M5102 2158 c-16 -16 -15 -35 1 -41 20 -8 39 8 35 28 -4 23 -20 29
-36 13z"/>
<path d="M5222 2222 c-15 -10 -7 -82 15 -124 24 -48 83 -26 83 30 0 29 -34 92
-49 92 -5 0 -15 2 -23 5 -7 3 -19 1 -26 -3z m67 -53 c16 -30 8 -79 -14 -79
-23 0 -40 47 -36 98 2 21 34 9 50 -19z"/>
<path d="M5250 2151 c0 -12 6 -21 16 -21 9 0 14 7 12 17 -5 25 -28 28 -28 4z"/>
<path d="M5170 1970 c-13 -9 -13 -10 0 -10 8 0 22 5 30 10 13 9 13 10 0 10 -8
0 -22 -5 -30 -10z"/>
<path d="M5596 2334 c-8 -21 1 -34 25 -34 23 0 26 35 3 44 -21 8 -21 8 -28
-10z"/>
<path d="M4767 2147 c-10 -6 -20 -28 -23 -47 -11 -68 66 -137 112 -99 8 6 14
29 14 51 0 32 -7 47 -34 74 -38 38 -44 40 -69 21z m56 -32 c21 -20 27 -35 27
-65 0 -35 -3 -40 -23 -40 -44 0 -80 68 -57 109 14 27 19 26 53 -4z"/>
<path d="M4793 2084 c-7 -19 11 -39 26 -30 16 10 13 33 -4 40 -9 3 -18 -1 -22
-10z"/>
<path d="M4610 2113 c-28 -36 -25 -109 6 -130 47 -31 101 62 75 130 -14 36
-52 36 -81 0z m70 -50 c0 -38 -31 -76 -55 -67 -24 10 -20 89 7 116 20 20 22
20 35 3 7 -11 13 -34 13 -52z"/>
<path d="M4635 2071 c-8 -15 3 -31 21 -31 9 0 14 7 12 17 -4 20 -24 28 -33 14z"/>
<path d="M4680 1770 c36 -11 52 -11 45 0 -3 6 -21 10 -38 9 -31 -1 -31 -1 -7
-9z"/>
<path d="M2962 2072 c-67 -20 -123 -106 -108 -165 15 -63 103 -126 174 -127
83 0 149 73 140 155 -6 50 -38 99 -76 119 -34 17 -100 26 -130 18z m125 -42
c74 -45 83 -139 19 -197 -27 -25 -45 -33 -72 -33 -72 0 -151 59 -160 121 -14
94 122 165 213 109z"/>
<path d="M3001 1974 c-26 -32 -26 -46 -3 -73 25 -31 71 -36 110 -12 40 26 43
61 6 90 -38 30 -87 28 -113 -5z"/>
<path d="M3768 2010 c-116 -35 -171 -156 -119 -258 36 -71 87 -102 167 -102
167 0 244 209 119 319 -50 44 -110 58 -167 41z m122 -39 c67 -35 98 -129 66
-204 -43 -104 -191 -126 -266 -40 -67 76 -44 211 44 249 44 19 115 17 156 -5z"/>
<path d="M3791 1921 c-73 -13 -65 -76 14 -107 73 -27 126 1 111 60 -4 18 -18
32 -41 42 -19 8 -38 13 -42 13 -4 -1 -23 -4 -42 -8z"/>
<path d="M3281 1782 c-1 -86 1 -95 24 -117 18 -19 35 -25 66 -25 77 0 124 86
99 179 -6 22 -15 41 -21 41 -6 0 -8 -8 -6 -17 15 -55 17 -78 7 -113 -12 -46
-42 -70 -86 -70 -49 0 -64 26 -73 127 l-8 88 -2 -93z"/>
<path d="M3054 1376 c-14 -32 -24 -60 -20 -63 3 -3 10 6 17 20 9 21 23 28 78
39 101 20 289 15 385 -11 74 -19 89 -28 99 -56 3 -5 7 -7 11 -4 4 4 0 19 -8
35 -8 16 -18 38 -22 49 -7 20 -8 19 -11 -1 -4 -21 -6 -21 -50 -8 -86 26 -205
35 -308 23 -54 -5 -109 -15 -123 -20 -31 -12 -37 -7 -22 21 6 12 9 24 6 27 -3
3 -17 -20 -32 -51z"/>
<path d="M3870 1350 c0 -16 2 -30 4 -30 2 0 6 14 8 30 3 17 1 30 -4 30 -4 0
-8 -13 -8 -30z"/>
<path d="M3342 1185 c0 -16 2 -22 5 -12 2 9 2 23 0 30 -3 6 -5 -1 -5 -18z"/>
<path d="M3772 1200 c0 -8 4 -26 8 -40 6 -20 8 -21 8 -5 0 11 -3 29 -8 40 -5
12 -8 14 -8 5z"/>
<path d="M3143 1100 c0 -25 2 -35 4 -22 2 12 2 32 0 45 -2 12 -4 2 -4 -23z"/>
<path d="M3022 1105 c0 -16 2 -22 5 -12 2 9 2 23 0 30 -3 6 -5 -1 -5 -18z"/>
<path d="M3041 991 c-1 -28 3 -41 8 -35 6 5 6 24 1 44 l-8 35 -1 -44z"/>
<path d="M3243 985 c0 -22 2 -30 4 -17 2 12 2 30 0 40 -3 9 -5 -1 -4 -23z"/>
<path d="M3362 980 c0 -14 2 -19 5 -12 2 6 2 18 0 25 -3 6 -5 1 -5 -13z"/>
<path d="M2047 1756 c-73 -27 -117 -86 -117 -156 0 -58 21 -101 71 -143 158
-136 376 -8 304 178 -34 92 -168 154 -258 121z m147 -38 c38 -19 85 -71 97
-105 13 -41 4 -98 -22 -134 -20 -28 -84 -59 -122 -59 -69 0 -151 50 -183 111
-38 75 3 174 82 199 33 11 118 4 148 -12z"/>
<path d="M2126 1626 c-33 -32 -34 -78 -4 -106 29 -27 64 -25 93 5 43 42 23
106 -37 121 -21 4 -33 0 -52 -20z"/>
<path d="M2552 1713 c-13 -3 -38 -20 -56 -38 -64 -64 -57 -167 16 -250 67 -76
153 -96 218 -52 92 62 111 169 47 266 -43 65 -128 93 -225 74z m185 -66 c40
-38 57 -86 50 -144 -9 -84 -80 -141 -156 -128 -77 13 -160 113 -161 192 0 73
34 109 117 122 63 9 111 -4 150 -42z"/>
<path d="M2634 1610 c-33 -13 -47 -59 -32 -105 24 -74 105 -79 135 -7 15 36 6
79 -21 100 -18 15 -60 21 -82 12z"/>
<path d="M1752 1305 c0 -16 2 -22 5 -12 2 9 2 23 0 30 -3 6 -5 -1 -5 -18z"/>
<path d="M1952 890 c0 -19 2 -27 5 -17 2 9 2 25 0 35 -3 9 -5 1 -5 -18z"/>
<path d="M2061 904 c0 -11 3 -14 6 -6 3 7 2 16 -1 19 -3 4 -6 -2 -5 -13z"/>
<path d="M2476 897 c3 -10 9 -15 12 -12 3 3 0 11 -7 18 -10 9 -11 8 -5 -6z"/>
<path d="M1822 870 c0 -19 2 -27 5 -17 2 9 2 25 0 35 -3 9 -5 1 -5 -18z"/>
<path d="M1876 885 c-9 -26 -7 -32 5 -12 6 10 9 21 6 23 -2 3 -7 -2 -11 -11z"/>
<path d="M1753 670 c0 -25 2 -35 4 -22 2 12 2 32 0 45 -2 12 -4 2 -4 -23z"/>
<path d="M1812 440 c0 -19 2 -27 5 -17 2 9 2 25 0 35 -3 9 -5 1 -5 -18z"/>
<path d="M1262 1613 c-12 -2 -38 -19 -57 -37 -29 -28 -35 -40 -35 -75 0 -75
51 -139 117 -147 47 -6 80 11 110 55 64 95 -23 226 -135 204z m94 -57 c27 -27
34 -42 34 -74 0 -94 -94 -136 -159 -72 -37 38 -50 92 -27 115 9 9 16 20 16 25
0 14 51 39 79 40 13 0 37 -14 57 -34z"/>
<path d="M1274 1525 c-14 -21 -14 -30 -4 -55 16 -38 51 -48 85 -26 17 11 25
26 25 45 0 58 -75 84 -106 36z"/>
<path d="M1011 1560 c-1 -47 28 -106 78 -160 50 -54 53 -93 8 -98 -57 -7 -157
134 -157 221 0 18 -5 27 -16 27 -14 0 -15 -7 -10 -41 15 -96 89 -202 157 -228
39 -14 73 6 77 47 3 28 -4 41 -41 81 -50 54 -73 93 -86 148 l-9 38 -1 -35z"/>
<path d="M709 1540 c-25 -13 -44 -35 -59 -66 -20 -40 -21 -50 -11 -85 14 -46
67 -86 125 -96 66 -11 106 27 120 112 8 48 -5 89 -42 128 -31 33 -79 35 -133
7z m122 -29 l24 -20 -41 6 c-37 5 -44 2 -59 -20 -20 -31 -13 -61 20 -83 22
-14 27 -14 55 -1 35 18 35 18 15 -28 -17 -43 -52 -58 -97 -43 -90 30 -115 107
-57 173 26 30 37 35 74 35 27 0 51 -7 66 -19z"/>
<path d="M1063 1222 c-63 -23 -132 -77 -158 -126 -17 -32 -18 -37 -4 -51 14
-14 30 -14 163 0 82 9 161 22 177 30 56 29 64 78 20 127 -24 27 -35 32 -87 35
-40 2 -76 -3 -111 -15z m177 -32 c40 -40 27 -50 -62 -51 -73 0 -171 -19 -233
-44 -17 -7 -17 -5 5 19 74 82 241 125 290 76z"/>
<path d="M440 1307 c0 -7 6 -22 14 -33 19 -24 41 -6 31 25 -7 23 -45 29 -45 8z"/>
<path d="M1470 1140 c-25 -25 -26 -62 -2 -83 25 -22 48 -21 72 3 22 22 27 69
8 88 -18 18 -56 14 -78 -8z"/>
<path d="M1622 1138 c-17 -17 -15 -64 4 -82 18 -19 20 -19 45 -6 13 7 19 21
19 45 0 45 -40 71 -68 43z"/>
<path d="M1545 820 c-27 -7 -25 -8 18 -9 26 0 47 4 47 9 0 11 -21 11 -65 0z"/>
<path d="M587 1093 c-11 -11 -8 -48 5 -61 20 -20 38 -14 38 12 0 46 -22 71
-43 49z"/>
<path d="M437 1084 c-10 -10 -8 -66 2 -83 5 -8 16 -11 26 -8 22 9 18 90 -5 95
-9 1 -19 0 -23 -4z"/>
<path d="M533 803 c9 -2 25 -2 35 0 9 3 1 5 -18 5 -19 0 -27 -2 -17 -5z"/>
<path d="M1100 826 c-14 -37 3 -78 31 -74 32 4 45 31 33 65 -13 38 -50 44 -64
9z"/>
<path d="M1210 818 c0 -42 12 -61 36 -56 21 4 29 28 20 64 -5 17 -13 24 -31
24 -22 0 -25 -5 -25 -32z"/>
<path d="M1185 620 c-17 -7 -14 -9 13 -9 20 -1 31 3 27 9 -7 12 -13 12 -40 0z"/>
<path d="M800 787 c0 -40 17 -62 37 -46 25 22 12 79 -18 79 -15 0 -19 -7 -19
-33z"/>
<path d="M936 804 c-8 -20 11 -54 29 -54 10 0 15 11 15 35 0 28 -4 35 -19 35
-10 0 -22 -7 -25 -16z"/>
<path d="M878 603 c12 -2 30 -2 40 0 9 3 -1 5 -23 4 -22 0 -30 -2 -17 -4z"/>
<path d="M2132 750 c-12 -5 -30 -25 -39 -45 -16 -34 -16 -36 4 -63 32 -44 69
-57 160 -57 72 0 84 3 107 24 47 44 25 103 -47 130 -41 16 -158 23 -185 11z
m133 -20 c71 -12 111 -44 102 -82 -8 -32 -45 -48 -112 -48 -86 0 -155 35 -155
80 0 6 11 22 25 35 27 28 49 30 140 15z"/>
<path d="M2243 708 c-30 -15 -36 -36 -18 -64 17 -26 62 -33 83 -12 19 19 14
55 -10 72 -26 18 -26 18 -55 4z"/>
<path d="M2763 751 c-78 -20 -108 -75 -64 -115 47 -42 175 -59 251 -33 69 24
79 101 17 133 -36 19 -154 28 -204 15z m202 -35 c38 -25 31 -65 -15 -89 -41
-22 -157 -19 -204 4 -62 30 -60 73 5 97 48 17 180 10 214 -12z"/>
<path d="M2805 706 c-23 -34 -5 -66 36 -66 41 0 61 40 34 70 -24 27 -51 25
-70 -4z"/>
<path d="M192 6053 c-137 -67 -71 -282 81 -259 70 11 117 64 117 133 0 106
-104 173 -198 126z m108 -28 c66 -34 82 -115 31 -165 -50 -50 -112 -52 -157
-3 -50 54 -36 140 29 168 42 18 62 18 97 0z"/>
<path d="M241 5962 c-13 -25 8 -56 35 -50 29 5 27 62 -3 66 -13 2 -26 -4 -32
-16z"/>
<path d="M805 6041 c-86 -36 -82 -167 6 -211 95 -49 195 1 192 95 -1 43 -34
98 -68 113 -29 14 -100 15 -130 3z m127 -33 c20 -10 48 -59 48 -82 0 -56 -53
-92 -123 -83 -58 8 -89 45 -85 101 3 37 7 43 47 63 44 22 72 22 113 1z"/>
<path d="M852 5978 c-30 -30 0 -75 43 -64 19 5 25 13 25 35 0 38 -41 56 -68
29z"/>
<path d="M1151 5934 c0 -11 3 -14 6 -6 3 7 2 16 -1 19 -3 4 -6 -2 -5 -13z"/>
<path d="M508 5909 c-16 -6 -28 -15 -28 -20 0 -6 9 -5 22 2 13 7 43 9 76 6 37
-4 52 -3 45 4 -15 15 -84 20 -115 8z"/>
<path d="M508 5854 c-40 -21 -35 -26 8 -8 24 10 51 13 78 9 30 -4 37 -3 26 4
-22 15 -80 13 -112 -5z"/>
<path d="M516 5810 c-90 -27 -38 -128 59 -116 68 8 114 90 66 116 -23 12 -84
12 -125 0z"/>
<path d="M1107 5755 c3 -33 10 -69 14 -80 11 -25 1 75 -12 113 -5 18 -6 7 -2
-33z"/>
<path d="M932 5710 c0 -19 2 -27 5 -17 2 9 2 25 0 35 -3 9 -5 1 -5 -18z"/>
<path d="M102 5680 c0 -19 2 -27 5 -17 2 9 2 25 0 35 -3 9 -5 1 -5 -18z"/>
<path d="M472 5626 c-68 -14 -116 -43 -52 -32 19 3 73 10 120 17 185 24 194
27 90 27 -52 0 -123 -6 -158 -12z"/>
<path d="M750 5590 c0 -16 2 -30 4 -30 2 0 6 14 8 30 3 17 1 30 -4 30 -4 0 -8
-13 -8 -30z"/>
<path d="M222 5510 c0 -19 2 -27 5 -17 2 9 2 25 0 35 -3 9 -5 1 -5 -18z"/>
<path d="M112 5440 c0 -19 2 -27 5 -17 2 9 2 25 0 35 -3 9 -5 1 -5 -18z"/>
<path d="M62 5365 c0 -16 2 -22 5 -12 2 9 2 23 0 30 -3 6 -5 -1 -5 -18z"/>
<path d="M143 5118 c-34 -37 -43 -64 -43 -120 0 -77 16 -103 64 -103 56 0 79
35 84 123 4 83 -11 116 -54 120 -21 2 -36 -4 -51 -20z m77 -17 c16 -30 12
-112 -8 -151 -12 -25 -25 -36 -44 -38 -34 -4 -48 25 -48 98 0 38 6 55 26 79
29 35 59 40 74 12z"/>
<path d="M164 5045 c-8 -34 1 -55 25 -55 21 0 32 29 24 60 -8 29 -41 25 -49
-5z"/>
<path d="M135 4694 c-39 -20 -75 -54 -75 -70 0 -22 42 -44 83 -44 67 0 127 37
127 79 0 6 -9 20 -20 31 -24 24 -73 26 -115 4z m68 -19 c-6 -17 -25 -15 -31 3
-2 7 5 12 17 12 14 0 19 -5 14 -15z m-53 -10 c0 -8 -7 -15 -16 -15 -14 0 -14
3 -4 15 7 8 14 15 16 15 2 0 4 -7 4 -15z m93 1 c9 -23 -16 -46 -58 -56 -62
-14 -123 6 -97 32 6 6 17 5 31 -4 19 -11 24 -11 34 2 7 8 22 14 35 12 13 -2
24 3 28 12 8 20 20 21 27 2z"/>
<path d="M4738 4241 c-47 -42 -45 -91 5 -137 32 -29 44 -34 88 -34 43 0 55 5
80 29 57 58 31 137 -52 161 -57 17 -87 12 -121 -19z m147 -25 c31 -21 34 -74
6 -100 -20 -18 -72 -23 -110 -11 -19 6 -51 51 -51 73 0 5 11 21 24 35 21 22
32 26 66 23 22 -2 52 -11 65 -20z"/>
<path d="M4771 4196 c-20 -24 4 -58 37 -54 23 2 27 8 27 33 0 25 -4 31 -26 33
-14 2 -31 -4 -38 -12z"/>
<path d="M309 4227 c-22 -14 -39 -38 -49 -64 -13 -38 -12 -46 3 -78 49 -102
220 -101 263 2 20 48 11 98 -26 135 -25 25 -35 28 -93 28 -50 0 -71 -5 -98
-23z m176 -27 c53 -50 16 -151 -60 -166 -99 -18 -176 59 -134 137 32 61 143
77 194 29z"/>
<path d="M406 4184 c-19 -18 -20 -38 -6 -65 12 -22 59 -26 78 -7 28 28 2 88
-38 88 -10 0 -26 -7 -34 -16z"/>
<path d="M572 3970 c0 -19 2 -27 5 -17 2 9 2 25 0 35 -3 9 -5 1 -5 -18z"/>
<path d="M5341 3977 c-34 -20 -50 -55 -51 -110 0 -43 5 -54 34 -83 46 -46 91
-47 141 -3 65 58 68 135 5 180 -34 25 -99 33 -129 16z m119 -39 c75 -47 -3
-177 -94 -154 -31 8 -60 68 -52 109 10 52 34 70 83 63 24 -3 52 -11 63 -18z"/>
<path d="M5354 3922 c-19 -13 -23 -39 -8 -61 26 -37 74 -21 74 26 0 31 -40 53
-66 35z"/>
<path d="M153 3760 c0 -25 2 -35 4 -22 2 12 2 32 0 45 -2 12 -4 2 -4 -23z"/>
<path d="M243 3670 c0 -25 2 -35 4 -22 2 12 2 32 0 45 -2 12 -4 2 -4 -23z"/>
<path d="M103 3565 c0 -22 2 -30 4 -17 2 12 2 30 0 40 -3 9 -5 -1 -4 -23z"/>
<path d="M5562 3550 c0 -19 2 -27 5 -17 2 9 2 25 0 35 -3 9 -5 1 -5 -18z"/>
<path d="M122 3485 c0 -16 2 -22 5 -12 2 9 2 23 0 30 -3 6 -5 -1 -5 -18z"/>
<path d="M63 3265 c0 -22 2 -30 4 -17 2 12 2 30 0 40 -3 9 -5 -1 -4 -23z"/>
<path d="M5421 3264 c0 -11 3 -14 6 -6 3 7 2 16 -1 19 -3 4 -6 -2 -5 -13z"/>
<path d="M5561 3154 c0 -11 3 -14 6 -6 3 7 2 16 -1 19 -3 4 -6 -2 -5 -13z"/>
<path d="M5216 3049 c-20 -24 -26 -41 -26 -81 0 -45 4 -54 39 -89 49 -49 95
-53 141 -11 81 72 20 212 -92 212 -28 0 -42 -7 -62 -31z m129 -22 c18 -15 28
-36 32 -64 5 -35 2 -45 -20 -67 -35 -35 -76 -34 -110 2 -43 45 -45 116 -3 144
23 15 75 8 101 -15z"/>
<path d="M5268 3029 c-24 -13 -23 -56 1 -69 29 -15 39 -13 57 15 16 24 16 27
-1 45 -20 22 -32 24 -57 9z"/>
<path d="M4960 2863 c0 -9 135 -98 164 -109 13 -5 17 -3 14 6 -4 13 -153 109
-170 110 -5 0 -8 -3 -8 -7z"/>
<path d="M5602 2710 c0 -19 2 -27 5 -17 2 9 2 25 0 35 -3 9 -5 1 -5 -18z"/>
<path d="M5281 2714 c0 -11 3 -14 6 -6 3 7 2 16 -1 19 -3 4 -6 -2 -5 -13z"/>
<path d="M5512 2700 c0 -19 2 -27 5 -17 2 9 2 25 0 35 -3 9 -5 1 -5 -18z"/>
<path d="M5372 2630 c0 -19 2 -27 5 -17 2 9 2 25 0 35 -3 9 -5 1 -5 -18z"/>
<path d="M5133 2535 c0 -22 2 -30 4 -17 2 12 2 30 0 40 -3 9 -5 -1 -4 -23z"/>
<path d="M5233 2525 c0 -22 2 -30 4 -17 2 12 2 30 0 40 -3 9 -5 -1 -4 -23z"/>
<path d="M5413 2399 c-35 -13 -56 -54 -50 -96 7 -39 51 -93 77 -93 26 0 51 35
57 79 10 74 -32 129 -84 110z m51 -31 c18 -26 21 -90 6 -119 -26 -47 -90 4
-90 72 0 63 52 93 84 47z"/>
<path d="M5420 2310 c0 -15 5 -20 18 -18 9 2 17 10 17 18 0 8 -8 16 -17 18
-13 2 -18 -3 -18 -18z"/>
<path d="M5511 1921 c-9 -6 5 -8 37 -8 28 0 49 4 46 9 -7 11 -65 10 -83 -1z"/>
<path d="M5312 1504 c-47 -24 -62 -60 -62 -152 0 -215 108 -345 227 -272 67
41 88 136 53 240 -53 159 -133 227 -218 184z m119 -50 c16 -15 42 -60 59 -100
50 -120 38 -224 -30 -259 -101 -52 -172 34 -186 225 -7 91 5 136 43 160 28 16
83 4 114 -26z"/>
<path d="M5339 1373 c-21 -25 -17 -122 7 -163 40 -70 124 -41 124 42 0 98 -85
177 -131 121z"/>
<path d="M82 1344 c-49 -34 -68 -125 -37 -184 32 -62 125 -59 166 6 31 51 23
138 -15 171 -32 27 -81 30 -114 7z m105 -26 c45 -50 35 -135 -20 -168 -42 -26
-63 -25 -92 5 -20 19 -25 34 -25 75 0 44 5 56 29 81 36 36 79 38 108 7z"/>
<path d="M120 1265 c-16 -19 -3 -57 18 -53 22 4 28 53 8 61 -8 3 -20 0 -26 -8z"/>
<path d="M4169 1197 c-124 -82 -64 -269 86 -269 87 0 155 62 155 141 0 119
-142 194 -241 128z m134 -1 c141 -58 99 -246 -55 -246 -41 0 -54 5 -84 33 -31
28 -37 41 -41 83 -9 104 83 171 180 130z"/>
<path d="M4216 1131 c-24 -26 -17 -62 15 -80 24 -13 29 -13 53 2 27 18 33 45
16 78 -14 25 -61 25 -84 0z"/>
<path d="M4629 1197 c-58 -39 -74 -98 -43 -162 37 -79 141 -96 203 -34 39 39
47 88 23 142 -33 73 -117 98 -183 54z m128 -17 c58 -35 64 -121 11 -165 -70
-59 -178 -11 -178 80 0 32 24 81 47 94 29 17 85 12 120 -9z"/>
<path d="M4662 1138 c-30 -30 1 -88 46 -88 23 0 52 24 52 43 0 7 -7 23 -16 35
-17 24 -62 30 -82 10z"/>
<path d="M3396 849 c-29 -34 -32 -50 -14 -82 27 -51 80 -62 122 -24 56 50 26
137 -48 137 -26 0 -41 -7 -60 -31z m113 -23 c12 -25 11 -31 -6 -55 -26 -33
-65 -39 -92 -12 -44 44 -14 104 48 99 28 -2 39 -9 50 -32z"/>
<path d="M3440 806 c0 -13 6 -26 13 -29 22 -7 37 4 37 29 0 19 -5 24 -25 24
-20 0 -25 -5 -25 -24z"/>
<path d="M3844 845 c-21 -21 -25 -32 -20 -58 4 -18 15 -41 26 -51 22 -23 76
-24 98 -2 24 23 19 74 -9 101 -39 37 -65 40 -95 10z m70 -17 c36 -33 39 -71 6
-88 -21 -11 -57 1 -72 24 -13 19 -9 49 9 68 21 23 27 23 57 -4z"/>
<path d="M3864 805 c-8 -20 4 -35 26 -35 23 0 32 13 24 34 -8 20 -43 21 -50 1z"/>
<path d="M5395 851 c-58 -24 -95 -112 -102 -241 l-6 -97 31 -34 c29 -32 34
-34 95 -33 89 1 135 25 166 87 22 44 23 52 12 104 -14 74 -69 172 -111 201
-35 23 -52 26 -85 13z m104 -60 c30 -42 71 -137 71 -164 0 -20 -4 -24 -19 -20
-19 5 -169 -12 -218 -24 -21 -5 -23 -1 -23 29 0 48 27 149 49 178 40 56 101
56 140 1z m71 -216 c0 -60 -70 -105 -161 -105 -40 0 -55 5 -74 25 -32 31 -33
63 -2 70 50 12 135 23 185 24 41 1 52 -2 52 -14z"/>
<path d="M4721 800 c-84 -56 -162 -75 -296 -74 -66 0 -154 7 -195 16 -41 8
-81 13 -87 10 -7 -2 -13 -19 -13 -36 0 -101 91 -221 190 -250 135 -40 380 4
459 83 44 44 61 96 61 184 0 102 -35 122 -119 67z m97 -53 c2 -33 -4 -82 -13
-114 -15 -49 -18 -54 -38 -48 -62 19 -76 18 -104 -12 -26 -27 -30 -29 -57 -18
-34 14 -59 10 -81 -15 -15 -16 -19 -17 -43 -4 -37 19 -46 18 -81 -12 -29 -24
-31 -25 -31 -6 0 23 -44 62 -69 62 -9 0 -29 -7 -45 -15 -15 -8 -31 -15 -35
-15 -12 0 -60 86 -69 125 -13 57 -4 73 20 35 18 -30 22 -32 63 -27 32 3 48 0
57 -10 23 -28 58 -35 91 -18 21 10 34 12 41 5 17 -17 72 -11 91 10 13 15 22
17 36 10 32 -18 67 -11 89 17 17 22 28 27 54 25 39 -4 66 18 66 52 0 29 9 38
35 34 17 -3 20 -11 23 -61z m-68 29 c0 -18 -27 -46 -45 -46 -7 0 -21 3 -30 6
-13 5 -8 12 22 29 46 28 53 29 53 11z m-116 -60 c-12 -31 -84 -44 -84 -16 0 8
82 40 88 35 1 -1 0 -10 -4 -19z m-379 5 c19 -8 18 -9 -8 -22 -25 -11 -30 -10
-50 9 l-21 22 29 -1 c17 0 39 -4 50 -8z m123 -21 c25 0 25 0 7 -20 -24 -27
-63 -22 -84 9 l-16 24 34 -6 c18 -4 45 -7 59 -7z m142 0 c0 -5 -11 -17 -25
-26 -21 -14 -30 -14 -55 -4 -44 18 -37 28 23 33 28 2 53 4 55 5 1 1 2 -2 2 -8z
m224 -126 c26 -10 19 -19 -34 -44 -55 -26 -68 -23 -49 12 19 37 45 47 83 32z
m-407 -26 c18 -23 22 -68 6 -68 -17 0 -90 36 -98 49 -15 25 74 42 92 19z m271
-14 c38 -27 30 -35 -50 -50 -34 -5 -38 -4 -38 14 0 20 34 52 55 52 6 0 21 -7
33 -16z m-124 -26 c8 -12 13 -25 10 -30 -6 -10 -114 -11 -114 -1 0 4 10 17 22
30 27 29 62 30 82 1z"/>
<path d="M3553 772 c-99 -145 -57 -232 112 -235 82 -2 119 12 141 55 28 55 5
136 -55 192 -44 42 -48 26 -5 -25 47 -56 57 -84 41 -109 -6 -11 -17 -20 -24
-20 -6 0 -14 -6 -16 -12 -3 -7 -6 -4 -6 7 -1 18 -3 18 -21 -5 -16 -20 -20 -22
-20 -7 0 9 -6 18 -12 19 -36 4 -44 3 -50 -7 -5 -6 -8 -6 -8 3 0 18 -18 15 -23
-5 -4 -17 -5 -17 -6 0 0 9 -5 17 -11 17 -5 0 -10 -8 -11 -17 0 -13 -3 -11 -11
7 -10 24 -10 24 -18 5 -7 -19 -9 -18 -21 9 -13 27 -11 34 24 98 21 39 37 71
35 73 -2 2 -17 -18 -35 -43z"/>
<path d="M5223 735 c0 -22 2 -30 4 -17 2 12 2 30 0 40 -3 9 -5 -1 -4 -23z"/>
<path d="M135 536 c-21 -32 -17 -100 7 -104 12 -2 20 8 28 35 22 72 -2 119
-35 69z"/>
<path d="M261 517 c-6 -8 -12 -32 -14 -53 -2 -33 1 -39 20 -42 27 -4 45 27 41
71 -3 35 -27 47 -47 24z"/>
<path d="M4947 523 c-4 -3 -7 -25 -6 -47 l1 -41 9 44 c9 45 8 56 -4 44z"/>
<path d="M3931 473 c0 -10 4 -27 9 -38 7 -17 9 -15 9 12 1 17 -3 35 -9 38 -5
3 -10 -2 -9 -12z"/>
<path d="M580 446 c0 -30 25 -57 45 -50 18 7 20 45 3 62 -21 21 -48 14 -48
-12z"/>
<path d="M432 448 c-24 -24 -11 -78 19 -78 27 0 44 37 30 66 -12 26 -30 31
-49 12z"/>
<path d="M1622 448 c-18 -18 -14 -63 7 -82 11 -10 31 -16 48 -14 24 3 28 8 31
39 2 24 -3 42 -13 53 -19 19 -56 21 -73 4z"/>
<path d="M4832 435 c0 -16 2 -22 5 -12 2 9 2 23 0 30 -3 6 -5 -1 -5 -18z"/>
<path d="M1032 438 c-29 -29 3 -98 46 -98 24 0 52 31 52 58 0 39 -70 68 -98
40z"/>
<path d="M3576 440 c7 -7 44 -7 110 -2 l99 9 -109 2 c-74 1 -107 -2 -100 -9z"/>
<path d="M1462 433 c-25 -10 -34 -53 -17 -79 17 -26 56 -32 72 -11 23 29 23
48 -2 73 -25 25 -30 26 -53 17z"/>
<path d="M865 406 c-25 -38 -9 -80 33 -84 26 -3 34 1 44 23 10 22 8 30 -9 53
-27 36 -48 39 -68 8z"/>
<path d="M4673 350 c0 -30 2 -43 4 -27 2 15 2 39 0 55 -2 15 -4 2 -4 -28z"/>
<path d="M5106 368 c-11 -34 -17 -72 -11 -66 8 8 25 78 19 78 -3 0 -6 -6 -8
-12z"/>
<path d="M3821 360 c-1 -8 -4 -26 -7 -40 -5 -19 -4 -22 5 -14 7 6 11 24 8 40
-2 16 -5 22 -6 14z"/>
<path d="M3071 330 c0 -8 4 -24 9 -35 5 -13 9 -14 9 -5 0 8 -4 24 -9 35 -5 13
-9 14 -9 5z"/>
<path d="M5332 320 c0 -14 2 -19 5 -12 2 6 2 18 0 25 -3 6 -5 1 -5 -13z"/>
<path d="M2792 305 c0 -16 2 -22 5 -12 2 9 2 23 0 30 -3 6 -5 -1 -5 -18z"/>
<path d="M4181 314 c0 -11 3 -14 6 -6 3 7 2 16 -1 19 -3 4 -6 -2 -5 -13z"/>
<path d="M4418 300 c2 -16 6 -30 8 -30 2 0 4 14 4 30 0 17 -4 30 -8 30 -5 0
-7 -13 -4 -30z"/>
<path d="M5591 289 c1 -24 5 -55 9 -69 6 -16 7 -1 3 40 -7 76 -13 93 -12 29z"/>
<path d="M2390 294 c0 -10 5 -26 10 -34 8 -11 9 -7 4 15 -8 37 -14 45 -14 19z"/>
<path d="M3672 280 c0 -19 2 -27 5 -17 2 9 2 25 0 35 -3 9 -5 1 -5 -18z"/>
<path d="M3382 280 c0 -14 2 -19 5 -12 2 6 2 18 0 25 -3 6 -5 1 -5 -13z"/>
<path d="M1992 260 c0 -14 2 -19 5 -12 2 6 2 18 0 25 -3 6 -5 1 -5 -13z"/>
<path d="M3470 255 c0 -14 5 -25 10 -25 6 0 10 11 10 25 0 14 -4 25 -10 25 -5
0 -10 -11 -10 -25z"/>
<path d="M115 260 c3 -5 18 -10 32 -10 32 0 28 5 -10 14 -19 4 -26 3 -22 -4z"/>
<path d="M3948 196 c-7 -39 -4 -55 8 -44 3 3 4 23 2 44 l-3 39 -7 -39z"/>
<path d="M5243 160 c0 -36 2 -50 4 -32 2 17 2 47 0 65 -2 17 -4 3 -4 -33z"/>
<path d="M530 190 l-25 -8 25 0 c14 0 36 4 50 8 l25 8 -25 0 c-14 0 -36 -4
-50 -8z"/>
<path d="M4202 170 c0 -19 2 -27 5 -17 2 9 2 25 0 35 -3 9 -5 1 -5 -18z"/>
<path d="M4300 169 c0 -19 5 -41 10 -49 7 -10 8 -1 4 30 -8 56 -14 64 -14 19z"/>
<path d="M1010 175 c-32 -12 -33 -14 -9 -14 14 -1 34 6 45 14 23 18 10 18 -36
0z"/>
<path d="M1560 180 c-11 -8 -7 -9 15 -4 37 8 45 14 19 14 -10 0 -26 -5 -34
-10z"/>
<path d="M5127 183 c-4 -3 -7 -22 -6 -42 l1 -36 9 39 c9 39 8 52 -4 39z"/>
<path d="M4612 140 c0 -19 2 -27 5 -17 2 9 2 25 0 35 -3 9 -5 1 -5 -18z"/>
<path d="M5412 140 c0 -19 2 -27 5 -17 2 9 2 25 0 35 -3 9 -5 1 -5 -18z"/>
<path d="M3373 115 c0 -22 2 -30 4 -17 2 12 2 30 0 40 -3 9 -5 -1 -4 -23z"/>
<path d="M2483 90 c0 -30 2 -43 4 -28 2 16 2 40 0 55 -2 16 -4 3 -4 -27z"/>
<path d="M3611 124 c0 -11 3 -14 6 -6 3 7 2 16 -1 19 -3 4 -6 -2 -5 -13z"/>
<path d="M4472 105 c0 -16 2 -22 5 -12 2 9 2 23 0 30 -3 6 -5 -1 -5 -18z"/>
<path d="M4792 110 c0 -14 2 -19 5 -12 2 6 2 18 0 25 -3 6 -5 1 -5 -13z"/>
<path d="M2262 95 c0 -16 2 -22 5 -12 2 9 2 23 0 30 -3 6 -5 -1 -5 -18z"/>
<path d="M3512 100 c0 -14 2 -19 5 -12 2 6 2 18 0 25 -3 6 -5 1 -5 -13z"/>
<path d="M3722 95 c0 -16 2 -22 5 -12 2 9 2 23 0 30 -3 6 -5 -1 -5 -18z"/>
<path d="M2031 94 c0 -11 3 -14 6 -6 3 7 2 16 -1 19 -3 4 -6 -2 -5 -13z"/>
<path d="M2601 94 c0 -11 3 -14 6 -6 3 7 2 16 -1 19 -3 4 -6 -2 -5 -13z"/>
<path d="M5596 95 c-3 -9 -6 -22 -5 -28 0 -7 5 -1 10 12 5 13 8 26 5 28 -2 2
-6 -3 -10 -12z"/>
<path d="M2922 70 c0 -14 2 -19 5 -12 2 6 2 18 0 25 -3 6 -5 1 -5 -13z"/>
<path d="M3091 53 c-1 -18 4 -33 9 -33 12 0 12 17 0 45 -7 17 -9 15 -9 -12z"/>
<path d="M5272 45 c0 -17 2 -22 5 -12 2 9 2 23 0 30 -3 6 -5 -1 -5 -18z"/>
<path d="M3942 40 c0 -14 2 -19 5 -12 2 6 2 18 0 25 -3 6 -5 1 -5 -13z"/>
</g>
</svg>
