<?xml version="1.0" encoding="UTF-8"?>
<svg version="1.1" xmlns="http://www.w3.org/2000/svg" width="1920" height="1920">
<path d="M0 0 C5.28 0 10.56 0 16 0 C16 66 16 132 16 200 C25.57 200 35.14 200 45 200 C51.81129307 200.30733274 58.58280283 200.6581616 65.375 201.1875 C66.24710114 201.25279907 67.11920227 201.31809814 68.01773071 201.38537598 C154.13265054 207.89015746 239.39383181 228.86462644 396 303 C396.98210449 303.57153809 397.96420898 304.14307617 398.97607422 304.73193359 C420.03127511 317.01329177 440.59036551 330.26235883 460.23583984 344.70703125 C462.3020872 346.22140241 464.37980429 347.71947704 466.45703125 349.21875 C476.66971406 356.62605866 486.51426959 364.37007366 496.17822266 372.47802734 C498.66098221 374.55220626 501.17386948 376.58840885 503.6875 378.625 C514.18425775 387.21614364 524.37189312 396.11203049 534.27099609 405.38427734 C536.08745697 407.08172695 537.91237843 408.76974532 539.73828125 410.45703125 C547.14318297 417.32119305 554.4105337 424.30984758 561.5625 431.4375 C562.30008545 432.17049316 563.0376709 432.90348633 563.79760742 433.65869141 C567.80625521 437.67875204 571.63459176 441.79533301 575.34057617 446.09545898 C577.93830389 449.07690285 580.66201419 451.93636141 583.375 454.8125 C588.02639178 459.78318955 592.4515005 464.86221192 596.70703125 470.1796875 C598.83487072 472.7968938 601.02046803 475.34510124 603.23657227 477.88696289 C610.01692605 485.67359599 616.29491801 493.78435208 622.50537109 502.02929688 C623.83871953 503.78734793 625.18784004 505.53048145 626.55078125 507.265625 C644.6554427 530.37795877 660.81167732 555.26387928 675.60253906 580.60644531 C676.52964784 582.19438634 677.46125169 583.77971198 678.39746094 585.36230469 C721.76168894 658.69930929 751.62139002 740.09547414 779.3125 903.25 C779.43460342 904.58984451 779.43460342 904.58984451 779.55917358 905.95675659 C780.4167417 915.5186023 781.11646334 925.08387803 781.60546875 934.671875 C781.64674393 935.44259338 781.6880191 936.21331177 781.73054504 937.00738525 C782.13340664 945.68675928 782 954.28216064 782 963 C843.38 963 904.76 963 968 963 C968 968.28 968 973.56 968 979 C906.62 979 845.24 979 782 979 C782 986.59 782 994.18 782 1002 C781.80832727 1007.53076707 781.58772236 1013.04139835 781.25 1018.5625 C781.20709839 1019.28513031 781.16419678 1020.00776062 781.11999512 1020.75228882 C776.35397158 1099.74838361 759.55651031 1177.78204342 716 1288 C715.24299805 1289.69334473 715.24299805 1289.69334473 714.47070312 1291.42089844 C690.96520674 1343.72285098 661.81746857 1393.40274579 627 1439 C626.23429687 1440.010625 625.46859375 1441.02125 624.6796875 1442.0625 C612.30631136 1458.33254749 599.34336866 1474.23969158 585.484375 1489.26953125 C583.50391475 1491.44616916 581.5602123 1493.64350028 579.62890625 1495.86328125 C570.66974526 1506.12863542 561.1780103 1515.91403593 551.5625 1525.5625 C550.82990967 1526.29968262 550.09731934 1527.03686523 549.3425293 1527.79638672 C545.33222314 1531.79531418 541.22540593 1535.61240052 536.93579102 1539.30932617 C533.76898888 1542.07513583 530.73878019 1544.98320287 527.6875 1547.875 C522.54285081 1552.71304824 517.3073618 1557.33418248 511.78515625 1561.7421875 C509.17827245 1563.8554818 506.64396426 1566.02939254 504.11523438 1568.234375 C496.33252943 1575.01257818 488.22508991 1581.288451 479.98388672 1587.49658203 C478.18768579 1588.857769 476.40479293 1590.23356558 474.62890625 1591.62109375 C452.88362362 1608.58838669 429.73700212 1623.97334833 406 1638 C405.25508301 1638.44118164 404.51016602 1638.88236328 403.74267578 1639.33691406 C325.21652671 1685.68950195 239.94251941 1718.15415833 63 1746 C61.88286621 1746.09716309 60.76573242 1746.19432617 59.61474609 1746.29443359 C45.01970638 1747.42777927 30.77047135 1747 16 1747 C16 1804.09 16 1861.18 16 1920 C10.72 1920 5.44 1920 0 1920 C0 1862.91 0 1805.82 0 1747 C-9.9 1747 -19.8 1747 -30 1747 C-36.48201063 1746.69684893 -42.91531798 1746.35155457 -49.375 1745.8125 C-50.19563934 1745.74720093 -51.01627869 1745.68190186 -51.86178589 1745.61462402 C-139.12795205 1738.63755925 -224.92562267 1717.56789399 -376 1646 C-377.04542969 1645.39945801 -378.09085938 1644.79891602 -379.16796875 1644.18017578 C-407.69218378 1627.76326855 -435.48596784 1609.60648326 -461.38330078 1589.26953125 C-463.09479193 1587.92556357 -464.81086427 1586.58758947 -466.52734375 1585.25 C-481.42324392 1573.62047848 -496.01980832 1561.63296014 -509.88696289 1548.78686523 C-512.50467893 1546.36217669 -515.15309603 1543.99419828 -517.875 1541.6875 C-522.45878441 1537.72965253 -526.66638071 1533.38462939 -530.90185547 1529.0612793 C-533.58785056 1526.33550572 -536.27323895 1523.71163527 -539.23828125 1521.2890625 C-541.47488196 1519.43524635 -543.24122688 1517.73220104 -545.0625 1515.5 C-548.35420506 1511.6291308 -551.88784983 1508.06718988 -555.5 1504.5 C-559.58296757 1500.45842551 -563.54867018 1496.39406623 -567.26953125 1492.01171875 C-569.41533274 1489.51716397 -571.64585677 1487.10781018 -573.875 1484.6875 C-578.79745471 1479.28843848 -583.41533609 1473.68596218 -588 1468 C-589.39550519 1466.31222863 -590.79134569 1464.62473445 -592.1875 1462.9375 C-650.76208189 1391.221838 -695.74971883 1309.18099297 -766 979 C-827.38 979 -888.76 979 -952 979 C-952 973.72 -952 968.44 -952 963 C-890.62 963 -829.24 963 -766 963 C-765.67 952.11 -765.34 941.22 -765 930 C-764.64608057 923.77771376 -764.27366482 917.58137155 -763.75 911.375 C-763.68719849 910.60792725 -763.62439697 909.84085449 -763.55969238 909.05053711 C-758.87301067 852.34541934 -748.1276297 796.26814441 -731 742 C-730.77290344 741.27723877 -730.54580688 740.55447754 -730.31182861 739.80981445 C-713.36236869 685.95448758 -690.66928181 633.67805141 -662 585 C-661.51789063 584.175 -661.03578125 583.35 -660.5390625 582.5 C-654.49433431 572.17495076 -648.17605585 562.02908614 -641.75 551.9375 C-641.1005542 550.91479004 -640.4511084 549.89208008 -639.78198242 548.83837891 C-635.42321751 542.04036613 -630.79085695 535.49853418 -626 529 C-625.15876976 527.82315489 -624.32086045 526.64391873 -623.48828125 525.4609375 C-614.44554356 512.63551062 -604.90573238 500.17107659 -595 488 C-594.30777344 487.14535156 -593.61554688 486.29070312 -592.90234375 485.41015625 C-584.12926681 474.62561546 -575.18411929 464.08279048 -565.69921875 453.91796875 C-563.59938962 451.64796534 -561.56301006 449.3561563 -559.5625 447 C-555.84448282 442.68526401 -551.7749751 438.72198545 -547.70532227 434.7421875 C-545.10591101 432.18392477 -542.6255165 429.61455238 -540.31640625 426.7890625 C-538.46665126 424.56187015 -536.787995 422.80917838 -534.5625 421 C-530.49027696 417.53822406 -526.75416636 413.79784832 -523 410 C-518.75846044 405.71829329 -514.51211701 401.52738256 -509.91015625 397.62890625 C-507.6219606 395.67762284 -505.4090094 393.65182313 -503.1875 391.625 C-498.94911157 387.80402862 -494.60120897 384.15752669 -490.1640625 380.5703125 C-487.7871519 378.64819539 -485.43324057 376.70034731 -483.0859375 374.7421875 C-474.25267211 367.38420652 -465.28984847 360.27642756 -456.01708984 353.47998047 C-454.02249445 352.01650464 -452.03662299 350.54172871 -450.05078125 349.06640625 C-430.12078469 334.36954471 -409.34107151 320.55982 -388 308 C-387.29568848 307.58057129 -386.59137695 307.16114258 -385.86572266 306.72900391 C-316.51124464 265.45651743 -240.92343931 235.59299667 -49.25 201.25 C-48.39408264 201.18470093 -47.53816528 201.11940186 -46.65631104 201.05212402 C-31.04252558 199.88284779 -15.72888954 200 0 200 C0 134 0 68 0 0 Z M-51.125 213.1875 C-52.32027817 213.28594711 -52.32027817 213.28594711 -53.53970337 213.38638306 C-142.0123358 220.70300222 -228.38215296 243.26960228 -419 342 C-419.74008301 342.5057959 -420.48016602 343.0115918 -421.24267578 343.53271484 C-439.55066459 356.07895068 -457.16925087 369.47670018 -474.29101562 383.59521484 C-475.87988323 384.90126401 -477.47862053 386.19528081 -479.078125 387.48828125 C-484.42233392 391.80992506 -489.59810272 396.26694386 -494.6796875 400.89453125 C-496.70154184 402.72917685 -498.74678522 404.52768786 -500.8125 406.3125 C-511.85981901 415.97035639 -522.33771872 426.17696659 -532.6953125 436.56494141 C-534.88948502 438.76452072 -537.08901723 440.95864007 -539.2890625 443.15234375 C-540.71125856 444.5752 -542.13314471 445.99836609 -543.5546875 447.421875 C-544.52207352 448.38622467 -544.52207352 448.38622467 -545.50900269 449.37005615 C-549.32201988 453.20251579 -552.95189894 457.14720949 -556.48101807 461.24290466 C-558.56016273 463.64797303 -560.71785539 465.97740912 -562.875 468.3125 C-566.96880209 472.80148057 -570.85469667 477.41243476 -574.66796875 482.140625 C-576.704559 484.63775073 -578.78271765 487.09172254 -580.88427734 489.53417969 C-587.94372727 497.75716426 -594.49586596 506.33470595 -601 515 C-601.55558594 515.73460449 -602.11117187 516.46920898 -602.68359375 517.22607422 C-612.67763076 530.4543247 -621.94738346 544.11359371 -631 558 C-631.61939453 558.94842773 -632.23878906 559.89685547 -632.87695312 560.87402344 C-641.40991997 573.98376341 -649.40079745 587.32959837 -657 601 C-657.47614746 601.84933105 -657.95229492 602.69866211 -658.44287109 603.57373047 C-694.49563042 667.96149576 -720.60483612 737.31298885 -754 963 C-719.68 963 -685.36 963 -650 963 C-649.34 949.14 -648.68 935.28 -648 921 C-640.64406405 841.92368855 -621.59166756 766.09987024 -588 694 C-587.58282715 693.09862305 -587.1656543 692.19724609 -586.73583984 691.26855469 C-565.09297687 644.64698917 -537.16663133 601.05098727 -505 561 C-504.26652344 560.08347656 -503.53304687 559.16695312 -502.77734375 558.22265625 C-490.61071886 543.1855028 -477.79908783 528.61180415 -464.0078125 515.04296875 C-462.09389827 513.09554241 -460.32397901 511.08509957 -458.5625 509 C-455.21031762 505.0916952 -451.47395004 501.75723221 -447.61328125 498.359375 C-444.94015612 495.94597055 -442.40378991 493.43875013 -439.875 490.875 C-435.73893523 486.70051977 -431.47329232 482.8060894 -427 479 C-425.96024803 478.09714757 -424.92124927 477.19342733 -423.8828125 476.2890625 C-416.40289376 469.79513305 -408.76556944 463.56036089 -400.93066406 457.50097656 C-398.83788776 455.87396737 -396.75829511 454.23100433 -394.6796875 452.5859375 C-385.68845477 445.49168772 -376.56365288 438.72791761 -367.04052734 432.36523438 C-364.93359983 430.95557433 -362.83561544 429.53326198 -360.73828125 428.109375 C-313.50745774 396.16823586 -262.78619587 370.77936522 -209 352 C-207.8543457 351.59797363 -206.70869141 351.19594727 -205.52832031 350.78173828 C-158.18192831 334.27109684 -108.97615942 323.88848198 -59.125 318.75 C-58.03304825 318.63416565 -58.03304825 318.63416565 -56.91903687 318.51599121 C-37.9989592 316.5454574 -18.99615919 315.97416201 0 315 C0 281.01 0 247.02 0 212 C-25.63840363 211.85221303 -25.63840363 211.85221303 -51.125 213.1875 Z M16 212 C16 245.99 16 279.98 16 315 C27.7871875 315.61875 27.7871875 315.61875 39.8125 316.25 C70.89894103 317.99372687 101.40116777 321.06032169 132 327 C133.29583008 327.25120605 134.59166016 327.50241211 135.92675781 327.76123047 C204.59888637 341.21408718 272.0630222 365.34686708 332.59814453 400.60742188 C334.6795024 401.81417785 336.76969397 403.0005112 338.87109375 404.171875 C377.46080331 425.7642674 412.99620028 452.6707124 446 482 C446.71929688 482.63808594 447.43859375 483.27617187 448.1796875 483.93359375 C479.01343289 511.48177611 479.01343289 511.48177611 491.140625 525.859375 C493.25267553 528.29089536 495.44777085 530.63197215 497.65283203 532.97900391 C503.7237755 539.4423985 509.46448097 546.06776374 515 553 C516.47780494 554.79279001 517.95699376 556.5844401 519.4375 558.375 C579.03753013 631.35672946 622.11410248 717.71258172 667 963 C700.99 963 734.98 963 770 963 C770 948.75519476 769.85123514 934.79155825 768.8125 920.625 C768.74686859 919.71168915 768.68123718 918.7983783 768.61361694 917.85739136 C762.53301409 834.39840066 742.85785139 751.99766606 700.35644531 653.85253906 C698.95012048 650.89510578 697.56433236 647.92857593 696.1796875 644.9609375 C684.53278646 620.16304597 671.42869522 596.28511449 657 573 C656.40832031 572.04367676 655.81664062 571.08735352 655.20703125 570.10205078 C646.91233578 556.75134474 638.18006048 543.75703924 629 531 C628.41718262 530.18901855 627.83436523 529.37803711 627.23388672 528.54248047 C619.60984494 517.97235575 611.6775854 507.72188681 603.37646484 497.67626953 C601.53388938 495.43236688 599.73538319 493.15479002 597.9375 490.875 C590.66936106 481.76682588 582.97802449 472.98718102 575.14453125 464.36328125 C573.67479074 462.74362186 572.21428095 461.11555185 570.76171875 459.48046875 C566.363736 454.53558659 561.83255677 449.7984832 557.12109375 445.15234375 C555.13941548 443.14146948 553.27741286 441.0778068 551.4375 438.9375 C546.1142483 432.75565932 540.31521845 427.2236582 534.1328125 421.9140625 C531.66067964 419.69548172 529.33437822 417.36293331 527 415 C522.82169878 410.78371422 518.52179027 406.84084385 514 403 C512.94871394 402.09694151 511.89797965 401.19324046 510.84765625 400.2890625 C507.8385083 397.70023863 504.82242836 395.11964767 501.80371094 392.54199219 C500.08795684 391.07519428 498.37582907 389.60425967 496.6640625 388.1328125 C489.91596466 382.35163667 483.02240622 376.80313052 475.92578125 371.453125 C473.75881022 369.8180069 471.59846438 368.1742973 469.4375 366.53125 C452.43098959 353.64395189 435.04950775 341.3837423 417 330 C415.80818115 329.24468994 415.80818115 329.24468994 414.59228516 328.47412109 C392.38016053 314.42790106 369.46214277 301.83047297 346 290 C344.92830566 289.45875488 343.85661133 288.91750977 342.75244141 288.35986328 C265.89837706 249.80976146 181.07611771 225.71955081 76 214 C74.75428223 213.88140625 73.50856445 213.7628125 72.22509766 213.640625 C53.43555294 211.91874118 34.9446242 212 16 212 Z M-43.3125 328.1875 C-44.10505188 328.25313141 -44.89760376 328.31876282 -45.71417236 328.38638306 C-133.07725086 335.68946961 -216.92055907 361.03363341 -340 428 C-340.9398877 428.61246582 -341.87977539 429.22493164 -342.84814453 429.85595703 C-365.18326254 444.45395456 -386.65662701 460.05201305 -406.93359375 477.40234375 C-409.65770986 479.72652742 -412.44669993 481.95923584 -415.25 484.1875 C-429.05313686 495.50058234 -441.50538909 508.4086414 -454.125 521 C-455.14865662 522.01963837 -455.14865662 522.01963837 -456.19299316 523.05987549 C-466.4077704 533.2393479 -466.4077704 533.2393479 -476 544 C-477.04434555 545.19232444 -478.09124287 546.38241842 -479.140625 547.5703125 C-485.4032544 554.71510044 -491.44959575 561.9728221 -497.26171875 569.48828125 C-499.10536018 571.86929208 -500.98277582 574.21630813 -502.89453125 576.54296875 C-510.29205285 585.568286 -516.92852576 594.98399151 -523.4230957 604.67553711 C-525.07729412 607.11393673 -526.76915902 609.52273868 -528.46875 611.9296875 C-539.28718805 627.33803653 -548.88830892 643.53842085 -558 660 C-558.55155762 660.9895166 -559.10311523 661.9790332 -559.67138672 662.99853516 C-577.98156979 695.94653453 -592.74572558 730.37428508 -605 766 C-605.35771484 767.02448242 -605.71542969 768.04896484 -606.08398438 769.10449219 C-627.80895501 831.7636759 -636.64203756 896.97705167 -639 963 C-604.68 963 -570.36 963 -535 963 C-534.34 951.45 -533.68 939.9 -533 928 C-522.37701068 819.01599844 -482.61810106 717.25729446 -399.1953125 614.40625 C-397.3356811 612.36793516 -395.51729337 610.30454654 -393.70703125 608.22265625 C-383.05234358 596.02113726 -371.73870159 584.55803647 -359.78515625 573.63232422 C-358.16256188 572.14864452 -356.54854249 570.6563532 -354.9375 569.16015625 C-348.81960999 563.52022639 -342.50352914 558.1888934 -336 553 C-335.23743896 552.38801758 -335.23743896 552.38801758 -334.45947266 551.76367188 C-307.67794091 530.29912211 -279.23061297 511.6199704 -249.12988281 495.16699219 C-247.20418347 494.11187494 -245.28515286 493.04564469 -243.3671875 491.9765625 C-168.21437441 450.78542334 -84.66624948 435.29164059 0 430 C0 396.01 0 362.02 0 327 C-21.71857672 326.97255715 -21.71857672 326.97255715 -43.3125 328.1875 Z M16 327 C16 360.99 16 394.98 16 430 C30.52 430.99 45.04 431.98 60 433 C152.99622325 442.57314063 243.47960621 473.99354294 338 542 C338.60682617 542.46647949 339.21365234 542.93295898 339.83886719 543.41357422 C351.7339737 552.58365498 363.18146827 562.19413462 374.19140625 572.41015625 C376.63855306 574.6667047 379.12251038 576.8680091 381.625 579.0625 C386.64135467 583.56498419 391.41383075 588.30475907 396.1875 593.0625 C396.94820801 593.81861572 397.70891602 594.57473145 398.49267578 595.35375977 C402.64829887 599.52071719 406.63865521 603.7741841 410.47875977 608.23364258 C412.401478 610.46616808 414.38710027 612.63799666 416.375 614.8125 C421.10518353 620.0620449 425.58457528 625.48436219 430 631 C430.41475586 631.5151416 430.82951172 632.0302832 431.25683594 632.56103516 C490.83862816 706.69082706 529.58140188 795.26613821 550.65893555 952.40429688 C550.69027588 953.21447266 550.72161621 954.02464844 550.75390625 954.859375 C550.77783447 955.56545898 550.8017627 956.27154297 550.82641602 956.99902344 C550.97820147 959.35985922 550.97820147 959.35985922 552 963 C585.99 963 619.98 963 655 963 C655 953.17351537 654.89445945 943.53077209 654.25 933.75 C654.18564758 932.77238708 654.18564758 932.77238708 654.11999512 931.77502441 C651.59169374 894.0945221 645.97852077 856.69086441 637 820 C636.71962891 818.8538623 636.43925781 817.70772461 636.15039062 816.52685547 C620.9218201 755.21757181 596.8043171 696.01999736 564 642 C563.46165527 641.10522949 562.92331055 640.21045898 562.36865234 639.28857422 C547.60275807 614.77745892 531.41116482 590.93299749 513 569 C511.56101857 567.23037027 510.12356286 565.45949899 508.6875 563.6875 C499.78777932 552.82210188 490.57474413 542.27526152 481 532 C480.41814941 531.37303223 479.83629883 530.74606445 479.23681641 530.10009766 C464.83715634 514.46127768 464.83715634 514.46127768 449.28125 500 C446.80741433 497.83115777 444.41133871 495.59188305 442.01367188 493.33959961 C436.49745609 488.16040396 430.92378373 483.15152698 425.01171875 478.421875 C422.72102101 476.57980937 420.45823738 474.71742061 418.20703125 472.828125 C407.78402814 464.09996925 397.04390909 455.92492473 386 448 C385.20754883 447.42781738 384.41509766 446.85563477 383.59863281 446.26611328 C364.3744193 432.42014885 344.28386066 419.97627796 323.59326172 408.44726562 C320.98434012 406.99126042 318.38492102 405.51915365 315.78515625 404.046875 C301.22815071 395.87797408 286.22746277 388.8225722 271 382 C269.88415527 381.4946875 268.76831055 380.989375 267.61865234 380.46875 C202.09613968 350.91579758 130.83154159 334.07223791 59.3125 328.1875 C58.57135956 328.12406403 57.83021912 328.06062805 57.06661987 327.99526978 C43.31711444 326.84211019 29.87408705 327 16 327 Z M-30.875 442.6875 C-32.47214844 442.81668823 -32.47214844 442.81668823 -34.1015625 442.94848633 C-113.70805923 449.89942124 -191.05976505 473.34777392 -260 514 C-261.44270264 514.84715576 -261.44270264 514.84715576 -262.91455078 515.71142578 C-286.98000836 529.90551871 -309.57915521 546.06553904 -331 564 C-331.49918945 564.41427246 -331.99837891 564.82854492 -332.51269531 565.25537109 C-345.73645384 576.23182217 -358.15621188 587.96937769 -370.30371094 600.1184082 C-372.25697528 602.06946741 -374.21815254 604.01233836 -376.1796875 605.95507812 C-382.53823754 612.28590295 -388.62045561 618.63627278 -394.17138672 625.69775391 C-395.99088414 627.98852303 -397.90080413 630.15452886 -399.875 632.3125 C-460.83245271 700.34965686 -500.04639996 791.15025943 -522.25 929.5 C-522.33016357 930.34449707 -522.41032715 931.18899414 -522.49291992 932.05908203 C-523.32993435 942.40073071 -523 952.54969732 -523 963 C-493.63 963 -464.26 963 -434 963 C-433.46375 956.3175 -432.9275 949.635 -432.375 942.75 C-425.45618661 862.67824153 -400.5981023 784.5404189 -353 719 C-352.45633789 718.24283691 -351.91267578 717.48567383 -351.35253906 716.70556641 C-341.97828315 703.66369169 -332.08933744 691.3794507 -321.265625 679.51171875 C-320.02018146 678.13099427 -318.78120567 676.74395373 -317.57324219 675.33032227 C-312.71427453 669.66128492 -307.52711122 664.34094754 -302.24951172 659.06420898 C-300.76106763 657.57358385 -299.28082723 656.07512983 -297.80078125 654.57617188 C-292.26865581 649.01198263 -286.58367523 643.85749314 -280.44287109 638.95483398 C-277.8841093 636.90726196 -275.42451834 634.77508706 -272.97167969 632.60351562 C-264.44752849 625.08316326 -255.33214138 618.47536341 -246 612 C-245.27296875 611.4946875 -244.5459375 610.989375 -243.796875 610.46875 C-208.72544684 586.24675645 -170.56773263 567.1020875 -130 554 C-129.09572266 553.70287109 -128.19144531 553.40574219 -127.25976562 553.09960938 C-97.79243272 543.47291485 -67.61461972 537.50081707 -36.8125 534.3125 C-35.66265625 534.19293945 -34.5128125 534.07337891 -33.328125 533.95019531 C-22.20507811 532.87828158 -11.20960625 532.50952756 0 532 C0 502.3 0 472.6 0 442 C-15.48008556 441.92328419 -15.48008556 441.92328419 -30.875 442.6875 Z M16 442 C16 471.7 16 501.4 16 532 C27.55 532.66 39.1 533.32 51 534 C139.74953759 543.62344383 223.39719497 577.21904591 292 635 C292.54366211 635.45342773 293.08732422 635.90685547 293.64746094 636.37402344 C300.98705513 642.5019501 307.96643326 648.80874584 314.6484375 655.6484375 C316.57641369 657.57641369 318.50974926 659.34824466 320.625 661.0625 C323 663 323 663 324 665 C324.66 665 325.32 665 326 665 C326.24621094 665.57621094 326.49242187 666.15242187 326.74609375 666.74609375 C328.20162099 669.3624153 329.88608731 671.00891836 332.0625 673.0625 C336.26241636 677.16863832 339.97084772 681.49420336 343.63671875 686.078125 C345.65688103 688.57578018 347.72975445 691.01291423 349.83642578 693.4375 C361.84955273 707.33052719 372.31193498 722.41787866 382 738 C382.37398926 738.59635254 382.74797852 739.19270508 383.13330078 739.80712891 C425.83546173 808.15738295 444.68965918 883.34488769 450 963 C479.7 963 509.4 963 540 963 C539.21423604 940.15153272 539.21423604 940.15153272 537.3125 917.4375 C537.22663635 916.64672058 537.14077271 915.85594116 537.05230713 915.04119873 C526.80167317 821.63394429 491.44100027 733.19254392 415 631 C414.41766602 630.31325195 413.83533203 629.62650391 413.23535156 628.91894531 C411.51701224 626.89910947 409.79194195 624.88533456 408.0625 622.875 C407.55517334 622.28364258 407.04784668 621.69228516 406.52514648 621.08300781 C403.36559155 617.44457555 400.06493759 614.0042705 396.6171875 610.63745117 C394.96864293 608.96825002 393.44840208 607.23147085 391.9375 605.4375 C384.64323643 596.98803632 376.55543134 588.95972904 368.03125 581.75390625 C365.93254498 579.94175518 363.91011699 578.05802212 361.88696289 576.16235352 C355.96093637 570.62673856 349.77398409 565.56120406 343.35546875 560.609375 C340.42769698 558.3489933 337.58354057 556.00291766 334.75 553.625 C262.49086951 494.38931745 170.88803298 459.14454424 51 443 C50.19594727 442.92942383 49.39189453 442.85884766 48.56347656 442.78613281 C37.67891828 441.86486926 26.96040386 442 16 442 Z M-223.875 744.625 C-224.40965881 745.15421051 -224.94431763 745.68342102 -225.49517822 746.22866821 C-232.46813031 753.14866694 -238.91021348 760.27401189 -245 768 C-245.95272198 769.16936003 -246.90688362 770.33755055 -247.86328125 771.50390625 C-259.28783101 785.77092772 -269.01761512 801.1005369 -278 817 C-278.36657715 817.63599121 -278.7331543 818.27198242 -279.11083984 818.92724609 C-304.0948125 862.47266277 -315.92414102 913.17938451 -318 963 C-311.73 963 -305.46 963 -299 963 C-298.85304688 960.74542969 -298.85304688 960.74542969 -298.703125 958.4453125 C-292.93476219 875.62666465 -258.03995548 797.77239553 -195.16015625 742.50390625 C-192.47319733 740.29042026 -189.74564052 738.14015253 -187 736 C-185.94514613 735.14503777 -184.89182817 734.28817796 -183.83984375 733.4296875 C-174.64407333 725.98032269 -164.98190545 719.34973468 -155 713 C-153.99791504 712.36046387 -153.99791504 712.36046387 -152.97558594 711.70800781 C-118.49430697 689.95668576 -79.18401651 676.22370314 -39 670 C-37.72640625 669.79761719 -36.4528125 669.59523438 -35.140625 669.38671875 C-23.49100438 667.69105175 -11.731365 666.91211605 0 666 C0 660.06 0 654.12 0 648 C-83.46640926 645.30753519 -165.8479489 686.95922741 -223.875 744.625 Z M16 648 C16 653.94 16 659.88 16 666 C18.05734375 666.15855469 20.1146875 666.31710937 22.234375 666.48046875 C95.88301508 672.37756466 162.73117455 697.82121059 217.27734375 748.5 C219.41480872 750.46266511 221.57367288 752.34434926 223.8125 754.1875 C226.87201943 756.7774529 229.42864165 759.65463416 232.015625 762.7109375 C233.42354477 764.33503393 234.87678391 765.92033278 236.359375 767.4765625 C284.28327155 817.81083255 310.12796537 887.15364906 314.76635742 955.7019043 C315.01590698 958.15646015 315.51614054 960.58070269 316 963 C321.94 963 327.88 963 334 963 C331.89872717 889.45545085 304.69278808 817.39001622 256 762 C255.38898438 761.28972656 254.77796875 760.57945312 254.1484375 759.84765625 C252.45115506 757.88090005 250.72933863 755.93862165 249 754 C248.23816406 753.13375 247.47632813 752.2675 246.69140625 751.375 C235.8189191 739.22624764 223.89847607 727.97971522 211 718 C210.4234668 717.55092285 209.84693359 717.1018457 209.25292969 716.63916016 C194.90639284 705.50592066 179.8751997 695.72196725 163.92333984 687.04980469 C162.05182491 686.02828727 160.19147749 684.98859911 158.33203125 683.9453125 C148.54027791 678.51100116 138.41142735 674.10667422 128 670 C127.1558252 669.66468262 126.31165039 669.32936523 125.44189453 668.98388672 C110.2851972 663.0301831 94.84185754 658.72400027 79 655 C78.10571289 654.78859375 77.21142578 654.5771875 76.29003906 654.359375 C56.57873768 649.80291642 36.22745449 647.39918452 16 648 Z M-24.0625 781.625 C-25.04347656 781.8017627 -26.02445313 781.97852539 -27.03515625 782.16064453 C-36.9280024 784.03308239 -46.48473632 786.72735464 -56 790 C-56.98009033 790.33572021 -56.98009033 790.33572021 -57.97998047 790.67822266 C-82.38402811 799.25711995 -104.05379544 813.5764077 -123 831 C-123.5460791 831.50080078 -124.0921582 832.00160156 -124.65478516 832.51757812 C-147.78379334 854.00676639 -163.69684411 881.40644012 -174 911 C-174.25410645 911.72413086 -174.50821289 912.44826172 -174.77001953 913.19433594 C-177.88752888 922.28039167 -179.75634247 931.46463374 -181.3125 940.9375 C-181.48426758 941.9800293 -181.65603516 943.02255859 -181.83300781 944.09667969 C-181.98737305 945.10504883 -182.14173828 946.11341797 -182.30078125 947.15234375 C-182.43653564 948.03913818 -182.57229004 948.92593262 -182.7121582 949.83959961 C-183.11014587 954.20936243 -183 958.61215072 -183 963 C-147.03 963 -111.06 963 -74 963 C-71.03 952.605 -71.03 952.605 -68 942 C-58.35130769 921.61324689 -44.13666484 905.53735976 -22.86523438 897.15917969 C-15.37807772 894.48617555 -7.76374766 892.72527726 0 891 C0 854.37 0 817.74 0 780 C-8.51356061 780 -15.86080292 780.11332035 -24.0625 781.625 Z M16 780 C16 816.63 16 853.26 16 891 C22.6 892.65 29.2 894.3 36 896 C57.63289298 905.71912583 74.02461794 918.91194758 83.8125 940.875 C86.38815463 948.08683295 88.14266904 955.57067615 90 963 C125.97 963 161.94 963 199 963 C199 954.48643939 198.88667965 947.13919708 197.375 938.9375 C197.1982373 937.95652344 197.02147461 936.97554687 196.83935547 935.96484375 C194.96691761 926.0719976 192.27264536 916.51526368 189 907 C188.66427979 906.01990967 188.66427979 906.01990967 188.32177734 905.02001953 C175.82194093 869.46223245 150.86924346 836.6122031 120 815 C119.42072754 814.5870166 118.84145508 814.1740332 118.24462891 813.74853516 C88.61172661 792.70718574 52.37216658 780 16 780 Z M16 903 C16 922.8 16 942.6 16 963 C36.46 963 56.92 963 78 963 C75.77075639 945.1660511 66.76763524 929.55239168 53 918 C42.64541018 910.33549955 29.21536606 903 16 903 Z M-43.953125 924.859375 C-53.74007638 935.17535078 -60.01029822 949.07208752 -62 963 C-41.54 963 -21.08 963 0 963 C0 943.2 0 923.4 0 903 C-16.53548205 903 -32.51930002 913.97437362 -43.953125 924.859375 Z M-754 979 C-754 990.62671205 -753.94127911 1002.15667524 -753.3125 1013.75 C-753.27087738 1014.52057739 -753.22925476 1015.29115479 -753.18637085 1016.08508301 C-748.43705754 1101.16646763 -729.48009067 1185.42051519 -652 1355 C-651.15072082 1356.47898247 -650.30174135 1357.95813711 -649.453125 1359.4375 C-635.03910608 1384.41263284 -618.8695371 1408.36734827 -601.33642578 1431.25488281 C-600.05061623 1432.93390486 -598.77256154 1434.6185579 -597.49609375 1436.3046875 C-584.01895397 1454.04415134 -569.65384093 1471.03440177 -554.49780273 1487.35864258 C-553.40856818 1488.5522732 -552.33449121 1489.75978999 -551.26977539 1490.9753418 C-544.25304028 1498.93989691 -536.7476162 1506.4036771 -529.23413086 1513.89624023 C-526.9355279 1516.18946748 -524.6423397 1518.4880124 -522.34960938 1520.78710938 C-520.86750813 1522.26855 -519.3850968 1523.7496805 -517.90234375 1525.23046875 C-517.22815903 1525.9066777 -516.5539743 1526.58288666 -515.85935974 1527.27958679 C-511.94646419 1531.17353751 -507.92920796 1534.89028028 -503.74569702 1538.49241638 C-501.34361575 1540.56685332 -499.01866303 1542.72148392 -496.6875 1544.875 C-491.79965077 1549.32822515 -486.76165237 1553.53596932 -481.61523438 1557.68505859 C-479.81973508 1559.14675134 -478.04196049 1560.62836177 -476.265625 1562.11328125 C-445.66082412 1587.65228205 -412.82053789 1610.50967442 -378.39355469 1630.60253906 C-376.80561366 1631.52964784 -375.22028802 1632.46125169 -373.63769531 1633.39746094 C-349.3029533 1647.78661286 -323.93823267 1660.76037701 -298 1672 C-296.38738281 1672.70020264 -296.38738281 1672.70020264 -294.7421875 1673.41455078 C-221.71921496 1704.87947817 -144.42908549 1724.64587487 -58.0546875 1733.203125 C-57.36198257 1733.26955704 -56.66927765 1733.33598907 -55.95558167 1733.4044342 C-37.29945716 1735.12597405 -18.75969793 1735.44824418 0 1736 C0 1701.68 0 1667.36 0 1632 C-13.2 1631.34 -26.4 1630.68 -40 1630 C-62.65792284 1628.0201815 -62.65792284 1628.0201815 -69.00390625 1627.25390625 C-69.80083389 1627.15856094 -70.59776154 1627.06321564 -71.4188385 1626.96498108 C-111.04379722 1622.10894706 -149.91047968 1613.93669165 -188 1602 C-188.66666687 1601.79117188 -189.33333374 1601.58234375 -190.02020264 1601.3671875 C-220.64844867 1591.73572095 -250.07070737 1579.97830349 -279 1566 C-280.17336914 1565.43522949 -281.34673828 1564.87045898 -282.55566406 1564.28857422 C-299.16139153 1556.25771257 -315.2440135 1547.58958107 -331 1538 C-332.00546875 1537.3901123 -333.0109375 1536.78022461 -334.046875 1536.15185547 C-348.07085032 1527.61155705 -361.69598573 1518.622131 -375 1509 C-375.83466797 1508.39736328 -376.66933594 1507.79472656 -377.52929688 1507.17382812 C-386.91727636 1500.37563609 -396.12089222 1493.4533687 -405 1486 C-406.76962973 1484.56101857 -408.54050101 1483.12356286 -410.3125 1481.6875 C-423.50767469 1470.87609086 -436.48234692 1459.74331177 -448.421875 1447.54296875 C-450.06875881 1445.93277295 -451.79393706 1444.47504094 -453.5625 1443 C-458.34895169 1438.88664308 -462.55041266 1434.23599915 -466.81274414 1429.59375 C-470.25849064 1425.84274602 -473.76848024 1422.18611477 -477.40136719 1418.61547852 C-480.43052262 1415.55440315 -483.19908845 1412.26861595 -486 1409 C-486.8837913 1407.98018849 -487.76793245 1406.96068012 -488.65234375 1405.94140625 C-501.47105607 1391.12991406 -513.54607873 1375.89273076 -525 1360 C-525.79519043 1358.89906006 -525.79519043 1358.89906006 -526.60644531 1357.77587891 C-543.76528921 1333.95251852 -559.09421487 1308.85216806 -573 1283 C-573.45407227 1282.1642041 -573.90814453 1281.3284082 -574.37597656 1280.46728516 C-613.56994887 1208.1081632 -637.15613047 1127.17281999 -650 979 C-684.32 979 -718.64 979 -754 979 Z M-639 979 C-638.39107782 1004.23725379 -638.39107782 1004.23725379 -636.75 1029.375 C-636.68719849 1030.07682404 -636.62439697 1030.77864807 -636.55969238 1031.5017395 C-628.83479752 1117.12247792 -604.25787388 1201.46552966 -530 1333 C-529.28481201 1334.07072754 -529.28481201 1334.07072754 -528.55517578 1335.16308594 C-516.39657094 1353.28396078 -503.16079663 1370.74401668 -488.97314453 1387.32592773 C-486.18539904 1390.58423517 -483.48120598 1393.8925957 -480.8125 1397.25 C-469.49941766 1411.05313686 -456.5913586 1423.50538909 -444 1436.125 C-443.32024109 1436.80743774 -442.64048218 1437.48987549 -441.94012451 1438.19299316 C-431.76877795 1448.41671857 -431.76877795 1448.41671857 -421 1458 C-419.91663404 1458.93726153 -418.83457552 1459.8760367 -417.75390625 1460.81640625 C-402.62389494 1473.86301006 -387.22750383 1486.33626828 -371 1498 C-370.26749023 1498.52867676 -369.53498047 1499.05735352 -368.78027344 1499.60205078 C-288.99799142 1557.07050719 -196.15341881 1595.70335314 0 1620 C0 1586.01 0 1552.02 0 1517 C-22.275 1515.515 -22.275 1515.515 -45 1514 C-67.99836395 1511.56998419 -90.42337184 1507.87216193 -113 1503 C-114.21042969 1502.73880371 -115.42085937 1502.47760742 -116.66796875 1502.20849609 C-148.68075535 1495.1133018 -180.07746399 1484.34551098 -210 1471 C-211.1638623 1470.48469727 -212.32772461 1469.96939453 -213.52685547 1469.43847656 C-238.35540727 1458.38012473 -262.15235655 1445.72508159 -285 1431 C-285.5887793 1430.62182129 -286.17755859 1430.24364258 -286.78417969 1429.85400391 C-290.23139613 1427.6285184 -293.62383679 1425.33158007 -297 1423 C-297.91797363 1422.36940674 -297.91797363 1422.36940674 -298.85449219 1421.72607422 C-313.83869743 1411.40580283 -328.24651717 1400.38245589 -342.04296875 1388.51953125 C-344.90393367 1386.08185308 -347.81636054 1383.72434613 -350.75 1381.375 C-355.0788608 1377.85662257 -359.00840264 1374.09859641 -362.8984375 1370.10546875 C-364.80438122 1368.19598238 -366.75780854 1366.43356497 -368.8125 1364.6875 C-376.47211543 1358.10023073 -383.62309876 1350.80469781 -390.16796875 1343.11328125 C-392.04890907 1340.94358251 -393.98914739 1338.8353431 -395.94287109 1336.73120117 C-401.55410247 1330.68281795 -406.84341679 1324.44359819 -412 1318 C-412.92240375 1316.86916043 -413.84562196 1315.73898485 -414.76953125 1314.609375 C-473.4949487 1242.48189133 -511.18181633 1155.63685454 -535 979 C-569.32 979 -603.64 979 -639 979 Z M-523 979 C-523.13917225 1000.69180614 -523.13917225 1000.69180614 -521.8125 1022.1875 C-521.74753326 1022.85913177 -521.68256653 1023.53076355 -521.6156311 1024.2227478 C-512.84438109 1114.58116966 -481.07569075 1202.8551564 -414 1297 C-413.38439209 1297.8048584 -413.38439209 1297.8048584 -412.75634766 1298.62597656 C-399.65095902 1315.71567915 -385.35814302 1331.90265564 -370 1347 C-367.08668802 1349.90328337 -364.18719499 1352.81990796 -361.29296875 1355.7421875 C-359.9245318 1357.11984395 -358.55604103 1358.49744694 -357.1875 1359.875 C-356.51396484 1360.55691406 -355.84042969 1361.23882813 -355.14648438 1361.94140625 C-350.6005845 1366.50905685 -345.8972432 1370.81301454 -341 1375 C-339.99078214 1375.8774854 -338.98165914 1376.75507992 -337.97265625 1377.6328125 C-329.24331464 1385.10840974 -320.19463894 1392.10777941 -311 1399 C-310.36304199 1399.47969238 -309.72608398 1399.95938477 -309.06982422 1400.45361328 C-240.02600268 1452.34098114 -157.62887486 1486.89844502 -34 1504 C-32.85966309 1504.10747559 -31.71932617 1504.21495117 -30.54443359 1504.32568359 C-20.27936186 1505.18422776 -10.41614552 1505 0 1505 C0 1475.63 0 1446.26 0 1416 C-3.54928723 1415.11267819 -6.48813148 1414.78275177 -10.1171875 1414.60546875 C-11.34864502 1414.53932373 -12.58010254 1414.47317871 -13.84887695 1414.4050293 C-14.50393219 1414.37017426 -15.15898743 1414.33531921 -15.83389282 1414.29940796 C-89.38265211 1410.2669438 -160.09332952 1388.26635337 -223 1350 C-224.47261526 1349.11711913 -225.94526806 1348.23430086 -227.41796875 1347.3515625 C-247.99341571 1334.88340385 -266.95861288 1319.8664158 -285 1304 C-285.91523437 1303.19820312 -286.83046875 1302.39640625 -287.7734375 1301.5703125 C-294.28320053 1295.73204365 -300.51528443 1289.61104398 -306.72167969 1283.45355225 C-308.14381295 1282.04332142 -309.56989288 1280.63707405 -310.99609375 1279.23095703 C-316.29990182 1273.93377872 -321.19481075 1268.48138354 -325.87231445 1262.62475586 C-327.88846059 1260.13759727 -329.9771725 1257.75252241 -332.125 1255.37890625 C-335.99255856 1251.06898612 -339.53790148 1246.57726398 -343 1241.9375 C-343.95277832 1240.66144897 -343.95277832 1240.66144897 -344.92480469 1239.35961914 C-398.75543623 1166.49084371 -426.67449165 1082.94892826 -433 993 C-433.33 988.38 -433.66 983.76 -434 979 C-463.37 979 -492.74 979 -523 979 Z M-318 979 C-316.42110854 1059.36557535 -285.24942397 1142.68123952 -226.78125 1199.2890625 C-225.89953125 1200.13597656 -225.89953125 1200.13597656 -225 1201 C-222.33044876 1203.65169471 -219.68223506 1206.32243138 -217.0546875 1209.015625 C-210.37853683 1215.83005464 -203.57416177 1222.17372172 -196 1228 C-195.40848145 1228.45729492 -194.81696289 1228.91458984 -194.20751953 1229.38574219 C-163.25609819 1253.23806943 -129.20280006 1271.82557738 -92 1284 C-90.69240723 1284.4343335 -90.69240723 1284.4343335 -89.35839844 1284.87744141 C-69.08112374 1291.54625475 -48.15579041 1295.39927668 -27 1298 C-25.948125 1298.13277344 -24.89625 1298.26554687 -23.8125 1298.40234375 C-15.89057709 1299.26290978 -7.95806048 1299.06801761 0 1299 C0 1293.06 0 1287.12 0 1281 C-2.05734375 1280.84144531 -4.1146875 1280.68289063 -6.234375 1280.51953125 C-48.07883585 1277.1692312 -88.07642767 1268.47191917 -126 1250 C-126.91249512 1249.55672363 -127.82499023 1249.11344727 -128.76513672 1248.65673828 C-143.28582225 1241.52424905 -156.79988394 1233.34459314 -170 1224 C-170.61439941 1223.56558594 -171.22879883 1223.13117188 -171.86181641 1222.68359375 C-179.94758705 1216.91042496 -187.50540358 1210.50943751 -195 1204 C-195.81855469 1203.29488281 -196.63710938 1202.58976562 -197.48046875 1201.86328125 C-209.23284031 1191.52828114 -220.46653561 1180.4248964 -230 1168 C-230.99001555 1166.74931094 -231.98097183 1165.4993662 -232.97265625 1164.25 C-275.08520548 1110.74483765 -296.49190699 1046.71851125 -299 979 C-305.27 979 -311.54 979 -318 979 Z M-183 979 C-183 1016.97248039 -168.322332 1056.20811699 -145 1086 C-144.3709375 1086.83789062 -143.741875 1087.67578125 -143.09375 1088.5390625 C-134.05947256 1100.29127934 -123.78218539 1111.008772 -112 1120 C-111.01902344 1120.79664063 -110.03804687 1121.59328125 -109.02734375 1122.4140625 C-78.89458328 1146.73222686 -38.77979342 1162 0 1162 C0 1127.02 0 1092.04 0 1056 C-6.6 1054.35 -13.2 1052.7 -20 1051 C-42.10715129 1041.15666986 -58.31757615 1027.43297931 -67.94140625 1004.921875 C-71.02278925 996.41680309 -72.87690301 987.98477589 -74 979 C-109.97 979 -145.94 979 -183 979 Z M-62 979 C-62 996.97151152 -53.14895296 1012.35933421 -40.984375 1025.11328125 C-29.59331254 1035.97697971 -15.48526257 1042.06434218 0 1044 C0 1022.55 0 1001.1 0 979 C-20.46 979 -40.92 979 -62 979 Z M16 979 C16 1000.45 16 1021.9 16 1044 C34.00347469 1040.99942088 46.98665634 1034.74911333 60 1022 C60.94166016 1021.11248047 60.94166016 1021.11248047 61.90234375 1020.20703125 C71.68940156 1010.15365894 79 993.09845329 79 979 C58.21 979 37.42 979 16 979 Z M91 979 C89.68 984.94 88.36 990.88 87 997 C82.01328044 1011.82538248 74.92813729 1023.02386211 64 1034 C63.06607422 1034.98613281 63.06607422 1034.98613281 62.11328125 1035.9921875 C49.69211393 1048.10631473 32.3445857 1052.36786984 16 1056 C16 1090.98 16 1125.96 16 1162 C64.60928024 1162 109.63001591 1139.2518658 144 1106 C144.67417969 1105.36578125 145.34835937 1104.7315625 146.04296875 1104.078125 C173.50963858 1077.67995262 190.97241667 1039.59808413 197.375 1002.5 C197.54298096 1001.53344482 197.71096191 1000.56688965 197.8840332 999.57104492 C199.00567334 992.49156264 199 986.34413416 199 979 C163.36 979 127.72 979 91 979 Z M316 979 C315.82984375 981.10375 315.6596875 983.2075 315.484375 985.375 C309.26698103 1060.35884306 283.56836868 1134.877183 228 1188 C225.40341237 1190.57924815 222.82824408 1193.17618516 220.2734375 1195.796875 C213.867198 1202.3497886 207.28351284 1208.41759158 200 1214 C199.35240723 1214.50225098 198.70481445 1215.00450195 198.03759766 1215.52197266 C185.2862831 1225.36218737 171.93107349 1233.92932852 158 1242 C157.30455078 1242.40444336 156.60910156 1242.80888672 155.89257812 1243.22558594 C113.1511773 1267.79855571 64.67653492 1277.80257852 16 1281 C16 1286.94 16 1292.88 16 1299 C45.17464911 1299.78850403 74.68814926 1294.46800516 102.49072266 1285.78271484 C104.14885152 1285.26549737 105.80998926 1284.75781849 107.47412109 1284.26025391 C145.39172908 1272.9126486 181.43457006 1253.04609101 212 1228 C212.50966309 1227.58508301 213.01932617 1227.17016602 213.54443359 1226.74267578 C227.98498638 1214.9413654 241.86776354 1202.17806457 254 1188 C254.80179688 1187.08734375 255.60359375 1186.1746875 256.4296875 1185.234375 C275.40447606 1163.46773216 290.244241 1138.8251086 303 1113 C303.40702148 1112.18273438 303.81404297 1111.36546875 304.23339844 1110.5234375 C323.8225075 1070.72125781 335.08212132 1023.36697404 334 979 C328.06 979 322.12 979 316 979 Z M450 979 C449.34 990.22 448.68 1001.44 448 1013 C443.09125557 1063.02244321 430.89570191 1111.24624963 410 1157 C409.29689697 1158.55436768 409.29689697 1158.55436768 408.57958984 1160.14013672 C395.36468828 1189.15925558 378.79405939 1216.95690866 359 1242 C358.36320312 1242.81597656 357.72640625 1243.63195313 357.0703125 1244.47265625 C348.77842159 1254.97904815 340.05259536 1265.14366953 331 1275 C330.4750293 1275.57540527 329.95005859 1276.15081055 329.40917969 1276.74365234 C323.01772241 1283.73960939 316.63563096 1290.60964669 309.4765625 1296.8359375 C307.18704404 1298.83655773 304.96347837 1300.89520056 302.74682617 1302.97583008 C296.35279749 1308.95269819 289.62417571 1314.38439764 282.67773438 1319.703125 C281.16030747 1320.87608363 279.66467877 1322.07710995 278.171875 1323.28125 C206.77767816 1380.24055458 114.48963437 1412.11402229 23.5 1414.82421875 C19.88031049 1414.89281172 19.88031049 1414.89281172 16 1416 C16 1445.37 16 1474.74 16 1505 C28.39649139 1505 40.40339593 1504.93246948 52.6875 1503.8125 C53.42235626 1503.74753326 54.15721252 1503.68256653 54.91433716 1503.6156311 C80.93725053 1501.28959364 106.56994342 1497.00817981 132 1491 C133.63316162 1490.61787354 133.63316162 1490.61787354 135.29931641 1490.22802734 C213.27600099 1471.72842718 288.50376375 1433.86690187 349.1484375 1381.44921875 C351.96857524 1379.02699086 354.84764607 1376.69768269 357.75 1374.375 C362.08320897 1370.8530885 366.01595511 1367.09061022 369.91015625 1363.09375 C371.75252173 1361.24794084 373.63269645 1359.55453331 375.625 1357.875 C384.4208934 1350.31796482 392.80740319 1341.86175387 400.28125 1332.99609375 C402.0788485 1330.90842822 403.9510626 1328.90004119 405.8347168 1326.89013672 C411.29616576 1321.04336214 416.30946473 1314.95268274 421.19140625 1308.6171875 C423.0587702 1306.1949086 424.96046803 1303.80826318 426.90234375 1301.4453125 C434.32387536 1292.39714382 441.00353198 1282.96698957 447.50097656 1273.23681641 C448.84919285 1271.22503178 450.21306826 1269.2254696 451.5859375 1267.23046875 C499.65442531 1197.00322768 528.28401635 1113.7384573 537.25 1029.375 C537.33326538 1028.5955603 537.41653076 1027.81612061 537.50231934 1027.01306152 C538.40795335 1018.4079448 539.13358255 1009.80407526 539.609375 1001.1640625 C539.65040344 1000.43778656 539.69143188 999.71151062 539.73370361 998.96322632 C540.06713687 992.28831055 540 985.71041301 540 979 C510.3 979 480.6 979 450 979 Z M552 979 C551.39465008 984.44814926 550.85439001 989.67844361 550.60546875 995.12109375 C550.53953229 996.46431337 550.47276339 997.80749231 550.40527344 999.15063477 C550.35300598 1000.19636154 550.35300598 1000.19636154 550.29968262 1001.26321411 C546.35101504 1077.79496574 526.7206159 1152.48888661 424 1323 C423.54125488 1323.54221191 423.08250977 1324.08442383 422.60986328 1324.64306641 C411.30527926 1337.96984596 399.38959854 1350.67850716 387.0625 1363.0625 C386.37704102 1363.75263184 385.69158203 1364.44276367 384.98535156 1365.15380859 C381.04536835 1369.08136585 376.99627674 1372.82308398 372.78393555 1376.45678711 C370.60451843 1378.34211564 368.49179391 1380.29485217 366.375 1382.25 C361.33446174 1386.79802765 356.05121534 1390.96692095 350.6875 1395.12109375 C348.24218693 1397.01776232 345.82848895 1398.94547275 343.4375 1400.91015625 C334.39343228 1408.32523687 324.96949812 1415.00266071 315.24560547 1421.49658203 C313.20905187 1422.86004116 311.18274774 1424.23704732 309.16015625 1425.62109375 C275.81469883 1448.33557864 239.56378657 1466.42689383 202 1481 C200.56793213 1481.5566333 200.56793213 1481.5566333 199.10693359 1482.12451172 C139.63062987 1505.01787512 79.34184416 1512.77721039 16 1517 C16 1550.99 16 1584.98 16 1620 C38.10306896 1620.11248367 38.10306896 1620.11248367 60.0625 1618.875 C60.79270355 1618.81097992 61.5229071 1618.74695984 62.27523804 1618.68099976 C150.05572565 1610.90554751 236.61509524 1586.21765983 385.10546875 1499.42333984 C387.23033847 1497.82694932 389.3784184 1496.26549803 391.53125 1494.70703125 C402.35959571 1486.8534816 412.78600957 1478.63539553 423 1470 C423.62245605 1469.47664063 424.24491211 1468.95328125 424.88623047 1468.4140625 C432.92181769 1461.65086599 440.71734144 1454.66541418 448.39111328 1447.49560547 C450.00089019 1445.99917249 451.62140976 1444.5153805 453.24609375 1443.03515625 C462.93078396 1434.20000027 472.5808318 1425.22092221 481.0703125 1415.2109375 C483.21095039 1412.7583038 485.42808329 1410.38957121 487.65673828 1408.01708984 C492.91187836 1402.42146329 497.97000922 1396.75502946 502.76953125 1390.7578125 C504.7795113 1388.27261825 506.84157094 1385.8418371 508.92871094 1383.42138672 C515.1118337 1376.23247017 520.84213739 1368.75624199 526.44970703 1361.11230469 C527.48121006 1359.70686151 528.51603356 1358.30384917 529.55419922 1356.90332031 C581.12178284 1287.32163222 618.1318125 1207.24687012 638 1123 C638.2294632 1122.02894318 638.2294632 1122.02894318 638.46356201 1121.03826904 C646.42822194 1087.15082567 651.42838177 1052.70660059 654 1018 C654.10586426 1016.57324951 654.10586426 1016.57324951 654.21386719 1015.11767578 C655.06479005 1003.06743754 655 991.1010996 655 979 C621.01 979 587.02 979 552 979 Z M667 979 C665.515 1004.245 665.515 1004.245 664 1030 C654.79323633 1123.65500972 628.79249931 1215.47982805 573 1312 C572.17435547 1313.37043457 572.17435547 1313.37043457 571.33203125 1314.76855469 C554.53263518 1342.59130744 535.73721912 1369.22130213 514.60546875 1393.92578125 C512.24135813 1396.69699155 509.96156042 1399.52927189 507.6875 1402.375 C502.33653493 1408.95123077 496.49263785 1415.05123056 490.67529297 1421.21142578 C489.18481876 1422.80268402 487.71337904 1424.40769152 486.25390625 1426.02734375 C480.7631588 1432.11981694 475.10115494 1438.00316458 469.3125 1443.8125 C468.6114917 1444.51810059 467.9104834 1445.22370117 467.18823242 1445.95068359 C463.21205706 1449.91516295 459.1340762 1453.69651737 454.88208008 1457.36303711 C452.08405071 1459.79665845 449.3919855 1462.33861156 446.6875 1464.875 C440.98527244 1470.17363208 435.0743589 1475.13099691 429 1480 C427.77224903 1481.00636432 426.54576634 1482.01427721 425.3203125 1483.0234375 C391.90400927 1510.49172137 355.73043208 1534.21133086 317.60058594 1554.60351562 C315.21783353 1555.88302593 312.84603075 1557.18048507 310.4765625 1558.484375 C245.68378529 1593.80626221 171.76919607 1615.61643416 16 1632 C16 1666.32 16 1700.64 16 1736 C42.13711742 1735.38197621 42.13711742 1735.38197621 68.1875 1733.75 C68.92839874 1733.68719849 69.66929749 1733.62439697 70.43264771 1733.55969238 C150.90566195 1726.69016025 230.72991707 1708.01679992 391.34472656 1632.59667969 C393.83970867 1631.09638703 396.34909932 1629.62515001 398.8671875 1628.1640625 C434.01969159 1607.64581627 467.21094601 1583.44439706 498.17382812 1557.07446289 C501.48623077 1554.25823626 504.84704561 1551.51939554 508.25 1548.8125 C515.42253877 1542.97051915 522.04077216 1536.52998981 528.734375 1530.15234375 C531.02305319 1527.97809947 533.3219997 1525.81531278 535.625 1523.65625 C536.37894043 1522.94927979 537.13288086 1522.24230957 537.90966797 1521.51391602 C539.3405318 1520.17277684 540.77181709 1518.83208711 542.20361328 1517.49194336 C550.58637473 1509.65682962 550.58637473 1509.65682962 558.3125 1501.1875 C561.07618029 1497.97666245 563.98619596 1494.97732835 567 1492 C571.21628578 1487.82169878 575.15915615 1483.52179027 579 1479 C579.90305849 1477.94871394 580.80675954 1476.89797965 581.7109375 1475.84765625 C584.30332703 1472.83465004 586.88599278 1469.81345804 589.46679688 1466.79052734 C590.90433277 1465.11172348 592.34946321 1463.43981975 593.796875 1461.76953125 C599.88598232 1454.70739401 605.55111156 1447.39682488 611.09765625 1439.90234375 C613.68041667 1436.41353088 616.32970475 1432.98475039 619 1429.5625 C640.01890366 1402.40659805 658.34365234 1372.99178744 675 1343 C675.54769043 1342.01435059 676.09538086 1341.02870117 676.65966797 1340.01318359 C697.08228089 1303.07767909 714.08863978 1264.82913973 728 1225 C728.4223291 1223.79875488 728.8446582 1222.59750977 729.27978516 1221.35986328 C751.81376448 1156.87441879 764.68394173 1089.48297607 769.25 1021.375 C769.33032471 1020.21718018 769.41064941 1019.05936035 769.4934082 1017.86645508 C770.26490427 1004.87855673 770 992.07608714 770 979 C736.01 979 702.02 979 667 979 Z " fill="#222221" transform="translate(952,0)"/>
</svg>
