<?xml version="1.0" standalone="no"?>
<!DOCTYPE svg PUBLIC "-//W3C//DTD SVG 20010904//EN"
 "http://www.w3.org/TR/2001/REC-SVG-20010904/DTD/svg10.dtd">
<svg version="1.0" xmlns="http://www.w3.org/2000/svg"
 width="1583.000000pt" height="2048.000000pt" viewBox="0 0 1583.000000 2048.000000"
 preserveAspectRatio="xMidYMid meet">
<metadata>
Created by potrace 1.16, written by Peter Selinger 2001-2019
</metadata>
<g transform="translate(0.000000,2048.000000) scale(0.100000,-0.100000)"
fill="#000000" stroke="none">
<path d="M652 19885 c-13 -7 -31 -21 -40 -31 -16 -18 -17 -435 -17 -6752 0
-3825 4 -6732 9 -6732 5 0 2 -7 -5 -17 -10 -11 -10 -17 -3 -20 6 -2 9 -14 7
-26 -2 -12 -5 -1291 -6 -2843 -2 -2809 -2 -2821 18 -2841 11 -11 30 -26 42
-32 33 -17 7579 -16 7586 2 4 9 6 9 6 0 1 -10 141 -13 646 -13 566 0 645 2
645 15 0 13 -78 15 -637 16 -351 0 -645 0 -653 1 -8 0 -1715 -1 -3792 -1
-2391 -1 -3786 2 -3802 8 -17 7 -27 20 -31 43 -3 18 -4 1306 -3 2863 l3 2830
776 3 777 2 6 -35 c28 -145 159 -531 242 -712 19 -40 34 -75 34 -78 0 -3 16
-39 35 -81 19 -41 35 -77 35 -80 0 -2 30 -66 67 -141 58 -120 67 -148 73 -213
4 -41 5 -78 3 -83 -2 -4 -21 -7 -41 -7 -73 -1 -163 -59 -207 -134 -34 -58 -51
-180 -35 -261 17 -92 52 -176 91 -220 9 -11 27 -45 39 -75 33 -86 81 -158 115
-174 17 -8 66 -24 108 -36 71 -19 85 -20 146 -10 51 10 80 10 120 1 73 -16
133 -14 314 9 l157 21 48 -28 c44 -27 53 -28 152 -25 59 1 130 10 160 19 30 8
102 19 160 23 116 8 133 11 238 47 129 43 217 106 257 183 l22 44 21 -39 c36
-72 93 -104 187 -105 43 0 54 -5 80 -32 16 -17 55 -43 85 -56 49 -23 68 -26
170 -26 63 0 151 2 195 4 66 4 91 1 145 -19 90 -32 199 -37 344 -16 102 14
132 15 222 4 145 -17 322 -7 399 22 88 33 111 61 122 145 17 143 2 710 -23
834 -4 25 -3 25 53 23 68 -2 64 24 33 -213 -31 -236 -37 -407 -16 -509 20 -97
25 -110 73 -168 99 -123 300 -187 702 -224 143 -13 282 -7 416 16 105 19 175
19 276 -2 109 -21 257 -21 329 1 30 9 93 23 140 32 97 17 182 54 208 90 50 71
40 68 112 30 204 -109 441 -136 975 -115 366 15 372 15 495 1 72 -8 135 -9
200 -3 63 6 103 5 120 -2 25 -10 385 -30 531 -30 43 0 101 8 135 19 44 13 95
18 204 19 160 1 216 16 263 70 22 26 25 26 62 15 22 -6 101 -15 175 -20 88 -6
151 -15 180 -26 36 -14 75 -18 200 -18 141 0 163 3 245 28 50 15 129 31 176
35 97 9 131 25 171 80 104 145 132 548 55 767 -60 167 -173 283 -332 341 -75
27 -232 25 -306 -4 -53 -20 -62 -21 -153 -10 -91 11 -96 12 -96 35 0 36 28
449 45 667 8 105 18 241 21 303 l7 112 1517 0 c1404 0 1518 -1 1524 -17 4 -9
6 -449 6 -977 l0 -961 -63 -66 c-73 -76 -119 -164 -143 -270 l-16 -74 -57 -31
c-65 -36 -102 -84 -127 -166 -10 -32 -24 -58 -31 -58 -7 0 -38 10 -70 22 -84
32 -191 31 -258 -2 -102 -51 -181 -162 -205 -289 -13 -71 -13 -182 1 -276 8
-50 8 -80 2 -86 -5 -5 -60 -14 -122 -19 -134 -11 -197 -39 -246 -108 -29 -42
-30 -47 -30 -155 0 -89 5 -126 23 -181 32 -100 35 -96 -62 -96 -112 0 -177
-14 -264 -55 -84 -40 -172 -122 -241 -222 -23 -35 -46 -63 -52 -63 -5 0 -38
18 -72 40 -73 46 -132 59 -179 39 -61 -25 -93 -67 -152 -202 -14 -31 -29 -57
-33 -57 -4 0 -42 13 -83 30 -109 43 -186 38 -246 -16 -94 -84 -98 -318 -9
-494 14 -27 25 -56 25 -64 0 -9 -22 -27 -50 -41 -123 -62 -185 -157 -246 -372
-13 -48 -19 -85 -13 -88 10 -7 13 -1 33 75 49 188 132 313 242 365 30 14 58
33 61 41 3 8 -8 45 -25 82 -76 164 -91 316 -43 416 50 101 133 124 263 71 36
-14 79 -25 94 -23 25 3 32 11 54 70 33 85 87 164 123 179 16 7 42 12 58 11 36
-1 106 -33 138 -64 27 -24 73 -28 93 -7 7 8 30 39 51 69 123 180 277 259 510
260 90 0 88 -5 53 114 -60 198 -36 329 68 383 51 26 127 43 198 43 115 0 123
11 103 136 -19 115 -19 192 1 267 32 126 93 213 180 257 69 35 184 35 267 0
73 -30 82 -25 119 66 36 89 55 113 112 145 25 14 51 30 56 35 5 5 18 45 29 89
24 94 68 184 119 243 73 83 67 248 65 -1815 -3 -1715 -4 -1858 -19 -1875 -16
-16 -36 -18 -216 -18 -171 0 -198 -2 -198 -15 0 -14 25 -16 186 -15 196 2 237
9 261 49 10 16 13 1976 13 9602 0 8839 -1 9584 -16 9615 -9 19 -19 32 -22 30
-2 -3 -17 1 -33 9 -24 13 -227 15 -1438 15 -1042 0 -1411 -3 -1411 -11 0 -8
-4 -9 -13 0 -21 17 -11624 14 -11655 -4z m7135 -1 c-3 -3 -12 -4 -19 -1 -8 3
-5 6 6 6 11 1 17 -2 13 -5z m3141 -21 c-2 -10 -10 -26 -19 -36 -31 -34 -81
-152 -96 -225 -11 -55 -13 -86 -6 -123 11 -55 10 -59 -26 -59 -42 0 -146 -55
-174 -91 -36 -49 -56 -91 -63 -137 -10 -61 -14 -65 -65 -47 -100 36 -245 28
-351 -19 -71 -31 -160 -114 -192 -177 l-25 -51 -24 40 c-36 56 -109 117 -162
133 -45 15 -145 11 -187 -6 -13 -5 -18 1 -24 32 -16 90 -74 170 -145 203 -69
31 -136 25 -177 -17 -18 -18 -32 -16 -38 5 -32 100 -121 262 -183 332 -69 78
-135 140 -201 189 l-75 56 1110 5 c611 3 1114 6 1118 8 4 1 7 -6 5 -15z m852
7 c0 -5 7 -7 15 -4 9 4 23 -4 36 -20 25 -32 30 -32 77 -2 34 23 48 25 175 28
75 2 137 0 137 -4 0 -4 19 -20 43 -37 76 -52 136 -122 177 -206 43 -90 60
-160 69 -285 l6 -85 30 2 c17 2 59 5 95 9 60 6 71 4 125 -24 56 -28 133 -99
178 -166 24 -34 37 -33 67 10 33 45 103 96 165 119 65 24 189 25 272 3 108
-30 241 -136 277 -221 10 -26 22 -37 44 -42 48 -10 99 -68 119 -133 13 -43 17
-86 15 -176 -1 -66 -3 -120 -4 -122 -3 -2 -4060 -22 -5795 -27 l-1023 -4 0 75
c0 95 25 152 76 177 19 9 45 15 57 13 19 -3 22 1 20 27 -1 17 -7 55 -14 86
-17 79 13 178 72 239 54 55 97 72 173 68 l61 -3 6 130 c5 91 13 150 28 195 38
117 129 242 235 323 47 37 40 50 -12 23 -34 -18 -128 -116 -171 -179 -72 -105
-116 -271 -105 -393 l7 -74 -59 2 c-104 2 -179 -45 -231 -145 -22 -43 -27 -66
-27 -132 -1 -44 3 -95 7 -112 8 -31 7 -33 -16 -33 -34 0 -87 -39 -109 -81 -24
-47 -34 -146 -18 -193 l12 -36 356 0 c681 -1 6487 23 6491 26 2 2 4 72 5 156
1 140 -1 157 -22 203 -28 62 -76 112 -113 120 -20 5 -34 17 -46 43 -27 59
-130 154 -203 189 -92 44 -158 56 -260 51 -112 -7 -187 -39 -260 -113 l-53
-54 -29 44 c-86 130 -236 194 -375 161 l-33 -8 0 76 c0 161 -60 315 -163 418
-77 77 -91 88 -113 88 -10 0 -15 2 -12 5 7 8 2914 6 2933 -1 9 -4 21 -18 26
-31 5 -15 9 -892 9 -2206 0 -1200 0 -4216 0 -6703 l0 -4521 -1242 -6 c-683 -4
-1246 -3 -1251 2 -10 10 210 232 498 502 198 185 383 373 461 469 16 19 56 67
89 105 33 39 80 95 105 125 106 128 253 290 326 360 239 229 547 420 939 583
57 24 83 47 52 47 -31 0 -398 -174 -522 -248 -72 -42 -258 -162 -265 -171 -3
-3 -30 -26 -60 -51 -30 -24 -76 -63 -102 -87 -26 -24 -51 -43 -57 -43 -5 0
-32 15 -60 34 -102 69 -275 148 -563 257 -330 126 -490 198 -668 303 -25 14
-84 46 -132 71 -49 25 -88 48 -88 52 0 3 15 20 33 37 87 82 147 136 207 186
183 155 325 297 420 420 19 25 37 47 40 50 13 10 81 130 106 184 24 52 44 79
44 58 0 -14 47 -58 98 -92 94 -62 180 -26 217 90 15 45 19 112 26 375 6 272
10 334 29 415 47 211 81 392 97 527 l18 142 85 5 c210 15 349 28 416 41 127
24 216 77 283 169 48 67 61 98 61 148 0 35 -6 47 -38 77 -21 20 -60 47 -86 61
-27 13 -50 29 -52 35 -3 6 2 27 10 46 78 186 4 411 -166 504 -45 25 -67 30
-145 33 -78 4 -105 0 -185 -23 -146 -43 -133 -44 -146 17 -6 29 -13 71 -17 93
-15 96 -62 261 -112 394 -53 143 -53 144 -42 203 31 155 -22 272 -212 469 -95
97 -171 162 -273 234 l-93 64 8 53 c12 85 10 250 -4 275 -31 56 -154 110 -273
120 -74 7 -141 -12 -399 -108 -170 -64 -219 -83 -290 -114 -45 -20 -209 -83
-310 -120 -49 -18 -124 -38 -165 -45 -512 -84 -867 -245 -1140 -519 -48 -47
-99 -104 -115 -126 -17 -22 -33 -42 -36 -45 -7 -6 -77 -113 -98 -150 -68 -123
-138 -281 -157 -356 -2 -9 -51 -10 -176 -7 -172 5 -173 5 -193 31 -11 14 -35
43 -55 63 -282 299 -312 351 -385 666 -91 391 -172 625 -291 835 -25 45 -46
91 -47 102 0 12 4 76 8 142 l8 122 46 5 c81 9 110 64 113 218 2 75 -30 131
-101 178 l-53 36 7 185 c4 102 2 316 -5 475 -20 542 -62 822 -135 900 -42 46
-125 27 -185 -42 -68 -77 -167 -229 -218 -335 -13 -27 -24 -48 -26 -48 -1 0
-41 38 -88 84 -232 225 -489 329 -813 329 -168 0 -318 -25 -495 -83 -234 -76
-516 -219 -790 -399 -60 -39 -192 -133 -200 -141 -3 -3 -21 -17 -40 -30 -19
-13 -37 -27 -40 -30 -4 -5 -46 -39 -139 -115 -110 -89 -384 -364 -500 -501
-141 -166 -144 -170 -247 -315 -17 -24 -41 -64 -55 -89 -13 -25 -25 -47 -26
-49 -2 -4 -1 -5 -130 119 -254 246 -433 384 -648 500 -44 24 -87 47 -95 51 -8
5 -50 24 -93 44 -228 102 -323 85 -364 -65 -29 -105 -23 -465 11 -725 53 -399
136 -730 263 -1044 46 -115 179 -391 193 -401 4 -3 18 -25 30 -50 13 -25 44
-77 70 -115 l48 -71 -22 -25 c-15 -18 -41 -30 -93 -42 l-71 -16 -67 44 c-91
61 -173 85 -294 85 -53 0 -112 -4 -132 -9 l-35 -8 -33 63 c-18 35 -37 64 -42
64 -5 0 -9 6 -9 13 0 22 -64 57 -104 57 -31 0 -45 -7 -71 -35 -19 -19 -36 -48
-40 -64 l-6 -29 -82 1 c-71 0 -90 -3 -140 -28 -59 -29 -108 -77 -139 -133 -9
-18 -24 -32 -33 -32 -8 0 -41 -13 -73 -29 -58 -29 -125 -93 -174 -166 -15 -22
-53 -64 -84 -94 -64 -61 -129 -156 -146 -213 -7 -25 -27 -51 -57 -76 -73 -59
-135 -125 -220 -230 -18 -23 -41 -42 -51 -42 -24 0 -126 -73 -186 -134 -28
-28 -92 -105 -143 -171 -50 -66 -138 -169 -194 -229 -99 -106 -217 -255 -217
-275 0 -5 -3 -11 -8 -13 -19 -8 -112 -209 -154 -333 -60 -177 -73 -271 -73
-515 1 -193 3 -229 28 -350 15 -74 36 -166 46 -205 11 -38 26 -96 35 -128 32
-118 124 -384 155 -449 57 -120 165 -215 265 -233 l38 -8 -33 -26 c-19 -14
-95 -87 -169 -161 -74 -75 -182 -171 -240 -215 -58 -43 -107 -82 -110 -85 -3
-3 -34 -27 -70 -53 -81 -60 -101 -76 -225 -174 -55 -43 -105 -82 -111 -86 -7
-4 -45 7 -85 24 -41 17 -99 36 -129 43 l-55 13 0 2556 0 2556 155 5 c85 3 277
8 425 11 149 3 452 10 675 15 223 6 644 14 935 20 292 5 608 12 704 16 l173 6
-4 107 c-3 93 -6 111 -30 151 -32 55 -54 74 -102 90 -39 12 -38 11 -57 120
-35 208 -199 371 -376 374 -69 1 -163 -19 -163 -35 0 -5 -7 -9 -16 -9 -9 0
-48 -32 -86 -71 l-70 -71 -37 40 c-45 49 -100 79 -160 87 -79 11 -81 12 -81
57 0 137 -93 303 -199 355 -57 27 -159 29 -216 4 -62 -27 -67 -27 -125 13 -36
25 -66 37 -106 42 -138 17 -255 -24 -368 -127 -35 -33 -66 -59 -69 -59 -3 0
-8 19 -12 43 -10 58 -52 163 -88 217 -30 45 -67 83 -146 151 l-42 36 7 109 c6
94 4 120 -15 187 -41 151 -108 250 -267 397 -68 63 -109 92 -181 130 l-63 32
0 2005 0 2004 25 25 24 24 3986 0 c2426 0 3985 -4 3985 -9 0 -6 9 -12 20 -16
25 -8 111 -67 174 -119 111 -93 262 -320 296 -446 14 -53 34 -60 70 -25 36 35
107 44 161 21 65 -27 129 -128 129 -202 0 -44 17 -50 77 -30 119 41 225 -6
304 -133 17 -29 36 -50 42 -48 6 2 25 30 41 62 53 104 148 177 265 205 66 16
197 8 264 -15 59 -20 73 -12 79 49 14 118 107 212 229 230 l47 7 -2 107 c-1
96 2 114 27 176 16 38 43 90 60 115 18 25 35 50 39 56 5 6 145 12 405 15 219
3 401 6 406 8 4 1 7 -2 7 -8z m100 0 c0 -5 -4 -10 -10 -10 -5 0 -10 5 -10 10
0 6 5 10 10 10 6 0 10 -4 10 -10z m-2866 -3452 c39 -59 78 -326 96 -643 11
-209 14 -717 3 -778 -6 -37 -7 -39 -36 -33 -40 8 -49 23 -43 66 3 19 8 181 12
360 10 518 -16 670 -116 670 -28 0 -37 -6 -71 -48 -20 -23 -79 -145 -79 -161
0 -25 -18 -7 -59 61 -51 86 -51 84 35 239 85 153 194 289 231 289 7 0 19 -10
27 -22z m-1024 -46 c131 -35 239 -84 345 -155 79 -54 117 -89 230 -211 6 -6
22 -27 35 -46 14 -19 31 -43 39 -52 20 -24 80 -135 103 -193 86 -210 119 -357
122 -529 l1 -90 -55 5 c-114 9 -588 3 -680 -9 -217 -28 -541 -103 -750 -173
-341 -114 -550 -205 -1135 -494 -382 -189 -637 -300 -672 -293 -8 2 -23 29
-34 61 -25 74 -62 134 -176 286 -52 69 -96 136 -100 149 -3 13 0 41 6 63 11
37 109 192 148 234 10 11 34 40 53 65 36 47 111 137 170 204 47 54 284 291
340 341 25 22 74 65 110 95 36 30 67 57 70 60 3 3 32 26 65 51 428 327 874
556 1223 628 140 29 142 30 312 26 114 -3 175 -9 230 -23z m984 -422 c27 -96
37 -310 26 -544 -5 -116 -10 -255 -10 -309 l0 -98 -27 3 -28 3 3 100 c6 176
-36 407 -102 574 -14 36 -26 77 -26 93 0 35 43 149 71 191 50 72 70 69 93 -13z
m-8241 -231 c130 -85 269 -234 330 -354 46 -91 57 -149 57 -293 l0 -134 31
-27 c143 -120 204 -211 235 -353 21 -94 32 -98 96 -35 81 82 175 133 281 152
57 11 152 -13 208 -52 57 -39 62 -39 117 -13 64 31 124 36 179 15 121 -46 189
-144 214 -307 15 -99 19 -104 80 -111 72 -9 148 -49 183 -96 16 -22 35 -42 41
-45 7 -2 31 18 54 46 147 181 338 199 504 48 82 -75 118 -156 144 -325 8 -47
10 -50 53 -66 52 -19 102 -73 118 -127 16 -54 16 -171 0 -177 -7 -2 -371 -11
-808 -20 -437 -9 -966 -20 -1175 -25 -209 -5 -532 -12 -717 -16 l-338 -7 -2
1186 -3 1187 20 0 c12 0 56 -23 98 -51z m3417 -336 c167 -67 414 -213 575
-342 86 -69 66 -51 231 -208 160 -151 206 -193 216 -193 3 0 12 -17 19 -37 6
-20 16 -42 21 -47 38 -47 204 -279 219 -309 11 -21 36 -84 55 -139 19 -55 44
-109 55 -121 11 -12 26 -44 34 -71 25 -82 34 -91 122 -109 175 -37 322 -41
471 -11 18 4 32 4 32 1 0 -2 -19 -24 -42 -48 -136 -144 -216 -307 -265 -539
-14 -65 -18 -130 -18 -275 1 -165 4 -201 23 -275 39 -146 77 -231 193 -440
101 -181 123 -311 75 -453 -14 -40 -56 -137 -94 -217 -81 -168 -94 -206 -121
-332 -25 -120 -29 -132 -47 -117 -7 6 -24 30 -37 52 -13 23 -49 85 -79 137
-30 52 -74 130 -97 173 -23 43 -65 119 -93 170 -28 51 -64 116 -80 146 -108
194 -258 406 -389 546 -70 76 -169 183 -230 250 -29 33 -65 71 -79 86 -14 15
-41 46 -60 70 -19 24 -42 51 -51 59 -65 66 -256 345 -326 475 -231 429 -366
868 -435 1410 -18 143 -23 228 -22 415 0 357 14 376 224 293z m4663 -330 c45
-5 48 -8 45 -32 l-3 -26 -250 -6 c-274 -7 -413 -24 -710 -86 -193 -40 -519
-136 -665 -196 -8 -4 -55 -22 -105 -41 -49 -18 -120 -48 -158 -65 -37 -17 -69
-31 -72 -31 -12 0 -247 -115 -625 -306 -298 -151 -385 -191 -500 -234 -127
-47 -132 -47 -163 -2 -15 21 -27 40 -27 43 0 3 19 11 43 18 45 13 102 34 152
56 17 8 82 37 145 66 63 28 261 125 440 214 592 297 914 427 1300 525 243 62
430 92 695 114 64 5 395 -3 458 -11z m81 -113 c137 -20 325 -101 357 -154 35
-57 17 -226 -24 -226 -18 0 -290 25 -496 46 -209 22 -487 15 -671 -16 -415
-70 -943 -259 -1330 -476 -321 -180 -468 -234 -695 -256 -98 -10 -123 -9 -235
10 -89 15 -128 26 -137 39 -7 9 -13 19 -13 22 0 3 62 29 138 56 92 33 293 129
610 288 261 131 507 251 548 267 41 16 82 34 91 40 28 16 245 98 373 140 337
113 643 180 955 210 66 6 129 13 140 14 52 8 328 4 389 -4z m-261 -400 c86 -7
129 -16 160 -31 51 -27 37 -34 -39 -20 -113 21 -255 7 -334 -34 -96 -48 -160
-130 -185 -237 -17 -73 -19 -224 -5 -353 38 -340 157 -825 248 -1014 12 -25
21 -45 19 -46 -1 -1 -51 -28 -112 -60 -60 -32 -137 -75 -171 -96 -34 -22 -66
-39 -72 -39 -6 0 -14 17 -17 38 -3 20 -12 71 -20 112 -8 41 -28 156 -45 255
-48 278 -109 548 -146 648 -94 247 -136 320 -264 448 -57 58 -95 85 -160 118
-47 23 -105 45 -128 49 -54 9 -55 21 -5 39 294 107 581 182 798 208 77 9 149
18 160 19 47 7 208 5 318 -4z m337 -55 c0 -14 -1 -25 -3 -25 -2 0 -14 11 -27
25 l-23 25 26 0 c22 0 27 -5 27 -25z m133 1 c9 -13 7 -150 -2 -165 -4 -6 -22
9 -44 38 -31 40 -37 56 -37 98 l0 49 38 -4 c20 -3 40 -10 45 -16z m-270 -42
c59 -16 75 -26 115 -69 65 -71 82 -92 122 -155 19 -30 37 -57 40 -60 17 -16
135 -255 160 -325 81 -226 90 -257 169 -586 54 -225 103 -350 168 -426 60 -70
124 -141 160 -178 121 -125 204 -251 249 -380 24 -69 28 -96 28 -195 1 -125
-10 -182 -57 -305 -40 -106 -138 -255 -242 -371 -90 -100 -149 -189 -207 -314
-27 -58 -56 -118 -65 -135 -123 -227 -299 -347 -581 -400 -178 -32 -347 -40
-630 -27 -147 7 -361 12 -477 12 -201 -1 -242 -4 -630 -51 -51 -6 -162 -9
-255 -6 -135 4 -181 10 -255 30 -238 67 -439 205 -617 426 -91 113 -93 117
-78 149 6 15 20 71 30 124 21 107 48 181 139 371 91 190 104 239 99 355 -6
120 -23 168 -119 344 -163 296 -207 455 -196 717 13 312 99 543 266 722 82 88
108 105 245 160 44 17 88 36 97 42 26 16 33 3 15 -25 -21 -33 -49 -144 -41
-168 9 -29 41 -25 89 12 22 18 43 35 46 38 13 13 91 60 134 80 46 21 140 53
236 80 74 21 90 35 90 78 0 45 -30 97 -70 120 -16 9 -30 20 -30 23 0 6 106 57
190 91 123 50 321 -15 460 -152 79 -78 115 -129 175 -250 99 -197 154 -415
250 -980 14 -85 30 -177 36 -203 5 -26 9 -56 9 -65 0 -10 -42 -48 -103 -92
-131 -96 -237 -187 -237 -204 0 -25 28 -25 57 0 95 84 282 226 334 255 13 7
29 18 36 24 13 14 168 105 178 105 3 0 -5 -15 -18 -32 -140 -189 39 -377 496
-522 65 -21 151 -41 190 -45 65 -5 72 -8 78 -31 14 -49 9 -269 -6 -338 l-15
-67 -133 -42 c-154 -50 -190 -59 -300 -79 -318 -58 -588 -80 -803 -65 -252 18
-406 58 -623 162 -126 60 -161 70 -161 45 0 -16 30 -38 101 -75 45 -23 68 -43
227 -192 235 -220 437 -313 767 -354 440 -55 1017 48 1180 210 l35 36 0 139
c0 76 3 145 6 154 4 11 19 16 43 16 20 0 54 9 76 19 68 30 103 93 144 253 22
86 49 144 80 172 42 38 18 69 -28 37 l-28 -20 -6 122 c-13 252 -105 464 -263
609 l-35 33 18 35 c51 102 -20 355 -143 505 -159 195 -323 282 -496 265 -78
-8 -137 -43 -179 -105 -38 -55 -49 -100 -49 -191 0 -96 16 -175 69 -340 23
-69 41 -129 41 -133 0 -4 -17 -13 -37 -20 -21 -8 -43 -16 -50 -18 -30 -12
-115 217 -177 480 -79 327 -110 539 -111 737 0 150 2 170 23 222 24 60 97 142
142 160 90 38 147 48 245 44 55 -2 131 -12 168 -22z m-1812 -366 c20 -22 36
-85 25 -95 -3 -4 -59 -22 -124 -41 -139 -40 -264 -99 -337 -159 -57 -46 -80
-54 -71 -25 3 9 10 35 15 58 15 56 67 131 110 158 89 56 240 130 276 136 47 7
81 -3 106 -32z m6084 -54 c128 -41 129 -41 126 -170 -1 -60 -6 -125 -10 -144
-9 -41 5 -41 -185 6 -76 19 -147 34 -157 34 -23 0 -23 4 -4 72 63 227 63 228
119 228 16 0 66 -12 111 -26z m-244 -86 c-12 -40 -29 -96 -38 -124 l-16 -52
-71 -6 c-39 -3 -141 -8 -226 -11 -85 -3 -199 -8 -252 -11 -54 -3 -98 -1 -98 3
0 4 35 21 78 37 42 16 118 46 167 66 204 86 466 182 474 174 2 -2 -6 -36 -18
-76z m186 -273 c179 -44 186 -47 271 -104 48 -33 103 -73 122 -90 19 -17 37
-31 40 -31 12 0 193 -189 235 -245 44 -60 78 -121 90 -161 3 -12 -8 -77 -25
-145 -38 -157 -47 -247 -29 -291 7 -18 16 -35 19 -38 22 -18 50 -83 50 -115 0
-44 -27 -90 -136 -235 -99 -132 -158 -193 -181 -186 -10 3 -79 19 -153 37 -74
18 -184 44 -245 58 l-109 27 54 28 c161 84 268 191 343 342 72 145 102 228
123 344 22 121 19 152 -16 189 -34 35 -50 70 -50 106 0 107 -420 225 -664 187
-64 -10 -72 -15 -116 -61 -27 -28 -60 -53 -76 -56 -64 -14 -70 -20 -85 -87
-19 -84 -16 -320 5 -413 43 -196 112 -336 247 -497 17 -21 26 -38 21 -38 -5 0
-54 9 -108 19 -152 30 -536 99 -663 118 -112 17 -115 19 -134 50 -49 85 -97
265 -97 366 0 80 22 107 132 161 111 56 163 92 179 126 6 14 15 81 19 150 11
172 19 192 100 247 50 34 321 173 338 173 6 0 12 3 14 8 2 4 48 28 103 54 75
35 112 47 149 47 27 1 132 -19 233 -44z m-632 -75 c-219 -108 -293 -158 -321
-212 -9 -17 -21 -92 -29 -179 -10 -116 -18 -155 -31 -170 -10 -11 -63 -41
-118 -68 -185 -90 -209 -140 -170 -354 9 -48 14 -90 12 -92 -2 -3 -47 2 -99
10 -304 47 -857 68 -1114 42 -77 -7 -142 -12 -144 -11 -12 10 79 202 155 327
91 148 184 256 320 373 219 185 572 337 894 383 41 6 113 18 160 26 83 15 362
31 590 33 l115 1 -220 -109z m-3475 -69 c179 -56 367 -254 415 -437 19 -74 20
-194 1 -219 -13 -18 -15 -18 -72 7 -33 15 -81 32 -109 39 -27 6 -56 13 -62 15
-9 2 -13 24 -13 62 0 72 -22 140 -67 209 -40 60 -87 100 -164 140 -48 25 -65
28 -144 27 -76 0 -96 -4 -127 -23 l-38 -23 0 30 c0 16 7 47 16 68 51 123 183
161 364 105z m-83 -216 c117 -53 205 -182 207 -305 l1 -65 -69 -3 c-67 -3 -68
-3 -62 20 25 85 14 137 -40 204 -75 93 -199 112 -294 44 -33 -24 -40 -18 -40
34 0 36 5 44 35 65 19 13 50 27 67 32 49 12 137 0 195 -26z m4235 -19 c98 -20
204 -56 262 -90 50 -29 51 -31 60 -87 4 -20 22 -54 41 -76 32 -38 34 -45 29
-90 -22 -179 -109 -402 -204 -522 -82 -103 -156 -163 -268 -212 -37 -17 -75
-35 -85 -40 -22 -12 -28 -8 -95 55 -140 132 -232 309 -278 528 -13 66 -15 112
-10 228 3 80 8 154 11 165 4 13 23 27 54 38 31 11 63 33 86 59 26 28 50 44 74
49 64 12 248 9 323 -5z m-4298 -157 c54 -25 36 -109 -24 -109 -31 0 -60 30
-60 62 0 17 36 58 51 58 5 0 19 -5 33 -11z m-5162 -53 c17 -25 59 -98 93 -163
164 -315 174 -328 384 -496 173 -138 218 -178 331 -287 312 -304 474 -648 615
-1305 40 -188 72 -314 137 -540 79 -278 80 -289 30 -500 -22 -93 -43 -186 -47
-205 -3 -19 -12 -64 -20 -100 -44 -211 -59 -405 -45 -596 5 -80 13 -156 16
-168 4 -19 -3 -28 -43 -54 -164 -105 -348 -142 -803 -162 -227 -10 -416 -24
-472 -36 -16 -3 -28 -3 -28 1 0 4 20 32 44 63 63 83 74 110 107 255 16 73 47
188 70 257 33 101 42 145 46 225 5 92 3 107 -20 163 -28 69 -89 149 -157 205
-25 21 -118 74 -208 119 -222 110 -324 191 -415 329 -36 53 -127 248 -127 270
0 19 -52 131 -80 174 -34 50 -45 86 -65 200 -22 128 -32 155 -58 155 -42 0
-81 -85 -143 -315 -29 -107 -79 -220 -121 -269 l-26 -31 5 30 c3 17 14 73 24
125 27 137 28 558 1 673 -33 141 -109 300 -146 305 -30 5 -27 -22 9 -78 33
-51 89 -201 90 -237 l0 -22 -35 24 c-85 57 -169 58 -275 0 -91 -48 -129 -46
-149 8 -6 15 -15 27 -21 27 -13 0 -13 -110 0 -144 12 -31 -4 -35 -22 -6 -20
31 -28 24 -28 -24 0 -28 7 -52 20 -68 22 -29 16 -42 -13 -26 -19 10 -20 8 -14
-37 4 -27 11 -53 17 -59 14 -18 15 -142 0 -229 -18 -110 -9 -293 19 -376 23
-66 22 -74 -19 -111 -3 -3 -18 -26 -32 -51 -15 -25 -43 -63 -62 -85 -45 -49
-111 -183 -125 -252 -30 -146 -10 -244 104 -514 36 -84 63 -153 61 -155 -6 -7
-113 121 -144 172 -17 28 -44 91 -61 140 -75 229 -62 459 48 815 88 282 105
375 136 735 19 221 39 379 64 510 20 104 83 304 122 390 23 49 23 50 29 21 8
-43 23 -42 53 3 25 37 30 40 79 43 l53 3 3 47 c4 67 -10 88 -58 88 -35 0 -54
12 -32 22 4 2 26 28 49 58 65 86 282 290 308 290 3 0 21 11 38 24 45 33 185
102 192 94 4 -3 -2 -23 -13 -45 -46 -91 -65 -167 -70 -273 -4 -96 -2 -111 22
-169 95 -235 312 -273 487 -86 53 58 69 78 69 91 0 26 -13 44 -31 44 -19 0
-34 -12 -79 -66 -35 -42 -99 -89 -139 -102 -73 -25 -125 -10 -181 54 -45 52
-68 107 -76 184 -18 184 141 484 276 520 79 21 201 8 315 -35 55 -21 109 -44
120 -51 29 -20 55 -18 55 6 0 19 -6 22 -155 90 -49 22 -145 43 -229 49 l-91 6
-18 39 c-26 55 -26 153 -1 197 30 50 104 92 172 97 51 4 65 0 129 -34 129 -70
217 -161 304 -316 29 -53 49 -78 61 -78 26 0 22 21 -13 87 -65 121 -132 204
-222 276 -80 63 -89 76 -82 105 13 53 37 92 56 92 12 0 32 -18 51 -44z m488
-173 c36 -17 76 -41 90 -52 l25 -20 -60 -55 c-33 -30 -64 -55 -70 -55 -5 0
-28 18 -50 40 -43 43 -148 99 -186 99 -43 0 -80 59 -46 74 6 3 62 4 122 3 101
-2 116 -5 175 -34z m465 -80 c33 -43 75 -95 94 -115 80 -88 75 -105 -9 -27
-184 170 -183 169 -171 195 6 13 14 24 19 24 4 0 34 -35 67 -77z m-74 -35
c108 -105 272 -249 317 -280 54 -36 179 -159 273 -268 35 -41 66 -77 69 -80
10 -10 88 -116 105 -143 10 -15 14 -31 11 -35 -4 -4 -45 -9 -90 -10 -80 -4
-85 -3 -167 38 -125 63 -481 304 -559 379 -17 17 -113 100 -163 141 -17 14
-59 52 -95 86 -59 55 -64 62 -53 82 19 35 112 99 171 117 30 9 60 18 65 20 39
13 65 2 116 -47z m-576 3 c44 -20 51 -26 164 -133 132 -125 345 -311 416 -363
22 -16 45 -34 51 -40 6 -5 22 -17 34 -25 12 -8 31 -23 42 -32 11 -9 49 -36 86
-60 37 -23 69 -45 72 -48 15 -17 239 -145 270 -155 11 -3 26 -22 35 -41 38
-85 45 -103 64 -161 83 -249 151 -586 250 -1248 17 -110 46 -303 65 -430 19
-126 40 -273 46 -325 6 -52 16 -128 21 -168 14 -111 11 -395 -5 -492 -16 -100
-47 -231 -76 -319 -22 -71 -25 -150 -10 -280 5 -47 19 -167 30 -266 48 -426
60 -520 116 -910 19 -132 34 -250 34 -262 0 -14 -15 -31 -48 -52 -46 -29 -79
-40 -69 -23 4 7 1 38 -28 242 -9 63 -20 153 -26 200 -5 47 -17 141 -25 210 -8
69 -21 193 -29 275 -8 83 -19 200 -24 260 -68 720 -68 818 4 1270 35 215 43
462 22 645 -33 277 -163 857 -257 1139 -50 152 -151 387 -195 453 -14 20 -25
40 -25 44 0 12 -190 289 -209 304 -3 3 -35 39 -71 80 -58 66 -198 207 -256
257 -68 58 -340 264 -432 327 -23 16 -52 45 -64 65 -12 20 -28 46 -36 59 -13
20 -13 22 4 22 11 0 37 -9 59 -19z m-855 -10 c0 -10 3 -32 6 -48 5 -28 3 -30
-73 -60 -88 -36 -133 -49 -133 -38 0 12 52 78 79 100 26 21 101 64 114 65 4 0
7 -8 7 -19z m10740 -41 c0 -10 4 -20 8 -22 28 -11 148 -481 168 -659 8 -69 8
-69 -87 -38 -35 12 -104 32 -154 44 -49 12 -90 26 -92 31 -2 5 18 36 45 69 67
84 117 156 141 204 35 68 28 107 -43 224 -25 42 -28 54 -22 98 4 27 9 56 12
64 8 19 24 9 24 -15z m-10710 -85 c0 -8 -4 -15 -9 -15 -5 0 -31 -21 -58 -47
-36 -36 -67 -54 -118 -72 -39 -13 -104 -41 -145 -62 -41 -22 -76 -39 -77 -39
-14 0 7 31 62 88 55 59 74 72 122 86 59 18 115 38 168 62 39 18 55 17 55 -1z
m942 -85 c60 -42 199 -150 333 -259 72 -60 277 -276 351 -371 220 -284 359
-584 467 -1010 148 -580 191 -831 191 -1125 -1 -184 -4 -220 -42 -460 -22
-143 -43 -309 -47 -370 -8 -153 20 -535 95 -1275 16 -155 57 -485 75 -592 8
-51 15 -110 15 -132 l0 -39 -52 7 c-29 4 -56 10 -59 14 -15 17 -60 475 -79
802 -22 365 -40 557 -85 885 -14 99 -28 229 -31 290 -11 200 23 460 108 810
57 232 56 279 -6 485 -42 142 -132 496 -186 730 -37 162 -99 380 -138 485 -53
139 -57 150 -63 155 -3 3 -13 24 -22 48 -9 23 -35 72 -57 108 -22 36 -40 68
-40 71 0 3 -8 15 -17 28 -10 12 -25 33 -33 45 -72 109 -255 306 -386 415 -32
27 -77 65 -99 85 -22 19 -55 46 -73 60 -165 124 -242 195 -120 110z m5496 -69
c68 -166 88 -363 58 -569 -24 -163 -65 -246 -134 -273 -29 -11 -342 -12 -342
-1 0 5 7 55 16 113 12 85 13 123 4 203 -5 55 -9 100 -8 100 2 1 21 8 43 15 55
19 116 62 150 108 16 21 36 45 44 53 43 44 110 234 112 315 l0 40 17 -24 c9
-14 27 -50 40 -80z m1547 25 c193 -4 584 -40 668 -62 22 -5 66 -88 54 -101 -4
-3 -91 6 -194 21 -331 46 -704 88 -948 107 -82 7 -156 15 -164 19 -8 5 30 11
85 15 54 3 106 7 114 9 8 1 49 1 90 -1 41 -1 174 -5 295 -7z m-830 -76 c414
-24 1010 -86 1425 -150 74 -12 180 -27 235 -35 55 -8 136 -21 180 -29 44 -8
132 -24 195 -35 63 -11 153 -28 200 -36 47 -9 119 -23 160 -30 425 -80 1064
-243 1415 -360 305 -102 606 -227 669 -276 30 -24 33 -56 10 -102 -19 -35 -44
-63 -44 -48 0 24 -73 79 -165 121 -113 54 -471 177 -710 245 -88 25 -181 52
-207 60 -67 20 -583 149 -698 174 -52 11 -156 34 -230 50 -157 35 -483 96
-620 116 -52 8 -135 21 -185 29 -89 15 -402 56 -584 76 -192 22 -665 60 -943
77 l-286 17 -31 67 c-17 37 -31 70 -31 73 0 8 43 7 245 -4z m180 -191 c649
-45 1245 -110 1615 -175 47 -9 112 -19 145 -24 78 -12 250 -44 345 -65 41 -8
109 -22 150 -30 41 -8 125 -26 185 -40 61 -14 139 -32 175 -40 59 -12 436
-109 585 -149 382 -104 823 -254 949 -324 106 -58 108 -111 5 -156 -78 -34
-189 -53 -389 -66 -91 -6 -170 -13 -177 -15 -19 -6 -24 9 -28 97 -6 104 -13
111 -159 162 -484 167 -1004 304 -1581 416 -286 56 -480 91 -580 105 -55 8
-143 21 -195 29 -344 56 -832 104 -1157 114 l-208 7 -6 50 c-4 28 -10 67 -14
88 l-8 39 104 -7 c57 -3 167 -11 244 -16z m4010 -126 c109 -37 185 -157 185
-292 0 -106 -39 -196 -71 -164 -7 7 -2 25 13 54 34 65 37 169 8 238 -50 114
-171 171 -273 127 -77 -33 -135 -118 -144 -214 -6 -50 -7 -53 -20 -36 -19 25
-10 111 17 163 62 122 163 166 285 124z m-275 -17 c0 -3 -13 -24 -29 -48 -16
-24 -33 -59 -38 -78 -5 -20 -16 -35 -24 -35 -11 0 -14 15 -14 65 l0 64 45 18
c48 18 60 21 60 14z m262 -48 c70 -21 138 -120 138 -202 0 -46 -20 -111 -43
-139 l-22 -27 -70 26 c-38 14 -106 39 -149 55 -44 16 -82 32 -85 35 -11 11 0
107 16 143 20 44 85 108 116 114 41 8 59 7 99 -5z m-605 -74 c143 -41 160 -48
189 -82 18 -20 33 -40 34 -43 0 -3 -64 14 -142 38 -79 24 -187 55 -240 69
l-97 27 16 24 c20 30 21 30 240 -33z m-3105 8 c15 -6 10 -19 -39 -97 -71 -115
-73 -117 -73 -68 0 29 7 48 25 67 32 35 47 64 40 76 -15 24 12 36 47 22z m408
-43 c85 -11 156 -22 159 -25 2 -2 -3 -10 -13 -17 -10 -7 -17 -22 -14 -32 3
-17 19 -21 132 -32 71 -8 168 -23 215 -34 138 -33 184 -36 210 -10 12 12 19
27 15 33 -9 14 31 8 311 -47 328 -65 485 -100 749 -165 131 -33 241 -60 242
-60 2 0 4 -8 4 -18 0 -30 32 -51 111 -72 80 -22 152 -46 185 -62 33 -16 79 -6
77 16 -1 15 4 17 30 12 57 -12 72 -66 71 -256 -2 -196 -30 -346 -132 -690 -70
-235 -73 -279 -30 -445 28 -111 21 -228 -22 -355 -28 -85 -101 -225 -140 -268
-8 -9 -31 -38 -50 -64 -19 -26 -84 -96 -145 -155 -97 -95 -141 -136 -294 -268
-83 -71 -155 -140 -306 -290 -221 -222 -291 -270 -431 -300 -92 -20 -126 -19
-220 5 -229 59 -428 199 -803 565 -191 186 -183 179 -261 245 -36 30 -74 64
-86 75 -12 11 -44 39 -71 62 -87 74 -233 229 -233 248 0 4 -10 20 -21 37 -70
98 -122 258 -205 636 l-27 123 43 132 c203 630 280 835 427 1137 68 140 74
149 163 289 l54 83 76 -6 c41 -4 145 -16 230 -27z m-5788 -56 c74 -138 201
-654 254 -1023 86 -614 94 -721 66 -880 -59 -325 -50 -583 29 -812 25 -75 30
-100 25 -141 -7 -47 -43 -157 -55 -167 -3 -3 -19 -24 -35 -47 -33 -49 -116
-121 -116 -101 0 7 9 45 20 83 47 161 62 259 67 430 7 218 -8 386 -67 765 -11
69 -31 202 -45 295 -105 705 -156 984 -231 1270 -17 66 -69 228 -83 260 -4 11
-15 37 -24 57 -9 21 -13 39 -9 41 4 2 34 5 66 6 33 1 62 4 65 6 2 3 14 5 26 5
16 0 29 -13 47 -47z m-2962 -24 c0 -40 0 -40 -30 -34 -21 5 -39 2 -55 -9 -34
-22 -38 -6 -10 36 26 39 37 46 73 47 19 1 22 -4 22 -40z m9235 11 c144 -22
197 -42 176 -63 -9 -9 -51 -4 -169 21 -86 17 -193 35 -236 39 -71 6 -77 8 -60
20 24 18 96 14 289 -17z m-9435 -4 c0 -2 -15 -32 -34 -68 -89 -171 -166 -464
-195 -738 -6 -58 -18 -186 -27 -285 -20 -237 -45 -392 -80 -505 -135 -436
-148 -502 -141 -724 5 -187 23 -271 90 -406 23 -47 43 -88 45 -92 7 -15 -28
-8 -73 13 -104 49 -160 145 -248 419 -72 224 -91 294 -127 463 -82 378 -58
682 77 1007 34 81 48 109 105 208 35 60 134 184 215 268 84 88 112 119 143
164 87 126 250 306 250 276z m3390 -381 c24 -44 62 -115 86 -157 48 -87 56
-109 81 -228 31 -148 20 -691 -16 -758 -4 -7 -17 72 -30 175 -24 197 -27 219
-66 453 -36 218 -51 291 -90 450 -20 80 -38 161 -41 180 l-5 35 19 -35 c10
-19 38 -71 62 -115z m3650 70 c0 -18 -11 -32 -39 -50 -22 -13 -44 -32 -49 -40
-7 -14 -13 -14 -35 -4 -29 13 -38 12 -262 -44 -77 -19 -165 -40 -196 -46 -38
-8 -69 -23 -96 -46 -47 -40 -56 -42 -110 -25 -34 10 -65 10 -165 1 -68 -7
-244 -15 -393 -18 -230 -5 -275 -3 -305 10 -39 17 -140 103 -140 119 0 13 186
5 285 -12 102 -18 453 -15 615 4 256 31 503 83 680 145 57 20 106 30 148 30
60 1 62 0 62 -24z m1280 -10 c0 -2 -9 -21 -19 -42 -68 -133 -199 -482 -306
-818 -96 -300 -171 -509 -211 -591 -36 -73 -93 -139 -114 -132 -7 2 -23 34
-36 72 -38 111 -52 128 -119 152 -33 12 -76 36 -95 53 -22 20 -61 40 -105 53
-38 11 -78 27 -87 36 -19 16 -93 198 -103 256 -5 24 -4 36 4 36 20 0 129 118
172 186 36 56 45 65 65 60 38 -10 71 10 99 62 14 26 39 56 55 65 44 26 72 71
68 109 -2 27 -10 37 -45 54 l-42 21 27 39 c14 22 36 50 48 62 l21 24 28 -39
c55 -76 169 -140 269 -150 141 -15 249 106 257 287 4 72 12 86 62 98 24 7 55
21 68 31 23 20 39 26 39 16z m2785 -38 c44 -13 99 -29 121 -36 37 -10 73 -36
63 -45 -3 -3 -221 65 -287 89 -16 6 -6 26 11 20 7 -2 48 -14 92 -28z m-4100
-177 c0 -83 -3 -103 -20 -125 -39 -52 -224 -102 -498 -136 -146 -17 -481 -7
-627 21 -106 19 -224 53 -243 70 -4 4 93 5 215 2 343 -7 698 21 878 69 121 32
164 72 177 164 4 32 9 43 16 36 16 -16 53 -13 67 4 25 30 35 -2 35 -105z
m-153 61 c-6 -79 -67 -118 -236 -150 -166 -32 -353 -45 -676 -45 -298 0 -389
7 -462 36 -50 19 -29 27 60 22 48 -3 200 0 337 7 267 13 344 14 415 4 42 -6
48 -3 85 30 22 19 49 37 60 40 11 2 81 18 155 34 74 17 155 37 180 45 69 22
86 18 82 -23z m4777 -49 c94 -34 106 -40 113 -67 23 -78 -29 -505 -91 -752
-49 -194 -55 -246 -53 -513 1 -200 -2 -270 -15 -324 -18 -80 -47 -118 -84
-109 -32 8 -88 57 -121 105 -26 39 -27 41 -21 161 5 104 2 138 -17 227 -28
130 -24 214 20 355 62 201 102 359 127 500 18 106 24 350 10 418 -10 47 -4 47
132 -1z m-7927 -382 c29 -47 142 -183 209 -248 151 -149 347 -260 556 -312 47
-12 49 -15 142 -169 35 -57 59 -106 54 -110 -4 -4 -24 -19 -43 -33 -19 -14
-46 -47 -60 -74 -23 -45 -25 -59 -24 -184 1 -102 6 -159 23 -233 20 -87 27
-101 57 -125 40 -32 41 -38 10 -63 -44 -34 -108 -144 -195 -329 -61 -132 -131
-347 -157 -485 -20 -111 -14 -235 15 -323 17 -48 19 -67 11 -83 -11 -19 -12
-19 -60 7 -67 36 -174 145 -221 224 -56 95 -89 199 -90 284 0 101 -15 134 -69
164 -88 48 -210 156 -210 186 0 4 -11 24 -25 44 -32 46 -79 193 -95 295 -19
113 -7 384 24 577 14 85 40 238 57 340 31 177 33 197 33 456 1 262 2 271 19
251 10 -12 27 -37 39 -57z m-3324 46 c41 -21 59 -47 66 -93 l6 -43 -38 0
c-238 0 -395 -304 -301 -584 11 -32 27 -65 35 -73 22 -23 18 -53 -8 -53 -13 0
-50 -12 -83 -26 -98 -42 -92 -43 -112 22 -23 74 -25 322 -4 399 30 112 94 257
128 293 7 7 13 17 13 21 0 16 101 107 142 128 49 26 116 30 156 9z m72 -232
l0 -56 -38 7 c-102 17 -207 -162 -187 -318 14 -102 50 -156 118 -172 30 -8 32
-13 13 -37 -10 -14 -28 -18 -78 -18 -71 0 -88 11 -120 80 -57 124 -56 273 3
395 56 115 134 175 232 175 l57 0 0 -56z m289 33 c5 -13 16 -66 24 -118 17
-103 34 -154 72 -209 13 -19 43 -84 65 -145 81 -216 163 -351 271 -445 87 -77
109 -91 281 -176 232 -116 311 -187 367 -332 35 -89 24 -184 -43 -383 -20 -59
-47 -160 -61 -224 -30 -141 -57 -203 -118 -271 -55 -61 -91 -77 -227 -99 -348
-57 -585 -69 -756 -40 -110 19 -143 29 -219 67 -83 42 -125 77 -208 177 -86
103 -106 126 -197 220 -38 40 -70 77 -70 81 0 5 -6 15 -13 22 -41 43 -179 374
-203 489 -19 88 -14 168 17 257 22 66 64 148 80 157 11 8 12 11 -6 -55 -23
-85 -20 -282 6 -383 52 -208 205 -378 404 -450 63 -22 71 -28 80 -58 5 -19 32
-57 61 -86 85 -86 181 -101 407 -63 150 25 292 62 365 97 72 34 158 120 237
237 33 48 81 116 107 150 29 37 43 65 38 70 -14 14 -50 -9 -85 -55 -56 -73
-65 -84 -102 -121 -20 -21 -42 -38 -50 -38 -7 0 -13 -4 -13 -9 0 -10 -114 -47
-187 -61 -128 -23 -490 -60 -588 -60 -310 2 -553 178 -626 455 -38 146 -34
296 13 435 l22 65 8 -83 c12 -145 56 -245 121 -275 58 -28 139 -22 213 14 66
33 179 137 229 212 92 139 69 246 -73 333 -36 23 -36 23 -10 24 58 0 196 -32
308 -73 82 -30 257 -122 292 -154 17 -15 48 -12 48 6 0 24 -189 141 -290 179
-85 32 -190 63 -250 73 -35 5 -66 12 -69 14 -2 2 19 29 47 60 28 30 64 81 80
113 29 56 41 91 103 302 31 104 65 180 81 180 5 0 12 -10 17 -23z m-315 -193
c18 -18 21 -66 6 -94 -32 -60 -100 -39 -100 30 0 65 56 103 94 64z m6661 -141
c16 -49 33 -96 39 -105 6 -9 8 -19 5 -22 -4 -4 -186 11 -234 20 -19 3 -68 83
-63 102 2 4 30 16 63 28 33 11 78 30 100 42 22 11 45 21 50 22 6 0 23 -39 40
-87z m-316 -60 c16 -20 28 -40 26 -43 -3 -4 -22 -10 -44 -14 -27 -4 -46 -15
-59 -33 l-19 -27 -13 23 c-6 13 -28 40 -47 62 -20 22 -34 41 -32 43 5 4 108
23 136 25 14 1 32 -12 52 -36z m-799 12 c179 -8 379 -12 445 -9 l120 5 35 -33
c81 -76 97 -116 58 -147 -11 -10 -29 -38 -38 -62 l-18 -44 -68 -2 c-221 -7
-505 -46 -719 -98 -110 -26 -353 -99 -400 -120 -16 -7 -46 -18 -65 -25 -75
-28 -326 -153 -384 -192 -33 -23 -90 -70 -126 -105 -55 -53 -71 -63 -100 -63
-63 0 -73 18 -94 162 -34 225 -21 281 82 348 278 183 619 345 827 393 36 8
114 7 445 -8z m-760 -19 c0 -2 -60 -34 -134 -69 -74 -36 -178 -91 -231 -121
-53 -31 -100 -56 -105 -56 -5 0 -35 47 -68 105 l-60 105 151 1 c86 0 208 8
282 19 147 20 165 22 165 16z m1861 -131 c149 -26 266 -61 300 -89 36 -30 92
-60 129 -69 31 -7 62 -71 91 -186 46 -180 9 -335 -110 -459 -35 -36 -38 -36
-156 6 -202 72 -355 171 -525 342 -106 106 -180 204 -180 237 0 36 41 111 86
159 21 23 45 49 52 58 17 21 194 22 313 1z m863 -195 c11 -50 29 -128 41 -174
l21 -85 -47 -26 c-27 -14 -71 -44 -98 -65 -28 -22 -56 -40 -63 -40 -7 0 -34
19 -61 43 -45 40 -47 44 -47 95 0 41 4 54 18 59 37 14 82 57 121 117 23 34 41
65 41 68 0 16 40 98 48 98 4 0 16 -41 26 -90z m-1384 -43 c0 -20 40 -88 83
-142 126 -155 351 -342 501 -414 50 -25 84 -68 139 -178 105 -211 180 -621
162 -888 -8 -129 -40 -349 -64 -445 -93 -374 -274 -777 -590 -1310 -47 -80
-91 -154 -97 -165 -6 -11 -66 -110 -134 -220 -68 -110 -145 -235 -172 -278
-26 -43 -48 -81 -48 -83 0 -3 -17 -31 -38 -62 -21 -31 -58 -92 -82 -134 -25
-43 -49 -78 -54 -78 -4 0 -5 8 -1 18 28 68 123 350 264 777 51 154 98 287 104
295 7 8 58 45 113 83 200 133 394 354 477 544 72 163 95 372 58 528 -62 259
-248 469 -548 620 -210 105 -359 140 -588 140 -130 -1 -175 -5 -241 -22 -332
-88 -554 -285 -634 -563 -16 -55 -23 -114 -27 -220 -5 -130 -1 -181 24 -371 4
-28 -6 -57 -55 -155 -76 -152 -188 -410 -239 -549 -6 -16 -23 -61 -37 -100
-14 -38 -30 -82 -35 -98 l-11 -28 -51 58 c-98 109 -114 129 -178 208 -151 189
-227 232 -326 186 -95 -43 -167 -152 -371 -556 -58 -115 -107 -211 -109 -213
-1 -2 -28 13 -58 32 -39 25 -54 41 -52 53 2 10 14 68 25 128 49 251 148 561
277 870 81 191 327 685 409 820 11 18 15 17 64 -15 47 -30 61 -34 119 -34 51
0 76 5 111 24 56 31 130 99 167 154 15 22 31 43 34 46 17 13 123 218 174 335
32 72 61 139 66 150 45 103 50 202 20 426 -43 314 -74 379 -170 351 -21 -7
-45 -12 -52 -12 -20 0 29 43 108 93 253 164 706 318 1108 378 125 19 428 40
448 31 4 -2 7 -9 7 -15z m1474 -299 c20 -58 103 -230 115 -238 4 -3 21 -25 38
-50 17 -25 72 -85 122 -135 l91 -90 0 -213 0 -213 -26 -24 c-15 -14 -30 -22
-34 -20 -5 3 -16 27 -26 53 -122 331 -279 615 -433 782 -33 36 -60 68 -61 71
0 4 17 19 38 35 20 15 39 32 40 36 2 4 8 8 13 8 6 0 27 11 47 25 20 14 41 25
47 25 6 0 19 -24 29 -52z m-163 -244 c61 -71 170 -247 227 -364 74 -154 77
-159 147 -349 50 -138 56 -160 50 -205 -32 -260 -129 -532 -300 -845 -47 -86
-172 -291 -253 -415 -25 -39 -76 -120 -115 -180 -38 -61 -73 -112 -78 -114 -5
-2 -9 -8 -9 -13 0 -11 -199 -309 -205 -309 -6 0 6 32 16 45 21 28 139 244 193
354 189 383 287 670 362 1062 21 111 31 518 15 632 -38 263 -133 530 -253 705
l-29 42 21 58 c11 31 23 63 26 71 4 13 113 -89 185 -175z m-213 -32 c117 -206
175 -362 219 -589 25 -128 25 -546 0 -693 -75 -443 -247 -885 -541 -1393 -106
-183 -131 -226 -146 -247 -6 -8 -52 -79 -103 -157 -106 -164 -118 -181 -133
-197 -16 -16 -158 -213 -214 -296 -24 -36 -48 -69 -52 -75 -4 -5 -31 -46 -59
-90 -151 -234 -258 -386 -304 -434 l-52 -54 -64 21 c-35 11 -81 23 -101 27
-55 10 -62 24 -42 81 24 72 71 155 235 419 10 17 29 49 41 73 12 23 26 42 30
42 4 0 8 5 8 11 0 5 30 58 66 117 37 59 85 136 107 172 22 36 76 124 119 195
43 72 83 137 88 145 167 274 385 686 469 885 18 44 39 94 46 110 70 166 154
470 181 660 23 161 23 469 0 620 -30 193 -95 405 -167 543 -16 30 -27 58 -24
60 2 2 41 -8 87 -22 116 -36 131 -34 182 17 23 23 50 54 60 69 21 33 37 28 64
-20z m-2680 11 c29 -57 89 -474 78 -542 -16 -104 -204 -505 -288 -617 -81
-108 -162 -170 -211 -162 -20 3 -20 5 8 20 40 21 126 111 170 175 49 73 144
266 215 438 5 11 16 36 24 55 9 20 22 65 30 100 11 57 11 80 -4 185 -10 66
-22 165 -28 220 -6 55 -14 110 -17 123 -9 26 10 30 23 5z m-47 -36 c4 -16 13
-86 19 -155 6 -70 15 -147 20 -172 20 -100 13 -156 -36 -279 -25 -64 -50 -120
-54 -125 -22 -23 -70 236 -77 412 -3 84 -10 155 -16 159 -12 7 -44 -10 -141
-75 -43 -29 -81 -50 -84 -48 -9 10 61 134 101 178 49 53 79 73 161 110 75 33
97 32 107 -5z m-152 -289 c2 -143 23 -281 63 -416 l21 -72 -57 -117 c-33 -67
-61 -112 -66 -107 -4 5 -18 54 -30 109 -17 75 -24 146 -28 283 -4 154 -7 182
-20 182 -17 0 -96 -57 -173 -125 -27 -25 -54 -45 -58 -45 -8 0 13 59 73 206
11 26 34 53 63 75 84 61 188 129 199 129 8 0 12 -33 13 -102z m3801 -75 c25
-23 56 -51 70 -63 31 -26 340 -330 340 -333 0 -2 -60 12 -132 31 -73 18 -189
41 -258 51 l-125 17 -3 179 c-1 99 0 186 3 194 6 15 6 15 105 -76z m-4797
-240 c78 -48 77 -47 77 -121 0 -157 89 -352 218 -478 51 -49 83 -74 155 -118
l28 -17 -34 -62 c-19 -34 -63 -116 -97 -182 -34 -66 -64 -123 -67 -128 -2 -4
-32 8 -66 27 -81 45 -141 61 -322 86 -180 25 -252 44 -259 68 -3 9 -15 103
-26 207 -11 105 -27 246 -35 315 -21 179 -21 182 18 205 63 37 153 140 190
217 19 40 37 86 41 101 l7 29 60 -58 c32 -32 83 -73 112 -91z m880 -25 c6
-158 12 -205 52 -384 5 -21 2 -41 -8 -60 -22 -41 -87 -115 -97 -109 -18 11
-60 264 -60 366 0 80 -19 76 -130 -30 -36 -33 -66 -57 -68 -51 -4 11 33 187
47 221 5 13 28 41 52 63 60 55 189 156 198 156 5 0 11 -78 14 -172z m-3543
150 c-31 -14 -70 -33 -111 -54 -27 -15 -38 -15 -85 -4 -43 11 -70 11 -136 1
-136 -20 -400 -26 -421 -10 -15 12 5 14 135 15 138 1 449 30 563 54 22 4 49 8
60 8 17 1 16 -1 -5 -10z m62 -33 c-17 -14 -54 -36 -84 -50 -70 -32 -366 -106
-303 -75 56 26 154 60 176 60 14 0 43 9 64 21 57 30 148 68 163 69 8 0 0 -11
-16 -25z m-1387 -12 c18 -21 24 -40 25 -73 0 -97 50 -581 81 -782 10 -70 26
-176 34 -235 9 -60 18 -116 21 -125 3 -10 3 -22 0 -27 -9 -13 -64 16 -70 37
-14 46 -62 492 -111 1037 -20 223 -21 215 20 168z m-105 0 c1 -47 78 -871 96
-1018 20 -175 33 -237 53 -253 9 -7 40 -25 70 -39 50 -24 58 -25 99 -14 25 6
46 10 47 9 1 -2 7 -41 14 -87 7 -46 25 -120 41 -164 26 -75 27 -82 14 -120
-19 -53 -27 -61 -74 -77 l-40 -13 -43 45 c-46 49 -153 130 -262 198 -142 88
-273 195 -485 394 -36 34 -94 86 -130 116 -36 30 -67 58 -70 61 -16 19 -146
107 -207 141 -40 22 -73 43 -73 46 1 4 24 25 52 47 28 22 56 45 62 51 6 5 76
59 156 119 143 108 252 192 340 264 48 39 66 57 174 169 103 108 166 155 166
125z m1195 -42 c-3 -5 -29 -18 -58 -28 -60 -21 -278 -26 -297 -7 -8 8 29 14
132 23 78 6 144 14 147 16 9 9 82 5 76 -4z m-975 -62 c42 -39 45 -46 67 -148
13 -58 28 -131 33 -161 13 -82 67 -366 85 -451 19 -94 19 -111 -4 -184 -10
-33 -22 -88 -26 -122 -6 -57 -9 -62 -38 -72 -16 -6 -32 -10 -33 -8 -14 13
-104 695 -123 927 -20 238 -21 260 -14 260 5 0 28 -19 53 -41z m572 16 c59
-27 172 -45 240 -39 l43 3 -45 -10 c-25 -5 -92 -9 -150 -7 -98 3 -108 5 -147
33 -24 17 -43 33 -43 38 0 15 49 6 102 -18z m8169 -146 c229 -41 466 -114 531
-163 79 -60 227 -157 263 -172 28 -11 36 -20 33 -37 -3 -19 -10 -23 -66 -27
-68 -5 -63 -2 -130 -90 -26 -33 -52 -37 -112 -20 -115 34 -415 80 -520 80
-106 0 -107 1 -112 80 -6 85 -50 182 -106 237 -95 93 -85 133 33 133 40 0 123
-9 186 -21z m2134 -185 c78 -46 229 -117 350 -163 61 -24 119 -47 130 -52 11
-4 52 -20 90 -34 161 -61 323 -129 408 -171 114 -56 217 -116 217 -126 0 -4
-24 -31 -52 -61 -54 -54 -153 -165 -204 -227 -16 -19 -31 -37 -34 -40 -3 -3
-25 -30 -50 -60 -56 -68 -90 -109 -110 -130 -9 -8 -38 -43 -65 -75 -103 -124
-248 -272 -436 -445 -63 -57 -213 -202 -333 -322 l-220 -218 -249 0 -250 0 7
46 c3 26 6 104 6 174 l0 127 41 44 c66 72 127 162 163 241 79 169 118 437 82
549 -25 77 -66 129 -133 172 l-60 39 -12 77 c-11 68 -18 84 -53 122 -37 42
-39 46 -32 89 10 58 11 179 2 205 -6 17 2 25 61 53 38 18 78 40 90 50 11 9 41
32 65 51 25 19 93 85 152 146 l108 111 135 -72 c75 -39 159 -84 186 -100z
m-10585 -4 c89 -90 166 -136 293 -176 64 -20 64 -21 33 -96 -14 -33 -20 -37
-68 -43 -121 -15 -170 -35 -226 -93 -29 -30 -55 -53 -58 -49 -3 3 -16 65 -30
139 -27 150 -82 433 -90 463 -3 11 18 -6 48 -40 29 -32 73 -80 98 -105z m4335
68 c3 -51 13 -131 21 -178 30 -169 30 -156 -7 -180 -37 -23 -97 -23 -125 1
-38 31 -67 112 -72 201 l-5 88 82 80 c45 44 85 80 90 80 5 0 12 -42 16 -92z
m1733 22 c359 -73 682 -292 806 -547 59 -120 79 -218 73 -353 -9 -195 -87
-386 -227 -555 -92 -111 -315 -302 -342 -293 -10 4 83 191 128 258 99 144 204
347 223 430 17 75 13 201 -9 272 -89 289 -505 548 -880 548 -214 0 -385 -70
-525 -213 -106 -109 -158 -212 -276 -545 -12 -35 -26 -59 -30 -55 -5 5 -13 51
-19 103 -45 433 92 712 432 875 141 68 254 94 416 94 96 1 161 -5 230 -19z
m-3285 -152 c18 -147 33 -287 43 -423 l7 -89 -21 14 c-12 8 -54 37 -94 65 -40
27 -117 83 -172 125 -54 41 -131 100 -172 131 l-73 56 22 20 c66 59 384 232
428 233 13 0 19 -25 32 -132z m5404 80 c114 -118 101 -310 -35 -522 -39 -61
-133 -186 -168 -226 -264 -292 -389 -466 -530 -738 -64 -123 -102 -172 -135
-172 -13 0 -18 4 -13 13 4 6 73 113 154 237 357 549 483 780 588 1075 32 89
82 291 82 331 0 43 17 44 57 2z m-5894 -115 c-100 -76 -188 -168 -223 -233
-12 -22 -12 -22 -33 -2 -46 42 -181 92 -318 118 -73 14 -403 54 -443 54 -37 0
-7 12 51 20 239 33 335 42 612 55 173 8 316 17 319 20 3 3 23 5 45 5 l39 0
-49 -37z m7095 -108 c34 -10 62 -22 62 -27 0 -10 -14 -10 -59 2 -20 5 -48 12
-63 15 -16 3 -28 12 -28 21 0 8 6 14 13 12 6 -2 40 -12 75 -23z m-7034 -49
c168 -129 311 -235 385 -286 47 -32 84 -66 90 -80 5 -14 14 -115 20 -225 7
-110 15 -224 18 -252 l6 -53 -262 0 c-223 0 -261 2 -261 15 0 23 -124 294
-140 305 -4 3 -10 55 -13 115 -7 120 -21 183 -60 260 l-25 50 21 39 c21 37
133 166 144 166 4 0 38 -24 77 -54z m-1724 28 c0 -2 -11 -21 -24 -42 -13 -21
-26 -47 -28 -58 -4 -21 -8 -21 -83 -3 -63 14 -68 19 -55 55 21 54 32 59 114
56 42 -2 76 -6 76 -8z m671 -9 c403 -36 621 -87 707 -168 64 -59 122 -218 122
-333 0 -51 1 -51 -102 -25 -329 84 -835 162 -1151 177 l-145 7 -9 46 c-7 37
-15 51 -50 76 -47 34 -78 92 -70 127 4 14 20 43 37 66 l30 42 233 0 c127 0
307 -7 398 -15z m4668 0 c362 -63 650 -292 694 -549 22 -127 -22 -259 -156
-471 -188 -297 -225 -384 -407 -940 -87 -266 -200 -598 -205 -603 -1 -2 -22
11 -46 27 -73 51 -166 66 -624 102 -304 23 -534 -15 -769 -127 -16 -8 -31 -12
-33 -10 -4 4 47 204 82 321 13 44 36 121 50 170 40 136 126 393 170 505 8 19
35 89 61 155 57 149 61 157 199 445 62 129 134 291 160 360 26 69 54 143 62
165 8 22 29 67 46 100 112 223 250 320 507 359 57 8 130 5 209 -9z m3749 -22
c12 -17 17 -105 6 -116 -4 -3 -27 8 -51 24 -24 17 -78 46 -119 65 -41 19 -73
38 -70 42 2 4 53 6 113 4 86 -2 111 -6 121 -19z m-9305 -25 c-3 -16 -9 -28
-14 -28 -12 0 -11 4 3 35 14 31 18 29 11 -7z m-1958 -66 c112 -44 287 -151
371 -227 6 -5 29 -25 50 -44 42 -38 239 -218 289 -265 73 -69 186 -155 338
-256 90 -59 189 -132 221 -161 63 -58 64 -61 31 -149 -12 -33 -15 -61 -11
-105 3 -33 10 -150 16 -260 5 -110 14 -220 19 -245 6 -25 10 -48 11 -52 0 -5
-349 -8 -775 -8 l-775 0 0 909 c0 500 3 916 6 924 6 15 47 3 209 -61z m10950
43 c75 -19 210 -83 252 -119 18 -15 41 -46 51 -69 11 -23 33 -57 51 -76 55
-58 66 -182 31 -331 -33 -138 -97 -217 -217 -272 -72 -32 -72 -32 -163 38
-188 145 -298 364 -326 651 l-7 73 42 41 c22 23 41 45 41 49 0 5 8 16 17 26
14 14 29 16 93 11 41 -4 102 -13 135 -22z m-833 -15 c99 -12 345 -55 399 -72
l36 -10 7 -86 c15 -191 90 -404 195 -547 l36 -50 -1 -160 c0 -198 -22 -309
-102 -522 -37 -97 -143 -287 -211 -378 -77 -103 -216 -253 -225 -244 -4 3 -17
90 -30 193 -21 161 -22 192 -11 229 29 97 48 307 42 472 -10 276 -66 480 -182
665 -44 71 -166 185 -228 213 -47 22 -55 30 -60 60 -4 28 3 52 39 123 24 48
44 96 44 106 0 16 10 18 83 18 45 0 121 -5 169 -10z m-8114 -71 c45 -8 72 -19
86 -34 64 -69 81 -85 92 -85 32 0 30 -134 -5 -257 -23 -84 -114 -278 -141
-303 -3 -3 -17 -21 -29 -40 -64 -94 -259 -250 -314 -250 -19 0 -96 89 -131
153 -76 136 -105 341 -71 502 25 116 44 163 74 181 15 9 37 31 50 49 31 46 60
63 134 79 79 18 172 19 255 5z m2837 -253 c33 -8 103 -19 155 -26 52 -6 128
-18 168 -26 75 -15 192 -65 213 -90 12 -15 6 -31 -86 -228 -89 -189 -171 -401
-241 -618 -16 -49 -31 -88 -35 -88 -3 0 -33 44 -67 98 -57 92 -61 102 -72 192
-7 52 -25 181 -40 285 -16 105 -36 249 -44 320 -9 72 -19 145 -22 163 -6 37
-8 36 71 18z m4865 -276 c-30 -526 -114 -1044 -246 -1525 -44 -162 -112 -385
-123 -405 -5 -10 -21 -13 -52 -11 -25 1 -92 -7 -148 -18 -208 -42 -319 -27
-846 116 -93 25 -173 49 -177 52 -8 7 200 310 257 374 6 7 33 41 60 77 56 74
65 85 81 104 16 17 162 219 269 370 25 35 49 58 65 62 76 16 114 40 150 94 31
47 128 222 164 297 6 13 14 23 19 23 4 0 7 5 7 11 0 24 171 260 257 354 67 73
173 196 198 230 17 22 39 50 50 63 l20 24 3 -49 c2 -26 -1 -136 -8 -243z m165
234 c78 -49 147 -134 206 -253 28 -58 56 -115 60 -126 17 -40 48 -183 60 -272
19 -151 0 -594 -23 -523 -3 8 -18 80 -33 160 -28 147 -93 363 -136 455 -52
112 -144 232 -200 261 l-28 14 6 152 c5 169 7 183 25 172 7 -4 36 -22 63 -40z
m-7405 26 c187 -11 394 -34 520 -56 47 -9 113 -19 147 -25 84 -12 313 -61 448
-96 l110 -28 38 -70 c46 -84 126 -297 167 -441 42 -152 99 -249 233 -404 26
-31 97 -146 97 -159 0 -5 4 -11 8 -13 12 -4 56 -120 81 -212 24 -88 22 -94
-36 -115 -111 -40 -257 -153 -318 -246 -54 -81 -68 -128 -69 -235 -1 -81 3
-107 28 -175 16 -44 33 -86 39 -93 7 -9 -2 -24 -31 -54 -23 -22 -57 -71 -77
-108 l-35 -68 -35 12 c-19 7 -37 15 -41 19 -3 3 2 194 11 424 l17 418 34 110
c151 493 27 822 -346 921 -79 21 -268 23 -355 5 -225 -47 -387 -133 -541 -286
-187 -184 -284 -401 -284 -635 0 -97 22 -184 67 -266 29 -54 128 -158 160
-168 19 -6 43 -44 43 -67 0 -6 6 -25 14 -42 24 -54 64 -187 55 -187 -4 0 -22
19 -40 43 -19 23 -36 44 -39 47 -3 3 -17 21 -30 40 -13 19 -27 37 -30 40 -3 3
-17 21 -30 40 -13 19 -27 37 -30 40 -6 5 -58 84 -142 215 -77 121 -228 406
-228 430 0 3 -9 24 -19 48 -31 66 -78 224 -97 322 -12 61 -17 143 -18 251 l-1
162 64 66 c36 36 69 73 75 83 5 10 12 20 16 23 4 3 30 41 57 86 55 87 118 243
134 332 15 77 16 82 31 82 7 0 87 -5 178 -10z m9011 -184 c15 -13 40 -43 55
-66 28 -43 29 -47 28 -169 -1 -131 -10 -177 -58 -311 -26 -71 -79 -170 -117
-218 -40 -51 -91 -104 -96 -99 -3 3 11 70 30 149 64 260 107 531 107 670 0 76
8 82 51 44z m-1557 -388 c108 -224 172 -512 246 -1108 66 -527 107 -769 147
-859 13 -30 21 -56 19 -59 -3 -2 -25 -8 -48 -12 -34 -7 -53 -4 -88 12 -116 52
-202 64 -304 43 -90 -19 -126 -33 -126 -51 0 -24 18 -25 92 -4 117 32 190 26
311 -27 55 -25 61 -26 137 -15 57 8 88 8 107 1 16 -6 66 -22 112 -35 212 -62
285 -138 334 -347 18 -79 21 -123 21 -312 0 -184 -3 -232 -18 -290 -34 -128
-54 -140 -233 -140 -67 0 -124 3 -127 6 -4 3 1 153 11 332 21 392 15 475 -37
579 -34 67 -55 87 -73 69 -7 -7 3 -36 29 -87 l39 -77 3 -151 c4 -136 -8 -410
-24 -609 l-7 -76 -76 -17 c-66 -15 -90 -16 -181 -6 -58 7 -123 12 -143 12 -43
0 -43 -3 -23 125 50 311 66 663 34 766 -21 67 -81 149 -108 149 -30 0 -24 -27
15 -73 42 -49 54 -86 61 -192 l5 -80 -28 75 c-25 66 -86 186 -102 200 -4 3
-19 22 -34 42 -53 71 -82 93 -240 183 l-49 27 22 23 c45 48 -8 89 -61 46 -22
-18 -23 -18 -103 25 -45 24 -82 50 -84 57 -2 8 12 61 31 118 24 71 36 96 39
79 2 -19 10 -26 38 -31 19 -3 45 -10 56 -17 12 -6 25 -8 28 -4 4 4 38 7 76 8
58 0 75 4 110 29 81 56 79 100 -5 139 -30 15 -60 36 -66 48 -21 39 -39 51 -78
51 -46 0 -85 -26 -102 -68 -7 -16 -21 -50 -31 -75 -24 -59 -17 -19 19 103 27
96 28 97 59 97 35 0 106 55 130 101 11 21 22 29 42 29 15 0 48 10 72 23 106
53 118 199 27 336 -13 20 -30 62 -36 93 -12 56 -47 109 -80 119 -12 4 -10 32
12 175 34 211 64 450 72 574 4 52 9 99 13 104 10 18 110 -103 146 -176z m1411
-48 c-69 -381 -129 -545 -280 -775 -42 -64 -79 -115 -81 -112 -2 2 16 43 40
91 59 116 90 200 120 324 35 143 50 288 43 413 l-5 106 27 16 c46 27 113 90
140 132 38 59 37 31 -4 -195z m-469 129 c10 -12 52 -44 93 -71 63 -43 78 -50
110 -45 20 3 43 8 53 12 37 15 36 -237 -3 -429 -60 -295 -211 -573 -422 -775
-52 -49 -187 -149 -240 -177 -97 -51 -143 -73 -153 -74 -10 0 -29 98 -40 215
l-5 60 94 95 c52 52 119 129 149 170 49 68 148 224 148 234 0 2 18 42 39 88
88 189 143 429 141 613 -1 49 -1 93 -1 98 2 13 18 7 37 -14z m-6533 -101 c-90
-78 -231 -230 -248 -267 -10 -23 -21 -41 -25 -41 -17 0 -120 280 -120 326 0
11 39 14 215 14 l216 0 -38 -32z m100 -20 c3 -13 8 -61 12 -108 l7 -86 -43
-62 c-39 -57 -44 -69 -43 -120 0 -47 8 -73 46 -152 47 -96 143 -263 178 -311
36 -50 31 -61 -35 -75 -33 -7 -73 -17 -88 -23 -46 -18 -56 -14 -63 27 -12 62
-64 203 -102 276 -20 39 -66 111 -103 161 -120 166 -118 177 67 363 72 72 138
132 147 132 8 0 17 -10 20 -22z m-2838 -97 c35 -36 67 -61 85 -65 l30 -5 0
-127 c0 -203 52 -419 155 -642 19 -41 33 -77 31 -79 -14 -14 -226 335 -272
447 -66 163 -123 361 -124 432 0 23 28 98 36 98 1 0 28 -26 59 -59z m287 -75
c-8 -174 30 -385 104 -586 102 -275 335 -664 564 -942 110 -134 117 -145 134
-214 9 -37 15 -68 13 -70 -11 -11 -222 224 -329 368 -15 20 -34 42 -41 50 -7
7 -24 29 -37 48 -13 19 -27 37 -30 40 -3 3 -17 21 -30 40 -13 19 -27 37 -30
40 -4 3 -21 28 -40 55 -19 28 -52 73 -74 101 -76 94 -91 116 -128 188 -155
298 -224 551 -216 795 3 90 6 105 22 115 11 6 40 23 65 39 25 15 48 27 51 27
3 0 4 -43 2 -94z m1604 29 c179 -60 279 -166 320 -343 25 -104 12 -314 -26
-417 -4 -11 -10 27 -14 90 -18 286 -55 392 -159 463 -138 95 -442 46 -680
-110 -183 -121 -291 -251 -369 -447 -41 -105 -58 -202 -58 -342 0 -65 -2 -119
-5 -119 -13 0 -72 68 -102 118 -50 84 -64 141 -64 262 1 415 362 800 816 870
103 16 252 5 341 -25z m-2019 -73 c27 -171 136 -447 246 -620 66 -102 63 -96
36 -81 -30 15 -184 169 -227 225 -45 59 -107 185 -133 267 -26 83 -30 197 -10
245 13 32 44 54 66 48 5 -1 15 -39 22 -84z m3002 -88 c2 -40 30 -52 139 -60
l102 -7 61 38 c33 20 64 33 69 29 25 -28 150 -242 150 -257 0 -10 -11 -64 -26
-119 -14 -56 -28 -126 -32 -157 -6 -50 -10 -56 -30 -55 -12 0 -73 1 -135 2
l-112 2 -62 103 c-34 56 -70 118 -81 137 -10 19 -37 69 -60 110 -70 129 -73
174 -21 260 20 32 23 33 30 15 4 -11 8 -29 8 -41z m1239 32 c25 -13 108 -96
156 -157 11 -13 32 -39 48 -57 34 -40 35 -52 5 -52 -17 0 -50 28 -118 101 -56
60 -115 113 -147 131 -39 22 -50 33 -40 39 20 13 66 11 96 -5z m-85 -50 c41
-17 237 -215 237 -239 0 -5 -16 -25 -35 -45 -19 -20 -35 -40 -35 -44 0 -4 -6
-13 -14 -21 -35 -35 -190 -342 -295 -584 -21 -48 -42 -88 -47 -90 -13 -3 -152
186 -225 309 l-40 66 75 149 c189 370 280 513 326 513 12 0 35 -6 53 -14z
m-2078 -78 c76 -41 112 -113 134 -273 13 -93 14 -592 1 -845 -5 -102 -12 -249
-16 -327 -4 -79 -10 -143 -14 -143 -4 0 -14 7 -21 16 -38 46 -185 128 -319
177 -120 44 -213 61 -298 55 -102 -7 -168 -52 -220 -146 l-29 -52 -32 107
c-53 182 -57 195 -101 313 -23 63 -46 133 -52 155 -16 63 -3 278 21 358 68
230 229 420 450 532 71 35 178 75 231 85 72 14 230 6 265 -12z m2496 -240 c29
-35 59 -69 66 -76 15 -16 16 -31 4 -51 -9 -14 -22 -2 -112 104 -19 22 -40 46
-46 53 -20 20 -16 32 11 32 16 0 39 -19 77 -62z m5201 -28 c-41 -37 -62 -81
-68 -143 -3 -29 -12 -69 -20 -90 -11 -31 -12 -47 -3 -80 6 -23 12 -76 14 -116
2 -70 5 -77 34 -103 26 -23 31 -35 31 -73 0 -40 -2 -45 -23 -45 -18 0 -29 -11
-44 -42 -18 -36 -20 -55 -16 -121 5 -69 9 -81 34 -105 35 -32 37 -50 7 -54
-32 -4 -36 -57 -8 -109 11 -22 18 -44 16 -48 -3 -5 -6 -61 -8 -125 -2 -100 -4
-116 -18 -112 -8 3 -42 15 -75 27 -47 17 -74 20 -125 16 -94 -8 -140 -24 -140
-47 0 -23 18 -25 70 -10 64 19 150 14 217 -14 59 -25 63 -25 105 -10 34 12 66
14 150 9 86 -5 114 -3 145 10 69 29 132 36 211 24 40 -7 75 -16 78 -20 3 -5
12 -9 20 -9 8 0 41 -17 72 -39 126 -86 190 -214 213 -431 23 -207 -32 -486
-104 -533 -12 -8 -56 -16 -98 -19 l-76 -5 8 46 c4 25 14 87 23 136 34 201 48
522 27 602 -6 22 -24 58 -41 81 -37 52 -135 126 -155 118 -24 -9 -18 -23 26
-58 112 -90 130 -122 137 -254 5 -97 -5 -223 -39 -467 -29 -212 -31 -217 -103
-239 -113 -34 -327 -42 -355 -13 -6 6 3 71 25 175 66 318 80 538 41 645 -28
77 -107 178 -132 169 -22 -9 -19 -25 10 -56 14 -15 25 -30 25 -34 0 -4 8 -17
18 -28 38 -43 52 -105 52 -237 0 -123 -9 -190 -71 -508 l-22 -113 -36 6 c-20
3 -79 9 -131 11 -52 3 -119 11 -148 17 l-54 12 7 40 c36 220 31 483 -15 660
-19 74 -58 168 -72 174 -4 2 -8 8 -8 13 0 6 -18 29 -40 53 -47 50 -131 94
-250 131 -47 14 -97 31 -111 37 -38 17 -68 67 -90 150 -19 75 -54 287 -48 292
2 2 55 29 117 61 63 32 159 91 215 132 114 84 299 267 376 370 28 37 54 73 58
78 39 51 73 105 73 114 0 6 5 11 10 11 6 0 10 4 10 10 0 5 21 44 48 87 43 72
47 76 50 49 3 -22 -4 -35 -26 -56z m-5241 -47 c71 -83 89 -109 84 -126 -3 -12
-19 -65 -35 -117 -71 -231 -101 -339 -155 -555 -31 -126 -59 -232 -61 -234 -8
-8 -104 78 -231 206 l-132 133 14 40 c15 43 24 63 74 173 17 37 31 70 31 73 0
13 160 325 195 380 53 83 105 145 116 138 6 -3 50 -53 100 -111z m-4573 34
c30 -52 42 -68 110 -142 45 -48 176 -165 252 -223 85 -66 187 -170 238 -242
56 -79 313 -423 321 -430 3 -3 33 -39 65 -80 78 -98 175 -199 256 -265 70 -57
79 -77 95 -210 5 -41 4 -47 -6 -31 -23 37 -45 62 -119 136 -79 78 -92 89 -150
130 -19 13 -37 27 -40 31 -5 6 -189 129 -194 129 -1 0 -38 20 -81 45 -179 102
-317 118 -380 44 -14 -18 -28 -30 -30 -28 -6 7 -55 107 -55 113 0 4 -15 39
-34 79 -19 40 -46 104 -61 142 -15 39 -33 84 -41 101 -23 51 -111 322 -133
409 -11 44 -26 121 -35 170 -34 209 -32 218 22 122z m3505 -306 c31 -12 63
-28 70 -34 6 -7 28 -25 47 -41 43 -35 99 -108 149 -195 66 -114 191 -369 191
-390 0 -27 -21 -40 -159 -96 -206 -84 -340 -115 -502 -115 -131 0 -230 -27
-290 -78 -15 -13 -41 -17 -132 -17 -61 0 -120 -4 -129 -9 -13 -6 -20 -3 -25
10 -3 11 -17 36 -30 57 -51 81 -122 235 -138 297 -78 302 185 538 705 634 58
11 186 -2 243 -23z m227 -57 c0 -8 -4 -12 -10 -9 -5 3 -10 10 -10 16 0 5 5 9
10 9 6 0 10 -7 10 -16z m189 -275 c56 -73 75 -119 52 -119 -5 0 -18 12 -29 28
-31 43 -96 172 -87 172 2 0 31 -36 64 -81z m1609 -125 c215 -17 352 -38 390
-59 15 -7 40 -25 55 -39 l29 -25 -51 -146 c-28 -81 -51 -157 -51 -171 0 -29
-4 -29 -100 -4 -89 23 -202 25 -285 5 -46 -11 -96 -13 -215 -8 -178 7 -262 -4
-386 -49 -101 -36 -196 -94 -192 -116 4 -22 32 -27 50 -9 8 8 29 22 47 32 158
81 323 112 503 94 92 -9 119 -8 184 7 117 26 256 16 354 -26 41 -17 118 -42
170 -56 229 -58 322 -148 367 -355 14 -68 18 -132 18 -334 0 -306 -8 -351 -69
-410 -35 -34 -53 -43 -106 -53 -35 -6 -66 -10 -68 -8 -2 3 6 51 17 108 61 307
63 611 4 768 -42 113 -109 200 -154 200 -30 0 -23 -19 27 -72 49 -52 83 -119
105 -208 18 -71 19 -405 1 -510 -7 -41 -20 -118 -29 -170 -8 -52 -21 -104 -28
-116 -15 -24 -127 -54 -203 -54 -39 0 -260 36 -269 44 -1 1 9 69 22 151 64
402 49 668 -48 850 -35 65 -67 85 -67 41 0 -14 4 -27 9 -31 5 -3 24 -42 42
-88 35 -91 58 -234 59 -362 0 -119 -50 -525 -69 -552 -10 -15 -196 -45 -311
-50 -241 -12 -597 39 -750 109 -155 70 -197 164 -188 425 5 138 5 138 47 225
23 48 48 93 54 100 24 26 67 98 67 113 0 8 -8 15 -19 15 -19 0 -30 -14 -88
-109 -18 -30 -33 -49 -33 -43 0 52 90 533 137 732 l18 75 65 32 c81 39 244 93
330 109 94 17 391 16 608 -2z m-1445 -71 c87 -94 238 -237 285 -270 20 -14 32
-53 15 -53 -5 0 -108 87 -165 139 -99 93 -208 209 -208 223 0 30 19 20 73 -39z
m2768 -3 c220 -61 247 -68 344 -91 238 -55 384 -63 527 -29 84 20 134 25 161
14 13 -5 12 -15 -8 -69 -13 -34 -27 -85 -31 -113 l-6 -50 -58 -7 c-37 -4 -66
-3 -79 5 -37 20 -169 40 -259 40 -187 0 -362 -62 -468 -164 -56 -54 -65 -73
-39 -83 10 -3 32 11 61 40 54 55 127 99 215 129 56 19 86 22 234 22 155 1 175
-1 227 -22 50 -20 64 -22 110 -14 100 18 163 -4 323 -113 44 -30 92 -65 107
-77 35 -29 73 -114 94 -209 31 -138 22 -814 -11 -847 -3 -3 -47 -10 -98 -15
-72 -8 -121 -7 -208 4 -104 13 -114 16 -113 34 1 11 9 72 19 135 22 159 31
478 16 610 -7 59 -22 130 -35 162 -30 73 -84 158 -101 158 -28 0 -26 -23 9
-82 93 -155 112 -342 75 -747 -11 -113 -32 -248 -42 -257 -8 -8 -369 -23 -552
-23 -341 -1 -529 27 -671 100 -114 58 -111 54 -103 146 10 102 10 384 0 450
-9 64 -5 72 87 168 40 42 72 81 69 88 -9 27 -34 14 -99 -52 -39 -40 -71 -71
-72 -69 -2 2 -13 35 -25 73 -28 88 -69 152 -133 209 l-50 44 59 69 c32 38 119
160 192 271 119 179 137 202 161 202 14 0 91 -18 171 -40z m-2734 -126 c59
-59 143 -136 185 -171 62 -52 77 -69 73 -86 -2 -12 -12 -60 -21 -107 -21 -113
-33 -130 -87 -130 -65 0 -74 12 -97 130 -31 155 -82 294 -168 463 -11 21 16
-2 115 -99z m-108 -86 c28 -66 73 -200 68 -204 -2 -2 -34 7 -71 21 -50 19 -85
25 -144 25 -77 0 -188 -26 -218 -51 -12 -10 -27 -6 -79 22 -36 19 -65 37 -65
40 0 3 38 15 85 27 102 26 338 118 368 143 31 26 36 24 56 -23z m-3460 -54
c69 -17 127 -43 226 -102 58 -33 224 -144 255 -168 140 -112 230 -196 230
-214 0 -6 4 -10 9 -10 16 0 80 -159 81 -202 0 -4 -32 -24 -71 -44 -38 -20 -83
-53 -99 -73 -83 -100 -99 -338 -33 -479 9 -18 14 -35 12 -37 -8 -7 -244 -35
-301 -35 -31 0 -79 5 -107 11 l-49 10 -7 52 c-3 29 -17 120 -31 203 -17 105
-22 169 -18 206 7 62 -5 81 -30 46 -21 -30 -20 -95 4 -263 12 -77 24 -165 27
-196 l6 -57 -41 -7 c-61 -10 -151 13 -157 39 -14 66 -54 278 -60 316 -4 33 -1
61 14 104 22 61 20 79 -6 74 -23 -5 -52 -86 -52 -149 -1 -31 10 -111 24 -179
31 -150 31 -163 5 -130 -28 36 -68 149 -80 227 -20 121 26 240 109 283 47 23
157 27 239 9 40 -10 63 -9 122 5 88 19 142 20 201 3 78 -24 98 7 27 39 -52 23
-164 23 -250 0 -62 -16 -98 -12 -98 12 0 8 -61 139 -136 290 -141 284 -158
333 -132 382 12 21 60 48 92 49 6 1 39 -6 75 -15z m1261 -19 c149 -48 308
-135 379 -208 l33 -35 -7 -264 c-8 -323 -21 -540 -36 -593 -31 -110 -251 -215
-449 -215 l-76 0 -17 73 c-30 127 -43 288 -28 344 18 70 19 98 1 98 -49 0 -64
-187 -31 -385 12 -67 21 -128 21 -135 0 -18 -49 -33 -135 -41 -91 -8 -83 -21
-115 204 -21 155 -22 210 -4 300 5 28 4 32 -14 32 -15 0 -24 -12 -36 -47 -21
-61 -20 -111 4 -263 40 -249 40 -251 -28 -181 -57 60 -87 147 -87 256 0 115
18 178 64 224 37 37 63 48 191 77 108 24 175 22 242 -10 42 -20 71 -26 120
-26 54 0 76 -6 124 -30 40 -22 60 -28 68 -20 32 32 -75 91 -179 97 -42 3 -96
15 -135 30 -56 22 -75 25 -140 20 -41 -3 -82 -8 -91 -12 -14 -5 -17 8 -23 92
-4 54 -20 164 -36 246 -36 179 -37 194 -5 260 30 63 79 114 131 133 57 21 189
12 294 -21z m787 -77 c10 -18 25 -47 32 -65 12 -31 11 -33 -26 -73 -154 -166
-227 -447 -189 -732 8 -64 25 -144 36 -178 12 -34 19 -65 16 -68 -11 -10 -86
19 -106 40 -34 37 -45 95 -44 228 1 110 5 137 31 220 17 52 34 120 37 150 29
229 89 417 156 488 28 29 35 28 57 -10z m871 -43 c27 -8 69 -28 93 -45 52 -35
64 -36 105 -11 45 27 177 55 227 47 72 -11 133 -36 172 -69 35 -31 38 -37 55
-142 10 -61 24 -177 31 -260 16 -192 17 -620 1 -658 -20 -48 -86 -68 -242 -74
-74 -2 -161 -1 -193 4 l-58 8 -1 480 c0 336 3 488 11 508 28 70 -2 107 -36 45
-16 -30 -18 -79 -23 -532 l-5 -500 -35 -3 c-19 -2 -68 -8 -108 -13 -145 -19
-234 -11 -357 33 l-40 14 -8 444 c-6 330 -5 455 4 487 6 23 15 42 19 42 12 0
33 58 25 69 -11 19 -24 12 -54 -30 -49 -67 -52 -103 -42 -574 5 -236 6 -434 2
-438 -5 -4 -71 -11 -147 -14 -129 -5 -143 -4 -190 16 -112 48 -158 142 -184
371 -30 252 32 492 164 637 41 45 58 56 117 74 67 20 92 21 189 4 27 -5 40 -2
60 15 46 40 85 58 155 74 81 18 215 14 293 -9z m-1118 -103 c23 -19 23 -19 7
-88 -9 -38 -20 -89 -24 -114 -6 -29 -14 -45 -23 -45 -13 0 -14 20 -11 125 4
154 6 158 51 122z m6015 -184 c122 -143 187 -346 170 -538 -8 -99 -40 -223
-73 -284 -28 -51 -91 -111 -104 -98 -4 4 -4 42 1 83 36 285 14 760 -40 861
-18 33 8 19 46 -24z m-7848 -165 c11 -21 24 -48 28 -60 6 -21 3 -23 -37 -23
-59 0 -117 -17 -155 -46 -43 -33 -54 -31 -43 7 20 70 67 119 114 119 25 0 40
6 48 20 17 27 21 26 45 -17z m1792 0 c0 -16 -4 -37 -9 -48 -6 -15 -9 -8 -9 28
-1 26 4 47 9 47 6 0 10 -12 9 -27z m-2029 -75 c-11 -24 -20 -64 -20 -89 0 -26
-9 -75 -20 -109 -11 -34 -20 -70 -21 -79 0 -10 -4 -6 -10 9 -16 40 -13 183 5
218 19 37 65 92 76 92 5 0 0 -19 -10 -42z m8264 -645 c-4 -32 -7 -63 -8 -70
-4 -26 -41 -39 -83 -28 -21 5 -20 8 20 48 23 23 49 57 56 75 7 17 15 32 18 32
2 0 1 -26 -3 -57z"/>
<path d="M3640 18703 c-42 -6 -143 -45 -180 -68 -55 -35 -129 -120 -156 -180
-14 -30 -30 -92 -37 -138 -11 -83 -12 -85 -45 -97 -19 -6 -49 -28 -67 -47
l-33 -35 -32 49 c-34 50 -118 153 -154 188 -12 12 -57 50 -101 85 -183 145
-408 206 -617 166 -185 -36 -317 -117 -485 -300 -47 -52 -135 -219 -168 -320
-44 -136 -50 -176 -50 -349 l0 -168 -55 -16 c-74 -21 -132 -79 -154 -152 -20
-68 -20 -81 0 -182 l17 -81 -32 -25 c-46 -36 -74 -97 -75 -165 0 -31 2 -60 6
-63 6 -6 1745 7 2593 20 187 3 801 10 1365 15 1645 17 2530 29 2540 35 16 10
11 98 -8 135 -9 19 -31 42 -49 50 -17 8 -45 33 -61 55 -38 51 -69 79 -109 94
-32 13 -103 11 -134 -3 -14 -6 -17 1 -21 41 -6 62 -53 177 -92 228 -47 61 -85
93 -153 125 -151 74 -304 36 -368 -90 -14 -27 -27 -50 -29 -50 -2 0 -25 9 -51
21 -48 21 -53 21 -141 -6 -20 -6 -21 -2 -27 72 -30 374 -300 752 -623 873 -84
32 -97 34 -214 34 -139 -1 -188 -13 -304 -78 -96 -54 -211 -178 -269 -292 -23
-44 -63 -163 -71 -209 -17 -102 -12 -95 -68 -95 -79 0 -121 -39 -158 -150
l-15 -45 -55 0 c-32 0 -69 -7 -89 -18 -19 -9 -36 -15 -38 -13 -3 2 -9 51 -14
107 -50 535 -344 956 -721 1033 -73 15 -142 18 -198 9z m215 -38 c33 -8 98
-34 145 -57 71 -35 102 -59 188 -145 56 -56 102 -107 102 -112 0 -5 6 -16 13
-23 26 -26 94 -155 130 -247 49 -121 84 -268 97 -406 17 -170 20 -175 77 -137
17 10 55 19 97 22 l71 5 21 59 c12 33 35 76 51 95 29 34 33 36 94 36 64 0 64
0 67 30 6 72 48 215 83 285 75 149 209 274 356 331 82 32 249 38 341 14 232
-63 445 -260 565 -523 59 -129 88 -238 103 -382 4 -36 12 -68 17 -72 6 -3 28
2 48 13 48 24 80 24 129 -1 22 -11 45 -20 52 -20 7 0 27 26 44 58 56 104 149
142 274 112 157 -38 290 -217 290 -392 0 -32 4 -58 10 -58 5 0 26 11 46 25 20
14 48 25 61 25 56 0 134 -55 166 -117 11 -20 29 -35 51 -43 28 -9 38 -20 51
-54 9 -24 15 -54 13 -67 -4 -29 126 -25 -1148 -39 -536 -6 -1373 -15 -1860
-20 -1340 -15 -2787 -30 -3140 -32 l-315 -2 1 61 c1 68 10 83 84 141 l25 20
-18 65 c-20 75 -22 159 -6 208 25 74 72 114 166 138 l41 11 -1 168 c-2 180 12
264 69 413 44 117 151 279 231 349 73 64 88 75 158 116 121 70 199 89 355 89
158 0 238 -20 355 -87 148 -86 246 -182 388 -383 24 -34 41 -32 72 9 14 19 45
42 68 51 51 21 57 28 57 85 1 224 187 399 425 400 45 0 108 -7 140 -15z"/>
<path d="M15169 18530 c-60 -18 -176 -88 -231 -139 -107 -99 -152 -188 -172
-340 -13 -97 4 -83 -146 -117 -134 -30 -275 -118 -361 -226 -50 -63 -112 -191
-136 -279 -23 -89 -23 -267 1 -387 10 -51 16 -95 14 -98 -3 -2 -37 0 -75 6
-170 27 -318 -43 -394 -186 -26 -47 -50 -137 -64 -236 l-6 -46 -87 0 c-60 0
-99 -4 -124 -16 -21 -9 -40 -16 -42 -16 -3 0 -32 39 -65 88 -93 136 -190 222
-337 296 -267 134 -565 134 -825 -1 -158 -81 -278 -227 -312 -379 l-14 -59
-79 0 c-88 -1 -131 -17 -175 -68 l-27 -30 -68 51 c-82 62 -141 82 -241 82
-195 0 -398 -167 -475 -390 -18 -53 -23 -87 -23 -182 l0 -116 -43 0 c-23 0
-57 -9 -75 -19 -71 -42 -117 -159 -103 -257 l7 -46 352 0 c641 0 3625 19 3995
26 241 4 362 10 362 17 0 7 -308 8 -1007 3 -2314 -16 -3678 -24 -3681 -21 -2
1 -3 30 -3 63 -1 88 37 163 96 192 30 14 58 20 87 18 32 -2 42 0 40 11 -2 7
-5 48 -8 90 -17 219 112 443 311 541 164 81 282 62 447 -71 l27 -22 51 46 c58
53 93 63 180 53 37 -4 61 -3 65 4 3 6 15 43 26 83 54 193 202 336 434 415 142
48 334 53 489 13 70 -19 272 -110 286 -129 3 -5 19 -17 35 -29 60 -42 129
-118 187 -205 32 -49 65 -91 72 -94 7 -3 36 4 65 16 37 14 75 20 131 20 52 0
82 4 87 13 4 6 15 56 24 110 28 161 92 261 204 317 42 21 64 25 140 25 50 0
107 -4 127 -8 55 -11 60 6 37 133 -25 141 -24 271 1 370 67 262 257 446 514
499 55 11 103 24 109 30 5 5 13 45 18 90 24 218 148 374 362 456 26 10 47 24
47 31 0 8 -1 14 -2 13 -2 0 -15 -4 -29 -9z"/>
<path d="M7530 16198 c-41 -4 -106 -17 -145 -29 -74 -22 -197 -82 -229 -111
-11 -10 -23 -18 -27 -18 -4 0 -15 -26 -24 -57 -11 -38 -30 -72 -56 -100 -44
-48 -44 -45 -2 -178 70 -221 197 -418 340 -528 80 -61 236 -136 298 -143 46
-6 54 -3 97 30 55 42 125 145 161 237 80 204 89 490 21 669 -20 54 -31 69 -64
88 -22 12 -57 45 -78 72 -20 26 -48 53 -62 58 -36 15 -143 19 -230 10z m192
-44 c23 -4 40 -13 43 -24 8 -26 76 -95 110 -113 23 -11 34 -28 47 -69 34 -104
40 -143 40 -277 0 -116 -3 -151 -26 -235 -35 -134 -85 -233 -151 -303 l-54
-57 -62 13 c-148 30 -316 151 -425 306 -61 88 -158 306 -179 403 -6 28 -3 36
20 54 30 23 64 90 65 125 0 28 36 55 136 103 78 37 162 64 229 73 50 7 168 7
207 1z"/>
<path d="M7545 16089 c-74 -10 -207 -52 -259 -82 -31 -17 -43 -32 -56 -71 -8
-26 -31 -66 -49 -88 -41 -48 -39 -65 17 -196 59 -137 136 -253 222 -335 80
-76 182 -135 250 -144 33 -5 40 -1 73 37 59 69 107 178 133 302 21 98 24 286
5 369 -10 49 -18 61 -51 84 -22 15 -53 49 -70 75 -39 61 -73 69 -215 49z m168
-45 c42 -50 92 -101 109 -110 26 -14 52 -178 44 -277 -14 -173 -69 -333 -145
-426 l-28 -34 -47 13 c-105 29 -242 145 -328 276 -38 59 -103 191 -122 252
l-18 52 31 38 c16 21 36 58 43 81 16 53 44 73 148 111 79 29 166 46 248 49 35
1 48 -4 65 -25z"/>
<path d="M7463 15970 c-66 -27 -68 -119 -5 -191 33 -36 44 -42 88 -46 46 -5
53 -3 72 22 35 44 28 125 -14 171 -20 23 -79 54 -99 53 -11 0 -30 -4 -42 -9z
m91 -45 c52 -39 73 -117 40 -149 -27 -27 -63 -19 -105 23 -32 32 -39 46 -39
78 0 21 5 44 12 51 16 16 69 15 92 -3z"/>
<path d="M7724 15920 c-35 -14 -54 -50 -54 -103 0 -40 5 -53 29 -78 36 -36 51
-36 90 -3 80 67 26 221 -65 184z m64 -63 c19 -39 0 -95 -35 -103 -31 -8 -42 3
-50 49 -12 75 55 117 85 54z"/>
<path d="M7314 15761 c-84 -51 -18 -181 91 -181 82 1 121 75 74 141 -41 58
-109 74 -165 40z m91 -25 c91 -39 75 -139 -21 -122 -67 13 -97 96 -44 123 31
16 24 16 65 -1z"/>
<path d="M7561 15675 c-52 -47 -64 -81 -59 -161 4 -60 7 -70 36 -95 43 -38
106 -40 147 -5 16 14 47 29 70 35 57 14 69 31 63 90 -9 87 -98 171 -183 171
-26 0 -45 -9 -74 -35z m146 -20 c50 -30 86 -90 81 -137 -3 -28 -8 -32 -49 -42
-25 -7 -56 -22 -69 -34 -26 -24 -75 -29 -101 -9 -62 47 -48 184 24 227 42 26
62 25 114 -5z"/>
<path d="M4189 15093 c-119 -74 -94 -384 76 -933 157 -505 317 -884 471 -1117
122 -185 295 -340 338 -304 9 8 16 27 16 43 0 39 25 97 46 105 9 3 31 -2 50
-12 32 -17 33 -17 76 12 24 16 52 33 63 39 85 45 134 420 90 687 -14 87 -57
264 -74 302 -4 11 -30 76 -57 144 -44 111 -148 315 -174 341 -3 3 -9 12 -15
21 -27 44 -88 135 -94 139 -3 3 -24 28 -46 55 -51 64 -196 209 -260 260 -27
22 -52 43 -55 46 -8 10 -169 112 -215 137 -102 55 -185 67 -236 35z m200 -74
c47 -23 88 -46 89 -50 2 -5 8 -9 13 -9 12 0 100 -62 169 -119 70 -58 202 -190
261 -261 109 -131 234 -335 298 -490 13 -30 29 -68 37 -85 58 -130 110 -347
125 -522 9 -104 8 -152 -4 -258 -21 -181 -39 -230 -101 -273 -47 -33 -51 -34
-87 -22 -67 23 -115 -9 -136 -90 -5 -19 -16 -36 -24 -38 -17 -3 -114 89 -174
163 -22 28 -42 52 -45 55 -16 14 -96 151 -147 251 -82 160 -113 234 -202 474
-89 239 -126 350 -206 625 -50 171 -86 372 -88 490 -2 207 48 243 222 159z"/>
<path d="M8683 14345 c-17 -12 -23 -26 -23 -55 0 -21 3 -46 6 -55 8 -21 56
-45 91 -45 39 0 158 -33 218 -60 89 -39 121 -28 104 34 -17 62 -100 138 -180
165 -92 30 -187 37 -216 16z m206 -45 c30 -11 71 -33 90 -48 35 -28 78 -98 68
-108 -3 -3 -41 8 -84 24 -43 17 -116 37 -162 46 -46 9 -90 21 -98 27 -14 12
-18 71 -5 83 11 12 129 -3 191 -24z"/>
<path d="M6940 13291 c-98 -27 -168 -67 -235 -135 -71 -72 -128 -175 -151
-272 -24 -100 -21 -268 5 -367 38 -146 133 -285 206 -303 19 -5 78 10 198 49
95 30 237 74 317 97 225 65 332 100 364 118 67 40 80 120 47 272 -32 141 -81
249 -164 362 -50 67 -181 151 -286 182 -73 21 -217 20 -301 -3z m328 -85 c143
-39 283 -170 351 -331 26 -63 61 -208 61 -258 0 -60 -24 -96 -83 -122 -77 -35
-93 -36 -87 -5 3 14 5 66 5 115 0 81 -3 97 -33 159 -39 83 -104 149 -188 191
-54 28 -67 30 -164 30 -97 0 -110 -2 -170 -31 -70 -33 -138 -95 -175 -159 -32
-56 -59 -176 -51 -228 8 -54 47 -167 58 -167 4 0 8 -6 8 -13 0 -8 22 -36 50
-63 l49 -48 -52 -16 c-68 -21 -92 -15 -138 31 -68 68 -123 203 -135 330 -7 82
17 201 58 289 30 62 99 151 145 185 21 16 40 32 43 35 12 16 126 71 173 85 61
17 193 13 275 -9z m5 -280 c81 -39 138 -95 178 -172 32 -63 34 -75 33 -158 0
-119 -14 -146 -85 -169 -29 -9 -55 -14 -57 -12 -3 2 6 26 18 52 66 137 12 291
-124 360 -98 50 -232 17 -305 -76 -44 -56 -66 -146 -51 -215 14 -70 60 -138
116 -173 24 -15 44 -30 44 -33 0 -9 -64 -30 -92 -30 -38 0 -112 77 -150 157
-19 39 -23 65 -23 143 0 107 10 141 64 213 46 62 118 114 184 132 78 22 183
14 250 -19z m-41 -183 c27 -24 24 -77 -6 -92 -53 -29 -113 50 -70 93 20 21 53
20 76 -1z"/>
<path d="M8124 12329 c-10 -17 13 -36 27 -22 12 12 4 33 -11 33 -5 0 -12 -5
-16 -11z"/>
<path d="M8330 12305 c-10 -12 -9 -16 3 -21 21 -8 37 3 30 21 -7 19 -17 19
-33 0z"/>
<path d="M8000 12285 c0 -8 9 -15 20 -15 11 0 20 7 20 15 0 8 -9 15 -20 15
-11 0 -20 -7 -20 -15z"/>
<path d="M9690 12220 c0 -16 7 -20 36 -20 26 0 43 -8 65 -29 25 -26 29 -37 29
-86 0 -48 3 -56 17 -53 24 4 36 60 23 108 -6 22 -25 53 -43 70 -26 25 -40 30
-79 30 -41 0 -48 -3 -48 -20z"/>
<path d="M8124 12175 c-9 -23 10 -40 25 -22 9 11 8 17 -4 27 -12 10 -16 9 -21
-5z"/>
<path d="M7882 12123 c2 -10 10 -18 18 -18 8 0 16 8 18 18 2 12 -3 17 -18 17
-15 0 -20 -5 -18 -17z"/>
<path d="M7020 11831 c-140 -43 -206 -155 -141 -240 22 -28 58 -23 46 7 -28
65 -28 68 -11 103 22 47 78 77 168 92 55 10 74 17 76 30 3 15 -5 17 -55 16
-32 0 -69 -4 -83 -8z"/>
<path d="M12761 13181 c-24 -27 -61 -57 -82 -67 -49 -22 -53 -41 -53 -234 1
-115 6 -161 22 -222 41 -151 101 -249 227 -371 43 -41 54 -47 80 -42 76 14
257 176 329 295 25 41 46 79 46 85 0 5 7 22 14 38 18 33 66 220 66 254 0 14
-14 44 -31 68 -20 28 -33 60 -36 90 -5 41 -10 48 -42 64 -100 50 -289 91 -420
91 l-77 0 -43 -49z m269 4 c98 -15 198 -43 250 -70 21 -11 30 -23 30 -41 0
-33 26 -93 52 -121 24 -26 22 -52 -17 -189 -57 -197 -137 -312 -300 -432 -95
-70 -107 -69 -190 20 -114 123 -175 254 -196 421 -10 80 -4 274 9 293 4 6 23
20 43 32 19 11 52 39 72 62 36 38 41 40 95 40 31 0 100 -7 152 -15z"/>
<path d="M12964 13122 c-6 -4 -23 -25 -38 -46 -77 -114 28 -272 140 -211 80
43 87 196 12 249 -23 16 -94 21 -114 8z m107 -51 c70 -70 4 -216 -82 -181 -29
12 -59 63 -59 98 0 54 46 112 88 112 13 0 37 -13 53 -29z"/>
<path d="M12719 12961 c-70 -71 -7 -201 98 -201 60 0 93 32 93 92 0 55 -17 87
-59 115 -48 33 -95 30 -132 -6z m134 -43 c34 -40 36 -83 5 -110 -31 -27 -75
-17 -110 24 -35 40 -35 72 -2 104 32 33 68 26 107 -18z"/>
<path d="M13182 12945 c-34 -28 -64 -96 -56 -122 14 -43 29 -62 55 -73 87 -37
181 89 138 184 -20 43 -92 49 -137 11z m103 -25 c51 -57 -59 -182 -113 -128
-24 24 -14 78 22 114 39 39 65 43 91 14z"/>
<path d="M12930 12776 c-65 -45 -90 -91 -90 -167 0 -56 20 -103 51 -119 12 -7
45 -9 88 -4 43 4 82 2 104 -5 55 -18 83 -6 103 45 33 87 -14 220 -93 262 -39
21 -124 15 -163 -12z m160 -23 c40 -23 74 -102 74 -169 0 -72 -15 -88 -69 -73
-22 7 -72 9 -112 6 -69 -5 -74 -4 -93 20 -14 18 -20 41 -20 73 0 114 128 197
220 143z"/>
<path d="M4127 11720 c-23 -18 -27 -29 -27 -69 0 -33 5 -53 18 -64 9 -8 64
-27 122 -41 109 -27 224 -70 251 -93 18 -15 49 -17 49 -3 0 11 -22 63 -30 70
-3 3 -17 21 -30 40 -57 84 -151 150 -235 164 -22 4 -52 9 -66 12 -17 3 -34 -2
-52 -16z m163 -43 c42 -15 71 -37 123 -89 37 -38 67 -73 67 -78 0 -5 -27 2
-60 16 -33 13 -105 34 -161 46 -110 23 -129 35 -129 78 0 62 44 69 160 27z"/>
<path d="M3980 10922 c-102 -29 -208 -97 -293 -187 -181 -191 -258 -579 -141
-706 14 -14 48 -33 77 -42 159 -48 487 -90 671 -85 114 3 126 5 189 36 115 57
175 162 185 326 4 79 9 95 35 132 36 51 32 76 -11 68 -45 -9 -48 12 -8 56 25
28 36 50 36 71 0 28 -2 31 -22 24 -52 -15 -68 -17 -68 -6 0 6 7 14 15 17 15 6
45 90 45 126 0 22 -18 23 -40 3 -10 -9 -34 -18 -53 -22 -33 -5 -40 -1 -88 46
-54 54 -132 104 -209 135 -69 27 -237 31 -320 8z m170 -122 c89 -12 146 -32
220 -79 261 -165 348 -524 170 -702 -38 -38 -110 -80 -110 -64 0 3 18 28 40
57 67 89 85 146 85 273 0 103 -2 114 -32 177 -59 125 -166 207 -300 229 -61
10 -79 9 -151 -9 -130 -33 -217 -105 -279 -229 -31 -63 -36 -84 -40 -165 -4
-77 -2 -104 16 -158 12 -36 30 -76 40 -90 10 -14 23 -34 29 -46 12 -24 10 -24
-93 -3 -156 32 -196 60 -215 150 -19 89 2 264 43 349 42 89 125 178 218 234
90 54 149 72 274 84 6 1 44 -3 85 -8z m175 -177 c78 -40 126 -90 167 -172 31
-62 33 -72 32 -171 0 -98 -2 -109 -31 -166 -38 -73 -74 -117 -127 -155 -47
-35 -97 -37 -304 -14 -149 17 -165 24 -215 101 -138 211 -45 500 191 595 37
15 66 19 137 16 77 -3 99 -8 150 -34z"/>
<path d="M4090 10529 c-60 -17 -83 -31 -131 -81 -52 -54 -69 -100 -69 -184 1
-109 51 -193 142 -238 104 -52 251 -22 317 63 48 64 56 89 56 180 -1 70 -5 94
-23 127 -57 104 -187 163 -292 133z m32 -116 c26 -23 24 -80 -4 -104 -47 -39
-108 -12 -108 48 0 62 68 96 112 56z"/>
<path d="M11477 11504 c-125 -30 -241 -108 -322 -217 -90 -118 -126 -215 -127
-332 0 -92 29 -147 95 -182 74 -38 414 -90 657 -99 150 -6 156 -6 183 16 131
104 118 437 -24 641 -66 95 -178 161 -304 180 -76 11 -87 10 -158 -7z m145
-88 c189 -37 315 -143 374 -316 47 -140 18 -331 -58 -384 -24 -17 -108 -21
-215 -10 l-61 7 57 56 c83 82 106 134 106 246 0 78 -4 97 -27 146 -15 30 -44
72 -65 92 -20 21 -62 50 -92 65 -48 23 -68 27 -146 27 -103 0 -152 -18 -227
-84 -87 -77 -132 -211 -108 -319 13 -59 42 -126 60 -137 5 -3 10 -12 10 -20 0
-31 -124 25 -152 69 -30 47 -21 200 15 280 82 179 216 268 444 295 6 0 44 -5
85 -13z m5 -125 c22 -11 61 -41 87 -67 57 -58 91 -155 84 -234 -10 -96 -74
-193 -166 -247 -39 -23 -49 -25 -110 -18 -37 4 -101 13 -141 21 -65 13 -80 19
-109 52 -63 68 -77 107 -77 207 0 73 5 99 23 135 38 78 92 126 180 161 61 25
171 20 229 -10z"/>
<path d="M11402 11219 c-139 -69 -168 -245 -58 -354 46 -46 135 -64 203 -41
56 19 90 45 127 100 45 66 34 188 -23 250 -59 65 -168 85 -249 45z m206 -79
c25 -24 27 -38 10 -75 -10 -23 -29 -30 -68 -25 -38 4 -54 75 -24 104 21 22 56
20 82 -4z"/>
<path d="M12999 11402 c-54 -57 -86 -104 -129 -189 -76 -151 -103 -267 -104
-451 l-1 -134 -40 7 c-216 36 -631 49 -654 22 -6 -8 -8 -17 -4 -20 3 -4 77 -7
163 -7 86 0 160 -3 163 -6 4 -4 -8 -14 -25 -23 -81 -41 -94 -137 -34 -265 85
-186 232 -369 348 -435 75 -43 163 -44 246 -2 66 34 175 134 223 206 18 28 36
52 39 55 4 3 10 15 14 28 22 67 42 -40 33 -172 -15 -213 -118 -436 -273 -590
-130 -129 -178 -139 -394 -82 -74 20 -243 52 -375 71 -132 20 -262 42 -290 50
-27 7 -72 20 -100 28 -65 18 -213 92 -307 153 -82 53 -186 142 -264 223 -36
38 -56 52 -68 48 -22 -9 -20 -20 8 -54 23 -27 24 -35 24 -178 -1 -187 18 -288
76 -405 85 -176 294 -338 581 -452 193 -77 334 -112 450 -112 128 0 183 38
279 193 31 50 56 93 56 96 0 3 25 47 56 98 61 99 116 163 148 173 55 17 170
117 233 202 16 20 30 39 33 42 11 11 53 88 85 156 100 213 120 434 54 604 -16
43 -36 84 -44 90 -20 16 -20 44 0 37 8 -4 48 -9 89 -13 90 -8 113 3 144 69 50
105 68 335 37 466 -35 146 -122 260 -232 301 -83 31 -196 26 -272 -13 -30 -15
-55 -26 -58 -24 -4 4 83 136 116 177 21 26 27 55 13 64 -5 3 -24 -12 -43 -32z
m240 -262 c73 -39 122 -87 165 -159 60 -103 72 -241 36 -405 -33 -149 -55
-167 -183 -147 -45 7 -102 22 -126 34 l-44 20 24 21 c14 12 37 30 51 40 15 11
39 45 55 75 25 50 28 66 28 151 0 83 -4 102 -27 150 -15 30 -44 72 -65 94 -42
44 -123 86 -168 86 -33 0 -75 20 -43 20 9 0 18 4 20 8 7 18 88 40 152 41 58 1
77 -4 125 -29z m-194 -89 c50 -24 83 -54 122 -112 96 -140 48 -360 -88 -409
-30 -11 -40 -10 -69 5 l-34 18 40 19 c84 43 124 104 124 193 0 93 -46 170
-119 201 -37 16 -122 19 -136 5 -6 -5 -20 -12 -32 -16 -18 -5 -23 -2 -23 10 0
26 41 94 59 98 41 11 119 5 156 -12z m-11 -177 c35 -34 10 -104 -36 -104 -54
0 -79 74 -36 104 29 20 52 20 72 0z m-1674 -1543 c26 -37 65 -79 86 -96 21
-16 42 -35 48 -40 153 -148 783 -321 905 -249 48 29 61 67 61 187 0 65 4 108
11 112 19 12 100 -6 121 -27 18 -18 20 -30 16 -97 -4 -69 -10 -87 -51 -163
-96 -176 -184 -224 -342 -188 -141 32 -179 42 -260 70 -124 43 -341 152 -418
210 -155 118 -232 226 -272 386 -22 91 -19 97 16 25 16 -36 52 -94 79 -130z
m301 165 c19 -8 51 -35 72 -60 42 -50 77 -59 121 -31 20 13 32 13 113 -5 125
-27 237 -85 316 -164 106 -106 154 -242 97 -274 -65 -35 -422 33 -641 122
-111 44 -220 112 -288 179 -55 53 -121 143 -121 163 0 7 17 20 38 30 108 52
227 68 293 40z m168 -77 c-21 -13 -41 -11 -61 8 -30 27 -21 33 28 16 33 -11
42 -18 33 -24z m739 -125 c26 -7 29 -19 6 -28 -17 -7 -54 10 -54 24 0 11 15
12 48 4z m-128 -186 l-1 -73 -20 38 c-17 33 -18 42 -7 72 19 54 28 42 28 -37z"/>
<path d="M10521 10816 c-16 -19 -71 -181 -71 -209 0 -13 -9 -35 -20 -48 -40
-45 -61 -88 -66 -136 -8 -61 20 -103 68 -103 17 0 52 -8 78 -17 45 -16 49 -16
74 1 27 17 96 151 96 185 0 9 -9 31 -20 49 -16 25 -20 50 -20 112 0 43 -5 91
-11 107 -23 61 -80 93 -108 59z"/>
<path d="M11851 10301 c-15 -10 -8 -41 9 -41 15 0 25 29 14 40 -5 5 -15 5 -23
1z"/>
<path d="M10458 10203 c-31 -37 -60 -125 -55 -165 11 -78 61 -113 101 -69 23
25 46 104 46 156 0 73 -56 120 -92 78z"/>
<path d="M12000 10056 c0 -8 4 -17 8 -20 13 -8 35 11 28 23 -10 16 -36 14 -36
-3z"/>
<path d="M11847 10034 c-14 -15 -6 -34 14 -34 14 0 19 5 17 17 -3 18 -20 27
-31 17z"/>
<path d="M9723 10920 c-12 -5 -33 -26 -47 -47 -14 -21 -38 -46 -54 -55 -35
-21 -46 -43 -68 -136 -23 -102 -15 -178 25 -241 20 -31 31 -61 31 -84 0 -39
11 -72 35 -101 24 -31 84 -25 112 11 13 15 23 34 23 42 0 7 20 32 44 55 76 73
83 146 26 262 -24 50 -29 68 -20 83 5 11 10 49 10 85 0 58 -3 69 -27 95 -32
34 -59 43 -90 31z"/>
<path d="M3683 9429 c-18 -5 -33 -14 -33 -19 0 -11 9 -13 63 -10 48 2 66 -19
67 -78 0 -30 4 -42 13 -40 14 5 21 59 13 94 -11 43 -70 68 -123 53z"/>
<path d="M8991 10222 c-28 -27 -51 -54 -51 -60 0 -14 48 -90 91 -145 57 -72
152 -161 248 -234 71 -55 212 -129 310 -164 l64 -23 23 30 c42 52 57 95 62
183 5 89 -11 176 -45 254 -14 31 -22 38 -55 43 -24 4 -54 21 -83 46 -67 59
-208 96 -426 113 l-87 7 -51 -50z m194 -9 l47 -6 -5 -50 c-4 -27 -8 -52 -11
-54 -2 -2 -38 -7 -80 -10 -42 -3 -79 -10 -82 -15 -3 -5 -20 10 -37 33 l-31 42
27 23 c15 13 27 28 27 34 0 11 73 13 145 3z m209 -35 c58 -15 94 -32 126 -58
25 -21 63 -44 85 -52 37 -15 65 -41 54 -52 -13 -13 -200 65 -271 113 -73 49
-99 71 -82 71 4 0 44 -10 88 -22z m-27 -61 c82 -55 128 -79 190 -97 46 -14 83
-28 83 -32 0 -3 -13 -11 -30 -17 -16 -5 -30 -14 -30 -20 0 -10 56 -117 73
-139 22 -28 -7 -23 -101 18 l-99 42 -63 -32 c-54 -27 -66 -30 -86 -20 -14 8
-25 26 -29 49 -18 100 -21 105 -95 147 -38 21 -70 42 -70 45 0 3 27 9 61 12
33 3 63 8 66 11 3 3 8 28 11 56 2 27 6 50 8 50 2 0 52 -33 111 -73z m-181
-133 c42 -26 53 -39 58 -69 4 -20 5 -40 2 -43 -7 -6 -186 168 -186 181 0 9 25
-5 126 -69z m498 -41 c12 -64 18 -143 10 -143 -5 0 -28 33 -50 73 l-41 72 31
11 c44 17 44 17 50 -13z m-188 -112 c5 -5 47 -25 94 -44 80 -33 85 -37 84 -65
-1 -16 -10 -38 -19 -49 -17 -21 -19 -21 -69 -3 -60 20 -144 62 -199 98 l-39
26 44 22 c45 24 87 30 104 15z"/>
<path d="M9317 10062 c-50 -55 18 -142 111 -142 46 0 62 14 62 55 0 71 -129
136 -173 87z m86 -16 c43 -18 69 -49 65 -78 -3 -20 -8 -23 -50 -22 -40 0 -52
5 -73 30 -29 34 -32 59 -7 73 23 14 27 13 65 -3z"/>
<path d="M11599 8118 c-13 -18 -32 -39 -42 -47 -17 -12 -19 -22 -14 -85 19
-220 152 -472 304 -577 63 -43 85 -39 153 30 72 74 105 154 121 296 14 115 10
143 -27 182 -14 15 -34 44 -45 65 -10 20 -30 45 -44 56 -39 31 -161 79 -247
96 -114 24 -133 22 -159 -16z m255 -57 c29 -12 30 -21 4 -25 -21 -3 -63 -38
-76 -63 -21 -39 -14 -92 18 -140 30 -45 38 -77 20 -88 -13 -8 -49 16 -44 30 3
7 -2 18 -10 24 -13 11 -17 9 -26 -14 -18 -47 -11 -91 26 -164 39 -78 107 -141
152 -141 32 0 88 59 103 108 13 44 9 114 -7 119 -6 2 -14 -6 -17 -17 -4 -14
-12 -21 -24 -18 -27 5 -29 61 -4 97 25 35 27 88 4 121 -35 51 -73 66 -73 28 0
-21 -1 -21 -16 -6 -12 12 -15 26 -10 52 4 20 11 36 16 36 6 0 10 9 10 20 0 25
2 25 50 0 23 -12 45 -33 55 -52 8 -18 28 -49 45 -68 27 -32 30 -42 30 -105 0
-137 -54 -283 -122 -333 -9 -7 -24 -19 -33 -28 -14 -14 -19 -13 -54 15 -139
110 -241 292 -276 491 -12 66 -12 87 -2 99 6 8 19 24 27 34 8 10 24 22 35 26
20 8 145 -16 199 -38z m9 -58 c-14 -5 -17 -52 -7 -91 8 -27 52 -41 65 -21 8
11 13 9 29 -10 26 -31 25 -58 -5 -106 -13 -22 -25 -52 -25 -66 0 -34 32 -63
65 -57 21 5 25 2 25 -20 0 -31 -47 -107 -76 -123 -16 -8 -27 -8 -45 2 -51 26
-120 130 -132 197 -6 30 5 44 18 22 11 -18 64 -11 75 10 14 26 6 52 -32 113
-24 37 -29 54 -24 80 7 39 39 77 64 76 10 0 12 -3 5 -6z"/>
<path d="M2597 8061 c-42 -6 -56 -15 -100 -62 -29 -30 -62 -61 -75 -69 -46
-30 -67 -267 -38 -422 15 -77 51 -169 86 -218 29 -40 68 -39 128 2 135 93 250
285 307 511 l27 107 -26 45 c-14 24 -26 50 -26 58 0 41 -154 67 -283 48z m216
-47 c27 -10 69 -110 62 -144 -7 -30 -7 -30 -78 -30 -77 1 -110 17 -136 68 -20
38 -54 28 -123 -38 -72 -69 -108 -79 -108 -30 0 29 11 44 61 85 14 11 35 34
48 50 12 17 35 33 49 36 35 9 206 11 225 3z m-174 -126 c11 -31 2 -105 -14
-118 -26 -21 -45 0 -45 49 0 71 41 118 59 69z m-89 -63 c0 -8 -9 -24 -19 -34
-11 -11 -25 -39 -32 -63 -20 -74 -19 -72 -30 -61 -15 15 11 103 42 142 27 33
39 38 39 16z m154 -4 c42 -47 57 -142 30 -196 -14 -30 -14 -30 -9 19 6 58 -7
113 -35 149 -33 42 -21 67 14 28z m154 -30 c-4 -21 -87 -29 -99 -9 -13 20 -11
26 14 30 46 6 88 -4 85 -21z m-403 -22 c0 -7 -8 -15 -17 -17 -18 -3 -25 18
-11 32 10 10 28 1 28 -15z m232 -20 c14 -27 17 -99 5 -99 -27 0 -58 75 -47
111 8 25 26 20 42 -12z m-132 11 c-3 -5 -12 -10 -18 -10 -7 0 -6 4 3 10 19 12
23 12 15 0z m280 -31 c0 -9 -11 -14 -29 -14 -36 0 -46 22 -14 28 32 6 43 3 43
-14z m-217 -12 c6 -29 -6 -64 -24 -71 -34 -13 -55 33 -38 79 9 22 58 16 62 -8z
m-178 -2 c0 -8 -4 -15 -10 -15 -5 0 -10 7 -10 15 0 8 5 15 10 15 6 0 10 -7 10
-15z m373 -31 c11 -11 -5 -34 -24 -34 -21 0 -22 1 -13 24 6 16 25 21 37 10z
m-290 -90 c-33 -69 -106 -74 -82 -5 15 42 67 77 87 57 11 -11 10 -20 -5 -52z
m187 -28 c0 -14 -5 -28 -11 -32 -36 -22 -97 77 -68 112 12 15 16 13 46 -20 19
-20 33 -46 33 -60z m61 6 c-58 -113 -148 -217 -218 -250 -34 -16 -35 -16 -52
6 -15 21 -53 110 -66 158 -8 32 54 40 98 14 40 -25 79 -25 142 -1 32 12 52 27
58 42 27 73 38 92 48 82 7 -7 4 -23 -10 -51z m-171 28 c0 -5 3 -15 6 -24 8
-20 -15 -21 -40 -3 -22 16 -12 47 15 40 10 -3 19 -9 19 -13z m-46 -49 c4 -5
24 -12 46 -16 51 -9 52 -25 2 -25 -40 0 -86 25 -77 41 8 12 22 12 29 0z"/>
<path d="M10408 5521 c-31 -3 -63 -12 -69 -18 -7 -7 -14 -37 -17 -68 l-4 -55
41 0 c22 0 41 4 41 9 0 4 25 11 56 14 32 3 64 13 75 23 25 22 24 59 -1 84 -21
21 -26 21 -122 11z"/>
<path d="M6199 6527 c-41 -31 -50 -87 -22 -136 32 -55 106 -69 148 -26 19 19
25 35 25 71 0 39 -5 51 -31 75 -34 31 -90 39 -120 16z m96 -42 c63 -62 -8
-153 -74 -95 -16 13 -23 30 -23 56 0 63 52 84 97 39z"/>
<path d="M6568 6213 c-50 -31 -62 -95 -29 -149 56 -91 181 -53 181 55 -1 89
-80 138 -152 94z m96 -34 c19 -15 26 -29 26 -56 0 -65 -56 -94 -108 -57 -46
32 -18 134 37 134 10 0 30 -9 45 -21z"/>
<path d="M1016 5991 c-7 -10 7 -126 21 -175 12 -42 18 7 10 76 -11 87 -20 117
-31 99z"/>
<path d="M13110 5983 c0 -24 19 -144 26 -163 19 -55 15 82 -5 178 -1 1 -5 2
-11 2 -5 0 -10 -8 -10 -17z"/>
<path d="M1269 5963 c-26 -29 -99 -149 -99 -162 0 -27 21 -5 69 74 49 80 66
130 30 88z"/>
<path d="M13338 5927 c-48 -71 -70 -116 -65 -130 2 -7 28 26 59 73 73 114 71
110 55 110 -8 0 -30 -24 -49 -53z"/>
<path d="M800 5946 c0 -24 66 -170 78 -174 18 -6 15 11 -11 70 -13 29 -30 68
-37 86 -13 33 -30 43 -30 18z"/>
<path d="M12904 5935 c4 -14 18 -50 31 -80 14 -29 25 -59 25 -64 0 -6 7 -11
16 -11 9 0 14 4 12 8 -1 4 -18 45 -37 90 -18 45 -38 82 -43 82 -6 0 -7 -11 -4
-25z"/>
<path d="M14650 5488 c0 -40 22 -153 32 -163 10 -10 3 128 -8 168 -7 24 -24
21 -24 -5z"/>
<path d="M14861 5411 c-50 -78 -60 -101 -43 -101 10 0 112 156 112 170 0 26
-22 3 -69 -69z"/>
<path d="M14444 5444 c11 -42 68 -164 77 -164 14 0 11 16 -20 87 -16 38 -32
76 -35 86 -9 28 -29 21 -22 -9z"/>
<path d="M640 4691 c0 -6 7 -11 16 -11 38 0 131 -55 186 -110 97 -98 169 -278
185 -458 7 -85 16 -93 72 -67 128 57 225 -100 170 -275 -22 -70 -117 -236
-163 -286 -72 -77 -63 -87 81 -85 180 3 297 -26 405 -100 68 -46 86 -48 94
-11 30 138 60 196 124 238 89 59 209 10 384 -156 63 -61 122 -110 130 -110 19
0 38 29 61 91 59 160 221 199 351 86 57 -49 103 -166 104 -262 0 -118 -100
-356 -232 -549 -86 -126 -87 -140 -10 -161 111 -31 127 -37 168 -60 50 -29
115 -99 145 -157 18 -34 24 -66 28 -153 5 -91 9 -109 21 -106 134 31 235 21
345 -34 100 -50 186 -137 229 -233 10 -23 23 -42 28 -42 4 0 8 1 8 3 0 1 9 43
19 94 34 162 121 287 240 341 128 59 241 34 351 -77 73 -73 117 -150 165 -285
18 -50 39 -92 47 -94 8 -1 22 14 32 35 50 107 134 177 250 208 57 15 74 16
119 6 58 -13 74 -23 101 -65 45 -71 27 -200 -54 -388 -22 -51 -40 -103 -40
-116 0 -29 33 -42 108 -42 134 0 265 -40 329 -101 49 -46 77 -111 69 -160 -3
-22 -3 -39 0 -39 4 0 24 17 44 38 21 21 66 53 101 72 55 29 76 35 149 38 106
5 172 -17 266 -90 36 -27 71 -47 78 -45 7 3 22 44 34 92 47 191 146 261 297
208 58 -21 158 -110 205 -183 45 -70 80 -66 80 10 0 15 9 57 20 93 63 205 282
178 466 -58 21 -27 45 -55 54 -62 27 -22 87 -14 182 23 123 47 220 56 261 24
26 -21 28 -27 26 -81 -1 -33 2 -64 7 -69 6 -6 31 -2 69 12 75 27 251 36 334
18 132 -30 230 -99 272 -193 19 -42 23 -70 23 -140 0 -56 4 -86 11 -84 15 5
22 81 13 148 -18 132 -98 221 -251 278 -83 30 -239 38 -332 16 -133 -31 -120
-34 -120 30 0 49 -4 60 -28 80 -55 48 -131 42 -325 -25 -111 -39 -120 -37
-184 49 -103 136 -193 192 -315 194 -109 1 -167 -55 -198 -196 -17 -78 -28
-94 -40 -56 -11 34 -147 163 -200 189 -74 36 -166 35 -224 -3 -53 -35 -96
-102 -122 -192 -29 -99 -29 -101 -37 -89 -12 16 -85 70 -122 89 -136 70 -299
54 -427 -41 -39 -29 -43 -30 -43 -4 0 36 -38 97 -86 138 -61 52 -142 78 -289
94 -63 6 -120 15 -126 18 -7 5 -1 29 20 73 76 162 111 343 81 419 -32 80 -99
114 -210 106 -124 -9 -251 -93 -306 -200 l-22 -43 -12 45 c-18 67 -84 203
-129 263 -120 163 -274 213 -432 141 -83 -38 -178 -143 -219 -240 -17 -42 -34
-92 -37 -110 -7 -42 -14 -43 -38 -2 -53 90 -183 191 -288 223 -46 14 -82 17
-165 13 l-107 -4 0 85 c-1 71 -5 96 -27 143 -54 116 -151 191 -293 224 -38 10
-73 20 -78 24 -4 3 26 56 66 116 82 123 151 253 193 364 25 66 28 89 28 195 1
111 -1 124 -26 175 -67 136 -193 204 -315 169 -65 -18 -120 -77 -157 -168
l-28 -72 -97 93 c-151 147 -240 198 -343 198 -50 0 -67 -5 -103 -30 -50 -34
-103 -128 -112 -199 -3 -23 -9 -43 -13 -46 -3 -2 -33 14 -66 36 -99 66 -288
108 -426 94 -41 -4 -68 -3 -68 2 0 6 23 41 51 78 154 203 200 403 119 511 -44
59 -110 79 -176 54 -15 -6 -29 -8 -32 -5 -3 2 -11 49 -19 102 -33 241 -141
428 -289 502 -53 27 -114 39 -114 22z"/>
<path d="M1900 4296 c0 -44 20 -138 33 -151 9 -10 3 91 -10 155 -8 41 -23 38
-23 -4z"/>
<path d="M13930 4294 c0 -47 23 -155 33 -151 4 1 9 6 9 10 0 17 -14 133 -18
150 -8 26 -24 20 -24 -9z"/>
<path d="M2110 4233 c-47 -74 -59 -103 -42 -103 8 0 97 134 108 163 3 10 1 17
-5 17 -6 0 -34 -35 -61 -77z"/>
<path d="M14189 4293 c-8 -10 -31 -43 -49 -73 -19 -30 -40 -61 -47 -68 -7 -8
-10 -18 -6 -24 7 -13 38 22 89 105 35 56 44 96 13 60z"/>
<path d="M1694 4264 c13 -52 69 -165 78 -156 10 10 -61 182 -75 182 -5 0 -6
-12 -3 -26z"/>
<path d="M13723 4265 c8 -43 65 -165 77 -165 16 0 12 13 -20 82 -16 34 -30 68
-30 74 0 6 -8 18 -17 25 -15 13 -16 11 -10 -16z"/>
<path d="M5400 3562 c0 -6 5 -46 11 -89 12 -89 29 -121 28 -52 -1 76 -13 142
-26 147 -7 2 -13 -1 -13 -6z"/>
<path d="M5637 3513 c-20 -28 -37 -54 -37 -58 0 -4 -9 -18 -20 -32 -20 -26
-27 -53 -12 -53 4 0 25 30 47 66 22 36 46 72 53 80 8 8 12 22 10 31 -2 12 -14
3 -41 -34z"/>
<path d="M5193 3515 c8 -44 64 -165 77 -165 15 0 13 8 -24 94 -39 88 -62 120
-53 71z"/>
<path d="M8750 3288 c0 -50 21 -158 31 -158 12 0 11 8 -3 107 -12 82 -28 112
-28 51z"/>
<path d="M8955 3215 c-30 -47 -55 -88 -55 -90 0 -3 6 -5 13 -5 11 1 117 158
117 174 0 23 -27 -6 -75 -79z"/>
<path d="M8530 3278 c0 -9 44 -117 61 -150 30 -60 45 -34 15 28 -13 27 -29 66
-37 87 -7 20 -19 37 -26 37 -7 0 -13 -1 -13 -2z"/>
<path d="M14575 3176 c-45 -20 -76 -59 -82 -104 -7 -54 2 -86 33 -117 95 -95
240 -33 238 101 0 46 -4 57 -32 84 -53 50 -100 61 -157 36z m116 -29 c22 -14
39 -38 48 -64 13 -37 13 -45 -3 -82 -19 -41 -63 -71 -106 -71 -40 0 -88 30
-105 67 -31 64 -6 130 60 159 43 19 68 17 106 -9z"/>
<path d="M11766 2942 c-10 -16 19 -175 33 -180 11 -4 13 3 7 29 -4 19 -9 60
-13 92 -6 55 -16 77 -27 59z"/>
<path d="M965 2906 c-68 -35 -105 -91 -105 -162 0 -64 13 -100 48 -137 41 -44
81 -60 145 -60 48 0 65 5 100 29 90 62 112 179 51 266 -58 83 -152 108 -239
64z m149 -20 c108 -45 128 -208 34 -280 -152 -115 -350 89 -225 231 53 60 122
78 191 49z"/>
<path d="M3777 2923 c-10 -17 18 -166 32 -171 11 -4 13 3 7 34 -4 22 -9 63
-13 92 -5 47 -15 64 -26 45z"/>
<path d="M12018 2913 c-28 -33 -99 -154 -96 -163 2 -5 8 -6 13 -2 11 7 115
167 115 176 0 12 -17 5 -32 -11z"/>
<path d="M3986 2835 c-55 -85 -64 -105 -47 -105 10 0 121 167 121 181 0 25
-25 0 -74 -76z"/>
<path d="M11550 2903 c0 -10 39 -110 60 -155 16 -34 34 -37 27 -5 -17 73 -87
202 -87 160z"/>
<path d="M3568 2895 c-8 -8 -4 -21 34 -112 28 -68 48 -92 48 -59 0 21 -75 178
-82 171z"/>
<path d="M2053 2761 c-40 -25 -62 -58 -64 -96 -4 -50 11 -91 42 -121 26 -25
38 -29 89 -29 53 0 63 3 90 31 58 57 57 145 -1 200 -38 37 -111 43 -156 15z
m142 -34 c44 -44 52 -78 30 -126 -42 -95 -168 -95 -210 0 -22 48 -14 82 30
126 27 27 41 33 75 33 34 0 48 -6 75 -33z"/>
<path d="M14905 2598 c-67 -38 -58 -140 15 -163 38 -12 91 14 106 52 13 31 13
38 -3 71 -13 26 -25 38 -43 40 -23 2 -24 2 -5 -9 49 -28 60 -80 25 -117 -23
-25 -75 -29 -101 -9 -28 21 -33 70 -9 100 12 15 28 27 35 27 8 0 17 5 20 10 8
13 -15 12 -40 -2z"/>
<path d="M6810 2134 c0 -46 23 -154 33 -154 9 0 2 106 -10 158 -7 30 -23 28
-23 -4z"/>
<path d="M7072 2139 c-9 -11 -80 -117 -108 -161 -2 -4 0 -9 6 -13 11 -7 123
160 118 177 -3 8 -8 7 -16 -3z"/>
<path d="M6603 2103 c9 -42 66 -163 77 -163 15 0 12 17 -14 68 -13 26 -29 64
-35 85 -14 43 -36 51 -28 10z"/>
<path d="M13984 2006 c-56 -31 -93 -92 -94 -154 0 -103 115 -185 215 -152 135
44 151 236 26 300 -44 22 -113 25 -147 6z m131 -26 c96 -47 100 -196 6 -245
-17 -8 -50 -15 -75 -15 -85 0 -149 87 -126 171 16 56 78 104 139 108 8 1 33
-8 56 -19z"/>
<path d="M12934 1806 c-124 -54 -160 -223 -68 -320 110 -117 295 -73 340 80
14 49 14 59 0 108 -17 59 -61 110 -113 132 -41 18 -118 17 -159 0z m154 -30
c73 -38 112 -120 93 -193 -32 -119 -159 -171 -259 -106 -43 28 -82 92 -82 134
0 65 39 132 95 162 37 20 117 22 153 3z"/>
<path d="M1285 1483 c-106 -25 -84 -183 25 -183 42 0 90 47 90 89 0 54 -64
106 -115 94z m72 -35 c27 -25 30 -73 7 -106 -11 -16 -25 -22 -53 -22 -74 0
-108 74 -56 125 30 31 71 32 102 3z"/>
<path d="M9830 1422 c0 -21 5 -64 11 -95 14 -67 35 -79 25 -14 -3 23 -9 66
-13 95 -7 60 -23 70 -23 14z"/>
<path d="M10044 1368 c-26 -40 -51 -78 -55 -83 -4 -6 -4 -17 0 -24 6 -9 26 16
65 77 31 49 56 92 56 96 0 21 -25 -3 -66 -66z"/>
<path d="M9618 1414 c-13 -12 67 -188 81 -180 9 6 -59 186 -70 186 -3 0 -8 -2
-11 -6z"/>
<path d="M3749 1377 c-76 -51 -88 -148 -24 -211 38 -38 83 -50 134 -36 47 13
55 19 80 60 24 39 27 102 8 140 -34 66 -133 90 -198 47z m131 -12 c52 -27 75
-101 48 -159 -16 -35 -85 -68 -127 -60 -45 9 -88 55 -93 100 -11 98 84 164
172 119z"/>
<path d="M14654 1270 c-11 -4 -33 -23 -48 -41 -24 -29 -28 -40 -24 -81 11
-113 138 -155 208 -70 58 71 31 169 -52 193 -39 11 -56 11 -84 -1z m91 -24
c40 -17 55 -42 55 -93 -1 -41 -11 -59 -50 -86 -39 -27 -77 -22 -116 17 -42 42
-47 96 -11 137 36 41 67 48 122 25z"/>
<path d="M2747 1232 c-55 -34 -58 -121 -5 -169 27 -24 98 -23 125 3 44 42 52
77 28 129 -26 54 -93 71 -148 37z m118 -27 c17 -16 25 -35 25 -57 0 -38 -6
-48 -40 -71 -35 -24 -73 -21 -104 8 -34 31 -36 88 -4 122 30 32 90 32 123 -2z"/>
<path d="M6175 971 c-82 -35 -73 -160 13 -185 64 -18 124 30 124 100 0 63 -77
111 -137 85z m105 -38 c16 -21 20 -37 16 -62 -8 -50 -32 -71 -81 -71 -53 0
-80 26 -80 80 0 54 27 80 81 80 35 0 47 -5 64 -27z"/>
<path d="M4445 926 c-42 -18 -65 -57 -65 -107 0 -34 6 -47 35 -76 33 -33 39
-35 85 -31 76 8 109 53 101 138 -3 32 -27 59 -68 76 -39 17 -50 17 -88 0z m88
-18 c40 -21 52 -41 52 -85 0 -84 -82 -125 -152 -75 -40 28 -50 70 -28 115 24
51 80 71 128 45z"/>
<path d="M7144 921 c-39 -24 -68 -91 -58 -135 15 -67 62 -106 131 -106 136 0
181 183 61 246 -38 20 -97 17 -134 -5z m145 -27 c76 -64 31 -194 -68 -194
-109 0 -157 128 -73 197 39 32 101 31 141 -3z"/>
<path d="M11971 859 c-13 -17 -20 -33 -18 -36 8 -8 47 35 47 52 0 21 -3 19
-29 -16z"/>
<path d="M13220 705 c0 -117 4 -185 10 -185 6 0 10 68 10 185 0 117 -4 185
-10 185 -6 0 -10 -68 -10 -185z"/>
<path d="M9775 831 c-4 -29 -4 -55 -1 -58 3 -4 6 7 6 24 0 36 9 47 27 32 19
-16 16 2 -6 30 l-19 24 -7 -52z"/>
<path d="M11647 859 c-3 -12 -2 -30 3 -38 7 -13 10 -10 15 12 4 16 3 33 -2 38
-7 7 -12 3 -16 -12z"/>
<path d="M10090 845 c-10 -12 -10 -15 4 -15 9 0 16 7 16 15 0 8 -2 15 -4 15
-2 0 -9 -7 -16 -15z"/>
<path d="M10066 803 c-6 -14 -5 -15 5 -6 7 7 10 15 7 18 -3 3 -9 -2 -12 -12z"/>
<path d="M11702 796 c7 -8 15 -12 17 -11 5 6 -10 25 -20 25 -5 0 -4 -6 3 -14z"/>
<path d="M10123 760 c0 -25 2 -35 4 -22 2 12 2 32 0 45 -2 12 -4 2 -4 -23z"/>
<path d="M11641 661 c0 -79 1 -142 4 -140 9 10 14 175 6 229 -7 44 -9 26 -10
-89z"/>
<path d="M11994 675 c0 -66 1 -92 3 -57 2 34 2 88 0 120 -2 31 -3 3 -3 -63z"/>
<path d="M12856 755 c-4 -19 -11 -35 -17 -35 -6 0 -7 -4 -4 -10 11 -17 30 10
32 46 4 44 -3 44 -11 -1z"/>
<path d="M10036 763 c-6 -14 -5 -15 5 -6 7 7 10 15 7 18 -3 3 -9 -2 -12 -12z"/>
<path d="M9863 745 c7 -14 16 -25 20 -25 9 0 -9 36 -22 44 -5 4 -4 -5 2 -19z"/>
<path d="M10305 761 c-14 -6 -8 -8 25 -9 33 0 40 2 25 8 -25 10 -25 10 -50 1z"/>
<path d="M10640 759 c0 -5 4 -9 9 -9 5 0 17 -3 27 -7 11 -4 15 -3 11 4 -9 14
-47 24 -47 12z"/>
<path d="M14360 760 c-11 -7 -7 -10 17 -10 57 0 73 -29 75 -139 l2 -96 3 94
c2 52 9 101 15 108 8 10 7 12 -4 8 -9 -4 -26 4 -41 19 -28 28 -43 31 -67 16z"/>
<path d="M14520 760 c-11 -7 -4 -10 26 -10 22 0 45 -4 52 -10 8 -6 7 -5 0 4
-18 19 -60 27 -78 16z"/>
<path d="M9772 660 l1 -105 7 90 c3 50 2 97 -2 105 -4 8 -7 -32 -6 -90z"/>
<path d="M10608 753 c7 -3 16 -2 19 1 4 3 -2 6 -13 5 -11 0 -14 -3 -6 -6z"/>
<path d="M10880 754 c38 -8 90 -9 90 -2 0 4 -24 7 -52 7 -29 -1 -46 -3 -38 -5z"/>
<path d="M11160 750 c-9 -6 -10 -10 -3 -10 6 0 15 5 18 10 8 12 4 12 -15 0z"/>
<path d="M11550 745 c0 -8 2 -15 4 -15 2 0 6 7 10 15 3 8 1 15 -4 15 -6 0 -10
-7 -10 -15z"/>
<path d="M12448 753 c7 -3 16 -2 19 1 4 3 -2 6 -13 5 -11 0 -14 -3 -6 -6z"/>
<path d="M12495 750 c29 -11 43 -31 54 -76 5 -21 9 -30 10 -18 3 53 -33 105
-71 103 -7 0 -4 -4 7 -9z"/>
<path d="M12700 751 c0 -4 11 -6 25 -3 14 2 25 6 25 8 0 2 -11 4 -25 4 -14 0
-25 -4 -25 -9z"/>
<path d="M13450 753 c8 -3 22 -11 30 -17 13 -10 13 -9 1 7 -7 9 -21 17 -30 16
-13 0 -14 -1 -1 -6z"/>
<path d="M13756 752 c-2 -4 12 -6 32 -4 62 6 69 10 20 11 -26 0 -49 -3 -52 -7z"/>
<path d="M14043 753 c9 -2 23 -2 30 0 6 3 -1 5 -18 5 -16 0 -22 -2 -12 -5z"/>
<path d="M14100 756 c0 -2 9 -6 20 -9 11 -3 18 -1 14 4 -5 9 -34 13 -34 5z"/>
<path d="M14280 745 c0 -11 4 -26 9 -33 7 -11 9 -11 14 1 3 8 -1 23 -8 34 -14
17 -14 17 -15 -2z"/>
<path d="M10530 708 c0 -32 3 -39 10 -28 13 20 13 70 0 70 -5 0 -10 -19 -10
-42z"/>
<path d="M11381 740 c0 -8 6 -28 14 -45 l14 -30 -6 30 c-7 38 -22 68 -22 45z"/>
<path d="M12372 655 l1 -100 7 90 c3 50 2 94 -2 100 -4 5 -7 -36 -6 -90z"/>
<path d="M10835 730 c-3 -5 -1 -10 4 -10 6 0 11 5 11 10 0 6 -2 10 -4 10 -3 0
-8 -4 -11 -10z"/>
<path d="M11880 725 c-7 -9 -11 -18 -8 -20 3 -3 11 1 18 10 7 9 11 18 8 20 -3
3 -11 -1 -18 -10z"/>
<path d="M12672 728 c-7 -7 -12 -16 -12 -21 0 -5 7 -1 16 8 9 9 14 18 12 20
-2 3 -10 -1 -16 -7z"/>
<path d="M13870 730 c0 -5 5 -10 11 -10 5 0 7 5 4 10 -3 6 -8 10 -11 10 -2 0
-4 -4 -4 -10z"/>
<path d="M14150 732 c0 -12 19 -26 26 -19 2 2 -2 10 -11 17 -9 8 -15 8 -15 2z"/>
<path d="M10986 722 c19 -12 34 -49 35 -84 l1 -33 9 35 c11 46 -6 90 -35 90
-12 0 -16 -3 -10 -8z"/>
<path d="M12260 720 c0 -5 5 -10 11 -10 5 0 7 5 4 10 -3 6 -8 10 -11 10 -2 0
-4 -4 -4 -10z"/>
<path d="M13715 719 c-4 -6 -5 -12 -2 -15 2 -3 7 2 10 11 7 17 1 20 -8 4z"/>
<path d="M10235 706 c-3 -9 -7 -23 -10 -31 -2 -8 -2 -15 1 -15 7 0 25 52 20
58 -3 3 -8 -3 -11 -12z"/>
<path d="M10712 700 c0 -14 2 -19 5 -12 2 6 2 18 0 25 -3 6 -5 1 -5 -13z"/>
<path d="M11541 704 c0 -11 3 -14 6 -6 3 7 2 16 -1 19 -3 4 -6 -2 -5 -13z"/>
<path d="M9986 685 c-3 -8 -1 -15 4 -15 6 0 10 7 10 15 0 8 -2 15 -4 15 -2 0
-6 -7 -10 -15z"/>
<path d="M10434 670 c7 -40 -7 -100 -26 -111 -7 -4 -9 -11 -6 -15 4 -3 16 9
27 27 22 37 27 95 10 119 -8 11 -9 6 -5 -20z"/>
<path d="M13119 685 c-5 -95 -3 -125 9 -125 15 0 17 107 2 130 -8 12 -10 12
-11 -5z"/>
<path d="M9916 670 c9 -33 35 -52 51 -38 7 6 13 15 13 20 0 7 -5 7 -13 0 -15
-12 -29 -5 -46 23 -11 18 -11 18 -5 -5z"/>
<path d="M11857 683 c-4 -3 -7 -11 -7 -17 0 -6 5 -5 12 2 6 6 9 14 7 17 -3 3
-9 2 -12 -2z"/>
<path d="M12260 671 c-7 -15 -7 -21 0 -21 12 0 25 28 17 36 -3 3 -10 -4 -17
-15z"/>
<path d="M12850 648 c0 -26 4 -38 8 -30 8 12 4 72 -4 72 -2 0 -4 -19 -4 -42z"/>
<path d="M11291 672 c0 -7 -5 -11 -10 -7 -5 3 -12 1 -15 -4 -6 -9 23 -25 31
-17 3 2 3 13 0 23 -3 10 -5 12 -6 5z"/>
<path d="M12642 655 c0 -16 2 -22 5 -12 2 9 2 23 0 30 -3 6 -5 -1 -5 -18z"/>
<path d="M13963 664 c-3 -8 -1 -29 5 -47 10 -32 10 -31 11 16 1 48 -5 60 -16
31z"/>
<path d="M14184 641 c0 -22 4 -37 8 -35 11 7 10 62 -1 68 -5 3 -8 -12 -7 -33z"/>
<path d="M11517 655 c-4 -8 -2 -17 3 -20 6 -4 10 3 10 14 0 25 -6 27 -13 6z"/>
<path d="M10800 639 c0 -11 5 -17 10 -14 6 3 10 13 10 21 0 8 -4 14 -10 14 -5
0 -10 -9 -10 -21z"/>
<path d="M13465 650 c-3 -5 1 -10 9 -10 9 0 16 5 16 10 0 6 -4 10 -9 10 -6 0
-13 -4 -16 -10z"/>
<path d="M14280 590 c0 -40 2 -71 4 -69 7 7 10 129 3 136 -4 3 -7 -27 -7 -67z"/>
<path d="M14620 650 c0 -5 5 -10 10 -10 6 0 10 5 10 10 0 6 -4 10 -10 10 -5 0
-10 -4 -10 -10z"/>
<path d="M11228 643 c7 -3 16 -2 19 1 4 3 -2 6 -13 5 -11 0 -14 -3 -6 -6z"/>
<path d="M11823 643 c-15 -5 -17 -23 -4 -23 5 0 11 7 15 15 3 8 4 15 3 14 -1
0 -8 -3 -14 -6z"/>
<path d="M12218 643 c7 -3 16 -2 19 1 4 3 -2 6 -13 5 -11 0 -14 -3 -6 -6z"/>
<path d="M13078 643 c7 -3 16 -2 19 1 4 3 -2 6 -13 5 -11 0 -14 -3 -6 -6z"/>
<path d="M13418 643 c7 -3 16 -2 19 1 4 3 -2 6 -13 5 -11 0 -14 -3 -6 -6z"/>
<path d="M10221 625 c0 -11 6 -31 14 -45 l15 -25 -6 30 c-4 17 -10 37 -15 45
-7 12 -8 11 -8 -5z"/>
<path d="M10533 595 c0 -27 2 -38 4 -22 2 15 2 37 0 50 -2 12 -4 0 -4 -28z"/>
<path d="M11155 630 c-3 -6 1 -7 9 -4 18 7 21 14 7 14 -6 0 -13 -4 -16 -10z"/>
<path d="M12271 624 c0 -11 3 -14 6 -6 3 7 2 16 -1 19 -3 4 -6 -2 -5 -13z"/>
<path d="M12990 631 c0 -5 9 -7 20 -4 11 3 20 7 20 9 0 2 -9 4 -20 4 -11 0
-20 -4 -20 -9z"/>
<path d="M13368 633 c7 -3 16 -2 19 1 4 3 -2 6 -13 5 -11 0 -14 -3 -6 -6z"/>
<path d="M11114 594 c-4 -14 -3 -34 2 -45 7 -15 9 -8 9 26 0 52 -2 55 -11 19z"/>
<path d="M10815 590 c8 -27 25 -53 32 -46 2 2 -6 19 -17 37 -18 28 -20 29 -15
9z"/>
<path d="M11430 600 c0 -8 5 -22 10 -30 9 -13 10 -13 10 0 0 8 -5 22 -10 30
-9 13 -10 13 -10 0z"/>
<path d="M13327 603 c-11 -11 -8 -58 5 -71 7 -7 26 -12 43 -11 32 1 28 3 -19
14 -25 5 -28 9 -24 40 4 38 4 38 -5 28z"/>
<path d="M13491 594 c0 -11 3 -14 6 -6 3 7 2 16 -1 19 -3 4 -6 -2 -5 -13z"/>
<path d="M11288 560 c-2 -22 0 -40 4 -40 5 0 8 18 8 40 0 22 -2 40 -4 40 -2 0
-6 -18 -8 -40z"/>
<path d="M12259 577 c-15 -20 -15 -23 0 -39 16 -16 17 -14 18 22 1 22 1 40 0
40 -1 0 -9 -11 -18 -23z"/>
<path d="M10996 568 c-16 -19 -17 -20 -1 -15 9 4 21 7 26 7 5 0 9 7 9 15 0 21
-12 19 -34 -7z"/>
<path d="M12944 579 c-3 -6 1 -17 10 -25 9 -8 12 -9 7 -3 -5 6 -7 18 -4 25 6
17 -3 19 -13 3z"/>
<path d="M12660 572 c0 -5 7 -15 15 -22 8 -7 15 -9 15 -6 0 4 -7 14 -15 22 -8
9 -15 11 -15 6z"/>
<path d="M12835 569 c-4 -6 -5 -13 -2 -16 7 -7 27 6 27 18 0 12 -17 12 -25 -2z"/>
<path d="M13710 571 c0 -6 4 -13 10 -16 6 -3 7 1 4 9 -7 18 -14 21 -14 7z"/>
<path d="M13980 576 c0 -2 7 -9 15 -16 9 -7 15 -8 15 -2 0 5 -7 12 -15 16 -8
3 -15 4 -15 2z"/>
<path d="M14155 560 c-3 -5 -2 -10 4 -10 5 0 13 5 16 10 3 6 2 10 -4 10 -5 0
-13 -4 -16 -10z"/>
<path d="M11467 553 c-4 -3 -7 -20 -7 -37 l1 -31 14 34 c8 18 15 35 15 37 0 6
-16 5 -23 -3z"/>
<path d="M12552 540 c0 -14 2 -19 5 -12 2 6 2 18 0 25 -3 6 -5 1 -5 -13z"/>
<path d="M13870 549 c0 -5 5 -7 10 -4 6 3 10 8 10 11 0 2 -4 4 -10 4 -5 0 -10
-5 -10 -11z"/>
<path d="M14627 545 c-4 -8 -2 -17 3 -20 6 -4 10 3 10 14 0 25 -6 27 -13 6z"/>
<path d="M9770 534 c0 -8 5 -12 10 -9 6 4 8 11 5 16 -9 14 -15 11 -15 -7z"/>
<path d="M10121 534 c0 -11 3 -14 6 -6 3 7 2 16 -1 19 -3 4 -6 -2 -5 -13z"/>
<path d="M10710 535 c0 -8 5 -15 10 -15 6 0 10 7 10 15 0 8 -4 15 -10 15 -5 0
-10 -7 -10 -15z"/>
<path d="M11020 540 c0 -5 5 -10 11 -10 5 0 7 5 4 10 -3 6 -8 10 -11 10 -2 0
-4 -4 -4 -10z"/>
<path d="M11991 534 c0 -11 3 -14 6 -6 3 7 2 16 -1 19 -3 4 -6 -2 -5 -13z"/>
<path d="M12100 542 c0 -15 39 -25 81 -19 29 3 27 4 -11 5 -26 1 -51 7 -58 14
-9 9 -12 9 -12 0z"/>
<path d="M12365 541 c-3 -5 -1 -12 5 -16 5 -3 10 1 10 9 0 18 -6 21 -15 7z"/>
<path d="M13125 541 c-3 -5 -1 -12 5 -16 5 -3 10 1 10 9 0 18 -6 21 -15 7z"/>
<path d="M10289 527 c5 -5 26 -7 47 -5 l39 3 -47 5 c-26 3 -43 1 -39 -3z"/>
<path d="M10866 529 c3 -5 26 -9 51 -9 26 0 44 2 42 4 -9 8 -98 13 -93 5z"/>
<path d="M11220 530 c-9 -6 -10 -10 -3 -10 6 0 15 5 18 10 8 12 4 12 -15 0z"/>
<path d="M13055 530 c-16 -7 -17 -9 -3 -9 9 -1 20 4 23 9 7 11 7 11 -20 0z"/>
<path d="M13750 528 c0 -5 22 -8 49 -8 28 0 52 3 54 8 3 4 -19 7 -49 7 -30 0
-54 -3 -54 -7z"/>
<path d="M14075 530 l-50 -7 53 -1 c29 -1 52 2 52 8 0 6 -1 9 -2 8 -2 0 -25
-4 -53 -8z"/>
<path d="M11163 523 c9 -2 23 -2 30 0 6 3 -1 5 -18 5 -16 0 -22 -2 -12 -5z"/>
<path d="M12733 523 c15 -2 37 -2 50 0 12 2 0 4 -28 4 -27 0 -38 -2 -22 -4z"/>
<path d="M12998 523 c6 -2 18 -2 25 0 6 3 1 5 -13 5 -14 0 -19 -2 -12 -5z"/>
<path d="M11436 445 c-9 -26 -7 -32 5 -12 6 10 9 21 6 23 -2 3 -7 -2 -11 -11z"/>
<path d="M11390 410 c0 -5 5 -10 10 -10 6 0 10 5 10 10 0 6 -4 10 -10 10 -5 0
-10 -4 -10 -10z"/>
</g>
</svg>
