<svg xmlns="http://www.w3.org/2000/svg" viewBox="0 0 1024 768">
  <g fill="none" stroke="#000" stroke-width="22" stroke-linecap="round" stroke-linejoin="round">
    <path d="M236 388C318 282 450 238 600 274C688 296 760 350 814 436C758 506 696 554 614 582C454 636 308 602 236 494C212 462 200 424 236 388Z"/>
    <path d="M814 436L900 354L902 518Z"/>
    <circle cx="404" cy="402" r="32"/>
    <path d="M498 416C548 432 600 432 654 416"/>
    <path d="M530 300C540 238 574 188 624 154C634 218 630 280 598 322"/>
    <path d="M542 558C530 618 492 662 438 692C430 628 450 572 492 536"/>
    <path d="M312 484C280 514 254 552 246 598"/>
    <path d="M354 320C318 284 278 260 228 252"/>
    <path d="M648 332C688 342 724 366 752 404"/>
  </g>
</svg>
