<?xml version="1.0" standalone="no"?>
<!DOCTYPE svg PUBLIC "-//W3C//DTD SVG 20010904//EN"
 "http://www.w3.org/TR/2001/REC-SVG-20010904/DTD/svg10.dtd">
<svg version="1.0" xmlns="http://www.w3.org/2000/svg"
 width="1920.000000pt" height="1920.000000pt" viewBox="0 0 1920.000000 1920.000000"
 preserveAspectRatio="xMidYMid meet">

<g transform="translate(0.000000,1920.000000) scale(0.100000,-0.100000)"
fill="#000000" stroke="none">
<path d="M5976 17284 c-176 -32 -382 -120 -566 -241 -112 -74 -248 -183 -450
-363 -160 -141 -289 -232 -536 -376 -238 -139 -332 -205 -421 -295 -113 -113
-173 -233 -173 -346 l0 -53 -62 0 c-128 0 -262 -36 -294 -78 -18 -24 -17 -30
7 -37 19 -6 14 -12 -37 -39 -93 -50 -145 -89 -211 -160 -61 -65 -127 -180
-139 -242 -6 -30 -5 -31 22 -26 24 4 26 2 20 -14 -4 -10 -17 -55 -28 -99 -27
-103 -21 -264 12 -370 77 -245 269 -426 505 -476 33 -6 64 -15 68 -19 5 -4 -7
-44 -27 -89 -41 -92 -76 -196 -76 -222 0 -11 10 -21 23 -24 l23 -6 -32 -93
c-37 -107 -71 -257 -76 -336 -3 -51 -1 -55 20 -58 16 -3 21 -8 18 -20 -46
-149 -81 -383 -71 -474 6 -51 10 -58 29 -58 21 0 21 -3 21 -152 0 -134 3 -161
23 -220 13 -38 27 -68 31 -68 14 0 31 24 31 45 1 39 17 -7 29 -82 13 -87 42
-163 81 -216 l28 -38 19 27 20 27 32 -59 c17 -32 59 -92 94 -133 34 -40 66
-79 71 -85 6 -8 -6 -34 -33 -73 -49 -73 -125 -229 -143 -297 -12 -46 -18 -52
-115 -118 -122 -83 -219 -183 -230 -237 -6 -30 -24 -51 -85 -104 -119 -104
-192 -211 -158 -232 6 -4 -7 -28 -31 -58 -313 -388 -506 -774 -590 -1176 -10
-51 -19 -115 -19 -142 0 -47 1 -49 28 -49 l27 0 -5 -82 c-8 -110 4 -238 29
-318 29 -91 35 -99 59 -77 18 17 20 15 47 -55 35 -93 75 -165 137 -250 l50
-68 -59 -86 c-53 -80 -62 -88 -113 -107 -70 -26 -157 -111 -235 -230 -112
-172 -265 -507 -265 -581 0 -11 9 -48 21 -81 l21 -61 -50 -134 c-94 -250 -162
-516 -162 -630 0 -103 71 -226 189 -327 329 -282 801 -510 1355 -654 67 -17
90 -27 96 -43 48 -117 99 -226 142 -301 84 -147 86 -154 113 -308 32 -187 49
-494 38 -677 l-8 -134 -75 -12 c-699 -111 -1048 -184 -1338 -280 -158 -52
-337 -142 -399 -201 -101 -97 -105 -183 -10 -278 141 -140 508 -266 1112 -380
1357 -256 3388 -395 5785 -395 1963 0 3727 103 5065 296 1325 191 1932 441
1731 713 -82 110 -298 209 -688 316 -111 30 -203 57 -206 60 -3 3 7 5 23 5 48
0 266 48 365 80 189 62 465 212 506 275 20 30 7 51 -38 63 -29 7 -29 8 54 64
176 120 304 250 405 413 76 121 119 217 143 317 27 114 28 112 -20 104 -22 -3
-40 -5 -40 -3 0 3 18 43 41 91 70 150 113 370 80 409 -12 15 -16 15 -42 2 -15
-8 -33 -23 -39 -32 -9 -14 -10 -11 -5 17 3 19 8 105 11 190 7 184 -4 263 -72
510 -94 341 -127 443 -146 448 -15 3 -18 15 -18 63 0 33 2 59 4 59 2 0 29 -15
61 -34 76 -46 203 -98 295 -122 115 -29 344 -27 465 5 144 37 279 107 402 207
l32 26 12 -26 c7 -14 18 -26 26 -26 54 0 201 127 281 243 58 85 91 148 122
237 29 80 27 78 46 52 21 -30 35 -28 61 11 71 106 133 466 118 687 -20 281
-96 534 -222 742 l-41 66 46 -29 c25 -16 54 -29 65 -29 17 0 18 5 12 43 -9 57
-50 157 -97 242 -130 231 -338 429 -615 583 l-58 32 70 -5 c39 -3 76 -2 84 4
25 16 -1 54 -65 96 -154 102 -389 193 -619 240 -71 14 -141 28 -155 31 -20 5
-14 9 40 27 51 17 66 27 68 44 4 30 -26 47 -123 72 -191 48 -264 55 -585 56
-340 0 -436 -10 -675 -70 -225 -56 -396 -128 -555 -234 -47 -31 -91 -60 -97
-64 -8 -5 -5 11 7 38 39 90 19 113 -64 73 -163 -80 -447 -365 -607 -608 -11
-16 -6 7 12 61 16 47 34 129 41 182 20 163 -14 377 -87 542 l-27 59 29 20 c60
43 141 128 167 176 15 27 30 72 33 100 6 50 6 50 -23 50 -41 -1 -98 -23 -137
-53 l-33 -25 4 107 c4 93 2 114 -16 154 -23 52 -46 67 -68 46 -7 -8 -28 -70
-46 -137 -17 -68 -34 -119 -38 -115 -4 4 -15 30 -24 56 -24 64 -77 117 -116
117 -29 0 -30 -1 -30 -49 0 -27 9 -100 20 -162 11 -63 20 -135 20 -161 l0 -47
-67 -37 c-280 -152 -416 -260 -500 -396 l-35 -57 -37 18 c-20 10 -88 40 -151
66 -63 25 -160 74 -214 107 -55 34 -118 67 -140 73 -38 11 -42 16 -60 71 -16
48 -20 89 -20 225 l-1 166 70 77 c93 102 137 165 133 190 -5 33 -79 34 -143 2
-27 -14 -50 -24 -52 -22 -2 2 4 20 13 42 9 21 23 62 30 89 12 45 12 51 -3 63
-24 18 -35 15 -80 -17 -39 -28 -95 -105 -108 -148 -9 -33 -17 -28 -45 30 -27
55 -68 83 -91 60 -23 -23 -22 -143 0 -236 12 -49 21 -92 21 -96 0 -5 -33 -35
-74 -69 -86 -71 -169 -170 -219 -262 -37 -68 -77 -186 -77 -226 0 -13 -2 -24
-5 -24 -25 0 -166 -35 -190 -47 -73 -37 -82 -65 -30 -90 l35 -16 -63 -27
c-197 -83 -485 -321 -606 -499 -93 -137 -152 -304 -235 -666 -20 -88 -40 -169
-43 -179 -3 -11 -56 -69 -118 -130 -152 -150 -157 -163 -137 -411 14 -169 43
-252 147 -410 148 -226 389 -437 650 -567 55 -28 101 -52 103 -53 9 -8 -29
-56 -130 -163 -62 -64 -127 -138 -145 -164 -19 -25 -56 -61 -83 -78 -58 -37
-115 -98 -134 -143 -8 -18 -31 -77 -52 -132 -84 -217 -47 -405 101 -517 58
-44 156 -78 225 -78 l47 0 -18 -117 c-49 -313 -48 -309 -136 -445 -95 -145
-109 -172 -157 -300 -44 -119 -70 -262 -61 -338 10 -88 15 -100 39 -100 18 0
24 -12 43 -82 12 -46 25 -94 29 -107 l7 -24 -199 7 c-237 8 -1462 25 -1891 26
-184 0 -303 4 -303 9 0 6 40 71 88 145 49 74 106 173 127 220 31 68 42 83 52
74 17 -14 32 4 73 88 61 125 98 268 125 485 5 39 9 46 24 42 23 -6 36 42 52
189 12 109 5 565 -10 688 -9 70 -6 81 58 240 46 116 127 376 145 465 25 127
36 249 36 408 0 124 2 147 15 147 33 0 15 242 -44 594 -37 219 -70 366 -127
563 -39 137 -44 160 -32 181 11 21 7 39 -30 150 -24 70 -67 192 -97 271 -30
80 -54 145 -52 146 1 1 38 6 82 13 170 23 436 116 555 193 67 43 79 62 61 92
-15 23 -19 19 84 88 102 69 339 305 433 430 153 206 304 472 412 726 50 118
54 123 97 144 106 51 204 147 264 258 l24 44 265 69 c473 123 1635 445 1688
468 17 7 22 18 22 44 0 20 -78 322 -174 673 -311 1138 -304 1113 -335 1113
-19 0 -41 -6 -401 -99 -403 -105 -871 -234 -1425 -392 -886 -254 -1069 -309
-1089 -329 -20 -19 -19 -21 24 -177 113 -414 111 -406 92 -417 -41 -23 -137
-126 -172 -186 -21 -36 -51 -105 -66 -154 -22 -72 -36 -99 -76 -145 -88 -100
-218 -208 -381 -316 -81 -54 -90 -58 -120 -48 -19 5 -44 6 -62 1 -108 -30
-287 -59 -374 -60 l-99 -1 -76 69 -75 68 137 140 c246 253 403 492 486 744 13
38 23 52 37 52 10 0 25 12 32 28 39 74 72 270 65 373 -4 56 -3 59 19 59 22 0
23 2 23 98 0 105 -22 217 -58 291 l-20 41 24 0 c28 0 29 1 8 71 -32 110 -113
239 -237 377 -36 40 -75 92 -86 115 -12 24 -46 139 -76 257 -89 342 -163 545
-261 714 -52 90 -54 73 15 175 32 48 36 50 90 56 141 15 252 60 293 117 18 27
23 46 23 99 0 57 -4 71 -29 103 -35 47 -97 87 -198 128 -65 27 -78 36 -78 55
0 34 -43 146 -81 209 -94 158 -279 274 -436 274 -39 0 -43 2 -43 25 0 23 -4
25 -43 25 -58 0 -142 -25 -200 -61 -26 -16 -48 -29 -50 -29 -1 0 -3 44 -3 98
-3 218 -82 426 -233 614 -179 222 -490 403 -780 453 -105 19 -339 18 -445 -1z
m203 -64 c91 -26 210 -161 270 -305 30 -72 102 -307 96 -313 -2 -2 -76 -14
-166 -27 -205 -30 -264 -43 -280 -61 -24 -30 35 -272 84 -345 38 -55 187 -123
377 -170 56 -14 40 -24 -55 -34 -228 -22 -634 -106 -927 -191 -382 -110 -874
-312 -1121 -461 l-57 -35 -83 85 c-45 47 -110 103 -145 125 -71 46 -188 97
-246 107 l-38 8 4 62 c8 130 107 270 283 400 69 51 505 318 505 309 0 -3 -129
-155 -221 -259 -99 -112 30 4 301 270 151 149 311 302 355 340 344 302 644
462 925 495 95 11 102 11 139 0z m197 -1 c297 -41 606 -221 791 -462 166 -215
231 -494 177 -755 l-7 -33 -61 8 c-33 4 -188 8 -343 8 -155 0 -279 3 -275 6 4
3 41 28 82 55 99 64 175 141 205 207 43 94 55 282 24 365 -9 24 -11 24 -92 18
-85 -7 -229 -23 -283 -32 l-31 -4 -7 67 c-22 224 -131 428 -280 529 l-51 34
37 0 c20 0 71 -5 114 -11z m551 -751 c-3 -75 -12 -142 -22 -170 -22 -62 -87
-133 -176 -194 -63 -43 -77 -49 -123 -48 -58 0 -243 59 -321 102 -39 21 -55
38 -74 77 -22 46 -77 243 -69 249 4 4 596 84 703 95 44 5 82 9 84 10 2 0 1
-54 -2 -121z m713 -325 c-1 -5 -7 -19 -15 -33 -20 -35 -18 -41 8 -31 80 31
202 20 297 -26 116 -56 258 -233 276 -345 l6 -36 -68 19 c-106 30 -351 75
-538 100 l-169 23 -23 50 c-29 62 -29 65 -3 126 22 52 52 77 154 129 64 32 75
36 75 24z m-318 -227 c15 -7 45 -82 36 -91 -2 -2 -57 0 -123 4 -339 22 -844
-39 -1285 -155 -342 -90 -1084 -366 -1404 -523 l-78 -38 -19 44 c-27 62 -33
93 -20 93 6 0 106 44 223 98 364 169 632 271 978 371 297 87 692 166 950 190
63 6 131 13 150 15 63 7 575 0 592 -8z m198 -176 c216 -28 393 -60 405 -72 7
-7 3 -9 -11 -6 -12 3 -86 1 -165 -3 -381 -23 -711 -90 -1149 -234 -469 -154
-731 -194 -1050 -161 -148 16 -317 40 -369 53 -15 4 -22 2 -18 -4 8 -13 132
-47 252 -68 50 -9 171 -19 270 -22 271 -8 419 17 830 143 388 118 590 168 835
209 528 86 1022 41 1155 -106 21 -24 35 -49 35 -65 l0 -26 -40 35 c-68 62
-151 95 -305 122 -122 22 -437 22 -610 1 -257 -32 -618 -118 -995 -236 -171
-54 -354 -103 -485 -131 -97 -21 -136 -24 -325 -24 -239 0 -327 13 -561 80
-134 39 -183 60 -159 69 8 3 40 14 70 25 30 11 111 42 180 71 128 53 449 158
638 209 309 84 586 132 962 165 109 10 462 -4 610 -24z m-3565 -225 c183 -49
384 -226 474 -416 34 -71 37 -75 51 -58 15 18 334 159 436 193 l52 17 83 -35
c239 -98 480 -146 729 -146 240 1 402 33 885 179 325 98 505 145 713 186 193
38 205 38 277 -12 207 -142 371 -342 505 -618 80 -164 133 -311 196 -548 87
-326 93 -341 180 -437 80 -90 143 -175 188 -253 l27 -48 -37 16 c-20 8 -38 15
-39 15 -2 0 19 -52 47 -117 63 -148 115 -343 92 -343 -4 0 -21 12 -37 28 l-30
27 7 -30 c22 -109 17 -338 -11 -453 -5 -22 -6 -22 -24 -6 -11 10 -20 15 -22
13 -2 -2 -20 -56 -41 -120 -115 -355 -359 -682 -766 -1023 -80 -66 -162 -138
-182 -160 l-38 -38 16 37 c8 20 13 39 11 41 -2 2 -33 -18 -68 -45 -36 -26 -85
-58 -109 -71 -65 -32 -212 -131 -206 -138 3 -3 54 24 113 60 60 36 110 64 112
62 3 -2 -6 -15 -19 -29 -37 -39 -13 -30 61 25 l68 49 50 -52 c29 -29 51 -61
51 -74 0 -37 -130 -349 -231 -553 -236 -479 -513 -895 -919 -1385 -307 -370
-663 -724 -1135 -1129 -93 -80 -173 -146 -176 -146 -4 0 -14 21 -24 48 -32 84
-81 175 -140 257 l-58 80 22 170 c12 93 24 178 26 187 1 9 -2 19 -7 20 -14 5
21 193 82 445 28 113 50 207 50 208 0 2 -9 1 -20 -2 -11 -3 -20 -3 -20 0 0 3
25 65 55 137 57 134 105 258 105 268 0 4 -21 -14 -46 -38 -55 -53 -55 -53 16
125 67 167 128 302 207 457 37 73 69 136 71 141 2 4 -4 4 -14 0 -15 -6 -15 -1
6 33 71 118 202 309 277 402 47 59 93 116 101 127 9 11 -14 -9 -52 -45 -121
-116 -246 -285 -354 -477 -55 -97 -61 -116 -38 -107 8 3 -25 -72 -74 -168 -49
-95 -109 -225 -134 -289 -46 -116 -106 -310 -99 -318 2 -3 19 11 39 30 l36 34
-37 -80 c-94 -205 -123 -305 -90 -305 20 0 20 -1 -20 -152 -67 -255 -115 -536
-94 -549 9 -5 8 -32 -2 -115 l-14 -109 -58 70 c-87 103 -190 264 -252 390 -63
129 -125 303 -125 350 0 67 67 243 136 356 27 45 53 70 122 117 84 58 135 102
116 102 -5 0 -35 -13 -66 -29 -32 -16 -58 -27 -58 -25 0 3 28 46 61 96 60 89
115 195 107 204 -3 2 -22 -24 -43 -58 -22 -35 -80 -106 -130 -158 -50 -53
-105 -116 -122 -140 -44 -64 -109 -198 -137 -280 -13 -39 -25 -73 -28 -75 -2
-3 -14 26 -26 63 -12 37 -31 78 -42 92 l-19 25 5 -40 c57 -399 216 -763 464
-1055 137 -161 216 -289 261 -425 32 -95 35 -274 5 -318 l-19 -28 -22 74 c-27
96 -73 171 -148 244 -62 61 -62 52 0 -46 88 -138 129 -331 89 -424 -20 -49
-88 -101 -161 -126 -92 -30 -101 -28 -110 17 -17 93 -132 244 -229 300 l-38
23 18 -24 c11 -13 43 -55 72 -93 61 -79 109 -172 118 -230 l6 -41 -38 -6 c-68
-12 -188 -7 -249 8 -145 38 -277 118 -425 261 -87 84 -132 117 -260 194 -272
162 -442 290 -605 455 -129 130 -307 365 -357 472 -37 78 -78 214 -78 255 0
30 -24 16 -36 -22 -11 -32 -11 -32 -18 -9 -15 50 -17 274 -4 372 8 53 12 97 8
97 -3 0 -16 -7 -28 -16 -13 -9 -25 -14 -27 -12 -9 8 69 279 110 385 116 295
334 655 581 955 63 76 63 77 37 80 l-27 3 34 39 c19 21 79 76 135 121 133 109
137 115 94 115 l-34 1 55 51 c63 57 217 176 303 233 31 21 57 42 57 47 0 4
-27 -6 -61 -23 -34 -16 -63 -28 -65 -26 -14 14 150 327 171 327 3 0 54 -36
115 -80 103 -73 199 -127 260 -145 l25 -7 -25 27 c-14 15 -99 87 -190 160
-241 193 -371 340 -424 480 l-19 49 -28 -33 -27 -33 -17 53 c-9 30 -21 92 -26
139 -6 47 -13 110 -17 140 l-7 55 -30 -42 c-16 -24 -33 -43 -37 -43 -10 0 -9
262 2 370 4 47 6 87 4 89 -2 3 -14 -5 -27 -17 -13 -12 -25 -22 -28 -22 -8 0 9
158 27 245 9 44 31 145 50 224 19 79 33 145 31 147 -1 2 -17 -10 -34 -26 -18
-17 -34 -30 -37 -30 -6 0 24 107 90 320 30 96 54 178 54 182 0 5 -9 4 -21 -2
-11 -7 -23 -10 -25 -7 -2 2 12 47 32 99 l36 95 71 6 c40 4 90 12 112 19 l40
13 -40 3 c-302 22 -481 85 -611 216 -176 176 -228 435 -139 688 20 57 39 110
41 119 4 12 -2 18 -21 23 l-26 7 48 61 c85 108 216 202 345 248 l50 18 -37 25
-37 25 48 7 c27 4 54 8 59 11 22 9 224 -6 280 -21z m4243 -35 c106 -14 196
-42 254 -80 51 -34 63 -53 48 -80 -19 -36 -162 -74 -320 -85 -47 -3 -111 -8
-143 -11 l-59 -5 -68 69 c-37 39 -103 96 -146 128 -77 58 -77 59 -48 65 49 11
394 10 482 -1z m-68 -323 c0 -14 -57 -74 -63 -66 -11 15 -37 59 -37 63 0 3 17
7 38 9 20 2 43 4 50 5 6 1 12 -4 12 -11z m4174 -1479 c-24 -41 -155 -227 -168
-238 -9 -7 -16 -19 -16 -27 0 -11 -9 -13 -45 -7 -38 5 -45 4 -45 -10 0 -12 -6
-15 -24 -10 -17 4 -31 -1 -46 -16 -19 -19 -26 -21 -48 -11 -21 10 -28 9 -46
-8 -12 -11 -44 -22 -76 -26 -79 -10 -100 -26 -100 -77 0 -29 7 -49 21 -64 20
-21 20 -26 9 -54 -12 -28 -11 -33 13 -58 20 -22 23 -31 16 -51 -8 -20 -5 -31
11 -53 11 -15 20 -30 20 -33 0 -4 -62 -86 -138 -183 -76 -98 -173 -223 -216
-280 -42 -56 -105 -132 -139 -168 l-61 -66 -53 5 c-60 6 -224 70 -688 267
-171 73 -425 179 -565 237 -140 58 -286 121 -325 141 l-70 35 125 34 c69 19
467 131 885 248 418 117 913 255 1100 305 187 51 410 112 495 135 174 48 184
50 174 33z m114 -178 c28 -96 85 -303 127 -460 42 -157 112 -412 155 -567 85
-302 120 -435 120 -452 0 -6 -42 10 -92 35 -119 60 -685 316 -938 424 -107 46
-199 86 -203 90 -7 7 155 232 185 258 12 9 20 6 41 -16 24 -25 26 -32 17 -61
-8 -28 -6 -39 11 -62 31 -44 54 -53 83 -33 14 8 30 13 36 9 6 -3 26 3 46 15
25 16 44 21 66 16 24 -5 39 0 64 19 28 21 40 25 69 19 27 -5 41 -2 55 11 12
11 37 19 62 19 38 1 44 5 64 40 22 39 22 39 3 75 -10 20 -17 43 -14 51 3 9 -6
31 -20 50 -20 27 -24 41 -19 67 5 25 2 39 -11 53 -13 14 -16 28 -11 53 4 23 2
38 -7 46 -8 6 -12 22 -10 34 3 15 -4 34 -20 53 -19 22 -23 37 -19 66 3 30 -1
42 -22 63 -22 22 -24 29 -14 48 18 35 141 217 144 215 1 -2 25 -82 52 -178z
m-205 -126 c11 -4 13 -16 10 -48 -4 -36 -1 -48 17 -66 16 -16 22 -36 25 -79 1
-32 11 -73 20 -91 12 -23 15 -46 12 -74 -4 -30 -2 -43 11 -52 13 -10 39 -97
41 -141 1 -8 -12 -13 -33 -13 -22 0 -45 -9 -63 -24 -22 -19 -31 -22 -50 -13
-18 8 -32 7 -58 -6 -19 -9 -35 -21 -35 -27 0 -6 -15 -8 -38 -4 -29 4 -48 1
-78 -15 -21 -12 -55 -21 -76 -21 -36 0 -37 0 -48 54 -6 29 -19 69 -29 88 -11
24 -15 42 -10 57 11 27 -4 65 -31 84 -13 9 -17 17 -11 22 19 11 12 53 -15 85
-20 23 -24 34 -15 43 18 18 13 43 -14 75 -39 47 -25 65 65 82 62 12 191 47
215 59 43 20 161 36 188 25z m-2587 -555 c49 -23 306 -135 572 -249 266 -115
486 -210 489 -213 3 -3 -23 -45 -58 -94 -35 -48 -192 -281 -350 -516 l-288
-429 -10 39 c-5 21 -31 121 -58 223 -49 182 -49 185 -29 194 182 75 279 153
335 267 107 221 -16 419 -263 419 -66 0 -189 -24 -258 -50 l-48 -18 -15 51
c-7 29 -35 126 -60 217 -25 91 -48 173 -51 183 -3 9 -3 17 -1 17 2 0 44 -19
93 -41z m2067 -355 c73 -31 321 -140 552 -242 231 -102 446 -196 478 -210 31
-14 57 -28 57 -32 0 -3 -28 -13 -62 -22 -35 -8 -310 -83 -613 -166 -829 -227
-1970 -529 -2062 -546 -18 -3 -33 -3 -33 0 0 13 81 139 214 334 302 442 518
750 525 750 4 0 76 -27 159 -60 286 -114 320 -115 416 -16 34 34 95 108 136
164 41 55 81 101 88 102 7 0 73 -25 145 -56z m-1585 -104 c61 -34 97 -109 89
-186 -16 -159 -139 -271 -401 -367 -17 -7 -17 -9 -3 -25 8 -9 38 -106 67 -216
58 -223 97 -355 112 -373 21 -26 63 -18 547 107 150 38 277 70 282 70 5 0 3
-13 -5 -28 -25 -49 -148 -155 -239 -207 -126 -72 -129 -74 -89 -75 30 0 33 -2
27 -22 -13 -43 -186 -373 -263 -501 -206 -343 -478 -631 -748 -791 l-48 -28
32 -14 c18 -7 32 -15 32 -18 0 -13 -174 -92 -280 -126 -141 -46 -327 -87 -339
-74 -4 5 -30 63 -56 129 -27 66 -71 162 -98 214 -44 86 -46 92 -22 77 l26 -17
-7 28 c-15 60 -70 186 -156 357 -84 164 -180 326 -193 326 -3 0 36 -82 88
-183 82 -159 143 -304 134 -313 -2 -2 -19 20 -38 48 -19 28 -40 53 -48 56 -10
3 -9 -1 2 -19 9 -13 29 -58 45 -99 17 -41 51 -121 76 -178 38 -85 142 -355
317 -824 27 -74 27 -97 -1 -63 -7 9 -15 14 -17 12 -2 -2 19 -78 47 -168 101
-326 176 -658 225 -992 31 -212 31 -211 6 -197 -11 5 -21 10 -23 10 -2 0 0
-42 5 -92 18 -197 -9 -627 -42 -647 -5 -4 -20 -51 -31 -105 -60 -275 -198
-610 -347 -840 -75 -116 -79 -124 -61 -106 37 35 148 182 203 268 l60 94 8
-124 c8 -123 2 -464 -9 -577 -6 -56 -8 -59 -26 -50 -11 6 -22 8 -25 5 -4 -3
-10 -53 -14 -111 -11 -136 -41 -285 -86 -415 -48 -141 -60 -165 -79 -149 -18
15 -12 21 -62 -81 -22 -47 -77 -141 -123 -210 -45 -69 -95 -148 -110 -176
l-29 -51 -113 -6 c-117 -6 -195 -23 -278 -58 -55 -24 -60 -34 -10 -19 77 22
230 31 332 20 306 -34 552 -160 649 -331 l24 -44 -50 44 c-77 67 -203 122
-278 120 -25 0 -12 -9 71 -49 110 -52 188 -115 228 -185 54 -94 38 -140 -73
-198 -72 -38 -92 -44 -92 -27 0 5 -10 35 -21 66 -25 66 -83 134 -146 171 -54
31 -154 63 -196 62 -27 0 -19 -7 58 -43 114 -55 179 -112 216 -191 38 -80 37
-92 -8 -105 -393 -111 -1327 -50 -1676 108 -84 39 -121 72 -154 140 l-28 57
-1 300 c-1 233 -5 321 -18 395 -23 130 -52 232 -91 316 l-33 72 57 7 c449 52
903 205 1208 407 128 85 258 186 249 195 -2 3 -28 -13 -58 -34 -90 -66 -203
-133 -223 -133 -3 0 -5 9 -5 20 0 11 -2 20 -5 20 -3 0 -29 -19 -58 -43 -175
-142 -631 -288 -1115 -357 -189 -27 -178 -30 -143 33 35 61 86 191 72 182 -5
-3 -24 -30 -41 -60 -17 -30 -52 -82 -77 -117 -28 -37 -67 -112 -95 -182 -59
-145 -156 -334 -203 -398 -23 -32 -43 -48 -58 -48 -16 -1 -34 -19 -69 -74 -26
-40 -86 -117 -135 -171 -140 -156 -182 -207 -211 -253 -30 -48 -24 -47 -152
-17 -96 22 -252 29 -345 16 -81 -12 -199 -41 -192 -48 2 -2 57 1 122 7 195 17
405 -13 552 -80 251 -114 416 -338 347 -471 -13 -26 -95 -89 -115 -89 -3 0 -9
24 -12 52 -10 81 -58 167 -130 234 -64 60 -150 109 -209 121 -28 5 -21 -2 42
-45 149 -100 227 -212 238 -337 4 -62 4 -64 -24 -78 -54 -28 -163 -56 -274
-72 -166 -23 -155 -26 -170 48 -18 92 -56 165 -121 230 -50 50 -162 118 -174
105 -2 -2 25 -27 59 -55 98 -81 164 -193 181 -307 l8 -49 -119 7 c-393 24
-743 130 -1004 305 -68 46 -157 139 -182 190 -26 51 -24 -12 -17 661 3 329 -2
407 -47 630 -7 34 -6 33 42 -27 27 -34 52 -62 57 -63 8 0 -3 20 -141 265 -47
83 -113 204 -148 269 l-64 119 63 -7 c303 -32 517 -31 630 4 84 26 127 64 175
157 51 100 84 198 127 375 89 374 156 888 139 1070 l-5 53 66 43 c37 24 69 41
71 39 3 -3 17 -56 30 -118 14 -62 39 -151 56 -198 34 -98 122 -279 173 -355
38 -58 102 -122 92 -93 -4 10 -7 22 -7 26 0 4 -18 32 -40 61 -50 67 -130 221
-175 340 -37 94 -95 305 -95 343 0 17 29 43 125 111 366 259 803 632 1160 991
703 706 1243 1476 1550 2208 35 81 66 149 71 150 9 2 123 -142 124 -155 0 -5
-7 -8 -15 -8 -21 0 -20 -5 23 -63 21 -29 56 -82 79 -118 42 -68 173 -323 173
-336 -1 -5 -16 10 -35 32 -31 35 -25 19 49 -136 78 -161 202 -448 221 -509 l7
-25 -26 24 c-14 14 -28 23 -30 20 -2 -2 23 -60 56 -129 51 -108 143 -365 192
-540 l16 -55 -25 28 c-14 15 -25 24 -25 20 0 -5 18 -69 41 -143 96 -320 145
-694 121 -935 l-7 -80 -22 60 -21 60 -1 -220 c0 -175 -4 -239 -20 -315 -19
-96 -19 -112 0 -93 26 26 58 231 59 376 0 46 5 73 14 83 22 22 31 112 29 314
-1 210 -24 393 -74 600 -17 69 -32 152 -34 185 -3 78 -120 465 -177 587 -29
63 -39 93 -30 96 6 2 12 10 12 17 0 19 -96 253 -185 450 -55 122 -75 177 -71
196 7 34 -116 285 -204 418 -36 56 -63 107 -64 125 -3 38 -14 58 -79 155 l-50
74 51 151 c61 183 78 246 106 398 l22 118 124 4 c109 3 237 23 326 51 11 4 2
-9 -21 -29 -61 -55 -20 -47 121 23 188 92 391 241 499 365 38 43 45 48 45 29
0 -13 6 -23 14 -23 9 0 22 36 39 107 70 285 195 407 492 477 11 3 58 4 105 2
68 -1 93 -7 128 -26z m-2013 -880 c36 -30 68 -65 71 -77 9 -33 -38 -256 -86
-413 -129 -419 -395 -958 -703 -1423 -579 -872 -1411 -1698 -2377 -2357 -107
-74 -213 -149 -236 -167 l-41 -33 -127 35 c-71 19 -130 35 -132 35 -28 0 62
101 110 124 19 9 50 16 70 16 44 0 332 64 381 84 87 37 145 103 166 189 8 34
25 67 49 95 50 57 75 145 68 242 l-5 71 206 176 c501 428 876 804 1216 1218
551 671 963 1406 1129 2018 l33 122 64 52 c35 29 67 52 71 50 4 -1 36 -27 73
-57z m-305 -171 l-21 -72 -40 39 -39 38 57 37 c32 21 59 36 61 34 2 -2 -6 -36
-18 -76z m4608 -311 c-16 -45 -32 -109 -35 -142 l-6 -61 58 53 c52 48 155 112
155 96 0 -3 -26 -36 -58 -73 -90 -102 -109 -131 -127 -195 -23 -80 -16 -269
14 -380 12 -43 20 -80 17 -83 -2 -2 -43 10 -91 26 -78 28 -155 40 -155 25 0
-15 25 -52 54 -76 l31 -28 -35 8 c-19 4 -106 7 -193 7 l-157 0 6 30 c34 158
156 324 366 499 34 28 55 53 52 61 -7 18 31 155 57 208 20 39 66 107 73 107 2
0 -10 -37 -26 -82z m-152 -123 c21 -63 35 -117 32 -120 -17 -17 -46 18 -62 73
-14 52 -23 162 -12 162 3 0 22 -52 42 -115z m1660 -110 c-3 -44 -15 -111 -26
-150 -32 -112 -29 -113 62 -34 74 63 158 119 158 104 0 -49 -173 -237 -228
-250 -18 -3 -34 -11 -38 -16 -3 -5 -38 -33 -77 -63 -211 -157 -360 -393 -408
-644 -14 -74 -7 -184 15 -237 10 -24 13 -42 7 -49 -14 -16 100 -116 132 -116
48 0 163 68 221 130 117 127 160 244 160 440 0 165 -44 369 -95 441 l-18 26
38 37 38 37 46 -138 c62 -185 81 -298 73 -434 -6 -125 -37 -232 -93 -329 -48
-83 -179 -214 -263 -264 l-65 -38 50 5 c28 3 58 9 67 12 21 8 50 -53 97 -198
55 -172 63 -238 70 -562 l7 -300 41 -104 c36 -89 39 -101 20 -84 -55 48 -55
48 -30 -40 22 -74 43 -247 31 -247 -3 0 -18 19 -33 42 -25 38 -29 40 -36 23
-4 -11 -8 -41 -8 -67 -1 -66 -26 -175 -53 -233 l-23 -50 -3 69 -3 68 -35 -58
c-51 -85 -97 -138 -172 -198 -221 -177 -595 -308 -1023 -360 l-114 -14 125 -1
c69 0 172 6 230 13 95 13 345 61 373 72 17 6 115 -154 155 -253 45 -112 68
-228 87 -443 38 -421 75 -555 260 -921 185 -366 223 -478 246 -711 45 -466
-160 -843 -562 -1032 -88 -42 -289 -106 -330 -106 -11 0 -19 -4 -19 -10 0 -19
105 -9 278 26 31 6 32 5 32 -25 0 -77 -49 -124 -170 -161 -287 -89 -911 -202
-1017 -185 -90 15 -86 12 -66 46 28 48 106 116 167 146 67 32 72 48 14 39 -97
-16 -187 -82 -224 -165 -14 -33 -23 -41 -43 -41 -42 0 -97 19 -115 39 -45 49
30 149 157 211 l82 40 -51 0 c-70 0 -142 -38 -204 -108 l-50 -56 0 35 c0 73
114 160 246 187 27 6 118 17 201 23 l150 13 113 -28 c63 -16 150 -30 194 -32
l81 -4 -125 38 c-295 89 -487 248 -540 445 -13 50 -25 59 -35 27 -22 -68 -40
49 -39 245 1 109 5 143 26 213 14 45 24 82 21 82 -2 0 -15 -7 -28 -16 -37 -24
-32 -3 24 103 113 212 286 384 526 523 50 28 79 49 65 45 -43 -13 -144 -61
-218 -104 -39 -22 -73 -41 -75 -41 -3 0 -8 25 -12 56 -4 38 -3 60 6 70 14 18
1 128 -30 237 l-18 65 56 7 c31 3 81 13 111 22 30 10 71 16 91 14 70 -5 223
95 303 198 31 39 43 48 53 39 10 -8 20 -5 39 13 42 40 102 138 130 216 25 69
26 77 15 129 -7 31 -15 54 -17 52 -2 -2 -15 -44 -29 -92 -32 -111 -83 -215
-96 -195 -5 8 -9 25 -9 39 0 19 -11 7 -51 -54 -60 -91 -156 -196 -223 -244
-51 -37 -56 -33 -25 17 l20 34 -33 -22 c-62 -41 -170 -90 -227 -102 -105 -22
-290 15 -431 86 -134 68 -281 194 -386 331 -48 62 -61 74 -86 74 -35 0 -59 12
-115 57 -23 19 -70 43 -103 53 -74 22 -100 43 -100 81 0 44 37 62 126 62 41 0
74 4 74 8 0 14 -69 39 -108 39 -22 0 -59 -10 -86 -25 l-46 -24 0 30 c0 46 28
98 64 117 33 17 138 23 189 9 38 -10 35 8 -5 30 -23 12 -54 17 -103 16 l-70
-1 40 21 c30 16 57 21 110 21 127 0 240 -75 304 -201 l29 -58 11 28 c10 25 15
27 43 22 18 -3 105 -12 193 -20 88 -9 177 -18 198 -22 34 -5 37 -4 30 13 -6
17 -5 18 13 4 19 -14 19 -14 0 8 -19 22 -19 22 5 22 13 0 31 5 39 10 12 8 10
10 -8 10 -22 0 -21 3 15 33 47 40 102 99 177 196 84 105 36 74 -101 -67 -62
-64 -116 -112 -120 -108 -12 11 -32 86 -23 86 4 0 15 -9 25 -20 10 -11 21 -20
25 -20 14 0 -11 122 -35 170 -30 60 -31 64 -4 49 20 -10 21 -9 15 17 -14 55
-54 132 -91 173 -21 23 -40 40 -42 38 -2 -3 14 -42 37 -87 41 -87 44 -106 10
-75 -30 27 -25 8 25 -97 25 -53 45 -101 45 -107 0 -7 -16 -1 -37 13 -20 14
-38 24 -40 22 -2 -2 8 -43 22 -92 33 -114 29 -119 -95 -110 -47 3 -138 9 -203
13 l-117 6 -36 48 c-40 54 -88 95 -154 130 -40 21 -59 24 -163 25 -165 2 -169
7 -88 112 33 45 66 84 71 87 26 16 5 22 -37 9 -26 -8 -51 -13 -55 -12 -5 2 38
49 95 106 l103 102 144 -30 c137 -29 225 -37 130 -11 -167 44 -390 139 -537
227 -118 70 -315 227 -405 322 -88 94 -162 199 -208 297 -61 129 -73 180 -69
314 4 101 7 123 30 169 l26 52 -24 0 c-22 0 -13 13 69 99 78 83 95 97 103 83
6 -8 26 -34 47 -56 l36 -41 -29 -32 c-29 -33 -72 -157 -84 -243 -8 -56 9 -158
36 -216 29 -61 83 -119 132 -143 41 -20 45 -25 57 -79 16 -72 53 -147 83 -166
12 -7 38 -19 57 -26 29 -10 38 -20 50 -59 22 -67 62 -91 154 -91 77 0 129 18
191 66 48 36 113 136 132 203 14 52 20 60 83 103 l68 47 41 -30 c35 -24 41
-26 41 -12 0 55 -84 122 -152 123 -35 0 -36 -11 -1 -32 l26 -16 -44 -28 c-114
-72 -249 -103 -362 -85 -126 21 -254 109 -297 204 -30 65 -27 72 41 91 87 24
150 58 192 105 42 46 52 76 43 125 -19 100 -118 171 -281 202 l-40 7 47 8 c25
4 55 12 65 18 16 9 15 10 -9 11 -16 0 -28 2 -28 4 0 2 11 29 25 59 86 194 120
623 64 795 -9 26 -16 32 -39 32 l-29 0 21 -47 c77 -175 8 -792 -95 -841 -16
-8 -31 -12 -33 -9 -3 3 6 33 20 67 57 140 71 207 71 347 0 118 -2 134 -21 160
-30 40 -70 58 -100 44 -13 -6 -24 -8 -24 -4 0 13 53 151 76 196 42 85 205 299
217 287 3 -3 -1 -39 -8 -80 -8 -41 -14 -93 -14 -115 0 -37 1 -38 11 -15 5 14
16 67 23 119 16 112 41 153 130 219 56 41 60 42 72 25 12 -15 15 -16 23 -3 5
8 10 22 10 30 3 48 213 168 374 215 50 14 91 27 94 29 2 2 -30 9 -70 15 -129
21 -131 21 -64 42 32 11 86 23 120 29 81 13 289 13 399 -1 48 -6 92 -9 98 -7
6 2 -8 24 -30 50 -23 25 -41 48 -41 51 0 7 173 -59 243 -92 31 -15 57 -26 57
-24 0 1 -16 27 -35 58 -20 30 -33 55 -29 55 3 0 48 -29 99 -64 105 -73 146
-95 237 -129 35 -14 91 -38 125 -56 59 -29 62 -32 53 -57 -14 -35 -12 -141 2
-189 l12 -40 7 67 c23 213 161 391 425 548 185 110 268 164 256 168 -8 2 -12
30 -12 75 0 40 -9 126 -19 191 -17 112 -17 118 -1 96 25 -33 58 -133 74 -220
l13 -75 26 55 c15 30 41 115 58 190 27 114 33 131 41 110 6 -14 7 -61 4 -105z
m2291 -420 c109 -6 315 -34 326 -44 4 -4 -31 -18 -78 -30 -48 -13 -114 -37
-148 -55 l-62 -31 90 -8 c250 -21 434 -57 638 -126 115 -39 284 -109 291 -120
2 -3 -44 -6 -103 -6 -61 -1 -123 -7 -145 -14 l-39 -13 89 -35 c126 -48 284
-133 394 -211 128 -90 290 -254 369 -371 55 -83 121 -200 121 -216 0 -2 -24
10 -52 29 -97 61 -233 122 -211 93 185 -234 266 -368 327 -545 64 -185 81
-297 81 -537 0 -180 -4 -227 -24 -328 -13 -65 -27 -115 -31 -110 -4 4 -15 40
-24 78 -10 39 -27 90 -39 115 l-21 45 -7 -125 c-14 -249 -107 -462 -280 -644
-39 -42 -75 -76 -78 -76 -4 0 5 37 20 83 15 45 30 102 34 127 l7 45 -43 -65
c-56 -83 -167 -195 -247 -249 -89 -60 -214 -117 -307 -142 -84 -21 -292 -37
-339 -25 -25 6 -20 10 56 48 89 45 173 119 202 179 l17 34 -24 -26 c-161 -177
-402 -233 -592 -139 -33 16 -73 40 -90 53 l-29 24 18 64 c24 87 76 194 126
256 45 57 132 120 178 129 27 6 32 2 55 -37 14 -24 30 -63 36 -87 13 -60 21
-64 21 -11 0 49 -25 111 -66 165 -36 47 -58 58 -129 64 l-60 5 48 28 c111 67
222 85 320 51 60 -20 131 -84 165 -148 23 -45 27 -63 27 -144 0 -88 1 -91 13
-61 8 18 14 64 14 101 0 119 -68 228 -177 286 -46 25 -60 27 -165 27 -103 0
-121 -3 -170 -26 -30 -15 -74 -42 -97 -60 -40 -32 -133 -143 -133 -158 0 -4
26 5 58 20 31 15 82 30 112 34 55 5 55 5 30 -12 -61 -43 -155 -144 -192 -205
-22 -37 -54 -109 -71 -160 -30 -90 -31 -99 -32 -268 0 -140 3 -182 16 -210
l16 -35 15 65 14 65 7 -46 c3 -26 31 -136 61 -245 91 -326 99 -375 100 -564 0
-184 -19 -299 -72 -455 -27 -78 -28 -85 -10 -68 11 10 54 62 94 116 82 109 89
105 48 -25 -35 -109 -61 -167 -141 -310 -36 -65 -64 -121 -61 -123 2 -3 39 16
82 41 43 25 80 43 83 40 8 -7 -21 -84 -63 -167 -124 -249 -346 -472 -607 -609
-138 -73 -139 -77 -16 -86 l101 -7 -68 -44 c-186 -121 -432 -208 -699 -249
-252 -38 -637 -14 -822 53 -25 9 18 -39 82 -90 l50 -40 -45 8 c-117 19 -435
148 -470 191 -8 9 -5 34 14 92 44 141 59 245 60 417 l1 160 65 35 c134 72 267
232 335 405 63 160 85 427 50 614 -30 157 -113 361 -212 521 -266 432 -330
549 -411 757 -53 136 -82 234 -82 277 0 30 3 31 34 11 22 -15 25 -14 51 17 43
51 84 145 91 211 7 58 7 59 19 31 l12 -29 21 35 c30 48 36 88 29 191 -6 84 -6
89 13 89 31 0 26 57 -19 189 l-40 116 -4 295 c-4 258 -8 307 -27 390 -36 156
-36 156 3 272 56 167 142 326 260 483 101 133 397 425 431 425 4 0 -1 -17 -10
-37 -9 -21 -26 -67 -39 -103 -44 -127 -42 -155 7 -75 39 64 213 190 373 270
269 134 568 207 920 224 146 7 190 7 382 -4z m-2388 -147 c67 -327 38 -527
-103 -700 -41 -51 -169 -148 -194 -148 -15 0 -89 92 -102 126 -12 32 -16 166
-5 183 10 17 56 38 96 46 32 6 37 4 42 -17 14 -48 5 -75 -48 -153 -30 -43 -52
-81 -50 -83 2 -2 29 12 59 32 79 50 96 83 92 170 -2 41 -8 72 -14 74 -9 3 -9
9 -2 23 10 17 7 19 -33 19 -26 0 -62 -10 -90 -24 -26 -13 -47 -22 -47 -22 0 1
13 40 29 87 34 101 80 196 129 264 38 52 201 225 213 225 3 0 16 -46 28 -102z
m77 -815 c-13 -27 -35 -82 -50 -123 -15 -41 -29 -82 -32 -90 -3 -10 -16 3 -39
40 l-34 55 32 24 c18 13 57 50 87 82 30 32 56 59 58 59 1 0 -8 -21 -22 -47z
m-2926 -405 c0 -3 -16 -2 -36 4 -20 5 -45 7 -55 5 -26 -7 -24 2 8 35 l28 29
27 -33 c15 -18 28 -36 28 -40z m-25 -43 c32 -31 38 -125 10 -154 -11 -11 -15
-7 -25 25 -17 52 -45 81 -86 88 -41 8 -43 18 -8 45 36 28 79 27 109 -4z m-55
-181 c0 -37 -15 -74 -30 -74 -17 0 -40 32 -40 54 0 23 33 54 58 55 7 1 12 -13
12 -35z m197 -375 c113 -54 143 -124 83 -192 -38 -44 -150 -99 -213 -105 -48
-5 -49 -4 -101 50 -81 84 -106 178 -65 244 23 38 22 38 67 25 23 -7 40 -6 59
4 37 19 93 10 170 -26z m-7993 -135 c41 -45 62 -74 50 -71 -55 17 -141 37
-159 37 -12 0 -24 3 -28 6 -6 6 53 104 63 104 3 0 36 -35 74 -76z m7710 -146
c14 -18 43 -44 65 -57 35 -22 41 -31 49 -80 6 -31 13 -64 17 -73 6 -16 1 -18
-43 -18 -49 0 -53 2 -87 47 -44 57 -75 156 -75 237 l0 61 24 -42 c14 -23 36
-57 50 -75z m-7661 10 c113 -29 124 -35 186 -88 153 -130 343 -259 512 -345
92 -47 115 -64 173 -129 62 -70 198 -188 227 -198 8 -3 -6 -30 -38 -79 -70
-104 -104 -173 -158 -329 -85 -244 -96 -256 -258 -254 -168 2 -533 70 -525 98
2 6 14 44 27 85 32 99 24 134 -40 173 -64 40 -372 168 -437 181 -70 15 -97 0
-137 -75 -17 -31 -34 -60 -37 -64 -10 -10 -109 69 -169 134 -59 64 -89 119
-89 161 0 100 243 559 360 680 89 91 195 104 403 49z m7879 -315 c34 -36 36
-42 41 -125 3 -49 2 -88 -2 -88 -11 0 -55 33 -73 55 -19 21 -58 134 -58 165 0
17 14 25 45 29 6 0 27 -16 47 -36z m151 -88 l38 -16 -7 -47 c-3 -26 -8 -50
-11 -54 -2 -5 -28 -8 -58 -8 l-53 0 -7 64 c-4 36 -4 70 0 76 9 14 43 9 98 -15z
m332 -50 c-40 -91 -83 -142 -142 -172 -69 -33 -151 -36 -191 -6 -39 29 -34 44
19 59 46 14 47 15 64 76 l17 63 71 3 c40 1 95 9 122 16 28 8 53 15 57 15 4 1
-3 -24 -17 -54z m-7165 -365 c18 -9 17 -15 -20 -93 -52 -112 -77 -189 -160
-492 -40 -143 -108 -379 -152 -525 -116 -382 -119 -396 -125 -497 -5 -81 -3
-95 16 -126 11 -19 21 -37 21 -39 0 -8 -267 55 -390 91 -347 101 -650 237
-914 411 -208 137 -332 248 -382 340 -48 90 -3 329 138 732 l30 87 72 -62 c39
-34 86 -73 103 -87 l32 -25 -31 -90 c-17 -49 -33 -118 -36 -153 -5 -61 -4 -63
32 -96 42 -41 231 -135 329 -165 102 -31 188 -43 224 -31 34 12 59 59 94 173
16 54 23 67 37 63 183 -55 381 -89 527 -90 107 -1 125 2 168 23 65 32 87 68
147 246 61 178 114 294 170 364 44 56 43 55 70 41z m9328 -106 c54 -209 155
-416 380 -779 241 -389 311 -595 299 -885 -7 -165 -29 -257 -97 -396 -37 -76
-66 -119 -120 -176 -74 -80 -176 -156 -189 -142 -5 5 -20 58 -35 118 -35 141
-74 235 -201 481 -124 240 -153 311 -194 475 -37 149 -56 275 -71 470 -22 282
-80 474 -191 637 -32 47 -34 53 -16 53 46 1 333 166 383 221 9 11 20 16 24 12
4 -5 16 -45 28 -89z m-9180 59 c17 -3 32 -9 32 -14 0 -4 -16 -20 -36 -35 -64
-49 -82 -114 -41 -151 28 -26 140 -67 242 -88 l78 -16 29 36 c28 33 108 95
124 95 21 0 -38 -512 -92 -797 -86 -460 -172 -691 -274 -743 -64 -33 -217 -46
-397 -33 -137 9 -156 12 -191 35 -51 34 -76 87 -68 145 3 24 23 85 45 136 104
246 175 470 282 896 79 311 108 411 148 505 21 47 22 48 54 42 17 -4 47 -10
65 -13z m-1502 -148 c98 -42 180 -78 182 -80 2 -1 -11 -26 -28 -53 -39 -64
-82 -182 -116 -317 -15 -58 -30 -105 -35 -105 -4 0 -62 22 -127 48 -135 55
-251 117 -259 138 -12 31 53 243 119 387 29 64 34 68 58 63 15 -2 107 -39 206
-81z m259 -117 c30 -13 30 -14 8 -64 -9 -22 -44 -118 -77 -214 -61 -174 -62
-175 -90 -173 -16 1 -31 4 -34 7 -5 6 16 93 55 221 27 89 92 235 104 235 4 0
20 -5 34 -12z m7966 -219 c-10 -9 -23 -31 -31 -48 -11 -28 -17 -31 -57 -31
-49 0 -49 1 -2 60 23 30 33 35 67 35 39 0 40 -1 23 -16z m-71 -139 c20 -5 45
-16 55 -24 20 -15 20 -15 -5 -40 l-25 -25 -62 19 c-51 16 -68 17 -95 8 l-33
-12 60 -13 c82 -19 91 -30 75 -88 -7 -25 -16 -47 -20 -50 -3 -2 -28 2 -55 10
-108 33 -129 6 -26 -33 55 -21 65 -30 91 -76 17 -28 30 -54 30 -58 0 -4 -34
-8 -77 -10 l-76 -3 49 -28 c48 -27 48 -28 14 -22 -65 12 -116 50 -144 107 -90
180 61 389 244 338z m-277 -402 c39 -54 121 -93 181 -84 l42 7 -4 -90 c-5
-105 1 -136 28 -151 16 -9 22 -6 34 17 15 28 15 28 16 -24 0 -49 -2 -53 -23
-53 -41 0 -131 31 -179 62 -126 79 -181 211 -151 359 6 29 8 31 17 15 6 -10
24 -36 39 -58z m382 -77 c28 -7 68 -27 92 -47 46 -38 117 -73 148 -74 13 0 35
-23 65 -68 99 -147 282 -295 446 -360 88 -35 188 -62 228 -62 20 0 29 -7 37
-27 16 -42 49 -175 49 -198 -1 -19 -1 -19 -19 3 -11 12 -21 22 -24 22 -2 0 9
-57 25 -127 l29 -128 -43 -39 c-197 -177 -294 -312 -333 -463 -22 -83 -20
-113 6 -113 16 0 20 -4 14 -17 -18 -47 -27 -137 -22 -228 6 -125 34 -215 98
-310 26 -38 44 -71 39 -73 -15 -6 -226 68 -300 105 -324 164 -542 458 -627
845 -14 65 -18 124 -17 273 1 167 6 218 38 422 20 128 38 272 41 320 3 48 7
135 10 193 l5 105 -43 -43 c-23 -23 -47 -42 -51 -42 -10 0 0 98 14 135 8 20
14 24 27 17 10 -5 40 -15 68 -21z m-176 -1001 c-30 -283 60 -621 232 -877 138
-204 351 -363 606 -453 l104 -36 -21 -27 c-46 -59 -86 -67 -585 -118 -329 -34
-526 -42 -546 -22 -34 34 30 115 125 158 71 33 75 53 8 40 -88 -16 -173 -83
-191 -152 -6 -24 -12 -27 -37 -25 -42 5 -74 29 -74 55 0 52 66 120 148 152 52
21 54 35 5 35 -47 0 -133 -48 -163 -90 -31 -43 -37 -30 -8 14 31 45 64 71 125
98 43 19 65 21 218 20 94 0 224 -8 290 -16 66 -9 124 -16 130 -16 5 0 -23 16
-63 35 -189 90 -339 240 -413 412 -31 72 -59 200 -59 271 0 59 -1 62 -19 52
-11 -5 -22 -10 -25 -10 -23 0 21 192 71 310 33 77 145 291 150 286 1 -1 -2
-44 -8 -96z m-4356 -265 c56 -150 97 -379 97 -539 l0 -82 -310 -14 c-171 -7
-313 -10 -316 -8 -3 3 5 26 17 52 22 44 24 45 42 28 18 -16 20 -15 49 18 96
113 225 353 268 500 12 41 27 81 33 88 6 8 27 12 56 10 45 -3 46 -4 64 -53z
m3347 -635 c267 -5 573 -12 681 -16 l197 -7 53 -75 c30 -41 77 -96 106 -121
l52 -47 -142 1 c-160 0 -252 -21 -319 -72 -108 -84 -116 -214 -18 -296 34 -29
30 -27 160 -57 115 -27 201 -24 655 21 469 46 513 57 555 146 22 47 28 53 56
53 32 0 59 -16 131 -82 24 -21 36 -38 29 -38 -58 0 -234 -24 -294 -41 -174
-47 -270 -139 -260 -249 6 -57 75 -162 122 -184 65 -31 215 -51 371 -50 137 1
171 5 385 48 317 64 456 98 574 140 146 52 192 105 184 213 l-3 46 80 41 c160
82 277 184 373 328 l45 68 111 -59 c131 -69 286 -126 404 -146 160 -28 216
-16 165 37 -15 15 -25 28 -22 28 3 0 85 -7 183 -15 395 -33 974 -204 1156
-339 52 -40 93 -105 86 -139 -13 -64 -73 -117 -214 -187 -514 -256 -2004 -477
-3952 -585 -834 -46 -1597 -65 -2625 -65 -2217 0 -3926 103 -5355 321 -1002
153 -1571 355 -1535 545 27 149 413 303 1097 439 213 42 660 115 706 115 21 0
21 -2 15 -112 -12 -243 52 -371 252 -503 318 -209 780 -331 1180 -311 266 13
442 56 588 144 164 98 205 185 156 330 -39 116 -139 224 -284 307 -33 19 -66
39 -74 44 -18 12 51 100 172 219 l84 84 254 14 c140 7 293 14 342 14 l87 0 0
-145 c0 -215 26 -303 111 -379 168 -153 733 -256 1328 -243 270 5 401 24 578
82 202 65 255 112 274 237 27 183 -66 329 -283 444 -48 26 -88 51 -88 55 0 12
716 11 1330 -1z"/>
<path d="M7580 15209 c-38 -8 -70 -40 -70 -71 0 -34 31 -88 59 -102 14 -8 79
-23 144 -34 95 -16 137 -29 213 -66 52 -25 94 -43 94 -39 0 20 -73 135 -113
180 -80 87 -238 150 -327 132z"/>
<path d="M3683 15125 c-56 -17 -124 -57 -163 -97 -31 -30 -80 -101 -80 -114 0
-3 25 17 56 46 47 42 157 110 179 110 4 0 -10 -19 -29 -43 -80 -98 -119 -238
-97 -354 36 -198 183 -306 436 -320 l100 -6 16 86 c25 128 93 260 171 329 19
17 19 19 -14 80 -39 74 -139 184 -207 227 -104 67 -259 91 -368 56z m292 -84
c74 -35 152 -104 210 -186 25 -34 45 -66 45 -69 0 -4 -23 -34 -50 -67 -77 -92
-130 -214 -130 -296 0 -18 -3 -33 -7 -33 -5 0 -51 7 -103 15 -164 27 -261 89
-312 200 -19 41 -23 67 -23 145 0 81 4 103 26 150 74 159 199 210 344 141z"/>
<path d="M5651 14973 c-164 -41 -310 -193 -356 -368 -8 -33 -15 -77 -15 -98
l0 -39 75 70 c100 94 170 138 295 189 127 52 160 82 160 148 0 84 -63 123
-159 98z"/>
<path d="M7744 14600 c-91 -13 -172 -88 -216 -200 -17 -44 -22 -77 -22 -165
-1 -129 23 -221 78 -304 19 -28 37 -63 41 -79 l6 -29 -73 -2 c-206 -5 -460
-87 -576 -187 -56 -47 -102 -142 -102 -208 0 -201 269 -392 621 -440 l47 -7
-14 -72 c-35 -183 -86 -262 -210 -329 -157 -84 -350 -114 -534 -83 -244 40
-450 140 -616 297 l-52 49 -5 -28 c-4 -23 4 -36 51 -85 32 -32 97 -87 146
-121 85 -59 91 -66 135 -152 66 -128 103 -179 196 -270 123 -121 245 -186 395
-207 160 -24 339 29 425 123 46 51 95 157 123 264 11 44 26 98 31 121 10 39
13 41 65 53 30 7 77 23 103 37 26 13 49 24 51 24 6 0 -11 -110 -29 -181 -52
-210 -178 -442 -302 -554 -113 -103 -290 -169 -527 -196 -195 -22 -348 5 -525
93 -181 91 -270 176 -348 333 -97 194 -135 355 -122 516 4 55 3 94 -4 106 -9
17 -3 26 44 67 53 46 148 96 183 96 15 1 15 3 -3 16 -24 19 -88 13 -138 -12
-45 -23 -95 -72 -119 -118 -19 -38 -19 -38 0 -60 17 -18 20 -40 25 -181 6
-179 27 -277 90 -409 40 -84 141 -205 227 -271 180 -138 453 -225 710 -225
305 0 514 107 667 342 104 161 183 416 183 595 0 49 4 58 56 125 135 175 215
437 201 658 -7 110 -48 234 -104 319 -24 35 -43 65 -43 66 0 1 55 35 122 76
102 62 118 74 96 77 l-27 3 15 42 c25 68 29 182 10 278 -52 257 -237 428 -432
399z m138 -96 c62 -20 118 -71 167 -149 23 -35 41 -67 41 -70 0 -3 -23 11 -50
31 -71 51 -141 75 -216 75 -98 0 -165 -38 -248 -141 l-28 -35 6 49 c13 105 80
207 160 242 42 18 113 17 168 -2z m76 -183 c95 -49 161 -138 169 -230 l4 -46
-17 30 c-54 98 -148 165 -228 165 -46 0 -119 -30 -154 -63 -42 -39 -75 -116
-80 -189 -2 -38 -7 -68 -11 -68 -10 0 -62 136 -68 177 -10 74 71 193 161 235
55 25 163 20 224 -11z m-33 -256 c28 -27 31 -45 14 -78 -23 -43 -66 -50 -99
-17 -26 26 -25 68 2 97 28 30 53 29 83 -2z m-143 -316 c125 -26 175 -85 164
-193 -13 -120 -81 -246 -198 -370 -93 -99 -159 -139 -229 -137 -149 3 -390
104 -503 210 -47 44 -86 123 -86 175 0 125 135 233 365 290 55 14 114 27 130
29 66 9 307 6 357 -4z m253 -305 c66 -254 -93 -721 -277 -815 -53 -27 -129
-34 -201 -19 -66 13 -73 21 -53 52 31 49 58 152 60 236 l2 83 54 30 c174 95
302 253 360 448 25 82 30 81 55 -15z m-500 -896 c33 -6 61 -12 62 -13 7 -4
-108 -300 -130 -338 -43 -72 -53 -76 -88 -34 -74 90 -189 147 -309 153 -41 2
-111 12 -154 24 -92 23 -162 25 -261 6 -38 -8 -71 -13 -71 -12 -14 14 -111
186 -106 186 4 0 41 -13 82 -29 112 -44 260 -71 384 -71 155 0 240 20 376 89
66 34 124 57 135 54 11 -2 47 -9 80 -15z m-621 -259 c40 -13 91 -42 136 -76
39 -30 74 -52 77 -49 3 3 -12 29 -33 57 l-38 52 51 -6 c73 -8 156 -50 213
-108 28 -28 50 -54 50 -59 0 -12 -96 -47 -171 -60 -174 -32 -368 40 -518 194
l-54 55 29 6 c16 4 34 8 39 10 36 12 162 3 219 -16z"/>
<path d="M7397 13690 c-84 -18 -159 -52 -186 -84 -35 -42 32 -76 150 -76 109
0 281 26 348 53 63 25 101 68 82 90 -33 40 -243 49 -394 17z m351 -24 l25 -13
-24 -17 c-81 -57 -438 -101 -508 -62 -25 14 -24 14 37 45 58 30 143 54 222 64
58 8 222 -4 248 -17z"/>
<path d="M5713 14315 c-152 -41 -262 -152 -317 -317 -33 -98 -40 -179 -26
-274 15 -97 41 -169 86 -236 19 -28 33 -52 32 -53 -2 -1 -46 -7 -98 -13 -52
-7 -115 -18 -140 -26 -45 -15 -44 -15 40 -8 109 9 255 6 350 -8 94 -14 308
-69 418 -108 45 -16 82 -28 82 -26 0 2 -18 16 -40 30 -22 15 -40 30 -40 33 0
4 16 13 35 20 54 19 139 103 164 162 62 142 65 318 11 481 -37 111 -75 172
-143 234 -118 106 -273 147 -414 109z m277 -106 c54 -26 170 -113 170 -128 0
-4 -26 1 -57 12 -170 57 -371 -35 -453 -208 -64 -134 -60 -275 12 -417 l18
-38 -39 0 c-60 0 -85 14 -119 67 -171 268 -58 637 223 729 64 22 180 13 245
-17z m137 -164 c52 -22 72 -42 99 -100 30 -63 32 -85 5 -61 -30 27 -117 56
-169 56 -92 0 -212 -83 -255 -178 -18 -38 -22 -65 -22 -137 1 -78 5 -100 32
-163 26 -60 28 -72 15 -68 -107 31 -99 24 -136 100 -43 87 -57 168 -45 256 13
85 42 144 104 205 103 103 253 139 372 90z m-37 -303 c26 -32 25 -70 -2 -99
-58 -62 -149 20 -107 98 22 43 76 43 109 1z"/>
<path d="M7184 13885 c-344 -61 -691 -282 -925 -590 -72 -95 -66 -97 18 -5
220 239 317 321 469 398 87 44 251 99 363 122 120 24 352 42 436 34 60 -6 64
-6 59 13 -7 25 -46 32 -219 38 -79 3 -148 -1 -201 -10z"/>
<path d="M4424 11525 c10 -17 28 -40 39 -52 33 -37 170 -122 207 -129 22 -4
31 -3 25 3 -18 17 -88 68 -190 139 -86 59 -97 64 -81 39z"/>
<path d="M4720 11366 c34 -37 215 -135 226 -123 3 3 -13 15 -36 27 -23 11 -65
36 -93 54 -29 18 -70 43 -92 56 l-40 23 35 -37z"/>
<path d="M12065 13314 c-27 -8 -98 -29 -157 -46 l-108 -31 0 -36 c0 -21 16
-84 35 -141 19 -58 40 -134 46 -170 15 -90 27 -127 46 -134 9 -4 18 -4 21 -1
3 3 -7 44 -21 92 -15 49 -30 111 -33 138 -4 28 -17 82 -30 122 -37 111 -35
118 34 133 31 6 67 14 80 17 21 5 22 4 12 -23 -6 -16 -23 -44 -36 -62 -14 -18
-29 -46 -34 -62 -7 -26 -5 -30 22 -39 47 -16 54 -13 30 12 -21 22 -21 26 -9
63 l14 39 60 3 c58 3 61 2 71 -25 23 -60 20 -76 -23 -100 -22 -12 -51 -23 -63
-23 -30 0 -82 -30 -82 -47 0 -7 11 -13 25 -13 14 0 25 4 25 10 0 5 12 13 28
16 66 16 142 72 142 105 0 26 17 33 28 12 14 -26 62 -204 62 -230 0 -17 -9
-23 -52 -33 -91 -21 -238 -71 -238 -80 0 -21 44 -20 104 4 36 14 76 26 90 26
14 0 50 9 81 21 64 24 67 36 36 140 -19 61 -35 129 -62 249 -24 114 -41 124
-144 94z m94 -45 c12 -35 14 -79 5 -103 -5 -13 -9 -12 -25 8 -11 14 -42 32
-69 41 -28 9 -50 20 -50 23 1 16 18 32 50 46 56 24 76 20 89 -15z"/>
<path d="M12020 13130 c-29 -29 -25 -40 15 -40 32 0 35 2 35 30 0 36 -20 40
-50 10z"/>
<path d="M12042 12988 c-36 -8 -46 -15 -58 -43 -32 -78 -10 -128 41 -95 17 11
40 20 52 20 12 0 25 5 28 10 4 6 -15 10 -49 10 -31 0 -56 4 -56 9 0 17 61 61
85 61 13 0 38 -15 58 -35 19 -19 45 -35 56 -35 20 0 21 2 7 28 -16 31 -84 83
-107 81 -7 -1 -33 -5 -57 -11z"/>
<path d="M8851 7064 c-30 -120 -80 -244 -175 -429 -72 -141 -81 -156 -84 -127
-2 17 -6 32 -10 32 -4 0 -32 -37 -62 -82 -30 -46 -102 -131 -160 -189 -116
-117 -233 -200 -395 -281 -112 -57 -326 -150 -331 -145 -2 2 8 20 23 42 20 29
22 37 9 32 -58 -23 -223 -69 -286 -81 -206 -40 -567 -44 -798 -11 -309 46
-482 114 -650 254 l-73 62 20 -40 c38 -74 221 -191 361 -231 299 -83 411 -100
678 -100 252 0 426 20 571 65 62 19 115 35 117 35 1 0 0 -16 -3 -35 l-6 -34
90 30 c124 41 378 167 495 245 117 77 242 199 323 313 58 81 60 83 65 55 l6
-29 33 45 c113 155 281 543 281 651 0 64 -16 45 -39 -47z"/>
<path d="M5418 6533 c10 -55 189 -291 289 -383 59 -54 197 -150 216 -150 16 0
-23 39 -73 73 -109 74 -275 257 -380 420 -25 37 -47 67 -51 67 -3 0 -4 -12 -1
-27z"/>
<path d="M12742 9894 c-86 -23 -132 -53 -132 -85 0 -13 -12 -22 -42 -30 -67
-18 -148 -63 -213 -119 -95 -82 -177 -138 -258 -175 -42 -19 -81 -35 -87 -35
-6 0 9 28 35 63 25 34 50 70 56 81 13 22 21 26 -112 -60 -127 -81 -259 -157
-265 -152 -2 3 13 32 35 65 21 33 45 71 51 84 l13 23 -29 -19 c-16 -10 -64
-45 -107 -77 -43 -33 -115 -82 -160 -110 -45 -28 -90 -57 -100 -66 -30 -27
-27 -8 9 53 79 131 79 134 19 70 -30 -33 -71 -91 -90 -129 l-35 -69 -1 39 c-2
72 2 109 17 163 16 57 73 177 106 224 11 16 15 27 8 27 -14 0 -120 -107 -120
-120 0 -6 -4 -10 -10 -10 -14 0 25 94 59 144 35 49 110 122 170 165 54 38 42
39 -51 4 -42 -17 -73 -35 -75 -45 -3 -9 -11 -14 -19 -11 -9 3 -14 -2 -14 -13
0 -11 -16 -44 -35 -74 -19 -30 -41 -68 -50 -83 -17 -29 -48 -158 -40 -165 2
-3 16 3 31 13 26 17 27 17 19 -1 -40 -97 -49 -221 -22 -287 9 -20 20 -37 26
-37 5 0 18 15 29 33 11 20 43 47 78 67 33 18 101 62 152 97 l93 65 -7 -41 c-6
-41 -6 -41 17 -32 62 24 121 53 204 99 49 28 91 49 93 47 2 -2 -8 -20 -23 -39
l-27 -36 33 6 c126 24 240 84 397 211 118 96 182 130 265 139 56 6 80 24 33
24 -13 0 -29 6 -36 14 -9 12 -5 18 27 34 53 27 135 49 213 57 36 4 72 11 80
16 25 14 -150 9 -208 -7z"/>
<path d="M12045 9291 c-140 -42 -261 -103 -354 -181 -141 -117 -304 -391 -358
-602 l-28 -106 -25 20 c-67 55 -198 100 -225 78 -22 -18 -18 -30 10 -30 32 0
141 -41 219 -83 l61 -32 -3 30 c-8 71 104 347 198 485 101 149 287 330 339
330 15 0 53 9 85 21 82 28 206 41 284 29 130 -21 225 -73 321 -175 191 -205
238 -560 109 -822 -28 -56 -39 -69 -72 -82 l-39 -15 94 -17 c52 -9 108 -20
124 -23 22 -5 17 0 -20 19 -27 14 -58 25 -67 25 -40 0 -24 19 22 25 67 9 74
25 11 25 l-50 0 24 36 c56 82 90 251 82 403 -17 316 -192 569 -446 645 -73 22
-218 20 -296 -3z"/>
<path d="M12051 8949 c-217 -37 -386 -274 -385 -539 0 -117 24 -181 92 -240
25 -22 49 -40 53 -40 5 0 9 -11 9 -24 l0 -24 53 13 c93 25 278 47 437 54 159
6 166 11 57 35 l-28 7 32 36 c49 56 97 167 109 251 40 285 -170 515 -429 471z
m160 -111 c87 -37 165 -142 190 -258 25 -117 -10 -267 -80 -341 -34 -35 -43
-39 -88 -39 l-51 0 29 53 c39 73 56 177 41 257 -30 165 -122 269 -267 304
l-60 14 30 12 c79 32 177 31 256 -2z m-176 -82 c143 -66 217 -256 167 -423
-29 -93 -71 -140 -134 -152 -49 -9 -59 -3 -34 18 8 6 24 35 37 64 33 77 33
183 -2 257 -49 105 -133 163 -231 163 -50 -1 -56 1 -49 16 11 20 49 54 76 69
35 19 116 14 170 -12z m-83 -233 c21 -19 23 -45 7 -76 -23 -43 -68 -50 -93
-15 -21 30 -20 50 5 82 23 30 54 33 81 9z"/>
<path d="M11050 7373 c0 -3 12 -22 26 -41 40 -52 123 -86 207 -85 86 0 109 18
35 27 -81 9 -118 22 -190 66 -68 41 -78 45 -78 33z"/>
<path d="M16000 9719 c-171 -36 -373 -125 -465 -204 -23 -19 -9 -15 55 19 170
90 348 149 554 186 l101 18 -75 0 c-41 0 -118 -8 -170 -19z"/>
<path d="M15365 9631 c-134 -63 -328 -229 -421 -357 -24 -34 -44 -64 -44 -67
0 -3 53 49 118 115 126 130 236 221 353 293 84 51 81 58 -6 16z"/>
<path d="M16470 9580 c-24 -5 -3 -8 70 -9 138 -1 253 -16 369 -47 52 -13 96
-22 98 -20 8 7 -151 64 -211 75 -66 12 -271 13 -326 1z"/>
<path d="M16716 9409 c2 -3 27 -9 55 -13 76 -10 268 -61 340 -91 34 -14 64
-23 67 -21 8 9 -145 75 -220 96 -76 21 -250 42 -242 29z"/>
<path d="M14780 9353 c-143 -159 -280 -429 -304 -603 -5 -34 4 -18 33 63 71
195 157 354 278 514 34 46 58 83 53 83 -5 0 -32 -26 -60 -57z"/>
<path d="M14382 8968 c-42 -87 -70 -186 -87 -298 -18 -117 -19 -177 -3 -294
l13 -91 6 180 c7 197 27 316 79 469 16 49 28 91 26 94 -2 2 -18 -25 -34 -60z"/>
<path d="M15043 8970 c-39 -32 -98 -95 -131 -138 -55 -74 -142 -219 -142 -238
0 -4 26 31 58 78 86 126 148 203 227 285 38 40 68 73 64 73 -3 0 -37 -27 -76
-60z"/>
<path d="M16690 8511 c8 -6 32 -11 54 -11 55 0 210 -54 290 -102 81 -48 218
-176 272 -254 20 -30 39 -54 40 -54 8 0 -19 56 -52 108 -112 174 -332 304
-537 318 -59 4 -78 3 -67 -5z"/>
<path d="M16285 8474 c-83 -18 -196 -71 -245 -115 l-35 -31 35 22 c122 76 229
104 390 103 142 0 236 -21 340 -73 75 -38 71 -24 -8 23 -125 76 -323 105 -477
71z"/>
<path d="M16155 8289 c-262 -39 -506 -217 -625 -454 -43 -87 -55 -137 -17 -69
107 186 255 332 422 416 80 41 210 78 316 90 54 6 98 13 96 14 -10 8 -144 10
-192 3z"/>
<path d="M17160 7974 c97 -105 159 -259 161 -398 1 -83 17 -44 18 44 2 128
-46 246 -134 336 -75 76 -112 90 -45 18z"/>
<path d="M14581 7888 c-49 -151 -71 -386 -52 -572 19 -184 26 -173 23 37 -4
202 7 347 39 500 10 50 17 93 15 95 -2 2 -13 -25 -25 -60z"/>
<path d="M15608 7737 c-105 -96 -167 -199 -215 -354 -25 -82 -27 -101 -27
-263 0 -191 13 -260 69 -385 l27 -60 22 68 c37 110 43 104 49 -50 6 -153 14
-188 79 -327 l43 -91 0 -120 c-1 -66 -7 -151 -13 -189 -19 -101 -7 -91 18 16
14 59 22 125 22 183 1 80 -3 98 -31 159 -64 140 -97 336 -88 529 3 77 2 115
-5 111 -12 -8 -68 -124 -69 -144 0 -8 -8 -33 -18 -55 l-18 -40 -16 72 c-57
247 -47 491 27 672 35 85 106 198 168 266 63 70 50 71 -24 2z"/>
<path d="M14321 7455 c-3 -123 40 -321 104 -468 36 -85 115 -227 125 -227 4 0
-15 45 -42 100 -62 126 -121 304 -148 445 -12 61 -25 128 -29 150 l-9 40 -1
-40z"/>
<path d="M14941 6360 c-1 -123 -15 -251 -40 -355 -10 -41 -17 -75 -15 -75 9 0
37 81 56 160 23 93 28 304 10 350 -8 19 -11 2 -11 -80z"/>
<path d="M14665 6290 c35 -184 39 -216 39 -400 1 -107 -3 -215 -7 -240 -13
-75 2 -38 19 46 22 107 22 324 0 426 -15 72 -62 225 -51 168z"/>
<path d="M15876 5938 c-44 -127 -131 -308 -203 -424 -103 -165 -99 -158 -74
-142 47 28 168 205 219 318 52 115 122 360 104 360 -4 0 -25 -50 -46 -112z"/>
<path d="M15704 5358 c-32 -40 -89 -109 -127 -153 -38 -44 -79 -93 -90 -110
l-22 -30 40 31 c54 43 153 148 196 209 96 136 98 171 3 53z"/>
<path d="M14644 5026 c-64 -78 -167 -164 -269 -227 -89 -55 -91 -60 -11 -25
111 49 218 138 293 244 25 35 44 64 42 66 -2 1 -27 -25 -55 -58z"/>
<path d="M15610 5034 c-134 -114 -305 -223 -455 -290 -74 -32 -77 -35 -36 -28
103 15 231 76 351 164 78 58 236 217 208 209 -2 0 -32 -25 -68 -55z"/>
<path d="M15200 4649 c-122 -61 -224 -93 -380 -120 -69 -11 -127 -22 -128 -24
-2 -2 17 -7 42 -10 95 -15 322 39 443 105 56 30 149 101 128 98 -5 -1 -53 -23
-105 -49z"/>
<path d="M14432 4410 c32 -16 86 -37 120 -45 77 -18 228 -19 300 -3 51 12 47
13 -117 19 -158 6 -226 17 -340 54 -11 3 6 -8 37 -25z"/>
<path d="M10915 8393 c11 -12 167 -55 173 -48 2 2 -15 13 -38 25 -44 22 -153
41 -135 23z"/>
<path d="M2754 6936 c-29 -29 -34 -41 -34 -79 0 -82 73 -137 137 -104 83 43
101 130 41 195 -16 16 -33 22 -66 22 -37 0 -50 -6 -78 -34z m114 -18 c17 -17
15 -84 -4 -102 -20 -20 -68 -21 -84 0 -19 22 -16 70 5 94 20 22 64 27 83 8z"/>
</g>
</svg>
