<?xml version="1.0" standalone="no"?>
<!DOCTYPE svg PUBLIC "-//W3C//DTD SVG 20010904//EN"
 "http://www.w3.org/TR/2001/REC-SVG-20010904/DTD/svg10.dtd">
<svg version="1.0" xmlns="http://www.w3.org/2000/svg"
 width="816.000000pt" height="1056.000000pt" viewBox="0 0 816.000000 1056.000000"
 preserveAspectRatio="xMidYMid meet">
<metadata>
Created by potrace 1.16, written by Peter Selinger 2001-2019
</metadata>
<g transform="translate(0.000000,1056.000000) scale(0.100000,-0.100000)"
fill="#000000" stroke="none">
<path d="M225 10318 c-3 -7 -4 -2283 -3 -5058 l3 -5045 2613 0 c1436 0 2612 3
2612 8 0 4 -1172 7 -2605 7 l-2605 0 0 1571 c0 1310 2 1570 13 1566 8 -3 57
-11 109 -17 244 -31 442 51 408 170 -5 18 -15 37 -22 41 -32 20 17 31 173 38
138 7 171 11 206 29 76 39 69 113 -16 154 -38 19 -63 23 -142 23 -100 0 -106
3 -76 43 19 25 14 108 -9 139 -39 53 -79 67 -192 71 -91 4 -102 6 -96 21 27
63 36 104 37 161 3 187 -145 238 -332 115 -29 -19 -55 -35 -57 -35 -2 0 -4 81
-4 180 0 178 0 180 22 184 50 11 404 36 588 42 219 7 373 -3 610 -41 351 -56
535 -56 770 -1 58 14 155 37 215 52 99 23 302 47 315 36 3 -2 7 -81 8 -175 4
-182 4 -181 -53 -372 -30 -101 -119 -402 -159 -540 -22 -74 -74 -261 -92 -327
-4 -13 -17 -16 -78 -15 -66 2 -76 -1 -110 -27 -67 -50 -83 -134 -38 -196 27
-37 11 -95 -30 -109 -17 -6 -41 -11 -54 -11 -45 0 -122 -21 -141 -39 -10 -10
-56 -32 -102 -50 -169 -65 -221 -120 -221 -233 0 -21 -4 -38 -10 -38 -21 0
-60 -45 -76 -87 -39 -102 16 -219 129 -271 26 -12 71 -26 99 -30 52 -7 53 -8
61 -49 16 -82 96 -128 257 -147 107 -13 401 30 548 79 40 14 77 25 82 25 23 0
262 123 349 179 52 34 99 61 105 61 8 0 10 -108 8 -357 l-4 -358 -55 -87
c-101 -160 -118 -274 -51 -338 40 -38 73 -49 205 -71 229 -37 598 -14 686 43
50 34 71 107 56 197 -8 54 -51 154 -75 178 -7 7 -22 28 -34 47 -21 35 -21 36
-10 343 6 169 15 415 19 546 5 131 10 240 13 242 2 2 89 5 193 5 l190 2 -3
-389 c-1 -213 -5 -467 -8 -564 l-6 -176 -32 -34 c-47 -50 -82 -109 -106 -178
-21 -65 -26 -150 -10 -181 19 -35 71 -62 158 -82 113 -26 398 -28 544 -4 103
17 242 58 270 80 27 20 48 80 48 138 0 82 -27 142 -98 219 l-63 69 11 292 c7
161 17 432 23 603 10 262 14 310 27 313 9 1 23 -12 34 -33 23 -43 86 -75 147
-75 44 0 121 28 133 49 13 20 33 12 57 -23 25 -37 99 -89 140 -99 71 -18 159
52 159 125 l0 38 58 0 c103 0 161 62 147 157 -5 37 -3 46 18 65 59 55 37 155
-42 193 -38 19 -41 23 -41 61 0 23 3 68 6 101 6 55 9 61 38 75 17 8 69 35 116
59 166 86 277 123 349 117 36 -3 36 -3 39 -55 4 -63 12 -67 129 -64 91 3 91 3
226 -83 66 -41 107 -59 163 -71 l74 -17 -6 -91 c-2 -51 -7 -116 -10 -144 l-5
-53 -62 -1 c-73 -1 -51 -17 25 -18 36 -1 74 -14 159 -56 77 -38 119 -53 133
-49 12 4 50 24 86 44 74 43 111 56 193 65 31 4 55 11 52 16 -6 8 -32 7 -122
-7 l-33 -5 0 147 c0 135 1 146 18 139 9 -5 53 -14 97 -20 44 -7 125 -28 180
-47 55 -19 105 -35 110 -34 7 1 11 -222 13 -646 2 -577 -1 -682 -20 -640 -7
15 -79 63 -150 99 -65 33 -81 36 -148 36 -118 -1 -193 -45 -236 -138 -31 -65
-32 -158 -4 -240 11 -32 20 -59 20 -61 0 -1 -53 -2 -117 -3 -144 -1 -229 -22
-301 -74 -112 -83 -111 -195 4 -294 30 -26 52 -48 50 -51 -2 -2 -58 -10 -123
-18 -321 -37 -513 -145 -471 -265 10 -28 56 -69 93 -83 59 -22 149 -29 432
-35 171 -3 315 -10 319 -14 5 -4 2 -22 -5 -40 -22 -53 -35 -121 -27 -150 22
-88 159 -141 431 -167 66 -6 151 -14 189 -18 l68 -7 -1 -125 c-1 -68 -4 -127
-7 -130 -3 -3 -73 -6 -155 -8 -85 -2 -149 -8 -149 -13 0 -6 66 -8 168 -7 l167
3 3 5049 c2 4033 0 5051 -10 5058 -7 4 -1742 8 -3856 8 -3065 0 -3844 -3
-3847 -12z m1718 -30 c-1 -7 -13 -44 -27 -81 -50 -132 -28 -323 48 -413 79
-94 81 -110 31 -180 -68 -94 -105 -179 -105 -237 0 -73 18 -97 76 -97 25 0 59
7 77 16 32 17 150 110 176 140 20 23 22 13 10 -52 -12 -64 -7 -197 11 -256 15
-52 67 -105 113 -113 27 -5 47 -2 79 14 50 24 80 65 109 147 12 32 22 60 24
62 1 1 19 -14 39 -34 l37 -37 -35 -67 c-30 -56 -37 -82 -42 -151 -11 -145 23
-239 102 -277 25 -11 33 -20 28 -31 -39 -87 -57 -162 -57 -241 1 -160 64 -240
191 -240 l34 0 -7 -49 c-5 -38 -2 -59 13 -93 50 -110 143 -144 241 -87 18 11
34 19 35 17 2 -2 9 -21 17 -43 15 -39 14 -43 -19 -125 -19 -47 -37 -89 -41
-95 -4 -5 -15 -29 -24 -52 -9 -23 -25 -61 -36 -85 -32 -72 -67 -166 -115 -313
-83 -251 -94 -288 -140 -473 -60 -239 -70 -352 -63 -737 l5 -300 -84 3 -83 3
-5 32 c-3 18 -8 201 -11 407 -7 490 -24 1221 -29 1288 l-5 52 112 0 c62 0 117
4 123 8 8 5 -2 36 -30 98 -22 50 -50 111 -60 135 -19 45 -49 111 -141 309 -83
177 -251 543 -306 665 -28 61 -56 118 -63 127 -11 15 -56 18 -397 28 -211 6
-600 17 -864 25 -264 8 -517 15 -562 15 l-83 0 0 689 c0 638 1 690 17 693 9 2
393 2 852 1 674 -2 836 -5 834 -15z m3517 -5 c-10 -39 -5 -110 11 -125 23 -23
70 -45 112 -53 22 -4 36 -12 33 -19 -32 -77 -39 -117 -26 -156 21 -62 63 -80
140 -59 12 3 16 -8 18 -56 2 -56 0 -63 -37 -113 -46 -61 -60 -112 -41 -148 15
-28 55 -32 86 -9 10 8 21 15 24 15 3 0 6 -25 6 -55 0 -43 4 -59 24 -80 13 -14
33 -25 45 -25 12 0 31 -13 43 -30 25 -33 109 -80 144 -80 41 0 68 -12 68 -30
0 -59 47 -110 102 -110 21 0 23 -5 24 -58 1 -70 32 -135 77 -162 42 -26 61
-25 91 4 17 18 27 45 37 98 7 40 16 84 21 97 8 23 9 23 38 -17 54 -74 129
-118 186 -107 66 12 100 68 110 183 9 92 12 96 59 83 26 -7 53 -7 88 0 61 14
81 4 120 -56 50 -78 158 -130 195 -93 18 18 14 94 -7 138 -11 22 -16 42 -12
44 4 3 25 -1 47 -9 21 -8 49 -14 62 -15 19 0 22 -5 22 -35 0 -69 46 -135 159
-233 l34 -29 -36 -59 c-31 -49 -37 -69 -37 -113 0 -67 18 -91 70 -91 20 0 45
7 56 15 27 21 32 19 39 -17 23 -105 104 -180 210 -195 l45 -6 0 -358 c0 -198
-3 -359 -7 -359 -14 1 -59 46 -86 85 -15 22 -30 61 -33 87 -7 49 -17 67 -29
48 -12 -19 -62 -10 -89 15 -15 14 -39 50 -53 81 -24 53 -25 64 -20 158 4 55 9
120 13 144 5 28 3 42 -5 42 -6 0 -11 -6 -11 -13 0 -8 -8 -21 -17 -30 -42 -37
-123 -33 -167 8 -33 31 -46 32 -46 3 -1 -36 -35 -103 -65 -126 -36 -29 -104
-29 -162 -1 -46 22 -56 41 -51 98 2 20 -2 36 -9 38 -9 3 -13 -7 -13 -33 0 -93
-61 -153 -166 -162 -59 -5 -90 9 -146 62 -21 20 -38 31 -38 26 0 -16 71 -90
86 -90 24 0 15 -37 -13 -55 -35 -23 -118 -24 -162 -2 -19 9 -36 15 -39 12 -2
-2 1 -24 7 -49 14 -57 14 -151 0 -179 -20 -39 -81 -96 -110 -102 -25 -6 -38 3
-125 89 -53 53 -100 96 -105 96 -5 0 -9 -7 -9 -15 0 -8 4 -15 10 -15 5 0 40
-29 78 -64 107 -102 141 -195 87 -246 -21 -19 -34 -23 -89 -22 -91 2 -156 38
-194 107 -11 19 -11 18 -12 -7 0 -37 -29 -55 -80 -50 -36 4 -53 15 -113 71
-72 67 -73 67 -42 -19 28 -75 30 -140 5 -179 -20 -32 -23 -33 -71 -29 -40 4
-57 12 -85 39 -46 44 -64 79 -64 124 0 44 -11 44 -44 1 -14 -19 -35 -38 -46
-41 -25 -8 -25 -25 -1 -51 43 -47 56 -106 36 -164 -16 -46 -43 -73 -92 -96
-49 -21 -79 -17 -117 17 l-35 31 -39 -41 c-50 -53 -68 -53 -80 2 -34 148 -285
817 -339 904 -52 85 -74 103 -124 103 -47 0 -80 -32 -110 -108 -12 -31 -37
-90 -56 -130 -18 -40 -33 -76 -33 -81 0 -8 -42 -113 -70 -176 -5 -11 -23 -54
-41 -95 -17 -41 -42 -97 -54 -125 -12 -27 -25 -58 -29 -69 -16 -46 -145 38
-177 116 -14 35 -33 32 -37 -8 -9 -93 -48 -164 -89 -164 -23 0 -68 57 -87 112
-32 90 -56 102 -83 41 -33 -73 -84 -105 -110 -70 -5 6 -40 127 -78 267 -105
392 -107 399 -162 428 -29 16 -78 15 -111 -2 -29 -15 -78 -75 -117 -146 -26
-47 -139 -269 -148 -292 -8 -20 -25 8 -32 54 -8 43 -11 45 -34 20 -33 -37 -66
-52 -112 -52 -40 0 -53 6 -90 39 l-44 39 0 73 c0 41 4 82 9 93 8 17 6 18 -31
11 -54 -9 -120 10 -154 44 -69 70 -67 261 4 396 28 52 27 57 -6 61 -44 4 -72
28 -98 81 -21 41 -24 62 -23 148 0 91 3 107 32 168 17 37 35 67 39 67 4 0 23
-4 41 -9 56 -16 143 26 142 68 -1 12 -7 9 -24 -11 -13 -14 -40 -31 -60 -36
-47 -14 -110 17 -151 75 -28 40 -55 55 -55 33 0 -34 -66 -174 -93 -200 -63
-58 -138 -45 -179 32 -21 39 -23 57 -25 203 -1 123 -5 161 -15 163 -7 1 -44
-25 -83 -58 -172 -149 -272 -145 -235 10 11 45 71 153 104 186 21 21 39 72 32
96 -3 13 -24 45 -47 73 -114 138 -136 302 -62 467 l26 58 1696 2 c933 2 1719
2 1746 1 43 -1 49 -4 45 -20z m2450 -857 l0 -879 -41 7 c-111 18 -189 101
-189 201 0 52 -16 59 -53 24 -29 -27 -65 -41 -88 -34 -41 13 -36 102 10 169
33 50 41 70 33 83 -4 6 -35 34 -70 62 -76 63 -122 132 -122 183 0 31 4 37 30
47 34 11 53 50 44 87 -4 14 -22 48 -41 76 -19 27 -33 51 -31 52 2 1 17 8 34
15 42 17 110 80 123 114 16 41 14 76 -9 142 -11 31 -17 61 -14 66 3 5 29 16
59 24 77 23 105 48 105 94 0 29 -7 45 -30 67 -16 16 -30 33 -30 37 0 4 16 22
36 39 43 38 72 93 80 152 7 51 8 51 101 51 l63 0 0 -879z m-190 851 c0 -55
-32 -117 -86 -166 l-53 -49 39 -35 c32 -28 40 -41 40 -69 0 -31 -4 -37 -37
-51 -21 -8 -51 -18 -68 -22 -61 -13 -68 -37 -34 -125 25 -67 19 -107 -24 -157
-17 -20 -57 -48 -88 -63 -63 -30 -64 -31 -6 -108 41 -54 51 -97 26 -113 -21
-13 -97 -11 -157 5 -67 18 -72 9 -43 -69 25 -65 26 -98 7 -115 -24 -19 -96 20
-142 75 -73 90 -65 86 -153 79 -48 -4 -91 -2 -109 4 -42 15 -51 1 -59 -94 -10
-127 -38 -174 -102 -174 -45 0 -96 34 -159 105 -25 29 -47 45 -56 42 -8 -3
-19 -31 -26 -64 -24 -119 -35 -156 -53 -167 -25 -16 -66 10 -95 59 -20 34 -22
50 -18 106 l5 66 -44 -1 c-57 -1 -85 23 -85 75 0 21 5 41 10 44 23 14 -4 23
-54 18 -44 -5 -63 -1 -112 21 -85 38 -92 55 -47 103 53 55 143 197 143 224 0
16 -26 -16 -82 -101 -61 -91 -91 -128 -111 -135 -37 -12 -58 2 -76 52 -13 35
-12 46 1 87 8 25 12 48 9 51 -4 2 -27 -12 -50 -31 -47 -37 -60 -41 -79 -22
-25 25 -4 87 47 141 24 26 27 38 32 130 3 56 9 110 13 120 5 10 4 17 -3 17 -6
0 -17 -15 -25 -34 -20 -48 -76 -67 -115 -39 -42 32 -43 126 -1 171 30 32 15
47 -61 61 -95 19 -120 54 -103 140 l7 31 1118 0 1119 0 0 -23z m-7172 -1382
c3 -2 -24 -31 -188 -199 l-115 -117 -3 157 c-1 90 1 160 7 163 9 6 293 2 299
-4z m310 -10 c3 -2 -215 -274 -227 -285 -4 -3 -22 -25 -41 -50 -19 -25 -43
-54 -53 -65 -11 -11 -78 -93 -150 -182 -72 -90 -135 -163 -139 -163 -4 0 -8
92 -8 206 l0 205 79 82 c174 180 241 252 241 259 0 6 290 -1 298 -7z m310 -10
c2 -2 -39 -58 -90 -125 -51 -67 -102 -134 -113 -149 -11 -15 -67 -90 -125
-167 -58 -76 -112 -149 -120 -160 -20 -29 -237 -316 -248 -330 -5 -6 -44 -57
-87 -115 -84 -113 -95 -123 -125 -114 -19 6 -20 16 -20 195 l0 189 78 93 c42
51 104 127 137 167 155 190 311 383 368 454 l62 79 140 -7 c77 -4 141 -8 143
-10z m322 -1 c0 -6 -63 -100 -179 -269 -114 -165 -198 -287 -297 -435 -32 -47
-61 -87 -65 -90 -3 -3 -28 -39 -54 -80 -27 -41 -51 -77 -55 -80 -3 -3 -37 -52
-74 -110 -38 -58 -70 -107 -72 -109 -4 -5 -150 -1 -277 8 l-97 6 400 535 c220
294 417 557 437 583 l36 48 148 -2 c82 -1 149 -3 149 -5z m310 -10 c0 -7 -25
-49 -85 -144 -23 -36 -147 -234 -275 -440 -128 -206 -251 -404 -275 -440 -23
-36 -54 -86 -69 -112 -28 -48 -28 -48 -80 -48 -29 0 -108 3 -174 7 -108 5
-122 8 -122 24 0 10 4 20 9 24 6 3 32 38 59 78 129 191 177 263 185 272 4 6
70 102 146 215 183 269 283 415 301 440 8 11 31 45 50 75 l35 55 148 0 c81 0
147 -3 147 -6z m310 -10 c2 -3 0 -8 -6 -12 -6 -4 -27 -36 -46 -72 -20 -36 -64
-112 -98 -170 -34 -58 -69 -118 -78 -134 -10 -15 -47 -78 -83 -140 -36 -61
-101 -172 -144 -246 -44 -74 -108 -185 -145 -247 -36 -61 -73 -125 -82 -142
l-17 -30 -153 6 c-84 3 -157 9 -161 13 -5 4 17 48 48 96 31 49 187 298 346
554 160 256 300 481 313 500 l23 36 139 -4 c76 -2 141 -6 144 -8z m50 -61 c13
-27 31 -68 42 -93 20 -45 94 -206 174 -378 24 -51 44 -95 44 -97 0 -3 20 -46
44 -97 24 -51 58 -124 76 -163 18 -38 61 -133 97 -210 91 -196 93 -201 93
-217 0 -10 -24 -12 -119 -10 l-118 3 -38 92 c-20 51 -45 112 -55 137 -31 77
-106 259 -165 400 -31 74 -70 168 -86 208 -16 39 -37 91 -47 115 -11 23 -32
75 -47 115 l-28 72 28 53 c44 83 66 117 75 117 4 0 18 -21 30 -47z m-122 -200
c92 -218 327 -785 369 -893 19 -47 44 -108 58 -135 13 -28 26 -62 29 -75 3
-14 10 -236 16 -495 15 -670 30 -1245 33 -1258 1 -6 -25 -18 -58 -27 -84 -23
-123 -42 -178 -84 -52 -40 -59 -43 -51 -22 11 29 -27 1650 -40 1677 -12 28
-55 39 -184 49 -69 6 -176 16 -236 24 -61 8 -164 20 -229 26 -116 12 -119 12
-140 -9 l-22 -22 0 -874 c0 -481 -3 -875 -6 -875 -4 0 -9 16 -12 35 -8 49 -43
95 -72 95 -13 0 -27 -4 -30 -10 -3 -5 -10 -10 -14 -10 -5 0 -12 134 -15 298
-3 163 -8 358 -11 432 -2 74 -8 336 -11 583 l-7 447 41 0 c23 0 46 6 52 13 12
13 305 507 450 757 8 15 146 248 204 347 17 29 34 53 37 53 4 0 16 -21 27 -47z
m5390 -203 c49 -24 87 -25 126 -5 37 19 41 15 26 -29 -6 -20 -12 -74 -12 -120
-1 -73 3 -93 26 -140 35 -72 76 -106 125 -106 37 0 39 -1 45 -41 8 -50 53
-117 106 -160 l40 -32 0 -598 c0 -328 -3 -599 -8 -601 -4 -1 -29 -33 -54 -69
-26 -37 -151 -167 -278 -290 -227 -220 -313 -319 -398 -459 -60 -99 -82 -174
-82 -278 0 -78 6 -106 46 -233 70 -217 85 -293 82 -418 l-3 -106 -262 -3
c-304 -3 -280 -13 -268 117 9 112 23 191 57 325 16 66 32 156 35 200 9 142
-38 341 -110 460 -29 49 -42 66 -156 205 -68 84 -99 154 -107 239 -8 85 6 174
61 392 59 234 69 320 55 446 -19 175 -66 312 -166 481 -10 18 -22 33 -26 33
-5 0 -8 6 -8 14 0 7 -7 19 -15 26 -24 20 -18 25 35 27 93 4 146 63 121 135
-13 36 -13 35 14 40 15 2 36 -20 92 -102 76 -111 125 -212 154 -320 9 -36 29
-108 43 -161 74 -280 90 -399 90 -694 0 -205 -4 -278 -22 -406 -24 -171 -27
-229 -12 -229 11 0 15 24 35 200 12 115 19 144 46 194 57 110 92 143 324 311
143 105 248 204 292 279 31 52 37 72 41 138 6 108 -17 167 -119 298 -134 172
-149 204 -174 375 -9 60 -18 112 -21 116 -2 4 -11 63 -20 131 -13 104 -34 184
-69 271 -6 15 0 17 59 17 62 0 67 2 105 38 26 25 42 50 46 75 4 20 10 37 14
37 4 0 26 -9 49 -20z m-2607 -43 c27 -21 75 -104 107 -185 64 -164 85 -217
123 -325 84 -236 161 -476 203 -634 25 -92 65 -297 60 -302 -2 -3 -12 6 -21
19 -23 33 -82 92 -117 116 -27 20 -28 23 -18 54 17 46 15 92 -5 142 -18 47
-94 132 -153 173 -30 20 -41 37 -49 73 -26 103 -114 368 -129 385 -21 23 -44
21 -69 -5 -18 -21 -77 -160 -120 -285 -16 -49 -20 -52 -63 -63 -121 -30 -190
-98 -190 -186 0 -38 19 -91 41 -115 62 -67 60 -60 40 -105 l-18 -40 -101 -3
-100 -2 40 113 c59 166 89 250 99 273 5 11 27 67 50 125 23 58 51 128 64 155
12 28 48 113 80 190 32 77 77 187 101 243 24 57 44 109 44 116 0 22 51 86 68
86 9 0 24 -6 33 -13z m-1272 -42 c32 -16 43 -40 66 -140 9 -38 30 -113 45
-165 30 -100 140 -524 140 -539 0 -5 -28 5 -62 22 -42 20 -83 32 -120 35 l-58
4 -10 42 c-6 22 -17 61 -25 86 -7 25 -16 59 -20 77 -15 76 -81 110 -109 56
-20 -41 -109 -273 -135 -355 -9 -26 -25 -45 -59 -67 -68 -44 -127 -105 -153
-159 -31 -63 -31 -152 -1 -213 21 -41 21 -45 5 -56 -9 -7 -23 -13 -30 -13 -20
0 -105 -45 -131 -70 -13 -12 -26 -19 -29 -16 -15 15 156 539 224 686 14 30 39
89 55 130 16 41 41 100 55 130 14 30 32 72 41 94 25 62 166 334 185 356 9 11
17 22 17 25 0 11 62 63 78 65 2 0 16 -7 31 -15z m3598 -102 c12 -37 28 -86 35
-108 8 -25 13 -94 13 -185 0 -128 -4 -157 -28 -242 -33 -119 -84 -238 -142
-338 -61 -104 -112 -219 -140 -314 -25 -88 -23 -89 -45 29 -17 89 -76 322
-106 417 -34 107 -68 175 -150 293 l-65 96 44 42 c57 55 74 112 60 200 -6 34
-10 63 -8 65 1 1 22 -2 46 -7 66 -15 137 3 158 40 15 27 21 29 74 29 68 0 126
25 159 70 l22 30 25 -25 c15 -13 36 -54 48 -92z m-2340 -351 c6 -4 25 -48 41
-97 95 -295 99 -318 45 -280 -29 21 -137 45 -202 45 -61 0 -61 -6 -18 115 73
205 96 242 134 217z m2437 -109 c17 -169 62 -273 171 -395 35 -40 76 -97 92
-128 25 -49 28 -66 28 -150 0 -90 -2 -98 -32 -145 -43 -68 -151 -177 -223
-225 -85 -58 -281 -209 -308 -239 -19 -20 -47 -58 -62 -85 l-29 -49 -3 244
c-2 134 0 273 4 309 12 100 53 209 156 410 101 197 156 340 174 457 6 40 15
70 19 68 3 -3 10 -35 13 -72z m-3776 24 c10 -21 43 -132 56 -189 3 -14 8 -33
12 -41 4 -10 -4 -16 -28 -21 -19 -3 -78 -28 -131 -55 -60 -30 -97 -44 -97 -36
0 7 18 58 40 114 22 55 40 105 40 110 0 12 50 123 62 138 13 16 33 7 46 -20z
m2581 -47 c26 0 56 7 68 15 18 13 22 12 39 -6 11 -12 40 -32 65 -45 59 -29 98
-76 154 -185 92 -179 142 -385 131 -544 -7 -98 -15 -141 -69 -346 -49 -187
-63 -323 -42 -414 17 -75 51 -145 93 -190 155 -169 215 -281 254 -468 27 -134
21 -228 -27 -417 -30 -119 -38 -169 -42 -282 l-6 -138 -147 0 c-135 0 -289 13
-645 56 -71 8 -138 17 -147 20 -21 6 -24 24 -5 24 7 0 21 14 31 31 28 48 80
93 196 171 280 189 359 286 383 469 19 144 -9 226 -135 395 -101 137 -111 162
-116 310 -3 96 1 153 22 280 66 413 57 685 -29 859 -35 71 -129 199 -153 209
-12 5 40 -69 59 -84 20 -16 93 -155 109 -208 49 -159 51 -418 4 -717 -32 -208
-41 -378 -24 -454 15 -63 50 -128 120 -217 111 -141 134 -203 128 -339 -3 -83
-8 -101 -41 -166 -20 -41 -50 -88 -65 -105 -53 -57 -157 -140 -263 -209 -100
-65 -176 -132 -211 -185 l-17 -25 0 25 c-1 14 5 50 13 80 7 30 17 73 20 95 4
22 20 94 36 160 70 298 84 426 77 738 -5 237 -20 397 -48 507 -40 159 -147
483 -201 605 -21 49 -46 108 -55 130 -9 22 -36 73 -60 113 -24 41 -43 78 -43
83 0 5 13 9 28 9 15 0 46 12 69 27 90 58 113 166 54 254 l-30 43 22 15 c12 8
25 19 29 25 8 13 10 11 32 -40 51 -118 185 -171 241 -96 16 22 20 42 20 108
l0 81 39 -29 c29 -21 50 -28 85 -28z m-2063 -47 c30 -90 93 -140 143 -114 24
13 55 70 66 119 6 29 25 46 25 22 0 -19 61 -78 106 -101 24 -13 44 -27 44 -32
0 -4 -36 -105 -80 -223 -45 -119 -83 -229 -87 -245 -3 -16 -10 -33 -17 -37 -6
-5 -61 -12 -122 -15 l-112 -5 -31 136 c-18 75 -47 200 -66 278 -19 78 -35 146
-35 153 0 6 15 11 33 11 37 0 51 13 81 73 11 20 22 37 26 37 4 0 15 -26 26
-57z m-3372 7 c121 -6 320 -15 441 -21 121 -6 246 -12 278 -12 36 0 57 -5 57
-12 0 -6 -17 -40 -39 -76 l-39 -64 -58 -6 c-33 -4 -274 -7 -536 -8 l-478 -2 0
106 0 105 76 0 c42 0 176 -5 298 -10z m600 -562 c4 -194 11 -596 17 -893 8
-388 8 -562 0 -617 -6 -43 -8 -106 -4 -140 l6 -63 -57 52 c-32 28 -87 65 -122
83 -59 29 -70 31 -153 28 -49 -1 -93 1 -97 5 -15 15 -23 108 -24 277 0 96 -7
416 -15 710 -8 294 -15 617 -15 717 l0 182 148 4 c81 1 184 4 228 5 l82 2 6
-352z m2466 335 c99 -32 150 -114 115 -184 -33 -65 -98 -106 -278 -180 -72
-29 -224 -119 -238 -141 -3 -5 -22 -13 -42 -18 -137 -30 -213 183 -108 304 51
59 248 180 358 220 52 20 130 19 193 -1z m1159 -12 c140 -56 281 -196 281
-278 0 -74 -60 -131 -127 -120 -18 3 -70 28 -116 55 -107 65 -152 80 -268 90
-104 10 -133 23 -163 75 -46 81 11 166 131 197 62 15 201 5 262 -19z m-4105
-243 c4 -145 11 -452 16 -683 5 -231 12 -510 15 -620 l5 -200 -32 65 c-82 165
-234 251 -420 237 l-78 -6 0 734 0 735 244 0 244 0 6 -262z m4656 192 c39 -21
149 -221 205 -375 10 -27 22 -54 25 -60 17 -24 154 -455 174 -548 50 -226 68
-542 45 -800 -9 -104 -43 -314 -51 -322 -2 -2 -48 -8 -103 -14 -55 -6 -121
-13 -146 -17 l-46 -6 -6 348 c-8 396 -29 784 -51 924 -41 256 -90 519 -121
643 -19 76 -35 145 -35 155 0 9 13 23 31 31 16 7 36 22 42 32 14 22 13 22 37
9z m-3605 -49 c72 -11 171 -22 220 -26 211 -14 198 -1 206 -218 24 -644 29
-812 33 -1142 l4 -370 -58 -88 c-32 -48 -61 -83 -64 -78 -4 6 -6 27 -5 48 2
21 -1 413 -6 870 -7 776 -9 834 -26 848 -11 11 -44 18 -92 22 l-74 6 -6 -34
c-10 -65 -8 -1759 3 -1759 7 0 10 297 10 891 l0 892 59 -6 c106 -9 98 16 105
-319 8 -417 18 -1518 13 -1518 -2 0 -18 7 -36 16 -44 22 -140 34 -222 27 l-69
-6 0 897 c0 624 -3 903 -11 918 -23 42 -125 63 -157 31 -15 -15 -18 -56 -23
-357 -3 -188 -4 -564 -2 -838 l3 -496 -40 5 c-36 5 -43 2 -79 -34 l-39 -39 -7
116 c-9 156 -13 1448 -6 1616 5 102 10 138 21 145 20 14 183 4 345 -20z m2090
-197 c14 -54 24 -99 22 -100 -8 -7 -186 -14 -189 -7 -3 4 -8 24 -12 44 -6 33
-4 37 33 57 44 25 111 88 111 105 0 28 13 -10 35 -99z m-2134 77 l24 -19 0
-902 0 -902 -62 -23 c-35 -12 -70 -28 -78 -35 -23 -19 -29 -6 -15 34 14 45 15
137 1 145 -8 5 -11 238 -11 833 0 454 2 833 5 842 3 9 7 23 10 31 7 23 96 20
126 -4z m2886 -91 c50 0 138 -23 156 -40 5 -4 -62 -11 -148 -15 -86 -4 -158
-5 -161 -2 -3 3 1 21 10 40 14 34 15 35 53 26 21 -5 61 -9 90 -9z m-944 -62
c2 -18 4 -33 3 -34 0 -1 -44 -4 -96 -7 l-95 -5 80 39 c44 21 85 39 91 39 7 0
14 -15 17 -32z m1247 -58 c46 -24 80 -25 143 -6 45 13 46 13 83 -18 129 -105
196 -241 229 -461 18 -126 42 -520 51 -866 l7 -235 -29 -21 c-17 -12 -56 -33
-88 -47 -49 -22 -73 -26 -150 -26 -85 0 -179 19 -190 38 -2 4 5 56 15 116 15
90 22 111 41 125 92 63 173 174 214 292 70 199 24 581 -90 749 -50 73 -77 100
-152 150 -95 62 -141 74 -262 67 -108 -6 -147 -19 -217 -72 -26 -20 -49 -35
-51 -32 -2 2 15 60 38 130 l42 126 55 4 c31 2 105 4 164 5 91 2 114 -1 147
-18z m-400 -2 c0 -21 -63 -233 -81 -273 -11 -22 -35 -67 -54 -100 -42 -72 -71
-161 -81 -247 -4 -34 -11 -69 -17 -75 -6 -9 -38 -13 -91 -13 l-81 0 -13 68
c-7 37 -32 105 -55 152 -39 80 -77 126 -216 256 -14 13 -84 195 -77 201 3 3
408 25 651 36 39 2 80 4 93 5 12 1 22 -3 22 -10z m-792 -41 c14 -17 65 -157
59 -163 -3 -3 -24 5 -47 17 -52 28 -170 37 -226 19 -137 -45 -278 -191 -348
-360 -93 -227 -67 -557 61 -758 40 -64 116 -141 163 -168 19 -10 37 -22 40
-25 3 -3 22 -12 43 -18 20 -7 37 -18 37 -25 0 -42 -209 -181 -326 -216 -21 -6
-68 -21 -104 -31 -37 -11 -114 -22 -177 -26 l-112 -6 -5 24 c-3 13 -10 239
-16 502 -15 632 -4 847 46 953 31 67 102 136 171 171 56 27 73 29 216 23 53
-2 61 1 121 44 l64 45 123 4 c68 1 143 4 165 5 24 1 46 -3 52 -11z m1183 -172
c83 -41 137 -83 178 -138 80 -106 127 -270 137 -472 7 -145 -9 -236 -61 -341
-57 -117 -156 -213 -141 -136 13 66 27 241 29 373 2 128 0 148 -18 178 -34 57
-75 73 -182 69 l-91 -4 -6 34 c-8 54 -51 117 -92 137 -79 37 -152 -18 -163
-124 l-6 -56 -72 -3 -73 -3 0 37 c0 92 57 244 123 328 82 105 165 143 316 145
59 1 83 -4 122 -24z m-1166 -39 c127 -63 244 -196 290 -331 25 -74 35 -169 35
-336 0 -138 -3 -167 -25 -244 -32 -111 -46 -137 -109 -203 -56 -60 -119 -94
-212 -113 -50 -10 -72 -9 -139 5 -44 9 -103 28 -131 41 -53 26 -184 147 -184
170 0 8 -4 15 -8 17 -14 5 -69 149 -81 208 -5 30 -13 105 -16 165 -15 259 87
483 279 610 74 49 94 55 162 52 48 -2 79 -12 139 -41z m4121 -769 c-148 -223
-212 -526 -176 -835 5 -45 10 -155 11 -245 l1 -162 -143 -17 c-79 -9 -187 -17
-239 -17 l-95 -1 3 92 c5 122 -10 202 -72 383 -50 149 -51 151 -51 275 l0 125
42 85 c59 119 181 275 314 405 293 285 388 385 424 444 7 11 11 -61 13 -232
l2 -248 -34 -52z m-3213 474 c27 -11 84 -112 72 -130 -3 -7 -45 -11 -101 -11
l-94 0 0 35 c0 85 55 132 123 106z m284 -192 c36 -13 43 -25 43 -73 0 -105
-62 -244 -181 -402 -131 -174 -177 -204 -262 -166 -39 18 -75 52 -138 131 -14
19 -59 97 -99 175 -65 123 -74 148 -75 195 0 49 3 56 35 82 19 16 51 34 70 39
29 8 240 19 532 28 26 1 59 -3 75 -9z m-718 -26 c-27 -7 -52 -76 -47 -130 5
-52 55 -165 118 -269 22 -36 40 -68 40 -70 0 -10 48 -72 94 -121 78 -83 156
-110 230 -79 34 14 110 85 155 146 14 19 31 40 37 47 20 21 134 210 134 221 0
6 5 14 11 18 28 17 -38 -498 -90 -706 -41 -160 -96 -297 -131 -327 -35 -30
-126 -65 -207 -79 -111 -21 -374 -23 -458 -5 -135 30 -238 107 -294 222 -37
77 -39 99 -8 99 41 0 67 12 67 30 0 23 -30 29 -85 17 -53 -11 -116 -52 -145
-94 -21 -31 -22 -36 -8 -49 14 -14 19 -12 50 22 38 39 52 39 62 -1 17 -68 127
-210 177 -227 31 -11 -7 -23 -87 -27 -148 -6 -249 45 -273 137 -24 87 19 174
135 278 169 151 250 234 277 286 16 29 41 71 57 93 63 86 109 318 95 477 -3
43 -4 82 0 88 3 5 30 9 58 9 29 -1 45 -3 36 -6z m-3736 -284 c129 -43 220
-147 256 -294 30 -117 34 -120 153 -116 60 2 87 -2 124 -18 60 -27 141 -85
178 -127 15 -19 32 -31 37 -29 4 3 7 58 6 123 -2 102 1 123 20 165 24 51 48
61 75 30 15 -17 55 -168 60 -227 4 -37 25 -45 37 -14 30 78 123 115 157 63 21
-32 15 -122 -12 -177 -10 -21 -15 -41 -11 -44 3 -4 29 8 56 25 60 39 89 47
203 60 101 12 181 2 240 -29 l39 -20 27 46 c88 150 135 205 220 260 66 43 189
74 295 74 l77 0 0 -47 c2 -105 20 -636 26 -750 l7 -123 -75 0 c-83 0 -192 -18
-338 -56 -196 -52 -285 -64 -466 -64 -145 0 -334 16 -416 35 -206 47 -804 47
-1181 -1 l-47 -6 2 633 3 633 25 7 c53 15 160 9 223 -12z m7413 -796 c-2 -2
-43 0 -92 4 l-89 8 1 180 c0 154 3 192 23 264 32 122 66 207 114 286 l42 69 3
-403 c1 -222 0 -406 -2 -408z m-3956 396 c0 -14 -122 -133 -221 -215 -94 -79
-146 -141 -170 -205 -33 -87 -20 -150 46 -212 57 -54 131 -71 275 -62 92 6
126 4 161 -8 24 -8 70 -18 101 -22 32 -4 56 -11 53 -15 -7 -11 -130 -38 -227
-50 -88 -11 -226 -1 -313 21 -61 16 -157 85 -196 142 -31 45 -34 56 -34 121 0
50 6 82 19 109 25 51 107 140 175 190 61 45 93 71 127 104 13 13 49 32 81 44
32 12 72 32 88 45 35 27 35 27 35 13z m-276 -88 l60 -6 -105 -80 c-127 -97
-161 -133 -199 -209 -51 -100 -39 -200 32 -281 83 -95 170 -132 348 -149 88
-9 232 8 370 43 72 18 155 31 220 35 191 10 347 52 409 109 53 50 94 139 136
301 14 55 28 103 31 108 3 4 15 1 27 -6 36 -24 126 -34 215 -26 66 6 96 14
154 44 l71 37 -6 -615 -5 -615 -45 -43 c-68 -66 -90 -116 -95 -223 -5 -112 16
-176 84 -253 l47 -54 -6 -156 c-7 -179 -31 -293 -75 -357 -20 -29 -47 -50
-102 -77 -41 -21 -86 -38 -99 -38 -23 0 -23 2 -17 49 4 27 6 208 6 403 0 394
-5 441 -63 563 -68 140 -190 240 -346 280 -128 34 -251 45 -484 45 -244 0
-390 -13 -514 -45 -116 -30 -156 -51 -226 -115 -112 -102 -169 -224 -217 -460
-39 -198 -48 -260 -59 -440 -19 -283 -24 -340 -28 -340 -2 0 -36 17 -76 37
-90 46 -163 119 -204 202 l-31 64 53 54 c30 29 66 79 80 110 61 127 59 355 -4
493 -25 55 -103 136 -148 152 -18 7 -34 19 -35 28 0 8 -2 22 -2 30 -1 8 17 34
41 58 23 23 54 68 70 100 25 50 28 68 28 152 0 83 -3 101 -26 145 -15 29 -45
64 -71 84 l-45 34 -7 111 c-3 61 -9 183 -12 272 l-7 161 104 6 c94 5 244 36
322 66 102 39 238 127 297 193 27 29 43 31 154 19z m2106 -218 c0 -5 -11 -53
-24 -108 -13 -55 -36 -157 -52 -228 -24 -109 -30 -126 -45 -122 -10 3 -20 1
-24 -5 -16 -26 137 -59 365 -79 63 -6 189 -17 280 -26 189 -17 601 -19 965 -5
213 8 419 29 600 60 33 5 61 10 63 10 1 0 2 -37 2 -83 l0 -83 -192 -29 c-490
-72 -767 -96 -1198 -102 -229 -4 -399 -2 -480 6 -69 6 -210 18 -315 26 -104 9
-195 17 -202 20 -26 9 -34 111 -31 415 l3 305 95 17 c103 17 190 22 190 11z
m2127 -117 c7 -6 3 -350 -4 -356 -9 -8 -152 -34 -157 -29 -2 2 -6 93 -9 202
l-5 199 87 -7 c47 -4 87 -8 88 -9z m-5026 -565 c96 -102 91 -298 -11 -414 -17
-20 -36 -35 -40 -32 -14 9 -13 485 1 485 7 0 29 -18 50 -39z m5029 -274 l0
-264 -67 -12 c-38 -6 -147 -20 -243 -30 -96 -11 -197 -22 -225 -25 -27 -3
-194 -9 -370 -12 -306 -6 -593 3 -820 26 -49 5 -189 19 -310 31 -121 11 -225
22 -231 24 -6 2 -27 68 -46 147 -20 78 -46 177 -57 218 -11 41 -18 76 -16 78
3 4 79 -3 495 -39 169 -15 639 -15 825 1 176 14 434 42 730 80 300 38 287 37
313 39 l22 1 0 -263z m-7338 76 c33 -31 53 -106 43 -165 -6 -37 -21 -83 -50
-150 -7 -17 2 -18 102 -18 96 0 116 -3 154 -23 24 -13 50 -34 57 -48 19 -34 8
-116 -19 -145 -11 -12 -19 -27 -16 -31 4 -5 44 -7 91 -5 143 7 238 -37 222
-104 -11 -43 -56 -56 -233 -66 -160 -8 -213 -18 -213 -37 0 -6 6 -14 14 -18
17 -11 36 -47 36 -71 0 -30 -35 -68 -87 -92 -78 -37 -289 -39 -415 -4 -17 5
-18 35 -18 449 l0 444 33 24 c41 31 133 78 172 88 46 11 97 -1 127 -28z m4947
-93 c11 -47 38 -152 60 -235 94 -358 131 -506 131 -518 0 -15 -216 -69 -234
-59 -5 3 -5 163 0 386 4 210 7 401 6 426 -1 45 6 96 13 89 2 -2 12 -42 24 -89z
m-1064 -10 c258 -15 381 -58 495 -172 66 -65 110 -147 137 -254 15 -60 17
-123 18 -476 0 -259 -4 -411 -10 -417 -30 -29 -306 -71 -670 -101 -242 -20
-946 -7 -1122 21 l-73 12 0 46 c0 134 32 540 50 631 47 248 61 300 115 413 32
66 107 154 169 196 136 93 441 127 891 101z m-1672 -567 c4 -169 3 -223 -6
-223 -19 0 -188 57 -197 66 -5 5 2 45 15 89 13 44 42 143 64 220 54 183 87
293 97 330 9 35 19 -132 27 -482z m2643 330 c-3 -43 -5 -152 -6 -242 l0 -164
-26 24 c-99 92 -111 297 -24 417 48 67 62 58 56 -35z m372 -38 c3 -3 -16 -287
-26 -400 l-7 -70 -62 243 -61 243 76 -7 c43 -4 78 -8 80 -9z m2112 -150 c0
-134 -3 -165 -14 -165 -7 0 -69 18 -137 40 -68 22 -142 40 -165 40 -35 0 -43
4 -54 28 -8 17 -14 22 -18 13 -5 -15 30 -84 62 -120 42 -47 173 -125 270 -162
l56 -20 0 -80 c0 -43 -1 -82 -2 -86 -5 -13 -46 -4 -138 29 -47 17 -121 35
-165 40 -50 6 -86 16 -97 26 -16 15 -17 45 -18 272 l-1 255 198 26 c109 15
204 27 211 28 9 1 12 -38 12 -164z m-5042 138 c82 -51 123 -111 157 -227 25
-85 17 -279 -14 -358 -27 -65 -114 -169 -129 -153 -20 21 -44 265 -49 508 -3
136 -3 247 0 247 4 0 19 -8 35 -17z m3062 -3 c16 -9 16 -78 0 -410 -6 -102
-10 -202 -10 -222 l0 -38 -49 0 c-47 0 -50 2 -59 33 -39 128 -39 125 -8 452 9
88 16 170 16 181 0 20 4 21 48 16 26 -2 54 -8 62 -12z m415 -35 c101 -8 308
-15 470 -15 l290 0 -7 -127 c-4 -71 -10 -181 -13 -245 -8 -131 -5 -128 -82
-102 -73 24 -112 43 -181 90 -85 58 -119 68 -218 61 -93 -7 -97 -4 -84 59 4
21 13 63 19 93 13 64 13 61 3 61 -5 0 -13 -21 -18 -47 l-9 -48 -50 3 c-91 6
-228 -40 -395 -132 -42 -24 -87 -45 -99 -49 l-22 -6 6 162 c3 89 8 186 11 216
l6 54 96 -7 c54 -3 178 -13 277 -21z m1127 -413 c4 -371 3 -414 -11 -420 -9
-3 -42 -21 -73 -39 -31 -18 -62 -33 -69 -33 -10 0 -11 94 -5 447 4 246 8 449
10 450 7 7 131 19 137 14 4 -3 9 -192 11 -419z m-173 -47 c-2 -250 -7 -455
-12 -455 -4 0 -45 20 -90 45 -46 25 -92 45 -101 45 -17 0 -18 7 -12 73 7 82
33 532 38 652 l3 80 40 6 c22 3 62 7 89 7 l49 2 -4 -455z m468 213 l143 -42 0
-68 c0 -37 -1 -68 -3 -68 -2 0 -30 11 -63 24 -118 49 -231 122 -259 169 -16
27 -16 27 12 27 15 0 92 -19 170 -42z m-5084 -214 c60 -20 110 -41 112 -48 1
-6 10 -60 19 -120 9 -59 27 -134 40 -166 25 -62 79 -147 105 -166 9 -7 29 -23
45 -37 35 -30 29 -57 -18 -87 -65 -40 -141 -17 -172 51 -28 63 -43 60 -82 -16
-38 -75 -135 -145 -182 -130 -28 9 -69 51 -75 78 -7 24 5 58 31 94 15 21 15
23 0 29 -10 4 -32 -4 -54 -20 -44 -30 -64 -32 -101 -10 -38 22 -52 49 -53 95
-1 49 18 71 89 103 31 15 53 31 53 40 0 24 -48 20 -98 -9 -51 -29 -69 -24 -78
20 -7 41 8 70 49 95 27 17 43 19 118 13 64 -4 88 -3 94 7 4 7 2 16 -5 20 -8 5
-10 18 -5 41 14 62 46 159 53 159 4 0 56 -16 115 -36z m3067 -104 c12 -52 28
-100 34 -107 6 -6 51 -13 99 -15 64 -3 92 -9 104 -21 20 -20 19 -82 -1 -102
-17 -17 -42 -19 -51 -5 -8 13 -72 40 -96 40 -12 0 -19 -7 -19 -19 0 -14 16
-27 54 -44 66 -31 91 -63 81 -109 -10 -47 -37 -68 -84 -68 -48 0 -78 11 -110
39 -46 40 -64 14 -32 -45 49 -91 0 -176 -87 -152 -45 13 -110 73 -129 121 -18
44 -43 48 -75 11 -58 -66 -137 -83 -199 -41 -33 22 -52 67 -28 67 19 0 111 48
141 73 58 50 105 194 117 362 l6 79 115 26 c82 19 118 23 126 16 6 -6 22 -54
34 -106z m-3457 -455 c32 -33 53 -46 85 -51 37 -6 42 -10 48 -38 6 -36 26 -63
71 -94 l31 -22 -15 -47 c-10 -34 -13 -72 -9 -130 8 -130 84 -272 176 -335 l25
-16 -27 -11 c-79 -30 -280 -64 -415 -68 -124 -5 -150 -3 -210 16 -85 25 -106
47 -113 114 l-5 52 -65 7 c-118 13 -184 52 -216 126 -21 51 -13 107 22 143 15
16 32 29 37 29 5 0 25 -14 44 -31 19 -16 40 -28 46 -26 24 8 18 38 -12 63 -60
50 -59 142 2 188 42 31 85 52 125 61 29 6 32 5 32 -18 0 -40 10 -57 36 -57 22
0 23 3 18 48 -5 43 -3 50 24 75 24 23 47 31 118 44 49 8 91 17 93 19 8 7 11 5
54 -41z m874 -67 l83 -32 -2 -175 -3 -175 -86 -57 c-112 -74 -265 -157 -356
-192 l-72 -28 -33 23 c-54 38 -87 79 -125 158 -31 63 -38 88 -41 157 -7 133
10 183 64 183 26 0 110 51 130 79 7 9 21 27 32 41 l21 25 22 -24 c27 -29 79
-51 121 -51 44 0 109 34 133 70 11 16 22 30 24 30 2 0 42 -14 88 -32z m1893
-25 c0 -67 -18 -534 -26 -676 l-6 -118 -299 1 c-183 1 -301 5 -305 11 -3 6 -3
176 1 378 l8 367 166 18 c155 16 293 36 386 55 75 16 75 16 75 -36z m-1360
-38 l233 -8 -7 -266 c-3 -146 -9 -319 -13 -384 l-6 -119 -136 7 c-75 4 -212
10 -306 14 l-170 6 4 380 c2 209 8 382 12 385 5 4 42 3 82 -1 40 -4 178 -10
307 -14z m4019 -720 c60 -29 109 -63 159 -109 l32 -30 0 -688 0 -688 -39 0
c-51 0 -330 28 -406 41 -72 12 -143 36 -167 57 -22 19 -24 98 -4 127 37 54 29
117 -18 143 -27 14 -76 18 -356 23 -258 5 -335 9 -373 22 -89 29 -107 64 -60
112 74 74 204 110 521 146 93 10 115 16 123 31 11 21 -3 48 -25 48 -17 0 -107
63 -143 101 -28 27 -33 40 -33 78 1 121 178 189 415 161 56 -7 101 -8 106 -3
5 5 -6 45 -27 93 -69 164 -39 303 77 355 49 23 150 13 218 -20z m-2961 -54
l273 -1 -6 -177 -7 -178 53 -55 c95 -98 109 -126 109 -216 0 -78 -22 -99 -140
-130 -52 -13 -101 -22 -107 -19 -9 3 -13 32 -13 95 0 97 -14 141 -50 160 -28
15 -38 -12 -17 -44 11 -16 16 -52 18 -120 1 -53 0 -99 -3 -101 -5 -6 -77 -13
-205 -20 l-103 -6 0 108 c0 89 4 115 20 146 25 45 25 57 3 57 -10 0 -30 -19
-45 -43 -23 -36 -27 -57 -34 -149 -4 -69 -11 -108 -18 -108 -6 0 -46 7 -89 15
-86 16 -131 36 -141 60 -24 63 26 210 97 285 56 59 57 67 63 251 3 96 7 179 9
186 2 7 16 10 32 8 15 -2 151 -4 301 -4z m-1005 -17 l158 -6 -6 -167 c-7 -183
-13 -160 61 -262 42 -59 64 -127 64 -200 0 -79 -21 -101 -110 -118 -36 -7 -72
-14 -81 -17 -14 -4 -17 9 -21 79 -8 121 -54 215 -90 179 -6 -6 -5 -19 6 -39
27 -53 39 -120 31 -178 l-7 -56 -171 3 -172 3 -3 69 c-3 79 17 158 51 194 16
17 18 25 9 34 -17 17 -40 2 -76 -52 -25 -37 -29 -54 -34 -137 l-5 -95 -46 7
c-25 3 -67 13 -93 22 -108 38 -98 144 30 342 l42 64 0 175 0 174 153 -6 c83
-3 223 -9 310 -12z"/>
<path d="M969 10160 c-107 -18 -159 -69 -189 -186 l-10 -41 -71 -6 c-76 -6
-129 -33 -148 -73 -19 -42 -24 -177 -8 -215 20 -48 89 -102 164 -127 63 -22
385 -52 560 -53 98 0 143 19 213 91 78 80 111 169 90 243 -21 77 -111 116
-191 83 -14 -6 -17 2 -21 51 -3 47 -11 68 -40 108 -39 54 -70 76 -139 99 -37
12 -161 39 -163 35 -1 -1 -22 -5 -47 -9z m148 -24 c78 -21 139 -53 168 -89 14
-18 30 -37 35 -44 16 -19 33 -111 26 -139 -6 -23 7 -34 19 -15 3 6 26 13 51
17 84 12 144 -39 144 -123 0 -72 -85 -191 -168 -238 -55 -31 -103 -33 -357
-16 -264 17 -344 32 -400 73 -87 64 -104 108 -87 216 10 58 16 71 47 98 36 32
77 44 152 44 41 0 42 1 48 38 9 54 34 107 62 134 58 54 159 71 260 44z"/>
<path d="M3651 10127 c-9 -24 -1 -91 18 -139 l10 -28 -72 6 c-91 8 -136 -8
-160 -59 -9 -19 -17 -42 -17 -51 0 -11 -9 -16 -29 -16 -56 0 -93 -13 -127 -45
-28 -27 -34 -40 -34 -73 0 -23 5 -52 11 -65 13 -28 50 -52 71 -44 8 3 4 9 -13
17 -45 21 -65 103 -35 142 31 41 94 53 169 32 14 -5 17 2 17 41 0 66 33 95
107 95 29 0 70 -7 90 -15 52 -22 59 -8 34 64 -25 74 -28 129 -5 138 41 16 133
-67 168 -151 9 -22 19 -37 22 -33 9 8 -31 91 -63 132 -53 68 -145 97 -162 52z"/>
<path d="M4670 10054 c0 -38 -10 -51 -43 -59 -16 -4 -31 -14 -34 -22 -10 -26
35 -102 76 -131 22 -15 40 -30 41 -34 0 -3 -20 -6 -45 -6 -86 0 -161 -55 -223
-165 -12 -21 -22 -40 -22 -41 0 -2 12 -7 27 -11 15 -3 55 -19 89 -36 94 -43
135 -40 207 16 l57 45 0 -59 c0 -71 9 -97 44 -133 26 -25 125 -83 131 -76 2 2
25 32 51 68 41 56 49 73 52 121 4 49 0 62 -22 95 -14 21 -26 42 -26 45 0 12
63 17 96 8 17 -5 48 -27 68 -50 21 -22 43 -38 49 -36 18 6 38 96 34 150 -8 89
-101 156 -204 145 -26 -3 -55 -9 -64 -12 -14 -6 -17 3 -22 56 -3 34 -10 64
-16 66 -6 2 -11 8 -11 14 0 16 -32 37 -57 38 -13 0 -23 -4 -23 -10 0 -5 -7
-10 -15 -10 -8 0 -15 4 -15 8 0 16 -52 33 -117 39 l-63 6 0 -29z m155 -14 c9
-7 21 -22 26 -32 9 -17 7 -18 -29 -12 -78 12 -108 -60 -53 -127 16 -19 46 -69
66 -110 43 -89 47 -93 78 -85 27 6 61 66 72 130 9 45 44 66 111 66 34 0 59 -8
89 -27 62 -39 79 -73 72 -143 -4 -31 -9 -65 -13 -74 -6 -16 -9 -16 -28 6 -47
53 -81 69 -146 67 -33 -1 -63 -6 -66 -10 -3 -5 9 -29 25 -53 45 -65 43 -125
-5 -197 -58 -85 -52 -83 -120 -40 -50 32 -65 47 -79 84 -14 38 -15 54 -6 97
14 64 14 60 -4 60 -9 0 -34 -17 -58 -39 -23 -21 -52 -43 -64 -50 -37 -19 -95
-12 -158 19 -33 17 -65 30 -72 30 -19 0 -17 5 21 63 43 68 72 93 125 112 56
19 101 19 129 -1 13 -9 26 -13 30 -9 4 4 -21 32 -56 64 -83 74 -126 141 -91
141 24 0 69 42 69 64 0 12 2 25 5 27 9 10 113 -7 130 -21z m118 -28 c40 -44
35 -240 -9 -306 -30 -46 -51 -33 -78 50 -9 28 -35 75 -56 104 -46 61 -51 95
-17 111 25 11 77 -3 77 -21 0 -5 4 -10 9 -10 5 0 9 15 9 34 0 19 3 39 7 45 10
17 40 13 58 -7z"/>
<path d="M5292 9338 c-46 -10 -122 -75 -122 -103 0 -25 -17 -17 -30 14 -16 40
-60 80 -95 86 -51 10 -81 -29 -60 -77 5 -13 3 -18 -8 -18 -24 0 -67 -40 -67
-63 1 -31 22 -55 53 -59 l27 -3 -30 -45 c-16 -25 -30 -52 -30 -61 0 -22 32
-49 59 -49 24 0 96 34 106 50 14 23 22 7 17 -39 -4 -43 -1 -53 21 -75 68 -68
217 -1 217 98 0 36 0 36 43 36 57 0 107 29 134 76 48 83 14 159 -92 212 -54
26 -92 32 -143 20z m121 -33 c93 -39 138 -115 103 -179 -21 -38 -77 -76 -113
-76 -61 0 -73 -9 -73 -54 0 -33 -6 -48 -28 -70 -58 -55 -140 -54 -168 3 -10
19 -9 33 2 70 23 76 19 78 -62 21 -33 -23 -69 -40 -85 -40 -88 0 4 143 100
155 25 4 53 7 61 8 8 1 17 16 21 34 14 70 66 128 130 143 39 10 61 7 112 -15z
m-333 -11 c31 -27 70 -91 70 -117 0 -16 -71 -30 -160 -31 -45 -1 -55 2 -58 17
-6 28 27 57 70 63 43 7 47 14 18 32 -19 12 -27 42 -13 55 13 14 42 6 73 -19z"/>
<path d="M4134 9191 c-18 -11 -39 -29 -47 -41 -15 -22 -17 -22 -57 -6 -55 22
-73 20 -109 -10 -26 -21 -31 -33 -31 -69 0 -70 -11 -104 -42 -133 -36 -33 -68
-93 -68 -125 0 -65 76 -94 150 -58 53 26 50 26 50 0 0 -24 14 -52 43 -85 15
-18 30 -24 53 -22 19 1 38 -5 48 -15 35 -34 112 -14 128 34 4 10 13 6 34 -15
51 -50 86 -53 138 -11 30 23 29 115 -2 148 l-23 25 34 21 c56 34 74 97 37 129
-27 23 -59 30 -91 21 -33 -9 -62 21 -69 71 -4 31 -9 35 -37 38 -37 4 -38 5
-21 31 8 13 9 29 2 52 -9 31 -14 34 -49 37 -26 1 -51 -4 -71 -17z m106 -33 c0
-18 -9 -48 -21 -67 -24 -40 -20 -48 14 -27 32 22 57 11 57 -25 0 -54 -88 -95
-215 -99 -14 0 -2 149 14 177 21 41 71 73 112 73 37 0 39 -1 39 -32z m-189
-49 c5 -8 7 -20 4 -27 -3 -8 -5 -37 -5 -66 0 -80 -11 -89 -90 -73 -64 12 -66
13 -59 37 4 14 7 44 8 68 1 61 29 86 88 79 25 -3 49 -11 54 -18z m279 -139 c8
-16 17 -19 33 -14 32 10 76 7 93 -7 33 -28 6 -76 -69 -123 l-29 -18 36 -33
c40 -36 46 -67 21 -114 -28 -56 -85 -47 -125 18 -14 23 -28 41 -32 41 -3 0 -9
-13 -13 -30 -12 -56 -75 -78 -111 -39 -13 15 -26 19 -45 15 -64 -13 -107 78
-80 171 17 57 78 98 137 91 25 -3 29 -8 32 -40 2 -20 -2 -47 -8 -58 -18 -33
-4 -35 23 -4 22 25 27 27 51 16 20 -9 26 -19 26 -42 0 -16 5 -30 10 -30 15 0
12 53 -4 75 -8 11 -26 18 -45 18 -29 0 -31 2 -31 39 0 21 5 38 11 38 5 0 27
11 47 25 45 30 58 31 72 5z m-313 -63 c1 -2 -11 -30 -28 -61 -48 -88 -123
-122 -169 -76 -24 24 -25 51 -6 89 19 37 39 52 79 60 27 6 114 -3 124 -12z"/>
<path d="M3335 9150 c-63 -26 -131 -166 -122 -253 8 -88 59 -117 163 -92 32 8
62 14 66 15 3 0 6 -60 5 -134 -2 -122 0 -137 19 -163 28 -37 70 -41 104 -11
28 26 40 44 72 105 12 23 25 40 28 38 4 -3 10 -26 14 -53 8 -65 49 -143 85
-165 64 -38 128 -11 188 78 31 48 38 54 44 37 4 -10 24 -33 45 -51 58 -47 116
-42 182 18 l33 30 32 -20 c50 -30 120 -21 157 20 32 36 37 32 65 -45 34 -92
78 -144 124 -144 65 0 103 72 107 205 1 50 3 91 3 92 1 2 16 -6 34 -15 81 -46
155 -26 208 55 26 41 30 55 27 99 -4 48 -3 52 24 62 27 10 46 37 35 49 -3 3
-18 -4 -33 -16 -15 -11 -37 -21 -50 -21 -28 0 -30 -8 -9 -36 20 -27 19 -56 -6
-107 -43 -88 -119 -110 -202 -57 -26 17 -50 30 -52 30 -2 0 -4 -51 -3 -113 0
-96 -3 -119 -20 -154 -32 -61 -63 -69 -107 -25 -28 27 -45 62 -79 155 -10 26
-21 47 -26 47 -4 0 -27 -18 -51 -40 -53 -49 -92 -53 -138 -14 l-31 26 -41 -36
c-86 -73 -155 -66 -206 22 l-27 45 -20 -26 c-12 -14 -36 -46 -54 -71 -18 -25
-46 -53 -63 -61 -28 -15 -33 -15 -66 2 -44 22 -70 69 -93 167 -9 38 -22 72
-27 73 -6 2 -30 -30 -53 -71 -40 -74 -79 -116 -106 -116 -7 0 -22 12 -31 27
-15 23 -18 47 -15 159 2 155 3 155 -100 128 -63 -16 -68 -16 -93 0 -51 34 -57
92 -20 193 19 50 36 78 68 105 44 40 45 42 12 28z"/>
<path d="M6916 9971 c-19 -21 -45 -85 -46 -114 0 -17 -2 -17 -22 -3 -34 24
-131 21 -185 -6 -56 -28 -93 -71 -93 -108 0 -42 23 -54 97 -52 74 3 103 -3
103 -23 0 -8 -18 -48 -40 -90 -46 -87 -50 -122 -17 -153 50 -47 121 -16 181
80 20 32 43 58 51 58 8 0 15 -4 15 -9 0 -5 18 -27 40 -50 34 -35 46 -41 81
-41 58 0 109 27 125 66 17 42 6 74 -35 105 -29 21 -42 49 -23 49 14 0 74 63
83 88 24 64 -29 103 -104 77 -56 -20 -58 -19 -41 13 18 35 18 57 -2 76 -21 21
-26 20 -57 -8 -28 -26 -37 -24 -37 10 0 55 -39 73 -74 35z m49 -13 c3 -7 6
-31 8 -52 3 -49 16 -54 42 -16 45 68 79 44 46 -32 -13 -29 -26 -66 -30 -83
-11 -43 -40 -95 -57 -102 -8 -3 -24 -3 -37 1 -42 10 -62 160 -32 233 25 59 50
80 60 51z m-117 -124 c12 -8 22 -24 22 -34 0 -40 24 -121 42 -140 10 -11 28
-20 40 -20 25 0 88 64 88 89 0 24 58 87 93 100 42 16 77 -1 77 -38 0 -31 -10
-45 -66 -87 -19 -15 -34 -32 -34 -39 0 -7 18 -28 40 -45 48 -38 53 -74 16
-109 -53 -49 -138 -34 -172 30 -17 33 -57 47 -80 28 -9 -7 -32 -38 -51 -69
-43 -67 -59 -79 -98 -80 -67 0 -72 47 -15 154 22 41 40 82 40 89 0 28 -33 42
-114 47 -72 4 -81 7 -84 26 -4 27 31 70 76 94 47 24 148 27 180 4z"/>
<path d="M3716 6428 c-71 -26 -116 -124 -116 -251 0 -124 31 -209 95 -266 54
-47 130 -42 178 13 81 92 87 293 13 420 -44 75 -109 107 -170 84z m113 -68
c53 -54 75 -137 69 -252 -6 -105 -30 -157 -86 -187 -78 -41 -167 71 -179 224
-7 92 15 171 61 219 47 50 83 49 135 -4z"/>
<path d="M4550 6251 c-119 -22 -190 -56 -190 -91 0 -11 12 -28 27 -37 23 -15
50 -18 173 -17 126 0 152 3 202 23 93 36 109 85 36 111 -43 15 -191 21 -248
11z m253 -34 c36 -24 26 -42 -39 -67 -115 -42 -333 -45 -374 -4 -13 14 -13 17
7 34 20 16 82 38 148 54 11 3 68 4 126 3 81 -2 111 -6 132 -20z"/>
<path d="M2800 1259 c-13 -6 -39 -21 -58 -36 -25 -19 -40 -23 -60 -19 -150 37
-243 18 -280 -57 -10 -22 -20 -27 -48 -27 -65 0 -154 -52 -154 -91 0 -25 28
-32 40 -9 23 43 114 62 190 39 12 -3 14 4 12 32 -4 52 31 82 106 87 63 4 128
-16 138 -43 9 -23 54 -20 54 4 0 25 63 77 101 85 62 12 99 -26 114 -117 9 -54
29 -42 33 19 3 56 -24 109 -68 131 -29 15 -85 16 -120 2z"/>
<path d="M6930 265 c0 -49 3 -86 6 -83 8 9 9 156 1 165 -4 3 -7 -33 -7 -82z"/>
<path d="M5566 333 c-10 -11 -7 -143 4 -143 6 0 10 23 10 50 0 28 3 50 8 50 4
0 16 -16 26 -35 11 -19 22 -35 25 -35 3 0 17 17 31 37 l25 37 3 -52 c2 -29 7
-52 13 -52 12 0 12 137 -1 145 -5 3 -22 -14 -37 -39 -15 -26 -30 -46 -34 -46
-3 0 -15 18 -28 40 -24 43 -35 53 -45 43z"/>
<path d="M6059 315 c-3 -26 -8 -30 -30 -27 -51 6 -79 -57 -41 -91 10 -10 32
-17 49 -17 l31 0 4 66 c3 70 -7 123 -13 69z m-7 -62 c8 -36 -3 -54 -31 -51
-26 3 -38 26 -27 54 8 20 54 18 58 -3z"/>
<path d="M6307 333 c-11 -10 -8 -141 2 -148 6 -3 11 19 13 52 l3 58 23 -37
c13 -21 27 -38 30 -38 4 0 18 17 32 38 l25 37 3 -58 c2 -33 7 -55 13 -52 12 8
12 142 0 149 -5 4 -22 -14 -38 -39 -15 -25 -30 -45 -33 -45 -3 1 -19 21 -36
45 -17 25 -33 42 -37 38z"/>
<path d="M6787 328 c-4 -10 -9 -24 -11 -32 -3 -8 -14 -12 -28 -9 -43 8 -69
-55 -38 -92 16 -19 79 -20 86 -2 8 22 0 154 -9 135z m-12 -77 c9 -28 -5 -51
-30 -51 -25 0 -39 23 -30 51 8 25 52 25 60 0z"/>
<path d="M5752 278 c-16 -16 -15 -66 2 -84 18 -17 58 -18 74 -2 7 7 12 26 12
43 0 38 -16 55 -50 55 -14 0 -31 -5 -38 -12z m67 -22 c18 -22 -3 -56 -34 -56
-21 0 -25 5 -25 28 0 16 3 32 7 35 11 12 40 8 52 -7z"/>
<path d="M5860 234 c0 -34 4 -53 10 -49 6 3 10 24 10 46 0 36 2 40 23 37 17
-2 23 -11 25 -38 5 -54 22 -61 22 -9 0 54 -13 69 -57 69 l-33 0 0 -56z"/>
<path d="M6107 283 c-15 -15 -5 -22 23 -16 19 3 30 1 30 -6 0 -6 -13 -14 -30
-17 -29 -6 -47 -34 -35 -54 4 -6 23 -10 43 -8 33 3 37 7 40 35 4 43 -13 73
-42 73 -12 0 -26 -3 -29 -7z m51 -65 c-5 -15 -48 -24 -48 -10 0 14 12 22 33
22 10 0 17 -5 15 -12z"/>
<path d="M6200 271 c0 -11 8 -36 17 -55 16 -34 16 -37 -3 -57 -18 -20 -18 -21
-1 -18 18 4 67 104 67 136 0 24 -18 4 -25 -27 -8 -39 -24 -38 -32 0 -7 36 -23
50 -23 21z"/>
<path d="M6497 283 c-14 -14 -6 -19 23 -15 40 6 38 -13 -2 -24 -61 -18 -46
-72 16 -60 29 6 36 11 36 31 0 44 -18 75 -43 75 -13 0 -27 -3 -30 -7z m51 -65
c-5 -15 -48 -24 -48 -10 0 14 12 22 33 22 10 0 17 -5 15 -12z"/>
<path d="M6590 233 c1 -44 3 -54 11 -41 5 10 9 24 8 30 -5 37 2 49 24 46 18
-2 23 -10 25 -46 4 -47 22 -48 22 -1 0 49 -16 69 -55 69 l-35 0 0 -57z"/>
<path d="M6837 283 c-15 -14 -6 -23 12 -13 14 7 22 7 27 -1 8 -13 -5 -26 -31
-31 -14 -2 -20 -11 -20 -28 0 -22 4 -25 38 -26 20 -1 38 4 38 10 4 41 -2 80
-13 87 -16 10 -42 11 -51 2z m51 -65 c-5 -15 -48 -24 -48 -10 0 14 12 22 33
22 10 0 17 -5 15 -12z"/>
<path d="M6987 283 c-14 -13 -6 -23 11 -15 18 10 42 5 42 -8 0 -5 -13 -11 -29
-15 -66 -14 -61 -67 5 -62 32 2 34 4 34 39 0 20 -3 43 -6 52 -6 16 -45 22 -57
9z m51 -65 c-5 -15 -58 -24 -58 -10 0 15 12 22 38 22 14 0 22 -5 20 -12z"/>
<path d="M7126 275 c-17 -18 -19 -28 -10 -62 7 -25 34 -37 64 -28 30 10 24 20
-12 20 -30 0 -33 3 -33 30 0 27 3 30 33 30 17 0 31 4 29 10 -6 17 -54 17 -71
0z"/>
<path d="M7236 274 c-34 -33 -9 -94 38 -94 31 0 46 18 46 55 0 17 -5 36 -12
43 -17 17 -54 15 -72 -4z m66 -21 c8 -36 -3 -54 -31 -51 -26 3 -38 26 -27 54
8 20 54 18 58 -3z"/>
<path d="M7343 240 c-1 -28 3 -53 8 -56 5 -3 9 15 9 40 0 42 2 46 25 46 23 0
25 -4 25 -40 0 -22 5 -40 10 -40 6 0 10 18 10 41 0 36 2 40 23 37 18 -2 23
-11 28 -48 4 -35 7 -41 14 -26 4 10 4 35 -1 55 l-9 36 -71 2 -71 2 0 -49z"/>
</g>
</svg>
