<?xml version="1.0" standalone="no"?>
<!DOCTYPE svg PUBLIC "-//W3C//DTD SVG 20010904//EN"
 "http://www.w3.org/TR/2001/REC-SVG-20010904/DTD/svg10.dtd">
<svg version="1.0" xmlns="http://www.w3.org/2000/svg"
 width="816.000000pt" height="1056.000000pt" viewBox="0 0 816.000000 1056.000000"
 preserveAspectRatio="xMidYMid meet">
<metadata>
Created by potrace 1.16, written by Peter Selinger 2001-2019
</metadata>
<g transform="translate(0.000000,1056.000000) scale(0.100000,-0.100000)"
fill="#000000" stroke="none">
<path d="M225 10318 c-3 -7 -4 -2283 -3 -5058 l3 -5045 2613 0 c1436 0 2612 3
2612 8 0 4 -809 7 -1798 7 -990 0 -1813 3 -1829 6 l-30 6 -8 96 c-10 120 -10
259 0 378 8 100 4 116 -61 205 -59 81 -65 113 -62 309 2 160 0 179 -19 221
-30 67 -73 94 -227 144 -75 24 -140 46 -145 49 -5 3 1 27 13 54 43 89 41 173
-5 213 -31 27 -88 25 -133 -6 -20 -14 -41 -25 -46 -25 -6 0 -10 25 -10 56 0
153 -127 198 -193 68 -22 -44 -42 -139 -46 -221 -1 -31 -24 -30 -112 8 -250
106 -300 122 -402 127 l-97 5 2 1321 3 1321 85 -5 c143 -8 309 -5 430 10 101
11 148 11 375 -4 647 -42 611 -41 700 -17 44 12 105 29 135 37 100 26 277 29
458 5 90 -12 165 -21 167 -21 1 0 6 -17 10 -37 9 -48 67 -168 102 -212 16 -19
60 -72 100 -117 l72 -82 20 -164 c10 -89 24 -222 30 -295 11 -138 29 -204 76
-274 14 -21 25 -40 25 -42 0 -11 -97 -38 -182 -51 -58 -9 -113 -23 -137 -36
-38 -22 -40 -22 -102 -6 -91 22 -148 6 -177 -51 -17 -31 -18 -32 -44 -19 -144
75 -293 74 -347 -2 l-21 -30 -43 21 c-45 22 -152 34 -212 23 -55 -11 -87 -47
-93 -106 -5 -58 -21 -64 -66 -25 -16 14 -54 37 -85 52 -200 95 -301 -80 -157
-272 55 -74 199 -205 225 -205 5 0 11 -3 13 -7 12 -28 322 -166 457 -203 271
-75 588 -63 844 34 110 41 247 115 329 179 21 16 42 26 48 22 6 -4 10 -172 10
-490 l0 -483 28 -30 c53 -57 200 -77 507 -69 371 10 435 39 435 196 0 118 -45
192 -162 266 l-48 30 0 558 c0 306 -1 560 -2 565 -2 4 90 8 205 10 l207 2 0
-77 c0 -43 3 -184 6 -313 3 -129 9 -429 13 -667 8 -397 10 -433 27 -457 26
-35 74 -52 195 -70 296 -44 620 -23 710 45 23 17 24 24 24 121 -1 82 -5 112
-21 149 -28 60 -73 110 -141 155 l-55 37 7 591 c4 325 9 594 12 599 2 4 11 7
19 7 9 0 48 15 88 34 168 77 226 194 241 485 7 153 8 154 135 288 115 120 176
229 202 361 l11 52 70 0 c39 0 119 -5 177 -12 98 -11 112 -10 204 11 112 26
109 26 466 16 225 -6 277 -5 342 8 117 25 153 47 188 115 67 131 59 122 110
122 25 0 73 5 106 11 44 8 91 8 186 -2 l128 -13 0 -2287 0 -2287 -22 -6 c-13
-3 -83 -6 -155 -6 -84 0 -133 -4 -133 -10 0 -7 58 -10 168 -8 l167 3 3 5049
c2 4033 0 5051 -10 5058 -7 4 -1742 8 -3856 8 -3065 0 -3844 -3 -3847 -12z
m7685 -1117 c0 -1047 -1 -1103 -17 -1096 -10 5 -45 10 -78 12 -84 7 -163 -24
-233 -91 -59 -55 -74 -79 -112 -176 -14 -36 -32 -66 -40 -68 -8 -1 -35 16 -60
38 -81 74 -152 98 -195 66 -22 -16 -27 -80 -12 -147 l9 -35 -36 4 c-50 6 -86
-31 -86 -89 0 -36 6 -48 39 -79 l39 -37 -34 -27 c-19 -15 -38 -25 -42 -22 -4
2 -55 10 -112 16 -58 7 -145 21 -195 33 -79 18 -123 21 -355 22 -146 1 -292 5
-325 9 -71 10 -364 109 -500 171 -27 12 -60 26 -72 29 -13 4 -23 15 -23 26 0
29 -21 72 -52 105 -27 30 -28 34 -47 270 -11 132 -25 332 -31 445 -6 113 -13
212 -15 220 -2 8 -9 69 -15 135 -7 66 -18 132 -26 147 -31 59 -86 60 -150 2
-157 -143 -236 -233 -388 -439 -33 -44 -62 -82 -66 -85 -3 -3 -31 -41 -61 -85
-73 -107 -103 -149 -110 -155 -3 -3 -59 -85 -124 -183 -86 -130 -122 -176
-134 -173 -9 2 -57 17 -108 32 l-92 27 -5 61 c-2 34 -9 153 -15 266 -16 321
-48 596 -74 650 -48 98 -111 85 -215 -46 -80 -101 -71 -89 -122 -164 -24 -36
-46 -67 -49 -70 -7 -6 -38 -52 -61 -91 -29 -51 -155 -244 -165 -255 -6 -6 -31
-42 -55 -78 -35 -55 -47 -66 -64 -62 -12 2 -39 8 -61 12 -71 12 -73 15 -68 91
3 37 7 70 9 72 2 2 18 -5 36 -16 18 -11 39 -18 46 -15 17 5 15 94 -3 118 -23
30 -19 34 41 34 l56 0 -7 28 c-9 37 -48 75 -78 75 l-24 0 5 88 c4 75 2 90 -11
95 -9 3 -25 -3 -38 -15 -13 -12 -26 -21 -30 -21 -4 0 -17 -22 -30 -50 -21 -46
-23 -48 -38 -32 -26 28 -59 42 -97 42 -31 0 -35 -3 -29 -17 4 -10 11 -38 16
-63 8 -37 7 -46 -8 -54 -10 -5 -31 -23 -48 -39 l-30 -30 48 -14 c46 -13 57
-25 37 -38 -5 -3 -10 -17 -10 -31 0 -22 4 -24 53 -24 l52 0 0 -71 0 -71 -38 6
c-38 6 -114 36 -287 111 -101 44 -205 79 -280 94 -30 6 -102 20 -160 32 -58
11 -150 31 -205 44 -152 36 -264 46 -560 52 -252 4 -280 3 -420 -20 -203 -33
-491 -91 -658 -133 -75 -19 -144 -34 -152 -34 -13 0 -15 112 -15 929 0 862 1
930 17 933 9 2 1735 3 3835 3 l3818 0 0 -1104z m-2666 -159 c14 -67 37 -333
56 -627 11 -176 23 -355 27 -397 4 -50 2 -78 -4 -78 -6 0 -31 9 -55 20 l-45
20 -12 146 c-18 212 -47 401 -69 438 -41 70 -99 29 -187 -133 -59 -107 -124
-224 -170 -301 -18 -30 -47 -82 -65 -115 -18 -32 -47 -77 -65 -98 -18 -21 -37
-55 -42 -75 l-9 -37 -99 -3 c-99 -2 -100 -2 -132 28 -18 16 -36 30 -41 30 -5
0 -16 8 -25 18 -16 18 -8 32 149 268 92 137 170 251 173 254 4 3 18 21 31 40
46 67 259 350 292 387 134 153 249 256 274 246 7 -3 15 -17 18 -31z m-1336
-49 c20 -38 41 -213 62 -493 17 -241 33 -570 28 -575 -2 -3 -18 -7 -34 -11
l-29 -6 -29 174 c-72 447 -86 486 -157 447 -26 -14 -93 -118 -196 -309 -47
-85 -88 -159 -93 -165 -8 -11 -91 -158 -151 -270 l-38 -70 -73 -17 c-104 -25
-239 -68 -266 -85 -13 -8 -26 -13 -28 -10 -4 4 224 356 253 392 5 6 53 80 108
165 55 85 102 157 105 160 4 3 26 36 51 75 79 125 262 400 269 405 3 3 25 33
49 67 81 122 147 170 169 126z m-742 -228 c6 -34 2 -62 -15 -107 -15 -39 -12
-43 30 -44 31 0 47 -6 60 -23 31 -37 25 -53 -18 -50 -21 1 -48 1 -61 0 l-23
-1 26 -45 c42 -71 19 -123 -33 -74 -40 36 -52 19 -52 -71 0 -79 -1 -81 -22
-78 -22 3 -23 7 -23 91 l0 88 -50 -2 c-56 -3 -70 14 -39 46 15 14 15 18 3 26
-8 5 -17 9 -21 9 -4 0 -19 5 -35 11 l-28 11 24 19 c13 10 36 19 52 19 29 0 29
1 16 28 -20 38 -30 99 -18 107 17 10 71 -24 89 -56 10 -16 19 -29 22 -29 3 0
13 21 22 48 17 46 63 112 79 112 4 0 11 -16 15 -35z m-1554 -155 c226 -15 319
-28 453 -60 66 -16 183 -41 259 -55 142 -27 250 -62 411 -133 129 -57 254 -98
375 -123 58 -12 109 -25 114 -30 5 -4 -42 -85 -106 -181 -63 -95 -133 -201
-154 -236 -36 -57 -42 -62 -71 -59 -28 2 -45 21 -163 177 -169 225 -270 343
-322 378 -40 26 -45 27 -187 27 -356 0 -1169 -18 -1203 -26 -48 -12 -151 -82
-212 -143 -40 -40 -104 -130 -171 -239 -5 -9 -31 -24 -57 -34 -45 -16 -48 -16
-81 2 -21 11 -45 16 -62 13 -19 -4 -43 2 -73 18 -25 14 -63 27 -84 30 l-38 7
0 236 0 237 173 42 c94 23 181 42 192 42 11 0 70 12 130 26 131 30 370 72 475
83 110 12 229 12 402 1z m3517 -56 c26 -58 89 -565 70 -564 -2 0 -40 7 -84 15
-130 23 -237 17 -373 -21 -20 -6 -16 5 34 92 31 55 64 112 73 127 9 16 21 36
26 45 6 9 32 58 59 107 118 215 165 264 195 199z m-1325 -56 c15 -24 58 -226
71 -333 4 -33 15 -100 26 -150 10 -49 19 -95 19 -101 0 -7 -17 -15 -37 -19
-51 -9 -148 -58 -199 -101 -26 -21 -53 -34 -71 -34 -15 0 -73 -7 -128 -15
-198 -31 -186 -30 -178 -9 4 10 35 70 70 132 35 62 63 117 63 122 0 4 3 10 8
12 8 3 95 153 132 228 35 70 140 243 163 268 11 12 26 22 34 22 7 0 19 -10 27
-22z m-1455 -205 c63 -20 140 -98 281 -285 51 -68 117 -153 147 -189 29 -36
53 -71 53 -78 0 -6 -17 -11 -40 -11 -21 0 -64 -9 -95 -21 -31 -12 -58 -19 -59
-17 -2 1 -20 30 -41 63 -62 98 -90 140 -95 145 -3 3 -23 32 -44 65 -77 120
-120 148 -179 120 -39 -18 -172 -153 -227 -231 -29 -40 -40 -48 -61 -46 -32 4
-59 -21 -59 -54 l0 -24 -62 34 c-35 19 -80 37 -100 40 -44 8 -45 12 -15 47
226 266 311 349 432 422 68 41 91 44 164 20z m-189 -11 c-116 -80 -166 -127
-300 -282 -36 -41 -83 -94 -105 -118 -22 -24 -41 -47 -42 -50 -2 -4 -58 -6
-125 -4 -144 4 -238 -12 -336 -58 -76 -36 -77 -36 -127 -10 -27 14 -50 19 -72
15 -26 -5 -40 1 -76 28 -57 43 -169 85 -252 93 -36 4 -65 8 -65 10 0 11 71
118 114 172 56 70 169 159 234 185 36 14 86 17 330 18 158 1 391 5 517 8 127
4 253 8 280 9 50 1 50 1 25 -16z m5719 -193 l31 -11 0 -93 0 -93 -54 -4 c-70
-6 -159 -50 -185 -91 -11 -18 -23 -56 -27 -86 -6 -47 -13 -60 -55 -101 -55
-53 -64 -73 -74 -151 -9 -71 -33 -119 -70 -141 -17 -9 -78 -26 -135 -37 -186
-36 -307 -118 -368 -249 -22 -50 -24 -61 -17 -148 7 -92 6 -95 -25 -160 -35
-71 -50 -147 -31 -158 6 -4 11 -16 11 -27 0 -14 -7 -19 -29 -19 -24 0 -32 7
-49 43 -59 122 -123 143 -371 121 -233 -22 -315 -26 -328 -17 -7 5 -17 33 -23
62 -5 29 -19 65 -30 81 -26 37 -25 66 5 126 41 81 122 124 232 124 65 0 97
-12 144 -55 60 -54 119 -60 119 -12 0 13 -4 48 -10 76 -7 40 -6 60 5 89 31 76
110 90 202 36 23 -13 46 -24 52 -24 6 0 11 18 11 40 0 111 114 193 218 157 23
-8 44 -12 47 -9 3 3 5 22 5 42 0 41 26 71 75 87 l30 10 -31 16 c-74 38 -106
115 -64 157 24 24 39 25 85 6 19 -8 37 -11 40 -6 3 4 1 10 -5 12 -5 1 -17 33
-27 70 -22 86 -13 122 34 126 41 4 77 -15 137 -73 36 -34 55 -45 74 -43 29 3
31 6 73 110 42 104 115 179 206 213 47 17 129 19 172 4z m-5517 -32 c31 -25
83 -99 190 -266 l72 -114 -30 -23 c-41 -33 -60 -30 -90 16 -38 57 -80 80 -145
80 -41 0 -63 -6 -91 -25 -20 -14 -39 -25 -41 -25 -3 0 -8 12 -12 28 -9 38 -43
90 -66 102 -29 16 -59 -20 -59 -72 l-1 -43 -29 35 c-16 19 -30 39 -30 43 0 13
109 146 167 203 92 92 117 101 165 61z m1796 -83 c43 -14 83 -28 91 -30 11 -4
11 -7 0 -20 -11 -13 -27 -14 -98 -8 -47 3 -89 12 -93 18 -4 6 -8 23 -8 39 0
34 10 34 108 1z m1017 -35 c93 -28 159 -62 196 -102 63 -65 58 -114 -13 -145
-72 -32 -93 -33 -220 -11 -111 19 -133 20 -229 9 -113 -12 -173 -5 -217 28
-25 19 -38 75 -28 118 7 25 67 93 84 95 4 0 39 9 77 20 91 25 247 20 350 -12z
m-4864 -31 c19 -6 45 -19 59 -28 17 -11 38 -15 66 -12 28 3 44 -1 53 -12 18
-22 50 -20 113 5 42 17 66 20 118 16 84 -7 198 -50 249 -93 35 -31 44 -34 80
-28 31 5 48 2 76 -15 43 -25 63 -26 91 -6 81 56 285 92 424 75 109 -14 192
-41 259 -85 29 -19 54 -35 55 -35 1 0 2 21 2 48 -1 41 2 47 20 50 24 3 62 -29
90 -78 30 -50 44 -39 44 34 0 36 5 68 10 71 20 12 70 -57 76 -107 4 -26 8 -48
9 -48 2 0 26 16 55 35 89 60 171 46 230 -40 37 -54 55 -56 118 -14 60 40 133
66 207 73 88 8 94 0 51 -69 -60 -93 -133 -246 -145 -303 -6 -29 -11 -123 -11
-207 l0 -155 -46 0 c-80 0 -160 -27 -245 -83 l-26 -18 -7 42 c-13 84 -82 176
-154 206 -20 8 -91 20 -159 26 -119 11 -127 10 -193 -12 -75 -26 -143 -83
-182 -153 l-21 -38 -18 30 c-20 33 -79 73 -123 84 -41 10 -94 -11 -111 -44 -8
-16 -15 -48 -15 -71 l0 -42 -36 6 c-72 12 -135 -39 -150 -120 -4 -24 -12 -33
-25 -33 -33 0 -92 -29 -141 -71 l-47 -39 -26 47 c-14 27 -42 59 -62 73 -32 22
-47 25 -122 25 -86 -1 -119 -10 -183 -51 -26 -17 -27 -17 -54 15 -38 46 -96
80 -169 100 -40 11 -78 31 -108 56 l-47 39 0 483 c0 463 1 483 19 483 10 0 33
-5 52 -12z m3898 -54 c66 -17 111 -41 143 -79 20 -23 23 -83 7 -118 -20 -44
-44 -51 -224 -58 -153 -6 -177 -9 -245 -34 -41 -16 -88 -37 -105 -47 -36 -22
-93 -23 -120 -2 -17 12 -20 27 -20 83 0 62 3 71 35 113 96 126 335 190 529
142z m3701 -679 c0 -382 -3 -695 -6 -695 -3 0 -34 21 -68 46 -99 75 -123 78
-228 30 -58 -27 -112 -33 -138 -16 -12 8 -9 16 22 47 48 49 60 83 47 123 -6
16 -15 30 -20 30 -11 0 -11 -3 1 -34 13 -34 0 -66 -42 -105 -26 -24 -42 -31
-74 -31 -28 0 -44 5 -48 15 -6 15 -36 21 -36 7 0 -5 -14 -23 -31 -40 -43 -43
-87 -44 -123 -1 -18 21 -26 26 -26 14 0 -9 11 -27 25 -40 18 -19 35 -25 70
-25 36 0 45 -3 45 -17 1 -27 34 -96 61 -125 53 -56 183 -67 290 -24 77 30 91
31 141 8 38 -17 153 -121 144 -129 -2 -3 -20 1 -38 7 -26 10 -61 10 -143 3
-100 -9 -111 -13 -132 -37 l-23 -27 -31 30 c-28 29 -35 31 -104 31 -77 0 -143
-18 -174 -47 -27 -25 -44 -106 -36 -175 6 -54 5 -58 -13 -58 -25 0 -29 24 -36
236 -4 120 -9 162 -26 207 -36 96 -117 156 -211 157 -39 0 -47 4 -57 25 -19
42 -14 75 23 140 35 63 35 63 32 176 -2 110 -1 116 27 163 69 117 167 181 336
216 58 12 123 32 145 44 43 23 50 37 80 171 13 61 22 76 65 120 44 44 52 59
60 108 10 63 19 84 48 110 30 27 112 56 160 57 l42 0 0 -695z m-3291 553 c11
-28 35 -50 81 -74 36 -18 70 -20 290 -14 74 2 123 -2 165 -14 77 -21 123 -20
190 3 l54 19 29 -26 c51 -46 60 -96 71 -430 6 -166 12 -308 14 -315 1 -7 -11
-13 -30 -15 -30 -3 -32 -1 -38 35 -33 204 -122 391 -222 468 -113 86 -261 86
-348 0 -6 -5 -25 -30 -42 -55 -85 -125 -117 -243 -111 -407 2 -61 1 -110 -2
-108 -4 2 -12 29 -19 60 -7 31 -25 87 -40 123 -116 281 -364 428 -594 351
-185 -61 -329 -234 -388 -464 -32 -125 -32 -333 0 -450 61 -227 187 -385 362
-456 79 -32 212 -32 296 2 203 79 354 310 382 584 5 55 7 119 4 143 -3 23 -2
42 3 42 5 0 47 4 94 10 165 18 475 50 493 50 16 0 14 -5 -10 -37 -25 -33 -28
-44 -26 -108 l2 -71 -47 -16 c-71 -26 -196 -113 -239 -166 -21 -26 -40 -49
-43 -52 -3 -3 -32 -40 -64 -83 -70 -94 -113 -139 -167 -173 -40 -25 -217 -93
-297 -114 -139 -36 -329 -132 -390 -196 -38 -40 -83 -148 -89 -214 -10 -107
35 -219 117 -293 117 -105 302 -114 560 -27 l115 39 325 5 c179 3 356 10 393
16 38 5 72 8 76 5 5 -2 7 -353 5 -780 -4 -828 -6 -861 -55 -961 -51 -106 -151
-160 -414 -222 -231 -55 -632 -78 -1205 -69 -407 7 -516 15 -644 48 -186 47
-220 110 -246 459 -6 80 -16 169 -21 199 -8 38 -8 56 0 64 6 6 11 7 11 2 0 -6
14 -26 30 -45 32 -37 42 -66 59 -169 6 -35 17 -74 26 -87 40 -62 164 -87 235
-49 23 13 50 18 78 16 58 -4 139 36 170 84 12 19 22 41 22 49 0 8 14 24 30 36
79 57 96 169 41 286 -28 61 -54 91 -211 246 -99 98 -180 183 -180 189 0 28 68
70 211 128 42 18 85 38 95 46 17 12 18 15 3 30 -14 14 -21 13 -85 -14 -144
-60 -202 -90 -238 -121 -28 -25 -40 -30 -49 -21 -35 35 -51 -10 -16 -48 13
-14 22 -36 21 -53 -3 -113 -210 -308 -326 -308 -31 0 -41 7 -77 53 -22 28 -50
63 -61 76 -31 36 -76 138 -89 200 -15 72 1 161 43 245 17 33 34 63 37 66 4 3
18 21 31 40 56 81 160 155 362 256 114 57 158 84 158 97 0 9 -4 17 -10 17 -26
0 -205 -81 -310 -141 -40 -22 -75 -37 -78 -34 -4 4 -10 61 -13 128 -4 67 -12
194 -18 282 -6 88 -16 250 -21 360 -5 110 -23 416 -40 680 -35 536 -36 744 -4
825 45 114 145 184 334 234 109 28 478 91 487 83 3 -3 0 -20 -6 -38 -12 -34
-14 -111 -5 -144 9 -32 62 -67 109 -72 34 -4 59 2 126 32 119 52 137 56 299
59 112 3 156 8 195 22 62 24 95 69 95 129 0 23 2 44 5 47 3 3 46 6 95 7 86 2
91 1 99 -21z m924 -39 c79 -34 244 -95 380 -140 103 -34 148 -38 477 -43 196
-3 264 -8 340 -24 52 -11 146 -25 208 -32 l112 -13 0 -29 c0 -25 -3 -28 -20
-24 -11 3 -29 9 -41 12 -24 7 -119 -14 -119 -27 0 -5 -7 -9 -14 -9 -26 0 -68
-67 -74 -115 -2 -25 -7 -45 -10 -45 -2 0 -21 10 -41 22 -26 17 -51 23 -93 23
-49 0 -61 -4 -87 -29 -42 -41 -54 -80 -41 -145 20 -105 11 -112 -64 -55 -64
49 -106 64 -175 64 -76 0 -157 -30 -198 -72 -34 -35 -72 -110 -73 -142 0 -14
-4 -16 -17 -10 -10 5 -109 10 -221 11 -112 0 -205 3 -207 5 -2 2 -9 145 -14
318 -11 349 -18 390 -74 455 -28 32 -32 43 -23 57 6 10 12 18 14 18 2 0 35
-14 75 -31z m-435 -321 c85 -21 192 -150 238 -286 24 -69 54 -216 46 -224 -8
-8 -170 -27 -224 -28 -23 0 -28 4 -28 23 0 50 -30 121 -67 159 -30 31 -44 38
-76 38 -76 0 -136 -99 -123 -201 l6 -47 -41 -7 c-24 -4 -45 -3 -51 3 -19 19
-21 190 -4 270 27 129 111 268 180 298 39 17 84 17 144 2z m-832 -82 c167 -44
297 -188 364 -401 31 -99 39 -301 16 -413 -21 -103 -66 -210 -122 -288 -38
-54 -57 -74 -124 -127 -33 -27 -114 -58 -173 -66 -231 -33 -434 148 -514 459
-23 89 -23 291 0 381 37 144 100 260 185 341 116 111 239 149 368 114z m-2056
-181 c90 -47 131 -105 145 -202 4 -29 8 -53 10 -53 2 0 25 14 51 32 26 17 76
42 111 55 71 25 173 32 174 11 0 -7 2 -24 3 -38 2 -14 7 -81 10 -150 11 -198
36 -562 41 -600 3 -19 9 -143 15 -275 5 -132 15 -305 21 -385 16 -213 17 -202
-20 -241 -24 -24 -31 -28 -27 -14 21 60 28 131 24 230 -5 97 -9 118 -36 177
-48 101 -102 126 -155 70 -38 -39 -58 -104 -65 -211 l-7 -94 -22 44 c-19 39
-21 50 -12 85 11 36 8 97 -7 186 -6 37 -6 37 22 30 42 -11 68 -4 94 23 34 36
31 81 -7 116 l-31 27 25 24 c63 58 70 123 19 174 -27 27 -42 34 -74 34 -23 0
-44 -4 -47 -10 -11 -17 -35 -11 -35 9 0 24 -45 61 -75 61 -12 0 -37 -10 -56
-23 -30 -20 -34 -28 -33 -64 1 -40 0 -41 -37 -46 -72 -10 -128 -74 -102 -116
5 -9 24 -23 41 -31 l31 -15 -30 -33 c-30 -33 -38 -82 -19 -112 11 -18 114 -20
132 -2 20 20 33 14 46 -22 15 -42 42 -52 82 -33 18 9 32 12 36 6 9 -16 17
-155 10 -184 l-7 -27 -35 39 c-33 35 -39 38 -90 37 -44 0 -54 3 -54 17 0 31
-39 69 -72 69 -66 0 -105 -80 -97 -199 2 -28 1 -51 -2 -51 -3 0 -16 11 -28 24
-45 48 -97 42 -126 -14 -26 -50 -19 -93 30 -184 50 -92 88 -196 99 -269 l7
-48 -118 7 c-90 5 -139 3 -206 -10 -48 -9 -92 -14 -96 -11 -5 3 -12 43 -16 90
-7 82 -6 86 24 139 36 65 38 85 11 145 -19 41 -19 47 -5 101 25 96 16 137 -53
251 -38 62 -79 94 -148 115 -64 19 -104 18 -164 -6 -28 -11 -53 -20 -55 -20
-3 0 -11 12 -19 28 -21 40 -94 111 -122 118 -42 11 -74 -3 -81 -36 -7 -39 -15
-43 -59 -31 -43 12 -79 0 -87 -28 -3 -14 -13 -21 -29 -21 -12 0 -49 -14 -80
-30 -32 -17 -77 -33 -102 -36 -87 -12 -134 -63 -138 -152 -1 -20 1 -78 6 -128
8 -90 8 -91 -18 -111 -45 -35 -48 -61 -15 -120 28 -49 30 -57 27 -155 l-3
-103 -45 1 c-25 0 -93 4 -152 9 l-108 8 0 984 c0 785 3 983 13 977 6 -5 29
-20 49 -35 21 -14 59 -32 84 -38 26 -7 61 -19 78 -28 43 -21 96 -73 96 -94 0
-30 18 -31 52 -6 83 62 184 83 261 53 57 -22 81 -49 133 -154 1 -1 27 22 57
52 59 57 112 82 153 72 21 -6 24 -3 24 24 0 44 35 107 69 125 33 16 84 11 102
-11 21 -26 27 -14 22 44 -9 99 26 141 105 126 40 -8 112 -74 112 -103 0 -21
22 -41 27 -25 11 32 89 136 120 160 64 48 95 55 248 51 110 -3 147 -8 175 -22z
m2810 -102 c40 -23 70 -82 70 -136 l0 -44 -86 -11 c-48 -7 -90 -9 -95 -6 -13
8 -11 121 2 147 17 33 51 67 67 67 8 0 27 -7 42 -17z m918 -193 c75 -17 87
-44 87 -202 l-1 -126 -48 -97 c-60 -120 -122 -205 -171 -235 -29 -18 -45 -21
-80 -17 -48 7 -65 18 -134 88 -86 85 -207 246 -249 329 -37 74 -38 147 -2 185
61 65 73 69 235 76 251 10 312 9 363 -1z m733 -151 c47 -16 72 -41 99 -100 28
-59 46 -66 134 -49 58 11 67 10 115 -10 107 -46 130 -107 139 -366 8 -195 13
-214 61 -214 15 0 37 -7 49 -16 19 -13 22 -25 22 -77 1 -53 5 -68 30 -101 20
-26 30 -51 30 -74 0 -38 -31 -88 -60 -97 -24 -8 -25 -21 -5 -41 30 -31 29 -64
-4 -129 l-32 -62 26 -70 c33 -91 32 -140 -5 -251 -16 -50 -30 -100 -30 -110 0
-17 -11 -20 -107 -25 -59 -3 -108 -5 -109 -4 -1 1 2 26 8 56 8 45 6 62 -8 100
-10 25 -18 70 -18 99 0 46 3 56 32 82 39 35 43 83 12 123 -20 25 -20 28 -5 56
22 44 20 108 -5 121 -14 8 -26 8 -40 0 -19 -10 -20 -8 -20 89 0 112 -8 143
-44 166 -34 23 -129 30 -207 16 -91 -15 -107 -9 -136 58 -32 72 -49 91 -85 91
-21 0 -33 -8 -48 -32 -11 -18 -20 -43 -20 -55 0 -30 -6 -29 -59 7 -72 49 -151
33 -151 -31 0 -21 -5 -29 -17 -29 -145 -4 -227 -39 -264 -111 -22 -43 -24 -75
-19 -229 3 -89 5 -86 -52 -109 -39 -15 -38 -59 3 -116 35 -49 35 -45 24 -227
-8 -121 -9 -128 -29 -128 -14 0 -28 12 -39 33 -10 18 -28 45 -40 59 -12 14
-33 39 -47 55 -14 17 -48 57 -77 89 -28 33 -61 70 -72 83 -16 19 -21 38 -21
86 0 61 0 63 30 69 51 10 133 53 177 93 78 71 149 247 197 485 45 223 96 604
96 716 0 21 4 23 43 18 23 -2 101 2 172 9 170 16 334 18 376 4z m719 -107 c19
-2 46 -13 59 -23 34 -27 83 -23 163 12 91 40 118 36 200 -30 35 -28 68 -51 75
-51 10 0 13 -26 13 -100 0 -55 -3 -100 -7 -100 -3 0 -24 20 -47 43 -23 24 -51
49 -64 56 -37 20 -114 15 -163 -9 -93 -48 -223 -35 -281 28 -24 26 -58 103
-58 132 0 23 42 61 60 54 8 -4 31 -9 50 -12z m-2075 -51 c13 -26 58 -95 101
-152 175 -237 289 -306 404 -247 48 24 120 106 158 180 l23 43 -6 -50 c-22
-180 -93 -521 -127 -610 -70 -188 -154 -260 -353 -302 -159 -33 -663 -44 -774
-17 -62 15 -162 61 -206 94 -52 39 -143 140 -168 187 l-28 52 43 5 c24 3 54 7
68 8 17 2 25 9 25 23 0 18 -6 20 -75 19 -60 -1 -86 -6 -128 -28 -67 -34 -142
-109 -142 -142 0 -34 14 -30 62 20 64 65 103 81 115 49 25 -69 109 -169 188
-223 28 -19 52 -38 55 -41 6 -6 103 -53 135 -64 30 -11 -200 -84 -308 -98
-157 -20 -280 21 -355 119 -102 133 -83 340 42 449 52 46 173 114 236 133 161
48 336 110 392 139 78 41 131 95 241 245 42 59 98 124 122 144 52 42 213 126
227 118 4 -3 19 -27 33 -53z m2564 -311 c21 -11 21 -12 21 -680 l0 -670 -42 0
c-24 0 -72 5 -108 10 -45 7 -102 7 -188 -2 -120 -11 -123 -11 -163 11 -33 19
-48 22 -91 16 l-51 -7 6 43 c3 24 15 65 27 91 11 26 23 76 27 112 5 55 2 75
-22 140 l-28 76 25 38 c36 54 42 80 28 123 -12 35 -11 41 6 57 58 54 58 153 0
201 -12 10 -16 32 -16 80 0 75 -5 86 -42 100 -26 10 -27 11 -24 98 1 49 7 98
15 111 21 38 86 62 170 62 66 0 76 -3 97 -26 13 -14 25 -33 25 -42 2 -21 1
-73 -12 -731 -5 -293 -7 -536 -4 -539 3 -3 7 -3 9 -1 2 2 10 279 16 614 7 336
16 627 22 648 5 21 18 46 29 55 34 29 221 38 268 12z m-5476 -20 c10 -17 16
-39 12 -49 -9 -30 9 -32 38 -5 57 52 147 14 147 -63 0 -32 -7 -44 -51 -85 -29
-27 -45 -48 -36 -48 18 0 77 -65 77 -86 0 -22 -49 -64 -76 -64 -12 0 -29 7
-38 15 -22 22 -31 19 -49 -20 -14 -28 -22 -35 -46 -35 -34 0 -51 22 -51 64 0
31 0 31 -47 6 -42 -22 -103 -26 -121 -8 -28 28 -2 82 60 122 33 21 29 35 -7
28 -49 -9 -94 46 -67 84 27 39 109 57 153 34 25 -14 25 4 0 22 -55 39 -16 117
59 118 18 0 31 -9 43 -30z m4128 -276 c8 -9 28 -44 44 -77 35 -71 57 -82 138
-66 78 14 174 11 210 -7 l32 -17 -25 -9 c-35 -13 -53 -36 -74 -93 -25 -67 -39
-77 -98 -69 -59 8 -74 -3 -83 -61 -7 -50 -33 -75 -78 -75 -20 0 -43 14 -80 49
-35 33 -70 55 -106 67 -53 17 -55 17 -150 -7 -157 -39 -275 -25 -303 37 -17
36 -1 92 37 128 38 37 85 52 194 62 39 4 71 9 71 11 0 2 -4 12 -10 22 -14 28
14 61 53 61 36 0 69 -19 108 -63 29 -33 34 -30 49 39 10 45 33 84 50 84 4 0
14 -7 21 -16z m-5394 -44 c32 -19 92 -103 93 -127 0 -19 24 -16 90 12 68 29
82 30 146 13 59 -16 118 -67 149 -129 31 -60 31 -70 0 -107 -42 -50 -109 -75
-190 -72 -140 6 -211 5 -257 -4 -45 -8 -47 -7 -62 21 -27 53 -85 103 -119 103
-35 0 -77 -34 -77 -63 0 -15 -4 -17 -17 -11 -37 16 -110 16 -142 -1 -46 -23
-57 -54 -43 -116 10 -44 10 -56 -7 -92 -10 -23 -21 -54 -25 -69 -4 -18 -13
-28 -25 -28 -16 0 -20 11 -26 68 -4 43 -16 83 -32 112 -21 37 -26 63 -31 141
l-5 97 34 36 c28 30 44 38 92 46 32 5 70 17 85 28 42 28 80 42 116 42 30 0 33
3 29 24 -6 30 22 38 68 19 38 -16 59 -11 59 14 0 26 28 63 48 63 9 0 32 -9 49
-20z m1548 -147 c75 -82 93 -335 34 -474 -12 -27 -19 -52 -15 -56 3 -4 27 15
52 41 25 26 47 46 48 44 2 -1 6 -47 9 -100 6 -96 6 -98 -18 -114 -40 -26 -123
-135 -162 -211 -39 -79 -46 -83 -112 -59 -29 10 -37 21 -56 73 -37 104 -121
201 -221 259 -126 71 -167 132 -130 189 13 20 25 25 58 25 47 0 68 -12 221
-123 60 -43 111 -76 115 -73 3 3 -16 26 -41 51 -26 25 -47 50 -47 56 0 6 -24
39 -54 72 -80 92 -106 139 -106 190 0 60 18 82 68 82 61 0 111 -56 167 -185
16 -36 31 -69 35 -73 4 -4 5 50 2 121 -5 140 9 215 49 265 28 36 70 36 104 0z
m4273 -126 c1 -70 5 -127 8 -127 3 0 17 9 31 20 60 47 71 -45 15 -112 -13 -16
-12 -20 12 -39 38 -30 37 -84 -3 -107 -24 -14 -30 -25 -36 -68 -4 -36 -1 -64
10 -95 25 -67 27 -79 18 -139 l-8 -55 -50 -8 c-134 -20 -249 -19 -352 2 -121
25 -167 26 -268 5 -52 -11 -103 -14 -154 -10 -42 3 -118 8 -168 12 l-93 6 0
77 c0 42 5 105 10 140 10 69 0 107 -40 158 -22 29 -27 72 -7 77 6 3 25 7 40
11 l28 6 -3 99 c-3 96 -2 100 17 94 11 -4 23 -11 26 -16 3 -5 32 -14 65 -20
61 -11 62 -11 259 33 70 16 122 0 171 -52 72 -75 126 -88 173 -41 18 17 30 43
35 71 l7 44 55 -7 c49 -6 57 -4 79 18 13 13 29 43 35 66 12 43 55 93 74 87 7
-2 12 -51 14 -130z m-4725 65 c21 -24 33 -77 18 -86 -22 -14 -13 -104 15 -147
29 -46 43 -109 25 -109 -6 0 -24 8 -38 17 -15 10 -50 20 -77 23 l-51 5 -3 105
c-4 146 17 210 72 210 13 0 30 -8 39 -18z m-1201 -115 c9 -7 29 -35 45 -62 27
-45 33 -50 64 -49 19 1 56 7 82 14 40 10 63 9 132 -5 119 -23 190 -7 260 60
21 19 39 35 40 35 13 0 12 -63 0 -119 -16 -67 -16 -71 5 -112 25 -48 22 -84
-10 -127 -32 -43 -39 -91 -27 -187 10 -86 10 -86 -16 -113 -26 -25 -32 -27
-130 -27 -56 0 -156 6 -222 14 -87 10 -189 12 -375 8 -275 -6 -301 -2 -314 45
-3 13 -6 75 -6 138 0 105 -2 119 -25 155 -30 50 -31 66 -2 92 12 11 27 29 33
39 17 28 25 14 36 -68 20 -139 59 -144 108 -16 26 68 29 86 20 111 -26 76 6
127 81 127 40 0 89 -17 89 -32 0 -4 7 -8 15 -8 11 0 15 11 15 35 0 20 6 42 13
50 15 18 66 19 89 2z m1025 -86 c12 -11 28 -39 37 -63 16 -40 16 -46 2 -73
-38 -72 -11 -117 121 -205 l98 -65 3 -76 3 -76 -66 -21 c-36 -12 -85 -22 -109
-22 l-43 0 -6 88 c-8 113 -33 197 -96 318 -54 105 -63 152 -35 192 19 28 63
29 91 3z m335 -194 c16 -30 4 -29 -40 4 -31 22 -42 38 -42 57 l0 26 36 -35
c20 -18 40 -42 46 -52z m3273 -223 c28 -32 60 -69 72 -81 34 -35 88 -132 112
-201 39 -113 24 -246 -40 -375 -32 -63 -98 -156 -111 -157 -4 0 -10 12 -14 28
-12 56 -36 111 -69 158 l-35 49 0 340 c0 324 1 339 18 319 9 -12 40 -48 67
-80z m-3236 -139 c17 -34 31 -67 31 -73 0 -5 -30 -13 -67 -17 -71 -7 -93 -13
-93 -24 0 -4 34 -3 76 2 63 8 82 7 109 -6 18 -9 50 -19 70 -23 36 -6 37 -8 31
-43 -3 -20 -6 -51 -6 -68 0 -31 -2 -33 -33 -33 -19 0 -103 9 -188 21 -136 18
-167 20 -259 9 -58 -6 -152 -24 -210 -39 -58 -16 -118 -32 -135 -35 -32 -6
-188 1 -625 30 -268 18 -304 17 -534 -13 -21 -3 -112 -2 -202 2 l-164 7 0 174
0 174 38 0 c20 0 90 -5 154 -12 105 -11 118 -14 127 -35 5 -12 22 -30 36 -39
24 -15 49 -17 248 -11 144 4 273 2 367 -6 80 -6 200 -12 267 -12 108 0 125 2
150 21 15 11 30 32 34 45 3 13 11 23 16 22 6 -1 46 4 88 12 83 16 152 18 258
8 l67 -6 0 -36 0 -37 -41 4 c-22 3 -45 0 -51 -6 -6 -6 22 -12 84 -16 100 -8
161 1 234 34 23 11 50 20 58 20 9 0 16 5 16 10 0 6 -11 10 -25 10 -24 0 -25 3
-25 57 l0 57 34 -33 c19 -18 48 -62 65 -96z m4951 -40 c17 -9 30 -18 30 -20 0
-4 -14 -33 -69 -144 -13 -26 -55 -51 -111 -67 -77 -22 -386 -30 -569 -15 -128
11 -155 10 -216 -4 -169 -39 -166 -39 -275 -27 -58 7 -137 12 -175 12 l-70 0
-2 54 c-2 46 -24 130 -48 190 -8 18 -3 18 106 12 63 -3 151 -9 195 -12 56 -4
105 -1 159 10 99 21 128 20 253 -4 124 -24 221 -25 344 -4 80 14 246 28 376
33 24 0 56 -6 72 -14z m-3977 -482 c127 -125 170 -175 191 -218 31 -66 35
-142 9 -186 -18 -31 -32 -36 -50 -18 -22 22 -42 3 -36 -35 9 -57 -3 -84 -54
-116 -55 -35 -93 -39 -93 -11 0 36 -21 33 -62 -8 -37 -37 -46 -41 -91 -41 -79
0 -113 29 -131 111 -7 33 0 40 29 29 32 -12 50 8 28 32 -9 10 -23 18 -32 18
-9 0 -31 24 -49 53 -17 28 -67 90 -111 137 -44 47 -80 88 -81 91 0 4 22 14 48
22 73 24 139 65 193 119 52 52 109 141 109 171 0 10 4 17 10 15 5 -1 83 -76
173 -165z m2242 -65 c37 -80 34 -112 -19 -168 l-45 -48 -3 37 c-2 20 -2 91 0
159 l3 123 20 -25 c10 -13 30 -48 44 -78z m-478 -1013 c2 -11 0 -189 -3 -396
l-7 -376 -71 -14 c-146 -29 -536 -11 -565 25 -4 6 -11 167 -14 357 l-6 347
127 6 c191 11 390 37 477 65 41 13 58 9 62 -14z m-1981 -13 c40 -10 77 -23 83
-26 12 -8 16 -460 5 -490 -7 -18 -136 -116 -153 -116 -6 0 -11 -4 -11 -10 0
-5 -4 -10 -10 -10 -5 0 -31 -13 -57 -28 -255 -148 -597 -197 -908 -131 -218
47 -534 201 -657 321 -95 93 -138 165 -138 232 0 55 19 76 70 76 46 0 75 -13
160 -68 67 -45 96 -56 127 -50 16 3 18 12 14 71 -3 61 -1 69 20 87 44 36 198
17 271 -34 12 -9 33 -16 46 -16 18 0 23 5 22 23 -4 43 0 53 29 70 56 33 159
14 288 -51 57 -30 82 -21 80 29 -1 21 2 41 5 44 16 16 89 16 136 1 l51 -17 58
30 c39 20 80 32 128 36 39 4 97 17 130 30 69 27 107 26 211 -3z m527 -49 l277
-6 0 -363 c0 -296 -2 -363 -14 -367 -7 -3 -75 -11 -150 -18 -141 -12 -375 -1
-459 22 l-37 10 0 371 0 371 53 -7 c28 -3 177 -9 330 -13z m912 -758 c116 -19
368 -19 455 0 36 8 68 14 73 15 4 0 7 -85 7 -190 0 -162 2 -190 15 -190 8 0
15 -3 15 -7 0 -5 18 -17 41 -27 47 -23 103 -81 122 -128 19 -46 29 -132 21
-184 -6 -41 -9 -44 -48 -55 -22 -5 -50 -13 -60 -16 -18 -5 -18 -1 -12 63 8 77
-3 120 -41 172 -13 17 -33 32 -44 32 -24 0 -24 -5 4 -43 19 -28 22 -44 22
-132 l0 -100 -137 -3 -138 -3 0 81 c0 103 -37 200 -77 200 -18 0 -16 -20 7
-65 16 -30 20 -59 20 -127 l0 -88 -27 0 c-16 0 -76 7 -135 15 -110 14 -160 32
-177 63 -13 24 -19 732 -6 732 6 0 51 -7 100 -15z m-975 -29 c96 0 212 3 258
8 l82 8 0 -194 c0 -189 1 -195 23 -215 12 -11 36 -27 52 -36 41 -20 91 -69
111 -109 9 -18 19 -62 22 -98 4 -59 2 -69 -19 -93 -14 -17 -38 -30 -59 -33
l-35 -6 -2 82 c-2 63 -8 90 -24 116 -20 33 -55 64 -71 64 -12 0 -10 -38 2 -45
6 -4 17 -22 25 -42 17 -40 21 -178 5 -188 -5 -3 -63 -9 -127 -12 l-118 -6 0
89 c-1 79 -4 95 -30 139 -29 52 -41 65 -62 65 -19 0 -16 -19 12 -74 21 -41 25
-64 25 -133 l0 -83 -62 0 c-72 1 -192 15 -259 31 -34 7 -50 17 -58 35 -7 17
-11 141 -11 393 l0 368 73 -15 c45 -9 138 -15 247 -16z m-2634 -384 c25 -15
44 -86 44 -158 0 -41 4 -74 9 -74 5 0 18 10 28 23 67 83 153 90 182 13 15 -38
-5 -121 -40 -173 -35 -51 -42 -45 121 -96 169 -53 206 -71 238 -119 25 -39 27
-50 31 -170 2 -75 -1 -141 -8 -159 -6 -18 -7 -37 -2 -47 5 -9 16 -42 25 -73 9
-31 31 -76 50 -100 65 -86 70 -102 60 -214 -4 -55 -6 -147 -5 -205 2 -58 4
-141 5 -185 l1 -80 -762 -3 -763 -2 0 340 c0 204 4 340 9 340 5 0 22 -5 37
-11 38 -14 156 -14 182 0 26 14 47 52 56 101 10 60 31 80 80 80 24 0 67 -8 97
-19 30 -10 85 -24 123 -30 82 -14 110 -28 183 -87 29 -24 63 -44 73 -44 29 0
56 32 77 90 37 106 67 116 222 79 102 -25 198 -23 226 4 9 10 14 21 11 25 -4
3 -11 0 -16 -8 -15 -24 -124 -25 -221 -1 -158 38 -194 26 -236 -81 -33 -85
-54 -94 -115 -52 -22 16 -56 39 -75 52 -19 13 -75 32 -126 43 -51 10 -109 26
-130 34 -20 8 -60 15 -87 15 -58 0 -85 -22 -101 -85 -19 -72 -28 -86 -65 -101
-41 -17 -114 -12 -171 12 l-33 13 0 479 0 479 38 6 c61 10 183 -18 304 -68
124 -52 267 -104 284 -105 8 0 12 27 13 77 1 42 8 103 17 134 24 87 86 140
130 111z"/>
<path d="M4217 10226 c-79 -22 -127 -86 -127 -172 0 -29 -1 -29 -63 -30 -136
-3 -217 -84 -217 -215 0 -44 31 -114 64 -142 56 -50 95 -60 260 -68 104 -5
193 -16 255 -30 57 -14 131 -23 181 -23 73 -1 93 3 145 27 33 16 73 40 88 55
60 57 90 157 67 226 -13 39 -74 96 -103 96 -15 0 -18 7 -16 38 5 72 0 88 -42
129 -46 46 -135 80 -278 107 -98 19 -149 19 -214 2z m221 -21 c232 -47 308
-102 300 -218 -3 -51 -3 -51 29 -58 41 -8 57 -21 77 -63 45 -94 -19 -225 -134
-278 -64 -29 -159 -34 -255 -14 -118 25 -289 46 -370 46 -132 0 -219 45 -246
127 -7 21 -9 63 -6 100 4 56 9 69 38 99 46 48 105 68 179 61 l60 -5 0 42 c0
51 16 102 40 126 49 49 154 61 288 35z"/>
<path d="M1528 10089 c-132 -14 -226 -74 -262 -169 -14 -36 -16 -60 -11 -119
8 -88 6 -91 -81 -91 -88 0 -156 -37 -209 -113 -33 -49 -40 -67 -43 -121 -5
-77 18 -127 76 -165 61 -40 123 -51 305 -51 93 0 250 -8 350 -17 100 -10 223
-18 272 -18 82 0 96 3 159 34 127 61 216 179 216 286 0 77 -47 138 -137 176
-30 13 -31 14 -26 64 7 64 -12 107 -69 164 -101 99 -337 161 -540 140z m284
-38 c164 -45 238 -89 285 -168 21 -36 24 -53 21 -104 l-3 -61 37 -13 c86 -29
128 -80 128 -156 0 -118 -100 -236 -246 -290 -62 -23 -111 -23 -344 1 -52 5
-198 12 -325 15 -126 4 -250 11 -275 16 -67 15 -119 53 -142 105 -17 39 -18
52 -9 95 15 69 33 100 86 147 48 42 78 52 157 52 83 0 88 6 88 112 0 164 56
225 245 272 46 11 223 -2 297 -23z"/>
<path d="M6676 10020 c-96 -38 -165 -131 -166 -220 l0 -45 -67 0 c-131 0 -203
-64 -203 -179 0 -105 58 -219 130 -256 50 -26 173 -45 420 -65 107 -9 233 -24
280 -32 47 -9 141 -16 210 -17 116 -1 129 1 175 25 59 30 115 111 115 167 0
91 -107 172 -227 172 -37 0 -39 6 -18 46 55 105 -36 261 -197 338 -129 61
-194 79 -303 83 -82 3 -109 0 -149 -17z m309 -24 c162 -58 274 -137 314 -221
27 -57 27 -129 1 -178 -11 -20 -20 -39 -20 -42 0 -3 21 -5 48 -5 108 -1 182
-38 208 -107 15 -38 15 -46 0 -89 -19 -58 -63 -98 -129 -120 -58 -19 -204 -15
-342 10 -44 8 -177 22 -295 31 -218 17 -343 36 -390 60 -40 21 -67 55 -100
127 -35 78 -38 133 -11 186 37 73 90 98 191 88 l69 -6 -6 48 c-4 39 -1 57 20
98 29 55 88 108 144 129 52 20 231 14 298 -9z"/>
<path d="M6190 8773 c-76 -40 -93 -74 -86 -178 l5 -80 -73 0 c-64 0 -77 -3
-109 -28 -56 -42 -77 -92 -77 -179 0 -134 58 -189 235 -222 158 -30 268 -55
354 -81 174 -52 296 -16 347 102 40 92 -17 203 -105 203 l-30 0 15 42 c21 59
28 138 16 181 -16 57 -79 130 -163 186 -127 87 -231 104 -329 54z m218 -11
c97 -37 212 -133 249 -207 22 -44 23 -92 3 -170 -24 -95 -24 -97 -2 -94 42 4
64 -3 92 -28 56 -50 49 -132 -18 -209 -59 -69 -175 -77 -331 -25 -52 17 -135
38 -185 46 -156 27 -230 45 -271 68 -52 30 -85 87 -85 152 0 105 38 171 115
201 42 15 48 15 96 0 28 -10 53 -16 55 -14 1 2 -2 33 -8 68 -19 112 7 175 86
211 53 24 142 24 204 1z"/>
<path d="M4465 4497 c-244 -247 -255 -259 -255 -302 0 -30 11 -47 77 -118 144
-152 368 -368 402 -387 36 -19 50 -10 111 68 34 42 71 88 83 102 12 14 55 68
95 120 41 52 78 97 82 100 21 14 60 86 60 111 0 26 -31 72 -81 119 -8 8 -71
80 -139 160 -144 167 -159 183 -188 199 -48 25 -62 16 -247 -172z m285 103
c32 -33 78 -84 102 -112 56 -67 185 -215 220 -252 16 -16 28 -37 28 -46 0 -23
-86 -138 -212 -284 -15 -17 -54 -66 -85 -108 -32 -43 -68 -81 -81 -84 -18 -5
-40 11 -125 89 -106 99 -282 276 -336 338 -17 20 -31 47 -31 60 0 16 58 82
208 233 114 116 212 214 217 218 21 16 39 6 95 -52z"/>
<path d="M4119 6977 c-18 -12 -47 -43 -64 -67 -28 -43 -30 -50 -30 -150 0 -94
3 -111 28 -160 15 -30 35 -64 45 -75 90 -105 212 -81 262 53 32 84 25 204 -18
287 -61 121 -146 164 -223 112z m128 -56 c48 -44 74 -104 80 -186 8 -108 -2
-158 -41 -200 -49 -51 -86 -49 -142 10 -51 53 -74 119 -74 214 0 127 36 191
107 191 28 0 47 -8 70 -29z"/>
<path d="M5550 6781 c-139 -49 -113 -137 53 -176 142 -34 321 -4 363 61 23 34
-2 75 -63 104 -41 20 -68 24 -173 27 -105 3 -134 0 -180 -16z m324 -18 c45
-18 86 -50 86 -68 0 -22 -45 -53 -99 -69 -143 -42 -389 8 -379 77 11 73 259
111 392 60z"/>
<path d="M2321 6001 c-12 -11 -25 -35 -28 -55 -5 -30 -1 -40 25 -66 47 -46
107 -38 136 19 42 80 -64 161 -133 102z m114 -37 c16 -35 16 -37 -2 -63 -55
-74 -160 1 -107 77 11 16 25 22 53 22 35 0 41 -4 56 -36z"/>
<path d="M1181 713 c-22 -9 -61 -46 -61 -57 0 -8 3 -8 8 0 14 20 56 44 78 44
34 0 74 -47 74 -86 0 -38 2 -39 29 -22 26 16 83 -1 96 -30 5 -12 13 -22 17
-22 11 0 10 5 -3 34 -12 26 -54 46 -95 46 -17 0 -26 9 -35 34 -17 48 -67 75
-108 59z"/>
<path d="M7235 2388 c-44 -16 -92 -55 -122 -98 -25 -39 -26 -39 -54 -25 -72
38 -171 -3 -215 -87 -20 -38 -41 -35 -89 10 -47 45 -92 58 -139 38 -33 -14
-80 -56 -72 -64 3 -2 20 7 38 21 65 49 102 44 175 -24 50 -46 56 -45 108 25
40 51 84 76 135 76 34 0 90 -25 90 -40 0 -24 18 -7 24 23 10 52 79 112 152
133 56 15 65 15 117 0 92 -27 136 -75 164 -181 l13 -50 -5 48 c-9 91 -74 175
-152 196 -47 13 -128 13 -168 -1z"/>
<path d="M2247 1410 c-19 -16 -40 -43 -47 -59 -11 -29 -12 -29 -46 -15 -47 20
-103 17 -141 -6 -32 -19 -33 -19 -43 -1 -16 31 -74 61 -116 61 -61 -1 -87 -29
-92 -101 -3 -37 -9 -59 -17 -59 -15 0 -45 -32 -45 -48 0 -7 5 -12 10 -12 6 0
10 7 10 15 0 8 14 18 32 23 31 8 32 10 29 54 -2 45 11 85 33 100 6 4 28 8 50
8 30 0 45 -7 70 -32 18 -18 35 -39 37 -47 4 -10 15 -7 44 14 33 22 48 26 88
22 26 -2 55 -11 65 -21 25 -22 42 -20 42 4 0 12 7 34 14 49 39 74 132 82 208
17 23 -20 46 -45 50 -54 6 -16 7 -16 7 0 1 24 -52 83 -93 102 -55 26 -110 21
-149 -14z"/>
<path d="M5765 1238 c-85 -30 -163 -137 -166 -228 l-2 -45 -76 0 c-49 0 -93
-7 -123 -18 -61 -23 -108 -77 -107 -120 0 -31 1 -32 11 -7 24 61 36 75 82 99
57 29 147 39 201 21 39 -13 56 -7 37 12 -26 26 -4 120 45 191 32 46 108 87
160 87 21 0 56 -9 79 -19 52 -24 114 -95 114 -133 0 -15 5 -28 10 -28 6 0 10
14 10 31 0 27 24 74 55 104 19 20 75 38 118 37 117 -3 196 -92 197 -222 0 -33
3 -41 10 -30 34 53 -15 184 -88 235 -40 27 -51 30 -122 30 -72 0 -81 -2 -116
-30 -31 -26 -43 -40 -61 -74 -1 -2 -17 14 -35 35 -60 68 -158 98 -233 72z"/>
<path d="M6930 270 c0 -46 3 -81 6 -77 3 3 6 38 6 77 0 39 -3 74 -6 77 -3 4
-6 -31 -6 -77z"/>
<path d="M5566 333 c-10 -10 -7 -143 3 -143 6 0 11 24 13 53 l3 52 25 -37 c14
-21 27 -38 30 -38 3 0 16 17 30 37 l25 37 3 -52 c2 -29 7 -52 13 -52 12 0 12
137 -1 145 -5 3 -22 -14 -37 -39 -15 -26 -30 -46 -34 -46 -3 0 -15 18 -28 40
-24 43 -35 53 -45 43z"/>
<path d="M6058 313 c-3 -24 -7 -28 -29 -25 -51 6 -79 -57 -41 -91 10 -10 33
-17 50 -17 l32 0 0 80 c0 79 -6 105 -12 53z m-6 -60 c8 -36 -3 -54 -31 -51
-26 3 -38 26 -27 54 8 20 54 18 58 -3z"/>
<path d="M6306 333 c-10 -10 -7 -141 3 -148 6 -3 11 19 13 52 l3 57 25 -37
c14 -20 27 -37 30 -37 3 0 16 17 30 38 l25 37 3 -58 c2 -33 7 -55 13 -52 12 8
12 142 0 149 -5 4 -22 -14 -38 -39 -15 -25 -31 -45 -35 -45 -4 0 -13 10 -19
23 -20 36 -46 67 -53 60z"/>
<path d="M6787 328 c-4 -10 -9 -24 -11 -32 -3 -8 -14 -12 -28 -9 -43 8 -69
-55 -38 -92 16 -19 79 -20 86 -2 8 22 0 154 -9 135z m-12 -77 c9 -28 -5 -51
-30 -51 -25 0 -39 23 -30 51 8 25 52 25 60 0z"/>
<path d="M5752 278 c-16 -16 -15 -66 2 -84 18 -17 58 -18 74 -2 7 7 12 26 12
43 0 38 -16 55 -50 55 -14 0 -31 -5 -38 -12z m67 -22 c18 -22 -3 -56 -34 -56
-21 0 -25 5 -25 28 0 16 3 32 7 35 11 12 40 8 52 -7z"/>
<path d="M5860 234 c0 -34 4 -53 10 -49 6 3 10 24 10 46 0 36 2 40 23 37 17
-2 23 -11 25 -38 5 -54 22 -61 22 -9 0 54 -13 69 -57 69 l-33 0 0 -56z"/>
<path d="M6107 283 c-15 -15 -5 -22 23 -16 19 3 30 1 30 -6 0 -6 -13 -14 -30
-17 -29 -6 -47 -34 -35 -54 4 -6 23 -10 43 -8 35 4 37 6 40 42 2 20 -2 44 -9
52 -12 14 -51 19 -62 7z m51 -65 c-5 -15 -48 -24 -48 -10 0 14 12 22 33 22 10
0 17 -5 15 -12z"/>
<path d="M6201 278 c-1 -10 6 -36 15 -58 16 -38 15 -42 -2 -62 -18 -20 -18
-20 -1 -17 18 4 67 104 67 136 0 24 -18 4 -25 -27 -9 -40 -19 -38 -38 8 -8 20
-15 29 -16 20z"/>
<path d="M6497 283 c-14 -14 -6 -19 23 -15 40 6 38 -13 -2 -24 -61 -18 -46
-72 16 -60 29 6 36 11 36 31 0 44 -18 75 -43 75 -13 0 -27 -3 -30 -7z m51 -65
c-5 -15 -48 -24 -48 -10 0 14 12 22 33 22 10 0 17 -5 15 -12z"/>
<path d="M6590 233 c1 -44 3 -54 11 -41 5 10 9 24 8 30 -5 37 2 49 24 46 18
-2 23 -10 25 -46 4 -47 22 -48 22 -1 0 49 -16 69 -55 69 l-35 0 0 -57z"/>
<path d="M6837 283 c-15 -14 -6 -23 12 -13 14 7 22 7 27 -1 8 -13 -5 -26 -31
-31 -14 -2 -20 -11 -20 -28 0 -22 4 -25 40 -25 l40 0 -1 44 c-1 24 -8 47 -15
52 -17 10 -43 12 -52 2z m47 -68 c-6 -16 -44 -21 -44 -7 0 14 12 22 31 22 12
0 16 -5 13 -15z"/>
<path d="M6987 283 c-14 -13 -6 -23 11 -15 18 10 42 5 42 -8 0 -5 -13 -11 -29
-15 -66 -14 -61 -67 5 -62 32 2 34 4 34 39 0 20 -3 43 -6 52 -6 16 -45 22 -57
9z m51 -65 c-5 -15 -58 -24 -58 -10 0 15 12 22 38 22 14 0 22 -5 20 -12z"/>
<path d="M7126 275 c-17 -18 -19 -28 -10 -62 7 -25 34 -37 64 -28 30 10 24 20
-12 20 -30 0 -33 3 -33 30 0 27 3 30 33 30 17 0 31 4 29 10 -6 17 -54 17 -71
0z"/>
<path d="M7236 274 c-34 -33 -9 -94 38 -94 31 0 46 18 46 55 0 17 -5 36 -12
43 -17 17 -54 15 -72 -4z m67 -18 c3 -8 3 -24 0 -36 -4 -16 -12 -20 -32 -18
-26 3 -38 26 -27 54 7 18 52 18 59 0z"/>
<path d="M7342 240 c0 -28 4 -53 9 -56 5 -3 9 15 9 40 0 42 2 46 25 46 23 0
25 -4 25 -40 0 -22 5 -40 10 -40 6 0 10 18 10 41 0 36 2 40 23 37 18 -2 23
-11 28 -48 4 -35 7 -41 14 -26 4 10 4 35 -1 55 l-9 36 -72 2 -72 3 1 -50z"/>
</g>
</svg>
