<?xml version="1.0" standalone="no"?>
<!DOCTYPE svg PUBLIC "-//W3C//DTD SVG 20010904//EN"
 "http://www.w3.org/TR/2001/REC-SVG-20010904/DTD/svg10.dtd">
<svg version="1.0" xmlns="http://www.w3.org/2000/svg"
 width="816.000000pt" height="1056.000000pt" viewBox="0 0 816.000000 1056.000000"
 preserveAspectRatio="xMidYMid meet">
<metadata>
Created by potrace 1.16, written by Peter Selinger 2001-2019
</metadata>
<g transform="translate(0.000000,1056.000000) scale(0.100000,-0.100000)"
fill="#000000" stroke="none">
<path d="M225 10318 c-3 -7 -4 -2283 -3 -5058 l3 -5045 2613 0 c1436 0 2612 3
2612 8 0 4 -758 7 -1684 7 l-1683 0 85 87 c46 49 120 133 164 188 44 55 87
109 97 120 9 11 65 85 125 165 114 151 212 267 307 360 172 168 314 301 418
390 36 30 83 72 105 92 23 21 44 38 49 38 4 0 7 7 7 16 0 12 -7 14 -27 10
-105 -23 -445 -78 -523 -86 -52 -5 -192 -11 -310 -15 -202 -6 -230 -4 -459 24
-134 17 -271 38 -305 47 -107 28 -298 95 -395 141 -52 23 -96 42 -97 40 -9 -9
218 -111 323 -146 196 -65 358 -95 658 -119 121 -10 555 4 680 22 86 12 332
54 390 66 28 6 18 -7 -67 -81 -207 -181 -250 -221 -419 -389 -198 -198 -205
-206 -314 -350 -205 -272 -318 -413 -412 -510 l-101 -105 -911 -3 -911 -2 2
630 3 631 45 19 c138 57 224 84 400 125 107 26 242 62 300 82 95 31 265 109
298 135 30 25 -1 14 -89 -31 -134 -68 -263 -112 -523 -176 -128 -31 -266 -73
-320 -95 -53 -22 -100 -40 -106 -40 -7 0 -10 1456 -10 4395 0 3509 3 4395 13
4395 6 0 1732 1 3835 3 l3822 2 0 -327 c0 -181 0 -331 0 -335 0 -5 -278 -11
-617 -14 -384 -4 -646 -10 -693 -18 -166 -25 -238 -96 -259 -254 -14 -104 -37
-396 -51 -642 -6 -104 -18 -264 -26 -355 -8 -91 -19 -280 -24 -420 -5 -140
-14 -309 -20 -375 -6 -66 -15 -208 -21 -315 -5 -107 -16 -265 -25 -350 -8 -85
-18 -222 -24 -305 -7 -126 -35 -464 -43 -529 -2 -16 -23 -24 -122 -46 -66 -15
-149 -36 -185 -45 -73 -20 -157 -16 -211 8 -54 25 -139 47 -180 47 l-38 0 5
53 c3 28 12 97 20 152 93 642 91 613 59 920 -14 138 -32 318 -40 400 -16 183
-64 351 -172 615 -53 128 -81 167 -131 186 -50 20 -127 14 -166 -11 -26 -17
-96 -108 -96 -124 0 -5 -6 -14 -14 -20 -8 -7 -47 -60 -87 -119 -106 -156 -175
-239 -211 -251 -32 -11 -64 -9 -183 14 -82 16 -277 41 -390 50 -308 24 -584
63 -702 100 -99 31 -124 57 -154 158 -11 40 -27 88 -34 107 -24 62 -115 318
-115 324 0 3 -14 35 -30 70 -34 72 -57 86 -140 86 -57 0 -63 -5 -205 -174 -55
-66 -110 -131 -122 -145 l-21 -26 -6 45 c-3 25 -17 146 -31 270 -40 352 -61
433 -127 484 -43 32 -87 42 -128 28 l-31 -11 -276 274 c-153 151 -280 275
-285 275 -4 0 -35 27 -70 61 -61 59 -64 61 -107 56 -33 -4 -51 -13 -74 -37
-30 -33 -110 -179 -299 -550 -61 -118 -128 -250 -150 -293 -22 -43 -38 -80
-36 -83 5 -5 29 39 148 277 38 74 97 187 132 250 35 63 91 167 124 231 32 65
62 118 67 118 4 0 7 -11 7 -25 0 -39 42 -75 85 -75 41 0 95 44 95 78 0 29 12
34 34 14 12 -11 147 -144 301 -297 l280 -277 -55 -18 c-218 -71 -237 -77 -540
-156 -96 -25 -197 -52 -225 -59 -97 -28 -346 -75 -399 -75 -29 0 -67 -7 -84
-15 -50 -25 -140 -130 -148 -172 -19 -102 30 -854 63 -958 21 -66 76 -118 144
-133 61 -15 277 -16 402 -2 51 5 153 14 227 20 181 14 405 38 515 55 130 20
191 26 197 20 3 -3 2 -23 -3 -43 -4 -20 -33 -185 -64 -367 -31 -181 -67 -395
-81 -475 -14 -80 -29 -169 -34 -199 -5 -29 -12 -56 -14 -59 -3 -3 -50 12 -103
33 -91 35 -108 38 -243 44 -129 7 -188 18 -210 41 -3 3 -43 25 -90 49 -47 25
-105 57 -130 73 -97 61 -164 60 -211 -4 -34 -47 -38 -100 -12 -138 24 -35 35
-42 156 -106 60 -32 114 -62 120 -68 38 -36 103 -80 151 -102 45 -21 81 -27
184 -35 139 -10 317 -40 334 -57 6 -6 8 -28 4 -55 l-7 -44 -187 -7 c-127 -5
-225 -3 -307 6 -228 24 -242 22 -390 -50 -164 -81 -175 -90 -175 -156 1 -55
13 -79 57 -108 42 -27 82 -22 193 22 55 22 122 45 148 51 65 14 186 13 317 -5
71 -10 144 -13 203 -9 65 4 92 3 92 -5 0 -15 -67 -425 -79 -482 -5 -25 -18
-93 -27 -152 -10 -60 -22 -108 -27 -108 -5 0 -21 8 -35 18 -15 11 -58 36 -97
57 -125 67 -179 98 -215 120 -75 46 -302 159 -360 179 -137 46 -285 86 -318
86 -53 0 -81 -16 -126 -71 -45 -56 -142 -229 -158 -281 -17 -56 15 -110 104
-178 39 -30 103 -80 142 -111 88 -69 186 -129 250 -155 26 -10 50 -23 52 -29
6 -16 41 -225 38 -225 -2 0 -12 17 -23 39 -21 40 -139 156 -179 174 -14 6 -26
7 -31 1 -14 -15 -59 -210 -66 -289 -1 -11 2 -33 6 -50 21 -87 22 -82 -21 -83
-49 -2 -76 -18 -91 -54 -18 -43 3 -82 56 -107 40 -19 44 -25 50 -66 4 -25 4
-60 0 -77 -18 -89 -16 -120 24 -324 51 -257 58 -279 93 -309 19 -16 31 -40 39
-76 24 -112 63 -159 166 -198 69 -26 216 -51 305 -51 l67 0 11 -42 c24 -93 35
-114 84 -163 42 -42 65 -56 131 -77 147 -48 223 -59 439 -60 151 0 220 3 276
16 41 9 79 16 84 16 8 0 3 -398 -9 -655 -4 -67 -2 -126 3 -133 5 -8 29 -18 53
-23 56 -13 645 -4 682 10 15 6 32 22 37 36 6 15 10 162 10 348 0 177 3 366 7
420 l6 98 76 -3 76 -3 -1 -105 c0 -58 -6 -242 -12 -410 -7 -168 -10 -318 -6
-333 3 -15 15 -34 27 -41 35 -23 170 -29 449 -21 243 7 262 9 281 28 20 20 20
29 16 456 l-4 436 170 7 c189 7 272 26 338 75 57 44 62 92 12 145 -32 34 -40
57 -65 171 -11 51 -33 135 -49 187 -55 183 -131 482 -124 492 5 10 55 10 143
2 l65 -6 0 -87 c0 -74 4 -94 27 -141 34 -69 74 -111 158 -165 101 -65 210 -83
370 -61 146 20 265 69 414 167 32 21 60 39 63 39 2 0 9 5 16 10 7 6 83 60 170
120 153 107 187 118 90 30 -109 -98 -143 -129 -242 -220 -291 -266 -408 -408
-451 -549 l-17 -55 -149 3 c-138 2 -152 0 -194 -21 -33 -17 -51 -35 -70 -71
-14 -27 -33 -53 -42 -58 -10 -6 -91 -14 -180 -19 -180 -10 -259 -28 -300 -68
-24 -22 -28 -34 -28 -76 0 -63 28 -126 68 -155 51 -36 176 -67 442 -111 225
-37 600 -50 875 -30 199 14 289 27 465 65 184 39 304 83 349 127 95 93 105
229 21 284 -41 27 -164 64 -217 64 -18 0 -33 2 -33 5 0 2 64 69 143 147 164
164 327 336 342 359 6 9 23 36 39 60 52 77 75 134 87 208 17 111 -8 197 -76
266 -19 19 -35 37 -35 41 0 3 18 26 40 51 22 25 42 61 46 79 6 31 14 39 86 74
204 102 421 235 563 344 44 33 146 134 184 180 32 39 70 127 77 179 11 85 10
83 51 80 21 -2 57 -6 81 -9 l42 -5 0 -2423 0 -2424 -22 -6 c-13 -3 -83 -6
-155 -6 -84 0 -133 -4 -133 -10 0 -7 58 -10 168 -8 l167 3 3 5049 c2 4033 0
5051 -10 5058 -7 4 -1742 8 -3856 8 -3065 0 -3844 -3 -3847 -12z m1206 -465
c67 -40 31 -153 -49 -153 -34 0 -72 43 -72 82 0 38 6 48 40 71 31 21 45 21 81
0z m6481 -355 l-3 -110 -57 5 c-31 4 -273 9 -537 13 -355 5 -495 4 -537 -5
-109 -23 -175 -99 -196 -227 -6 -32 -15 -135 -22 -229 -6 -93 -15 -210 -20
-260 -5 -49 -14 -164 -20 -255 -6 -91 -13 -187 -16 -215 -2 -27 -20 -297 -39
-600 -33 -525 -47 -722 -80 -1150 -8 -104 -15 -244 -15 -310 0 -66 -5 -158
-10 -205 -16 -138 -14 -253 6 -292 22 -42 58 -75 111 -99 48 -22 440 -105 546
-115 39 -3 75 -8 78 -10 4 -2 -43 -55 -103 -117 l-110 -113 -147 18 c-433 52
-523 65 -546 84 -13 11 -44 35 -69 54 -26 20 -50 49 -57 68 -13 39 -13 154 1
237 5 33 9 74 9 90 -1 17 -10 -17 -20 -75 -13 -69 -18 -132 -15 -182 2 -43 2
-78 -1 -78 -2 0 -23 13 -46 29 -75 51 -122 70 -218 86 -108 19 -392 91 -429
109 -27 13 -27 18 -15 110 l7 49 91 -5 c67 -4 116 -14 182 -37 111 -38 147
-39 288 -2 62 16 162 35 222 41 152 17 195 45 195 125 0 78 -57 128 -147 128
l-54 0 5 46 c7 59 33 359 41 476 3 50 15 187 25 305 21 228 40 528 65 1010 8
162 22 376 30 475 8 99 22 297 30 440 17 276 39 508 55 581 16 70 47 127 83
151 83 57 247 68 987 70 l475 1 -3 -110z m-384 -115 l382 -6 0 -1989 0 -1988
-107 1 c-60 1 -137 4 -172 8 -57 5 -64 9 -68 29 -11 78 -68 122 -158 122 -74
-1 -117 -16 -201 -71 -79 -51 -70 -51 -329 -3 -388 72 -439 89 -490 166 l-28
43 11 200 c7 110 14 256 17 325 6 151 21 383 35 540 14 161 47 630 60 845 6
99 19 299 30 445 11 146 22 301 25 345 12 175 46 616 56 709 16 159 65 241
160 271 52 16 221 18 777 8z m-5256 -209 c39 -37 54 -73 78 -187 17 -85 63
-433 73 -556 5 -57 3 -60 -105 -175 -35 -38 -56 -101 -68 -206 -6 -58 -15
-109 -20 -114 -10 -10 -317 -55 -380 -56 -40 0 -195 -16 -520 -55 -265 -32
-363 -38 -409 -25 -53 14 -86 45 -100 96 -18 61 -81 736 -81 861 0 55 3 65 31
92 17 17 34 31 39 31 58 0 241 27 335 50 66 16 147 36 180 43 225 54 521 136
658 182 190 64 237 67 289 19z m-1547 -421 c0 -68 31 -444 45 -553 6 -41 15
-121 20 -178 13 -138 26 -178 69 -210 33 -26 39 -27 160 -26 69 1 203 11 296
22 225 28 423 49 515 57 57 4 305 36 385 48 12 2 12 2 1 -78 -9 -72 -22 -107
-38 -104 -14 3 -55 -3 -203 -26 -49 -7 -144 -19 -210 -25 -66 -6 -185 -17
-265 -25 -80 -8 -246 -20 -370 -26 -206 -11 -230 -11 -277 5 -58 19 -104 56
-126 102 -18 34 -30 136 -51 414 -25 322 -30 499 -16 550 9 35 52 110 63 110
1 0 2 -26 2 -57z m2137 -74 c9 -5 26 -35 38 -66 36 -93 129 -360 162 -463 35
-110 48 -132 94 -160 81 -51 366 -105 679 -130 226 -18 330 -30 510 -59 224
-36 216 -39 338 109 16 19 108 152 212 305 64 94 78 105 145 105 47 0 64 -5
84 -22 25 -22 108 -203 140 -303 8 -27 23 -72 31 -100 53 -164 64 -220 79
-395 10 -102 24 -237 31 -300 8 -63 17 -155 21 -204 l7 -89 -59 7 c-32 3 -129
17 -214 31 -176 28 -852 130 -1160 176 -113 16 -272 41 -355 54 -82 13 -175
27 -205 30 -30 4 -93 13 -140 21 -47 8 -157 26 -245 39 -88 13 -236 36 -330
50 -93 14 -231 35 -305 46 -74 12 -155 24 -180 28 l-45 7 2 39 c1 22 9 78 18
125 18 99 83 479 95 562 10 65 12 69 97 164 34 38 101 116 149 174 201 244
200 242 249 234 22 -3 48 -10 57 -15z m-531 -1324 c57 -9 111 -18 119 -20 8
-2 78 -13 155 -25 77 -11 183 -27 235 -35 52 -8 187 -29 300 -45 113 -17 291
-44 395 -61 294 -46 465 -73 925 -144 234 -36 479 -74 545 -84 66 -11 189 -29
273 -42 123 -18 152 -26 152 -39 0 -24 -40 -359 -48 -405 -6 -34 -13 -43 -47
-59 -76 -36 -253 -22 -450 36 -80 24 -157 63 -230 118 -27 21 -61 43 -74 50
-28 15 -80 6 -136 -22 -119 -62 -398 -94 -588 -69 -119 16 -302 64 -390 103
-102 45 -222 126 -292 197 -82 83 -95 88 -192 62 -184 -50 -290 -64 -431 -57
-188 8 -358 54 -424 113 -20 18 -22 2 43 376 13 78 3 75 160 52z m-178 -489
c114 -65 241 -91 452 -91 165 0 174 1 314 38 159 42 156 42 221 -22 152 -150
303 -228 580 -297 79 -19 142 -27 251 -31 221 -8 345 11 511 81 65 28 104 17
173 -47 35 -33 180 -96 277 -121 149 -39 280 -50 356 -31 34 9 66 14 70 11 8
-5 -4 -116 -47 -441 -31 -227 -89 -697 -111 -904 -28 -260 -39 -289 -97 -277
-15 4 -95 15 -178 26 -132 17 -216 29 -485 70 -77 12 -352 51 -605 86 -99 14
-223 31 -275 39 -52 9 -160 24 -240 35 -80 11 -332 47 -560 80 -228 33 -478
69 -555 80 -403 56 -385 52 -385 76 0 11 16 113 35 225 19 112 67 391 106 619
38 228 85 505 104 615 19 110 35 201 35 203 0 6 15 0 53 -22z m-918 -112 c45
-27 125 -71 179 -99 l98 -50 125 -2 c117 -1 133 -4 232 -39 58 -20 109 -40
113 -43 4 -3 1 -42 -6 -86 -14 -93 -1 -89 -166 -57 -58 11 -157 25 -220 30
-110 9 -172 27 -214 63 -44 38 -124 91 -182 120 -38 19 -70 37 -72 42 -2 4 -9
7 -16 7 -23 0 -86 61 -86 84 0 21 24 63 44 79 25 18 93 -2 171 -49z m166 -595
c55 -6 191 -9 313 -7 l216 3 -6 -30 c-4 -16 -9 -52 -13 -80 l-6 -50 -119 -3
c-69 -1 -166 4 -230 13 -187 26 -262 17 -450 -55 -88 -33 -110 -38 -132 -29
-37 13 -53 37 -54 76 0 27 6 37 38 56 20 13 53 29 72 37 19 7 54 24 78 38 61
35 121 52 162 47 19 -2 78 -9 131 -16z m4850 -175 c10 -11 21 -33 25 -50 8
-42 -20 -71 -78 -78 -186 -24 -274 -40 -343 -62 -91 -29 -120 -28 -230 13 -52
19 -97 27 -174 31 l-103 5 6 45 c3 25 6 56 6 70 0 25 0 25 73 19 40 -3 99 -17
134 -30 84 -34 145 -40 218 -23 317 78 353 85 398 82 31 -2 56 -10 68 -22z
m-5423 -389 c42 -13 115 -35 162 -49 81 -24 345 -150 370 -176 3 -3 34 -21 70
-40 204 -110 250 -136 250 -148 0 -7 -12 -29 -27 -49 -48 -63 -152 -255 -180
-333 -14 -41 -28 -77 -29 -79 -2 -2 -56 20 -121 48 -64 29 -177 73 -251 97
-74 24 -151 54 -171 66 -69 40 -116 73 -186 128 -38 30 -96 74 -128 98 -33 24
-57 46 -54 48 2 3 58 -20 122 -51 65 -30 126 -55 136 -55 18 0 59 44 59 63 0
5 30 70 66 144 46 94 63 140 59 154 -7 20 -40 38 -222 119 -51 23 -61 40 -22
40 11 0 54 -11 97 -25z m4553 -9 c49 -20 304 -84 369 -92 30 -4 78 -14 106
-24 66 -21 259 -145 287 -184 41 -58 15 -133 -43 -120 -22 5 -167 89 -180 104
-13 15 -125 52 -234 75 -109 25 -255 70 -350 110 -37 16 -38 18 -32 53 3 20 6
49 6 65 0 31 18 35 71 13z m-4666 -31 l56 -24 -20 -40 -21 -39 -52 20 c-79 30
-82 34 -50 74 15 19 28 34 29 34 1 0 27 -11 58 -25z m6735 -45 c12 -7 8 -10
-15 -10 -50 0 -99 -18 -164 -60 -90 -58 -156 -124 -309 -305 -28 -34 -189
-210 -241 -265 -18 -19 -58 -65 -88 -102 -30 -38 -58 -68 -62 -68 -3 0 -14 7
-23 14 -17 12 -17 14 0 33 40 47 149 169 177 199 17 17 41 45 54 60 249 295
405 439 530 491 59 24 116 29 141 13z m-6568 -34 c20 -9 40 -21 43 -27 8 -12
-25 -89 -37 -89 -5 0 -8 -5 -8 -10 0 -6 -18 -49 -40 -96 -22 -47 -40 -90 -40
-95 0 -16 -29 -10 -81 17 -46 23 -50 28 -44 52 12 49 85 223 105 252 22 31 19
31 102 -4z m-215 -28 c42 -19 44 -21 37 -51 -10 -50 -23 -69 -42 -62 -9 4 -41
16 -69 27 -29 11 -53 23 -53 28 0 4 10 27 22 49 24 45 24 45 105 9z m6836 18
c9 -7 17 -22 17 -32 0 -12 -155 -174 -410 -429 -226 -226 -413 -412 -416 -414
-6 -6 -94 81 -94 93 0 13 56 80 215 256 72 80 166 186 209 235 136 158 272
270 356 296 40 12 104 9 123 -5z m-2058 -97 c50 -23 166 -57 230 -69 136 -24
180 -42 345 -146 61 -37 106 -43 144 -19 32 21 50 67 43 110 -6 39 -6 39 43
25 36 -10 235 -38 480 -66 74 -9 137 -18 139 -20 2 -2 -14 -23 -35 -47 -21
-24 -50 -56 -64 -73 -167 -197 -290 -324 -313 -324 -11 0 -29 -7 -39 -16 -14
-14 -18 -14 -22 -3 -35 119 -91 195 -187 253 -60 37 -70 39 -160 44 -59 3
-118 0 -150 -8 -59 -13 -243 -102 -352 -169 -37 -22 -69 -41 -72 -41 -8 0
-110 -65 -113 -72 -2 -5 -7 -8 -12 -8 -5 0 -46 -25 -91 -56 l-83 -56 -256 2
c-163 0 -286 6 -340 15 -47 7 -129 19 -183 26 -78 10 -100 17 -108 32 -6 10
-9 21 -6 23 2 3 65 -7 138 -20 216 -40 322 -47 498 -36 180 12 224 22 256 56
25 26 53 117 61 191 21 215 56 518 60 524 4 7 65 -15 149 -52z m2407 11 l58 0
0 -136 0 -136 -22 6 c-13 3 -49 6 -81 6 -54 0 -58 2 -68 28 -15 41 -59 82 -87
82 -14 0 -54 -18 -89 -41 l-64 -40 -80 7 c-43 3 -79 8 -79 9 0 2 48 53 108
114 l107 111 119 -5 c66 -3 145 -5 178 -5z m-7244 -52 c28 -12 52 -26 52 -33
0 -23 -22 -75 -32 -75 -17 0 -138 63 -138 72 0 5 7 23 16 39 11 22 20 29 32
24 9 -4 41 -16 70 -27z m7080 -180 c2 -10 -46 -48 -135 -108 -76 -51 -158
-107 -183 -124 -25 -17 -53 -35 -62 -41 -9 -5 -137 -91 -284 -190 -147 -99
-271 -181 -275 -183 -4 -2 -13 7 -20 19 -9 17 -9 24 0 27 6 2 17 9 24 16 55
54 328 249 612 439 116 77 226 151 245 163 30 21 37 22 55 10 11 -7 21 -20 23
-28z m-5733 17 c255 -39 650 -96 910 -130 61 -8 151 -22 200 -30 50 -8 277
-42 505 -74 228 -33 523 -76 655 -95 132 -19 376 -54 543 -77 345 -49 356 -57
87 -66 -177 -6 -249 1 -480 47 -208 42 -515 97 -775 140 -96 15 -195 33 -220
39 -92 21 -385 60 -640 85 -193 19 -328 27 -485 28 l-130 0 -127 49 c-145 55
-188 75 -188 89 0 14 28 12 145 -5z m-180 -31 c69 -42 173 -86 369 -155 103
-36 303 -122 333 -143 7 -5 -144 -493 -158 -509 -11 -14 -127 36 -397 168
-139 69 -256 125 -260 125 -5 0 -26 9 -48 19 -21 10 -65 30 -96 44 l-57 26 24
70 c44 130 194 391 224 391 3 0 33 -16 66 -36z m5663 -2 c27 -8 40 4 -117
-102 -57 -39 -107 -70 -112 -70 -5 0 -9 -4 -9 -8 0 -4 -13 -15 -29 -25 -15 -9
-63 -41 -106 -72 -42 -31 -80 -54 -83 -51 -3 3 71 80 163 171 l168 165 51 -1
c28 -1 61 -4 74 -7z m253 -103 c-22 -107 -102 -219 -225 -314 -22 -16 -51 -39
-65 -51 -41 -32 -148 -102 -241 -157 -86 -50 -324 -177 -332 -177 -11 0 -70
152 -62 159 9 8 360 244 744 502 105 69 179 113 185 108 5 -6 4 -31 -4 -70z
m-5184 -53 c3 -2 -18 -96 -22 -96 -2 0 -52 25 -112 55 l-108 55 120 -6 c66 -4
121 -7 122 -8z m3608 -10 l50 -14 -55 -1 c-112 -2 -189 -35 -413 -175 -162
-102 -418 -274 -502 -338 -5 -5 -45 -33 -88 -63 -88 -62 -231 -180 -264 -219
-13 -14 -39 -58 -60 -98 -37 -73 -37 -74 -38 -195 0 -68 -3 -123 -6 -123 -3 0
-18 25 -34 55 -52 104 -31 236 61 375 40 62 158 186 234 247 19 15 37 30 40
33 3 3 34 27 70 53 36 27 72 54 80 60 72 58 405 260 542 329 167 83 274 104
383 74z m-3150 -31 c209 -26 325 -44 485 -75 52 -10 115 -21 140 -24 25 -3 81
-13 125 -21 44 -8 157 -28 250 -45 276 -49 262 -44 279 -98 8 -26 21 -87 30
-137 46 -260 56 -312 62 -334 6 -21 5 -23 -12 -17 -38 16 -50 17 -77 7 -94
-36 -90 -242 7 -316 18 -14 44 -25 57 -25 27 0 69 25 69 41 0 6 -10 3 -22 -5
-65 -46 -137 11 -158 123 -12 64 0 121 32 151 39 36 101 17 117 -34 22 -72 43
-186 38 -200 -3 -8 -2 -16 2 -18 5 -2 20 -46 35 -98 14 -52 37 -135 51 -185
45 -161 105 -400 105 -419 0 -19 -23 -19 -1272 -12 -700 3 -1274 8 -1276 10
-2 2 5 21 16 43 10 21 24 61 31 88 22 93 178 624 227 770 7 22 34 112 60 200
25 88 61 203 79 255 18 52 49 160 69 240 20 80 39 151 42 159 6 18 127 10 409
-24z m3261 -34 c56 -32 98 -95 118 -175 19 -75 16 -125 -12 -220 -23 -76 -113
-167 -223 -226 -44 -24 -89 -55 -100 -68 -28 -36 -35 -88 -16 -127 l15 -32
-81 -57 c-45 -31 -120 -84 -167 -117 -133 -94 -319 -205 -390 -232 -112 -44
-151 -51 -285 -51 -119 0 -135 2 -185 26 -98 46 -130 92 -138 199 -9 129 42
263 134 354 50 50 102 91 319 252 39 29 401 272 530 355 120 78 150 94 235
125 84 31 186 28 246 -6z m-5146 -86 c14 -3 50 -15 81 -26 l56 -20 13 -77 c7
-42 23 -128 35 -191 13 -62 21 -121 20 -130 -2 -9 -4 -19 -4 -23 -1 -9 -136
-10 -167 -2 -17 5 -23 18 -33 77 -7 40 -17 97 -22 127 -38 216 -46 270 -41
275 3 3 13 3 21 1 9 -2 27 -7 41 -11z m-190 -59 c74 -66 89 -86 123 -153 l27
-52 -43 -15 c-52 -20 -178 -46 -219 -46 l-31 0 7 58 c11 101 50 262 63 262 7
0 40 -24 73 -54z m409 -22 c22 -16 23 -22 18 -83 -12 -132 -20 -191 -26 -191
-3 0 -14 51 -24 113 -11 61 -21 127 -24 145 -5 27 -3 32 13 32 11 0 30 -7 43
-16z m91 -44 c36 -18 76 -56 147 -139 28 -31 63 -101 63 -123 0 -22 -147 -67
-230 -70 l-65 -3 3 35 c5 74 35 320 39 320 2 0 22 -9 43 -20z m5125 -11 c150
-79 311 -378 249 -463 -30 -40 -39 -31 -40 42 -2 158 -117 260 -281 250 -61
-4 -64 -3 -58 16 3 12 9 41 12 65 5 41 15 59 51 97 17 18 20 18 67 -7z m-4985
-52 c19 -8 56 -25 83 -36 l47 -20 -27 -39 -28 -39 -23 33 c-12 19 -27 34 -32
34 -6 0 -10 6 -10 14 0 8 -3 16 -7 18 -5 2 -19 16 -33 32 -14 16 -20 27 -15
24 6 -2 26 -12 45 -21z m2945 -33 c66 -8 154 -20 195 -26 44 -6 152 -8 260 -4
l185 6 -26 -23 c-14 -12 -45 -38 -69 -57 -87 -70 -116 -95 -181 -159 -65 -66
-144 -177 -169 -239 l-13 -33 -124 3 c-115 3 -124 4 -128 23 -61 303 -95 488
-95 518 0 13 6 16 23 12 12 -2 76 -12 142 -21z m-2732 -59 c54 -25 56 -27 76
-93 11 -37 29 -112 40 -167 12 -55 24 -110 27 -122 6 -22 4 -23 -54 -23 -122
0 -116 -5 -164 144 -51 158 -55 221 -19 260 14 14 28 26 32 26 3 0 31 -11 62
-25z m-688 -51 c8 -55 7 -56 -87 -85 -57 -18 -74 -19 -124 -10 -66 13 -69 15
-77 57 -6 31 -6 31 40 33 52 1 167 26 192 41 35 20 48 12 56 -36z m830 -21
l35 -17 -1 -160 c-1 -148 -2 -158 -14 -121 -12 37 -75 295 -75 309 0 10 18 7
55 -11z m4685 -18 c70 -37 110 -110 110 -202 0 -139 -41 -207 -181 -303 -52
-36 -119 -84 -149 -108 -32 -26 -62 -42 -74 -40 -19 3 -21 10 -21 90 0 84 -1
87 -33 121 -18 19 -52 40 -75 46 -85 25 -112 43 -115 80 -4 44 23 73 111 117
44 23 92 59 135 102 76 78 116 108 152 115 35 7 110 -3 140 -18z m-4570 -40
l49 -25 -5 -98 c-3 -53 -7 -110 -8 -127 -1 -17 -7 -30 -14 -29 -6 1 -30 2 -52
3 l-40 1 0 150 c0 97 4 150 10 150 6 0 33 -11 60 -25z m-930 -4 c0 -11 3 -27
6 -35 6 -14 -1 -16 -52 -10 -86 10 -98 20 -41 34 26 7 50 16 53 21 10 17 34 9
34 -10z m555 -53 c9 -29 20 -60 25 -69 5 -9 14 -36 20 -60 6 -24 13 -51 16
-60 4 -14 -4 -15 -91 -3 -136 19 -263 54 -196 54 38 0 193 40 215 56 28 19 20
18 -78 -10 -76 -23 -199 -38 -209 -26 -8 10 -24 101 -18 104 3 2 32 4 65 5 35
1 88 13 135 31 42 15 81 29 88 29 6 1 19 -23 28 -51z m-758 18 c147 -31 266
-46 353 -46 l67 0 10 -45 10 -45 -43 0 c-35 0 -47 -5 -60 -25 -20 -30 -47 -32
-214 -11 -211 27 -294 50 -334 95 -24 27 -15 66 22 85 37 21 54 20 189 -8z
m1298 -36 c33 -15 77 -33 98 -39 38 -13 43 -24 30 -70 -5 -21 -10 -22 -47 -17
-102 17 -186 77 -186 134 0 39 3 38 105 -8z m-76 -69 c22 -25 70 -49 133 -65
46 -12 53 -17 50 -37 -1 -12 -5 -25 -8 -28 -3 -3 -51 -5 -107 -5 l-102 2 -1
68 c-2 89 4 101 35 65z m-1242 -65 c37 -8 130 -20 206 -27 107 -10 137 -16
137 -28 0 -8 17 -30 39 -50 21 -20 40 -48 43 -64 7 -37 -14 -41 -171 -34 -130
6 -301 42 -326 69 -18 18 -25 148 -9 148 7 0 43 -6 81 -14z m505 -5 c143 -51
362 -79 673 -85 127 -2 231 -5 232 -5 1 -1 -9 -31 -21 -68 l-23 -68 -216 2
c-392 4 -696 64 -770 153 -32 38 -33 44 -7 70 25 25 64 25 132 1z m5372 -127
c8 -3 29 -28 47 -56 44 -68 51 -164 20 -256 -19 -56 -63 -138 -80 -152 -4 -3
-18 -21 -31 -40 -61 -89 -488 -510 -667 -657 -224 -184 -468 -235 -599 -123
-49 42 -59 73 -59 179 0 170 42 230 385 541 58 52 161 150 230 216 171 165
234 223 241 219 3 -2 1 -28 -5 -58 -10 -49 -17 -60 -81 -118 -39 -34 -90 -82
-115 -105 -25 -23 -54 -51 -66 -61 -148 -129 -313 -290 -359 -353 -78 -104
-91 -197 -41 -283 40 -68 85 -99 150 -105 60 -5 99 9 186 70 164 113 305 239
531 474 214 224 277 361 219 478 -13 25 -27 46 -32 46 -18 0 -6 33 21 56 17
14 40 40 51 59 22 36 28 39 54 29z m-5941 -24 c61 -36 208 -62 360 -63 l137
-1 0 -31 c0 -17 -11 -46 -24 -66 -38 -56 -40 -92 -11 -199 14 -52 39 -143 54
-202 l29 -108 -46 0 c-62 0 -200 26 -301 57 -129 40 -154 70 -176 218 -13 82
-46 252 -61 307 -12 47 -11 108 2 108 1 0 18 -9 37 -20z m762 -56 c161 -27
361 -43 543 -44 61 0 112 -3 112 -6 0 -19 -45 -171 -54 -183 -9 -11 -41 -13
-171 -8 -261 9 -550 68 -642 130 -28 19 -33 28 -33 62 0 22 -4 54 -9 72 -5 17
-7 34 -4 36 2 3 28 -4 56 -14 29 -11 120 -31 202 -45z m4632 5 c7 -6 13 -17
13 -23 0 -7 -74 -84 -166 -171 -179 -173 -197 -190 -354 -334 -272 -249 -321
-315 -344 -467 -13 -86 -14 -88 -26 -59 -22 50 -24 157 -5 214 42 126 241 350
580 650 28 25 90 82 138 129 81 77 91 84 119 78 17 -3 37 -11 45 -17z m390
-101 c37 -41 48 -89 34 -152 -10 -44 -28 -76 -83 -148 -73 -95 -393 -422 -483
-493 -27 -22 -56 -46 -64 -53 -12 -12 -57 -43 -110 -77 -8 -5 -21 -16 -29 -23
-30 -28 -79 -45 -124 -45 -70 1 -75 11 -20 40 58 30 180 132 352 293 69 64
185 170 258 235 142 127 220 219 248 292 17 43 17 48 1 93 -9 26 -17 50 -17
54 0 13 17 5 37 -16z m-5176 -66 c149 -55 451 -103 627 -101 62 1 115 0 117
-3 2 -2 -22 -94 -54 -203 -32 -110 -61 -212 -64 -226 -4 -15 -27 -54 -52 -88
-27 -36 -45 -72 -45 -88 l0 -26 -112 6 c-189 10 -369 71 -415 139 -12 18 -31
76 -43 128 -12 52 -42 166 -66 252 -45 166 -48 210 -15 255 l16 21 25 -23 c14
-12 50 -32 81 -43z m5123 36 c24 -34 19 -83 -14 -141 -37 -66 -87 -118 -290
-302 -90 -83 -208 -192 -262 -242 -106 -100 -111 -102 -192 -78 -27 8 -82 15
-123 15 l-73 0 25 50 c27 53 195 229 350 366 81 71 185 168 252 233 23 22 25
22 44 5 41 -37 80 -22 204 76 28 22 53 40 57 40 4 0 14 -10 22 -22z m-5491
-462 c49 -14 136 -30 193 -36 114 -10 124 -13 124 -37 0 -32 23 -92 46 -118
13 -16 24 -33 24 -38 0 -15 -192 -1 -270 19 -70 18 -142 51 -176 81 -35 30
-76 193 -41 165 7 -6 52 -22 100 -36z m3594 -245 c12 -8 27 -26 33 -39 9 -21
7 -28 -24 -57 -52 -49 -129 -62 -396 -71 -595 -19 -1872 -9 -2085 16 -139 17
-196 53 -181 114 15 61 -88 57 1334 54 1112 -3 1300 -5 1319 -17z m-3108 -15
c53 -28 197 -58 302 -63 99 -5 108 -8 120 -29 32 -60 110 -82 344 -97 l180
-12 0 -40 0 -40 -55 -13 c-34 -9 -138 -16 -272 -19 -176 -4 -231 -2 -297 11
-178 36 -282 84 -321 148 -11 18 -28 58 -37 88 -8 30 -18 61 -20 68 -7 16 22
15 56 -2z m4239 -57 c83 -20 82 -24 -32 -100 -77 -51 -104 -51 -133 1 -22 38
-30 90 -16 103 10 11 130 8 181 -4z m-540 -5 c18 -5 22 -13 20 -33 -3 -25 -5
-26 -63 -23 -73 4 -181 -14 -209 -35 -20 -14 -20 -15 -1 -9 80 22 120 27 193
24 46 -2 82 -7 82 -13 0 -8 -154 -24 -263 -27 -26 -1 -27 -2 -12 -17 13 -13
42 -16 156 -17 l140 -2 35 -58 c42 -69 105 -132 159 -159 61 -30 192 -33 290
-6 137 38 240 102 401 249 l69 64 70 -5 c144 -11 245 -61 245 -121 0 -25 -50
-76 -95 -99 -66 -33 -289 -85 -450 -106 -44 -6 -141 -19 -215 -28 -170 -23
-846 -25 -1000 -5 -351 48 -486 99 -466 177 13 50 149 85 333 85 89 0 166 16
186 38 8 9 20 33 26 54 11 34 30 49 91 71 21 8 250 8 278 1z m32 -123 c0 -13
-53 -21 -135 -21 -94 0 -130 13 -60 21 81 10 195 10 195 0z m-2076 -24 l28 -2
-2 -325 c-1 -179 -5 -370 -9 -425 l-6 -100 -30 -6 c-45 -10 -638 -10 -653 -1
-10 7 -10 39 -2 163 6 85 13 278 15 429 3 151 5 275 5 275 105 0 634 -6 654
-8z m940 -423 c6 -343 4 -423 -6 -432 -17 -13 -595 -20 -647 -8 l-34 8 7 257
c3 141 9 334 12 429 l7 172 314 -1 c172 -1 316 1 320 5 4 3 10 3 14 -1 3 -5 9
-197 13 -429z m2426 316 c0 -6 -11 -33 -25 -59 -44 -87 -74 -104 -330 -182
-148 -44 -650 -90 -905 -83 -332 10 -798 81 -910 139 -19 10 -39 32 -51 58
-25 56 -25 76 -1 54 47 -43 250 -95 457 -118 55 -6 237 -13 405 -16 267 -5
333 -3 520 16 318 32 492 61 650 107 87 26 170 67 170 84 0 6 5 10 10 10 6 0
10 -5 10 -10z"/>
<path d="M7401 8729 c-23 -63 -48 -130 -56 -149 -26 -66 -309 -853 -318 -885
-3 -11 -12 -38 -21 -60 -53 -143 -85 -239 -81 -243 3 -3 5 -3 5 -1 0 3 34 97
76 209 194 526 255 692 270 737 8 26 29 82 44 123 59 153 130 364 127 373 -1
5 -22 -42 -46 -104z"/>
<path d="M7480 8363 c-37 -99 -340 -1015 -340 -1027 1 -22 42 94 196 559 85
259 160 481 165 494 5 13 8 26 5 28 -2 2 -14 -22 -26 -54z"/>
<path d="M6906 7365 c-9 -26 -7 -32 5 -12 6 10 9 21 6 23 -2 3 -7 -2 -11 -11z"/>
<path d="M2075 9004 c-27 -8 -59 -19 -70 -23 -11 -5 -60 -22 -110 -37 -101
-32 -125 -51 -125 -93 0 -49 38 -83 97 -88 80 -8 92 -28 104 -159 14 -156 36
-247 73 -302 26 -39 37 -47 66 -50 30 -2 42 3 72 33 50 51 55 94 23 215 -32
121 -65 269 -65 292 0 12 13 21 41 28 58 16 89 50 89 97 -1 88 -76 122 -195
87z m115 -4 c33 0 70 -44 70 -83 0 -40 -36 -77 -75 -77 -13 0 -33 -8 -46 -19
l-23 -18 48 -197 c35 -142 47 -207 43 -237 -12 -87 -102 -132 -143 -71 -39 56
-55 119 -68 257 -7 77 -19 152 -26 165 -19 37 -51 60 -87 60 -59 0 -103 36
-103 83 0 13 60 57 78 57 7 0 51 14 100 31 108 39 183 59 200 53 8 -2 22 -4
32 -4z"/>
<path d="M1543 8871 c-60 -15 -118 -62 -127 -103 -3 -12 -2 -48 3 -78 l9 -55
0 45 c0 88 2 99 25 121 12 12 42 30 66 41 90 41 221 -5 267 -94 18 -35 18
-105 -1 -158 -8 -23 -15 -49 -15 -56 0 -8 27 -41 61 -73 57 -56 60 -61 57
-101 -4 -59 -41 -88 -95 -74 -32 8 -46 20 -86 82 -57 84 -83 95 -73 30 3 -24
9 -75 12 -114 6 -68 6 -71 -21 -92 -37 -30 -76 -28 -104 4 -16 19 -26 51 -37
122 -8 53 -23 147 -34 207 -16 92 -19 99 -14 40 3 -38 17 -132 30 -209 22
-130 34 -162 69 -188 21 -16 65 -7 95 19 l32 27 -7 100 c-6 86 -5 98 7 88 8
-6 23 -26 33 -44 44 -81 135 -109 189 -59 46 43 23 138 -40 171 -11 7 -28 25
-38 40 -16 27 -16 33 0 92 20 79 14 126 -22 178 -47 67 -162 110 -241 91z"/>
<path d="M1135 8761 c-87 -40 -115 -92 -140 -261 -46 -312 -58 -432 -44 -456
19 -36 83 -33 137 6 23 17 42 36 42 44 0 8 -14 0 -33 -19 -54 -54 -130 -60
-142 -12 -4 13 3 90 15 173 12 82 28 192 35 244 20 150 32 185 77 230 28 28
52 42 79 46 22 4 39 10 39 15 0 14 -21 10 -65 -10z"/>
<path d="M1228 8747 c12 -13 33 -50 46 -83 14 -32 40 -88 59 -124 19 -36 45
-96 57 -135 12 -38 28 -87 36 -108 8 -20 14 -57 14 -81 0 -37 -5 -48 -31 -70
-17 -14 -41 -26 -53 -26 -25 0 -60 35 -71 71 -12 39 -56 79 -87 79 -33 0 -52
-31 -63 -105 -9 -65 2 -54 15 15 22 116 60 110 141 -22 24 -41 33 -48 60 -48
63 0 116 69 102 132 -16 72 -72 226 -113 313 -26 55 -55 118 -64 140 -18 43
-43 75 -59 75 -6 0 -1 -10 11 -23z"/>
<path d="M1618 8719 c13 -5 26 -18 29 -29 5 -20 23 -28 23 -10 0 17 -39 50
-57 49 -13 0 -12 -3 5 -10z"/>
<path d="M1574 8706 c-3 -8 -4 -27 -2 -43 3 -23 5 -20 9 15 5 43 2 53 -7 28z"/>
<path d="M1646 8643 c-6 -14 -5 -15 5 -6 7 7 10 15 7 18 -3 3 -9 -2 -12 -12z"/>
<path d="M1580 8619 c0 -12 24 -17 45 -9 17 6 15 8 -13 12 -17 2 -32 1 -32 -3z"/>
<path d="M1130 8555 c-15 -18 -24 -86 -16 -119 5 -19 13 -26 31 -26 13 0 26 4
29 8 2 4 -8 8 -22 7 -25 0 -27 3 -30 46 -4 57 25 102 51 80 9 -7 19 -26 22
-42 4 -17 9 -28 12 -25 9 9 -18 74 -33 80 -23 9 -30 7 -44 -9z"/>
<path d="M1186 8455 c-3 -8 -1 -15 4 -15 6 0 10 7 10 15 0 8 -2 15 -4 15 -2 0
-6 -7 -10 -15z"/>
<path d="M2745 8588 c-26 -15 -51 -44 -83 -93 -33 -54 -100 -134 -136 -165
-67 -57 -84 -88 -72 -133 8 -34 62 -54 191 -72 61 -9 152 -23 204 -32 113 -19
141 -11 141 38 0 80 -111 423 -144 444 -32 21 -78 27 -101 13z m68 -19 c29
-13 38 -31 83 -169 47 -143 76 -260 69 -278 -6 -17 -16 -16 -285 23 -96 14
-176 25 -177 25 -1 0 -9 7 -17 16 -29 29 -18 54 62 132 42 43 103 116 134 164
39 58 65 88 80 91 13 2 24 5 25 6 1 0 13 -4 26 -10z"/>
<path d="M5021 8202 c-32 -22 -229 -286 -237 -317 -9 -37 13 -90 43 -104 32
-15 269 -51 333 -51 91 0 102 43 53 210 -57 195 -66 219 -93 249 -32 35 -62
39 -99 13z m69 -12 c26 -14 51 -74 95 -227 51 -178 49 -213 -15 -213 -74 1
-311 39 -339 56 -43 26 -41 64 7 130 20 28 60 82 87 120 59 81 118 144 134
144 7 0 21 -5 31 -10z"/>
<path d="M2765 6475 c-53 -19 -111 -82 -125 -136 -30 -111 36 -216 156 -248
77 -21 177 27 216 104 55 107 6 233 -108 281 -42 18 -88 17 -139 -1z m132 -36
c64 -24 112 -114 98 -185 -10 -57 -77 -120 -136 -129 -152 -23 -250 161 -146
274 43 46 122 64 184 40z"/>
<path d="M2870 6403 c-51 -20 -30 -123 25 -123 47 0 77 98 36 120 -21 11 -37
12 -61 3z m58 -56 c-4 -38 -30 -56 -52 -38 -24 20 -20 66 7 78 30 14 49 -2 45
-40z"/>
<path d="M4435 6194 c-70 -36 -105 -91 -105 -166 0 -181 234 -248 333 -95 59
91 19 221 -80 263 -43 18 -111 18 -148 -2z m174 -58 c52 -50 61 -142 18 -197
-22 -29 -81 -59 -116 -59 -73 0 -151 78 -151 150 0 41 39 107 73 124 51 26
139 17 176 -18z"/>
<path d="M4516 6116 c-32 -31 -33 -69 -4 -96 29 -27 69 -25 96 3 27 28 28 58
5 85 -30 35 -68 38 -97 8z m72 -12 c28 -19 29 -60 1 -74 -52 -28 -102 28 -64
70 22 24 34 25 63 4z"/>
<path d="M3422 6088 c-9 -11 -10 -23 -3 -40 15 -39 130 -167 157 -174 30 -8
30 -23 2 -60 -37 -47 -59 -61 -116 -74 -93 -21 -176 3 -230 65 -12 14 -27 23
-32 20 -19 -12 -10 -38 25 -70 78 -74 229 -86 325 -27 l50 31 14 -28 c19 -36
64 -83 96 -99 43 -21 116 -30 173 -20 63 11 114 46 104 72 -6 16 -9 16 -34 -2
-83 -57 -176 -54 -256 8 -43 34 -59 74 -51 126 7 50 1 46 123 85 91 28 149 76
132 108 -13 24 -14 24 -171 56 -165 34 -291 43 -308 23z m238 -48 c220 -33
235 -42 143 -83 -75 -33 -128 -47 -180 -47 -37 0 -45 5 -74 43 -18 23 -44 52
-56 64 -51 49 -30 52 167 23z"/>
<path d="M2929 4837 c-44 -29 -59 -60 -59 -122 0 -89 54 -145 140 -145 117 0
187 117 130 219 -41 71 -142 95 -211 48z m138 -4 c20 -9 44 -30 54 -47 22 -36
24 -100 5 -134 -35 -63 -133 -82 -192 -37 -98 75 -43 226 84 234 8 1 30 -7 49
-16z"/>
<path d="M3965 4688 c69 -25 106 -110 82 -188 l-8 -25 15 25 c19 32 20 68 1
113 -17 42 -69 87 -98 86 -18 0 -17 -2 8 -11z"/>
<path d="M3905 4670 c-27 -29 -24 -105 4 -151 25 -42 73 -69 105 -61 17 5 14
7 -16 12 -46 8 -65 24 -84 68 -18 44 -18 89 0 125 18 32 15 34 -9 7z"/>
<path d="M2524 4380 c-58 -23 -111 -147 -98 -229 19 -116 123 -104 176 19 24
54 22 171 -2 194 -21 20 -51 26 -76 16z m70 -54 c17 -36 18 -45 7 -99 -12 -60
-48 -119 -83 -138 -28 -15 -56 6 -69 54 -10 35 -9 53 5 107 31 118 101 156
140 76z"/>
<path d="M3465 4277 c-99 -46 -132 -157 -73 -243 62 -91 211 -86 269 10 23 38
25 113 3 159 -32 66 -133 104 -199 74z m151 -38 c119 -110 18 -296 -135 -251
-59 18 -94 62 -98 124 -8 101 54 163 155 155 38 -3 59 -10 78 -28z"/>
<path d="M2814 3741 c-113 -71 -139 -245 -50 -335 78 -78 205 -42 257 72 27
59 24 173 -6 213 -50 66 -140 89 -201 50z m160 -32 c45 -39 65 -120 46 -183
-39 -130 -168 -188 -242 -108 -39 41 -48 66 -48 125 0 60 17 109 52 148 34 38
58 48 110 49 39 0 54 -6 82 -31z"/>
<path d="M4060 3699 c-62 -25 -93 -79 -93 -163 0 -113 55 -194 138 -204 39 -4
50 -1 71 19 14 13 32 36 40 51 20 39 18 154 -5 203 -17 38 -72 95 -91 95 -5 0
-14 2 -22 4 -7 3 -24 0 -38 -5z m102 -50 c57 -67 73 -170 38 -239 -38 -74
-102 -82 -160 -21 -59 62 -75 165 -38 246 28 62 113 70 160 14z"/>
<path d="M5916 4719 c-53 -13 -156 -60 -156 -70 0 -5 -5 -9 -11 -9 -6 0 -38
-18 -70 -40 -32 -22 -63 -40 -68 -40 -5 0 -11 -4 -13 -8 -1 -5 -37 -31 -78
-58 -41 -27 -79 -52 -85 -57 -5 -4 -61 -45 -123 -91 -229 -170 -292 -228 -323
-299 -30 -68 -32 -168 -5 -212 51 -79 101 -100 220 -92 111 7 191 41 322 139
28 21 56 38 62 38 7 0 12 4 12 8 0 4 13 16 30 25 16 10 35 24 42 31 8 7 33 25
56 40 53 33 191 135 251 185 108 89 164 159 196 244 31 83 1 189 -71 243 -40
31 -118 41 -188 23z m150 -71 c16 -32 15 -101 -3 -119 -4 -4 -53 3 -108 16
-55 14 -121 28 -147 31 -27 4 -48 10 -48 14 0 12 48 40 109 66 37 15 77 23
118 24 60 0 63 -1 79 -32z m72 -99 c9 -100 -64 -214 -212 -326 -33 -26 -63
-50 -66 -53 -11 -11 -79 -60 -85 -60 -3 0 -11 -5 -18 -10 -32 -28 -138 -100
-146 -100 -5 0 -11 -4 -13 -8 -9 -23 -229 -164 -288 -185 -46 -16 -160 -33
-160 -23 0 3 17 14 38 25 20 10 88 53 150 95 62 42 117 76 122 76 5 0 10 4 12
8 2 4 46 37 98 73 250 171 309 217 411 318 95 95 119 137 119 214 0 51 0 51
17 28 9 -13 18 -46 21 -72z m-234 -40 c72 -16 132 -32 135 -34 8 -9 -142 -150
-224 -212 -44 -33 -142 -102 -217 -153 l-137 -93 -178 8 c-98 4 -193 7 -210 6
-82 -4 -13 70 242 261 159 118 261 188 274 188 5 0 11 4 13 8 2 5 20 20 41 34
46 31 73 29 261 -13z m-619 -532 l100 -12 -30 -20 c-33 -22 -39 -26 -136 -85
-114 -70 -162 -72 -192 -7 -17 35 -23 118 -10 130 10 10 155 7 268 -6z"/>
<path d="M6524 4240 c-11 -4 -34 -24 -52 -44 -37 -42 -45 -108 -15 -124 35
-20 101 16 129 70 23 45 18 87 -12 98 -14 6 -26 10 -27 9 -1 0 -11 -4 -23 -9z
m56 -47 c0 -47 -81 -126 -110 -108 -25 16 -4 87 34 115 47 35 76 32 76 -7z"/>
<path d="M2760 2600 c-132 -45 -195 -190 -136 -315 44 -95 120 -139 228 -133
80 4 134 37 183 108 26 39 30 54 30 115 0 81 -17 123 -70 177 -38 38 -108 68
-154 68 -14 -1 -51 -9 -81 -20z m120 -33 c0 -7 -5 -24 -12 -38 -9 -20 -23 -27
-72 -37 -64 -12 -86 -30 -86 -69 0 -20 -5 -23 -36 -23 -36 0 -37 0 -31 35 8
47 50 99 100 124 48 24 137 29 137 8z m96 -47 c21 -22 44 -54 51 -72 13 -38
17 -98 6 -98 -5 0 -37 15 -71 33 -55 27 -66 38 -77 72 -12 34 -12 43 2 72 20
43 42 42 89 -7z m-111 -70 c8 -16 15 -47 15 -68 0 -36 -3 -40 -39 -57 -53 -23
-83 -15 -99 28 -29 82 -4 127 70 127 31 0 40 -5 53 -30z m99 -86 c54 -30 60
-38 52 -67 -6 -25 -42 -67 -57 -67 -5 0 -14 12 -20 28 -6 15 -17 40 -25 56
-15 31 -18 59 -7 69 8 9 4 11 57 -19z m-239 -11 c3 -16 13 -36 22 -45 12 -13
14 -28 9 -63 -6 -38 -10 -44 -24 -36 -51 28 -92 93 -92 146 0 22 4 25 39 25
34 0 40 -3 46 -27z m175 -33 c0 -6 9 -30 20 -52 11 -23 20 -46 20 -50 0 -16
-72 -39 -114 -37 -56 3 -63 11 -57 59 6 39 9 43 61 65 65 27 70 28 70 15z"/>
<path d="M3691 2648 c-51 -14 -118 -64 -146 -109 -75 -118 -43 -274 73 -352
169 -114 402 10 402 213 0 169 -168 295 -329 248z m144 -38 c20 -8 25 -15 20
-28 -4 -9 -10 -30 -13 -45 -4 -26 -8 -28 -35 -23 -16 3 -42 6 -56 6 -23 0 -28
6 -38 42 -6 23 -9 46 -7 50 7 11 98 10 129 -2z m-141 -41 c8 -43 8 -69 -2 -69
-12 0 -44 78 -37 90 12 20 33 9 39 -21z m-21 -129 c-5 -36 -12 -46 -52 -71
-58 -36 -71 -36 -72 -1 -3 90 12 141 59 187 l26 26 22 -50 c16 -36 21 -61 17
-91z m260 100 c52 -61 62 -150 27 -228 -19 -41 -47 -78 -54 -71 -16 17 -55
146 -60 194 -6 65 16 145 40 145 7 0 28 -18 47 -40z m-112 -57 c3 -5 9 -32 12
-61 5 -44 3 -56 -13 -72 -48 -48 -119 -12 -127 63 -6 50 5 73 42 87 20 7 73
-3 86 -17z m-133 -127 c6 -13 20 -27 31 -31 23 -7 26 -30 15 -97 -7 -43 -19
-46 -67 -22 -37 19 -97 80 -97 99 0 11 86 75 101 75 3 0 11 -11 17 -24z m180
-72 c12 -33 16 -57 10 -67 -10 -19 -115 -44 -127 -31 -4 5 -5 36 -2 69 6 58 7
60 36 63 17 2 37 8 45 12 18 10 14 15 38 -46z"/>
<path d="M6665 2173 c-101 -13 -459 -92 -451 -100 2 -2 62 9 132 26 180 41
276 59 367 67 l77 6 0 -31 c0 -17 7 -47 15 -66 14 -35 79 -139 100 -161 6 -6
31 -35 56 -64 44 -53 75 -79 319 -274 121 -97 209 -180 210 -198 0 -3 -39 -9
-87 -13 -168 -12 -334 -51 -635 -149 -345 -113 -636 -173 -879 -183 -222 -9
-451 21 -774 103 -377 94 -664 144 -835 144 l-74 0 31 33 c65 68 140 189 227
363 l91 180 50 -18 c92 -33 554 -18 801 27 144 26 548 124 540 132 -2 2 -68
-12 -147 -31 -416 -100 -725 -142 -994 -134 -134 4 -168 8 -207 26 -54 24 -54
24 -93 -63 -114 -254 -249 -470 -321 -515 -13 -8 -24 -17 -24 -20 0 -3 42 -4
93 -2 167 7 384 -27 782 -123 361 -87 595 -125 775 -125 246 0 584 68 990 199
291 94 424 124 653 147 38 4 57 10 57 19 0 22 -91 116 -170 174 -93 69 -233
186 -318 266 -115 108 -208 245 -219 321 l-6 44 -51 -1 c-28 -1 -64 -4 -81 -6z"/>
<path d="M6150 2060 c-11 -8 -7 -9 15 -4 37 8 45 14 19 14 -10 0 -26 -5 -34
-10z"/>
<path d="M6010 2020 c-30 -11 -48 -19 -40 -19 8 0 42 8 75 19 33 10 51 19 40
18 -11 0 -45 -8 -75 -18z"/>
<path d="M6018 1854 c-15 -8 -35 -28 -43 -44 l-15 -29 -42 24 c-88 47 -165 41
-189 -16 -8 -22 -16 -28 -28 -23 -9 3 -36 11 -61 17 -93 20 -266 -46 -318
-123 -61 -90 25 -180 171 -180 47 0 47 0 40 -27 -13 -44 -9 -118 6 -147 23
-42 110 -80 171 -74 58 6 114 40 131 81 11 25 29 37 29 19 0 -5 12 -22 28 -39
54 -60 161 -68 203 -15 18 23 20 36 16 84 l-5 56 54 -5 c66 -7 123 15 147 57
22 37 21 66 -4 106 -24 39 -49 55 -99 64 -19 3 -34 12 -32 18 1 7 -2 12 -8 12
-6 0 -10 -7 -10 -15 0 -8 -4 -15 -10 -15 -5 0 -10 -4 -10 -10 0 -5 20 -7 48
-3 44 5 50 3 87 -30 34 -30 40 -41 40 -76 0 -62 -32 -86 -115 -86 -36 0 -75 4
-87 8 -22 8 -22 7 -16 -75 5 -80 5 -84 -18 -95 -68 -33 -148 -13 -183 46 -22
37 -23 40 -25 67 -2 25 -18 7 -25 -28 -7 -40 -47 -85 -92 -104 -40 -17 -65
-18 -114 -3 -99 30 -135 123 -86 221 9 17 16 32 16 33 0 1 -17 -2 -38 -8 -76
-20 -180 16 -208 72 -42 83 95 190 252 199 57 3 79 0 111 -17 l41 -20 6 30 c3
17 12 37 20 45 28 27 117 12 180 -31 20 -14 39 -25 41 -25 3 0 5 13 5 28 0 42
42 77 89 76 72 -2 95 -29 111 -129 l8 -50 1 48 c3 113 -84 179 -171 131z"/>
<path d="M5769 1676 c-25 -6 -59 -22 -77 -34 -30 -22 -50 -58 -38 -69 3 -4 6
0 6 9 0 18 35 50 79 73 47 24 177 24 217 0 l29 -17 -24 20 c-40 33 -113 40
-192 18z"/>
<path d="M5992 1605 c0 -16 2 -22 5 -12 2 9 2 23 0 30 -3 6 -5 -1 -5 -18z"/>
<path d="M1312 1550 c-37 -23 -71 -88 -72 -137 0 -18 -2 -33 -5 -33 -2 0 -35
16 -72 35 -68 36 -188 65 -263 65 -120 0 -210 -53 -210 -124 0 -48 22 -99 65
-152 39 -48 42 -54 19 -54 -23 0 -75 -31 -102 -60 -52 -57 -67 -99 -67 -195 0
-77 4 -96 25 -135 14 -24 45 -58 68 -75 38 -26 52 -30 105 -29 36 0 75 7 93
17 33 17 46 14 37 -9 -3 -8 -2 -34 1 -59 12 -79 102 -152 200 -162 101 -10
202 59 236 163 11 31 30 47 30 25 0 -20 81 -90 124 -106 90 -35 275 -1 330 59
38 43 38 99 2 144 -34 41 -75 77 -141 126 l-20 15 20 6 c52 18 127 61 159 91
93 88 89 221 -10 321 -75 76 -144 88 -220 38 -31 -20 -34 -19 -34 13 0 33 -40
115 -75 154 -68 77 -154 100 -223 58z m157 -15 c68 -46 131 -151 131 -220 l0
-36 44 31 c76 52 157 33 230 -52 63 -73 72 -172 23 -247 -31 -46 -108 -97
-184 -121 l-56 -17 77 -52 c126 -85 166 -165 114 -226 -35 -39 -129 -68 -223
-69 -75 -1 -83 2 -130 32 -27 19 -63 51 -79 73 -17 21 -33 39 -36 39 -3 0 -11
-19 -17 -42 -16 -58 -67 -125 -114 -148 -50 -26 -139 -26 -194 -1 -81 36 -114
103 -102 203 l6 51 -22 -20 c-37 -35 -67 -45 -127 -45 -61 0 -102 16 -136 54
-105 114 -69 335 65 403 18 9 42 15 52 12 27 -7 34 11 12 31 -39 35 -91 113
-97 146 -9 48 15 100 56 123 26 14 55 18 138 18 133 -1 198 -17 283 -71 65
-43 106 -59 79 -32 -18 18 -14 77 8 125 36 81 125 106 199 58z"/>
<path d="M1208 1160 c-62 -11 -142 -55 -173 -96 -19 -24 -25 -45 -25 -80 0
-43 4 -51 44 -90 106 -101 333 -100 447 3 45 41 65 95 51 134 -13 32 -60 89
-75 89 -6 0 -1 -7 11 -16 12 -8 32 -34 43 -56 20 -39 20 -42 4 -84 -21 -55
-65 -90 -146 -115 -109 -34 -209 -23 -300 33 -54 33 -78 82 -65 134 11 41 67
89 133 114 72 27 201 30 258 6 46 -19 50 -20 33 -3 -15 15 -117 38 -162 36
-17 -1 -52 -5 -78 -9z"/>
<path d="M5930 1541 c-39 -23 -56 -26 -132 -26 -58 0 -80 -3 -65 -8 56 -22
218 14 242 53 8 13 8 13 -45 -19z"/>
<path d="M6930 270 c0 -46 3 -81 6 -77 3 3 6 38 6 77 0 39 -3 74 -6 77 -3 4
-6 -31 -6 -77z"/>
<path d="M5566 333 c-10 -10 -7 -143 3 -143 6 0 11 24 13 53 l3 52 25 -37 c14
-21 27 -38 30 -38 3 0 16 17 30 37 l25 37 3 -52 c2 -29 7 -52 13 -52 12 0 12
137 -1 145 -5 3 -22 -14 -37 -39 -15 -26 -30 -46 -34 -46 -3 0 -15 18 -28 40
-24 43 -35 53 -45 43z"/>
<path d="M6058 313 c-3 -24 -7 -28 -29 -25 -51 6 -79 -57 -41 -91 10 -10 33
-17 50 -17 l32 0 0 80 c0 79 -6 105 -12 53z m-6 -60 c8 -36 -3 -54 -31 -51
-26 3 -38 26 -27 54 8 20 54 18 58 -3z"/>
<path d="M6307 333 c-11 -10 -8 -141 2 -148 6 -3 11 19 13 52 l3 58 25 -37
c14 -21 27 -38 30 -38 3 0 16 17 30 38 l25 37 3 -58 c2 -33 7 -55 13 -52 12 8
12 142 0 149 -5 4 -22 -14 -38 -39 -15 -25 -30 -45 -33 -45 -3 1 -19 21 -36
45 -17 25 -33 42 -37 38z"/>
<path d="M6787 328 c-4 -10 -9 -24 -11 -32 -3 -8 -14 -12 -28 -9 -43 8 -69
-55 -38 -92 16 -19 79 -20 86 -2 8 22 0 154 -9 135z m-12 -77 c9 -28 -5 -51
-30 -51 -25 0 -39 23 -30 51 8 25 52 25 60 0z"/>
<path d="M5752 278 c-16 -16 -15 -66 2 -84 18 -17 58 -18 74 -2 7 7 12 26 12
43 0 38 -16 55 -50 55 -14 0 -31 -5 -38 -12z m67 -22 c18 -22 -3 -56 -34 -56
-21 0 -25 5 -25 28 0 16 3 32 7 35 11 12 40 8 52 -7z"/>
<path d="M5860 234 c0 -34 4 -53 10 -49 6 3 10 24 10 46 0 36 2 40 23 37 17
-2 23 -11 25 -38 5 -54 22 -61 22 -9 0 54 -13 69 -57 69 l-33 0 0 -56z"/>
<path d="M6107 283 c-15 -15 -5 -22 23 -16 19 3 30 1 30 -6 0 -6 -13 -14 -30
-17 -29 -6 -47 -34 -35 -54 4 -6 23 -10 43 -8 35 4 37 6 40 42 2 20 -2 44 -9
52 -12 14 -51 19 -62 7z m51 -65 c-5 -15 -48 -24 -48 -10 0 14 12 22 33 22 10
0 17 -5 15 -12z"/>
<path d="M6201 278 c-1 -10 6 -36 15 -58 16 -38 15 -42 -2 -62 -18 -20 -18
-20 -1 -17 18 4 67 104 67 136 0 24 -18 4 -25 -27 -9 -40 -19 -38 -38 8 -8 20
-15 29 -16 20z"/>
<path d="M6497 283 c-14 -14 -6 -19 23 -15 40 6 38 -13 -2 -24 -61 -18 -46
-72 16 -60 29 6 36 11 36 31 0 44 -18 75 -43 75 -13 0 -27 -3 -30 -7z m51 -65
c-5 -15 -48 -24 -48 -10 0 14 12 22 33 22 10 0 17 -5 15 -12z"/>
<path d="M6590 233 c1 -44 3 -54 11 -41 5 10 9 24 8 30 -5 37 2 49 24 46 18
-2 23 -10 25 -46 4 -47 22 -48 22 -1 0 49 -16 69 -55 69 l-35 0 0 -57z"/>
<path d="M6837 283 c-15 -14 -6 -23 12 -13 14 7 22 7 27 -1 8 -13 -5 -26 -31
-31 -14 -2 -20 -11 -20 -28 0 -22 4 -25 40 -25 l40 0 -1 44 c-1 24 -8 47 -15
52 -17 10 -43 12 -52 2z m47 -68 c-6 -16 -44 -21 -44 -7 0 14 12 22 31 22 12
0 16 -5 13 -15z"/>
<path d="M6987 283 c-14 -13 -6 -23 11 -15 18 10 42 5 42 -8 0 -5 -13 -11 -29
-15 -66 -14 -61 -67 5 -62 32 2 34 4 34 39 0 20 -3 43 -6 52 -6 16 -45 22 -57
9z m51 -65 c-5 -15 -58 -24 -58 -10 0 15 12 22 38 22 14 0 22 -5 20 -12z"/>
<path d="M7126 275 c-17 -18 -19 -28 -10 -62 7 -25 34 -37 64 -28 30 10 24 20
-12 20 -30 0 -33 3 -33 30 0 27 3 30 33 30 17 0 31 4 29 10 -6 17 -54 17 -71
0z"/>
<path d="M7236 274 c-34 -33 -9 -94 38 -94 31 0 46 18 46 55 0 17 -5 36 -12
43 -17 17 -54 15 -72 -4z m67 -18 c3 -8 3 -24 0 -36 -4 -16 -12 -20 -32 -18
-26 3 -38 26 -27 54 7 18 52 18 59 0z"/>
<path d="M7342 240 c0 -28 4 -53 9 -56 5 -3 9 15 9 40 0 42 2 46 25 46 23 0
25 -4 25 -40 0 -22 5 -40 10 -40 6 0 10 18 10 41 0 36 2 40 23 37 18 -2 23
-11 28 -48 4 -35 7 -41 14 -26 4 10 4 35 -1 55 l-9 36 -72 2 -72 3 1 -50z"/>
</g>
</svg>
