<?xml version="1.0" standalone="no"?>
<!DOCTYPE svg PUBLIC "-//W3C//DTD SVG 20010904//EN"
 "http://www.w3.org/TR/2001/REC-SVG-20010904/DTD/svg10.dtd">
<svg version="1.0" xmlns="http://www.w3.org/2000/svg"
 width="816.000000pt" height="1056.000000pt" viewBox="0 0 816.000000 1056.000000"
 preserveAspectRatio="xMidYMid meet">
<metadata>
Created by potrace 1.16, written by Peter Selinger 2001-2019
</metadata>
<g transform="translate(0.000000,1056.000000) scale(0.100000,-0.100000)"
fill="#000000" stroke="none">
<path d="M225 10318 c-3 -7 -4 -2283 -3 -5058 l3 -5045 2613 0 c1436 0 2612 3
2612 8 0 4 -1172 7 -2605 7 l-2605 0 0 5035 c0 4021 3 5035 13 5035 6 0 1732
1 3835 3 l3822 2 0 -5031 0 -5032 -22 -6 c-13 -3 -83 -6 -155 -6 -84 0 -133
-4 -133 -10 0 -7 58 -10 168 -8 l167 3 3 5049 c2 4033 0 5051 -10 5058 -7 4
-1742 8 -3856 8 -3065 0 -3844 -3 -3847 -12z"/>
<path d="M5231 10053 c-44 -90 -75 -129 -144 -179 -68 -51 -177 -95 -308 -124
-52 -12 -100 -24 -106 -26 -22 -6 -14 -24 10 -24 29 0 108 -48 158 -95 80 -76
157 -218 194 -360 16 -63 25 -78 33 -56 9 25 77 82 140 118 76 43 173 74 305
97 111 20 120 31 55 73 -99 62 -181 158 -246 288 -58 117 -76 212 -58 313 4
23 6 42 4 42 -2 0 -18 -30 -37 -67z m13 -131 c4 -29 11 -63 15 -75 40 -100 58
-139 89 -187 41 -65 133 -163 179 -191 18 -12 31 -24 28 -29 -3 -4 -26 -11
-52 -14 -137 -20 -308 -86 -387 -150 -23 -20 -45 -36 -48 -36 -3 0 -17 37 -32
83 -45 143 -152 301 -242 353 -24 14 -44 29 -44 32 0 4 40 17 89 29 158 38
285 114 351 210 39 56 44 54 54 -25z"/>
<path d="M6608 9949 c-71 -20 -148 -106 -148 -164 0 -27 0 -27 -59 -20 -68 8
-164 -13 -219 -47 -52 -32 -92 -102 -92 -160 0 -27 7 -63 17 -81 22 -43 79
-94 120 -108 l33 -11 -34 -40 c-45 -52 -62 -119 -47 -188 24 -109 90 -170 188
-170 50 0 67 5 113 34 56 35 75 37 85 6 10 -31 72 -78 117 -91 74 -19 171 2
216 49 51 53 67 120 48 203 l-8 36 47 1 c26 1 63 10 82 18 71 34 133 139 133
226 0 114 -100 209 -224 214 l-61 3 3 38 c4 47 -30 142 -65 184 -52 61 -160
92 -245 68z m169 -40 c94 -46 144 -177 100 -266 -13 -29 -5 -38 21 -24 36 19
133 13 176 -12 102 -59 133 -163 79 -267 -40 -79 -98 -120 -168 -120 -63 0
-80 -15 -65 -54 17 -46 12 -115 -12 -158 -29 -52 -82 -79 -156 -80 -74 -2
-124 22 -163 78 -16 24 -37 44 -45 44 -18 0 -53 -18 -72 -36 -15 -16 -77 -34
-115 -34 -78 0 -157 95 -157 190 0 55 19 100 62 145 21 22 38 45 38 51 0 6
-14 14 -32 18 -135 27 -199 167 -120 265 75 94 251 129 324 64 15 -14 16 -10
15 45 -2 53 1 64 29 99 17 21 46 46 65 55 48 25 141 24 196 -3z"/>
<path d="M6614 9579 c-17 -5 -46 -24 -65 -43 -82 -85 -75 -202 17 -273 29 -21
50 -28 98 -31 53 -3 66 0 103 24 120 79 110 248 -19 315 -39 20 -83 23 -134 8z
m136 -39 c76 -39 103 -142 55 -212 -49 -72 -116 -94 -193 -63 -79 32 -114 132
-76 216 33 73 132 101 214 59z"/>
<path d="M3513 9841 c-23 -11 -49 -32 -59 -48 -10 -15 -19 -30 -20 -32 -2 -2
-15 5 -31 16 -62 42 -169 55 -228 28 -17 -9 -45 -30 -61 -46 -25 -26 -29 -38
-29 -89 0 -50 5 -65 32 -104 l32 -45 -34 -21 c-121 -75 -122 -254 -1 -317 22
-11 45 -13 97 -8 l69 7 0 -30 c0 -72 90 -142 185 -142 71 0 127 47 146 120 10
38 17 49 28 45 36 -14 101 -16 135 -5 72 23 136 114 136 190 -1 66 -87 170
-142 170 -21 0 -23 16 -3 50 17 30 19 105 4 151 -16 47 -56 88 -107 110 -55
24 -96 24 -149 0z m139 -15 c40 -17 87 -61 99 -94 5 -13 9 -50 9 -82 0 -52 -4
-64 -31 -95 l-31 -35 27 0 c41 0 107 -37 133 -74 45 -65 41 -144 -10 -202 -54
-62 -95 -71 -215 -48 -31 6 -33 4 -33 -20 0 -39 -24 -89 -56 -120 -23 -21 -39
-26 -77 -26 -91 0 -157 51 -171 132 l-7 38 -85 -3 -85 -2 -34 37 c-79 86 -46
205 72 259 l43 20 -44 42 c-77 74 -72 165 11 222 25 17 51 25 79 25 59 0 143
-28 169 -56 27 -29 35 -30 35 -5 0 26 38 71 74 87 41 17 85 17 128 0z"/>
<path d="M3445 9569 c-120 -35 -140 -214 -30 -268 46 -22 97 -24 135 -4 109
56 107 214 -3 263 -46 21 -57 22 -102 9z m106 -32 c42 -28 59 -60 59 -115 0
-34 -6 -49 -33 -78 -28 -31 -42 -37 -84 -41 -47 -5 -52 -3 -91 34 -37 35 -42
45 -42 83 0 53 29 102 73 124 45 22 78 20 118 -7z"/>
<path d="M1414 9681 c-65 -39 -78 -88 -48 -169 14 -36 15 -46 4 -67 -7 -14
-19 -25 -26 -25 -19 0 -64 22 -64 31 0 15 -68 31 -89 20 -40 -22 -61 -61 -61
-115 0 -94 53 -140 141 -122 22 4 31 1 36 -11 10 -26 -25 -43 -91 -43 -37 -1
-68 -6 -80 -15 -23 -17 -34 -102 -17 -133 6 -11 45 -42 85 -69 66 -42 96 -74
96 -102 0 -4 -21 -9 -47 -10 -65 -2 -125 -33 -202 -107 -105 -98 -171 -251
-171 -392 0 -121 70 -281 162 -371 77 -76 124 -95 233 -94 101 1 176 22 255
73 100 64 192 215 232 378 18 77 19 95 9 156 -6 38 -20 88 -30 110 -28 65
-112 149 -181 182 -33 16 -60 32 -60 37 0 4 39 7 88 7 77 0 92 3 124 25 46 31
64 85 48 144 -13 47 -48 65 -111 56 -49 -6 -75 5 -66 29 7 17 17 22 99 52 83
29 127 97 108 164 -20 69 -78 86 -154 45 -94 -50 -105 0 -21 94 50 57 55 66
55 109 0 41 -5 53 -32 82 -65 66 -162 89 -224 51z m141 -20 c56 -25 95 -74 95
-117 0 -27 -10 -45 -44 -82 -65 -71 -83 -121 -54 -150 18 -18 38 -15 90 13 53
28 75 30 100 11 27 -20 36 -56 25 -96 -11 -40 -34 -63 -80 -79 -79 -29 -122
-56 -125 -80 -5 -35 11 -44 84 -45 60 -1 69 -4 86 -27 27 -35 16 -89 -26 -130
-31 -31 -31 -31 -114 -25 -102 8 -138 -6 -171 -65 -12 -21 -26 -37 -30 -34 -8
4 24 183 33 193 8 8 111 2 146 -8 44 -13 82 -13 60 -1 -24 13 -148 34 -175 29
-13 -3 -26 0 -28 6 -3 10 14 98 33 167 12 45 61 69 158 79 37 4 54 8 37 10
-66 6 -105 1 -145 -20 l-43 -22 6 34 c3 18 15 87 26 153 12 66 23 131 26 145
4 17 3 20 -3 10 -5 -8 -19 -67 -32 -130 -12 -63 -24 -118 -26 -122 -3 -4 -30
9 -60 28 -60 38 -123 68 -131 61 -2 -3 31 -24 74 -47 118 -65 115 -59 95 -179
-10 -55 -23 -106 -30 -113 -7 -7 -12 -8 -12 -2 0 15 -108 54 -152 54 -40 0
-14 -17 44 -29 66 -13 118 -38 118 -56 0 -37 -44 -235 -52 -233 -6 2 -18 34
-27 71 -20 78 -48 112 -129 158 -38 21 -58 40 -68 64 -18 45 -18 58 5 86 16
20 27 23 75 21 78 -3 116 18 116 65 0 27 -28 37 -84 29 -57 -9 -86 16 -93 79
-13 108 52 149 134 85 34 -27 65 -25 93 5 23 24 23 28 11 73 -30 105 -21 140
42 167 43 19 74 18 122 -4z m-235 -864 c0 -44 15 -57 67 -57 37 0 45 4 53 25
14 38 34 40 96 10 68 -33 172 -131 156 -147 -12 -12 -206 3 -341 27 -83 14
-236 59 -261 76 -12 8 -10 14 17 36 61 48 96 62 156 62 l57 1 0 -33z m-202
-93 c110 -46 343 -90 516 -98 71 -3 80 -6 92 -27 25 -46 20 -49 -79 -49 -147
0 -422 59 -569 122 -49 21 -58 34 -36 56 16 16 31 15 76 -4z m-42 -68 c59 -30
327 -100 437 -115 43 -6 114 -11 158 -11 l79 0 0 -72 c0 -40 -4 -79 -9 -87
-25 -39 -433 13 -636 80 -116 39 -159 60 -163 81 -5 23 56 148 72 148 6 0 34
-11 62 -24z m-69 -187 c122 -58 394 -114 616 -126 59 -3 107 -10 107 -15 0 -5
-6 -23 -14 -42 -13 -31 -16 -33 -72 -35 -199 -7 -600 92 -710 175 -21 15 -24
24 -19 47 4 15 12 27 17 27 6 0 39 -14 75 -31z m53 -123 c148 -57 371 -104
512 -108 72 -2 118 -7 118 -13 0 -14 -29 -57 -48 -72 -27 -22 -197 -15 -402
16 -64 10 -211 54 -281 84 -44 19 -49 31 -49 108 l0 60 28 -19 c15 -10 70 -36
122 -56z m-100 -105 c0 -5 51 -25 113 -46 126 -41 356 -77 474 -74 40 1 73 -2
73 -7 0 -5 -16 -29 -36 -52 l-37 -44 -81 7 c-137 11 -355 60 -439 100 -44 21
-63 37 -78 66 -23 46 -24 59 -4 59 8 0 15 -4 15 -9z m95 -146 c68 -30 261 -72
373 -81 95 -8 96 -19 4 -55 -44 -17 -80 -22 -152 -23 -87 -1 -99 1 -143 27
-49 29 -101 78 -138 130 -25 33 -15 34 56 2z"/>
<path d="M4368 9196 c-82 -29 -136 -140 -177 -361 -32 -175 -41 -290 -47 -605
l-6 -295 -33 -105 c-18 -58 -38 -136 -45 -175 -12 -74 -27 -122 -45 -142 -5
-7 -16 -19 -23 -28 -13 -16 -35 -10 -64 17 -21 21 -87 48 -113 48 -37 0 -68
-36 -60 -68 9 -37 29 -57 92 -93 30 -17 52 -33 50 -36 -3 -2 -32 3 -65 11 -81
21 -92 20 -131 -12 -30 -25 -33 -32 -27 -63 7 -37 15 -42 117 -69 l46 -12 -1
-141 c-1 -78 3 -160 7 -181 l8 -39 -43 9 c-24 5 -86 9 -138 9 -111 -1 -158
-19 -206 -82 -25 -33 -29 -46 -29 -105 0 -61 2 -68 32 -96 61 -59 126 -64 383
-27 96 14 189 25 207 25 30 0 31 -1 36 -52 3 -29 14 -82 24 -118 22 -70 20
-90 -5 -90 -9 0 -58 -14 -109 -31 -53 -18 -102 -29 -115 -25 -22 5 -48 23
-107 74 -50 43 -132 76 -198 80 -63 4 -64 4 -102 -36 -49 -51 -54 -79 -45
-245 7 -131 6 -134 -18 -173 -37 -57 -50 -70 -215 -212 -72 -62 -134 -139
-170 -213 -22 -45 -27 -71 -31 -156 -2 -57 -8 -103 -13 -103 -5 0 -9 5 -9 11
0 11 -64 8 -105 -5 -14 -4 -25 1 -38 19 -17 24 -17 28 -3 48 9 12 28 37 41 56
30 40 32 72 7 94 -29 27 -59 20 -106 -23 -34 -31 -51 -40 -79 -40 -46 0 -114
51 -146 110 -14 25 -30 51 -37 57 -7 7 -18 26 -26 43 -7 16 -16 30 -20 30 -14
0 -60 168 -79 292 -25 168 -100 463 -156 617 -56 155 -132 284 -191 326 -38
26 -52 30 -110 30 -55 0 -74 -5 -103 -25 -68 -45 -117 -140 -160 -305 -38
-147 -48 -231 -59 -521 -6 -159 -16 -298 -21 -309 -5 -11 -25 -31 -45 -44 -29
-20 -42 -23 -83 -18 -96 11 -130 38 -406 327 -136 142 -200 199 -288 257 -121
79 -193 99 -260 74 -67 -26 -105 -116 -93 -222 11 -106 72 -328 120 -434 13
-27 36 -84 51 -125 16 -41 81 -181 146 -310 142 -284 148 -298 195 -489 36
-147 37 -153 25 -223 -17 -98 -17 -98 -41 -98 -54 0 -100 -51 -84 -93 6 -16
36 -33 76 -41 39 -9 50 -67 19 -100 -25 -26 -27 -53 -5 -84 17 -25 52 -28 102
-11 27 9 36 8 64 -13 18 -12 47 -36 63 -51 50 -48 123 -78 230 -93 54 -7 64
-15 191 -160 l62 -70 -17 -30 c-9 -17 -30 -51 -48 -76 -48 -67 -72 -139 -82
-238 -7 -65 -18 -106 -44 -161 -18 -41 -39 -87 -46 -103 -9 -22 -15 -26 -23
-18 -17 17 -80 15 -106 -4 -28 -19 -29 -67 -2 -92 11 -10 38 -25 60 -32 31
-10 40 -18 40 -35 0 -18 -7 -24 -36 -28 -20 -3 -45 -14 -55 -23 -46 -41 -3
-124 65 -124 30 0 35 -4 41 -30 3 -16 15 -47 26 -69 10 -22 19 -45 19 -51 0
-5 4 -10 9 -10 5 0 12 -9 16 -20 4 -13 -6 -34 -34 -69 -45 -58 -64 -107 -65
-171 -2 -132 104 -171 284 -103 69 25 74 26 84 9 108 -178 188 -254 292 -277
54 -12 54 -12 54 -51 0 -52 21 -100 53 -121 58 -38 259 -73 320 -56 19 5 48
24 65 43 l29 33 31 -33 c39 -41 112 -64 201 -64 144 1 228 89 209 219 -4 26
-1 30 36 41 67 20 112 50 151 102 l38 49 15 -31 c19 -40 70 -90 142 -141 52
-37 60 -46 80 -107 16 -47 23 -92 24 -152 1 -104 15 -127 103 -170 91 -44 168
-59 368 -71 186 -11 304 -5 512 27 124 18 214 60 238 109 15 33 15 39 0 84
-21 63 -17 210 5 222 8 4 41 19 73 33 32 14 79 39 103 56 54 36 60 37 68 6 8
-34 63 -86 116 -110 42 -19 61 -20 270 -18 124 2 242 8 263 13 53 14 111 69
127 121 8 24 15 44 16 46 5 8 110 -32 122 -46 7 -9 12 -44 12 -84 0 -114 26
-144 147 -172 136 -31 243 -16 279 39 8 12 22 54 32 94 10 39 26 80 36 89 16
16 18 16 37 -7 14 -18 19 -39 19 -88 0 -111 42 -144 213 -164 152 -18 208 17
222 140 9 80 32 114 86 130 74 22 134 60 160 101 13 22 27 40 32 40 4 0 7 5 7
10 0 6 9 30 20 52 11 23 20 47 20 54 0 24 21 25 63 5 141 -68 387 -37 491 62
133 127 6 278 -246 295 l-76 4 32 47 c18 25 49 75 68 111 l36 65 58 7 c60 8
94 31 94 65 0 21 -37 52 -69 59 -46 10 -51 13 -51 33 0 12 12 28 28 38 59 36
92 76 92 110 0 27 -5 34 -26 39 -25 6 -99 0 -140 -11 -17 -5 -31 7 -77 70 -31
42 -62 86 -69 98 -7 12 -15 74 -18 137 -6 106 -9 120 -40 180 -19 36 -37 67
-40 70 -21 19 -30 74 -30 180 0 126 -7 157 -49 203 l-25 27 22 20 c15 14 22
33 22 56 0 45 -45 91 -98 100 -20 3 -50 9 -67 13 l-30 7 -3 93 c-2 77 0 97 14
112 9 11 22 19 29 19 23 0 91 39 118 68 24 24 28 37 25 72 -4 59 -39 85 -112
84 -29 -1 -68 -9 -86 -17 -18 -9 -35 -15 -39 -13 -4 3 -26 43 -50 90 -46 91
-146 215 -226 280 -57 47 -79 94 -95 201 -16 103 -44 177 -91 240 -45 60 -78
88 -207 175 -127 86 -140 111 -124 225 15 105 15 237 0 289 -7 22 -30 58 -50
78 -35 35 -43 38 -93 38 -31 0 -68 -6 -83 -14 -15 -8 -83 -32 -151 -55 -91
-30 -140 -41 -186 -41 -68 0 -78 4 -64 29 5 9 13 28 18 42 l10 27 123 -5 c113
-5 127 -4 170 17 99 46 135 113 104 193 -15 38 -30 53 -100 101 -18 12 -18 15
-5 29 9 8 27 40 40 71 23 53 26 56 61 56 35 0 68 20 68 42 0 22 -35 68 -52 68
-15 0 -18 8 -18 45 0 40 3 47 28 56 37 14 72 48 72 71 0 10 -9 27 -21 39 -16
16 -31 20 -76 18 l-56 -3 -37 68 c-36 64 -38 72 -44 189 -3 67 -9 161 -12 208
-6 74 -3 98 20 177 69 242 96 430 96 676 -1 288 -44 460 -125 499 -57 27 -108
22 -168 -16 -47 -31 -69 -51 -163 -158 -17 -20 -63 -85 -102 -145 -39 -60 -75
-113 -79 -119 -13 -16 -93 -144 -93 -149 0 -2 -18 -34 -40 -70 -22 -36 -40
-69 -40 -73 0 -5 -18 -29 -41 -55 -35 -42 -46 -48 -79 -48 -58 0 -74 21 -104
141 -32 130 -131 417 -181 530 -104 230 -181 338 -256 359 -42 12 -45 12 -91
-4z m148 -90 c42 -48 147 -248 191 -365 66 -174 114 -319 143 -437 18 -71 39
-137 48 -147 8 -9 32 -22 52 -28 75 -23 151 21 205 118 255 451 452 707 561
727 78 15 123 -42 149 -191 44 -249 23 -586 -55 -873 -52 -191 -54 -207 -42
-326 16 -153 15 -275 -4 -348 -8 -33 -19 -65 -23 -69 -5 -5 -11 70 -14 165 -5
189 -14 232 -73 355 -26 55 -52 88 -108 140 -116 108 -229 166 -431 220 -177
48 -388 36 -594 -34 -116 -39 -267 -175 -321 -288 -35 -74 -66 -196 -75 -295
-6 -78 -18 -111 -32 -96 -4 4 -8 58 -7 119 0 124 26 263 71 388 25 70 26 85
29 284 3 309 12 475 35 615 36 225 69 329 121 384 36 37 40 38 85 33 42 -4 54
-11 89 -51z m539 -1092 c278 -64 487 -193 560 -348 56 -119 68 -178 69 -363 2
-183 7 -203 51 -203 18 0 28 12 49 55 14 31 26 64 26 75 0 32 14 23 37 -25
l22 -46 -25 -9 c-14 -6 -30 -10 -35 -10 -5 0 -9 -4 -9 -10 0 -5 -7 -10 -15
-10 -25 0 -18 -57 11 -86 25 -26 61 -29 107 -9 14 6 17 2 17 -20 l0 -28 -62 6
c-73 7 -98 -6 -98 -47 0 -39 43 -76 89 -76 26 0 27 -20 2 -69 -26 -51 -39 -59
-106 -73 -33 -6 -79 -23 -104 -37 -47 -26 -141 -114 -141 -131 0 -5 -19 -19
-42 -31 -59 -30 -186 -35 -384 -16 -88 9 -215 19 -284 22 -119 6 -366 29 -440
41 -126 21 -359 136 -390 193 -5 11 -16 25 -22 33 -40 41 -57 121 -58 258 0
159 38 274 125 375 l34 40 1 -72 c0 -62 3 -75 22 -93 52 -48 96 0 109 116 20
195 59 303 144 401 48 55 169 137 233 158 159 52 376 69 507 39z m-1157 -547
c56 -34 57 -34 42 -57 -8 -13 -15 -12 -52 8 -69 37 -92 57 -84 77 7 20 20 17
94 -28z m-67 -149 c40 -12 43 -15 33 -42 -7 -19 -26 -20 -93 -4 -36 8 -51 16
-51 28 0 9 3 20 7 23 10 11 62 8 104 -5z m2176 -184 c4 -12 -132 -74 -164 -74
-16 0 -23 6 -23 20 0 11 1 20 3 20 1 0 34 12 72 25 72 25 106 28 112 9z m-51
-214 c46 -18 27 -32 -33 -24 -79 10 -106 18 -111 33 -4 11 8 12 58 7 34 -4 73
-11 86 -16z m-3981 -26 c26 -8 59 -30 75 -47 101 -110 224 -476 289 -854 44
-254 49 -268 143 -419 63 -102 129 -230 147 -287 24 -73 4 -60 -45 28 -47 87
-154 207 -254 289 -39 32 -135 78 -195 95 -65 19 -275 26 -347 12 -159 -31
-438 -154 -560 -248 -104 -79 -176 -191 -197 -308 -15 -79 -13 -308 3 -427 7
-54 10 -102 6 -108 -11 -18 -28 29 -66 180 -49 197 -58 222 -188 480 -100 197
-152 313 -228 505 -49 126 -90 291 -95 385 -4 84 -2 99 16 128 39 62 99 65
199 10 65 -35 102 -60 152 -103 43 -37 246 -239 322 -320 139 -151 222 -205
313 -206 41 -1 65 5 97 24 85 49 82 39 89 312 8 278 22 433 50 543 11 42 24
94 30 116 16 62 65 159 96 188 15 14 44 31 63 36 19 6 36 11 37 11 1 1 23 -6
48 -15z m1800 -81 l100 -16 48 -58 c26 -32 65 -69 87 -81 22 -13 40 -25 40
-28 0 -3 -44 -11 -97 -18 -54 -7 -123 -17 -153 -22 -78 -12 -231 -12 -268 1
-58 20 -77 80 -46 142 27 52 99 97 154 97 19 0 80 -7 135 -17z m2073 -160 c48
-23 82 -68 82 -110 0 -45 -52 -97 -113 -114 -50 -14 -196 -4 -244 16 -43 18
-52 54 -24 93 29 41 98 102 116 102 8 0 15 4 15 9 0 12 80 29 110 23 14 -2 40
-11 58 -19z m-1638 -96 c41 -20 45 -25 47 -62 1 -22 4 -61 8 -86 5 -42 3 -47
-17 -53 -52 -14 -64 -8 -78 37 -7 23 -16 53 -21 67 -14 42 -21 98 -14 109 9
16 24 13 75 -12z m206 -48 c17 -6 21 -17 23 -62 l2 -56 -48 -6 c-26 -3 -58 -8
-70 -11 -28 -5 -30 -2 -38 84 l-8 72 59 -6 c33 -4 68 -10 80 -15z m146 -23 c4
-6 8 -28 8 -48 l0 -38 -49 0 c-39 0 -51 4 -55 18 -5 16 -9 70 -7 83 2 11 95
-3 103 -15z m131 -2 c35 -6 37 -8 37 -45 l0 -39 -64 0 c-63 0 -64 0 -70 31
-12 63 -2 69 97 53z m202 -14 c4 -6 4 -24 0 -40 -6 -29 -8 -30 -71 -30 l-64 0
0 40 0 40 64 0 c36 0 68 -5 71 -10z m609 -24 c26 -35 26 -35 10 -78 -10 -24
-20 -47 -25 -52 -4 -4 -32 -1 -62 8 l-55 16 17 56 c14 49 21 58 51 69 19 7 36
13 36 14 1 0 13 -15 28 -33z m-476 -8 c-3 -32 -4 -33 -55 -36 l-53 -3 0 35 0
36 56 0 55 0 -3 -32z m154 12 c26 0 28 -2 22 -27 -4 -16 -8 -30 -10 -32 -1 -2
-35 0 -73 4 -65 6 -71 9 -71 29 0 33 10 39 59 32 24 -3 57 -6 73 -6z m185 -37
c-10 -58 -24 -66 -88 -49 -48 12 -54 17 -51 37 4 42 8 44 77 46 l67 2 -5 -36z
m-1694 -63 c26 -12 75 -43 109 -71 88 -71 116 -77 202 -44 111 42 380 103 506
114 145 14 497 14 612 1 48 -6 147 -26 220 -46 241 -64 251 -66 308 -60 31 3
109 24 175 46 205 71 226 76 260 59 17 -8 39 -32 50 -54 21 -42 23 -89 14
-338 l-4 -108 41 -37 c56 -51 71 -63 131 -100 166 -101 225 -193 253 -390 5
-40 18 -89 28 -108 10 -19 68 -86 129 -147 92 -93 120 -128 157 -200 25 -49
46 -96 46 -106 0 -13 -25 -32 -82 -62 -115 -59 -139 -90 -119 -152 23 -68 119
-88 200 -42 24 14 46 23 48 21 3 -2 7 -41 10 -87 l6 -82 -94 5 c-113 6 -154
-7 -164 -53 -23 -106 59 -157 234 -144 109 8 112 0 13 -47 l-67 -31 -405 -1
-405 0 -55 27 c-30 15 -77 41 -104 58 -55 36 -126 48 -165 27 -46 -25 -62 -60
-76 -167 -15 -119 -27 -140 -133 -248 -69 -69 -79 -88 -96 -174 -5 -25 -10
-27 -128 -44 -255 -36 -543 -31 -928 16 -127 16 -240 22 -490 24 -226 2 -360
8 -438 19 -128 18 -202 35 -202 46 0 4 -27 39 -60 78 -33 40 -60 76 -60 81 0
5 -4 11 -8 13 -5 2 -25 56 -46 121 -21 64 -42 117 -47 117 -5 0 -9 5 -9 11 0
5 -13 24 -29 41 -42 45 -100 49 -177 11 -32 -17 -71 -33 -86 -37 -25 -6 -28
-3 -37 31 -17 59 -14 83 8 83 49 0 111 62 111 110 0 52 -52 90 -124 90 -41 0
-45 4 -39 51 5 36 6 37 54 41 65 7 115 41 127 90 17 65 -24 117 -90 118 -31 0
-38 4 -38 19 0 47 58 129 167 236 144 142 153 162 153 330 0 205 41 283 240
455 123 106 156 142 185 200 27 53 27 58 19 150 -15 178 -4 238 49 260 29 13
84 5 140 -20z m-1648 -679 c84 -10 215 -48 215 -62 0 -5 5 -9 11 -9 12 0 87
-60 163 -130 56 -52 92 -102 136 -189 34 -66 72 -111 95 -111 21 0 45 29 45
53 0 12 -12 54 -26 92 -41 116 -41 106 0 87 33 -15 36 -19 30 -47 -4 -22 0
-38 14 -55 18 -22 23 -23 55 -13 29 9 37 8 41 -4 10 -26 7 -33 -29 -47 -40
-17 -55 -55 -35 -91 16 -29 53 -39 99 -25 40 11 51 2 51 -44 0 -22 -18 -47
-78 -111 -49 -52 -89 -105 -107 -143 -16 -34 -34 -62 -39 -62 -5 0 -52 14
-103 31 -106 36 -153 34 -179 -6 -35 -53 7 -126 91 -160 87 -36 145 -68 145
-80 0 -20 -59 -65 -120 -92 -30 -14 -71 -32 -90 -41 -47 -22 -146 -79 -162
-95 -24 -22 -103 -73 -148 -95 -69 -33 -92 -41 -280 -89 -96 -24 -218 -56
-270 -69 -163 -43 -284 -25 -374 56 -17 15 -42 37 -56 48 l-25 20 22 19 c34
30 46 70 31 100 -20 41 -49 45 -108 16 -49 -24 -52 -25 -65 -7 -18 25 -10 34
28 34 41 0 71 21 87 60 10 25 10 34 -4 55 -17 26 -21 28 -71 29 -29 1 -30 3
-27 41 4 50 6 52 38 34 24 -12 28 -12 45 10 23 28 23 53 4 196 -47 354 16 549
222 682 83 53 289 151 366 174 164 49 225 55 362 40z m821 -228 c-22 -39 -94
-118 -102 -110 -22 22 60 137 97 137 18 0 18 -2 5 -27z m114 -196 c0 -17 -26
-38 -83 -64 -59 -29 -97 -30 -97 -5 0 13 20 28 68 50 71 34 112 40 112 19z
m30 -64 c0 -10 -11 -36 -24 -57 -22 -38 -24 -38 -35 -18 -17 33 -13 52 14 62
14 5 25 14 25 20 0 5 5 10 10 10 6 0 10 -8 10 -17z m-428 -439 c40 -15 91 -35
113 -47 21 -11 60 -25 85 -31 56 -14 65 -43 24 -81 -40 -37 -90 -34 -157 11
-30 20 -83 48 -118 63 -66 27 -98 63 -86 94 9 24 54 21 139 -9z m4566 20 c31
-9 40 -49 16 -75 -10 -11 -45 -33 -79 -48 -33 -15 -90 -46 -126 -68 -82 -51
-118 -59 -158 -38 -41 21 -42 56 -2 84 16 12 33 21 38 21 4 0 44 23 88 51 120
78 158 90 223 73z m-4510 -326 c-2 -19 -10 -24 -43 -26 -43 -4 -41 7 7 33 34
19 40 18 36 -7z m-1568 -8 c0 -27 -32 -41 -100 -43 -103 -3 -109 42 -7 54 97
12 107 11 107 -11z m1714 -66 c23 -9 20 -57 -5 -80 -18 -16 -40 -19 -166 -22
-176 -4 -193 -1 -193 36 0 33 26 51 89 62 56 9 253 12 275 4z m-414 -67 c0
-64 63 -90 203 -85 l90 3 13 -50 c8 -27 14 -53 14 -56 0 -4 -55 -10 -122 -14
-68 -3 -160 -13 -204 -22 l-82 -15 -52 28 c-53 29 -85 64 -78 85 5 14 189 147
206 148 6 1 12 -9 12 -22z m4763 1 c45 -14 63 -39 47 -68 -10 -19 -21 -20
-185 -20 -166 0 -175 1 -195 22 -20 22 -27 67 -12 83 10 11 299 -3 345 -17z
m-6005 -21 c5 -23 -21 -48 -76 -76 -96 -49 -114 -5 -25 59 60 42 95 48 101 17z
m989 -146 c6 -17 32 -45 58 -63 l47 -33 -31 -12 c-83 -34 -245 -19 -306 29
-39 30 -31 43 38 57 34 7 85 21 112 31 68 24 69 24 82 -9z m3822 -6 c33 -19
66 -42 74 -49 30 -31 94 -35 507 -33 l415 3 80 38 c44 21 96 41 116 43 32 5
39 1 60 -28 22 -32 24 -43 24 -164 l0 -130 55 -100 54 -100 1 -100 c2 -119 13
-149 92 -252 l57 -74 -42 -40 c-31 -29 -42 -47 -42 -69 0 -40 29 -54 97 -46
29 3 53 2 53 -3 0 -4 -28 -11 -63 -13 -92 -8 -127 -34 -106 -81 10 -23 41 -40
92 -53 33 -8 34 -13 1 -72 -60 -108 -97 -145 -194 -189 -41 -19 -100 -46 -130
-60 l-55 -26 -380 17 c-302 12 -411 21 -530 41 -150 25 -242 35 -495 55 -160
13 -206 31 -292 114 -61 59 -91 109 -102 167 -6 36 -6 36 35 43 76 12 140 63
125 101 -8 23 -67 55 -101 55 -44 0 -76 11 -72 24 2 7 26 10 64 8 79 -5 103 8
103 53 0 28 -7 40 -40 66 -22 18 -40 37 -40 44 0 6 30 42 66 79 73 75 94 115
94 177 0 81 19 119 101 200 97 95 117 133 129 250 12 116 25 139 85 139 32 0
60 -9 104 -35z m-2961 -9 c35 -18 71 -86 107 -199 19 -63 40 -105 73 -148 95
-124 112 -151 129 -207 15 -46 33 -73 101 -144 45 -48 82 -92 82 -97 0 -5 -13
-18 -29 -27 -16 -10 -34 -29 -41 -42 -9 -21 -8 -30 8 -51 17 -23 26 -26 76
-25 60 1 72 -14 22 -27 -42 -12 -56 -28 -56 -68 0 -41 26 -85 63 -110 l25 -16
-44 -93 c-32 -69 -57 -106 -97 -146 -99 -96 -203 -127 -522 -156 -121 -11
-285 -29 -365 -40 -343 -47 -629 -57 -754 -26 -162 39 -270 131 -310 264 l-15
51 33 7 c57 10 96 40 96 72 0 40 -27 60 -84 64 -69 4 -74 28 -6 28 41 0 56 5
75 25 14 13 25 30 25 38 0 21 -40 53 -83 67 -42 13 -42 19 -5 94 44 87 68 167
68 227 0 68 26 142 72 200 52 68 78 138 78 212 0 183 38 205 240 137 88 -30
176 -28 280 5 162 52 185 56 371 64 l187 8 73 36 c85 41 91 42 127 23z m-1138
-46 c0 -5 -19 -10 -42 -10 -32 0 -39 3 -28 10 20 13 70 13 70 0z m-144 -40
c-24 -29 -33 -67 -39 -159 l-2 -45 -25 25 c-14 13 -49 52 -78 86 -43 51 -49
62 -35 66 10 3 43 11 73 18 30 7 69 18 85 25 45 20 49 17 21 -16z m1769 -446
c66 -8 142 -18 169 -22 l49 -7 1 -93 c1 -89 -5 -115 -19 -92 -10 16 -66 11
-105 -9 l-35 -17 -81 81 c-80 79 -114 128 -114 160 0 18 -10 18 135 -1z m500
-256 c0 -160 6 -275 18 -368 22 -178 23 -175 -13 -190 -16 -7 -57 -41 -90 -77
-37 -39 -62 -59 -65 -51 -21 63 -58 261 -84 458 -16 119 -35 424 -28 443 6 15
23 17 134 17 l128 0 0 -232z m268 225 c33 -5 38 -9 33 -27 -21 -73 -37 -263
-42 -496 -3 -146 -7 -266 -9 -268 -2 -2 -15 4 -29 14 -16 10 -55 19 -95 22
l-68 4 -13 102 c-13 106 -27 614 -16 641 4 12 25 15 103 15 54 0 115 -3 136
-7z m218 -23 c45 -5 84 -12 87 -15 3 -3 -3 -67 -12 -143 -26 -202 -32 -587
-12 -721 24 -154 25 -147 -34 -147 -36 0 -58 -6 -80 -22 -16 -12 -31 -22 -34
-22 -2 0 -9 30 -16 66 -12 71 -36 127 -79 184 l-26 35 1 240 c1 236 21 479 44
540 9 24 14 26 45 21 19 -4 71 -11 116 -16z m1012 -17 c-3 -10 -34 -47 -67
-83 -34 -36 -66 -74 -72 -85 -9 -17 -16 -18 -50 -10 l-39 10 0 80 0 80 75 11
c41 7 94 12 117 13 36 1 41 -2 36 -16z m-728 -8 c167 -9 165 -8 155 -47 -33
-126 -57 -623 -40 -838 l5 -65 -26 3 c-40 5 -89 -41 -89 -83 l0 -34 -35 15
c-19 7 -54 14 -77 14 -24 0 -48 4 -54 8 -18 12 -43 176 -50 327 -7 153 7 419
31 585 8 58 15 111 15 119 0 9 8 11 23 8 12 -3 76 -8 142 -12z m478 -72 c-6
-90 -7 -93 -42 -93 -36 0 -61 -23 -61 -56 0 -28 46 -76 91 -94 24 -10 29 -18
27 -38 -2 -19 -14 -28 -52 -43 -62 -23 -86 -45 -86 -79 0 -34 12 -44 75 -63
l50 -14 0 -83 0 -83 -43 -12 c-92 -28 -162 -111 -164 -194 -2 -62 24 -107 85
-148 47 -31 47 -31 19 -37 -15 -3 -52 -8 -83 -12 l-56 -6 -17 44 c-9 23 -31
62 -47 85 -29 41 -30 48 -40 205 -10 172 -7 272 17 508 21 211 33 268 52 272
10 2 76 4 148 6 l132 3 -5 -68z m-1573 -117 c0 -21 -155 -109 -179 -101 -42
13 -27 28 84 85 75 39 95 42 95 16z m1674 -46 c53 -23 90 -55 81 -71 -11 -16
-94 -5 -152 21 -54 24 -95 58 -86 72 8 14 107 0 157 -22z m-1614 -50 l0 -71
-52 7 c-47 6 -78 24 -78 45 0 4 19 19 43 32 24 14 49 33 57 41 23 29 30 17 30
-54z m3950 -52 c0 -33 -86 -81 -182 -102 -40 -9 -36 17 6 49 63 48 176 82 176
53z m-6262 -78 c35 -11 74 -20 87 -20 30 0 49 -22 33 -38 -17 -17 -45 -15
-119 9 -69 23 -95 41 -85 58 9 14 10 14 84 -9z m2290 4 c23 -42 -30 -84 -105
-84 -41 0 -63 16 -77 54 -12 35 11 46 95 46 62 0 80 -3 87 -16z m1713 -31 c20
-20 -5 -39 -71 -53 -95 -20 -213 1 -181 33 34 34 223 49 252 20z m-1651 -169
c11 -65 30 -155 41 -199 25 -92 25 -99 6 -180 -13 -56 -16 -60 -40 -57 -14 1
-52 -8 -84 -22 -43 -18 -80 -25 -143 -27 -87 -3 -110 2 -110 25 0 9 21 11 84
8 71 -4 91 -1 128 17 54 26 78 65 78 126 0 63 -27 104 -100 156 -33 23 -62 50
-65 60 -4 11 6 50 22 88 25 63 31 69 68 80 22 7 51 20 65 31 14 10 26 17 28
16 1 -2 11 -57 22 -122z m3891 56 c22 -12 22 -13 3 -27 -14 -11 -38 -14 -99
-10 -44 3 -88 8 -97 12 -25 10 -22 33 5 39 37 8 164 -2 188 -14z m-6118 -54
c7 -17 -8 -24 -93 -42 -76 -16 -100 -12 -100 21 0 26 15 31 126 33 45 2 63 -2
67 -12z m3758 -63 l18 -43 -23 0 c-19 0 -25 7 -30 35 -7 38 3 93 12 65 2 -8
13 -34 23 -57z m-1724 -108 c82 -61 102 -82 108 -117 9 -45 -8 -84 -47 -109
-44 -27 -142 -22 -213 12 -48 23 -50 26 -47 61 2 30 15 50 75 111 40 41 73 75
74 76 2 0 24 -15 50 -34z m666 -24 c56 -53 88 -125 94 -211 l5 -65 -52 -22
c-38 -17 -71 -23 -126 -23 -55 0 -89 -6 -125 -21 -44 -19 -59 -21 -117 -13
l-67 9 1 80 c1 99 34 182 97 243 65 63 91 74 173 69 68 -4 74 -6 117 -46z
m1182 -14 l60 -46 0 -103 0 -103 -95 -7 c-114 -8 -180 3 -240 40 -57 35 -74
69 -65 129 5 33 16 54 44 82 46 46 88 61 171 58 61 -3 69 -6 125 -50z m218
-86 c43 -6 80 -11 81 -11 2 0 6 -66 9 -147 3 -98 12 -172 24 -220 12 -46 16
-73 9 -73 -6 0 -43 33 -82 74 -101 104 -146 197 -152 313 -4 80 -3 85 14 80
11 -3 54 -11 97 -16z m-2318 -48 c-3 -23 -18 -49 -35 -66 -32 -30 -45 -70 -55
-167 -3 -36 -16 -85 -28 -110 -32 -68 -127 -158 -127 -121 0 5 9 37 20 72 33
110 52 201 58 293 l7 89 75 22 c41 12 79 23 84 24 4 0 5 -16 1 -36z m2625 22
c47 -4 92 -8 100 -11 13 -3 15 -32 15 -176 1 -122 5 -194 17 -243 9 -38 15
-71 13 -73 -6 -6 -170 19 -226 34 -55 16 -57 17 -74 67 -22 69 -44 232 -45
335 l0 84 58 -6 c31 -3 95 -8 142 -11z m1685 -4 c32 -10 76 -33 97 -50 33 -28
38 -38 38 -73 0 -35 -6 -47 -36 -74 -64 -59 -132 -79 -269 -79 -113 0 -123 2
-179 30 -97 49 -120 103 -76 177 16 28 33 40 78 56 74 27 89 29 197 30 63 1
108 -4 150 -17z m-6050 -37 c17 -12 53 -33 81 -47 50 -25 51 -27 58 -79 8 -61
2 -69 -87 -100 -72 -25 -144 -24 -174 4 -43 40 -23 148 42 225 29 34 31 34 80
-3z m4643 1 c40 -7 75 -15 77 -16 1 -2 -2 -63 -8 -136 -7 -87 -8 -162 -1 -223
5 -50 7 -93 5 -96 -2 -2 -41 -4 -86 -4 l-82 0 -13 43 c-23 75 -38 241 -32 352
l5 107 31 -7 c17 -4 64 -12 104 -20z m-3088 -56 c0 -69 -29 -219 -64 -329 -28
-89 -40 -97 -141 -102 -58 -2 -69 0 -66 12 2 8 15 56 29 105 18 66 26 125 29
221 l6 132 86 8 c47 5 94 10 104 11 14 1 17 -7 17 -58z m-220 -8 c0 -118 -54
-387 -84 -418 -6 -7 -38 -16 -70 -19 l-58 -7 6 29 c24 114 36 424 16 424 -5 0
-7 -20 -3 -47 5 -50 -10 -231 -28 -341 l-11 -63 -72 3 -71 3 -7 145 c-3 80
-11 174 -17 210 -13 77 -13 93 -3 87 4 -3 31 -1 60 3 28 5 85 12 125 15 39 3
101 9 137 13 36 5 68 6 73 4 4 -2 7 -20 7 -41z m3621 30 c3 -3 -2 -69 -11
-146 -10 -77 -21 -175 -25 -218 l-7 -78 -81 3 -82 3 -6 30 c-9 40 -10 306 -3
371 l6 51 102 -5 c55 -2 104 -7 107 -11z m-1635 -26 c38 -50 74 -156 74 -219
0 -81 -31 -161 -47 -120 -4 10 -17 30 -29 43 -18 20 -21 32 -18 80 4 49 1 62
-26 106 -53 88 -54 93 -42 120 17 37 55 33 88 -10z m1870 17 l52 -7 -33 -160
c-18 -88 -41 -185 -52 -215 l-18 -55 -99 -3 -99 -3 7 68 c3 37 14 139 23 226
l17 157 75 -1 c42 -1 99 -4 127 -7z m237 -52 c-3 -62 -58 -272 -88 -337 l-24
-53 -70 0 c-39 0 -71 3 -71 6 0 4 16 65 34 138 19 72 40 168 47 214 l11 83 82
-3 81 -3 -2 -45z m129 11 c-2 -24 3 -53 12 -72 23 -46 20 -86 -13 -156 -37
-77 -93 -135 -150 -151 -23 -8 -45 -12 -47 -9 -2 2 9 35 25 74 28 69 64 205
76 295 6 41 11 47 34 51 66 10 67 10 63 -32z m-4637 -84 c10 -55 15 -132 13
-209 l-3 -123 -48 0 c-27 -1 -55 4 -63 10 -17 13 -94 330 -94 391 0 12 160 34
173 24 4 -4 14 -45 22 -93z m2075 77 c19 -7 49 -13 66 -14 50 0 124 -30 124
-49 0 -113 -310 -169 -870 -158 -168 3 -317 10 -331 14 -35 11 -79 44 -79 61
0 7 -5 21 -12 32 -7 10 -9 22 -6 26 4 3 49 9 100 12 71 3 104 10 140 28 60 30
76 30 88 -2 13 -34 15 -32 -26 -51 -20 -10 -35 -22 -33 -28 2 -5 49 -11 104
-13 55 -2 114 -3 131 -4 17 -1 54 8 82 20 37 16 71 22 125 22 59 0 89 6 145
29 39 16 84 41 99 56 31 28 80 46 103 38 8 -3 31 -12 50 -19z m-1212 -81 l3
-91 -31 -7 c-16 -4 -32 -11 -35 -16 -16 -25 -25 -2 -25 60 0 76 12 119 38 139
37 28 47 12 50 -85z m-1521 76 c50 -9 63 -15 63 -29 0 -48 80 -239 138 -328
20 -31 13 -34 -33 -13 -93 42 -228 229 -249 344 -8 42 -10 42 81 26z m443 -2
c0 -11 62 -309 70 -337 17 -59 16 -60 -61 -60 l-70 0 -23 53 c-32 72 -86 241
-93 292 -5 37 -3 44 13 48 21 5 164 9 164 4z m-191 -69 c15 -75 88 -297 103
-315 8 -10 -1 -13 -41 -13 -45 0 -56 4 -79 30 -51 55 -173 336 -154 354 3 3
40 6 82 6 l76 0 13 -62z m3428 -5 c23 -51 97 -148 151 -200 41 -39 44 -44 37
-81 -8 -51 -55 -107 -97 -117 -18 -3 -131 -8 -251 -10 -244 -5 -277 2 -330 65
-30 35 -34 73 -17 174 5 34 6 75 1 97 -7 30 -5 39 6 43 21 8 224 26 303 26 37
1 87 9 115 19 28 10 53 19 58 20 4 0 15 -16 24 -36z m-2097 -39 c17 -60 67
-111 125 -126 45 -12 45 -13 39 -48 -4 -19 -10 -39 -14 -43 -12 -14 -81 24
-126 68 -42 42 -54 77 -54 158 0 51 15 47 30 -9z m1410 -25 c6 -23 9 -48 5
-57 -4 -12 -12 -8 -34 19 -27 32 -28 36 -15 62 18 34 30 28 44 -24z m-58 -46
c10 -9 18 -29 18 -44 0 -25 -8 -33 -57 -58 -64 -32 -154 -61 -190 -61 -20 0
-23 5 -23 38 0 21 -5 43 -11 49 -15 15 -2 33 24 33 27 0 149 34 174 49 26 15
44 13 65 -6z m-1397 -58 c4 -23 -1 -37 -20 -60 l-26 -30 -24 30 c-36 44 -33
70 13 88 42 17 49 14 57 -28z m1099 -17 c9 -12 16 -39 16 -60 0 -36 0 -37 -47
-43 -27 -3 -70 -10 -96 -16 -67 -13 -67 -13 -67 21 0 17 -7 45 -16 61 -8 17
-14 32 -12 34 2 1 44 7 93 12 50 6 95 11 102 12 6 0 19 -9 27 -21z m-654 -68
c0 -81 3 -80 -113 -54 -85 19 -97 27 -97 64 0 58 4 60 111 60 l99 0 0 -70z
m413 51 c9 -9 14 -108 6 -116 -3 -2 -39 -9 -80 -15 -91 -14 -273 -4 -289 15
-15 18 -24 78 -16 108 l6 24 182 -4 c100 -2 186 -7 191 -12z m646 -3 c6 -13
13 -36 14 -53 2 -28 -3 -32 -93 -78 -52 -26 -98 -46 -103 -44 -8 2 -36 72 -37
90 0 4 7 7 16 7 21 0 127 57 151 80 24 25 37 24 52 -2z m-1436 -34 c17 -14 59
-39 93 -55 57 -27 62 -32 54 -52 -4 -12 -11 -30 -14 -39 -5 -16 -8 -16 -48 -2
-48 17 -155 83 -162 100 -5 12 29 74 40 74 3 0 20 -12 37 -26z m1201 -107 c5
-20 7 -39 4 -42 -2 -3 -45 -8 -95 -11 l-89 -7 -14 32 c-7 17 -11 33 -9 35 6 6
163 34 179 32 8 -1 19 -17 24 -39z m1526 4 l145 -6 -2 -40 c-2 -22 -10 -61
-20 -87 -28 -79 -90 -93 -251 -58 -29 7 -64 22 -78 33 -22 20 -25 30 -26 92 0
39 0 74 1 78 1 5 20 5 44 1 23 -4 107 -10 187 -13z m-2415 -16 c44 -7 80 -13
81 -14 0 -1 -5 -22 -11 -48 -12 -47 -12 -48 -51 -45 -21 2 -67 12 -101 24 -54
18 -63 25 -63 46 0 40 19 65 43 57 12 -3 58 -12 102 -20z m663 -10 c15 -33 15
-42 -2 -48 -29 -11 -255 -39 -270 -34 -10 4 -16 19 -16 42 0 33 2 35 33 35 17
1 70 7 117 14 121 20 125 20 138 -9z m2305 8 c124 -6 128 -7 123 -27 -4 -12
-9 -47 -13 -79 -4 -40 -13 -65 -29 -82 -21 -22 -31 -25 -96 -25 -82 0 -182 22
-205 45 -9 10 -18 45 -22 95 l-7 80 61 0 c33 0 118 -3 188 -7z m-4362 -13
l179 0 0 -35 c0 -47 -22 -98 -51 -119 -29 -20 -81 -20 -183 -1 -131 25 -168
54 -160 125 1 14 3 29 3 34 1 4 8 5 17 2 9 -3 96 -6 195 -6z m599 -45 c0 -69
-14 -98 -56 -118 -41 -20 -152 -24 -211 -8 -65 18 -84 44 -81 111 l3 55 105 3
c58 1 110 5 115 7 6 2 36 4 68 4 l57 1 0 -55z m1139 29 c11 -9 5 -74 -7 -79
-8 -3 -63 -5 -123 -5 -97 0 -109 2 -110 18 -2 26 2 66 8 75 4 7 223 -1 232 -9z
m-471 -83 c70 -24 124 -35 220 -43 139 -12 207 -7 472 37 152 26 320 45 332
38 4 -2 6 -47 4 -101 l-3 -97 -44 -22 c-76 -38 -268 -57 -504 -49 -221 7 -302
16 -419 48 -99 26 -131 54 -151 128 -8 30 -18 66 -21 79 -6 19 -4 23 7 19 8
-3 56 -20 107 -37z m-31 -205 c105 -52 307 -78 603 -79 225 0 362 17 432 56
40 22 59 17 42 -11 -24 -41 -119 -72 -281 -93 -211 -28 -530 -22 -663 12 -129
33 -190 70 -190 116 0 28 -2 28 57 -1z"/>
<path d="M4393 8842 c-29 -18 -43 -82 -43 -192 0 -61 -9 -193 -20 -293 -18
-155 -19 -189 -8 -223 18 -55 53 -70 127 -54 31 6 83 17 116 24 109 22 123 40
111 147 -10 83 -39 192 -96 349 -62 175 -69 190 -99 223 -24 27 -63 35 -88 19z
m69 -41 c27 -31 39 -60 116 -276 58 -160 68 -196 77 -281 7 -66 -4 -89 -48
-98 -102 -22 -189 -36 -216 -36 -48 0 -52 23 -35 206 8 87 18 232 22 320 7
161 15 194 47 194 7 0 24 -13 37 -29z"/>
<path d="M5665 8760 c-28 -11 -76 -66 -113 -128 -18 -29 -32 -54 -32 -57 0 -3
-13 -26 -29 -52 -43 -70 -110 -193 -127 -233 -8 -19 -28 -61 -45 -93 -48 -91
-43 -101 81 -163 84 -42 115 -53 156 -53 75 -1 92 21 110 146 24 170 33 234
59 391 31 190 31 197 0 227 -26 27 -30 28 -60 15z m51 -45 c3 -14 1 -58 -5
-98 -6 -40 -18 -117 -27 -172 -8 -55 -24 -165 -34 -244 -28 -219 -46 -232
-213 -155 -56 26 -108 53 -116 60 -11 10 -3 33 52 146 68 139 149 285 209 378
67 104 121 138 134 85z"/>
<path d="M4828 7961 c-89 -36 -110 -55 -106 -100 4 -52 35 -52 132 0 76 40 79
41 72 18 -37 -136 -39 -148 -22 -174 20 -30 65 -34 90 -6 24 27 51 177 37 209
-10 20 -17 23 -45 20 -23 -3 -32 0 -29 8 8 22 -17 54 -40 53 -12 -1 -52 -13
-89 -28z m102 -11 c0 -13 -15 -25 -93 -71 -66 -39 -97 -44 -97 -16 0 21 41 54
95 76 54 22 95 27 95 11z m72 -115 c-4 -82 -19 -119 -50 -123 -32 -5 -36 17
-16 95 21 85 31 105 52 101 14 -3 16 -14 14 -73z"/>
<path d="M5105 7897 c-8 -31 13 -157 31 -184 26 -41 92 -21 95 28 2 26 -37
146 -53 167 -6 6 -23 12 -39 12 -21 0 -30 -6 -34 -23z m77 -71 c23 -70 21
-101 -7 -101 -20 0 -30 26 -49 128 -7 36 -6 38 15 35 17 -2 26 -16 41 -62z"/>
<path d="M4267 7532 c-33 -21 -67 -86 -67 -131 0 -39 23 -87 49 -101 54 -28
137 5 166 67 28 59 20 132 -18 166 -26 22 -93 22 -130 -1z m131 -46 c9 -18 11
-41 7 -69 -21 -119 -175 -134 -175 -17 0 43 2 45 30 30 42 -23 90 25 81 82 -4
28 41 7 57 -26z m-78 6 c0 -32 -16 -52 -42 -52 -23 0 -24 37 -1 62 24 27 43
23 43 -10z"/>
<path d="M4705 7360 c-23 -26 -13 -68 20 -80 43 -16 26 -50 -25 -50 -9 0 -23
7 -30 15 -7 8 -19 15 -26 15 -19 0 -18 -35 1 -54 8 -8 15 -23 15 -34 0 -11 14
-32 31 -46 40 -34 98 -35 142 -3 17 12 40 27 51 32 29 15 23 29 -17 36 -69 11
-93 62 -24 53 33 -5 47 -2 64 12 51 45 31 92 -49 112 -73 18 -132 15 -153 -8z
m124 -31 c56 -12 64 -18 51 -39 -8 -13 -22 -10 -138 26 -19 6 -5 24 18 24 11
0 42 -5 69 -11z m-34 -149 c14 -15 16 -23 7 -32 -22 -22 -102 -5 -102 22 0 8
45 28 66 29 6 1 19 -8 29 -19z"/>
<path d="M5269 7331 c-61 -61 -29 -194 58 -239 34 -18 87 -14 116 8 60 47 51
165 -17 227 -29 27 -44 33 -82 33 -37 0 -51 -5 -75 -29z m86 -3 c48 -22 22
-87 -30 -74 -33 8 -46 54 -20 73 23 16 18 16 50 1z m81 -74 c32 -76 6 -144
-54 -144 -55 0 -112 68 -112 135 l0 38 21 -27 c11 -14 30 -26 43 -26 30 0 66
27 66 51 0 28 19 14 36 -27z"/>
<path d="M1899 6659 c-52 -52 -77 -177 -99 -489 -14 -201 -13 -292 3 -315 11
-14 36 -20 123 -27 169 -14 182 -14 209 12 33 31 33 103 1 236 -14 54 -50 203
-81 329 -47 193 -60 234 -81 253 -31 27 -48 28 -75 1z m59 -41 c10 -20 101
-387 146 -584 17 -75 20 -131 10 -159 -6 -14 -21 -15 -138 -9 -72 3 -137 11
-144 17 -15 12 -10 166 14 437 18 201 29 261 55 294 25 32 42 33 57 4z"/>
<path d="M643 6170 c-51 -21 -56 -82 -14 -172 16 -35 61 -142 101 -238 40 -96
75 -179 79 -185 4 -5 18 -37 31 -70 35 -92 64 -125 106 -125 30 0 46 10 97 59
34 32 88 75 119 95 60 38 78 60 78 97 0 16 -67 90 -227 251 -126 126 -244 242
-264 258 -41 33 -75 43 -106 30z m66 -39 c7 -5 121 -115 252 -246 164 -163
239 -244 239 -259 0 -13 -14 -30 -38 -45 -98 -64 -115 -77 -151 -117 -26 -30
-47 -44 -64 -44 -23 0 -35 24 -165 318 -155 349 -156 353 -147 382 7 21 48 27
74 11z"/>
<path d="M4485 5936 c-67 -49 -192 -168 -218 -206 -44 -65 -1 -170 70 -170 56
0 58 2 241 193 77 81 82 89 82 130 0 33 -6 51 -25 71 -37 40 -78 35 -150 -18z
m125 -12 c28 -33 0 -79 -119 -199 -125 -125 -153 -142 -183 -105 -35 44 -24
75 55 157 137 142 214 188 247 147z"/>
<path d="M4995 5955 c-42 -42 -35 -87 40 -238 76 -153 115 -197 172 -197 54 0
95 37 97 88 0 29 -12 59 -56 132 -31 52 -65 116 -77 141 -41 93 -123 127 -176
74z m97 -29 c10 -7 35 -48 57 -92 21 -43 55 -106 75 -138 40 -67 46 -110 17
-126 -47 -25 -78 -4 -127 85 -107 198 -122 243 -92 273 16 16 48 15 70 -2z"/>
<path d="M4712 5845 c-22 -25 -31 -112 -34 -313 l-3 -193 33 -30 c45 -40 99
-40 144 0 l33 29 0 234 c0 251 0 248 -52 276 -30 17 -105 14 -121 -3z m124
-52 c12 -15 13 -56 10 -233 -4 -190 -7 -216 -22 -227 -34 -25 -101 -6 -109 31
-7 29 11 417 20 440 7 15 15 17 47 13 22 -3 46 -14 54 -24z"/>
<path d="M3520 4779 c-79 -35 -130 -114 -138 -215 -5 -63 13 -164 29 -164 5 0
9 -4 9 -10 0 -18 45 -62 84 -82 66 -34 159 -13 218 49 51 53 78 124 78 201 0
79 -16 125 -61 177 -58 66 -137 81 -219 44z m148 -33 c59 -31 94 -107 90 -197
l-3 -64 -35 3 c-26 2 -48 -5 -85 -30 -44 -29 -57 -33 -122 -33 -66 -1 -73 1
-82 22 -12 27 -15 153 -3 153 4 0 16 -7 26 -15 36 -27 84 -19 126 23 45 45 59
92 36 127 -16 24 -15 25 4 25 12 0 33 -6 48 -14z m-88 -14 c43 -35 6 -116 -61
-137 -12 -4 -31 0 -46 10 -21 14 -24 22 -19 48 7 36 62 97 87 97 9 0 27 -8 39
-18z m148 -283 c5 -28 -42 -83 -90 -103 -56 -23 -104 -16 -148 20 -40 34 -30
47 30 39 50 -7 86 5 139 47 28 22 64 20 69 -3z"/>
<path d="M5714 4775 c-66 -33 -99 -65 -124 -122 -35 -77 -37 -150 -8 -214 52
-111 131 -163 248 -163 152 0 271 131 257 282 -16 183 -213 297 -373 217z
m177 -25 c59 -17 126 -83 144 -143 22 -74 20 -89 -9 -81 -38 9 -63 -3 -127
-62 -32 -30 -63 -54 -68 -54 -17 0 -61 -50 -61 -70 0 -16 -3 -17 -31 -7 -94
36 -151 148 -128 253 13 56 23 67 34 34 3 -10 20 -31 38 -46 43 -36 100 -29
141 17 24 28 28 38 23 76 -3 27 -12 50 -26 62 -11 10 -21 21 -21 25 0 9 50 7
91 -4z m-117 -24 c82 -34 58 -145 -31 -146 -82 0 -102 108 -28 148 25 14 20
14 59 -2z m250 -232 c22 -21 21 -25 -16 -80 -40 -58 -103 -94 -164 -94 -57 0
-66 18 -24 49 18 15 59 49 89 77 73 67 90 74 115 48z"/>
<path d="M4568 4541 c-26 -4 -56 -15 -67 -25 -29 -26 -27 -77 3 -113 20 -23
34 -29 82 -33 52 -4 59 -7 56 -25 -2 -11 -17 -32 -33 -47 -23 -22 -38 -28 -73
-28 -59 0 -74 7 -92 41 -17 35 -44 38 -44 7 0 -24 40 -78 58 -78 5 0 34 -24
64 -54 54 -55 101 -76 163 -76 41 1 110 33 129 62 9 13 31 29 50 36 48 18 91
76 87 120 -2 22 -31 12 -42 -15 -15 -40 -59 -73 -97 -73 -43 0 -102 55 -102
94 0 24 3 26 43 26 57 0 108 27 132 72 23 44 14 85 -25 105 -27 13 -206 16
-292 4z m280 -68 c5 -53 -22 -63 -165 -63 -111 0 -125 2 -144 21 -18 18 -19
23 -6 42 16 25 86 35 232 33 l80 -1 3 -32z m-168 -192 c0 -10 51 -62 76 -78
19 -11 19 -11 -1 -27 -30 -23 -122 -21 -162 4 -42 25 -41 37 0 55 18 7 41 23
51 34 20 22 36 27 36 12z"/>
<path d="M1681 5574 c-32 -41 -27 -70 22 -114 84 -77 138 -88 173 -35 27 41
-1 83 -94 145 -56 37 -75 38 -101 4z m70 -25 c12 -6 39 -28 61 -49 31 -29 39
-42 33 -59 -9 -28 -28 -27 -78 8 -61 42 -80 66 -72 90 7 23 26 27 56 10z"/>
<path d="M1452 5463 c-51 -50 -77 -147 -52 -194 15 -28 65 -25 85 4 22 33 55
135 55 169 0 21 -6 31 -26 38 -33 13 -30 14 -62 -17z m53 -36 c-39 -129 -48
-147 -66 -147 -25 0 -24 24 2 97 27 73 37 87 55 72 7 -6 11 -16 9 -22z"/>
<path d="M1574 5455 c-16 -24 -15 -28 16 -91 38 -78 61 -104 93 -104 28 0 57
29 57 57 0 20 -47 100 -83 141 -27 29 -62 28 -83 -3z m60 -21 c9 -8 16 -19 16
-24 0 -5 6 -15 13 -22 30 -31 49 -70 39 -80 -6 -6 -17 -8 -24 -5 -19 7 -90
125 -83 137 9 14 21 12 39 -6z"/>
<path d="M2303 5282 c-35 -5 -73 -58 -73 -101 0 -68 64 -138 136 -148 54 -7
91 10 110 51 46 95 -60 216 -173 198z m79 -44 c15 -12 24 -80 20 -145 -3 -37
-56 -31 -98 11 -40 40 -43 56 -10 56 33 0 50 24 42 60 -4 24 -2 30 12 30 10 0
25 -6 34 -12z m-74 -10 c22 -22 14 -48 -13 -48 -20 0 -25 5 -25 23 0 36 16 47
38 25z m132 -47 c15 -29 12 -87 -5 -101 -13 -11 -15 -9 -14 16 1 16 -2 46 -6
67 -8 41 7 51 25 18z"/>
<path d="M1896 4963 c-11 -3 -37 -16 -58 -29 -83 -53 -73 -114 18 -114 42 0
45 -1 39 -22 -4 -13 -19 -35 -33 -50 -26 -28 -26 -28 -3 -28 25 0 71 41 71 64
0 11 8 13 33 9 38 -6 64 16 52 44 -5 12 -9 14 -12 6 -5 -14 -59 -18 -67 -5 -3
5 6 21 20 37 28 33 31 57 8 79 -15 16 -32 18 -68 9z m44 -48 c0 -16 -64 -62
-95 -67 -36 -6 -29 29 12 56 42 29 83 34 83 11z"/>
<path d="M1332 4787 c-55 -32 -79 -121 -51 -193 14 -39 66 -83 107 -90 134
-25 189 181 71 268 -33 25 -97 32 -127 15z m119 -53 c21 -22 21 -25 6 -42 -10
-10 -17 -33 -17 -50 0 -17 -7 -50 -16 -72 -14 -34 -20 -40 -38 -34 -31 9 -57
35 -72 71 -19 43 -18 43 16 43 51 0 85 51 61 90 -24 37 24 32 60 -6z m-79 -9
c13 -29 -3 -55 -34 -55 -24 0 -33 25 -20 56 15 31 39 31 54 -1z m118 -89 c0
-34 -6 -52 -25 -73 l-26 -28 6 45 c11 82 16 100 31 100 10 0 14 -13 14 -44z"/>
<path d="M6550 3961 c-28 -53 5 -157 66 -211 41 -36 67 -38 88 -8 21 29 20 46
-5 112 -36 97 -121 158 -149 107z m76 -48 c33 -39 54 -86 54 -122 0 -61 -53
-26 -92 62 -36 79 -11 117 38 60z"/>
<path d="M6265 3933 c-69 -36 -121 -106 -111 -149 8 -30 42 -32 94 -5 73 39
135 114 125 152 -7 24 -64 25 -108 2z m79 -11 c9 -15 -36 -71 -81 -101 -80
-53 -103 -36 -43 31 48 55 111 90 124 70z"/>
<path d="M6408 3893 c-31 -36 -39 -65 -39 -140 0 -60 4 -82 19 -102 29 -39 53
-33 80 19 42 82 20 240 -33 240 -7 0 -19 -8 -27 -17z m47 -106 c0 -84 -10
-127 -29 -127 -20 0 -26 23 -26 104 0 50 5 79 16 95 25 36 39 10 39 -72z"/>
<path d="M5716 3349 c-51 -40 -72 -123 -45 -182 35 -77 174 -74 230 5 40 55
11 176 -46 192 -46 13 -112 6 -139 -15z m88 -15 c23 -9 20 -47 -5 -62 -24 -15
-55 -8 -63 14 -9 24 1 34 51 53 1 1 8 -2 17 -5z m80 -61 c5 -17 2 -23 -16 -28
-13 -4 -37 -23 -54 -41 -24 -26 -40 -34 -67 -34 -36 0 -47 15 -47 69 0 20 3
22 23 16 54 -17 73 -16 100 5 15 12 27 31 27 43 0 19 2 19 14 7 8 -8 17 -25
20 -37z m-4 -57 c0 -19 -57 -66 -80 -66 -14 0 -9 9 22 40 44 42 58 49 58 26z"/>
<path d="M6900 3314 c-28 -8 -62 -71 -62 -116 -2 -123 128 -194 208 -114 20
21 36 86 30 122 -4 20 -23 51 -45 74 -32 34 -44 40 -77 39 -21 -1 -46 -3 -54
-5z m65 -44 c11 -17 -5 -50 -24 -50 -28 0 -46 26 -31 45 14 17 46 20 55 5z
m51 -27 c20 -27 17 -41 -22 -89 -41 -50 -74 -57 -98 -22 -17 24 -22 88 -7 88
6 0 13 -4 16 -10 9 -14 58 -13 73 2 7 7 12 20 12 30 0 23 9 23 26 1z m12 -104
c-6 -17 -21 -35 -34 -41 -35 -16 -41 -2 -11 23 15 11 27 27 27 35 0 8 7 14 14
14 12 0 13 -6 4 -31z"/>
<path d="M6290 3242 c-52 -25 -49 -61 7 -87 26 -12 42 -26 40 -35 -3 -20 -44
-25 -73 -9 -29 15 -38 8 -30 -24 8 -34 67 -45 104 -21 24 16 27 16 57 0 39
-22 89 -18 93 7 3 12 -3 17 -20 17 -74 1 -97 43 -30 54 51 8 78 36 62 66 -26
48 -143 66 -210 32z m170 -37 c10 -12 7 -17 -16 -26 -59 -22 -186 5 -144 31
25 16 146 12 160 -5z"/>
<path d="M2551 3873 c-24 -30 -21 -47 17 -108 58 -90 90 -105 130 -62 28 30
28 37 -4 99 -49 98 -102 124 -143 71z m93 -60 c39 -62 45 -93 20 -93 -17 0
-37 20 -55 55 -5 11 -16 31 -24 45 -10 17 -11 28 -3 37 17 21 25 16 62 -44z"/>
<path d="M2293 3877 c-28 -16 -118 -126 -125 -154 -9 -34 18 -63 57 -63 37 0
56 20 109 112 31 53 31 84 1 104 -16 11 -25 11 -42 1z m33 -42 c5 -13 -10 -46
-38 -80 -4 -5 -17 -22 -29 -37 -23 -31 -46 -36 -55 -13 -7 16 27 72 71 118 29
31 43 34 51 12z"/>
<path d="M2412 3820 c-7 -12 -12 -55 -12 -108 0 -102 15 -132 67 -132 53 0 64
25 57 126 -4 49 -13 99 -20 112 -19 29 -74 31 -92 2z m72 -32 c13 -61 13 -158
1 -168 -20 -16 -42 -2 -49 32 -8 41 -8 143 1 151 15 15 43 6 47 -15z"/>
<path d="M2957 3330 c-57 -45 -58 -153 -2 -216 18 -19 72 -44 97 -44 34 0 87
36 99 68 15 39 6 124 -17 154 -43 59 -127 77 -177 38z m61 -49 c4 -25 -14 -51
-35 -51 -22 0 -26 26 -7 55 19 30 38 28 42 -4z m75 -3 c18 -25 18 -25 -6 -60
-13 -20 -30 -50 -37 -67 -16 -40 -33 -39 -64 2 -32 42 -33 57 -3 57 30 0 57
29 62 66 2 16 4 31 4 32 2 10 27 -7 44 -30z m24 -93 c-6 -36 -27 -65 -46 -65
-15 0 -14 3 11 55 26 54 43 59 35 10z"/>
<path d="M1853 3230 c-47 -28 -66 -63 -67 -124 0 -65 18 -96 72 -120 139 -63
243 126 128 232 -42 38 -85 42 -133 12z m67 -49 c0 -49 -50 -68 -66 -26 -8 20
23 55 48 55 13 0 18 -7 18 -29z m53 11 c25 -27 39 -72 23 -72 -7 0 -33 -22
-57 -50 -24 -27 -52 -50 -61 -50 -39 0 -73 81 -49 118 7 11 9 11 14 -2 8 -21
55 -21 79 1 10 9 18 29 18 45 0 32 10 36 33 10z m27 -111 c0 -23 -44 -71 -65
-71 -23 0 -19 11 20 53 39 42 45 45 45 18z"/>
<path d="M2392 3170 c-12 -12 -22 -26 -22 -33 0 -24 30 -54 60 -60 33 -7 39
-27 14 -48 -11 -9 -23 -10 -43 -3 -59 23 -71 -15 -13 -44 20 -11 51 -27 68
-36 24 -12 38 -14 61 -6 36 13 107 95 99 115 -7 19 -20 19 -36 0 -16 -19 -44
-19 -59 -1 -10 12 -6 15 19 21 38 8 60 30 60 60 0 43 -24 55 -109 55 -64 0
-81 -4 -99 -20z m173 -20 c14 -23 -17 -40 -75 -40 -32 0 -65 3 -74 6 -19 7
-21 30 -3 37 23 10 146 7 152 -3z m-61 -136 c9 -3 16 -12 16 -19 0 -16 -25
-26 -45 -19 -11 5 -12 10 -2 25 6 10 13 19 14 19 1 0 8 -3 17 -6z"/>
<path d="M2813 8400 c-113 -50 -181 -194 -139 -295 14 -34 14 -35 -7 -35 -62
-1 -199 -106 -238 -183 -79 -155 23 -317 200 -317 l60 0 -6 -78 c-5 -70 -3
-82 20 -128 98 -194 320 -205 413 -21 27 53 38 56 94 27 62 -32 135 -27 212
13 86 46 121 95 126 182 5 70 -15 124 -64 176 l-25 26 53 34 c94 61 130 173
97 304 -14 54 -68 119 -122 147 -64 32 -178 29 -241 -6 -27 -15 -50 -26 -51
-24 -1 2 -12 21 -23 43 -28 55 -87 110 -145 134 -62 27 -156 27 -214 1z m202
-24 c28 -12 64 -35 81 -49 38 -32 76 -108 72 -144 -4 -31 21 -44 28 -16 8 28
79 71 131 79 115 17 198 -22 246 -115 59 -118 23 -254 -85 -317 -26 -15 -50
-34 -52 -41 -3 -7 12 -33 34 -58 102 -117 70 -253 -75 -321 -66 -31 -107 -30
-183 6 -35 17 -67 28 -71 26 -4 -3 -29 -38 -55 -79 -55 -85 -89 -107 -167
-107 -62 0 -93 16 -146 73 -62 68 -79 150 -48 242 19 54 14 68 -21 55 -45 -18
-131 -12 -177 11 -47 25 -61 39 -82 88 -35 78 -10 165 70 243 58 58 123 91
181 92 44 1 61 20 30 32 -20 7 -36 58 -36 108 1 58 30 117 78 154 81 64 164
77 247 38z"/>
<path d="M2995 8024 c-122 -63 -153 -220 -63 -314 83 -84 200 -92 284 -18 44
38 64 86 64 150 0 82 -45 156 -113 186 -39 17 -136 15 -172 -4z m147 -16 c27
-8 52 -26 76 -56 33 -41 37 -50 37 -106 0 -52 -4 -67 -30 -103 -40 -57 -82
-76 -155 -71 -101 7 -160 72 -160 176 0 62 39 124 95 151 47 23 82 26 137 9z"/>
<path d="M7613 8065 c-41 -17 -60 -48 -68 -110 -12 -81 -29 -105 -77 -105 -22
0 -31 9 -53 54 -34 69 -57 90 -99 89 -77 -2 -145 -73 -153 -161 -6 -59 15 -88
92 -127 58 -30 68 -47 36 -64 -19 -10 -79 3 -91 19 -8 11 -83 50 -97 50 -30 0
-83 -36 -98 -66 -27 -57 -19 -107 30 -201 31 -59 45 -97 45 -124 0 -21 -3 -39
-7 -39 -3 0 -29 11 -57 24 -68 31 -121 38 -205 26 -207 -29 -400 -156 -496
-325 -50 -89 -78 -209 -77 -330 1 -186 58 -309 180 -388 160 -103 330 -123
492 -60 155 60 356 226 414 341 80 158 71 321 -29 486 -19 32 -35 60 -35 62 0
18 80 -20 100 -47 9 -11 64 -36 97 -43 50 -11 110 12 149 58 28 33 34 47 34
85 -1 58 -14 75 -84 106 -62 27 -77 48 -53 73 15 14 24 14 106 -2 70 -13 99
-15 129 -6 74 19 122 76 122 142 0 69 -54 108 -150 108 -69 0 -84 15 -57 59
11 18 34 32 74 45 127 40 156 60 168 116 9 39 -1 109 -20 147 -48 96 -172 147
-262 108z m149 -31 c69 -36 108 -97 110 -175 1 -81 -24 -104 -152 -139 -49
-13 -110 -67 -110 -97 0 -40 22 -53 102 -59 83 -7 113 -24 124 -68 8 -35 -20
-93 -58 -116 -34 -22 -39 -22 -213 -4 -52 5 -63 3 -82 -15 -34 -32 -17 -60 58
-101 85 -47 102 -100 52 -156 -65 -73 -119 -73 -232 1 -99 65 -144 72 -205 30
-23 -15 -43 -22 -51 -18 -10 6 -3 19 28 54 23 25 57 64 76 88 29 36 39 41 60
36 33 -8 82 -42 145 -100 26 -25 53 -45 60 -45 18 1 -126 129 -166 148 -21 9
-38 20 -38 24 0 4 23 34 51 65 29 32 65 73 82 92 29 33 31 33 93 28 45 -3 82
-14 125 -37 72 -37 90 -33 27 6 -46 30 -124 54 -171 54 -29 0 -29 0 -10 24 10
13 59 70 108 126 123 140 156 182 150 189 -3 3 -16 -6 -28 -21 -21 -24 -95
-109 -166 -190 -34 -39 -51 -47 -51 -26 0 15 -107 195 -121 204 -22 13 -20 -6
3 -34 28 -34 108 -184 108 -204 0 -7 -10 -25 -22 -38 -13 -14 -54 -60 -92
-103 l-68 -78 -20 40 c-22 45 -111 131 -135 131 -10 0 9 -23 43 -54 33 -30 68
-73 79 -95 18 -41 18 -42 -2 -64 -10 -12 -48 -56 -84 -97 -92 -107 -89 -104
-101 -92 -7 7 -4 27 11 66 34 92 29 148 -24 249 -50 96 -54 127 -25 175 28 45
66 58 105 37 112 -62 121 -65 145 -60 77 19 61 92 -26 119 -85 26 -87 140 -3
210 24 21 41 26 68 24 33 -3 39 -8 66 -61 37 -72 72 -95 117 -76 35 14 67 75
68 129 1 35 23 72 50 83 30 11 112 6 142 -9z m-751 -755 c47 -26 48 -32 33
-107 -7 -37 4 -55 48 -78 27 -14 32 -14 64 5 19 12 41 21 47 20 37 -2 135
-190 144 -276 5 -49 4 -53 -13 -47 -30 11 -155 96 -252 171 -87 68 -274 246
-305 292 -9 14 -19 22 -23 19 -24 -25 199 -240 421 -406 43 -32 157 -102 166
-102 12 0 8 -85 -5 -98 -12 -11 -116 49 -216 124 -175 132 -472 445 -447 470
3 4 23 10 44 15 21 4 54 12 73 18 61 18 171 7 221 -20z m-316 -96 c54 -74 282
-301 385 -383 78 -62 149 -109 208 -134 31 -14 41 -24 37 -35 -12 -31 -70
-123 -93 -147 l-24 -23 -41 26 c-138 84 -282 192 -409 306 -91 82 -119 110
-192 191 -30 33 -96 138 -96 152 0 7 16 22 35 34 20 12 41 28 48 35 16 15 69
44 83 45 5 0 32 -30 59 -67z m-195 -143 c27 -45 204 -231 285 -299 82 -70 265
-206 338 -251 l68 -43 -23 -24 c-41 -44 -54 -46 -108 -19 -46 23 -169 102
-180 115 -3 4 -30 26 -60 50 -187 146 -420 414 -420 482 0 13 10 33 22 47 23
23 23 23 38 3 8 -11 26 -38 40 -61z m-42 -135 c117 -155 323 -348 484 -455 66
-43 124 -80 131 -83 17 -5 -1 -26 -45 -48 -39 -20 -43 -20 -83 -5 -78 30 -302
188 -422 297 -58 53 -195 209 -212 243 -17 31 -7 69 36 145 l26 44 20 -39 c11
-21 40 -66 65 -99z m-118 -121 c124 -165 368 -369 557 -469 29 -15 50 -31 48
-36 -3 -5 -35 -18 -71 -29 -61 -18 -68 -19 -96 -4 -33 17 -118 76 -158 110
-175 149 -276 251 -328 336 -19 31 -21 44 -16 92 4 31 10 56 14 56 4 0 27 -25
50 -56z m-8 -179 c70 -93 319 -315 395 -353 89 -43 -54 -37 -179 8 -123 45
-182 93 -227 185 -32 64 -51 141 -51 203 0 40 -1 41 62 -43z"/>
<path d="M913 7555 c2 -171 -49 -244 -248 -350 -54 -29 -101 -58 -103 -64 -2
-7 19 -11 62 -11 121 0 232 -55 344 -170 33 -34 70 -84 83 -110 13 -27 29 -49
35 -50 6 0 17 19 24 43 7 23 21 54 31 69 11 14 19 29 19 33 0 15 91 101 167
156 46 34 83 67 83 74 0 7 -25 17 -62 25 -86 16 -190 73 -266 144 -84 79 -114
125 -145 221 l-26 80 2 -90z m37 -96 c0 -16 57 -86 107 -131 89 -83 187 -139
266 -153 20 -4 37 -10 37 -14 0 -4 -25 -25 -55 -45 -82 -57 -167 -146 -196
-205 l-26 -53 -36 49 c-45 60 -108 121 -170 163 -57 38 -157 80 -190 80 -41 0
-39 12 5 38 151 87 212 152 233 250 6 30 25 46 25 21z"/>
<path d="M7281 6073 c-5 -21 -15 -63 -21 -93 -26 -117 -81 -206 -217 -354 -46
-49 -83 -98 -83 -108 0 -16 7 -17 73 -12 155 13 368 -63 489 -174 15 -14 29
-24 31 -21 1 2 12 42 24 89 26 104 95 269 123 292 33 27 23 35 -48 40 -77 6
-189 53 -232 97 -71 74 -110 159 -110 243 0 49 -16 49 -29 1z m62 -198 c54
-79 155 -144 259 -167 29 -6 55 -13 57 -14 2 -2 -10 -32 -27 -67 -30 -62 -82
-208 -82 -231 0 -6 -4 -17 -9 -24 -6 -11 -19 -6 -57 21 -60 42 -150 88 -224
113 -40 13 -85 18 -161 19 -125 0 -124 -5 -24 98 113 117 204 284 206 379 0
27 4 22 21 -32 11 -36 30 -78 41 -95z"/>
<path d="M735 2231 c-90 -22 -146 -83 -153 -165 -4 -44 -1 -56 21 -82 15 -18
42 -34 70 -41 99 -27 106 -100 10 -118 -55 -10 -73 -30 -73 -82 0 -55 21 -87
77 -119 64 -38 103 -28 149 37 41 56 64 63 64 19 0 -20 -11 -42 -34 -68 -42
-46 -52 -82 -36 -123 25 -59 107 -76 200 -39 49 19 130 27 143 14 3 -4 -7 -25
-23 -48 -42 -58 -55 -140 -40 -252 13 -101 28 -144 87 -240 79 -131 188 -204
358 -239 151 -32 288 2 373 94 58 62 111 171 124 257 19 122 -31 286 -130 429
-119 171 -300 235 -482 171 -127 -45 -118 -44 -96 -12 10 16 33 42 51 58 65
56 70 148 13 207 -59 60 -111 54 -164 -19 -61 -85 -90 -54 -53 55 30 90 24
158 -20 197 -33 30 -85 37 -122 18 -25 -14 -49 -62 -49 -99 0 -42 -9 -61 -31
-61 -27 0 -51 44 -61 111 -9 72 -31 117 -61 128 -39 15 -81 19 -112 12z m113
-46 c24 -20 30 -34 35 -85 10 -88 40 -140 83 -140 31 0 54 36 54 83 0 82 85
116 141 56 36 -38 38 -89 9 -167 -33 -86 -24 -132 26 -132 14 0 30 12 43 33
53 86 96 99 148 45 17 -18 34 -43 38 -56 9 -31 -10 -84 -42 -113 -14 -13 -39
-42 -54 -63 -34 -45 -39 -107 -13 -145 11 -15 13 -26 7 -32 -14 -14 -133 125
-133 154 0 19 113 137 131 137 4 0 9 7 13 15 10 26 -27 1 -101 -70 -37 -36
-71 -65 -74 -65 -5 0 -78 87 -118 142 -19 26 -2 97 38 153 45 64 45 73 2 25
-25 -28 -45 -62 -53 -92 -6 -26 -15 -48 -19 -48 -4 0 -25 21 -46 47 -42 52
-70 85 -132 153 -22 25 -41 48 -41 53 0 4 -5 7 -10 7 -14 0 -4 -17 46 -76 23
-27 60 -71 82 -98 l40 -49 -79 -27 c-82 -29 -135 -57 -125 -68 4 -3 23 4 44
15 20 11 68 31 105 43 58 20 70 21 81 9 71 -80 146 -167 146 -171 0 -3 -17
-10 -37 -16 -39 -12 -133 -85 -122 -96 3 -3 26 12 52 34 26 21 64 44 84 51 34
11 37 10 67 -22 17 -19 55 -63 84 -99 60 -75 53 -86 -30 -44 -64 33 -122 34
-196 5 -76 -30 -135 -28 -161 5 -29 36 -26 67 8 106 51 59 65 110 39 136 -22
22 -46 13 -79 -30 -19 -24 -38 -46 -44 -50 -34 -25 -128 13 -146 59 -13 36
-11 79 5 92 8 7 30 15 50 18 43 7 76 36 76 68 0 37 -45 82 -89 90 -74 12 -99
77 -59 155 44 85 162 119 226 65z m772 -561 c0 -17 -175 -195 -280 -285 -85
-72 -196 -143 -211 -134 -16 11 -3 120 22 171 11 23 28 49 39 59 18 16 21 17
44 1 14 -9 36 -16 50 -16 32 0 70 46 61 75 -17 52 -11 66 37 92 93 49 238 71
238 37z m83 -7 l27 -12 -26 -39 c-74 -108 -347 -336 -501 -419 -57 -31 -73
-29 -73 8 0 18 9 29 33 41 88 45 204 140 342 280 83 84 155 152 160 153 6 0
22 -5 38 -12z m115 -73 c34 -31 62 -60 62 -66 0 -18 -139 -171 -241 -263 -51
-48 -190 -160 -236 -193 -32 -22 -166 -92 -177 -92 -9 0 -76 138 -76 157 0 12
18 26 54 41 123 54 508 380 531 451 3 11 10 21 14 21 4 0 35 -25 69 -56z m101
-120 c22 -37 27 -64 12 -64 -5 0 -12 -8 -15 -17 -14 -43 -236 -250 -356 -333
-19 -13 -37 -27 -40 -30 -12 -14 -168 -98 -204 -110 -37 -12 -41 -11 -58 10
-10 12 -18 25 -18 29 0 4 37 26 83 49 45 23 109 62 142 87 136 102 331 287
399 378 16 20 30 37 31 37 2 0 12 -16 24 -36z m57 -109 c7 -19 14 -41 14 -49
0 -32 -159 -214 -282 -323 -49 -43 -183 -135 -237 -162 -51 -26 -71 -23 -129
19 -43 31 -53 50 -27 50 34 0 207 106 335 204 80 62 226 202 266 256 16 22 33
40 37 40 4 0 15 -16 23 -35z m48 -168 l7 -48 -98 -97 c-124 -123 -206 -189
-295 -238 -79 -43 -76 -60 4 -19 47 25 105 62 118 75 3 3 46 40 95 81 50 42
107 95 128 119 21 23 40 40 42 38 8 -8 -18 -97 -45 -153 -59 -122 -155 -190
-284 -202 -38 -3 -84 -1 -111 6 -25 6 -65 16 -90 22 -25 7 -45 15 -45 18 0 4
16 13 35 21 19 8 35 17 35 21 0 3 14 12 31 19 17 7 36 18 42 24 7 6 32 24 56
40 49 32 257 235 316 309 43 55 46 53 59 -36z"/>
<path d="M7003 1660 c-76 -34 -123 -96 -123 -161 0 -27 -2 -29 -22 -22 -46 16
-160 8 -213 -16 -93 -41 -135 -100 -135 -186 0 -82 45 -147 128 -182 38 -16
38 -17 11 -46 -39 -41 -53 -80 -54 -147 -1 -192 164 -283 320 -177 l39 26 50
-53 c71 -75 132 -91 233 -61 35 10 62 27 86 54 41 45 52 88 44 166 -6 59 -1
65 54 65 74 0 153 72 182 163 21 67 21 91 1 150 -29 84 -136 153 -226 144
l-47 -4 1 46 c4 182 -173 312 -329 241z m203 -39 c52 -37 70 -59 90 -106 21
-51 21 -117 1 -149 -20 -29 -7 -42 24 -25 67 35 197 -8 246 -83 39 -58 39
-144 1 -208 -47 -80 -76 -97 -201 -116 -35 -5 -38 -8 -32 -27 33 -108 3 -201
-78 -244 -38 -19 -145 -20 -183 0 -30 15 -74 61 -74 76 0 4 -9 16 -20 26 -19
17 -21 17 -62 -11 -109 -73 -180 -73 -249 3 -56 61 -67 172 -22 238 15 22 37
49 50 60 34 30 29 40 -28 54 -102 26 -160 123 -129 215 12 37 75 101 115 116
14 5 54 14 89 21 58 10 69 9 111 -10 26 -12 49 -21 51 -21 2 0 1 20 -2 44 -5
36 -2 53 16 83 39 66 88 91 181 92 58 1 71 -3 105 -28z"/>
<path d="M7050 1303 c-102 -34 -148 -102 -137 -200 10 -91 92 -157 189 -150
127 8 203 135 149 252 -23 50 -45 70 -100 90 -44 15 -74 18 -101 8z m120 -41
c81 -51 101 -163 42 -233 -26 -32 -87 -59 -131 -59 -85 0 -159 94 -145 185 15
106 143 164 234 107z"/>
<path d="M3095 1316 c-124 -155 -176 -184 -455 -256 -113 -29 -136 -50 -68
-61 156 -25 374 -242 394 -393 8 -54 29 -61 58 -18 25 37 95 88 169 122 65 30
204 70 244 70 27 0 32 28 6 37 -42 15 -132 79 -175 125 -26 27 -62 79 -80 116
-27 57 -33 81 -36 158 -3 64 0 107 11 145 9 29 15 54 14 54 -1 1 -38 -44 -82
-99z m28 -43 c-12 -131 39 -263 141 -366 35 -36 78 -73 97 -83 l34 -17 -30 -9
c-175 -52 -215 -71 -303 -140 -35 -27 -65 -48 -66 -46 -1 2 -11 26 -21 53 -51
139 -185 278 -331 340 l-39 17 124 34 c69 19 151 49 183 66 63 33 147 110 188
171 14 20 26 37 27 37 0 0 -1 -26 -4 -57z"/>
<path d="M4800 1291 c-19 -10 -45 -33 -57 -51 -13 -18 -23 -28 -23 -23 0 16
-78 49 -132 57 -100 15 -194 -41 -205 -121 -8 -58 3 -105 32 -139 14 -16 25
-32 25 -36 0 -3 -16 -16 -35 -28 -54 -33 -77 -73 -82 -144 -6 -69 6 -103 52
-146 24 -23 34 -25 110 -24 l84 1 7 -40 c9 -57 55 -101 127 -122 50 -15 62
-15 99 -3 53 18 98 72 105 127 5 34 9 41 22 35 32 -13 109 -16 143 -5 39 13
106 74 119 109 14 37 11 111 -7 148 -21 43 -77 93 -115 101 -34 7 -34 6 -12
40 25 37 23 148 -2 188 -55 85 -172 120 -255 76z m165 -17 c94 -44 126 -204
55 -269 -28 -25 -25 -35 9 -35 42 0 71 -13 107 -48 71 -71 67 -172 -9 -238
-59 -49 -103 -61 -164 -41 -57 19 -68 12 -76 -46 -4 -33 -14 -50 -48 -79 -49
-45 -90 -49 -154 -18 -57 28 -82 57 -92 110 l-9 45 -80 -3 c-75 -4 -83 -2
-112 23 -65 54 -68 162 -7 227 19 20 51 42 70 49 40 15 43 24 15 39 -38 20
-70 81 -70 134 0 44 4 53 40 88 42 39 63 44 150 39 48 -4 116 -35 130 -60 12
-24 30 -19 30 8 0 24 37 70 64 81 35 14 116 11 151 -6z"/>
<path d="M4713 1014 c-52 -26 -76 -74 -71 -143 3 -39 10 -65 23 -77 37 -39 70
-54 116 -54 154 0 204 205 67 276 -36 18 -95 17 -135 -2z m137 -20 c31 -19 60
-72 60 -110 0 -68 -57 -124 -125 -124 -92 0 -151 80 -121 166 25 73 119 107
186 68z"/>
<path d="M6930 270 c0 -46 3 -81 6 -77 8 8 9 145 1 154 -4 3 -7 -31 -7 -77z"/>
<path d="M5566 333 c-10 -10 -7 -143 3 -143 6 0 11 24 13 53 l3 52 25 -37 c14
-21 27 -38 30 -38 3 0 16 17 30 37 l25 37 3 -57 c2 -33 7 -55 13 -52 12 8 12
142 -1 150 -5 3 -22 -14 -37 -39 -15 -26 -30 -46 -34 -46 -3 0 -15 18 -28 40
-24 43 -35 53 -45 43z"/>
<path d="M6059 315 c-3 -26 -8 -30 -30 -27 -51 6 -79 -57 -41 -91 10 -10 32
-17 49 -17 l31 0 4 66 c3 70 -7 123 -13 69z m-7 -62 c8 -36 -3 -54 -31 -51
-26 3 -38 26 -27 54 8 20 54 18 58 -3z"/>
<path d="M6306 333 c-10 -10 -7 -141 4 -148 6 -4 10 16 11 52 0 49 2 55 12 40
7 -10 20 -28 30 -40 16 -19 20 -20 27 -6 5 9 18 27 29 40 l20 24 1 -58 c0 -36
4 -56 10 -52 12 8 13 142 1 149 -5 4 -22 -14 -38 -39 -15 -25 -31 -45 -35 -45
-4 0 -13 10 -19 23 -20 36 -46 67 -53 60z"/>
<path d="M6787 328 c-4 -10 -9 -24 -11 -32 -3 -8 -14 -12 -28 -9 -43 8 -69
-55 -38 -92 16 -19 79 -20 86 -2 8 22 0 154 -9 135z m-12 -77 c9 -28 -5 -51
-30 -51 -25 0 -39 23 -30 51 8 25 52 25 60 0z"/>
<path d="M5752 278 c-16 -16 -15 -66 2 -84 18 -17 58 -18 74 -2 7 7 12 26 12
43 0 38 -16 55 -50 55 -14 0 -31 -5 -38 -12z m67 -22 c18 -22 -3 -56 -34 -56
-21 0 -25 5 -25 28 0 16 3 32 7 35 11 12 40 8 52 -7z"/>
<path d="M5860 234 c0 -34 4 -53 10 -49 6 3 10 24 10 46 0 36 2 40 23 37 17
-2 23 -11 25 -38 5 -54 22 -61 22 -9 0 54 -13 69 -57 69 l-33 0 0 -56z"/>
<path d="M6107 283 c-15 -15 -5 -22 23 -16 19 3 30 1 30 -6 0 -6 -13 -14 -30
-17 -29 -6 -47 -34 -35 -54 4 -6 23 -10 43 -8 33 3 37 7 40 35 4 43 -13 73
-42 73 -12 0 -26 -3 -29 -7z m51 -65 c-5 -15 -48 -24 -48 -10 0 14 12 22 33
22 10 0 17 -5 15 -12z"/>
<path d="M6200 271 c0 -11 8 -36 17 -55 16 -34 16 -37 -3 -57 -18 -20 -18 -21
-1 -18 18 4 67 104 67 136 0 24 -18 4 -25 -27 -8 -39 -24 -38 -32 0 -7 36 -23
50 -23 21z"/>
<path d="M6497 283 c-14 -14 -6 -19 23 -15 40 6 38 -13 -2 -24 -61 -18 -46
-72 16 -60 29 6 36 11 36 31 0 44 -18 75 -43 75 -13 0 -27 -3 -30 -7z m51 -65
c-5 -15 -48 -24 -48 -10 0 14 12 22 33 22 10 0 17 -5 15 -12z"/>
<path d="M6590 233 c1 -44 3 -54 11 -41 5 10 9 24 8 30 -5 37 2 49 24 46 18
-2 23 -10 25 -46 4 -47 22 -48 22 -1 0 49 -16 69 -55 69 l-35 0 0 -57z"/>
<path d="M6837 283 c-15 -14 -6 -23 12 -13 14 7 22 7 27 -1 8 -13 -5 -26 -31
-31 -14 -2 -20 -11 -20 -28 0 -22 4 -25 40 -25 l40 0 -1 44 c-1 24 -8 47 -15
52 -17 10 -43 12 -52 2z m47 -68 c-6 -16 -44 -21 -44 -7 0 14 12 22 31 22 12
0 16 -5 13 -15z"/>
<path d="M6987 283 c-14 -13 -6 -23 11 -15 18 10 42 5 42 -8 0 -5 -13 -11 -29
-15 -66 -14 -61 -67 5 -62 32 2 34 4 34 39 0 20 -3 43 -6 52 -6 16 -45 22 -57
9z m51 -65 c-5 -15 -58 -24 -58 -10 0 15 12 22 38 22 14 0 22 -5 20 -12z"/>
<path d="M7126 275 c-17 -18 -19 -28 -10 -62 7 -25 34 -37 64 -28 30 10 24 20
-12 20 -30 0 -33 3 -33 30 0 27 3 30 33 30 17 0 31 4 29 10 -6 17 -54 17 -71
0z"/>
<path d="M7236 274 c-34 -33 -9 -94 38 -94 31 0 46 18 46 55 0 17 -5 36 -12
43 -17 17 -54 15 -72 -4z m66 -21 c8 -36 -3 -54 -31 -51 -26 3 -38 26 -27 54
8 20 54 18 58 -3z"/>
<path d="M7343 240 c-1 -28 3 -53 8 -56 5 -3 9 15 9 40 0 42 2 46 25 46 23 0
25 -4 25 -40 0 -22 5 -40 10 -40 6 0 10 18 10 41 0 36 2 40 23 37 18 -2 23
-11 28 -48 4 -35 7 -41 14 -26 4 10 4 35 -1 55 l-9 36 -71 2 -71 2 0 -49z"/>
</g>
</svg>
