<?xml version="1.0" standalone="no"?>
<!DOCTYPE svg PUBLIC "-//W3C//DTD SVG 20010904//EN"
 "http://www.w3.org/TR/2001/REC-SVG-20010904/DTD/svg10.dtd">
<svg version="1.0" xmlns="http://www.w3.org/2000/svg"
 width="816.000000pt" height="1056.000000pt" viewBox="0 0 816.000000 1056.000000"
 preserveAspectRatio="xMidYMid meet">
<metadata>
Created by potrace 1.16, written by Peter Selinger 2001-2019
</metadata>
<g transform="translate(0.000000,1056.000000) scale(0.100000,-0.100000)"
fill="#000000" stroke="none">
<path d="M225 10318 c-3 -7 -4 -2283 -3 -5058 l3 -5045 2613 0 c1436 0 2612 3
2612 8 0 4 -1172 7 -2605 7 l-2605 0 0 739 0 738 78 69 c43 38 159 139 257
224 157 136 438 384 472 416 7 6 9 14 6 18 -12 12 1617 7 1724 -6 80 -9 120
-9 180 0 102 16 1458 28 1467 13 4 -5 0 -13 -7 -18 -34 -20 -62 -122 -38 -137
4 -3 11 -28 15 -55 5 -38 13 -55 37 -75 50 -43 101 -51 194 -33 58 11 94 13
133 7 61 -10 106 -4 123 16 8 10 35 14 90 14 77 0 79 0 120 40 l42 40 -7 106
-7 106 278 -7 c332 -8 449 -8 777 0 237 6 249 6 270 -13 32 -29 324 -222 441
-292 76 -45 230 -145 243 -157 8 -7 23 -18 35 -25 20 -10 70 -42 217 -137 30
-19 57 -38 60 -41 12 -14 377 -223 432 -248 l38 -17 0 -636 0 -637 -22 -6
c-13 -3 -83 -6 -155 -6 -82 0 -133 -4 -133 -10 0 -13 327 -14 334 -1 4 5 6
2278 6 5052 0 4023 -3 5044 -13 5051 -6 4 -1741 8 -3855 8 -3065 0 -3844 -3
-3847 -12z m2542 -22 c2 -2 5 -113 6 -247 l2 -244 -30 -95 c-25 -80 -30 -111
-30 -198 l0 -104 -30 6 c-16 3 -221 9 -455 12 -234 3 -452 6 -485 7 l-59 2
-12 96 c-20 155 -47 233 -102 288 -72 72 -78 72 -620 61 -255 -5 -467 -12
-471 -14 -6 -4 -193 -10 -228 -7 -10 1 -13 52 -13 220 0 198 2 220 17 223 23
4 2505 -1 2510 -6z m2619 -194 c3 -187 8 -230 48 -427 10 -48 12 -97 8 -155
-8 -97 12 -83 -172 -120 -402 -81 -534 -91 -1230 -91 -433 0 -554 3 -635 16
-55 8 -143 20 -195 25 -99 11 -453 60 -457 64 -2 2 -7 27 -13 56 -12 62 -9 80
33 245 l30 120 -6 227 c-5 187 -3 229 8 235 7 5 590 7 1295 5 l1282 -2 4 -198z
m2524 -90 l0 -293 -232 8 c-590 20 -884 -6 -997 -87 -53 -39 -80 -94 -89 -183
l-7 -72 -45 -7 c-51 -8 -230 -1 -305 12 -27 5 -115 23 -195 39 -193 41 -277
46 -432 27 -69 -9 -130 -16 -135 -16 -4 0 -8 55 -8 122 0 94 -6 145 -24 218
-19 79 -24 130 -28 307 l-5 212 53 3 c30 2 593 3 1252 3 l1197 0 0 -293z
m-6425 -173 c84 -31 117 -88 151 -259 15 -74 18 -182 21 -817 4 -774 0 -888
-37 -948 -38 -62 -67 -68 -335 -76 -132 -4 -305 -15 -385 -23 -80 -9 -217 -23
-305 -31 -88 -8 -187 -20 -221 -25 -33 -6 -77 -10 -97 -10 l-37 0 0 263 0 263
233 11 c127 7 293 11 367 10 132 -2 136 -1 195 28 65 33 97 71 117 139 14 51
12 378 -3 473 -6 37 -14 181 -19 318 -4 138 -13 267 -19 288 -7 21 -26 53 -42
72 -46 52 -105 61 -288 41 -128 -14 -496 -46 -529 -46 -9 0 -12 42 -12 158 l0
158 298 13 c163 7 387 13 497 14 110 2 244 3 297 5 78 2 108 -2 153 -19z
m6393 -146 l32 -5 -2 -165 -3 -164 -285 1 c-374 1 -433 -11 -513 -99 -58 -65
-62 -91 -62 -421 1 -256 4 -328 29 -548 16 -139 26 -256 22 -259 -4 -4 -21 2
-39 12 -42 26 -145 27 -209 2 -96 -37 -166 -156 -155 -261 3 -28 8 -58 12 -67
3 -8 -2 -25 -12 -36 -10 -12 -27 -36 -38 -55 l-20 -33 -3 95 c-2 52 1 192 8
310 16 301 13 786 -5 1020 -19 254 -20 431 0 497 16 52 50 95 97 119 35 18
194 51 308 63 86 10 778 5 838 -6z m-6885 -169 c41 -14 49 -22 74 -71 26 -54
27 -65 34 -272 4 -119 13 -268 19 -331 17 -162 18 -435 2 -487 -17 -56 -68
-109 -117 -121 -22 -6 -203 -13 -402 -16 l-363 -6 0 633 0 632 272 19 c150 10
296 22 323 26 80 12 109 11 158 -6z m5072 -130 c160 -35 181 -37 347 -38 l178
-1 0 -65 c0 -36 7 -148 16 -250 21 -257 29 -776 12 -787 -7 -4 -165 -8 -350
-8 l-337 0 -6 37 c-12 68 -74 143 -155 187 -43 23 -144 26 -197 6 -27 -10 -54
-24 -61 -32 -7 -7 -19 -16 -27 -20 -29 -17 -83 -113 -90 -161 l-6 -49 -157
-11 c-86 -6 -193 -13 -237 -14 l-80 -3 3 66 c5 88 -13 141 -65 199 -59 66
-127 94 -213 88 -81 -6 -135 -33 -189 -94 -47 -54 -61 -94 -61 -181 0 -57 -2
-63 -21 -63 -26 0 -57 -16 -89 -46 l-25 -23 -135 19 c-139 19 -326 57 -532
107 l-118 28 0 42 c0 23 9 115 21 205 24 183 28 358 15 589 l-8 156 633 6
c711 7 705 7 1119 86 437 84 534 87 815 25z m-3415 -3 c91 -6 192 -15 225 -21
33 -6 161 -24 285 -40 124 -16 246 -32 271 -36 l46 -6 8 -202 c9 -255 8 -332
-10 -481 -8 -66 -19 -162 -24 -213 -5 -51 -11 -95 -13 -98 -3 -2 -25 0 -49 6
-24 6 -147 13 -274 16 -205 5 -243 4 -355 -15 -69 -12 -235 -28 -370 -36 -135
-8 -285 -19 -335 -24 -49 -5 -152 -13 -227 -17 l-138 -7 0 594 0 594 397 -1
c219 -1 472 -7 563 -13z m5260 -73 c0 -5 0 -807 0 -1785 l0 -1776 -207 6
c-115 4 -237 12 -273 18 -126 20 -174 77 -186 226 -7 87 -2 123 20 146 27 27
83 123 100 172 13 34 21 100 26 210 7 157 8 162 49 260 23 55 46 108 51 117 6
10 10 25 10 33 0 8 5 15 10 15 6 0 10 6 10 13 0 24 48 132 62 138 7 4 26 13
41 20 67 31 127 122 127 192 -1 86 -56 174 -133 210 -19 10 -59 17 -89 17
-119 -1 -207 -81 -224 -203 l-6 -44 -47 4 c-25 3 -51 6 -57 8 -7 2 -12 53 -13
152 -1 81 -4 158 -7 170 -3 12 3 39 13 60 12 26 18 61 18 113 0 65 -4 82 -31
130 -26 47 -33 73 -43 175 -7 66 -17 147 -22 180 -21 143 -41 507 -36 655 6
198 21 254 82 308 32 28 60 42 102 51 32 7 63 15 68 16 21 7 585 0 585 -7z
m-3192 -833 c137 -41 201 -200 131 -325 -22 -39 -83 -90 -108 -90 -7 0 -24 14
-38 30 -50 60 -119 77 -166 40 -32 -26 -48 -25 -68 3 -40 54 -49 143 -22 209
30 76 80 118 160 137 54 13 54 13 111 -4z m1029 -56 c51 -16 111 -83 129 -146
23 -78 1 -167 -53 -222 -12 -11 -22 -11 -68 3 -64 21 -161 36 -232 36 -51 0
-53 1 -68 36 -20 49 -19 138 2 177 63 114 163 154 290 116z m-2577 -139 c185
-11 263 -24 497 -81 155 -37 491 -99 541 -99 21 0 23 -4 17 -22 -26 -87 -14
-166 36 -223 29 -32 29 -33 13 -76 -8 -24 -40 -123 -69 -219 -30 -96 -66 -209
-81 -251 l-25 -75 -107 -18 c-59 -10 -127 -22 -152 -26 -186 -33 -509 -81
-575 -85 -44 -3 -159 -7 -256 -9 -168 -4 -178 -3 -199 16 -30 28 -99 35 -141
14 -18 -9 -34 -14 -36 -12 -3 2 -9 37 -14 78 -11 83 -43 262 -64 358 -49 222
-58 294 -52 415 7 131 29 254 49 267 7 4 27 8 44 8 17 0 71 7 120 16 76 13
199 28 269 33 11 0 94 -4 185 -9z m-665 -95 c-22 -72 -38 -243 -31 -332 6 -79
27 -204 46 -268 8 -28 16 -73 55 -285 8 -41 16 -104 20 -140 l6 -65 -218 0
c-193 -1 -242 -5 -430 -33 -116 -18 -254 -41 -305 -52 -51 -11 -187 -31 -303
-45 -115 -14 -233 -28 -261 -31 l-52 -7 1 194 c1 144 -3 221 -16 299 -21 125
-15 255 12 265 9 4 117 9 241 11 124 3 245 10 270 16 54 14 110 68 128 124 7
21 16 110 19 197 l6 157 91 0 c50 0 150 5 221 11 72 6 173 14 225 18 52 5 138
9 192 9 l96 2 -13 -45z m3566 20 c0 -6 -5 -48 -11 -93 -12 -80 -10 -205 6
-525 7 -138 -2 -267 -19 -267 -7 0 -30 21 -52 47 -22 26 -60 70 -84 98 -77 89
-84 114 -89 331 l-5 191 38 38 c39 41 51 63 70 135 l12 45 59 6 c71 7 76 6 75
-6z m545 -130 c-4 -77 -10 -230 -12 -340 l-5 -199 -44 -65 c-25 -36 -66 -87
-92 -114 -44 -47 -49 -49 -89 -44 -24 2 -50 12 -59 20 -29 29 -106 33 -206 11
l-26 -6 8 54 c11 79 10 184 -3 376 -9 134 -9 202 0 304 6 72 16 134 21 137 5
3 123 6 261 6 l253 0 -7 -140z m-1215 67 c4 -18 13 -42 21 -54 14 -21 13 -27
-23 -80 -22 -31 -39 -59 -39 -62 0 -3 -13 -25 -30 -49 -16 -25 -30 -48 -30
-51 0 -6 -24 -37 -75 -94 l-31 -34 -111 -1 c-132 -2 -148 -10 -196 -99 -33
-63 -55 -72 -92 -40 -40 33 -57 99 -63 234 -6 173 -3 187 55 218 27 14 60 44
81 72 l34 48 86 1 c48 0 155 6 237 13 83 7 154 12 160 11 5 -1 12 -16 16 -33z
m-981 -3 c0 -6 14 -29 31 -50 l31 -39 -22 -74 -22 -74 -41 -6 c-23 -4 -47 -12
-54 -18 -24 -19 -59 6 -78 56 -15 40 -16 52 -5 90 12 46 48 94 85 114 26 15
75 15 75 1z m241 -65 c23 -25 24 -30 24 -192 0 -136 4 -179 19 -231 22 -72 67
-125 115 -136 42 -9 67 8 101 69 50 88 56 91 177 88 l104 -3 62 64 c35 36 90
110 125 170 81 136 98 150 171 142 85 -10 200 -36 207 -47 4 -6 8 -95 9 -197
3 -245 7 -255 128 -396 137 -157 127 -152 222 -109 66 31 125 29 172 -3 110
-78 181 -26 380 277 63 96 67 100 100 91 52 -15 187 -91 205 -116 24 -32 27
-84 12 -205 -21 -161 -16 -359 10 -410 58 -113 158 -138 247 -62 44 37 72 85
104 182 43 131 49 140 93 140 49 -1 75 -22 74 -60 -1 -28 -54 -182 -71 -205
-4 -5 -27 -57 -50 -115 l-42 -105 -43 3 c-37 3 -46 0 -68 -27 -28 -33 -78
-156 -104 -254 -20 -79 -15 -239 11 -315 10 -29 15 -55 12 -58 -3 -3 -17 5
-31 19 -39 39 -141 109 -246 169 -149 85 -167 94 -455 219 -319 138 -970 334
-1400 420 -343 68 -554 93 -770 87 l-148 -3 6 105 c3 58 9 116 14 129 9 22 10
21 21 -17 23 -74 99 -122 175 -108 51 10 108 56 140 114 31 58 97 330 97 405
0 97 -80 117 -165 42 -20 -17 -36 -24 -50 -20 -11 3 -32 8 -47 11 -16 4 -28
12 -28 18 0 16 44 148 55 168 13 21 67 50 77 40 9 -9 -21 -92 -51 -143 -24
-41 -15 -68 16 -49 31 20 81 137 118 280 37 139 50 160 105 160 26 0 43 -7 61
-26z m2372 -78 c80 -33 127 -105 127 -194 0 -87 -36 -154 -102 -188 -40 -21
-70 -17 -114 12 -58 40 -149 84 -172 84 -25 0 -32 18 -32 86 0 94 44 162 129
201 36 16 125 16 164 -1z m-6047 -428 c-1 -62 7 -176 17 -253 14 -111 16 -166
9 -262 -5 -68 -11 -125 -13 -127 -2 -3 -60 -10 -128 -16 -69 -5 -182 -19 -252
-30 -126 -20 -287 -26 -348 -14 l-31 7 0 362 0 363 133 17 c128 17 536 61 588
64 l26 1 -1 -112z m3550 67 c15 -22 15 -34 4 -108 -23 -152 -66 -307 -98 -351
-69 -98 -195 -103 -252 -10 -19 30 -22 45 -17 97 3 34 17 100 32 147 69 218
58 195 96 193 19 -1 46 -3 60 -4 17 -2 43 10 70 29 52 39 83 41 105 7z m2614
-82 c0 -32 3 -101 6 -154 l7 -96 -39 -7 c-21 -4 -51 -14 -66 -22 l-28 -15 7
58 c5 32 8 99 7 150 l-1 91 39 18 c21 9 38 21 38 26 0 4 7 8 15 8 12 0 15 -13
15 -57z m477 -89 c53 -40 73 -80 73 -145 0 -64 -24 -109 -79 -146 l-34 -23
-38 40 c-42 43 -72 50 -153 38 -53 -8 -60 133 -11 198 59 77 169 94 242 38z
m-328 -231 c51 -38 49 -92 -7 -228 -63 -153 -195 -181 -247 -53 -10 25 -20 82
-23 136 l-5 93 32 28 c17 16 46 33 64 39 49 17 154 8 186 -15z m-3220 -124
c-6 -51 -9 -107 -6 -124 5 -29 2 -33 -31 -44 -47 -17 -106 -73 -136 -131 -13
-25 -40 -101 -61 -170 -20 -69 -48 -156 -61 -194 -32 -91 -31 -145 2 -197 33
-53 123 -138 190 -180 30 -19 54 -37 54 -41 0 -10 -74 -117 -81 -118 -4 0 -19
35 -34 77 -50 142 -140 268 -258 363 -72 58 -228 136 -341 171 -86 26 -86 27
-211 189 -36 47 -69 90 -73 95 -12 15 -172 256 -172 259 0 2 105 6 233 9 243
5 298 12 832 106 88 15 161 27 163 26 1 -1 -2 -44 -9 -96z m-1311 -25 c15 -9
43 -37 62 -62 19 -26 39 -51 43 -57 4 -5 30 -45 58 -88 55 -86 141 -205 183
-252 58 -65 57 -66 -41 -59 -139 9 -129 2 -183 118 -66 142 -119 177 -182 122
-26 -21 -114 -165 -140 -228 -18 -40 -52 -53 -130 -51 -38 2 -73 5 -77 8 -5 2
2 26 14 52 13 27 46 98 74 158 93 198 129 256 194 308 63 51 83 56 125 31z
m-190 -19 c2 -2 -13 -25 -34 -52 -33 -43 -125 -222 -212 -415 -30 -67 -32 -68
-69 -68 -71 0 -246 -48 -350 -95 -29 -14 -56 -25 -59 -25 -3 0 -19 -9 -34 -20
-16 -11 -31 -17 -33 -13 -3 5 -10 42 -16 83 -7 41 -25 118 -40 170 -16 52 -34
115 -39 140 -12 49 -34 212 -29 216 2 3 101 19 354 59 161 26 268 33 418 27
77 -2 141 -6 143 -7z m-936 -165 c8 -81 35 -214 50 -243 14 -27 55 -195 62
-252 l6 -50 -48 -30 c-26 -16 -81 -62 -123 -102 -70 -67 -80 -73 -118 -73 -44
0 -85 -17 -137 -56 -17 -13 -36 -24 -42 -24 -7 0 -12 -4 -12 -10 0 -5 -4 -10
-10 -10 -5 0 -32 -14 -60 -30 -41 -24 -69 -32 -148 -40 -151 -16 -212 -48
-212 -110 0 -11 -6 -22 -12 -24 -7 -3 -145 -7 -305 -10 l-293 -6 0 503 0 503
143 0 c91 0 174 6 232 17 50 9 162 23 250 32 88 9 205 22 260 30 55 8 170 21
255 30 85 9 171 20 190 25 61 15 64 12 72 -70z m2838 20 c548 -42 1469 -291
2100 -568 324 -143 526 -275 574 -376 39 -82 4 -293 -76 -458 -23 -49 -46 -88
-50 -88 -4 0 -14 13 -23 30 -49 95 -305 260 -605 390 -198 86 -201 87 -230 95
-14 4 -43 16 -65 26 -60 27 -292 105 -605 203 -227 72 -717 181 -970 216 -355
50 -630 43 -704 -19 -22 -18 -21 -5 8 81 21 64 80 255 92 299 2 8 17 36 33 61
67 106 195 132 521 108z m-1675 -137 c16 -15 105 -189 105 -204 0 -4 -35 -7
-77 -8 -43 -1 -113 -6 -157 -12 -43 -6 -80 -9 -82 -7 -6 6 97 202 119 226 24
26 69 29 92 5z m4543 -134 c3 -32 -1 -39 -31 -57 -28 -16 -39 -32 -56 -83 -32
-99 -61 -254 -61 -331 0 -79 -16 -89 -37 -22 -28 94 -11 252 44 399 37 100 67
137 106 133 29 -3 32 -7 35 -39z m2 -128 c0 -116 -41 -251 -98 -321 -11 -14
-24 -22 -28 -18 -19 19 47 322 80 374 29 44 46 31 46 -35z m-4233 -6 c209 -27
403 -108 542 -225 95 -80 179 -208 219 -330 33 -104 33 -119 4 -164 -15 -23
-29 -43 -32 -46 -3 -3 -17 -21 -30 -40 -74 -107 -227 -251 -364 -342 -50 -34
-109 -78 -131 -98 -22 -21 -56 -51 -75 -69 l-35 -32 60 -52 c96 -85 158 -148
218 -223 59 -74 65 -88 44 -101 -6 -4 -36 -36 -66 -71 -61 -72 -232 -223 -341
-303 -705 -516 -1590 -614 -2051 -228 -124 103 -219 270 -248 433 -16 87 -13
261 5 357 34 183 137 419 182 419 22 0 36 -23 62 -102 32 -95 77 -135 132
-116 27 10 68 79 68 117 0 11 4 31 9 45 9 23 12 24 40 13 35 -13 104 0 175 33
60 29 136 108 159 167 10 26 20 50 22 52 2 2 32 -10 67 -27 35 -16 96 -35 136
-42 211 -35 403 58 483 235 35 77 33 202 -3 272 -15 28 -32 54 -38 58 -22 14
-7 23 60 34 90 14 154 45 206 96 74 75 80 177 13 227 -16 12 -29 25 -29 29 0
6 89 21 195 33 79 8 242 5 342 -9z m-620 -50 c81 -23 113 -52 113 -102 0 -92
-87 -156 -246 -183 -58 -9 -110 -22 -117 -29 -8 -8 -2 -21 25 -49 88 -91 107
-204 52 -317 -60 -126 -167 -194 -314 -203 -105 -6 -174 8 -265 53 -38 19 -77
35 -85 35 -11 0 -20 -18 -29 -61 -11 -53 -19 -69 -64 -113 -29 -29 -68 -60
-87 -70 -42 -21 -117 -31 -156 -22 -26 7 -27 8 -20 68 6 60 24 101 55 125 9 7
53 34 99 59 85 49 152 111 152 142 -1 58 -14 69 -126 97 -85 21 -136 20 -132
-2 3 -18 19 -24 130 -48 49 -10 78 -22 82 -32 9 -23 -56 -81 -140 -125 -105
-55 -138 -92 -157 -175 -9 -37 -18 -98 -22 -134 -7 -81 -25 -139 -49 -153 -24
-15 -58 29 -82 106 -19 65 -61 118 -92 118 -21 0 -45 -17 -110 -79 -24 -23
-47 -39 -53 -36 -18 11 -9 72 25 173 49 145 52 177 26 256 -41 123 -16 154
132 167 115 9 151 23 295 112 138 84 165 87 173 18 3 -25 10 -46 17 -48 19 -7
36 37 29 78 -6 35 -3 40 44 85 64 60 161 134 178 134 6 0 12 4 12 8 0 9 44 32
145 77 60 27 152 56 255 81 72 17 227 12 307 -11z m1843 -95 c147 -13 470 -68
641 -109 46 -11 122 -29 169 -41 352 -84 901 -261 1142 -368 24 -11 66 -30 93
-42 336 -148 481 -239 571 -356 29 -37 30 -65 5 -88 -28 -25 -106 -46 -172
-46 -57 0 -57 0 -64 33 -4 17 -14 45 -22 60 -14 27 -13 29 6 22 32 -10 16 18
-32 58 -107 87 -522 291 -748 367 -52 17 -107 37 -124 45 -28 12 -246 84 -420
139 -223 69 -678 166 -869 185 -120 12 -395 15 -445 5 -18 -4 -30 -12 -28 -18
3 -7 35 -10 91 -9 47 0 86 -2 86 -6 0 -4 -14 -15 -32 -26 -18 -10 -52 -38 -75
-62 -24 -24 -48 -43 -54 -43 -18 0 -131 82 -181 131 -42 41 -48 53 -48 88 0
38 3 42 38 57 77 33 260 42 472 24z m225 -185 c127 -16 130 -16 380 -70 203
-44 358 -85 508 -135 65 -22 123 -40 129 -40 5 0 24 -6 41 -14 18 -8 75 -29
127 -46 52 -18 104 -36 115 -40 11 -5 53 -20 93 -34 40 -14 92 -34 115 -45 23
-10 76 -33 117 -51 114 -49 256 -119 343 -168 133 -77 162 -155 212 -585 9
-76 25 -170 36 -208 25 -90 79 -198 125 -249 l35 -39 -58 -37 c-102 -65 -282
-271 -350 -401 -15 -28 -34 -54 -43 -57 -8 -3 -61 -21 -118 -40 -117 -40 -253
-67 -457 -92 -173 -20 -554 -15 -710 10 -191 31 -425 94 -535 144 -177 80
-226 105 -266 131 -25 17 -47 31 -49 31 -5 0 -127 82 -135 90 -3 3 -21 17 -40
30 -38 27 -41 29 -150 121 -87 72 -241 226 -320 319 -30 35 -73 85 -95 110
-22 26 -62 73 -90 106 -83 98 -146 162 -197 201 l-49 38 53 51 c29 28 89 75
133 104 189 126 325 263 450 451 125 190 200 288 257 334 27 22 55 45 61 50
57 51 119 57 332 30z m2744 -408 c58 -38 191 -57 408 -57 94 0 177 -2 185 -5
10 -4 12 -61 10 -295 l-3 -290 -112 0 c-204 1 -571 19 -653 34 -97 17 -178 50
-204 84 -29 36 -25 45 26 66 107 44 224 287 250 515 l7 64 23 -45 c13 -26 39
-55 63 -71z m-6459 24 c21 -41 13 -60 -32 -71 -281 -70 -387 -162 -347 -301
17 -60 97 -211 195 -371 30 -48 54 -90 54 -93 0 -3 11 -22 24 -43 20 -32 24
-54 29 -157 14 -307 138 -529 380 -682 48 -31 86 -58 84 -60 -3 -2 -110 -15
-238 -29 -129 -13 -277 -31 -329 -40 -107 -17 -316 -67 -373 -89 -20 -8 -42
-15 -47 -15 -7 0 -10 345 -10 974 0 816 2 975 14 979 7 3 96 6 197 7 101 0
185 3 188 5 2 3 48 5 102 5 87 0 99 -2 109 -19z m30 -127 c0 -14 -5 -44 -11
-68 -8 -34 -18 -46 -45 -60 -19 -9 -40 -16 -47 -16 -7 0 -28 -13 -47 -29 -31
-26 -35 -34 -35 -78 0 -46 5 -57 74 -148 l74 -98 -21 -66 c-12 -36 -24 -85
-28 -108 -7 -48 -16 -53 -32 -20 -6 12 -22 38 -34 58 -46 73 -143 246 -180
321 -68 136 -48 198 84 258 37 16 102 39 145 50 43 12 80 23 82 26 11 11 21 1
21 -22z m-53 -186 c-30 -131 -30 -133 -16 -163 10 -21 23 -31 42 -33 31 -4 31
-4 15 -49 -11 -30 -28 -45 -28 -24 0 5 -19 33 -43 63 -67 84 -78 105 -75 146
2 29 10 41 37 59 45 31 75 31 68 1z m6078 -250 c50 -70 159 -108 353 -124 l82
-7 0 -61 c1 -94 24 -190 74 -311 38 -93 47 -127 56 -220 7 -60 10 -130 8 -155
-3 -43 -5 -45 -36 -48 -28 -3 -41 4 -83 43 -27 25 -84 63 -126 83 -68 32 -87
36 -163 38 l-85 2 -36 41 c-88 99 -139 245 -159 451 -6 63 -17 153 -25 199 -8
46 -15 87 -15 92 0 7 37 13 105 17 13 0 31 -14 50 -40z m1005 -514 l0 -381
-177 -12 c-98 -7 -187 -13 -199 -15 -20 -3 -21 3 -28 128 -8 150 -22 215 -72
324 -44 97 -64 178 -64 267 l0 70 270 0 270 0 0 -381z m-4301 37 c9 -10 38
-45 66 -77 82 -98 225 -241 320 -323 89 -77 312 -240 374 -273 17 -9 31 -21
31 -27 0 -5 -39 -11 -86 -13 l-86 -3 -54 83 c-30 45 -67 95 -82 110 -52 50
-116 103 -144 120 -15 9 -28 20 -28 24 0 4 -6 8 -14 8 -8 0 -16 4 -18 8 -5 15
-230 130 -313 160 -103 38 -136 54 -133 62 4 10 141 160 146 160 3 0 12 -8 21
-19z m-142 -201 c26 -17 70 -37 96 -45 59 -17 235 -110 332 -174 88 -58 203
-171 240 -236 16 -27 33 -51 37 -53 11 -5 10 -34 -1 -30 -5 2 -72 32 -149 68
-123 57 -141 69 -151 96 -22 60 -109 123 -170 124 -16 0 -43 19 -80 58 -60 61
-107 102 -119 102 -18 1 -102 94 -102 114 0 13 21 5 67 -24z m-83 -35 c15 -23
15 -25 -17 -40 -77 -38 -107 -83 -107 -164 0 -59 -1 -61 -26 -61 -45 0 -175
-61 -234 -111 -60 -49 -95 -97 -115 -156 l-12 -34 -25 21 c-66 51 -65 -2 1
-63 68 -64 110 -80 193 -74 94 6 153 44 291 187 204 211 282 258 384 231 40
-11 112 -65 102 -76 -4 -3 -33 1 -64 11 -96 27 -185 4 -185 -48 0 -11 -9 -31
-19 -44 -14 -18 -18 -36 -15 -74 1 -28 6 -59 9 -69 7 -22 92 -65 161 -82 75
-18 83 -31 37 -61 -21 -14 -85 -73 -143 -130 -125 -123 -201 -171 -324 -204
-206 -55 -389 -10 -532 131 -79 78 -106 136 -112 243 -5 84 10 189 31 224 7
11 46 36 87 56 127 61 399 227 430 261 3 4 30 25 60 48 30 23 70 56 88 73 18
16 35 30 36 30 2 0 11 -11 20 -25z m96 -95 c62 -44 130 -105 130 -118 -1 -11
-138 -74 -148 -68 -5 3 -38 6 -73 7 -35 1 -70 6 -76 12 -17 13 -16 91 1 125 8
15 22 35 32 44 21 18 86 38 94 28 3 -3 21 -17 40 -30z m3742 -35 c102 -49 230
-201 133 -157 -74 34 -148 0 -179 -82 -18 -48 -43 -69 -94 -81 -36 -8 -56 -36
-49 -71 4 -22 1 -24 -32 -24 -26 0 -48 -10 -80 -35 -51 -41 -79 -50 -123 -41
-31 6 -78 50 -78 74 0 6 -3 12 -7 12 -14 0 -63 86 -63 109 0 39 109 170 212
254 77 63 121 78 218 74 67 -3 97 -10 142 -32z m688 -629 l0 -553 -74 -7 c-80
-7 -1196 -9 -1203 -2 -9 9 41 186 82 291 24 61 48 128 54 150 14 52 117 210
166 254 33 30 46 35 87 35 39 0 53 -5 79 -30 40 -37 47 -51 71 -138 18 -63 19
-89 13 -231 -7 -185 -2 -207 66 -274 46 -44 87 -57 146 -46 47 9 112 42 138
70 148 162 181 233 173 368 -4 58 -13 99 -32 142 -15 33 -32 72 -39 88 -6 15
-15 27 -19 27 -5 0 -8 5 -8 11 0 6 -22 48 -49 93 -45 75 -141 259 -141 271 0
3 33 5 73 6 39 0 135 6 212 13 77 7 155 14 173 15 l32 1 0 -554z m-4473 450
c4 -4 -21 -35 -55 -69 l-62 -62 0 74 0 73 55 -4 c30 -3 58 -8 62 -12z m3926
-1 c30 -12 77 -60 77 -79 0 -3 26 -50 58 -103 32 -54 69 -120 82 -148 14 -27
28 -52 32 -55 8 -7 44 -115 52 -160 l7 -35 -17 33 c-36 70 -95 88 -184 57 -51
-18 -65 -15 -115 25 -38 30 -97 41 -110 20 -12 -20 -24 -9 -37 33 -20 69 -63
130 -113 160 -39 23 -46 31 -43 54 2 23 12 31 57 48 41 15 58 28 72 55 11 19
19 39 19 45 0 5 10 22 23 37 17 22 31 28 63 28 23 0 57 -7 77 -15z m-4069 -17
c0 -10 -1 -47 -2 -83 l-2 -66 -62 -59 c-34 -33 -81 -69 -103 -80 -48 -23 -146
-27 -187 -8 -22 11 -26 18 -21 43 9 49 55 125 97 161 98 84 283 144 280 92z
m531 -68 c33 -13 63 -25 67 -29 12 -10 -3 -81 -17 -81 -6 0 -22 -9 -35 -20
-20 -17 -22 -26 -17 -71 6 -45 4 -50 -11 -43 -9 4 -59 22 -110 40 -93 32 -122
48 -122 66 0 13 21 33 43 41 25 9 12 27 -19 27 -33 0 -27 24 7 28 36 5 47 21
25 37 -57 42 78 45 189 5z m227 -103 c166 -79 182 -82 413 -82 l200 0 100 -38
c99 -37 213 -68 310 -84 l50 -8 0 -75 0 -75 -36 -3 c-28 -2 -49 6 -99 40 l-64
42 40 9 c21 5 65 6 97 4 68 -6 77 9 11 19 -55 8 -223 -28 -189 -41 38 -14 80
-36 113 -60 19 -13 53 -27 76 -30 l43 -7 -10 -41 c-5 -23 -10 -66 -11 -96 l-1
-53 -75 -20 c-64 -17 -81 -18 -115 -8 -22 6 -65 17 -95 24 l-55 13 45 20 c88
39 156 57 213 57 67 1 45 14 -25 15 -34 1 -81 -12 -160 -43 -62 -24 -112 -48
-111 -53 1 -4 30 -11 63 -16 34 -4 78 -16 98 -27 45 -25 72 -25 142 0 87 31
85 32 103 -73 25 -138 25 -141 -25 -154 -24 -7 -77 -14 -118 -16 -59 -3 -88
-11 -137 -36 -35 -17 -63 -35 -63 -40 0 -11 114 -42 180 -48 51 -5 59 -2 109
31 29 20 56 36 60 36 4 0 4 -30 -1 -66 l-8 -66 46 -54 c26 -30 51 -54 56 -54
5 0 6 -4 3 -10 -3 -5 -17 -10 -30 -10 -29 0 -61 -38 -77 -91 -6 -22 -14 -39
-17 -39 -7 0 -34 23 -111 93 -29 26 -71 57 -93 69 -39 20 -41 20 -55 2 -18
-25 -10 -152 18 -253 11 -41 20 -98 20 -127 0 -67 -20 -77 -81 -39 -32 21 -49
25 -73 20 -17 -3 -47 -8 -66 -11 l-35 -5 -17 83 c-10 46 -31 128 -49 183 -40
130 -48 276 -24 450 38 281 40 305 18 368 -14 40 -17 60 -9 64 6 4 50 9 98 11
63 3 88 8 92 19 3 7 -2 17 -12 21 -28 12 -143 5 -208 -12 -89 -23 -160 -20
-297 14 -208 52 -351 142 -377 238 -15 56 -6 80 33 90 28 8 32 13 29 37 -3 25
10 44 30 45 4 0 58 -24 120 -53z m-1446 21 c-4 -13 -12 -58 -19 -101 -21 -151
38 -303 153 -396 34 -28 38 -34 30 -60 -14 -49 -31 -74 -82 -122 -87 -82 -206
-127 -343 -132 -58 -2 -69 1 -66 13 2 8 10 40 18 70 22 83 14 192 -19 260 -80
162 -297 275 -493 257 -68 -6 -164 -39 -209 -70 l-28 -20 7 -103 c6 -94 5
-108 -14 -147 -64 -133 -203 -197 -395 -182 -167 12 -194 6 -222 -47 -11 -22
-22 -28 -47 -28 l-32 0 -1 193 c0 129 -6 227 -17 300 -9 59 -17 131 -17 161
l0 53 112 12 c333 37 387 40 431 25 302 -107 707 -96 1091 31 60 19 116 40
125 45 29 17 44 12 37 -12z m4077 -53 c62 -94 79 -108 127 -111 22 -1 40 -5
41 -8 1 -19 -90 -127 -115 -136 -45 -16 -54 -13 -81 31 -15 23 -40 46 -59 54
-18 8 -39 21 -46 30 -17 21 -17 68 0 103 36 70 63 112 73 112 7 -1 34 -34 60
-75z m-2180 16 l28 -18 -98 -6 c-54 -4 -107 -5 -118 -2 -11 2 -32 6 -47 10
-45 9 -32 24 25 28 138 9 182 7 210 -12z m-3713 -123 c0 -29 7 -109 15 -178
23 -192 29 -318 17 -394 -6 -37 -13 -70 -15 -73 -3 -2 -131 11 -286 29 l-281
32 0 252 c0 190 3 254 13 261 37 27 420 120 505 122 l32 1 0 -52z m5684 -15
c-4 -21 -15 -60 -24 -88 -10 -27 -26 -77 -35 -110 -24 -91 -85 -275 -105 -320
-10 -22 -27 -61 -38 -88 l-21 -47 -198 2 -198 3 3 50 c2 28 14 107 28 177 21
112 23 136 14 220 -5 51 -10 98 -10 104 0 7 42 16 104 23 142 17 403 76 446
102 32 18 41 11 34 -28z m56 -31 c0 -4 18 -15 40 -25 23 -10 52 -34 68 -56 29
-42 53 -54 90 -45 21 6 21 6 -7 -79 -46 -136 -58 -155 -101 -168 -51 -15 -63
-9 -87 43 -12 23 -30 51 -41 62 -34 30 -35 67 -6 175 15 56 31 101 35 101 5 0
9 -3 9 -8z m-4536 -77 c92 -31 142 -75 86 -75 -11 0 -31 -5 -45 -12 -21 -10
-29 -8 -48 9 -49 43 -78 54 -130 52 -29 -1 -53 1 -54 4 -8 21 -1 46 15 49 26
6 124 -10 176 -27z m1829 28 c3 -5 8 -27 12 -50 l7 -43 -47 0 c-48 0 -85 13
-85 30 0 13 79 70 96 70 7 0 15 -3 17 -7z m-2045 -34 c-2 -21 -16 -44 -45 -74
-35 -34 -43 -49 -43 -79 0 -35 -1 -36 -35 -36 -47 0 -48 1 -51 30 -2 14 -6 44
-9 68 -4 28 -2 48 6 58 19 23 114 62 157 63 19 1 22 -4 20 -30z m3837 16 l250
-1 9 -96 c7 -78 5 -114 -9 -185 -9 -48 -22 -126 -29 -173 l-11 -85 -90 1
c-168 3 -539 24 -546 31 -4 5 -11 31 -15 60 l-6 51 43 31 c68 49 91 73 112
120 29 65 10 154 -46 214 -47 50 -47 51 23 42 36 -5 178 -9 315 -10z m-389
-42 c66 -74 82 -149 45 -210 -20 -31 -108 -99 -118 -90 -12 12 -14 86 -4 137
7 30 17 88 23 128 7 39 14 72 16 72 2 0 19 -17 38 -37z m2124 -3 c31 -36 75
-42 132 -19 31 12 62 18 78 14 44 -10 79 -54 91 -117 10 -52 9 -60 -14 -110
-30 -64 -147 -202 -185 -216 -15 -6 -45 -16 -67 -21 -47 -13 -82 4 -127 60
-34 41 -34 49 -27 282 3 108 7 140 19 148 22 15 79 3 100 -21z m-3254 -74 c38
-13 90 -27 117 -31 26 -4 47 -13 47 -19 0 -22 -39 -55 -77 -65 -73 -21 -117
-10 -165 39 -16 17 -78 129 -78 142 0 5 20 -3 44 -17 24 -14 74 -36 112 -49z
m-2146 39 c22 -14 40 -29 40 -33 -1 -4 -14 -23 -30 -42 -21 -24 -30 -45 -30
-71 0 -36 -1 -36 -47 -43 -39 -5 -50 -3 -69 15 -12 11 -39 27 -61 34 -33 11
-38 17 -40 47 -3 39 8 56 61 92 53 35 121 36 176 1z m1848 -15 l49 0 12 -57
c6 -31 11 -87 11 -124 0 -63 -2 -69 -30 -93 -53 -44 -112 -46 -164 -5 l-26 20
26 51 c23 45 25 60 21 117 -3 36 -9 78 -12 93 l-7 28 36 -15 c19 -8 57 -15 84
-15z m191 -134 c35 -39 80 -56 144 -56 68 0 136 33 157 76 l15 31 90 -2 89 -1
18 -40 c15 -32 18 -58 15 -142 -2 -56 -8 -107 -13 -112 -5 -4 -88 -14 -184
-20 -96 -7 -229 -18 -295 -24 -66 -7 -123 -10 -127 -7 -4 4 -1 47 7 96 18 113
19 215 1 282 -8 28 -11 55 -8 58 4 3 19 -20 35 -52 16 -32 41 -71 56 -87z
m-1807 97 c23 -22 78 -118 78 -136 0 -3 -11 -8 -24 -11 -27 -7 -86 -69 -86
-91 0 -26 -27 -16 -55 19 -25 31 -81 66 -127 80 -31 9 -23 75 14 115 59 65
146 76 200 24z m1486 2 c20 -43 14 -107 -14 -162 -46 -93 -150 -119 -231 -57
-33 25 -44 54 -21 54 28 0 141 84 212 157 17 17 34 32 37 32 3 1 11 -10 17
-24z m2848 -138 c11 -39 35 -57 74 -57 20 0 41 5 48 12 17 17 15 0 -7 -63 -10
-30 -21 -70 -25 -90 -4 -25 -14 -39 -32 -47 -35 -17 -41 -15 -72 14 -15 14
-51 37 -79 51 -29 14 -53 32 -53 40 0 8 11 47 24 86 14 40 30 91 36 115 l11
43 34 -41 c19 -22 37 -50 41 -63z m-4763 30 c18 -8 38 -22 46 -31 12 -15 11
-20 -13 -45 -19 -19 -28 -41 -29 -63 -1 -33 -2 -34 -66 -49 -36 -9 -68 -13
-71 -9 -10 14 -49 30 -74 30 -33 0 -32 6 4 54 16 21 35 55 41 75 7 20 17 39
23 43 18 13 104 9 139 -5z m252 -66 c39 -18 95 -66 95 -82 0 -4 -11 -16 -23
-26 -31 -24 -47 -55 -47 -92 0 -35 -17 -50 -27 -25 -16 43 -93 90 -178 109
-57 13 -68 36 -40 78 36 56 142 74 220 38z m261 -6 c8 -32 -4 -115 -17 -115
-5 0 -9 4 -9 10 0 5 -18 15 -40 21 -22 7 -40 17 -40 22 0 13 77 87 90 87 5 0
12 -11 16 -25z m584 15 c13 -9 12 -12 -4 -25 -23 -17 -42 -5 -33 19 7 18 16
20 37 6z m63 -31 c13 -6 29 -26 36 -45 8 -21 28 -45 52 -61 43 -28 46 -35 24
-53 -61 -50 -164 -66 -226 -35 -67 34 -96 74 -66 92 7 4 26 25 41 46 17 22 37
37 50 37 11 0 30 7 40 15 24 18 20 18 49 4z m520 -58 c24 -12 58 -21 76 -21
33 0 34 -1 28 -37 -8 -47 -32 -79 -86 -118 -38 -27 -51 -30 -115 -30 -64 0
-77 3 -110 29 -57 43 -82 116 -40 116 19 0 91 66 99 91 4 10 20 22 38 27 27 7
35 5 50 -14 9 -12 36 -32 60 -43z m-173 27 c0 -3 -13 -17 -30 -31 -70 -60
-178 -63 -236 -6 -19 18 -34 35 -34 38 0 4 68 6 150 6 83 0 150 -3 150 -7z
m401 -34 c38 -36 109 -43 162 -16 20 11 37 16 37 12 0 -48 -89 -193 -145 -235
-66 -51 -179 -41 -216 19 l-18 30 35 47 c19 26 38 66 42 89 5 30 15 45 37 59
38 25 34 25 66 -5z m-1452 -29 c37 -19 43 -36 27 -82 l-13 -38 -85 -3 c-85 -3
-86 -2 -90 23 -3 14 2 39 11 56 30 55 93 74 150 44z m-606 -24 c7 -7 4 -22 -8
-47 -16 -34 -16 -64 0 -105 4 -12 -3 -20 -25 -29 -17 -7 -40 -26 -51 -41 -26
-36 -48 -37 -81 -1 -38 40 -48 65 -48 118 0 42 4 51 40 85 22 21 52 39 67 41
35 4 92 -7 106 -21z m4772 9 c4 -6 25 -20 48 -31 23 -12 57 -35 76 -51 27 -24
39 -28 64 -22 23 5 29 3 25 -7 -3 -8 -18 -54 -33 -103 -22 -70 -37 -98 -67
-128 -49 -49 -78 -50 -109 -4 -13 19 -41 44 -61 56 -39 22 -58 46 -58 74 0 9
20 59 45 112 25 52 45 99 45 105 0 12 17 12 25 -1z m-4531 -15 c71 -19 135
-60 136 -87 0 -4 -20 -5 -44 -2 -70 10 -134 -3 -152 -31 -20 -30 -12 -54 29
-96 l32 -32 -47 6 c-60 8 -139 48 -167 83 -43 54 -39 100 11 135 55 40 115 47
202 24z m1300 -43 c11 -41 58 -90 103 -109 18 -7 33 -17 33 -22 0 -12 -51 -61
-80 -76 -90 -46 -215 -10 -254 72 -26 55 -21 71 28 93 25 10 60 33 77 50 44
41 80 38 93 -8z m-420 -1 c16 -16 41 -35 58 -42 16 -6 27 -16 25 -22 -5 -16
-67 -35 -117 -36 -43 -1 -110 25 -117 45 -2 5 19 22 47 37 27 15 52 32 55 37
10 16 19 12 49 -19z m-1348 -7 c-3 -9 -6 -24 -6 -34 0 -16 -4 -17 -38 -8 -36
9 -63 4 -134 -27 -15 -6 -18 -2 -18 22 0 29 0 30 93 45 50 8 96 16 101 16 4 1
5 -5 2 -14z m-920 -20 c129 -17 388 -44 423 -44 22 0 23 -3 19 -44 -17 -151
68 -294 221 -369 l66 -32 170 0 c184 0 195 2 388 72 54 20 100 34 102 31 2 -2
9 -55 16 -117 11 -110 8 -268 -5 -290 -5 -8 -240 -11 -812 -11 l-804 0 0 415
0 416 53 -6 c28 -4 102 -13 163 -21z m654 18 c44 -7 45 -8 50 -47 4 -28 0 -50
-13 -72 -17 -29 -20 -31 -52 -22 -31 9 -62 5 -132 -16 -21 -7 -23 -4 -23 26 0
46 16 98 36 120 18 20 53 23 134 11z m2734 -19 c-27 -125 -101 -306 -130 -317
-44 -17 -104 51 -104 117 0 30 4 37 20 37 60 0 144 67 196 158 22 39 26 40 18
5z m639 -105 c-16 -215 -3 -339 52 -490 13 -37 27 -90 31 -117 l7 -51 -36 -15
c-29 -12 -84 -15 -263 -15 l-227 0 7 93 c3 50 13 121 21 157 31 132 36 189 25
299 -6 58 -14 132 -17 164 -3 31 -4 57 -2 58 41 8 265 27 327 28 l84 1 -9
-112z m-419 5 c19 -243 19 -284 -7 -413 -14 -69 -29 -160 -33 -203 l-7 -77
-426 0 -426 1 64 25 c167 64 290 144 400 260 108 113 186 243 227 377 29 96
27 93 85 96 30 1 56 4 58 7 2 2 16 4 31 4 27 0 27 -2 34 -77z m1495 56 c118
-5 218 -12 221 -14 4 -3 105 -5 224 -5 139 -1 216 -5 216 -12 0 -12 -72 -145
-116 -214 -18 -28 -48 -64 -66 -79 -74 -63 -235 -115 -351 -115 -53 0 -187 21
-261 41 -71 19 -137 58 -198 117 l-60 58 11 78 c6 42 11 97 11 122 l0 44 78
-5 c42 -3 173 -10 291 -16z m-4213 5 c13 -3 24 -16 27 -32 9 -42 49 -96 84
-112 43 -20 42 -40 0 -40 -32 0 -81 -28 -116 -67 -30 -33 -42 -74 -35 -119 6
-41 5 -44 -17 -44 -80 1 -201 53 -257 110 -47 49 -84 121 -80 157 2 23 11 30
46 42 26 8 59 11 86 7 l44 -7 4 -49 c6 -64 44 -121 103 -156 63 -36 68 -24 6
15 -85 55 -119 172 -69 236 37 48 116 75 174 59z m1233 -22 c22 -20 28 -31 21
-42 -5 -8 -10 -34 -10 -58 l0 -42 -42 6 c-64 10 -139 51 -171 92 l-29 37 54 8
c29 5 67 12 83 17 50 14 62 11 94 -18z m331 8 c0 -67 60 -134 141 -157 61 -17
57 -11 71 -107 2 -14 -11 -28 -44 -49 -88 -55 -268 -48 -363 15 -79 53 -117
136 -101 222 l7 36 62 0 c49 0 74 7 117 30 67 35 110 39 110 10z m-780 -51 c0
-21 4 -49 10 -63 8 -23 7 -26 -11 -26 -27 0 -96 -36 -107 -57 -9 -15 -12 -15
-34 -1 -39 26 -168 161 -168 176 0 10 30 13 155 11 l155 -2 0 -38z m254 -41
l39 -38 -25 -19 c-14 -12 -31 -40 -38 -66 -7 -25 -17 -45 -22 -45 -23 0 -108
52 -135 84 -34 38 -56 94 -51 128 3 21 9 23 83 28 72 4 82 3 95 -15 8 -11 32
-37 54 -57z m1090 56 c4 -14 20 -33 36 -42 35 -20 37 -30 10 -83 -33 -64 -103
-126 -162 -144 -66 -19 -94 -19 -143 4 -52 23 -74 50 -82 94 -5 34 -4 36 32
46 46 12 99 52 122 91 15 26 23 30 63 30 25 1 59 7 75 15 41 19 42 18 49 -11z
m4436 4 c0 -5 0 -165 0 -358 l0 -350 -398 0 -399 0 0 153 c-1 151 -8 197 -46
302 -9 23 -16 84 -18 145 l-3 105 400 5 c488 6 464 7 464 -2z m-2770 -15 c-1
-25 -120 -93 -162 -93 -18 0 -66 7 -106 17 l-72 17 47 24 c37 19 72 26 151 32
57 4 106 10 109 14 13 12 33 5 33 -11z m1881 -103 c5 -90 12 -131 34 -190 25
-69 27 -88 28 -235 l2 -160 -520 -2 c-286 -1 -513 1 -505 4 8 3 17 9 20 12 3
3 25 17 50 30 123 66 236 170 317 291 75 113 107 179 151 318 l17 52 200 -2
200 -3 6 -115z m-5392 86 c38 -33 124 -68 181 -73 65 -6 71 -17 15 -27 -23 -5
-51 -22 -76 -47 -32 -32 -39 -46 -39 -79 0 -37 -2 -39 -36 -46 -49 -9 -92 13
-129 66 -23 34 -29 53 -29 95 0 57 11 77 59 107 36 22 34 21 54 4z m1961 -84
c0 -50 30 -103 69 -124 18 -9 35 -19 38 -22 18 -18 -188 -228 -242 -246 -105
-35 -256 62 -255 162 0 38 12 44 85 45 46 0 84 6 108 18 52 24 119 95 147 154
28 61 50 67 50 13z m2663 23 c4 -8 23 -23 44 -34 21 -11 53 -39 72 -61 35 -43
48 -46 104 -24 18 6 18 5 0 -27 -39 -72 -92 -147 -114 -163 -24 -17 -85 -21
-106 -8 -6 4 -21 29 -32 55 -11 26 -29 57 -41 69 -35 38 -27 81 37 186 16 25
28 28 36 7z m-3768 -25 c15 -6 44 -11 64 -12 35 -1 40 -5 65 -54 28 -54 63
-87 124 -118 26 -13 32 -21 26 -34 -5 -9 -8 -40 -7 -69 l2 -52 -43 -6 c-111
-17 -282 63 -321 150 -32 71 -20 150 28 187 26 21 28 21 62 8z m-299 -41 c30
-32 132 -89 159 -89 9 0 15 -9 15 -22 0 -12 11 -40 25 -64 l25 -42 -27 -7
c-43 -10 -81 -43 -88 -75 -6 -26 -25 -43 -25 -22 0 4 -10 18 -22 32 -13 14
-42 50 -65 80 -24 30 -68 82 -98 114 -50 55 -54 61 -41 80 34 53 99 60 142 15z
m-250 -24 l49 -44 -45 -1 c-38 0 -115 -22 -192 -55 -15 -6 -18 -2 -18 26 1 19
9 44 20 57 19 23 94 61 121 62 8 0 37 -20 65 -45z m-429 -15 c17 -51 57 -98
90 -106 13 -4 23 -10 23 -15 0 -17 -159 -48 -246 -49 -35 0 -43 4 -48 23 -17
64 11 127 77 170 60 39 86 33 104 -23z m4653 -87 c0 -7 4 -13 8 -13 5 0 19
-25 32 -56 27 -64 51 -84 97 -84 18 0 33 -4 33 -9 0 -14 -93 -89 -124 -101
-49 -18 -104 -12 -131 15 -14 13 -25 31 -25 39 0 9 -15 29 -34 46 -51 47 -52
65 -2 94 52 30 78 53 101 90 18 26 20 27 32 10 7 -10 13 -24 13 -31z m-2986
12 c16 -12 19 -25 17 -64 -2 -48 18 -106 43 -124 15 -10 -24 -39 -82 -61 -114
-42 -249 -28 -324 34 -42 35 -64 93 -50 131 9 22 13 23 128 24 110 1 123 3
171 28 29 15 55 32 58 37 8 13 16 12 39 -5z m-1148 -18 c55 -23 83 -49 140
-125 73 -97 142 -166 210 -209 39 -25 146 -73 167 -75 12 -1 -129 -5 -313 -8
-184 -3 -338 -4 -341 -3 -3 1 -2 28 2 60 9 59 -6 285 -21 335 -6 18 -5 28 3
32 25 10 126 6 153 -7z m2896 -64 c19 -16 67 -58 108 -95 l73 -67 -14 -103
-14 -103 -30 -1 c-51 -1 -55 -3 -67 -29 -6 -14 -17 -25 -24 -25 -15 0 -34 82
-34 146 0 25 -9 80 -19 122 -25 101 -36 182 -23 182 5 0 25 -12 44 -27z m389
-5 c44 -22 46 -25 41 -56 -2 -18 1 -50 7 -70 10 -31 10 -43 -3 -74 l-16 -37
-100 60 c-55 33 -102 64 -105 70 -9 14 15 81 38 107 27 29 78 29 138 0z
m-2856 -53 c72 -48 141 -66 242 -64 82 2 95 0 108 -17 13 -17 12 -21 -4 -34
-51 -44 -55 -138 -7 -173 17 -12 -89 3 -174 25 -122 32 -218 78 -282 137 -47
42 -35 100 25 130 53 25 50 25 92 -4z m3541 -40 c18 -18 35 -43 39 -56 13 -40
54 -69 99 -69 14 0 26 -4 26 -8 0 -5 -41 -29 -91 -55 -121 -63 -169 -61 -169
5 0 16 -9 37 -22 48 -13 12 -31 28 -40 37 -10 9 -18 29 -18 44 0 58 109 140
135 101 6 -8 24 -29 41 -47z m-520 40 c122 -24 124 -25 124 -35 0 -6 -6 -10
-14 -10 -7 0 -19 -13 -26 -30 -10 -24 -10 -36 3 -68 18 -46 12 -122 -10 -122
-7 0 -39 9 -69 20 -124 43 -137 56 -110 109 14 26 14 34 1 72 -16 45 -12 79
10 79 7 0 48 -7 91 -15z m345 -41 c-34 -43 -28 -85 19 -127 25 -22 40 -44 40
-59 0 -13 5 -29 12 -36 6 -6 8 -15 4 -19 -11 -11 -250 -5 -282 7 -24 10 -26
14 -21 52 3 26 0 55 -9 76 -18 45 -18 55 4 82 15 18 36 25 118 35 148 19 139
20 115 -11z m-2547 -43 c3 -4 -3 -16 -13 -25 -15 -14 -29 -47 -46 -112 -2 -6
-14 -14 -27 -17 -13 -3 -59 -15 -103 -26 -44 -12 -119 -24 -167 -28 -98 -7
-111 -1 -135 55 -12 29 -11 37 3 68 24 49 43 57 96 37 96 -36 260 -18 338 38
28 20 46 24 54 10z m89 -31 c21 -4 40 -10 43 -13 6 -5 -91 -58 -143 -78 -24
-9 -25 -8 -19 15 12 48 48 98 65 90 9 -3 33 -10 54 -14z m1880 -62 c45 -28
114 -66 152 -84 l70 -33 -174 0 -173 -1 6 25 c3 13 9 52 13 85 3 33 10 60 15
60 4 0 45 -23 91 -52z m-457 -133 c21 -14 51 -25 69 -25 30 0 33 -3 44 -44 6
-25 11 -61 11 -80 0 -45 -26 -112 -48 -123 -9 -4 -64 -8 -122 -9 -58 0 -128
-4 -157 -9 -61 -9 -96 -2 -123 25 -26 26 -25 64 1 106 18 30 19 35 5 40 -9 3
-23 1 -31 -6 -12 -10 -15 -9 -15 8 0 33 40 71 98 92 l54 21 5 -21 c7 -28 32
-25 43 5 7 18 17 25 37 26 16 0 37 4 48 9 32 14 42 12 81 -15z m3124 -4 c6 -1
1 -921 -5 -921 -4 0 -113 60 -145 80 -8 6 -35 21 -60 35 -90 49 -329 200 -605
380 -159 105 -316 204 -340 215 -5 3 -78 50 -160 105 l-150 100 670 5 c563 4
762 4 795 1z m-6870 -20 c0 -5 -17 -21 -37 -37 -21 -16 -51 -41 -68 -55 -32
-29 -36 -33 -136 -119 -66 -57 -225 -197 -245 -215 -42 -38 -280 -242 -295
-253 -18 -13 -19 -2 -19 337 l0 351 400 0 c224 0 400 -4 400 -9z m4028 -6 c2
-2 8 -34 13 -72 13 -87 2 -118 -47 -139 -20 -8 -48 -14 -63 -12 -21 2 -25 7
-23 28 2 14 3 51 4 83 1 49 6 62 32 92 24 27 36 33 56 29 14 -3 26 -7 28 -9z"/>
<path d="M5232 7559 c-51 -47 -97 -147 -127 -274 -37 -161 5 -273 126 -340 46
-25 68 -30 145 -33 105 -5 154 11 221 71 49 45 77 102 97 199 19 91 20 152 5
233 -14 76 -33 113 -66 126 -21 8 -33 5 -64 -16 -30 -19 -51 -25 -94 -25 -63
0 -80 7 -123 50 -37 37 -87 41 -120 9z m116 -39 c39 -38 44 -40 109 -41 89 -2
94 -1 119 22 56 52 98 2 109 -130 22 -280 -86 -441 -295 -440 -119 0 -196 41
-244 128 -22 41 -26 61 -26 130 0 157 98 371 169 371 9 0 36 -18 59 -40z"/>
<path d="M5257 7460 c-14 -16 -40 -67 -57 -112 -57 -148 -30 -249 83 -305 135
-68 254 -23 308 115 29 74 39 246 16 277 -14 18 -18 19 -49 6 -44 -18 -100
-25 -151 -17 -34 5 -47 13 -61 36 -23 39 -56 39 -89 0z m82 -21 c23 -27 34
-32 101 -39 66 -7 79 -6 107 12 50 30 56 19 50 -96 -9 -184 -76 -276 -200
-276 -58 0 -145 44 -175 90 -21 31 -23 43 -19 105 7 98 65 235 100 235 6 0 22
-14 36 -31z"/>
<path d="M6593 7193 c-13 -2 -44 -25 -69 -51 -161 -161 -208 -371 -113 -509
24 -34 47 -53 96 -75 57 -27 72 -30 131 -25 97 7 154 42 206 127 69 109 110
342 70 398 -19 28 -61 29 -110 3 -45 -24 -67 -14 -83 41 -21 69 -68 103 -128
91z m70 -33 c14 -11 33 -42 43 -68 10 -26 23 -50 28 -54 18 -13 52 -9 97 11
40 18 45 19 61 4 23 -21 24 -96 2 -200 -41 -199 -135 -302 -274 -303 -154 0
-263 146 -230 307 25 117 139 293 202 312 46 13 42 13 71 -9z"/>
<path d="M6600 7103 c-91 -33 -167 -248 -129 -364 26 -77 109 -129 184 -115
45 9 119 74 146 130 25 51 60 211 52 232 -5 14 -17 15 -70 10 -62 -6 -66 -6
-88 21 -68 79 -81 91 -95 86z m35 -39 c38 -73 77 -97 144 -88 49 6 51 6 50
-17 0 -13 -8 -59 -17 -101 -39 -180 -179 -272 -274 -181 -43 41 -58 75 -58
135 0 93 37 194 92 246 35 35 47 36 63 6z"/>
<path d="M4436 7598 c-11 -6 -49 -12 -85 -12 -62 -1 -66 -3 -79 -29 -17 -36
-52 -194 -59 -268 -4 -39 -1 -65 10 -86 19 -35 66 -58 102 -49 32 8 88 58 115
101 24 39 70 243 70 310 0 42 -2 45 -27 45 -16 0 -37 -6 -47 -12z m50 -64
c-21 -209 -80 -339 -163 -360 -29 -8 -82 25 -90 54 -8 34 2 112 27 217 31 128
31 129 94 121 41 -4 59 -2 86 14 19 10 39 19 44 19 5 1 6 -28 2 -65z"/>
<path d="M4485 6816 c-127 -42 -145 -53 -145 -84 1 -29 5 -37 75 -117 43 -50
51 -55 89 -55 23 0 46 4 52 8 5 5 46 24 92 42 115 46 119 68 27 163 -43 45
-80 68 -108 67 -7 -1 -43 -11 -82 -24z m170 -76 c41 -42 46 -51 35 -65 -7 -8
-19 -15 -26 -15 -8 0 -43 -13 -77 -30 -35 -16 -73 -30 -84 -30 -11 0 -34 18
-54 43 -18 23 -41 50 -49 60 -8 10 -15 21 -15 24 0 12 178 70 200 65 13 -2 44
-26 70 -52z"/>
<path d="M4033 6783 c-18 -9 -40 -32 -49 -51 -45 -94 57 -194 152 -149 49 24
68 58 61 115 -9 85 -85 124 -164 85z m101 -44 c19 -15 26 -30 26 -56 0 -68
-87 -100 -129 -47 -28 35 -26 69 4 99 30 30 64 32 99 4z"/>
<path d="M5165 6670 c-47 -10 -74 -32 -96 -78 -59 -121 80 -244 192 -169 66
44 85 128 42 193 -27 42 -87 65 -138 54z m91 -65 c34 -32 36 -38 31 -77 -15
-115 -175 -119 -194 -5 -6 42 9 72 50 97 46 28 70 25 113 -15z"/>
<path d="M5714 6490 c-102 -15 -99 -30 26 -154 l100 -99 72 7 c115 10 172 28
176 54 3 22 -40 80 -119 164 l-37 38 -83 -1 c-46 -1 -107 -5 -135 -9z m240
-63 c17 -19 46 -52 64 -75 37 -47 45 -40 -66 -62 -88 -17 -107 -14 -135 23
-13 17 -43 51 -66 75 -22 24 -41 47 -41 52 0 9 49 15 154 18 54 2 60 0 90 -31z"/>
<path d="M6414 6253 c-66 -33 -94 -135 -54 -201 32 -51 76 -74 138 -69 109 8
166 120 110 218 -36 64 -123 88 -194 52z m154 -58 c43 -50 26 -131 -35 -163
-69 -37 -153 13 -153 90 0 103 120 150 188 73z"/>
<path d="M6875 6033 c-52 -11 -75 -26 -75 -48 0 -30 76 -171 96 -179 18 -7
137 10 172 24 30 13 28 40 -9 108 -49 88 -65 102 -118 101 -25 -1 -55 -3 -66
-6z m137 -93 c21 -30 38 -58 38 -62 0 -9 -23 -15 -86 -23 l-52 -7 -31 58 c-17
32 -31 61 -31 65 0 9 77 28 105 26 12 -1 35 -24 57 -57z"/>
<path d="M3140 6302 c0 -56 -12 -72 -55 -72 -17 0 -56 -7 -86 -16 -120 -36
-199 -96 -247 -188 -22 -44 -26 -67 -30 -169 -4 -103 -2 -126 18 -185 20 -61
57 -139 70 -152 3 -3 17 -21 30 -40 47 -67 74 -83 142 -81 58 1 125 33 204 98
102 82 147 146 192 268 52 143 51 232 -5 316 -25 38 -25 39 -9 79 20 50 20 71
2 96 -19 25 -26 16 -34 -42 -8 -53 -29 -68 -57 -40 -12 11 -14 28 -9 70 4 30
3 63 -1 73 -6 14 -12 5 -24 -37 -15 -48 -20 -55 -45 -58 -28 -4 -29 -3 -22 37
8 50 -1 91 -20 91 -10 0 -14 -14 -14 -48z m80 -146 c51 -26 120 -87 120 -107
0 -14 -8 -11 -40 12 -36 28 -158 38 -216 19 -54 -18 -106 -61 -145 -121 -29
-45 -33 -62 -37 -135 -5 -97 7 -155 50 -232 28 -50 82 -102 106 -102 6 0 14
-4 17 -10 8 -13 -60 -40 -104 -40 -51 0 -99 49 -149 153 -50 100 -67 182 -59
286 11 167 94 257 282 305 45 11 122 -1 175 -28z m38 -111 c80 -34 118 -93
107 -169 -17 -129 -101 -271 -207 -350 -47 -35 -85 -29 -139 24 -65 63 -84
117 -84 245 0 111 0 111 35 160 65 91 190 130 288 90z"/>
<path d="M3054 5819 c-48 -14 -68 -42 -68 -99 0 -41 5 -55 29 -80 23 -24 37
-30 73 -30 62 0 102 40 102 104 0 77 -63 126 -136 105z m71 -25 c20 -8 45 -56
45 -87 0 -13 -13 -36 -29 -51 -25 -24 -36 -28 -62 -22 -43 8 -69 41 -69 85 0
52 23 81 65 81 18 0 41 -3 50 -6z"/>
<path d="M1620 5283 c-59 -10 -153 -47 -207 -82 -64 -42 -138 -117 -153 -156
-13 -34 -34 -31 -78 11 -26 25 -38 32 -40 21 -5 -24 32 -81 62 -95 19 -10 26
-20 24 -35 -5 -38 -41 -32 -83 14 l-38 42 7 -39 c8 -45 46 -84 80 -84 27 0 42
-36 24 -57 -16 -20 -52 -15 -92 12 -20 14 -39 25 -41 25 -13 0 -2 -28 19 -53
29 -34 80 -51 108 -36 23 12 48 5 48 -13 1 -17 56 -79 101 -111 19 -15 65 -38
102 -52 110 -41 268 -32 392 23 33 15 65 30 70 34 6 5 40 31 76 58 37 28 80
70 95 93 25 37 29 53 32 132 4 101 -14 156 -69 220 -88 100 -276 155 -439 128z
m241 -57 c32 -13 29 -26 -7 -26 -35 0 -143 -60 -168 -94 -57 -76 -71 -116 -71
-211 0 -97 9 -123 61 -182 16 -18 49 -41 73 -52 l44 -19 -39 -11 c-21 -6 -80
-11 -131 -11 -147 0 -258 52 -319 150 -25 40 -28 55 -29 126 0 88 8 113 63
181 60 76 186 146 297 163 62 10 187 2 226 -14z m126 -84 c68 -35 93 -79 100
-178 9 -110 -23 -160 -166 -257 -51 -35 -60 -38 -104 -33 -116 13 -191 136
-166 273 19 101 55 147 159 200 53 27 117 25 177 -5z"/>
<path d="M1743 4980 c-37 -22 -63 -67 -63 -107 0 -61 66 -123 132 -123 37 0
88 38 104 77 47 111 -71 216 -173 153z m111 -11 c26 -12 56 -63 56 -96 0 -30
-36 -79 -69 -92 -85 -36 -167 55 -127 141 25 52 85 72 140 47z"/>
<path d="M2530 5214 c-42 -18 -77 -49 -96 -86 -51 -99 55 -151 161 -78 53 37
74 65 82 113 4 28 1 37 -18 51 -29 20 -83 20 -129 0z m108 -46 c6 -51 -111
-134 -162 -115 -42 16 -1 92 69 127 55 27 89 23 93 -12z"/>
<path d="M2665 5067 c-40 -25 -98 -94 -122 -145 -29 -62 -42 -165 -23 -177 16
-10 28 10 35 60 6 41 18 80 38 125 6 14 37 50 69 82 32 31 58 59 58 62 0 10
-34 6 -55 -7z"/>
<path d="M4325 6067 c-51 -16 -55 -43 -5 -40 155 11 195 8 253 -19 65 -31 151
-111 187 -177 27 -47 43 -57 48 -29 10 52 -112 194 -208 243 -46 24 -69 29
-145 32 -53 1 -106 -3 -130 -10z"/>
<path d="M5587 5810 c-61 -11 -183 -57 -204 -78 -16 -16 -15 -17 4 -20 12 -2
35 4 51 12 54 28 176 56 242 56 108 0 188 -28 277 -96 84 -64 103 -33 19 33
-72 58 -131 82 -228 93 -92 11 -94 11 -161 0z"/>
<path d="M4078 5763 c-21 -2 -38 -5 -39 -6 0 -1 -3 -52 -6 -112 -5 -102 -3
-115 20 -172 70 -171 173 -253 320 -253 68 0 142 16 185 39 35 19 106 83 134
120 30 41 78 174 78 218 0 15 7 40 14 56 l15 27 -67 0 c-82 0 -225 21 -369 54
-113 26 -220 37 -285 29z m150 -41 c9 -6 7 -13 -7 -29 -34 -36 -54 -116 -49
-194 7 -94 39 -154 102 -194 67 -41 129 -40 214 3 116 60 176 150 186 279 4
57 4 58 36 61 l33 3 -6 -53 c-8 -79 -53 -181 -101 -231 -59 -60 -77 -72 -140
-96 -82 -30 -156 -28 -231 8 -73 35 -113 76 -156 161 -31 59 -34 73 -34 155 0
121 8 135 83 135 31 0 63 -4 70 -8z m212 -41 c80 -16 161 -31 180 -33 l35 -3
-3 -59 c-6 -114 -61 -202 -157 -250 -120 -61 -219 -38 -270 64 -41 81 -33 191
20 278 10 17 26 32 35 32 9 0 81 -13 160 -29z"/>
<path d="M4250 5573 c-44 -40 -51 -93 -17 -127 47 -47 125 -26 153 39 37 90
-63 154 -136 88z m102 -10 c24 -21 23 -64 -3 -97 -39 -49 -119 -25 -119 37 0
26 54 77 81 77 12 0 31 -7 41 -17z"/>
<path d="M5330 5533 c0 -3 8 -15 17 -25 14 -16 15 -26 5 -82 -24 -127 -11
-273 30 -354 54 -107 180 -194 299 -208 73 -8 178 10 242 43 100 50 203 172
222 261 4 22 15 36 31 42 13 5 21 15 19 22 -15 38 -131 78 -449 153 -127 31
-199 57 -316 114 -85 41 -100 47 -100 34z m150 -108 c0 -7 -9 -20 -19 -29 -28
-25 -51 -100 -51 -165 0 -70 40 -159 98 -218 51 -51 139 -83 226 -83 140 0
258 131 260 288 1 62 2 63 25 57 69 -17 91 -33 91 -65 0 -68 -71 -176 -160
-242 -52 -39 -149 -68 -224 -68 -89 0 -162 29 -231 91 -97 89 -136 215 -115
371 16 111 14 109 61 90 21 -8 39 -20 39 -27z m110 -36 c75 -24 220 -61 302
-78 75 -16 82 -26 76 -110 -6 -81 -34 -137 -97 -194 -71 -64 -169 -71 -278
-20 -55 25 -95 69 -134 143 -27 51 -31 136 -9 192 12 31 57 88 69 88 3 0 35
-10 71 -21z"/>
<path d="M5513 5274 c-40 -20 -60 -65 -44 -100 15 -33 74 -58 119 -49 41 8 92
54 92 84 0 60 -100 99 -167 65z m126 -31 c34 -43 10 -86 -55 -99 -56 -11 -121
41 -98 77 22 37 41 47 86 48 39 1 50 -3 67 -26z"/>
<path d="M4768 5183 c-35 -38 -14 -94 57 -155 20 -18 20 -18 -12 -47 -34 -31
-88 -51 -138 -51 -38 0 -104 30 -129 58 -10 12 -23 19 -27 16 -17 -10 -9 -39
15 -57 13 -10 34 -46 46 -80 45 -125 158 -195 299 -185 75 6 116 23 175 78 22
20 56 45 74 54 17 9 32 21 32 27 0 18 -28 21 -59 5 -16 -9 -54 -16 -83 -16
-44 1 -58 5 -83 28 -57 52 -72 142 -25 142 31 0 158 58 193 88 38 33 10 63
-83 87 -36 9 -103 19 -150 22 -75 5 -87 3 -102 -14z m205 -40 c53 -10 97 -22
97 -28 0 -17 -157 -78 -183 -71 -12 3 -40 23 -61 45 -71 73 -34 86 147 54z
m-123 -241 c9 -39 79 -102 122 -108 21 -4 38 -10 38 -14 0 -14 -39 -42 -77
-56 -103 -36 -225 4 -294 99 -46 64 -41 72 44 73 47 0 82 6 102 17 38 21 58
18 65 -11z"/>
<path d="M3590 2425 c0 -11 53 -119 622 -1263 253 -508 462 -922 465 -919 2 3
-99 214 -225 469 -900 1815 -862 1740 -862 1713z"/>
<path d="M6930 265 c0 -49 3 -86 6 -83 8 9 9 156 1 165 -4 3 -7 -33 -7 -82z"/>
<path d="M5566 333 c-10 -11 -7 -143 4 -143 6 0 10 23 10 50 0 28 3 50 8 50 4
0 16 -16 26 -35 11 -19 22 -35 25 -35 3 0 17 17 31 37 l25 37 3 -57 c2 -33 7
-55 13 -52 12 8 12 142 -1 150 -5 3 -22 -14 -37 -39 -15 -26 -30 -46 -34 -46
-3 0 -15 18 -28 40 -24 43 -35 53 -45 43z"/>
<path d="M6059 315 c-3 -26 -8 -30 -30 -27 -51 6 -79 -57 -41 -91 10 -10 32
-17 49 -17 l31 0 4 66 c3 70 -7 123 -13 69z m-7 -62 c8 -36 -3 -54 -31 -51
-26 3 -38 26 -27 54 8 20 54 18 58 -3z"/>
<path d="M6307 333 c-11 -10 -8 -141 2 -148 6 -3 11 19 13 52 l3 58 23 -37
c13 -21 27 -38 30 -38 4 0 18 17 32 38 l25 37 3 -58 c2 -33 7 -55 13 -52 12 8
12 142 0 149 -5 4 -22 -14 -38 -39 -15 -25 -30 -45 -33 -45 -3 1 -19 21 -36
45 -17 25 -33 42 -37 38z"/>
<path d="M6787 328 c-4 -10 -9 -24 -11 -32 -3 -8 -14 -12 -28 -9 -43 8 -69
-55 -38 -92 16 -19 79 -20 86 -2 8 22 0 154 -9 135z m-12 -77 c9 -28 -5 -51
-30 -51 -25 0 -39 23 -30 51 8 25 52 25 60 0z"/>
<path d="M5752 278 c-16 -16 -15 -66 2 -84 18 -17 58 -18 74 -2 7 7 12 26 12
43 0 38 -16 55 -50 55 -14 0 -31 -5 -38 -12z m67 -22 c18 -22 -3 -56 -34 -56
-21 0 -25 5 -25 28 0 16 3 32 7 35 11 12 40 8 52 -7z"/>
<path d="M5860 234 c0 -34 4 -53 10 -49 6 3 10 24 10 46 0 36 2 40 23 37 17
-2 23 -11 25 -38 5 -54 22 -61 22 -9 0 54 -13 69 -57 69 l-33 0 0 -56z"/>
<path d="M6107 283 c-15 -15 -5 -22 23 -16 19 3 30 1 30 -6 0 -6 -13 -14 -30
-17 -29 -6 -47 -34 -35 -54 4 -6 23 -10 43 -8 33 3 37 7 40 35 4 43 -13 73
-42 73 -12 0 -26 -3 -29 -7z m51 -65 c-5 -15 -48 -24 -48 -10 0 14 12 22 33
22 10 0 17 -5 15 -12z"/>
<path d="M6200 271 c0 -11 8 -36 17 -55 16 -34 16 -37 -3 -57 -18 -20 -18 -21
-1 -18 18 4 67 104 67 136 0 24 -18 4 -25 -27 -8 -39 -24 -38 -32 0 -7 36 -23
50 -23 21z"/>
<path d="M6497 283 c-14 -14 -6 -19 23 -15 40 6 38 -13 -2 -24 -61 -18 -46
-72 16 -60 29 6 36 11 36 31 0 44 -18 75 -43 75 -13 0 -27 -3 -30 -7z m51 -65
c-5 -15 -48 -24 -48 -10 0 14 12 22 33 22 10 0 17 -5 15 -12z"/>
<path d="M6590 233 c1 -44 3 -54 11 -41 5 10 9 24 8 30 -5 37 2 49 24 46 18
-2 23 -10 25 -46 4 -47 22 -48 22 -1 0 49 -16 69 -55 69 l-35 0 0 -57z"/>
<path d="M6837 283 c-15 -14 -6 -23 12 -13 14 7 22 7 27 -1 8 -13 -5 -26 -31
-31 -14 -2 -20 -11 -20 -28 0 -22 4 -25 38 -26 20 -1 38 4 38 10 4 41 -2 80
-13 87 -16 10 -42 11 -51 2z m51 -65 c-5 -15 -48 -24 -48 -10 0 14 12 22 33
22 10 0 17 -5 15 -12z"/>
<path d="M6987 283 c-14 -13 -6 -23 11 -15 18 10 42 5 42 -8 0 -5 -13 -11 -29
-15 -66 -14 -61 -67 5 -62 32 2 34 4 34 39 0 20 -3 43 -6 52 -6 16 -45 22 -57
9z m51 -65 c-5 -15 -58 -24 -58 -10 0 15 12 22 38 22 14 0 22 -5 20 -12z"/>
<path d="M7126 275 c-17 -18 -19 -28 -10 -62 7 -25 34 -37 64 -28 30 10 24 20
-12 20 -30 0 -33 3 -33 30 0 27 3 30 33 30 17 0 31 4 29 10 -6 17 -54 17 -71
0z"/>
<path d="M7236 274 c-34 -33 -9 -94 38 -94 31 0 46 18 46 55 0 17 -5 36 -12
43 -17 17 -54 15 -72 -4z m66 -21 c8 -36 -3 -54 -31 -51 -26 3 -38 26 -27 54
8 20 54 18 58 -3z"/>
<path d="M7343 240 c-1 -28 3 -53 8 -56 5 -3 9 15 9 40 0 42 2 46 25 46 23 0
25 -4 25 -40 0 -22 5 -40 10 -40 6 0 10 18 10 41 0 36 2 40 23 37 18 -2 23
-11 28 -48 4 -35 7 -41 14 -26 4 10 4 35 -1 55 l-9 36 -71 2 -71 2 0 -49z"/>
</g>
</svg>
