<?xml version="1.0" standalone="no"?>
<!DOCTYPE svg PUBLIC "-//W3C//DTD SVG 20010904//EN"
 "http://www.w3.org/TR/2001/REC-SVG-20010904/DTD/svg10.dtd">
<svg version="1.0" xmlns="http://www.w3.org/2000/svg"
 width="816.000000pt" height="1056.000000pt" viewBox="0 0 816.000000 1056.000000"
 preserveAspectRatio="xMidYMid meet">
<metadata>
Created by potrace 1.16, written by Peter Selinger 2001-2019
</metadata>
<g transform="translate(0.000000,1056.000000) scale(0.100000,-0.100000)"
fill="#000000" stroke="none">
<path d="M225 10318 c-3 -7 -4 -2283 -3 -5058 l3 -5045 2613 0 c1436 0 2612 3
2612 8 0 4 -1172 7 -2605 7 l-2605 0 0 5035 c0 4021 3 5035 13 5035 6 0 1732
1 3835 3 l3822 2 0 -5031 0 -5032 -22 -6 c-13 -3 -83 -6 -155 -6 -84 0 -133
-4 -133 -10 0 -7 58 -10 168 -8 l167 3 3 5049 c2 4033 0 5051 -10 5058 -7 4
-1742 8 -3856 8 -3065 0 -3844 -3 -3847 -12z"/>
<path d="M3028 9873 c-24 -21 -45 -40 -48 -43 -3 -3 -39 -34 -80 -70 -41 -36
-91 -79 -110 -96 -19 -17 -69 -60 -110 -95 -55 -48 -99 -100 -165 -195 -170
-247 -339 -489 -344 -494 -3 -3 -10 -13 -16 -22 -5 -10 -34 -52 -64 -95 -29
-43 -72 -105 -95 -138 -22 -33 -44 -62 -47 -65 -3 -3 -24 -32 -46 -65 -50 -75
-128 -188 -324 -470 -19 -27 -55 -79 -79 -115 -25 -36 -47 -67 -50 -70 -3 -3
-19 -25 -35 -50 -16 -25 -54 -78 -84 -119 l-53 -73 11 -1072 c6 -589 14 -1221
17 -1404 6 -328 7 -334 28 -342 21 -8 80 -15 411 -46 246 -23 290 -29 289 -39
-1 -6 -25 -99 -54 -207 l-52 -198 68 -127 c37 -71 79 -150 93 -177 14 -27 35
-54 46 -60 11 -6 22 -14 25 -17 3 -3 55 -39 115 -80 61 -41 154 -106 208 -145
55 -38 106 -73 115 -79 16 -11 32 -22 70 -52 l24 -18 -21 -145 c-11 -80 -38
-271 -60 -425 -22 -154 -47 -332 -56 -395 -8 -63 -24 -176 -35 -250 -40 -272
-71 -516 -68 -544 3 -26 14 -35 107 -83 58 -29 119 -57 135 -62 17 -5 69 -23
115 -40 46 -16 107 -35 137 -42 30 -7 55 -17 55 -23 1 -6 2 -125 3 -265 l1
-253 70 -18 c39 -9 122 -29 185 -44 63 -15 272 -66 463 -113 l349 -85 431 86
c238 48 461 93 497 101 36 8 115 24 175 35 61 12 116 27 124 33 11 9 12 61 6
289 -6 232 -5 278 6 282 8 2 57 16 109 31 138 39 356 124 375 145 16 18 14 41
-30 367 -65 488 -105 795 -105 813 0 9 8 25 18 36 10 10 82 116 162 234 79
118 148 220 153 225 5 6 25 35 45 66 20 31 73 110 118 175 44 66 122 181 174
257 l93 139 -7 101 c-17 263 -14 251 -57 278 -22 13 -39 27 -39 31 0 5 -4 8
-10 8 -13 0 -143 80 -152 93 -6 9 -114 1 -250 -20 -31 -4 -63 -32 -219 -189
-101 -101 -187 -180 -191 -176 -4 4 -16 81 -28 172 -11 91 -23 173 -26 182 -4
13 3 18 33 23 90 14 161 25 198 29 64 9 737 102 1123 156 195 28 363 50 374
50 12 0 29 6 37 14 14 13 16 153 13 1448 l-2 1434 -93 47 c-50 26 -171 89
-267 140 -345 184 -471 251 -665 353 -71 37 -131 71 -133 76 -2 4 -9 8 -15 9
-7 0 -32 32 -57 71 -25 39 -50 76 -55 82 -6 6 -49 67 -95 136 -46 69 -98 146
-117 173 -18 26 -48 68 -66 95 -19 26 -62 89 -96 140 -34 50 -68 92 -75 92 -7
0 -21 -8 -32 -18 -17 -15 -100 -85 -159 -134 -11 -9 -83 -69 -159 -133 -77
-64 -150 -124 -163 -132 -25 -16 -6 -21 -253 63 -52 18 -111 37 -130 42 -19 6
-75 24 -125 41 -49 17 -178 60 -285 95 -107 35 -280 91 -385 126 -104 34 -197
69 -206 78 -16 17 -180 277 -215 342 -10 19 -22 37 -25 40 -4 3 -22 30 -41 60
-152 248 -207 330 -223 330 -8 0 -34 -17 -57 -37z m140 -150 c43 -71 87 -144
98 -163 10 -19 22 -37 26 -40 6 -5 44 -64 133 -210 26 -41 57 -92 71 -112 19
-29 21 -38 9 -38 -8 0 -178 54 -377 120 -200 66 -393 130 -430 141 -38 12 -68
27 -68 34 0 10 64 70 133 125 12 10 38 33 58 52 20 19 63 57 95 84 33 27 79
68 104 91 25 24 50 43 57 43 6 0 47 -57 91 -127z m392 -633 c322 -106 623
-206 670 -222 47 -16 105 -35 130 -43 25 -7 185 -59 355 -115 452 -150 913
-302 1125 -372 165 -54 232 -83 400 -176 57 -31 158 -85 285 -152 55 -29 136
-72 180 -95 44 -24 103 -55 130 -69 28 -14 44 -26 36 -26 -12 0 -1595 523
-1816 600 -44 16 -341 115 -660 220 -319 106 -607 205 -640 220 -33 15 -87 39
-120 53 -54 23 -183 78 -260 112 -16 7 -56 24 -88 39 -32 14 -63 26 -70 26 -7
0 -21 6 -32 13 -11 8 -49 25 -85 40 -36 14 -112 47 -170 73 -93 41 -133 58
-255 109 -16 7 -45 18 -62 26 -33 13 -45 43 -21 51 7 3 96 -23 198 -57 102
-34 448 -149 770 -255z m-857 174 c271 -117 421 -181 460 -195 20 -7 37 -17
37 -21 0 -4 6 -8 13 -8 18 0 137 -52 137 -60 0 -5 -357 -248 -447 -305 -9 -5
-67 -45 -130 -87 -63 -43 -118 -78 -123 -78 -5 0 -10 -3 -12 -7 -1 -5 -210
-146 -463 -315 -253 -169 -527 -353 -610 -409 -179 -121 -183 -123 -161 -80 9
17 21 31 26 31 6 0 10 6 10 14 0 8 3 16 8 18 8 4 19 19 132 188 47 69 87 127
90 130 6 5 41 55 199 285 42 61 89 128 104 150 16 22 59 85 97 140 38 55 74
105 80 112 5 7 10 17 10 23 0 5 3 10 8 10 4 0 18 18 32 40 14 22 28 40 32 40
5 0 8 4 8 9 0 14 297 441 306 441 2 0 73 -30 157 -66z m2872 -346 c49 -73 93
-134 97 -136 4 -2 8 -10 8 -17 0 -7 4 -15 8 -17 4 -1 40 -50 78 -108 117 -175
158 -234 177 -254 18 -21 22 -36 10 -36 -4 0 -116 36 -248 80 -132 44 -339
112 -459 152 -121 40 -221 78 -222 83 -2 6 27 33 64 62 37 29 78 63 92 76 21
19 72 61 215 178 11 10 34 29 50 43 17 14 33 26 36 26 3 0 45 -60 94 -132z
m-2023 -19 c143 -61 192 -82 258 -111 l35 -16 -25 -10 c-14 -5 -59 -26 -100
-45 -41 -19 -102 -47 -135 -62 -33 -15 -91 -43 -129 -61 -38 -19 -75 -34 -83
-34 -7 0 -13 -4 -13 -8 0 -4 -16 -14 -35 -21 -20 -7 -91 -39 -160 -72 -68 -32
-126 -59 -129 -59 -2 0 -69 -31 -150 -70 -80 -38 -147 -70 -150 -70 -3 0 -66
-29 -141 -65 -76 -36 -138 -65 -140 -65 -3 0 -121 -55 -283 -131 -57 -27 -105
-49 -107 -49 -2 0 -48 -21 -102 -46 -350 -165 -374 -176 -380 -171 -2 3 22 22
54 43 116 74 198 128 203 134 3 4 57 40 120 81 63 41 122 79 130 86 14 12
1313 881 1317 882 1 1 67 -26 145 -60z m477 -184 c58 -19 120 -40 136 -45 17
-6 73 -25 125 -42 52 -16 104 -34 115 -39 11 -5 65 -22 120 -39 55 -17 107
-35 115 -39 8 -4 62 -22 120 -40 58 -18 121 -39 140 -46 19 -8 73 -26 120 -40
47 -15 96 -31 110 -37 14 -5 72 -25 130 -43 58 -18 143 -47 190 -63 47 -16
150 -51 230 -77 80 -26 188 -62 240 -80 52 -18 241 -81 420 -139 179 -59 341
-113 360 -121 19 -7 127 -43 240 -80 113 -37 213 -72 223 -77 16 -8 17 -36 17
-374 l0 -365 -36 -15 c-57 -24 -123 -27 -204 -10 -96 20 -186 66 -279 140 -73
59 -181 179 -181 202 0 6 -7 17 -15 24 -13 11 -25 7 -73 -23 -131 -81 -231
-102 -472 -101 -218 0 -295 18 -469 106 -157 81 -290 205 -357 333 -16 30 -35
57 -41 59 -7 3 -26 -6 -42 -19 -16 -14 -34 -25 -40 -25 -6 0 -11 -4 -11 -8 0
-11 -83 -49 -135 -61 -78 -19 -250 -33 -344 -29 -186 10 -398 105 -526 238
l-40 41 -5 477 c-3 262 -4 480 -2 485 5 10 4 10 121 -28z m-169 -463 l0 -469
-67 -67 c-70 -70 -172 -142 -233 -166 -19 -7 -39 -17 -44 -22 -13 -11 -46 -10
-46 1 0 5 -6 16 -13 23 -7 7 -50 63 -97 123 -46 61 -94 121 -106 135 -13 14
-31 34 -41 46 -49 56 -111 59 -159 9 -60 -64 -56 -140 13 -231 20 -27 40 -51
43 -54 27 -24 120 -145 117 -154 -7 -22 -121 -39 -277 -40 -171 -1 -247 13
-372 66 -37 15 -74 28 -82 28 -9 0 -27 -24 -42 -57 -36 -76 -89 -147 -172
-231 -70 -71 -171 -152 -190 -152 -5 0 -12 -4 -14 -9 -6 -17 -151 -92 -243
-126 -49 -18 -124 -38 -165 -46 -72 -12 -323 -19 -333 -9 -3 3 -6 163 -8 355
l-4 350 60 30 c33 17 78 38 100 47 22 9 93 41 157 72 65 31 120 56 123 56 2 0
55 25 117 56 62 31 133 64 158 74 25 10 92 41 150 68 58 27 220 103 360 167
140 65 311 144 379 176 68 33 125 59 127 59 1 0 51 23 111 51 59 28 133 62
163 76 30 14 87 40 125 58 39 18 102 47 140 64 39 18 106 50 150 71 128 62
115 111 115 -428z m-707 -404 c26 -13 32 -20 77 -78 19 -25 37 -47 40 -50 4
-3 75 -95 158 -206 83 -110 168 -217 188 -236 33 -33 92 -62 199 -100 l40 -14
3 -104 c2 -62 -1 -107 -8 -114 -7 -7 -10 -6 -10 2 0 7 -6 12 -13 12 -25 0
-171 66 -232 105 -61 39 -113 99 -210 245 -17 25 -36 51 -43 58 -7 8 -25 30
-40 50 -15 21 -29 39 -32 42 -3 3 -16 19 -29 35 -12 17 -39 48 -59 70 -45 48
-92 111 -109 144 -22 41 -16 95 13 125 30 29 36 31 67 14z m707 -388 c0 -137
-2 -250 -5 -250 -20 0 -183 74 -203 92 -29 28 -132 163 -132 175 0 4 21 17 48
27 71 30 175 99 229 154 26 27 51 50 56 50 4 1 7 -110 7 -248z m100 209 c52
-58 249 -158 375 -191 206 -53 530 -13 667 83 14 11 31 19 36 19 6 0 24 -24
41 -52 17 -29 42 -66 57 -83 14 -16 36 -41 48 -55 70 -82 206 -167 388 -243
76 -32 209 -51 353 -50 209 0 370 34 466 98 21 14 42 25 47 25 4 0 15 -15 25
-32 40 -74 182 -202 291 -263 119 -66 318 -97 390 -60 15 8 30 15 32 15 8 0 4
-2009 -3 -2013 -8 -5 -50 0 -618 73 -170 22 -395 52 -500 65 -104 13 -262 34
-350 45 -88 12 -191 25 -230 30 -721 88 -1556 197 -1562 204 -2 2 -5 2221 -3
2420 0 8 32 -15 50 -35z m-1394 -260 c27 -11 58 -24 69 -29 54 -23 125 -32
282 -37 156 -5 181 -3 263 17 l91 22 20 -23 c11 -13 28 -36 37 -51 9 -16 20
-28 24 -28 4 0 8 -6 8 -14 0 -8 3 -16 8 -18 4 -1 19 -21 33 -43 79 -122 180
-200 337 -261 53 -21 103 -42 110 -47 8 -6 12 -40 12 -105 l0 -95 -45 6 c-61
9 -147 39 -259 91 -159 75 -201 80 -344 44 -107 -26 -138 -46 -152 -99 -10
-35 -8 -47 14 -94 34 -74 60 -89 139 -80 34 4 105 8 157 8 103 1 171 -17 316
-83 38 -18 93 -37 122 -43 l52 -11 0 -578 0 -577 -37 -10 c-21 -5 -54 -12 -73
-15 -46 -8 -565 -102 -660 -120 -41 -8 -115 -22 -165 -30 -109 -19 -620 -112
-690 -125 -27 -6 -102 -19 -165 -30 -63 -12 -239 -43 -390 -71 -151 -27 -285
-52 -297 -54 -19 -3 -23 2 -27 28 -3 17 -8 364 -11 771 -3 407 -8 839 -12 959
l-6 219 50 -7 c69 -9 273 10 368 34 107 27 194 64 309 129 180 103 375 298
437 439 7 17 17 32 20 32 4 0 28 -9 55 -21z m864 -611 c19 -6 72 -28 117 -50
98 -46 206 -84 268 -94 l45 -6 0 -84 0 -84 -27 6 c-48 11 -115 35 -168 60 -90
41 -158 62 -236 75 -68 11 -88 10 -163 -6 -102 -21 -124 -15 -149 38 -35 74
-18 107 68 133 107 31 170 34 245 12z m1095 -1641 c286 -38 675 -88 865 -112
190 -25 415 -54 500 -65 220 -29 1015 -130 1078 -137 29 -3 49 -9 45 -14 -4
-4 -82 -17 -173 -29 -91 -11 -241 -32 -335 -45 -93 -13 -235 -33 -315 -44 -80
-11 -279 -39 -443 -62 -164 -23 -300 -39 -303 -36 -3 3 -10 38 -15 79 -13 91
-28 109 -123 142 -377 135 -1223 186 -1821 110 -199 -25 -473 -90 -570 -135
-59 -28 -77 -44 -84 -81 -5 -20 -13 -32 -22 -31 -8 1 -84 14 -169 29 -137 25
-160 32 -198 60 -32 24 -51 32 -70 28 -15 -2 -96 -18 -181 -34 l-153 -29 -137
14 c-401 40 -388 39 -346 46 22 4 92 17 155 28 63 12 176 32 250 46 317 56
639 115 690 125 30 6 116 21 190 35 216 38 626 113 740 135 222 42 267 48 345
46 44 -1 314 -32 600 -69z m235 -256 c231 -31 415 -68 510 -103 47 -17 88 -33
92 -37 7 -6 23 -106 58 -371 11 -85 34 -256 50 -380 17 -124 51 -380 75 -570
25 -190 56 -428 69 -530 60 -444 133 -1000 132 -1000 -1 0 -41 -14 -91 -30
-236 -80 -792 -182 -1150 -212 -234 -19 -791 -16 -1020 5 -104 10 -208 22
-230 27 -22 4 -67 11 -100 15 -152 17 -543 123 -613 165 -37 22 -37 27 -18
141 8 46 22 145 31 219 9 74 28 207 41 295 13 88 35 243 49 345 13 102 35 264
49 360 14 96 28 194 31 218 4 23 9 42 12 42 10 0 76 -43 198 -130 66 -47 160
-112 208 -145 49 -32 90 -62 92 -66 3 -3 -10 -22 -28 -41 -39 -42 -57 -95 -57
-170 0 -148 86 -291 180 -298 47 -4 59 0 95 31 68 60 83 197 35 320 -29 74
-61 113 -113 138 l-44 21 108 427 c60 235 105 430 101 433 -66 45 -150 107
-160 117 -8 7 -22 18 -33 24 -21 11 -17 29 8 29 26 0 73 40 95 83 18 34 22 59
22 127 0 73 -4 92 -27 137 -49 95 -137 136 -203 95 -49 -31 -84 -112 -84 -194
0 -39 7 -85 16 -108 9 -23 14 -43 11 -46 -3 -3 -26 9 -51 28 -24 18 -90 65
-145 103 l-101 70 5 80 c12 170 12 172 58 198 50 29 372 109 532 132 199 29
305 34 730 30 355 -3 444 -6 575 -24z m-2298 -183 c40 -28 92 -65 114 -82 23
-17 53 -38 65 -48 13 -9 62 -44 108 -78 l84 -62 -6 -131 c-7 -156 -32 -279
-88 -434 -24 -68 -81 -181 -106 -212 l-20 -24 -56 41 c-31 23 -58 42 -61 42
-4 0 -216 149 -246 173 -8 7 -36 26 -61 42 -32 21 -53 45 -70 80 -13 27 -26
52 -29 55 -14 14 -111 212 -106 217 6 6 113 -48 166 -83 60 -41 70 -35 98 56
32 101 82 281 82 293 0 7 -45 44 -100 81 -56 38 -98 71 -95 75 7 7 199 48 232
50 13 1 56 -22 95 -51z m-330 -61 c7 -7 43 -32 81 -56 37 -24 67 -49 67 -55 0
-11 -71 -257 -85 -295 -5 -12 -8 -11 -23 1 -9 8 -43 28 -74 44 -32 16 -68 37
-80 46 l-23 17 33 133 c50 199 50 200 72 188 10 -5 24 -16 32 -23z m596 7 l92
-18 0 -58 c0 -32 -4 -58 -9 -58 -10 0 -221 149 -221 157 0 3 10 3 23 0 12 -3
64 -14 115 -23z m602 -72 c36 -27 35 -43 -2 -90 -46 -57 -68 -56 -69 6 0 26
-4 56 -9 67 -4 12 -6 -7 -3 -45 3 -36 10 -71 15 -77 14 -18 41 -1 75 47 15 22
31 40 34 40 3 0 14 -19 25 -42 25 -56 26 -178 1 -206 -9 -10 -17 -24 -17 -30
0 -20 -47 -43 -82 -40 l-33 3 -3 97 c-2 70 -7 99 -18 108 -21 18 -30 4 -10
-15 17 -18 22 -122 7 -160 -7 -17 -11 -15 -35 22 -24 36 -56 119 -56 145 0 4
15 9 33 10 l32 1 -32 4 c-18 2 -33 8 -33 13 0 27 23 110 30 110 5 0 11 9 15
20 7 21 56 39 90 34 11 -2 31 -12 45 -22z m2730 -70 c0 -4 -16 -23 -35 -42
-19 -19 -35 -41 -35 -50 0 -19 223 -190 248 -190 10 0 40 23 66 50 27 28 50
49 52 48 1 -2 7 -61 13 -132 l10 -128 -140 -209 c-78 -115 -144 -211 -148
-214 -21 -13 -211 146 -296 247 -34 40 -107 155 -158 249 l-36 65 144 144 144
144 78 12 c43 6 81 12 86 13 4 0 7 -3 7 -7z m129 -25 c20 -13 62 -40 94 -60
31 -21 57 -39 57 -42 0 -7 -97 -105 -104 -105 -11 0 -186 134 -186 143 0 11
82 87 94 87 6 0 26 -10 45 -23z m-3164 -183 c88 -63 223 -160 301 -215 l141
-100 -17 -72 c-33 -136 -183 -722 -186 -726 -3 -4 -180 114 -233 156 -23 18
-161 113 -283 196 -102 68 -125 95 -97 113 16 9 93 176 122 264 38 111 68 271
74 393 3 59 9 107 12 107 3 0 78 -52 166 -116z m2578 -131 c6 -19 48 -95 57
-103 3 -3 19 -27 34 -55 69 -122 184 -247 314 -343 34 -25 62 -50 62 -54 0 -8
-67 -114 -85 -134 -5 -6 -68 -98 -140 -204 -71 -107 -143 -213 -160 -238 -25
-37 -31 -41 -37 -25 -3 10 -18 110 -33 223 -14 113 -37 286 -51 385 -14 99
-34 248 -44 330 l-19 150 42 43 c46 47 52 50 60 25z m-2285 -1059 c18 -5 22
-14 23 -48 2 -30 3 -33 6 -13 6 37 18 34 53 -15 49 -67 70 -188 49 -271 -10
-38 -62 -107 -73 -96 -3 3 -9 33 -12 67 -4 34 -11 62 -15 62 -5 0 -7 -6 -4
-12 2 -7 6 -37 10 -65 5 -50 5 -53 -17 -53 -42 1 -61 24 -54 67 12 68 16 73
47 73 16 0 29 2 29 4 0 2 3 13 7 23 7 17 6 17 -11 1 -18 -19 -44 -23 -61 -10
-14 9 -55 109 -55 133 0 11 -4 19 -8 19 -5 0 -13 12 -20 28 -10 24 -11 25 -5
2 3 -14 21 -63 40 -110 20 -47 35 -95 35 -108 0 -34 -11 -72 -22 -72 -5 0 -23
30 -41 66 -54 109 -50 245 9 307 26 27 47 32 90 21z m2436 -1266 c3 -13 6 -37
6 -54 0 -33 -4 -36 -145 -87 -379 -140 -669 -187 -1324 -218 -489 -23 -921 -1
-1199 60 -225 49 -489 146 -570 207 -30 23 -32 29 -26 62 8 46 10 48 28 33 23
-19 167 -69 293 -100 612 -154 1464 -173 2198 -50 257 43 578 115 680 153 53
19 52 19 59 -6z m-494 -566 l0 -257 -102 -22 c-205 -44 -378 -77 -382 -72 -2
2 -5 125 -7 274 l-4 269 40 3 c63 5 330 44 387 57 29 7 56 11 61 9 4 -2 7
-120 7 -261z m-2015 194 c144 -25 445 -46 666 -46 l116 0 6 -157 c12 -276 9
-486 -6 -480 -20 8 -715 178 -911 223 l-79 18 7 120 c3 65 6 173 6 239 l0 119
28 -5 c15 -4 90 -17 167 -31z m1476 -281 c4 -148 4 -273 0 -276 -8 -9 -622
-131 -628 -125 -2 2 -7 148 -10 323 l-6 320 184 7 c101 5 236 11 299 16 63 4
124 7 135 6 19 -1 20 -10 26 -271z"/>
<path d="M4802 7281 c-72 -18 -139 -89 -170 -180 -15 -44 -15 -172 0 -225 63
-216 286 -275 408 -109 59 80 75 210 39 316 -48 145 -162 226 -277 198z m133
-65 c56 -33 93 -93 111 -177 44 -210 -93 -380 -249 -311 -161 71 -186 381 -38
486 48 35 118 36 176 2z"/>
<path d="M4855 7145 c-41 -40 -25 -105 26 -105 28 0 75 26 83 45 27 72 -53
116 -109 60z m91 -10 c8 -20 -20 -61 -46 -68 -11 -3 -27 1 -35 10 -23 23 9 73
47 73 16 0 31 -7 34 -15z"/>
<path d="M6453 6830 c-136 -83 -95 -399 65 -501 50 -31 115 -39 155 -17 125
66 126 318 2 456 -73 81 -154 104 -222 62z m153 -48 c24 -18 53 -54 74 -93 34
-62 35 -68 35 -171 l0 -106 -37 -36 c-43 -42 -76 -46 -128 -15 -94 58 -155
213 -130 331 12 58 22 75 60 101 36 25 81 21 126 -11z"/>
<path d="M6538 6726 c-10 -7 -18 -27 -18 -44 0 -38 28 -56 75 -48 38 8 51 36
32 76 -14 29 -62 38 -89 16z m72 -36 c0 -34 -25 -53 -52 -39 -18 9 -25 49 -11
62 3 4 19 7 35 7 24 0 28 -4 28 -30z"/>
<path d="M5480 6695 c0 -16 25 -58 68 -113 37 -48 78 -104 92 -124 14 -21 35
-43 47 -49 19 -10 23 -21 23 -63 -1 -118 -83 -206 -192 -206 -36 0 -46 6 -98
59 -32 33 -61 57 -64 54 -14 -14 -4 -53 19 -81 31 -37 118 -82 157 -82 45 0
93 25 146 74 l49 46 11 -25 c22 -47 83 -105 124 -116 65 -17 168 27 168 73 0
25 -20 23 -60 -7 -63 -46 -125 -29 -177 49 -31 45 -33 54 -33 135 l1 86 86 55
c116 73 145 98 141 123 -4 29 -41 45 -178 77 -218 50 -267 60 -297 60 -29 0
-33 -3 -33 -25z m260 -65 c63 -16 132 -32 153 -36 21 -3 36 -11 34 -18 -4 -15
-184 -136 -202 -136 -8 0 -40 35 -71 77 -32 43 -66 87 -77 98 -10 11 -23 28
-29 39 -9 17 -7 18 34 11 23 -4 95 -20 158 -35z"/>
<path d="M4399 4687 c-69 -31 -104 -99 -103 -202 0 -125 72 -228 177 -256 42
-12 49 -11 93 12 69 36 99 96 98 199 0 54 -6 88 -21 122 -23 50 -72 107 -110
127 -27 14 -100 13 -134 -2z m120 -28 c54 -30 105 -110 106 -164 0 -24 4 -41
9 -37 12 7 -2 -95 -16 -121 -8 -16 -12 -17 -20 -6 -7 11 -8 9 -4 -5 10 -31
-30 -66 -76 -66 -21 0 -48 5 -61 12 -12 6 -29 14 -37 18 -18 9 -66 77 -75 108
-6 19 -3 22 27 23 l33 2 -35 6 c-34 6 -35 8 -38 55 -5 70 17 133 56 167 39 35
79 37 131 8z"/>
<path d="M4501 4624 c0 -11 3 -14 6 -6 3 7 2 16 -1 19 -3 4 -6 -2 -5 -13z"/>
<path d="M4489 4555 c-3 -22 -10 -49 -14 -60 -8 -19 -8 -19 9 -3 12 13 16 30
14 60 l-3 43 -6 -40z"/>
<path d="M4380 4555 c14 -8 32 -14 40 -14 8 0 0 6 -19 14 -42 19 -54 19 -21 0z"/>
<path d="M4432 4452 c-23 -32 -20 -64 9 -97 9 -11 19 -31 22 -45 4 -23 4 -22
6 5 1 20 -6 34 -19 43 -24 15 -26 59 -4 90 9 13 14 26 11 28 -3 3 -14 -8 -25
-24z"/>
<path d="M4565 4400 c10 -33 25 -49 25 -26 0 9 -7 25 -16 34 -15 15 -16 14 -9
-8z"/>
<path d="M4495 4350 c-19 -8 -19 -9 2 -9 12 -1 25 4 28 9 7 12 -2 12 -30 0z"/>
<path d="M5010 3621 c-69 -14 -111 -54 -143 -139 -22 -56 -22 -178 0 -234 37
-96 117 -168 186 -168 56 0 122 41 158 100 26 41 42 128 37 194 -9 111 -63
200 -143 237 -43 20 -43 20 -95 10z m91 -43 c45 -25 50 -34 41 -79 -4 -19 -4
-72 -1 -119 l5 -85 2 113 c1 61 6 112 10 112 16 0 51 -90 58 -148 13 -119 -48
-233 -134 -253 -29 -6 -46 -3 -80 14 -38 18 -42 24 -37 47 4 19 3 21 -4 10 -9
-13 -12 -13 -24 0 -45 48 -65 172 -42 261 24 92 45 112 64 62 9 -25 10 -24 4
11 -5 33 -2 42 18 57 32 25 73 24 120 -3z"/>
<path d="M4973 3407 c-17 -86 -16 -103 3 -132 14 -22 23 -25 68 -23 l51 1 -45
4 c-76 7 -96 47 -67 133 9 27 19 36 42 41 l30 7 -32 1 c-21 1 -33 7 -35 17 -2
10 -9 -13 -15 -49z"/>
<path d="M5105 3460 c-3 -5 -1 -10 4 -10 6 0 11 5 11 10 0 6 -2 10 -4 10 -3 0
-8 -4 -11 -10z"/>
<path d="M5068 3443 c7 -3 16 -2 19 1 4 3 -2 6 -13 5 -11 0 -14 -3 -6 -6z"/>
<path d="M5115 3273 c-15 -12 -16 -14 -3 -10 14 5 17 -2 20 -46 2 -29 5 -45 8
-37 3 8 3 36 0 62 -5 45 -6 46 -25 31z"/>
<path d="M4250 2482 c-20 -10 -47 -37 -65 -66 -25 -42 -31 -62 -34 -128 -4
-96 18 -165 69 -214 120 -117 280 -12 280 184 0 92 -17 139 -70 194 -43 45
-50 48 -96 48 -27 0 -65 -8 -84 -18z m110 -18 c30 -12 40 -22 40 -39 0 -15 6
-22 17 -21 29 2 56 -87 50 -164 -4 -63 -22 -120 -38 -120 -4 0 -11 21 -15 48
-6 39 -9 43 -14 22 -3 -14 -3 -26 2 -28 4 -2 8 -19 8 -37 0 -69 -90 -88 -153
-32 -69 62 -93 173 -58 269 12 31 28 62 36 68 13 11 15 6 15 -34 0 -25 4 -46
10 -46 5 0 7 20 3 49 -5 43 -3 50 18 65 29 20 29 20 79 0z"/>
<path d="M4298 2353 c12 -2 30 -2 40 0 9 3 -1 5 -23 4 -22 0 -30 -2 -17 -4z"/>
<path d="M4365 2350 c-3 -5 -2 -10 4 -10 10 0 27 -49 35 -100 2 -16 4 -12 5
13 1 34 -21 107 -33 107 -3 0 -8 -4 -11 -10z"/>
<path d="M4251 2277 c0 -38 4 -77 9 -88 8 -13 7 -25 0 -39 -7 -14 -7 -20 0
-20 5 0 10 7 10 15 0 9 10 15 23 16 15 1 17 3 5 6 -22 6 -30 26 -38 108 l-7
70 -2 -68z"/>
<path d="M4333 2153 c9 -2 25 -2 35 0 9 3 1 5 -18 5 -19 0 -27 -2 -17 -5z"/>
<path d="M3201 4544 c-1 -21 19 -88 24 -82 2 2 -3 26 -10 53 -8 28 -14 41 -14
29z"/>
<path d="M3327 4452 c-43 -44 -45 -60 -13 -95 13 -14 31 -36 40 -49 9 -12 16
-18 16 -13 0 6 -16 30 -35 54 -19 24 -35 47 -35 51 0 3 16 25 36 48 44 52 40
54 -9 4z"/>
<path d="M3320 3010 c0 -5 5 -10 10 -10 6 0 10 5 10 10 0 6 -4 10 -10 10 -5 0
-10 -4 -10 -10z"/>
<path d="M3278 3003 c6 -2 18 -2 25 0 6 3 1 5 -13 5 -14 0 -19 -2 -12 -5z"/>
<path d="M3357 2955 c11 -73 18 -87 51 -101 18 -7 32 -9 32 -5 0 5 -13 14 -30
21 -16 7 -30 20 -31 29 0 9 -7 34 -14 56 l-14 40 6 -40z"/>
<path d="M4970 1353 c-87 -16 -137 -124 -90 -200 27 -46 62 -65 116 -65 55 0
90 22 117 73 51 96 -35 211 -143 192z m94 -62 c43 -44 42 -103 -2 -142 -42
-38 -89 -39 -131 -3 -26 22 -31 33 -31 71 0 93 102 139 164 74z"/>
<path d="M4337 1289 c-94 -50 -113 -185 -35 -259 137 -131 354 41 252 201 -45
72 -141 98 -217 58z m156 -41 c37 -26 47 -48 47 -103 0 -77 -49 -125 -127
-125 -74 1 -123 53 -123 130 1 103 116 159 203 98z"/>
<path d="M6930 270 c0 -46 3 -81 6 -77 3 3 6 38 6 77 0 39 -3 74 -6 77 -3 4
-6 -31 -6 -77z"/>
<path d="M5566 333 c-10 -10 -7 -143 3 -143 6 0 11 24 13 53 l3 52 25 -37 c14
-21 27 -38 30 -38 3 0 16 17 30 37 l25 37 3 -52 c2 -29 7 -52 13 -52 12 0 12
137 -1 145 -5 3 -22 -14 -37 -39 -15 -26 -30 -46 -34 -46 -3 0 -15 18 -28 40
-24 43 -35 53 -45 43z"/>
<path d="M6059 315 c-3 -26 -8 -30 -30 -27 -51 6 -79 -57 -41 -91 10 -10 32
-17 49 -17 l31 0 4 66 c3 70 -7 123 -13 69z m-7 -62 c8 -36 -3 -54 -31 -51
-26 3 -38 26 -27 54 8 20 54 18 58 -3z"/>
<path d="M6306 333 c-10 -10 -7 -141 3 -148 6 -3 11 19 13 52 l3 57 25 -37
c14 -20 27 -37 30 -37 3 0 16 17 30 38 l25 37 3 -58 c2 -33 7 -55 13 -52 12 8
12 142 0 149 -5 4 -22 -14 -38 -39 -15 -25 -31 -45 -35 -45 -4 0 -13 10 -19
23 -20 36 -46 67 -53 60z"/>
<path d="M6787 328 c-4 -10 -9 -24 -11 -32 -3 -8 -14 -12 -28 -9 -43 8 -69
-55 -38 -92 16 -19 79 -20 86 -2 8 22 0 154 -9 135z m-12 -77 c9 -28 -5 -51
-30 -51 -25 0 -39 23 -30 51 8 25 52 25 60 0z"/>
<path d="M5752 278 c-16 -16 -15 -66 2 -84 18 -17 58 -18 74 -2 7 7 12 26 12
43 0 38 -16 55 -50 55 -14 0 -31 -5 -38 -12z m67 -22 c18 -22 -3 -56 -34 -56
-21 0 -25 5 -25 28 0 16 3 32 7 35 11 12 40 8 52 -7z"/>
<path d="M5860 234 c0 -34 4 -53 10 -49 6 3 10 24 10 46 0 36 2 40 23 37 17
-2 23 -11 25 -38 5 -54 22 -61 22 -9 0 54 -13 69 -57 69 l-33 0 0 -56z"/>
<path d="M6107 283 c-15 -15 -5 -22 23 -16 19 3 30 1 30 -6 0 -6 -13 -14 -30
-17 -29 -6 -47 -34 -35 -54 4 -6 23 -10 43 -8 35 4 37 6 40 42 2 20 -2 44 -9
52 -12 14 -51 19 -62 7z m51 -65 c-5 -15 -48 -24 -48 -10 0 14 12 22 33 22 10
0 17 -5 15 -12z"/>
<path d="M6201 278 c-1 -10 6 -36 15 -58 16 -38 15 -42 -2 -62 -18 -20 -18
-20 -1 -17 18 4 67 104 67 136 0 24 -18 4 -25 -27 -9 -40 -19 -38 -38 8 -8 20
-15 29 -16 20z"/>
<path d="M6497 283 c-14 -14 -6 -19 23 -15 40 6 38 -13 -2 -24 -61 -18 -46
-72 16 -60 29 6 36 11 36 31 0 44 -18 75 -43 75 -13 0 -27 -3 -30 -7z m51 -65
c-5 -15 -48 -24 -48 -10 0 14 12 22 33 22 10 0 17 -5 15 -12z"/>
<path d="M6590 233 c1 -44 3 -54 11 -41 5 10 9 24 8 30 -5 37 2 49 24 46 18
-2 23 -10 25 -46 4 -47 22 -48 22 -1 0 49 -16 69 -55 69 l-35 0 0 -57z"/>
<path d="M6837 283 c-15 -14 -6 -23 12 -13 14 7 22 7 27 -1 8 -13 -5 -26 -31
-31 -14 -2 -20 -11 -20 -28 0 -22 4 -25 40 -25 l40 0 -1 44 c-1 24 -8 47 -15
52 -17 10 -43 12 -52 2z m47 -68 c-6 -16 -44 -21 -44 -7 0 14 12 22 31 22 12
0 16 -5 13 -15z"/>
<path d="M6987 283 c-14 -13 -6 -23 11 -15 18 10 42 5 42 -8 0 -5 -13 -11 -29
-15 -66 -14 -61 -67 5 -62 32 2 34 4 34 39 0 20 -3 43 -6 52 -6 16 -45 22 -57
9z m51 -65 c-5 -15 -58 -24 -58 -10 0 15 12 22 38 22 14 0 22 -5 20 -12z"/>
<path d="M7126 275 c-17 -18 -19 -28 -10 -62 7 -25 34 -37 64 -28 30 10 24 20
-12 20 -30 0 -33 3 -33 30 0 27 3 30 33 30 17 0 31 4 29 10 -6 17 -54 17 -71
0z"/>
<path d="M7236 274 c-34 -33 -9 -94 38 -94 31 0 46 18 46 55 0 17 -5 36 -12
43 -17 17 -54 15 -72 -4z m67 -18 c3 -8 3 -24 0 -36 -4 -16 -12 -20 -32 -18
-26 3 -38 26 -27 54 7 18 52 18 59 0z"/>
<path d="M7342 240 c0 -28 4 -53 9 -56 5 -3 9 15 9 40 0 42 2 46 25 46 23 0
25 -4 25 -40 0 -22 5 -40 10 -40 6 0 10 18 10 41 0 36 2 40 23 37 18 -2 23
-11 28 -48 4 -35 7 -41 14 -26 4 10 4 35 -1 55 l-9 36 -72 2 -72 3 1 -50z"/>
</g>
</svg>
