<?xml version="1.0" standalone="no"?>
<!DOCTYPE svg PUBLIC "-//W3C//DTD SVG 20010904//EN"
 "http://www.w3.org/TR/2001/REC-SVG-20010904/DTD/svg10.dtd">
<svg version="1.0" xmlns="http://www.w3.org/2000/svg"
 width="816.000000pt" height="1056.000000pt" viewBox="0 0 816.000000 1056.000000"
 preserveAspectRatio="xMidYMid meet">
<metadata>
Created by potrace 1.16, written by Peter Selinger 2001-2019
</metadata>
<g transform="translate(0.000000,1056.000000) scale(0.100000,-0.100000)"
fill="#000000" stroke="none">
<path d="M225 10318 c-3 -7 -4 -2283 -3 -5058 l3 -5045 2613 0 c1436 0 2612 3
2612 8 0 4 -1172 7 -2605 7 l-2605 0 0 5035 c0 4021 3 5035 13 5035 6 0 1732
1 3835 3 l3822 2 0 -5031 0 -5032 -22 -6 c-13 -3 -83 -6 -155 -6 -84 0 -133
-4 -133 -10 0 -7 58 -10 168 -8 l167 3 3 5049 c2 4033 0 5051 -10 5058 -7 4
-1742 8 -3856 8 -3065 0 -3844 -3 -3847 -12z"/>
<path d="M7034 9778 c1 -162 -4 -180 -91 -310 -25 -37 -42 -71 -39 -77 4 -5
23 -1 47 11 23 11 68 25 101 31 99 18 229 -19 284 -81 30 -35 30 -19 -1 42
-50 99 -27 253 54 354 17 22 31 42 31 44 0 3 -51 8 -112 11 -131 6 -187 25
-236 81 -17 20 -33 36 -35 36 -2 0 -4 -64 -3 -142z m59 58 c41 -31 91 -44 199
-52 l87 -7 -29 -42 c-44 -64 -63 -144 -58 -241 3 -64 2 -81 -8 -73 -25 21
-164 39 -223 30 -115 -20 -126 -21 -113 -15 6 3 12 12 12 20 0 8 4 14 8 14 5
0 26 37 48 83 38 80 39 84 39 194 0 62 1 113 3 113 2 0 18 -11 35 -24z"/>
<path d="M3605 9854 c-39 -20 -85 -64 -85 -81 0 -7 -4 -13 -8 -13 -8 0 -25
-42 -78 -194 -44 -124 -54 -143 -127 -241 -65 -87 -114 -180 -140 -265 -23
-78 -40 -216 -32 -275 17 -136 74 -287 144 -380 20 -27 41 -56 45 -63 5 -8 -8
-33 -35 -68 -35 -45 -46 -54 -63 -48 -12 3 -42 9 -68 11 -48 5 -90 -14 -126
-57 -52 -61 -129 -342 -139 -510 -6 -108 -21 -180 -22 -109 -2 94 -96 75 -142
-30 l-13 -29 -54 49 c-53 48 -189 121 -277 149 -71 22 -110 47 -184 117 -122
114 -178 137 -221 91 -12 -13 -53 -78 -93 -145 -50 -86 -78 -124 -94 -128 -13
-3 -31 -22 -42 -44 -24 -47 -65 -75 -111 -76 -27 0 -39 -7 -57 -34 -29 -43
-58 -58 -130 -66 -127 -14 -267 -38 -299 -51 -18 -7 -40 -24 -48 -36 -17 -24
-22 -113 -7 -123 5 -3 12 -18 16 -34 3 -16 20 -51 37 -77 95 -150 104 -194 93
-448 l-7 -174 -62 -6 c-76 -9 -106 -27 -106 -65 0 -47 19 -54 121 -46 109 8
112 1 29 -66 -39 -32 -56 -53 -58 -73 -8 -67 58 -76 138 -18 l53 38 42 -42
c55 -54 86 -70 190 -94 59 -15 100 -19 134 -14 l49 6 -9 -43 c-17 -93 21 -183
92 -220 73 -37 141 -17 198 57 32 43 35 44 57 29 32 -20 115 -19 153 3 l31 17
26 -32 c32 -42 78 -45 118 -8 34 31 36 31 36 0 0 -23 -43 -123 -59 -135 -24
-20 -53 -98 -58 -160 -6 -68 -5 -70 36 -133 48 -74 51 -107 16 -159 -14 -21
-28 -58 -32 -83 -6 -45 -5 -46 51 -101 60 -60 63 -69 45 -153 -15 -70 1 -119
46 -149 19 -12 41 -22 48 -22 28 0 51 -29 64 -81 15 -59 32 -78 106 -115 52
-27 82 -66 99 -132 13 -51 32 -50 36 1 3 40 -23 101 -58 132 -55 48 -72 141
-49 258 16 76 6 112 -46 182 -51 68 -55 97 -22 145 28 43 66 65 145 85 128 33
159 57 169 132 4 31 -4 54 -41 127 -25 50 -46 98 -46 107 0 10 18 53 40 95 56
104 58 139 21 244 -23 63 -31 77 -31 54 0 -17 7 -52 16 -78 24 -69 15 -139
-26 -205 -47 -75 -51 -134 -15 -198 69 -120 72 -132 43 -190 -12 -25 -33 -34
-145 -63 -90 -24 -138 -56 -159 -107 -25 -59 -12 -127 31 -163 31 -26 48 -78
41 -128 -15 -110 -18 -182 -8 -211 9 -25 8 -31 -3 -31 -29 0 -65 66 -65 119 0
20 -38 50 -80 61 -64 17 -74 37 -64 129 12 101 5 126 -52 179 -44 40 -46 44
-41 84 3 22 10 44 15 47 17 11 42 70 42 98 0 16 -18 55 -41 91 -40 61 -41 66
-37 130 3 59 9 76 50 144 75 124 83 177 38 261 -24 44 -25 80 -5 159 17 63 13
90 -30 210 -16 45 -16 49 6 130 13 46 25 127 28 183 5 76 11 108 26 131 67
106 77 127 85 182 11 76 28 108 87 163 50 46 60 62 89 144 10 28 38 76 63 108
44 55 46 56 49 30 7 -68 -72 -340 -133 -463 -21 -41 -61 -100 -88 -130 -79
-86 -97 -135 -97 -260 0 -58 -7 -132 -15 -165 -24 -99 -20 -135 25 -220 22
-42 40 -85 40 -96 0 -11 -11 -47 -25 -81 -32 -79 -31 -111 5 -196 17 -39 30
-81 30 -94 0 -23 -36 -83 -72 -122 -32 -35 -46 -81 -52 -183 -5 -84 -3 -108
11 -138 22 -46 33 -44 33 5 0 55 44 102 139 150 42 21 85 47 95 59 29 32 32
113 7 183 -21 60 -19 87 9 128 35 51 60 110 60 142 0 18 -11 57 -25 86 -14 30
-25 55 -25 57 0 1 20 -5 45 -14 35 -12 51 -13 74 -5 29 11 30 11 46 -35 20
-52 45 -96 75 -130 16 -20 20 -38 20 -98 0 -78 13 -115 56 -162 36 -38 54 -84
54 -133 0 -45 -11 -71 -73 -172 -41 -66 -55 -132 -37 -166 25 -46 -23 -195
-89 -279 -101 -129 -144 -264 -110 -348 7 -15 17 -41 24 -58 14 -33 56 -164
75 -235 40 -149 78 -210 130 -210 27 0 46 -17 130 -116 72 -83 73 -87 66 -193
-6 -81 -4 -108 13 -171 12 -41 21 -102 21 -136 0 -34 9 -97 21 -140 12 -44 29
-133 40 -199 10 -66 23 -140 28 -165 6 -25 13 -85 16 -135 3 -49 13 -115 22
-145 18 -63 25 -342 10 -425 -5 -27 -10 -59 -12 -70 -2 -11 -4 -22 -4 -24 -1
-1 -30 25 -66 59 -84 81 -120 103 -173 103 -49 0 -87 -29 -97 -75 -11 -48 -30
-26 -36 43 -18 182 -5 302 38 345 27 27 58 29 136 9 44 -12 77 11 77 52 0 49
-14 68 -60 87 -61 24 -137 21 -198 -10 -109 -54 -151 -149 -161 -359 -4 -80
-10 -129 -16 -128 -6 1 -85 7 -175 13 -91 6 -171 13 -177 15 -8 3 -13 21 -13
45 l0 40 86 0 c149 0 205 27 220 105 9 52 -13 87 -65 102 -25 7 -47 17 -50 21
-3 5 -14 11 -23 15 -16 5 -12 14 23 62 25 32 50 55 60 55 11 0 36 -16 58 -35
44 -40 64 -45 59 -12 -2 13 -22 35 -53 55 -57 38 -62 46 -44 68 9 11 23 13 53
8 23 -3 47 -11 53 -16 7 -6 20 -8 28 -4 40 15 -31 66 -93 66 -21 0 -23 3 -17
27 83 334 126 817 90 1020 -18 101 -36 149 -64 170 -25 19 -82 15 -121 -8 -34
-20 -214 -198 -313 -308 -42 -46 -51 -52 -75 -46 -37 9 -47 22 -61 80 -7 28
-18 64 -26 80 -7 17 -21 48 -30 70 -29 66 -91 169 -120 197 -14 14 -43 34 -63
44 -32 16 -34 19 -15 22 13 2 31 13 40 25 14 17 27 21 53 19 28 -2 41 3 60 23
13 14 32 25 41 25 23 0 59 38 59 63 0 10 8 21 18 24 31 8 45 41 32 73 -12 29
-30 40 -98 61 -24 7 -53 23 -65 36 -12 13 -39 33 -60 44 -37 20 -42 39 -9 39
51 0 116 76 104 123 -7 27 -57 46 -98 37 -29 -7 -32 -6 -24 9 5 9 25 34 45 56
82 92 126 246 106 368 -17 102 -60 185 -128 247 -61 56 -148 104 -207 115 -41
8 -53 22 -135 155 -74 119 -121 143 -187 98 -37 -25 -67 -84 -90 -173 -8 -33
-22 -66 -31 -73 -15 -11 -19 -7 -35 30 -29 73 -21 258 11 258 30 0 61 38 61
75 0 79 -103 101 -131 28 -10 -27 -3 -83 10 -83 4 0 7 -57 7 -127 0 -100 3
-136 17 -167 23 -51 22 -76 -2 -76 -11 0 -28 -12 -40 -27 -18 -25 -21 -26 -35
-13 -18 17 -81 164 -91 211 -5 23 -2 36 13 52 29 33 35 62 18 95 -16 31 -34
42 -70 42 -68 0 -93 -89 -37 -131 16 -12 32 -35 35 -51 6 -28 31 -94 77 -196
10 -23 19 -46 19 -51 0 -5 -55 -11 -123 -13 -137 -6 -177 -19 -203 -70 -11
-22 -15 -47 -11 -82 6 -69 23 -104 93 -197 48 -63 69 -113 79 -189 4 -30 16
-82 27 -114 l19 -59 -30 -28 c-34 -31 -42 -81 -19 -121 18 -32 65 -76 91 -85
15 -5 -9 -10 -73 -14 -70 -4 -100 -2 -115 8 -23 15 -73 17 -109 3 -26 -9 -86
-67 -86 -81 0 -5 -18 -20 -40 -34 -39 -24 -52 -56 -30 -70 7 -4 6 -13 -1 -27
-19 -35 -3 -63 49 -86 61 -27 64 -27 110 3 20 13 56 31 80 39 61 22 92 58 92
110 0 25 2 26 59 26 61 0 186 -21 233 -39 25 -9 26 -12 16 -49 -21 -82 44
-153 127 -138 25 5 50 21 79 52 45 46 56 53 56 31 0 -20 44 -40 70 -32 27 9
60 -19 60 -51 0 -29 25 -54 56 -54 24 0 32 -18 15 -35 -18 -20 -72 -185 -105
-322 -19 -79 -48 -178 -65 -220 -47 -118 -81 -267 -81 -350 0 -40 -4 -73 -9
-73 -4 0 -32 5 -61 10 -63 12 -90 6 -90 -21 0 -16 7 -19 41 -19 63 0 116 -19
123 -44 10 -38 6 -43 -39 -49 -52 -8 -123 -41 -131 -62 -13 -32 8 -34 59 -6
86 48 146 43 147 -12 0 -16 -2 -16 -30 -2 -39 20 -79 19 -117 -5 -73 -44 -69
-106 14 -186 30 -30 59 -54 63 -54 5 0 15 -6 22 -13 19 -19 177 -95 218 -105
29 -7 34 -12 32 -33 -2 -13 -6 -63 -9 -111 -4 -69 -8 -88 -20 -88 -33 0 -74
-37 -103 -92 -22 -41 -38 -59 -56 -63 -13 -3 -36 -8 -51 -11 -39 -8 -93 -66
-93 -100 0 -40 6 -45 85 -90 l70 -39 -66 -6 c-83 -7 -163 -46 -220 -106 -68
-73 -100 -191 -64 -239 9 -11 14 -42 15 -76 0 -84 22 -132 73 -156 45 -22 113
-29 607 -57 140 -8 296 -18 346 -21 77 -6 96 -4 121 11 30 18 30 18 59 -12 17
-18 48 -34 76 -41 67 -17 203 -15 237 3 42 21 80 71 92 121 8 32 16 44 30 44
19 0 49 25 65 53 5 8 26 18 47 22 32 6 37 5 37 -11 0 -33 39 -85 75 -100 19
-8 57 -14 86 -14 l51 0 -6 -57 c-6 -47 -3 -64 12 -89 24 -38 77 -64 130 -64
55 0 81 11 122 53 44 45 63 50 130 32 30 -8 74 -15 98 -15 23 0 42 -4 42 -10
0 -22 72 -9 134 25 76 41 77 41 93 16 10 -16 8 -28 -11 -68 -13 -27 -27 -79
-31 -116 -10 -93 16 -148 104 -220 31 -25 144 -23 215 3 67 26 132 72 154 111
l17 29 125 0 c115 0 158 5 217 24 20 6 25 2 39 -33 22 -56 68 -81 146 -81 84
0 298 52 298 72 0 4 6 8 13 9 6 0 26 17 42 37 26 31 30 43 29 96 0 34 -6 71
-12 83 -10 19 -9 22 16 28 120 29 76 104 -54 90 -55 -6 -64 -4 -64 9 0 12 10
16 36 16 19 0 55 5 80 11 35 9 46 17 51 37 7 30 -17 52 -57 52 -24 0 -26 3
-30 58 -8 115 -5 187 7 187 6 0 15 3 19 7 4 5 14 8 21 8 8 0 23 9 35 20 20 19
21 25 16 263 l-5 244 46 -4 c25 -3 113 -16 196 -29 192 -31 219 -31 250 1 14
13 25 35 25 49 0 34 18 43 36 17 31 -44 104 -17 104 38 0 37 -11 61 -53 114
-28 36 -29 41 -23 100 4 33 13 76 21 93 13 32 14 32 72 27 55 -5 59 -4 72 21
21 38 0 73 -53 87 -23 6 -47 13 -53 15 -14 4 -14 5 17 165 26 137 25 185 -1
229 -23 38 -93 132 -121 164 -27 30 -22 45 20 63 47 20 145 12 221 -17 100
-39 161 -51 202 -40 111 30 81 164 -47 214 -72 28 -261 34 -352 11 -88 -21
-132 -18 -143 12 -12 34 17 44 150 55 166 14 175 15 215 47 23 19 53 31 86 35
113 15 154 76 89 133 -123 108 -124 111 -125 393 -1 185 -5 247 -18 290 -20
68 -20 138 -1 210 8 30 20 101 26 157 13 120 6 143 -44 143 -37 0 -66 -17
-166 -94 -41 -31 -87 -58 -107 -62 -36 -7 -119 6 -210 31 -57 16 -60 20 -105
150 -59 171 -113 255 -165 255 -35 0 -53 -37 -64 -130 -17 -149 -58 -258 -116
-311 -81 -73 -191 -188 -239 -249 -95 -123 -156 -180 -236 -221 -83 -41 -98
-64 -79 -114 5 -14 10 -40 10 -57 0 -60 197 -292 285 -335 103 -50 180 -96
177 -105 -1 -6 -9 -17 -18 -25 -22 -22 -41 -64 -55 -117 -14 -55 -19 -60 -53
-45 -25 12 -56 63 -56 92 0 26 -62 207 -71 207 -5 0 -9 6 -9 14 0 22 -64 48
-92 37 -30 -12 -52 -37 -128 -149 -34 -51 -78 -105 -97 -121 -32 -26 -202
-117 -207 -110 -6 11 -52 145 -76 224 -34 111 -70 263 -70 295 1 65 37 121
109 170 12 8 36 44 53 80 38 78 48 87 115 95 70 10 106 34 139 97 22 40 40 59
74 76 87 46 113 88 109 181 l-3 56 52 5 c76 8 99 35 111 127 10 76 28 112 81
156 54 46 70 84 70 169 0 66 4 86 30 135 16 32 40 70 53 86 24 26 47 36 47 19
0 -22 147 -149 220 -191 122 -70 231 -96 364 -88 200 11 377 116 531 317 24
32 50 69 56 84 16 34 23 33 49 -9 89 -143 332 -229 467 -164 121 59 134 199
23 255 -25 12 -66 19 -140 21 -134 5 -142 7 -185 45 -34 29 -85 113 -85 139 0
9 19 10 68 6 105 -10 240 8 335 44 45 18 84 35 87 38 3 4 21 18 40 31 42 28
114 101 155 155 16 22 32 42 35 45 11 11 44 88 61 145 23 74 24 170 3 247 -18
63 -20 48 35 238 17 58 31 128 31 157 0 44 -4 56 -31 82 -47 47 -105 43 -269
-18 -44 -17 -57 -18 -71 -8 -134 100 -259 158 -374 172 -49 6 -65 13 -90 39
-20 21 -50 38 -90 50 -82 24 -125 48 -144 82 -40 73 -94 93 -137 53 l-23 -21
-90 46 c-117 60 -167 59 -219 -4 -37 -44 -72 -156 -87 -280 -8 -62 -29 -122
-58 -163 -10 -15 -36 -63 -58 -107 -107 -219 -46 -465 170 -685 34 -34 85 -79
115 -101 30 -21 55 -44 56 -50 0 -15 -45 -34 -83 -34 -41 0 -77 23 -155 98
-35 34 -79 67 -98 74 -22 8 -34 19 -34 30 0 11 -12 31 -27 46 -20 19 -28 38
-30 66 -2 57 -21 86 -55 86 -21 0 -32 7 -40 25 -13 30 -53 43 -79 26 -10 -6
-36 -11 -56 -11 -21 0 -43 -4 -48 -8 -18 -13 -35 -62 -35 -102 0 -38 -1 -40
-33 -40 -69 0 -101 -51 -112 -178 -4 -45 -10 -84 -14 -86 -20 -13 -58 8 -69
38 -18 48 -15 60 17 89 35 31 47 79 32 132 -8 29 -7 46 4 73 18 42 19 95 3
121 -9 15 -8 31 6 78 19 62 18 68 -28 135 -14 21 -17 37 -12 65 18 101 17 118
-6 163 -13 25 -42 58 -65 75 -28 20 -46 44 -57 72 -8 24 -27 59 -42 79 -18 24
-27 46 -26 67 1 18 4 124 8 237 5 179 3 218 -14 305 -33 163 -79 244 -152 266
-50 15 -94 6 -173 -36 -36 -19 -71 -35 -76 -35 -22 0 -10 31 17 43 51 22 183
107 233 148 81 69 151 172 196 288 22 57 26 87 30 221 4 105 1 174 -7 215 -7
33 -16 172 -19 310 -6 235 -7 253 -29 297 -31 63 -71 90 -138 96 -47 4 -64 -1
-139 -37 -47 -22 -94 -41 -103 -41 -10 0 -45 11 -78 24 -182 74 -324 101 -493
92 -145 -7 -151 -5 -241 91 -30 32 -72 66 -92 76 -45 21 -104 22 -143 1z m112
-35 c15 -5 57 -38 93 -73 111 -108 103 -105 281 -104 136 1 167 -2 269 -27 63
-15 147 -41 185 -57 93 -39 128 -37 231 13 92 45 130 48 178 12 52 -38 61 -80
62 -298 0 -140 6 -233 19 -310 23 -140 16 -348 -13 -440 -60 -185 -184 -311
-422 -428 -119 -59 -138 -64 -170 -47 -29 15 -80 1 -92 -26 -11 -24 -13 -24
-162 -24 -152 0 -276 17 -419 57 l-58 16 6 37 c5 32 2 42 -21 65 -15 16 -24
26 -18 24 5 -3 36 -17 69 -33 136 -63 287 -96 446 -96 129 0 198 10 313 46 68
21 210 86 226 104 3 3 22 18 43 33 126 94 217 250 238 408 15 109 -7 227 -62
338 -33 67 -60 103 -133 176 -50 51 -104 101 -121 112 -62 41 -168 94 -233
117 -147 52 -198 60 -377 61 -147 0 -181 -3 -255 -23 -226 -62 -393 -182 -487
-349 -161 -289 -52 -637 267 -853 57 -39 57 -40 14 -34 -26 4 -44 2 -48 -5
-15 -24 -45 -8 -119 67 -97 98 -150 168 -193 259 -65 136 -89 283 -63 393 40
176 228 426 391 523 34 20 56 37 48 37 -58 0 -244 -157 -325 -274 -21 -31 -40
-54 -42 -52 -7 7 35 78 78 131 61 77 94 140 134 260 58 171 96 235 155 262 32
15 52 15 87 2z m387 -377 c9 -15 -25 -96 -52 -124 -32 -34 -46 -35 -77 -3 -20
19 -25 34 -25 74 l0 50 48 4 c92 7 101 7 106 -1z m-169 -99 c8 -33 45 -63 78
-63 38 0 83 48 100 109 12 39 18 47 42 49 24 3 27 1 20 -15 -4 -10 -10 -46
-13 -80 -4 -59 -3 -64 27 -94 29 -28 36 -31 78 -26 59 6 98 44 114 112 20 78
29 76 29 -8 0 -69 3 -81 25 -102 47 -47 113 -27 150 45 9 17 18 30 21 30 8 0
47 -22 60 -34 7 -6 39 -33 71 -61 92 -78 169 -190 203 -295 22 -68 33 -151 23
-165 -5 -6 -35 -21 -68 -34 -113 -42 -152 -93 -105 -136 16 -14 36 -18 86 -17
58 0 64 -1 47 -13 -10 -8 -24 -15 -31 -15 -7 0 -38 -12 -68 -26 -51 -24 -54
-27 -54 -64 0 -30 6 -41 26 -55 l26 -17 -24 -25 c-40 -43 -143 -112 -220 -147
-138 -63 -182 -71 -393 -70 -179 0 -195 1 -280 27 -180 55 -307 128 -421 242
-66 66 -159 208 -149 226 3 3 23 9 45 13 31 5 41 11 46 31 12 47 -3 71 -71
114 -73 45 -80 71 -12 41 51 -24 76 -25 105 -4 15 10 22 25 22 49 0 29 -9 42
-65 92 -36 32 -65 66 -65 75 0 10 14 39 30 65 100 158 256 265 461 317 l94 24
3 -37 c1 -20 5 -46 7 -58z m393 75 c46 -11 48 -16 31 -81 -15 -62 -42 -89 -92
-94 -33 -4 -46 -1 -60 15 -25 27 -32 87 -17 140 l11 44 42 -7 c23 -4 61 -11
85 -17z m182 -65 c61 -26 62 -27 57 -60 -10 -61 -78 -93 -119 -56 -14 12 -18
31 -18 80 0 34 4 63 9 63 5 0 37 -12 71 -27z m-1139 -390 c73 -66 79 -73 79
-92 0 -53 -30 -64 -97 -36 -58 24 -62 30 -52 78 16 76 19 87 24 87 2 0 23 -17
46 -37z m-13 -208 c50 -34 56 -43 52 -75 -4 -37 -72 -55 -88 -22 -5 9 -12 35
-16 57 -4 22 -9 48 -12 58 -8 25 5 21 64 -18z m1606 -92 c-4 -32 -13 -65 -20
-73 -20 -20 -131 -21 -144 0 -22 33 -6 54 70 92 41 20 81 37 88 38 9 0 11 -14
6 -57z m-44 -148 c0 -5 -35 -67 -56 -101 -31 -47 -96 -16 -79 37 9 27 135 87
135 64z m-1494 -281 c32 -31 69 -63 82 -71 29 -20 30 -73 3 -90 -12 -8 -21
-26 -23 -48 l-3 -35 -101 99 -101 98 35 52 c19 28 37 51 41 51 4 0 34 -25 67
-56z m-219 -55 c45 -22 193 -163 301 -287 35 -40 77 -79 94 -88 17 -9 26 -19
22 -24 -8 -7 -87 -40 -209 -87 -158 -61 -319 -168 -392 -260 -21 -27 -58 -90
-83 -141 -24 -51 -48 -92 -52 -92 -4 0 -6 6 -3 13 42 128 47 158 55 362 10
230 8 217 56 395 35 130 69 194 114 217 34 17 47 16 97 -8z m453 -31 c0 -13
-56 -68 -69 -68 -11 0 -16 82 -5 92 8 8 74 -14 74 -24z m1185 -88 c20 0 61
-44 79 -82 54 -121 82 -408 56 -578 -6 -36 -16 -103 -23 -150 -15 -97 -22 -94
-51 20 -36 143 -71 183 -222 260 -42 21 -79 52 -118 96 -62 69 -110 100 -175
110 -23 4 -41 8 -41 9 0 5 167 165 190 183 33 25 174 103 225 124 22 9 46 15
53 12 8 -2 20 -4 27 -4z m-972 -65 c67 -14 137 -25 154 -25 36 0 40 -5 19 -25
-7 -8 -22 -42 -32 -76 l-18 -61 -61 6 c-33 3 -95 2 -139 -3 -102 -12 -145 2
-219 74 -32 29 -57 56 -57 59 0 2 16 0 36 -5 28 -8 41 -7 60 5 25 17 40 56 30
82 -11 29 3 32 55 13 28 -11 105 -31 172 -44z m-282 34 c26 -26 20 -44 -16
-44 -31 0 -52 24 -42 49 9 22 33 20 58 -5z m972 -14 c4 -9 -11 -25 -43 -46
-28 -18 -50 -36 -50 -41 0 -4 -7 -8 -15 -8 -18 0 -18 4 -3 46 17 47 98 83 111
49z m-151 -1 c7 -7 -13 -74 -23 -74 -8 0 -18 68 -10 75 6 7 26 6 33 -1z m-77
-60 c0 -5 -10 -22 -21 -37 -20 -25 -27 -27 -93 -27 -68 0 -73 2 -106 34 -18
19 -32 36 -30 38 9 8 250 1 250 -8z m-198 -73 c12 -6 52 -11 88 -10 36 1 67 0
68 -2 28 -50 36 -74 29 -81 -20 -20 -123 -21 -205 -3 -45 10 -85 21 -90 25 -9
8 16 95 34 117 12 13 15 12 34 -10 11 -13 30 -30 42 -36z m271 -9 c-5 -25 -34
-38 -52 -23 -21 18 -20 39 2 43 28 6 53 -4 50 -20z m-2301 -24 c25 -24 62 -58
82 -77 57 -53 111 -86 188 -114 135 -49 206 -89 268 -152 33 -33 69 -77 79
-98 18 -34 18 -43 6 -90 -15 -61 -34 -90 -100 -154 -39 -37 -52 -59 -60 -95
-5 -27 -15 -69 -20 -94 -6 -25 -28 -68 -50 -97 -43 -57 -64 -129 -54 -183 5
-30 2 -38 -32 -71 -59 -58 -185 -174 -229 -212 -22 -19 -65 -57 -95 -85 -150
-138 -272 -196 -410 -196 -77 0 -181 33 -236 75 -42 32 -51 51 -36 76 7 10 12
35 12 54 0 43 -33 65 -70 45 -28 -15 -38 -5 -17 18 25 28 21 51 -13 70 -20 12
-30 25 -30 42 0 14 -1 117 -3 230 l-2 205 -32 62 c-44 84 -57 107 -65 113 -4
3 -15 26 -26 50 -38 90 -39 130 -2 150 18 10 93 25 275 55 44 7 89 16 100 19
18 6 20 3 20 -39 0 -48 13 -65 51 -65 32 0 44 21 61 109 9 45 19 81 22 81 4 0
15 -16 25 -35 11 -20 39 -54 63 -75 61 -57 113 -51 113 12 0 19 -15 43 -52 81
-29 30 -60 57 -68 59 -8 3 -12 9 -8 13 4 5 38 -5 74 -20 99 -42 154 -34 154
21 0 32 -30 57 -85 72 -53 14 -56 26 -17 85 15 23 29 47 32 52 21 43 68 113
84 128 29 26 52 21 103 -25z m1994 -107 c44 -17 60 -29 72 -54 14 -27 14 -34
3 -46 -12 -11 -26 -10 -92 4 -58 12 -86 14 -104 6 l-25 -10 30 0 c16 -1 64 -8
107 -18 l77 -16 -17 -30 c-53 -92 -146 -105 -320 -44 -137 48 -176 53 -247 32
-62 -18 -113 -52 -59 -39 16 4 37 11 46 15 33 17 132 9 203 -17 189 -69 268
-76 331 -28 37 27 44 23 44 -26 0 -29 -8 -43 -37 -72 -78 -73 -184 -89 -358
-53 -234 49 -311 12 -419 -203 -67 -134 -112 -177 -230 -223 -150 -58 -196
-93 -235 -179 -22 -48 -30 -167 -11 -155 6 3 10 29 10 56 0 115 73 197 228
255 122 46 193 115 260 251 46 94 75 132 133 171 46 30 61 35 109 35 30 -1
101 -13 157 -27 168 -43 272 -31 361 41 26 22 42 29 42 20 0 -8 7 -28 16 -45
25 -50 -9 -90 -126 -145 -123 -58 -230 -64 -374 -22 -80 23 -163 17 -203 -16
-26 -20 -93 -132 -93 -154 0 -20 -76 -119 -110 -144 -39 -28 -66 -39 -180 -71
-82 -24 -129 -72 -143 -145 -10 -52 8 -62 29 -16 11 22 22 41 27 41 4 0 7 -28
7 -63 0 -48 -6 -76 -25 -113 -32 -62 -32 -112 0 -172 44 -82 30 -106 -29 -49
-41 39 -59 75 -76 147 -7 30 -18 66 -25 80 -22 45 -85 316 -85 366 0 56 32
127 104 228 25 33 68 106 97 161 77 147 111 191 189 245 19 13 37 27 40 30 7
8 97 61 140 82 77 38 315 128 363 137 29 6 61 13 72 15 11 3 76 4 145 2 98 -3
137 -8 181 -25z m147 -27 c-9 -9 -21 -13 -27 -10 -20 13 -11 26 16 26 25 0 26
-1 11 -16z m177 -34 c31 -13 73 -47 119 -94 55 -58 88 -82 148 -111 103 -48
138 -90 162 -190 15 -65 34 -109 102 -234 16 -30 40 -159 31 -168 -11 -10 -15
-1 -33 68 -21 85 -68 180 -107 216 -18 16 -57 44 -87 62 l-55 32 40 -35 c22
-20 58 -51 81 -70 42 -37 57 -69 120 -251 15 -44 40 -116 55 -160 16 -44 29
-94 29 -111 0 -17 -18 -66 -40 -109 -22 -43 -40 -92 -40 -107 0 -37 -26 -98
-41 -98 -18 0 -4 134 20 198 38 97 25 155 -50 227 -45 43 -43 34 8 -33 45 -60
51 -100 24 -184 -12 -37 -24 -68 -27 -68 -3 0 -3 26 0 58 8 79 -8 118 -70 167
-49 39 -94 94 -94 115 0 10 -59 111 -70 120 -4 3 -26 32 -50 65 -51 71 -66 85
-147 131 -87 49 -197 159 -228 227 -14 29 -28 83 -31 118 l-7 64 42 -47 c22
-25 67 -61 99 -78 33 -19 93 -69 142 -119 78 -81 93 -91 178 -126 107 -44 158
-91 191 -179 18 -45 20 -47 20 -21 1 88 -81 180 -199 223 -67 24 -84 36 -160
114 -48 49 -115 104 -155 128 -88 53 -103 66 -127 113 -24 47 -17 84 20 119
53 50 115 59 187 28z m-2545 -101 c59 -22 80 -36 80 -51 0 -14 -64 -1 -122 24
-47 20 -65 48 -30 48 9 0 42 -9 72 -21z m950 -15 c0 -21 -59 -124 -71 -124
-14 0 -11 38 7 73 30 59 64 86 64 51z m-1022 -114 c50 -48 68 -90 38 -90 -27
0 -116 98 -116 127 0 25 25 13 78 -37z m4426 9 c48 -22 86 -42 84 -44 -2 -1
-20 -14 -41 -28 l-38 -26 -36 25 c-44 30 -65 30 -96 2 -24 -22 -57 -130 -57
-185 0 -29 33 -38 72 -19 34 17 84 21 92 7 3 -4 -2 -27 -11 -49 -30 -77 15
-128 92 -105 30 10 36 8 62 -19 43 -45 80 -61 153 -62 36 -1 68 -5 72 -11 4
-5 8 -25 8 -43 0 -103 141 -232 253 -232 64 0 133 28 170 69 19 21 39 47 45
57 10 17 13 17 63 -11 70 -38 136 -40 173 -6 14 13 26 33 28 44 2 11 8 22 13
24 12 4 66 -82 90 -143 16 -41 16 -42 -9 -69 l-25 -27 -37 29 c-33 25 -46 28
-108 28 -84 -1 -127 -20 -196 -87 -53 -53 -93 -123 -110 -196 -10 -45 -10 -56
5 -78 40 -61 160 -94 252 -70 102 27 159 81 213 200 47 103 67 100 45 -7 -14
-66 -70 -187 -86 -187 -5 0 -9 -6 -9 -13 0 -21 -108 -126 -173 -168 -33 -22
-92 -49 -131 -62 -63 -20 -91 -22 -251 -21 -163 0 -190 3 -290 29 -181 46
-338 138 -485 285 -83 83 -98 101 -126 151 -10 19 -22 36 -25 39 -3 3 -19 39
-35 80 -25 65 -29 88 -29 175 1 112 10 139 97 295 46 81 54 109 78 250 25 148
66 220 125 220 18 0 71 -18 119 -41z m-4592 -55 c-6 -37 -18 -74 -26 -82 -38
-39 -38 88 0 147 27 41 39 12 26 -65z m4802 8 c39 -53 84 -82 166 -106 30 -9
61 -20 69 -25 26 -17 -1 -31 -60 -31 -52 0 -59 -2 -59 -19 0 -11 14 -33 31
-50 56 -56 20 -75 -79 -42 -84 29 -111 27 -162 -11 -24 -18 -51 -39 -61 -47
-24 -17 -49 -8 -49 18 0 11 10 41 22 66 27 55 20 65 -49 72 -46 5 -73 17 -73
32 0 7 85 48 149 72 23 8 44 29 68 66 18 29 38 53 43 53 6 0 25 -22 44 -48z
m-256 -49 c2 -7 -8 -17 -22 -23 -14 -5 -34 -18 -46 -30 -21 -21 -27 -74 -10
-85 16 -10 12 -22 -11 -28 -28 -8 -33 11 -19 80 17 81 33 105 72 101 17 -2 33
-9 36 -15z m-1893 -180 c46 -43 105 -89 132 -103 26 -13 66 -42 88 -65 36 -35
50 -53 90 -113 6 -8 20 -26 32 -39 12 -14 27 -41 34 -61 15 -46 45 -89 83
-122 87 -72 80 -61 88 -162 4 -51 10 -114 14 -140 4 -31 3 -53 -5 -61 -6 -8
-11 -32 -10 -53 1 -42 -58 -197 -106 -280 -66 -112 -186 -210 -335 -271 -247
-103 -458 -135 -620 -94 -111 29 -323 106 -380 140 -24 14 -65 35 -90 46 -82
37 -186 103 -222 143 -39 44 -56 76 -87 167 -25 70 -25 75 -8 75 8 0 22 9 33
21 24 26 22 86 -5 130 -28 45 -26 85 4 151 21 46 25 69 23 137 -1 97 4 104 85
128 58 16 81 13 59 -9 -15 -15 -15 -38 0 -38 7 0 41 20 78 44 36 24 92 52 125
62 74 22 188 22 269 0 48 -13 64 -13 85 -3 36 17 41 74 10 103 -19 17 -36 19
-153 19 -99 0 -142 -4 -176 -17 -24 -9 -45 -16 -47 -15 -1 2 8 23 20 48 12 25
35 73 50 106 31 64 66 93 112 93 15 0 69 -11 121 -25 116 -31 199 -32 284 -4
95 31 182 76 210 109 14 15 27 29 28 29 2 1 41 -34 87 -76z m2564 18 c89 -24
181 -60 181 -72 0 -5 5 -9 12 -9 16 0 116 -77 156 -120 63 -68 92 -156 60
-188 -29 -29 -148 4 -188 53 -20 24 -30 18 -50 -27 -37 -84 -94 -122 -180
-122 -73 0 -131 37 -200 127 -8 10 -16 51 -19 90 -7 80 -5 78 -89 61 -68 -13
-172 39 -172 87 0 9 13 22 30 29 25 10 39 9 92 -9 74 -25 116 -27 146 -5 23
16 29 57 12 84 -7 11 -1 17 23 26 48 17 104 16 186 -5z m-1839 -16 c0 -8 5
-15 10 -15 6 0 10 -9 10 -20 0 -35 27 -75 70 -105 71 -49 77 -74 54 -217 -5
-31 -1 -46 25 -85 34 -51 37 -64 20 -95 -15 -27 -14 -82 1 -118 10 -25 9 -37
-4 -72 -13 -32 -16 -56 -10 -105 6 -63 6 -65 -26 -98 -26 -27 -32 -41 -32 -75
1 -37 -1 -40 -16 -28 -9 7 -20 18 -24 23 -11 14 -10 63 1 70 15 9 41 66 41 89
0 12 -9 32 -20 46 -27 35 -25 55 16 138 41 86 40 110 -10 168 -44 52 -49 72
-36 144 10 56 9 66 -10 106 -12 24 -25 44 -30 44 -5 0 -20 23 -34 52 -31 61
-38 168 -11 168 8 0 15 -7 15 -15z m2478 -101 c30 -21 29 -66 -8 -194 -29 -99
-50 -145 -50 -108 0 9 -6 18 -12 20 -9 3 -5 24 15 74 15 38 27 82 27 96 0 49
-58 61 -145 31 -48 -16 -49 -16 -67 7 -10 13 -17 25 -15 27 11 10 176 62 202
62 17 1 41 -6 53 -15z m-50 -119 c1 -16 -8 -52 -21 -79 l-23 -49 -37 51 c-20
29 -41 52 -46 52 -5 0 -12 7 -15 16 -8 21 48 44 99 41 37 -2 40 -5 43 -32z
m-2383 -35 c12 -23 14 -48 9 -115 l-7 -85 37 -47 c52 -67 54 -84 17 -152 -35
-66 -42 -139 -16 -161 22 -18 18 -52 -10 -101 -30 -53 -32 -99 -5 -124 36 -33
6 -38 -62 -10 -26 10 -31 39 -13 82 9 21 19 66 22 101 5 56 3 67 -17 94 l-23
32 37 69 c36 64 38 73 33 130 -3 34 -13 87 -21 117 -18 61 -22 215 -6 205 6
-3 17 -19 25 -35z m-1345 -23 c27 -9 36 -18 38 -39 4 -37 -26 -44 -103 -23
-112 29 -242 16 -345 -34 l-45 -22 35 31 c72 63 181 99 305 99 44 0 96 -5 115
-12z m-950 -281 c13 -64 14 -59 -21 -80 -37 -22 -68 -86 -69 -141 0 -51 25
-148 50 -198 11 -21 20 -44 20 -53 0 -8 16 -47 35 -87 20 -41 35 -87 35 -108
0 -22 -14 -62 -35 -102 -39 -73 -42 -107 -20 -181 33 -109 19 -141 -91 -196
-46 -23 -95 -55 -108 -71 -14 -16 -28 -29 -31 -29 -9 0 5 128 17 159 5 13 29
51 53 84 40 52 45 65 45 110 0 33 -9 70 -23 102 -39 83 -40 98 -10 172 37 91
37 146 -1 204 -37 55 -43 112 -22 213 9 43 16 122 16 175 0 108 15 151 70 215
l34 38 23 -89 c12 -48 27 -110 33 -137z m4566 -14 c12 -9 32 -37 45 -61 19
-38 20 -48 9 -85 -27 -95 -90 -169 -174 -204 -26 -11 -23 -6 21 33 71 63 94
103 96 169 1 61 -17 97 -66 126 -37 23 -67 24 -119 6 -27 -10 -35 -10 -32 -1
5 12 55 31 104 39 39 6 91 -4 116 -22z m98 -31 c-16 -15 -16 -15 -9 4 4 11 10
29 13 40 6 18 7 18 10 -4 2 -13 -4 -31 -14 -40z m-185 -2 c57 -20 77 -98 45
-178 -14 -35 -19 -39 -47 -39 -18 1 -45 -4 -62 -10 -16 -6 -49 -16 -72 -22
-26 -6 -43 -17 -43 -25 0 -23 -25 -18 -38 8 -22 44 -23 68 -7 117 18 54 32 64
37 28 2 -18 10 -24 39 -26 30 -3 41 2 58 24 28 36 28 80 -1 95 l-23 12 30 13
c38 16 45 17 84 3z m-4832 -66 c-9 -26 -17 -58 -19 -70 -3 -20 -4 -20 -38 8
l-35 30 49 45 c26 25 51 43 53 40 3 -3 -2 -26 -10 -53z m5043 38 c0 -5 -7 -11
-15 -15 -15 -5 -20 5 -8 17 9 10 23 9 23 -2z m-300 -38 c0 -25 -34 -73 -51
-73 -10 0 -39 29 -39 39 0 21 44 61 66 61 19 0 24 -5 24 -27z m-4351 -20 c6
-16 18 -55 26 -87 9 -33 27 -80 40 -105 26 -50 65 -146 65 -161 0 -18 -72 -10
-106 11 -66 40 -125 213 -102 297 9 33 40 72 57 72 5 0 14 -12 20 -27z m2798
-10 c10 -25 -15 -152 -37 -196 -25 -47 -25 -57 0 -57 23 0 42 38 65 130 19 76
29 90 50 69 11 -11 13 -26 6 -68 -5 -29 -12 -56 -17 -60 -5 -3 -22 -32 -38
-64 -20 -41 -26 -61 -18 -69 10 -10 46 32 85 102 22 40 43 34 39 -11 -2 -27
-50 -120 -72 -139 -9 -8 -94 -122 -114 -153 -33 -53 -54 -67 -99 -67 -30 0
-56 9 -88 28 -73 47 -97 91 -74 136 8 15 19 70 24 122 10 96 28 144 56 144 24
0 28 -20 10 -66 -25 -66 -1 -90 34 -33 18 29 32 91 46 202 6 42 9 47 31 47 24
0 24 -1 18 -57 -4 -32 -15 -78 -25 -102 -20 -45 -18 -61 6 -61 20 0 43 58 55
139 6 36 13 74 16 84 7 22 33 22 41 0z m-3184 -161 c15 -35 27 -77 27 -94 0
-37 -20 -98 -32 -98 -5 0 -59 50 -121 110 l-112 110 65 60 65 59 41 -42 c23
-23 53 -70 67 -105z m-1118 108 c9 -15 -35 -28 -119 -36 -52 -5 -76 -3 -76 4
0 18 19 24 99 32 42 4 79 8 83 9 4 0 10 -4 13 -9z m5687 -35 c-3 -27 2 -56 12
-76 9 -18 14 -35 11 -37 -10 -11 -55 42 -55 65 0 21 25 93 32 93 2 0 2 -20 0
-45z m-1997 -72 c-15 -101 -53 -191 -96 -227 -32 -27 -75 -36 -67 -13 3 6 18
50 34 96 21 60 35 86 50 91 22 9 55 50 67 83 12 33 19 16 12 -30z m-3616 14
c14 -18 -3 -37 -87 -100 -69 -51 -95 -59 -90 -27 2 14 132 124 164 139 1 1 7
-5 13 -12z m5871 4 c0 -22 -72 -64 -116 -69 -43 -5 -46 -4 -42 19 2 19 10 24
43 27 22 2 51 10 65 17 30 17 50 19 50 6z m-4960 -123 c60 -61 110 -114 110
-118 0 -4 -20 -25 -44 -48 l-45 -42 -130 106 c-118 95 -146 123 -123 124 4 0
29 21 55 45 27 25 52 45 58 45 5 0 58 -50 119 -112z m-250 -23 c7 -8 18 -15
25 -15 8 0 15 -4 17 -8 2 -5 47 -43 100 -85 53 -42 99 -81 102 -86 10 -15 -51
-53 -92 -58 -26 -3 -47 2 -68 15 -27 17 -32 27 -37 77 -5 47 -12 64 -38 91
-22 23 -42 34 -61 34 -34 0 -38 -27 -5 -39 51 -20 72 -78 55 -155 -15 -67 -58
-106 -117 -106 -71 0 -113 46 -119 130 -4 72 19 118 68 134 19 7 60 28 90 48
64 43 64 43 80 23z m3856 -56 c41 -38 90 -77 109 -85 44 -18 113 -18 158 1 48
20 66 19 107 -7 l35 -22 -52 -7 c-58 -7 -124 -36 -166 -73 -19 -17 -46 -26
-87 -31 -61 -7 -81 -4 -142 22 -34 15 -38 20 -38 54 0 26 -6 41 -17 48 -15 8
-16 13 -5 31 24 39 -17 76 -57 51 -9 -6 -11 -18 -6 -40 5 -24 3 -31 -9 -31
-27 0 -19 54 15 109 44 71 62 68 155 -20z m-111 -45 c0 -10 -8 -20 -18 -22
-22 -4 -35 27 -16 39 20 12 34 5 34 -17z m-765 -1 c16 -11 51 -18 109 -21 95
-5 113 -12 89 -39 -9 -10 -28 -43 -43 -73 -34 -67 -97 -152 -197 -263 l-26
-29 -16 30 c-20 38 -20 69 -1 102 8 14 14 41 15 62 0 32 -7 42 -60 88 -33 29
-60 55 -60 59 0 4 18 13 39 20 23 6 51 26 68 45 32 39 48 43 83 19z m-2590
-68 c0 -8 5 -24 12 -35 10 -16 9 -23 -12 -45 -29 -31 -70 -33 -88 -4 -12 19
-10 25 24 60 40 41 64 50 64 24z m3250 5 c0 -16 77 -87 125 -114 23 -14 72
-31 110 -38 l68 -14 -36 -21 c-54 -32 -166 -70 -229 -78 -59 -7 -164 10 -175
29 -11 16 -3 89 11 101 6 5 32 40 56 78 40 60 70 85 70 57z m118 -29 c2 -13
-2 -21 -11 -21 -19 0 -51 36 -43 49 11 16 51 -4 54 -28z m-4350 7 c16 -16 15
-53 -3 -68 -22 -18 -48 -8 -59 23 -8 22 -6 30 10 42 23 18 36 19 52 3z m3374
-33 c11 -14 34 -33 51 -42 58 -30 70 -69 43 -143 -11 -29 -11 -43 1 -83 11
-39 12 -52 2 -63 -23 -28 -65 -43 -150 -54 -137 -17 -129 -20 -129 50 0 68 14
89 75 114 45 19 57 51 45 117 -9 44 -7 55 13 90 12 21 24 39 26 39 2 0 12 -11
23 -25z m488 -58 c40 -34 94 -58 140 -61 27 -1 36 -7 38 -23 3 -17 -38 -114
-101 -242 -21 -43 -131 -144 -201 -186 -37 -22 -117 -73 -178 -114 -133 -88
-179 -114 -249 -141 -188 -75 -342 -179 -385 -262 -20 -39 -44 -145 -44 -198
0 -25 -3 -55 -6 -67 -6 -22 -8 -21 -66 18 -189 129 -268 289 -267 539 0 123
12 126 24 8 8 -76 18 -94 55 -103 33 -8 80 27 80 59 0 13 -11 35 -25 49 -18
17 -27 40 -31 73 l-6 49 74 70 c60 58 87 75 148 98 132 48 182 57 333 57 154
0 224 13 279 51 83 57 245 253 296 356 l26 52 16 -27 c10 -15 32 -40 50 -55z
m1079 62 c20 -7 40 -26 56 -54 25 -42 25 -42 74 -37 43 4 53 1 76 -22 22 -22
25 -31 19 -63 -20 -113 -186 -336 -309 -418 -75 -50 -173 -94 -240 -106 -80
-15 -202 -3 -294 27 -123 41 -283 158 -327 239 l-18 34 42 85 c23 47 43 86 44
86 2 0 25 -7 52 -15 154 -47 370 21 526 164 47 43 87 69 130 82 38 11 133 10
169 -2z m171 -30 c30 -6 64 -12 75 -15 13 -2 31 -26 52 -71 64 -135 109 -163
264 -163 124 0 170 -14 194 -61 17 -32 14 -59 -6 -59 -6 0 -9 6 -6 14 8 21
-17 50 -37 43 -9 -4 -16 -14 -16 -22 0 -12 -6 -15 -20 -10 -26 8 -79 -24 -87
-53 -4 -17 2 -29 23 -47 l29 -25 -55 1 c-107 1 -246 77 -310 170 -26 38 -31
54 -26 76 27 106 19 153 -30 184 -27 17 -45 20 -80 16 -36 -4 -46 -1 -54 14
-15 27 -12 32 13 25 12 -3 47 -11 77 -17z m-1816 -65 c12 -30 6 -93 -10 -108
-8 -9 -24 -16 -35 -16 -11 0 -31 -11 -44 -25 -21 -20 -25 -34 -25 -84 0 -67
-1 -68 -86 -70 -43 -1 -116 -15 -186 -37 -12 -4 -25 7 -43 36 -15 23 -25 43
-23 44 2 1 26 11 53 21 86 31 177 75 234 113 56 37 141 118 141 133 0 15 18
10 24 -7z m-3526 -16 c18 -18 14 -56 -7 -68 -25 -13 -46 -5 -59 25 -9 19 -8
28 4 40 18 18 46 19 62 3z m2022 -76 c19 -9 37 -19 40 -22 3 -3 39 -21 80 -40
41 -19 77 -38 78 -42 2 -5 9 -8 17 -8 27 0 126 -51 122 -63 -2 -6 -24 -17 -49
-23 -62 -16 -84 -29 -145 -87 -34 -32 -53 -58 -53 -72 0 -17 -14 -31 -55 -54
-38 -22 -72 -53 -112 -106 -32 -41 -61 -74 -65 -75 -19 -1 -7 77 17 112 115
169 124 259 38 359 -17 19 -38 48 -47 66 -16 31 -22 113 -10 126 4 3 29 -8 58
-24 28 -17 67 -38 86 -47z m-1568 31 c14 -16 41 -53 59 -83 18 -30 44 -70 58
-89 22 -29 23 -33 7 -30 -11 2 -36 28 -56 58 -41 60 -62 75 -89 66 -20 -6 -41
-45 -41 -75 0 -13 -5 -17 -19 -13 -11 3 -28 -4 -40 -16 -26 -26 -56 -28 -46
-4 3 10 11 40 17 67 12 56 55 133 78 140 34 9 47 5 72 -21z m47 -148 c22 -31
41 -58 41 -60 0 -11 -107 -4 -118 7 -23 23 -6 108 21 108 8 0 33 -25 56 -55z
m5404 -60 c8 -18 -11 -31 -25 -17 -11 11 -3 32 12 32 4 0 10 -7 13 -15z
m-5533 -21 c0 -20 4 -24 19 -19 24 7 37 -11 20 -31 -23 -27 -53 -13 -60 28 -3
21 -4 40 -1 43 12 12 22 3 22 -21z m2128 -3 c77 -25 215 -44 253 -36 16 4 33
4 38 1 5 -4 -3 -38 -19 -79 -27 -72 -27 -72 -73 -81 -27 -5 -85 -5 -144 0
l-98 9 -7 70 c-4 39 -11 85 -17 103 -11 38 -11 38 67 13z m527 -3 c15 -7 33
-24 40 -38 13 -25 12 -26 -40 -54 -30 -15 -77 -52 -105 -82 -56 -59 -61 -61
-80 -39 -7 8 -21 15 -32 15 -16 0 -18 4 -12 23 4 12 13 43 19 68 20 74 28 82
97 100 81 21 82 21 113 7z m-2708 -11 c3 -4 0 -14 -7 -22 -11 -13 -10 -19 8
-36 36 -33 24 -59 -15 -33 -23 14 -25 14 -30 -5 -3 -12 -14 -21 -24 -21 -14 0
-19 7 -19 30 0 17 5 30 11 30 7 0 9 10 5 25 -4 14 -4 30 -1 34 5 10 62 8 72
-2z m5536 -27 c15 -40 15 -40 -10 -46 -29 -8 -73 13 -73 34 0 21 30 52 50 52
11 0 23 -15 33 -40z m-3454 -38 c12 -58 -3 -330 -20 -367 -6 -13 -7 12 -3 72
5 84 4 93 -15 112 -27 27 -35 26 -61 -1 l-21 -23 -26 33 c-14 18 -43 44 -64
58 -22 13 -39 28 -39 33 0 22 106 112 144 122 23 6 50 15 61 19 26 10 31 4 44
-58z m3491 36 l-1 -33 -14 25 c-18 32 -18 40 0 40 10 0 15 -10 15 -32z m-5135
-20 c187 -96 258 -275 195 -492 -36 -121 -237 -335 -387 -410 -89 -45 -192
-61 -293 -47 -78 10 -129 36 -203 101 -80 71 -103 114 -127 236 -23 120 -45
172 -96 230 -43 49 -94 149 -94 184 0 38 34 77 78 90 20 5 79 10 131 10 105 0
131 -12 131 -60 0 -14 5 -31 12 -38 15 -15 60 -16 75 -1 5 5 25 18 44 27 23
12 36 27 41 50 8 30 20 37 55 33 20 -3 53 18 53 34 0 7 10 17 23 21 32 9 57
34 57 57 0 18 6 19 118 15 111 -4 121 -6 187 -40z m5165 28 c0 -8 -4 -18 -10
-21 -5 -3 -10 3 -10 14 0 12 5 21 10 21 6 0 10 -6 10 -14z m-5728 -90 c0 -26
5 -37 20 -41 28 -10 16 -30 -18 -30 -19 -1 -30 -6 -32 -18 -2 -9 -10 -17 -19
-17 -11 0 -13 7 -8 31 6 26 4 31 -15 36 -28 7 -22 37 8 41 14 2 27 14 33 29
13 35 31 17 31 -31z m1968 -96 c10 -6 44 -35 74 -66 53 -52 56 -58 56 -105 0
-28 -7 -63 -16 -80 -27 -52 3 -98 64 -99 33 0 33 0 26 -37 -17 -96 -61 -184
-134 -268 -23 -27 -47 -59 -53 -72 -23 -50 -34 -24 -40 97 -4 83 -36 170 -61
170 -20 0 -20 -12 -1 -74 26 -86 21 -105 -39 -164 l-54 -52 -67 30 c-78 35
-75 34 -75 15 0 -8 32 -33 70 -55 39 -23 79 -50 89 -62 27 -28 109 -197 111
-228 4 -52 1 -56 -52 -69 -80 -18 -133 -53 -158 -106 -12 -25 -25 -45 -28 -45
-24 1 -60 87 -92 215 -10 39 -32 108 -50 155 -47 125 -54 163 -41 217 16 60
42 111 98 186 53 72 98 164 107 223 14 82 127 232 200 264 51 23 44 22 66 10z
m1861 -11 c-2 -8 -5 -43 -8 -79 -6 -97 -8 -100 -76 -172 -64 -66 -64 -67 -71
-138 -9 -88 -27 -110 -90 -110 -59 0 -79 -20 -74 -76 1 -23 0 -40 -4 -37 -5 2
-8 12 -8 22 0 9 -16 43 -35 75 -19 32 -35 68 -35 80 0 28 29 55 97 91 61 32
73 58 73 150 0 78 16 100 107 148 37 20 77 43 88 51 23 18 42 15 36 -5z
m-1301 -11 c11 -14 -2 -87 -17 -92 -8 -3 -45 -9 -83 -12 l-68 -7 -21 41 c-20
39 -44 56 -72 50 -7 -2 -14 5 -16 14 -4 15 10 16 134 15 76 -1 140 -5 143 -9z
m119 -38 c14 -64 14 -97 0 -105 -15 -10 -20 -2 -31 47 -22 99 -22 108 0 108
16 0 22 -10 31 -50z m-491 -79 c3 -75 1 -82 -15 -79 -14 3 -19 15 -21 63 -4
70 4 108 21 102 8 -2 13 -33 15 -86z m156 51 c31 -59 48 -66 133 -54 43 6 81
8 85 6 11 -7 10 -86 -1 -103 -7 -11 -43 -16 -150 -19 l-141 -5 0 91 c0 76 3
93 18 101 28 17 41 13 56 -17z m1870 -67 c22 -22 59 -107 100 -227 l37 -108
-36 -51 c-35 -51 -38 -66 -35 -145 1 -23 -4 -70 -9 -105 -6 -35 -14 -79 -17
-96 -3 -19 -1 -33 5 -33 6 0 50 38 98 85 55 53 114 98 156 120 72 39 105 67
133 114 10 16 29 31 43 34 14 3 64 34 111 70 83 62 122 87 136 87 12 0 -6
-171 -28 -264 -18 -80 -19 -97 -8 -151 18 -92 18 -100 -5 -98 -24 2 -100 -18
-174 -46 -91 -34 -92 -48 -9 -71 36 -9 59 -25 100 -69 104 -112 102 -107 109
-204 8 -110 47 -197 114 -253 25 -20 45 -43 45 -51 0 -16 -31 -29 -93 -38 -28
-4 -61 -19 -82 -35 -28 -23 -50 -30 -103 -34 -122 -11 -227 -25 -245 -31 -13
-6 -21 1 -33 31 -32 78 -48 109 -64 121 -23 19 -78 16 -97 -5 -34 -35 -63 -72
-63 -80 0 -4 -9 -13 -20 -20 -32 -20 -122 10 -205 68 -39 27 -113 71 -165 98
-52 27 -115 60 -140 73 -48 26 -156 131 -219 214 -26 34 -40 65 -45 95 -3 25
-8 55 -12 66 -5 19 4 27 65 59 42 22 92 60 123 92 67 70 67 69 108 123 52 68
71 82 100 75 79 -20 83 -19 77 6 -22 77 -20 96 9 121 81 68 112 106 133 163
32 85 51 161 57 230 9 91 16 102 48 70z m-614 -72 c-3 -38 -9 -73 -13 -80 -4
-6 -28 -23 -55 -38 -103 -60 -116 -99 -62 -186 37 -61 44 -88 35 -144 -5 -40
-13 -50 -60 -85 -33 -25 -64 -58 -81 -89 -30 -57 -34 -59 -126 -75 l-68 -12 0
43 c0 24 -9 60 -20 80 -42 79 -17 135 87 191 106 56 123 87 123 224 0 105 9
123 72 151 29 13 76 38 103 55 28 17 55 32 60 32 6 0 8 -25 5 -67z m-861 25
c16 -43 -16 -70 -63 -52 -19 7 -21 45 -4 62 20 20 58 14 67 -10z m-539 -52
c28 -35 -11 -93 -47 -70 -36 22 -23 84 17 84 10 0 23 -7 30 -14z m372 -47 c3
-33 0 -43 -13 -46 -10 -3 -27 -26 -38 -53 -11 -26 -27 -50 -35 -53 -8 -3 -67
-1 -131 6 l-116 11 7 55 c14 112 6 105 125 103 57 -1 120 2 139 7 56 14 58 13
62 -30z m768 -57 c-10 -96 -28 -115 -127 -137 -69 -16 -79 -21 -144 -82 -52
-50 -69 -61 -69 -46 0 43 32 121 65 160 34 40 162 133 183 133 6 0 12 4 14 8
3 7 80 42 85 38 1 0 -2 -34 -7 -74z m-750 -44 c6 -18 25 -64 42 -103 16 -38
32 -75 35 -82 7 -17 -94 -27 -206 -20 -220 14 -281 20 -281 29 0 5 9 26 20 48
11 22 20 46 20 55 0 12 13 15 63 14 34 0 89 -4 122 -9 85 -11 110 3 135 73 13
36 35 34 50 -5z m735 -132 c-9 -13 -53 -45 -98 -70 -101 -57 -132 -97 -124
-157 3 -23 10 -45 15 -48 5 -3 16 -25 23 -49 10 -34 10 -53 0 -94 -16 -71 -59
-156 -82 -163 -10 -4 -26 -13 -34 -21 -8 -9 -19 -13 -23 -10 -5 3 -17 47 -26
99 -19 101 -18 173 7 295 14 71 17 74 90 146 68 68 80 75 133 85 33 6 75 19
94 29 33 16 35 16 38 0 2 -9 -4 -28 -13 -42z m1160 -17 c38 -10 87 -19 107
-19 31 0 36 -3 31 -17 -11 -33 -58 -74 -123 -109 -36 -19 -98 -65 -138 -103
-40 -37 -75 -65 -77 -61 -3 5 0 31 5 60 6 29 10 85 10 124 0 73 7 92 53 143
16 18 23 20 41 11 11 -6 52 -19 91 -29z m-3705 -69 c0 -26 -55 -60 -97 -60
-28 0 -33 4 -33 24 0 18 9 27 38 39 56 23 92 22 92 -3z m1755 -4 l160 -1 34
-39 c20 -21 61 -56 93 -77 32 -22 58 -44 58 -48 0 -14 -94 -20 -340 -23 l-224
-3 -16 45 c-15 44 -16 45 -70 52 -30 3 -67 9 -83 13 -24 7 -29 4 -42 -29 -16
-38 -36 -53 -55 -41 -10 6 18 51 75 120 13 17 28 35 33 40 6 7 42 8 113 1 57
-5 176 -10 264 -10z m-2687 -68 c46 -51 142 -114 196 -129 36 -10 38 -12 21
-22 -31 -17 -137 -13 -191 7 -95 36 -150 120 -109 166 26 29 41 25 83 -22z
m764 17 c-3 -18 0 -25 12 -25 9 0 16 -7 16 -15 0 -8 -8 -15 -19 -15 -11 0 -21
-9 -25 -22 -4 -18 -8 -20 -18 -10 -9 9 -9 15 0 24 9 9 8 16 -5 30 -15 17 -15
20 3 38 27 27 42 25 36 -5z m3322 -17 c3 -13 6 -26 6 -30 0 -11 -32 -10 -50 2
-12 7 -12 12 4 29 24 27 32 26 40 -1z m-1985 -55 c16 -43 27 -193 14 -193 -4
1 -21 29 -38 63 -16 34 -35 66 -42 70 -21 13 -15 42 13 71 15 14 30 26 33 26
3 0 12 -17 20 -37z m-1409 6 c0 -31 18 -59 39 -59 9 0 27 12 40 26 l22 25 37
-22 c20 -13 46 -29 57 -36 19 -13 19 -13 -3 -13 -22 0 -26 -8 -23 -42 3 -24
-18 -32 -38 -14 -25 22 -40 20 -53 -9 -13 -29 -29 -31 -61 -10 -19 12 -29 13
-55 3 -49 -19 -59 0 -28 47 14 21 26 47 26 59 0 37 12 66 26 66 8 0 14 -9 14
-21z m1681 8 l46 1 17 -48 c11 -29 25 -50 36 -53 23 -6 513 11 557 19 28 5 33
3 38 -18 4 -14 5 -42 3 -63 -3 -38 -4 -39 -58 -52 -30 -7 -98 -15 -150 -19
-106 -6 -642 11 -678 22 -21 6 -23 11 -20 78 3 63 5 71 22 68 38 -7 66 8 81
44 13 31 18 35 37 28 13 -4 44 -7 69 -7z m-1761 -44 c0 -12 -38 -72 -60 -95
-28 -30 -72 -58 -92 -58 -50 0 13 105 81 137 49 23 71 28 71 16z m-196 -61 c2
-4 -5 -36 -17 -70 -25 -71 -39 -76 -116 -42 l-43 20 18 28 c10 15 24 33 32 41
22 23 115 40 126 23z m552 -27 c16 -8 36 -15 44 -15 19 0 60 -28 60 -41 0 -5
-12 -14 -26 -19 -21 -9 -30 -6 -57 20 -18 16 -37 30 -43 30 -14 0 -26 25 -17
34 8 8 6 8 39 -9z m-1211 -15 c4 -6 -3 -29 -14 -51 -26 -49 -26 -52 -2 -39 13
7 22 7 26 0 3 -5 15 -10 26 -10 11 0 22 -7 25 -15 11 -28 -23 -61 -85 -84 -33
-12 -67 -28 -75 -36 -8 -8 -22 -15 -30 -15 -26 0 -18 40 14 70 37 35 39 53 5
44 -28 -7 -40 -8 -72 -6 -20 2 -14 10 40 65 34 35 71 69 82 75 25 14 52 15 60
2z m463 -19 c-9 -15 -16 -16 -49 -7 -51 13 -49 24 4 28 53 4 59 1 45 -21z
m741 -23 c39 -32 51 -48 51 -70 0 -25 -3 -28 -34 -28 -32 0 -37 5 -65 56 -27
50 -32 84 -11 84 4 0 30 -19 59 -42z m-913 7 c40 -8 105 -26 145 -41 41 -14
93 -33 117 -42 29 -10 40 -18 33 -25 -7 -7 -39 0 -98 21 -152 54 -210 65 -335
66 -113 1 -133 5 -105 23 37 23 116 22 243 -2z m665 -114 c-2 -59 -7 -80 -22
-96 -19 -19 -19 -19 -40 2 -21 20 -21 22 -6 98 19 92 32 112 55 88 13 -12 16
-32 13 -92z m179 62 c40 -62 45 -82 27 -100 -11 -12 -22 -13 -43 -6 -23 8 -30
18 -36 49 -5 21 -11 54 -14 72 -6 28 -4 32 15 32 15 0 31 -15 51 -47z m-251
21 c2 -1 -4 -24 -13 -50 -9 -26 -16 -62 -16 -79 0 -40 -39 -67 -66 -44 -20 16
-15 95 10 152 16 36 19 38 49 32 18 -4 34 -9 36 -11z m170 -41 c14 -72 14
-106 -1 -121 -17 -17 -35 -15 -58 8 -30 30 -28 121 2 150 34 31 44 25 57 -37z
m-279 25 c0 -14 -28 -103 -39 -127 -23 -47 -59 0 -41 54 17 51 80 108 80 73z
m2555 -84 c8 -43 12 -81 9 -84 -4 -3 -23 14 -43 38 -34 39 -71 56 -71 32 0
-16 -36 -12 -50 6 -8 8 -25 14 -39 12 -22 -3 -27 -10 -33 -47 -4 -24 -10 -47
-14 -50 -9 -9 -596 -9 -622 0 -12 5 -33 19 -47 31 -22 21 -23 28 -18 86 5 59
7 63 27 57 12 -4 158 -10 326 -15 290 -8 442 -3 515 19 17 4 34 5 38 1 5 -4
15 -43 22 -86z m1989 80 c10 -25 7 -224 -3 -224 -5 0 -25 21 -44 48 -47 63
-73 86 -130 115 l-49 24 69 26 c79 30 148 35 157 11z m-4634 -18 c0 -7 -7 -30
-16 -51 -14 -33 -17 -36 -30 -23 -13 13 -13 19 2 51 17 36 44 50 44 23z m-84
-98 c24 -25 -49 -92 -98 -90 -55 1 -90 59 -69 114 l10 25 75 -21 c42 -12 78
-25 82 -28z m2571 10 c20 -19 26 -20 50 -9 26 12 30 10 58 -23 16 -20 38 -36
48 -36 19 0 37 -36 37 -74 0 -20 -11 -27 -82 -51 -81 -27 -91 -28 -359 -33
-152 -2 -289 -2 -303 2 -14 3 -32 19 -41 36 -9 17 -29 43 -46 59 l-29 29 102
6 c57 3 188 5 292 5 212 -1 209 -2 221 72 8 44 19 48 52 17z m-3347 0 c0 -7
-5 -20 -10 -28 -7 -12 -12 -12 -21 -3 -9 9 -9 16 1 28 15 18 30 20 30 3z
m2617 -99 c29 -23 67 -58 85 -78 27 -30 29 -36 14 -39 -9 -2 -41 15 -70 37
-29 23 -58 41 -64 41 -26 0 -10 -30 35 -66 76 -62 117 -104 109 -111 -9 -10
-88 30 -129 66 -37 33 -67 40 -67 17 0 -15 77 -79 130 -109 33 -18 36 -44 4
-39 -19 4 -95 54 -128 84 -34 31 -78 21 -48 -11 80 -83 105 -121 93 -140 -7
-10 -14 -10 -35 4 -14 10 -26 21 -26 25 0 5 -41 54 -91 110 -77 85 -90 105
-85 126 10 38 50 67 134 95 42 14 79 27 81 28 2 0 28 -18 58 -40z m-1437 21
c12 -8 9 -10 -12 -10 -16 0 -28 5 -28 10 0 13 20 13 40 0z m-132 -27 c-3 -30
-23 -41 -31 -18 -9 21 2 45 20 45 10 0 13 -9 11 -27z m203 -63 c19 -15 44 -46
57 -68 l23 -41 -41 -26 -41 -26 -30 26 c-17 14 -36 25 -43 25 -20 0 -48 -36
-55 -72 -6 -27 -16 -37 -55 -56 -27 -13 -50 -21 -52 -19 -5 5 11 54 44 137 62
157 112 187 193 120z m2293 -215 c9 -32 12 -63 8 -67 -8 -8 -76 25 -115 57
-32 26 -67 84 -67 111 0 18 12 24 73 41 l72 19 7 -50 c4 -28 14 -78 22 -111z
m-1527 137 c18 -11 31 -53 49 -160 35 -201 -2 -589 -94 -1001 -2 -13 -13 -26
-23 -28 -14 -4 -17 -12 -13 -32 4 -18 0 -33 -10 -44 -9 -8 -16 -23 -16 -31 0
-9 -17 -34 -37 -57 -39 -44 -53 -46 -119 -19 -44 19 -64 8 -64 -33 0 -57 -15
-62 -184 -62 -169 0 -224 11 -347 68 -105 49 -193 117 -234 181 -75 118 -109
290 -86 436 12 73 50 205 76 265 22 52 43 118 65 214 l22 92 51 24 c28 14 52
23 54 21 3 -2 -7 -42 -22 -89 -37 -124 -31 -131 107 -121 62 5 96 12 111 24
20 17 21 21 8 71 -7 30 -16 63 -21 74 -14 33 -30 87 -30 101 0 11 62 54 79 54
13 0 70 -138 96 -233 17 -63 31 -74 108 -84 38 -6 40 -4 120 83 224 243 311
313 354 286z m772 -21 c22 -14 -12 -100 -57 -143 -31 -29 -104 -78 -117 -78
-4 0 6 72 10 78 1 1 13 -1 26 -6 32 -12 66 1 75 30 4 13 16 29 26 37 20 13 20
33 3 74 -8 19 10 23 34 8z m271 -116 c4 -95 -5 -253 -15 -264 -2 -1 -18 4 -35
13 -18 8 -48 18 -69 21 -36 6 -36 6 -14 -12 11 -10 37 -30 55 -45 l35 -26 8
-114 c9 -127 10 -203 5 -328 -2 -47 -3 -218 -2 -380 2 -316 15 -455 53 -559
12 -31 21 -67 22 -81 l2 -25 -120 2 c-66 2 -158 4 -205 6 l-85 4 2 49 c12 332
11 420 -8 489 -10 39 -23 115 -27 170 -13 136 -38 287 -72 425 -15 63 -31 153
-34 200 -4 47 -13 103 -21 125 -15 42 -20 162 -7 181 4 6 27 15 52 19 103 17
192 91 225 190 l19 56 116 -3 115 -3 5 -110z m100 58 c0 -70 -14 -123 -39
-152 -35 -40 -41 -27 -41 94 l0 115 40 0 40 0 0 -57z m194 22 c10 -51 101
-140 163 -158 42 -12 47 -17 59 -58 7 -24 18 -53 24 -64 20 -40 60 -156 60
-175 0 -12 -15 -29 -37 -44 -68 -44 -72 -53 -124 -298 -13 -62 -14 -63 -53
-48 -33 12 -72 -2 -81 -30 -9 -30 19 -68 58 -78 25 -7 32 -13 31 -33 -2 -32
-31 -177 -39 -189 -9 -14 -35 0 -35 19 0 29 -37 135 -83 236 -24 55 -54 136
-66 180 -18 66 -82 205 -164 359 -11 20 -13 36 -6 53 5 13 9 37 9 53 0 38 9
60 25 60 41 0 85 106 85 205 l0 45 84 0 84 0 6 -35z m-2144 -17 c37 -40 100
-242 81 -261 -5 -5 -51 -14 -102 -19 -96 -9 -117 -3 -103 32 3 8 19 69 36 135
16 66 32 123 35 127 8 15 32 8 53 -14z m2984 -107 c21 -23 48 -95 71 -192 30
-126 53 -150 165 -169 30 -5 87 -16 125 -25 39 -9 96 -19 127 -22 70 -7 91 8
163 110 28 40 64 91 80 114 36 51 61 62 85 37 36 -38 100 -243 100 -319 0 -14
-10 -27 -27 -36 -16 -7 -44 -24 -65 -36 -20 -12 -76 -43 -125 -69 -48 -26
-103 -56 -122 -66 l-34 -19 -161 31 c-89 17 -190 37 -226 45 -36 8 -216 44
-400 81 -184 37 -339 70 -344 75 -17 15 12 35 156 107 133 67 203 116 238 169
106 155 145 203 165 203 7 0 20 -8 29 -19z m377 -141 c14 0 11 -21 -5 -39 -8
-9 -17 -33 -21 -53 -10 -52 17 -52 38 1 25 61 51 62 81 4 21 -42 20 -69 -4
-103 -20 -28 -20 -28 -73 -15 -28 7 -69 16 -89 19 -21 4 -40 11 -43 17 -17 27
66 185 92 175 8 -4 19 -6 24 -6z m193 -112 c22 -6 43 -13 45 -15 5 -3 -49 -74
-69 -90 -15 -13 -50 -18 -50 -8 0 4 7 20 16 37 10 18 14 42 10 59 -6 33 -7 33
48 17z m-1652 -178 c40 -76 53 -107 103 -260 16 -47 39 -107 53 -135 14 -27
38 -89 53 -137 29 -93 29 -91 -23 -118 -54 -26 -48 -83 10 -100 20 -5 48 -10
61 -10 18 0 22 -4 16 -17 -4 -10 -13 -43 -19 -73 -8 -37 -17 -56 -28 -58 -24
-5 -32 -40 -17 -70 12 -22 12 -26 0 -30 -25 -8 -61 -50 -61 -71 0 -61 153
-121 191 -75 11 14 10 21 -5 47 -10 18 -13 33 -8 35 23 7 54 42 61 69 7 24 13
28 42 27 19 0 51 -4 73 -8 35 -7 38 -10 33 -34 -3 -15 -15 -53 -27 -85 -21
-55 -22 -80 -6 -117 4 -11 -4 -24 -25 -39 l-31 -23 -28 27 c-20 19 -39 27 -63
27 -37 0 -77 -17 -77 -32 0 -6 -4 -10 -10 -10 -5 0 -10 14 -10 30 0 47 -36 59
-92 31 -74 -39 -91 -84 -38 -102 52 -19 36 -34 -30 -31 -56 4 -60 6 -60 28 0
13 -13 56 -29 96 -43 110 -51 218 -55 768 -2 272 -7 503 -11 514 -6 13 -4 17
5 14 7 -2 31 -37 52 -78z m2328 38 c0 -55 -10 -68 -51 -68 l-39 0 0 45 0 45
45 0 c40 0 45 -2 45 -22z m100 11 c45 -10 50 -13 50 -38 0 -38 -19 -91 -33
-91 -7 0 -34 8 -62 18 -33 13 -49 24 -46 33 2 8 6 31 9 52 5 41 7 42 82 26z
m-210 -34 c0 -29 -4 -36 -25 -41 -38 -9 -55 2 -55 35 0 23 5 31 23 34 53 10
57 9 57 -28z m-102 -22 c3 -27 -1 -35 -23 -45 -29 -13 -38 -7 -53 39 -13 39
-9 43 37 40 33 -2 36 -5 39 -34z m428 11 c35 -24 46 -48 34 -78 -8 -23 -15
-26 -56 -26 -43 0 -46 1 -40 23 4 12 10 39 13 60 6 41 13 44 49 21z m-1896
-95 c91 -17 169 -36 175 -40 13 -13 -46 -63 -110 -94 -74 -37 -175 -59 -229
-51 -25 4 -48 11 -50 15 -3 4 4 43 14 87 11 43 20 87 20 97 0 9 3 17 8 17 4 0
81 -14 172 -31z m1445 -90 c133 -174 138 -184 78 -175 -167 26 -479 79 -482
81 -3 4 195 108 217 113 6 2 12 8 12 13 0 5 6 9 13 10 6 0 28 11 47 24 19 13
37 24 40 24 3 1 37 -40 75 -90z m-1028 7 c92 -19 251 -51 353 -71 102 -21 187
-39 189 -41 2 -2 -6 -46 -18 -98 l-22 -94 -66 -12 c-224 -43 -481 84 -590 290
-17 33 -28 60 -23 60 5 0 84 -15 177 -34z m-132 -120 c77 -96 224 -188 355
-222 50 -13 88 -15 168 -10 95 5 103 5 98 -12 -3 -9 -17 -66 -30 -127 -32
-143 -83 -355 -103 -428 -15 -51 -19 -58 -37 -52 -12 3 -77 20 -146 37 -69 17
-142 34 -162 40 -21 5 -38 14 -38 20 0 21 -80 118 -110 133 -32 16 -127 20
-149 6 -10 -7 -24 -2 -44 15 -49 41 -114 27 -164 -35 l-19 -24 -90 17 c-152
30 -164 34 -164 60 0 12 22 121 49 242 26 120 54 244 60 275 l12 56 97 -1
c117 -1 185 21 277 89 l60 45 20 -36 c11 -20 38 -60 60 -88z m930 -36 c105
-17 228 -38 273 -48 l84 -16 -6 -36 c-4 -19 -17 -88 -29 -153 l-23 -118 -43
-20 c-54 -24 -62 -24 -108 2 -33 19 -48 21 -116 16 -62 -5 -86 -3 -110 9 -56
29 -112 80 -156 144 l-43 63 22 91 c26 107 25 105 48 100 9 -2 103 -17 207
-34z m-1520 -10 c37 -14 22 -32 -15 -18 -17 5 -30 14 -30 19 0 12 12 11 45 -1z
m1270 -232 c38 -58 100 -114 158 -144 26 -13 47 -31 47 -40 0 -28 30 -46 88
-53 33 -4 74 -17 95 -30 36 -22 65 -24 117 -10 9 2 14 -2 12 -11 -2 -8 -6 -39
-9 -67 -6 -51 -7 -53 -37 -53 -17 0 -63 8 -102 18 -63 16 -87 27 -139 66 -32
24 -75 -36 -54 -76 22 -40 81 -97 112 -107 18 -5 57 -12 87 -16 83 -9 86 -12
70 -84 -16 -76 -16 -76 -235 -41 -66 11 -165 24 -220 30 -55 6 -117 16 -137
22 -43 13 -44 -5 12 228 21 85 50 207 65 270 30 131 33 140 38 140 3 0 17 -19
32 -42z m-3999 -3 c9 -8 20 -15 27 -15 6 0 2 7 -9 15 -19 14 -18 14 4 15 12 0
22 -6 22 -12 0 -10 2 -10 8 -1 6 10 19 5 50 -18 23 -17 42 -33 42 -35 0 -3 -9
-15 -21 -27 -11 -12 -27 -37 -34 -55 -13 -30 -16 -31 -35 -20 -26 16 -25 21 2
33 27 12 32 32 19 68 -13 33 -55 37 -71 7 -6 -11 -18 -20 -26 -20 -14 0 -14 2
0 15 11 12 13 22 6 40 -11 28 -5 32 16 10z m-30 -42 c-11 -11 -19 6 -11 24 8
17 8 17 12 0 3 -10 2 -21 -1 -24z m100 -25 c8 -27 -20 -50 -56 -46 -27 3 -42
38 -17 38 8 0 17 7 21 15 8 23 44 18 52 -7z m129 -37 c17 -21 60 -58 96 -81
56 -37 65 -47 61 -68 -7 -35 -25 -37 -94 -11 -94 35 -168 78 -168 98 0 22 51
101 65 101 5 -1 24 -18 40 -39z m2473 -8 c-2 -13 -13 -18 -41 -18 -41 0 -51
16 -15 27 43 12 60 9 56 -9z m-1018 -38 c0 -32 -3 -35 -29 -35 -32 0 -74 47
-49 54 7 3 20 7 28 9 39 14 50 8 50 -28z m88 8 c30 -18 26 -57 -5 -61 -39 -6
-63 15 -63 54 0 32 2 35 23 29 12 -4 32 -14 45 -22z m-168 -49 c0 -23 -20 -26
-45 -5 l-26 19 23 16 c21 15 24 15 35 -1 7 -9 13 -22 13 -29z m2818 6 c38 -23
77 -25 112 -5 30 17 95 19 139 4 50 -17 38 -32 -20 -24 -52 7 -139 -9 -139
-26 0 -17 -50 -9 -84 15 -21 14 -58 26 -91 31 -70 8 -72 25 -2 25 34 0 63 -7
85 -20z m-2874 -29 c25 -27 13 -65 -17 -57 -12 3 -28 6 -34 6 -18 0 -16 30 4
52 20 23 26 23 47 -1z m-441 -31 c31 -14 57 -27 57 -30 -1 -6 -121 -60 -132
-60 -10 0 -10 104 -1 114 4 3 10 5 13 4 4 -2 32 -14 63 -28z m-649 -22 c9 -12
16 -30 16 -39 0 -17 62 -115 84 -134 49 -42 216 -284 216 -313 0 -21 -27 -1
-58 41 -16 23 -39 53 -51 66 -12 13 -21 27 -21 30 -1 3 -23 31 -51 61 -103
112 -169 224 -169 285 0 31 14 32 34 3z m139 -38 c98 -28 276 -37 339 -17 41
13 47 13 52 0 9 -22 7 -101 -2 -107 -5 -3 -30 1 -57 9 -97 30 -109 20 -107
-79 1 -42 0 -76 -3 -76 -4 0 -15 5 -26 11 -24 12 -59 3 -59 -17 0 -24 -19 -16
-35 16 -8 16 -50 69 -92 117 -64 74 -103 134 -103 158 0 9 17 6 93 -15z m921
14 c10 -4 16 -18 16 -35 0 -25 -4 -29 -27 -29 -40 0 -52 11 -46 43 5 27 23 34
57 21z m-283 -29 c-1 -15 -24 -12 -29 3 -3 9 2 13 12 10 10 -1 17 -7 17 -13z
m59 -37 c0 -31 -16 -68 -33 -80 -6 -3 -46 -9 -90 -13 -90 -8 -107 1 -107 56 0
38 17 45 25 10 7 -34 47 -56 75 -41 10 5 32 7 48 4 22 -5 31 -2 36 12 8 22
-11 36 -40 29 -17 -4 -23 1 -28 21 -8 31 -1 43 16 26 18 -18 46 -14 58 9 15
28 40 8 40 -33z m-797 -138 c42 -49 46 -64 17 -55 -20 6 -28 -9 -10 -20 5 -3
6 -13 3 -22 -5 -13 -2 -15 11 -10 10 4 22 7 27 7 4 0 6 7 3 15 -4 8 -3 15 1
15 16 0 149 -169 140 -178 -2 -3 -19 4 -38 15 -61 37 -125 47 -201 34 -101
-18 -141 -42 -174 -103 -34 -65 -65 -98 -93 -98 -27 0 -139 69 -139 86 0 20
48 53 89 60 55 10 76 28 100 88 19 46 29 57 62 70 22 9 46 16 54 16 12 0 15
17 15 89 0 58 5 102 16 127 l16 38 31 -65 c18 -36 49 -85 70 -109z m670 123
c4 -22 2 -33 -8 -37 -43 -16 -71 37 -35 66 27 21 35 16 43 -29z m1974 5 c12
-13 25 -40 28 -61 4 -20 11 -40 16 -43 19 -11 7 -53 -30 -112 -45 -69 -88 -97
-134 -88 -75 15 -84 64 -35 195 38 103 60 131 103 131 20 0 39 -8 52 -22z
m170 -3 c35 -15 76 -60 112 -125 8 -14 17 -27 20 -30 19 -14 71 -106 71 -124
0 -50 -61 -96 -128 -96 -52 0 -64 16 -105 135 -19 55 -44 124 -56 153 -27 67
-26 80 2 92 32 13 42 12 84 -5z m-1799 -5 c7 0 12 -14 12 -35 0 -34 -1 -35
-40 -35 -36 0 -40 3 -40 24 0 42 11 58 34 52 11 -3 27 -6 34 -6z m1217 -4 c52
-22 48 -56 -10 -86 -43 -22 -63 -60 -31 -60 7 0 19 -7 26 -15 21 -26 -13 -28
-64 -5 -62 30 -61 52 4 85 28 14 50 30 50 35 0 5 -11 17 -25 26 -50 33 -15 47
50 20z m1560 -16 c35 -23 86 -39 168 -50 32 -5 69 -16 82 -24 31 -20 79 -102
71 -121 -8 -22 -30 -8 -54 34 -30 54 -56 68 -151 82 -75 10 -86 15 -122 50
-54 53 -51 67 6 29z m-3241 -12 c9 -34 8 -38 -9 -38 -10 0 -15 10 -15 30 0 35
15 40 24 8z m186 1 c0 -5 -4 -9 -10 -9 -5 0 -10 7 -10 16 0 8 5 12 10 9 6 -3
10 -10 10 -16z m-335 -38 c3 -6 -4 -15 -15 -21 -11 -6 -20 -18 -20 -26 0 -8
-4 -12 -10 -9 -11 7 -14 48 -3 58 10 10 41 8 48 -2z m89 -31 c5 -5 6 -16 2
-26 -6 -16 -8 -15 -22 5 -9 12 -26 27 -38 32 -17 8 -14 8 14 4 19 -3 38 -9 44
-15z m540 -6 c6 -16 0 -19 -51 -28 -29 -5 -33 -3 -33 18 0 12 2 25 5 27 10 10
74 -4 79 -17z m-580 -48 c14 -19 26 -39 26 -43 0 -5 -17 -15 -37 -22 -20 -8
-61 -38 -90 -67 -48 -48 -54 -51 -63 -34 -14 26 -13 39 8 63 11 14 26 21 40
19 37 -6 62 24 62 75 0 54 17 57 54 9z m586 -56 c0 -27 -2 -50 -4 -50 -14 0
-72 25 -78 34 -4 6 -8 23 -8 39 0 25 3 27 45 27 l45 0 0 -50z m2124 4 c77 -20
173 -44 211 -53 l70 -18 6 -44 c5 -35 13 -387 10 -435 -1 -14 -76 -34 -125
-34 -38 0 -35 -8 -57 130 -6 41 -22 105 -34 141 l-22 66 33 30 c28 25 34 37
34 69 0 89 -16 102 -140 113 -49 5 -97 14 -105 21 -19 15 -39 50 -29 50 3 0
70 -16 148 -36z m-405 -68 c22 -75 35 -93 110 -155 70 -59 51 -74 -58 -47 -31
8 -82 18 -114 22 l-59 7 7 31 c3 17 10 55 15 85 10 55 55 145 69 137 4 -3 18
-39 30 -80z m-2469 38 c0 -8 -7 -14 -15 -14 -15 0 -21 21 -9 33 10 9 24 -2 24
-19z m975 -4 c21 -8 51 -38 44 -43 -2 -1 -21 -10 -42 -20 -21 -9 -46 -31 -55
-47 -20 -35 -32 -34 -50 4 -18 36 -8 91 21 111 20 14 32 13 82 -5z m-380 -25
c50 -8 121 -27 159 -43 58 -25 71 -35 86 -68 10 -22 30 -51 44 -66 31 -32 33
-44 6 -51 -27 -7 -77 -89 -89 -148 -6 -28 -16 -93 -22 -147 -11 -92 -29 -148
-29 -90 0 37 -31 105 -74 161 l-36 48 37 15 c95 40 127 89 111 174 -14 79 -53
145 -95 164 -73 31 -459 48 -533 23 -21 -7 -47 -29 -67 -57 -18 -25 -37 -49
-41 -55 -4 -5 -21 -31 -37 -57 -27 -43 -55 -63 -55 -39 0 5 21 41 48 79 83
123 129 166 188 175 48 8 302 -4 399 -18z m1260 -71 l0 -49 34 3 c41 4 38 -14
-8 -45 -44 -30 -63 -21 -61 31 3 63 2 66 -25 66 -14 0 -25 4 -25 8 0 11 62 42
75 38 6 -2 10 -25 10 -52z m1093 33 c13 -10 16 -55 4 -73 -15 -23 -53 -34
-114 -34 l-63 0 -2 65 -1 65 81 -6 c45 -4 88 -11 95 -17z m-1888 -7 c8 -5 12
-10 10 -12 -3 -2 -21 -11 -41 -21 -20 -10 -47 -36 -60 -57 -27 -44 -34 -48
-47 -22 -29 54 84 146 138 112z m-782 -40 c-3 -34 -1 -39 13 -35 17 6 59 -36
59 -59 0 -6 -16 -22 -36 -35 -33 -23 -48 -25 -170 -29 l-134 -3 37 60 c21 33
40 60 43 60 3 0 18 -22 34 -49 40 -66 46 -56 8 12 -16 29 -27 59 -25 66 10 28
67 52 122 52 l53 0 -4 -40z m246 31 c18 -7 18 -8 3 -14 -9 -3 -17 -17 -17 -30
0 -13 -10 -32 -23 -43 -12 -11 -32 -33 -43 -49 -21 -29 -22 -29 -48 -11 -33
21 -66 73 -66 103 0 49 7 53 94 52 44 0 90 -4 100 -8z m168 -32 c28 -20 68
-126 68 -182 0 -31 -24 -67 -45 -67 -19 0 -44 34 -51 69 -6 27 -2 38 27 69 31
33 31 34 3 9 -17 -15 -42 -27 -57 -27 -24 0 -27 -4 -27 -34 0 -27 3 -33 18
-30 11 3 25 -7 40 -32 13 -20 22 -37 20 -39 -56 -46 -148 -21 -210 58 -18 23
-36 44 -40 45 -14 6 -9 18 27 65 47 62 69 73 92 48 17 -19 18 -18 14 31 l-3
50 48 -8 c27 -3 61 -15 76 -25z m1374 -23 c59 -54 59 -54 40 -75 l-19 -21 -14
28 c-17 36 -67 56 -95 39 -25 -15 -58 -87 -58 -126 0 -43 24 -40 93 9 30 22
58 40 60 40 3 0 3 -9 0 -20 -13 -50 51 -90 145 -90 54 0 97 37 88 76 -5 17 -2
24 9 24 8 0 15 -4 15 -9 0 -6 16 -7 36 -4 29 5 40 2 50 -12 8 -11 14 -13 14
-7 0 7 13 12 30 12 23 0 30 -5 30 -19 0 -11 5 -23 10 -26 6 -3 10 3 10 14 0
18 5 19 55 14 51 -5 60 -3 116 32 49 30 72 38 117 39 31 2 64 -1 73 -5 35 -18
70 -140 96 -339 25 -191 27 -272 9 -333 -23 -79 -45 -102 -110 -115 -113 -23
-213 -88 -242 -157 -21 -52 -68 -65 -233 -65 l-139 0 -22 46 c-14 28 -38 56
-63 72 -35 23 -53 27 -143 32 -96 5 -105 7 -141 36 -79 63 -123 158 -130 281
-7 97 5 154 53 258 8 17 21 62 29 100 28 127 45 174 76 199 35 30 51 66 37 89
-13 24 -2 37 31 37 20 0 45 -16 87 -54z m-1746 18 c0 -16 -16 -19 -25 -4 -8
13 4 32 16 25 5 -4 9 -13 9 -21z m1952 10 c15 -10 7 -25 -37 -73 -42 -45 -56
-71 -37 -71 4 0 22 -9 41 -21 27 -16 31 -23 20 -30 -19 -12 -91 -11 -123 1
-24 9 -37 44 -18 52 13 6 82 88 82 98 0 5 -13 16 -30 25 -50 26 -37 38 32 31
34 -4 66 -10 70 -12z m-1712 -9 c0 -8 -6 -15 -14 -15 -17 0 -28 14 -19 24 12
12 33 6 33 -9z m-735 -22 c36 -15 65 -30 65 -34 0 -4 -15 -12 -32 -18 -18 -7
-50 -23 -70 -36 -50 -33 -75 -32 -144 11 -36 21 -68 33 -81 31 -37 -7 -26 19
17 40 76 38 162 40 245 6z m1313 -1 l32 -27 -65 -58 c-67 -60 -69 -60 -112
-23 -29 25 -29 55 -2 90 41 52 98 59 147 18z m1590 -14 c-8 -12 -27 -31 -41
-42 -22 -16 -29 -17 -42 -6 -20 17 -19 30 4 30 10 0 29 9 42 20 34 28 56 27
37 -2z m-1467 -35 c-109 -56 -189 -159 -236 -302 -26 -79 -18 -208 18 -278 15
-29 27 -64 27 -79 0 -27 0 -27 -21 -8 -69 62 -100 249 -63 373 25 84 61 141
138 216 75 74 124 104 166 105 18 0 12 -6 -29 -27z m235 -3 c-50 -35 -91 -74
-150 -144 -13 -16 -39 -66 -56 -110 -41 -103 -48 -196 -26 -325 9 -52 14 -96
11 -99 -3 -3 -12 4 -21 16 -53 75 -100 95 -165 68 -12 -5 -20 6 -35 56 -26 87
-24 204 6 278 50 124 167 242 269 270 14 3 62 6 107 6 75 -1 80 -2 60 -16z
m545 0 l24 -20 -37 -33 c-41 -37 -85 -63 -93 -55 -8 7 15 69 37 101 23 32 38
34 69 7z m269 6 c0 -17 -14 -29 -23 -20 -8 8 3 34 14 34 5 0 9 -6 9 -14z
m-582 -8 c43 -2 62 -6 62 -15 0 -7 -7 -13 -15 -13 -8 0 -42 -28 -75 -61 -66
-67 -119 -164 -145 -264 -16 -62 -22 -226 -9 -258 4 -12 -1 -26 -16 -42 -29
-31 -21 -72 15 -81 37 -9 49 -37 25 -59 -16 -14 -30 -16 -77 -11 -130 13 -132
14 -159 67 -34 67 -64 200 -64 283 0 177 106 370 246 445 31 17 50 20 94 16
30 -3 83 -6 118 -7z m-1805 -49 c-15 -26 -23 -29 -66 -29 -34 0 -47 4 -45 13
5 14 108 58 120 51 5 -3 1 -19 -9 -35z m-303 -9 c15 -11 39 -24 54 -30 45 -17
31 -38 -44 -63 -79 -27 -99 -39 -125 -79 -28 -42 -65 -146 -65 -183 0 -30 32
-69 75 -89 44 -21 44 -32 1 -53 -28 -13 -40 -14 -67 -4 -34 12 -45 9 -35 -8
13 -20 77 -24 113 -7 32 15 35 15 55 -4 23 -22 100 -28 128 -10 22 14 7 21
-26 11 -43 -12 -98 8 -102 37 -2 15 2 22 13 22 26 0 92 38 113 65 12 15 26 52
33 83 30 146 71 176 289 207 58 9 126 22 152 30 26 8 55 15 66 15 10 0 40 11
66 25 26 14 49 25 52 25 7 0 94 -93 94 -101 0 -3 -23 -9 -50 -13 -63 -8 -119
-37 -165 -84 -80 -83 -120 -256 -71 -311 13 -15 22 -84 18 -137 -3 -39 -47
-47 -174 -35 -62 6 -205 15 -318 21 -390 21 -439 26 -461 46 -33 30 -47 65
-54 135 -6 59 -5 63 9 45 9 -11 16 -23 16 -27 0 -3 13 -12 28 -18 66 -27 140
49 156 159 9 65 -4 101 -47 129 -63 41 -48 63 62 91 44 12 83 44 126 103 23
32 47 34 85 7z m2207 -7 c-16 -79 -42 -168 -75 -258 -30 -83 -37 -116 -40
-197 -4 -89 -6 -97 -25 -102 -38 -10 -116 -6 -123 6 -4 6 -7 57 -7 112 1 106
17 173 69 282 42 89 139 184 188 184 15 0 17 -5 13 -27z m-1177 -13 c0 -11 -4
-20 -10 -20 -5 0 -10 9 -10 20 0 11 5 20 10 20 6 0 10 -9 10 -20z m326 -21
c19 -11 34 -25 34 -30 0 -5 -11 -31 -24 -58 -44 -85 -59 -165 -53 -273 l6 -98
-33 0 c-18 0 -47 5 -65 11 -31 11 -31 12 -31 77 1 93 25 259 45 307 15 38 59
85 79 85 5 0 24 -9 42 -21z m-1007 -19 c79 0 142 -2 140 -5 -3 -2 -47 -11 -99
-19 -214 -35 -266 -79 -295 -250 l-6 -39 -120 5 c-66 3 -122 8 -125 11 -10 9
17 107 39 146 33 59 46 69 113 91 35 12 74 33 86 46 20 22 29 24 73 20 28 -3
115 -6 194 -6z m-727 -107 c-40 -52 -67 -108 -82 -173 -7 -30 -14 -61 -16 -67
-4 -16 -48 -17 -75 -3 -24 13 -25 62 -4 114 30 72 135 164 188 166 16 0 14 -5
-11 -37z m1281 0 c4 -3 -10 -16 -30 -28 -42 -23 -99 -121 -108 -185 -5 -33 -4
-32 12 11 25 64 69 135 95 154 34 23 98 19 130 -9 58 -51 98 -147 98 -234 0
-42 -17 -102 -29 -102 -5 0 -11 36 -14 81 -9 108 -42 182 -92 206 -56 27 -79
8 -145 -117 l-55 -105 -83 -3 c-105 -4 -116 4 -109 73 17 167 113 265 258 265
36 0 69 -3 72 -7z m-1223 -13 c0 -5 -4 -10 -10 -10 -5 0 -10 5 -10 10 0 6 5
10 10 10 6 0 10 -4 10 -10z m-5 -48 c-26 -22 -55 -93 -55 -135 0 -40 34 -81
61 -74 20 5 24 -1 11 -19 -12 -18 -50 -26 -71 -14 -60 31 -34 199 37 242 35
22 43 22 17 0z m73 -31 c5 -31 -16 -55 -34 -40 -17 14 -18 41 -2 57 17 17 32
10 36 -17z m-45 -54 c7 -4 22 -5 35 -2 20 5 22 3 16 -22 -14 -64 -66 -101
-101 -72 -20 18 -13 98 13 136 l19 28 3 -30 c2 -16 9 -33 15 -38z m1290 -55
c32 -70 32 -236 -1 -308 -14 -31 -33 -56 -48 -63 -31 -14 -27 -14 -52 8 -73
63 -67 320 9 402 24 26 31 29 50 19 11 -7 31 -33 42 -58z m2460 -89 c3 -58 4
-110 1 -115 -3 -4 -14 -8 -25 -8 -17 0 -19 7 -19 63 0 34 -3 86 -6 115 -7 50
-6 52 18 52 25 0 25 -1 31 -107z m-3388 65 c7 -7 -87 -48 -111 -48 -16 0 -104
46 -104 54 0 6 209 1 215 -6z m-538 -117 c4 -37 16 -76 41 -123 2 -5 -6 -8
-18 -8 -12 0 -37 15 -56 34 -31 31 -34 40 -34 91 l0 56 32 -3 c29 -3 31 -6 35
-47z m1627 34 c3 -8 1 -15 -4 -15 -6 0 -10 7 -10 15 0 8 2 15 4 15 2 0 6 -7
10 -15z m-321 -219 c9 -21 17 -41 17 -44 0 -9 -157 6 -178 17 -24 13 -40 55
-49 128 l-6 53 74 0 c50 1 80 6 94 16 19 15 20 13 26 -58 3 -40 13 -90 22
-112z m521 122 c9 -17 16 -33 16 -35 0 -1 -18 -3 -39 -3 -31 0 -44 6 -60 26
-26 34 -19 44 29 44 33 0 41 -4 54 -32z m254 -67 c40 -44 72 -85 72 -91 0 -22
-33 -67 -60 -84 -35 -20 -73 -20 -115 -1 -53 26 -61 52 -40 132 25 100 35 123
54 123 10 0 50 -36 89 -79z m482 31 c0 -10 -90 -32 -133 -32 -50 0 -16 23 46
31 80 10 87 10 87 1z m1420 -22 c-8 -5 -35 -9 -60 -9 -37 1 -41 2 -20 9 38 12
99 12 80 0z m-1475 -55 c-36 -17 -55 -19 -55 -6 0 11 24 19 60 19 24 0 24 0
-5 -13z m95 -23 c0 -10 -123 -72 -144 -72 -19 0 -21 13 -3 28 17 14 107 50
130 51 9 1 17 -2 17 -7z m1415 -42 c4 -6 -10 -10 -35 -10 -25 0 -39 4 -35 10
3 6 19 10 35 10 16 0 32 -4 35 -10z m-97 -42 c28 -30 42 -71 42 -119 0 -72
-49 -106 -204 -145 -132 -32 -189 -29 -223 11 -42 48 -28 127 32 177 29 24
149 66 224 78 35 5 66 12 69 15 12 12 40 4 60 -17z m-1206 -60 c3 -22 6 -23
94 -20 112 4 168 -10 211 -53 68 -68 30 -148 -94 -196 -38 -14 -81 -22 -125
-23 -73 0 -83 6 -130 82 -17 28 -20 45 -16 100 7 93 51 173 60 110z"/>
<path d="M3713 9145 c-29 -15 -54 -34 -55 -43 -8 -89 48 -147 181 -186 75 -22
117 -20 142 5 18 18 21 30 17 78 -7 97 -69 156 -174 167 -51 5 -66 2 -111 -21z
m58 -24 c-25 -23 -31 -37 -31 -70 0 -23 8 -54 18 -69 l17 -27 -35 22 c-42 26
-74 83 -65 114 7 21 75 58 109 59 15 0 12 -5 -13 -29z m140 -10 c30 -30 39
-71 16 -71 -8 0 -24 -12 -38 -26 -35 -38 -86 -59 -106 -42 -45 37 -40 118 10
148 46 28 83 25 118 -9z m79 -126 c0 -41 -28 -65 -75 -65 -51 0 -68 16 -27 25
30 6 71 64 73 101 1 25 28 -33 29 -61z m-84 -12 c-15 -13 -39 -23 -54 -23
l-27 0 30 19 c17 10 39 27 50 38 17 17 21 18 24 4 2 -8 -9 -25 -23 -38z"/>
<path d="M3815 9119 c-18 -8 -17 -8 5 -6 19 1 26 -3 28 -20 3 -17 -2 -23 -17
-23 -11 0 -22 7 -24 15 -4 11 -4 10 -3 -2 2 -22 39 -29 55 -10 23 29 -7 61
-44 46z"/>
<path d="M4495 9051 c-45 -11 -68 -26 -108 -70 -37 -41 -62 -107 -51 -135 9
-23 63 -53 111 -60 78 -12 193 25 242 77 19 21 22 32 17 62 -9 46 -71 107
-124 123 -43 13 -44 13 -87 3z m131 -44 c32 -22 74 -79 74 -102 0 -10 -77 -75
-89 -75 -11 0 -10 4 3 19 40 44 27 122 -27 159 -48 32 -90 29 -134 -11 -32
-30 -36 -40 -36 -80 0 -52 19 -81 68 -103 l30 -13 -46 -1 c-32 0 -56 7 -80 23
-29 20 -34 29 -33 61 2 45 25 79 85 125 39 30 49 33 94 29 32 -3 64 -14 91
-31z m-45 -14 c73 -43 34 -173 -52 -173 -16 0 -29 5 -29 10 0 6 8 10 18 10 23
0 59 26 73 53 11 20 9 20 -17 -4 -16 -14 -43 -33 -61 -41 -30 -15 -32 -15 -57
11 -27 29 -33 68 -16 102 12 21 35 27 27 6 -8 -21 19 -49 45 -45 18 2 24 10
26 36 3 26 -1 34 -20 41 -22 9 -22 10 5 10 16 1 42 -7 58 -16z m-56 -33 c0
-38 -39 -35 -43 3 -3 25 0 28 20 25 17 -2 23 -9 23 -28z"/>
<path d="M4123 8894 c-4 -11 2 -23 16 -33 21 -16 22 -20 11 -61 -7 -27 -25
-57 -47 -77 -29 -28 -42 -33 -82 -33 -60 0 -141 39 -199 97 -46 47 -52 50 -52
29 0 -22 86 -95 143 -122 35 -16 70 -24 108 -24 49 0 60 4 97 36 28 24 42 31
42 21 0 -30 50 -76 101 -92 67 -23 174 -8 236 33 42 27 13 31 -37 5 -31 -16
-72 -27 -113 -30 -57 -5 -68 -3 -106 21 -49 31 -74 79 -69 134 3 31 7 38 36
46 37 10 43 39 13 56 -31 16 -91 13 -98 -6z m96 -13 c9 -6 10 -10 2 -15 -14
-9 -69 2 -76 15 -8 11 55 12 74 0z"/>
<path d="M3152 7984 c-31 -21 -48 -59 -68 -145 -21 -92 -23 -181 -5 -203 24
-28 57 -21 249 55 102 40 121 62 97 112 -18 38 -109 130 -170 170 -45 31 -71
34 -103 11z m92 -23 c41 -27 153 -146 161 -171 4 -12 2 -27 -5 -35 -12 -15
-259 -115 -284 -115 -29 0 -39 48 -26 120 36 199 77 252 154 201z"/>
<path d="M4659 7886 c-168 -140 -174 -156 -77 -205 33 -17 82 -49 107 -70 71
-58 97 -73 128 -69 45 5 55 40 43 145 -5 48 -10 113 -10 144 0 77 -25 109 -84
109 -36 0 -51 -7 -107 -54z m161 7 c17 -38 33 -302 18 -320 -18 -22 -53 -15
-94 20 -54 46 -135 101 -172 116 -42 18 -48 39 -16 64 14 11 36 30 47 42 99
101 190 134 217 78z"/>
<path d="M2464 7390 c-28 -11 -74 -67 -74 -91 0 -24 17 -25 24 -1 10 29 52 64
87 71 42 8 51 31 12 30 -15 0 -37 -4 -49 -9z"/>
<path d="M2077 7076 c-15 -7 -48 -29 -73 -50 -36 -30 -45 -43 -42 -64 4 -34
42 -41 88 -17 17 9 35 13 41 9 12 -7 4 -51 -13 -71 -13 -16 -50 -17 -66 -1 -9
9 -15 9 -23 1 -13 -13 25 -43 54 -43 32 0 77 39 77 66 0 21 4 24 38 24 25 0
45 7 55 18 21 23 23 92 3 92 -11 0 -13 -10 -9 -39 5 -36 3 -41 -20 -46 -53
-14 -86 16 -51 46 21 17 42 61 37 77 -6 15 -59 14 -96 -2z m73 -14 c0 -18 -78
-82 -117 -96 -37 -13 -43 -13 -43 -1 0 20 48 64 95 86 43 20 65 24 65 11z"/>
<path d="M1565 6850 c-95 -39 -101 -221 -8 -265 103 -49 197 80 145 197 -27
61 -85 90 -137 68z m75 -37 c42 -29 53 -59 24 -65 -14 -3 -64 -107 -64 -135 0
-18 -39 -3 -60 25 -28 35 -26 60 4 55 17 -4 27 1 36 16 14 28 9 83 -8 89 -11
3 -12 0 -2 -18 18 -33 5 -72 -23 -68 -36 5 -34 45 4 84 37 38 54 41 89 17z
m35 -151 c-21 -37 -49 -61 -60 -50 -4 3 0 17 8 30 8 12 18 34 22 48 4 14 12
31 18 39 9 11 13 9 21 -9 8 -17 5 -31 -9 -58z"/>
<path d="M4677 7279 c7 -7 15 -10 18 -7 3 3 -2 9 -12 12 -14 6 -15 5 -6 -5z"/>
<path d="M6121 7001 c-6 -11 -11 -29 -11 -40 0 -29 -17 -26 -24 4 -4 15 -11
23 -17 19 -6 -3 -8 -17 -5 -29 7 -28 -13 -45 -26 -21 -11 19 -38 22 -38 3 0
-7 5 -18 11 -24 6 -6 12 -53 14 -104 5 -131 47 -242 116 -306 61 -56 208 -88
297 -64 34 10 46 19 57 44 33 79 26 207 -15 288 -22 41 -73 97 -109 117 -34
19 -117 43 -176 51 -49 6 -50 7 -47 38 4 37 -13 52 -27 24z m148 -104 l43 -13
-54 -12 c-101 -23 -159 -95 -161 -203 l-2 -59 -18 52 c-10 29 -21 90 -24 135
l-6 83 34 15 c42 18 130 19 188 2z m122 -69 c38 -26 88 -117 89 -161 0 -31
-27 -97 -44 -109 -6 -4 -18 0 -28 9 -14 13 -25 14 -60 5 -24 -6 -62 -8 -84 -5
-35 4 -44 2 -57 -17 -14 -20 -18 -21 -32 -10 -9 8 -26 32 -37 54 -25 50 -21
128 10 177 l21 34 -6 -38 c-4 -28 -1 -42 12 -57 37 -41 105 -14 105 41 0 41
-26 62 -68 56 -30 -5 -32 -4 -21 10 34 40 147 46 200 11z m-137 -47 c35 -39
-12 -91 -61 -68 -27 12 -29 34 -7 65 19 27 45 28 68 3z m231 -236 c-10 -72
-30 -85 -124 -85 -50 0 -83 4 -87 12 -5 7 0 9 14 6 57 -15 170 48 188 105 11
33 17 9 9 -38z m-78 -2 c5 -15 -40 -39 -90 -48 -46 -9 -99 10 -95 34 5 25 177
38 185 14z"/>
<path d="M6603 6419 c-23 -23 -15 -65 18 -97 17 -17 28 -35 24 -41 -12 -20
-53 -12 -73 15 -15 21 -20 24 -25 11 -3 -8 3 -24 14 -35 10 -12 19 -32 19 -45
0 -31 39 -67 74 -67 16 0 38 11 54 28 15 15 40 32 57 37 16 6 31 18 33 27 3
17 2 17 -26 1 -25 -14 -35 -15 -56 -5 -31 14 -35 42 -5 42 29 0 79 53 79 84 0
19 -6 27 -22 30 -13 3 -36 8 -53 11 -69 15 -100 16 -112 4z m83 -30 c3 -5 21
-9 40 -9 37 0 43 -13 17 -42 -22 -24 -77 -24 -103 2 -22 22 -26 56 -7 63 16 5
46 -3 53 -14z m-4 -149 c31 -29 14 -36 -32 -14 -36 17 -37 20 -17 26 12 3 23
6 25 7 2 1 12 -8 24 -19z m-42 -30 c0 -5 9 -10 20 -10 11 0 20 -4 20 -10 0
-13 -26 -13 -51 0 -23 13 -25 30 -4 30 8 0 15 -4 15 -10z"/>
<path d="M4173 6893 c-22 -8 -15 -72 10 -97 22 -22 33 -24 173 -28 162 -6 246
-26 312 -75 43 -32 44 -7 0 43 -66 75 -175 127 -313 149 -90 15 -159 18 -182
8z m148 -28 c57 -8 118 -19 134 -23 38 -12 124 -55 150 -77 l20 -17 -20 7
c-76 27 -137 36 -253 40 -81 2 -140 9 -148 16 -22 18 -17 69 6 69 4 0 53 -7
111 -15z"/>
<path d="M3360 6691 c-74 -23 -129 -78 -150 -152 -25 -87 -5 -129 88 -177 149
-78 343 -61 388 33 38 81 -30 245 -119 286 -44 19 -157 25 -207 10z m169 -27
c85 -25 151 -114 151 -204 0 -71 -32 -106 -118 -126 l-27 -7 27 22 c89 72 92
201 6 270 -36 29 -110 39 -161 22 -46 -16 -94 -70 -103 -118 -8 -43 9 -119 33
-146 16 -17 16 -17 -3 -10 -54 22 -104 59 -112 82 -10 30 4 91 32 138 23 37
79 71 138 82 64 13 80 12 137 -5z m-3 -43 c52 -24 81 -61 90 -116 8 -54 0 -69
-27 -55 -15 9 -30 6 -67 -14 -26 -13 -64 -27 -84 -31 -25 -4 -38 -11 -38 -21
0 -13 3 -13 22 0 12 9 32 16 43 16 11 0 37 9 58 20 39 21 67 26 67 12 0 -26
-90 -73 -141 -74 -16 -1 -26 -4 -24 -9 14 -22 -39 8 -64 37 -34 38 -46 87 -37
139 8 39 26 38 26 -1 0 -45 82 -55 93 -12 7 26 -7 64 -27 71 -18 7 -48 -2 -58
-17 -5 -8 -8 -7 -8 1 0 27 71 72 115 72 11 0 38 -8 61 -18z m-98 -67 c17 -31
3 -54 -34 -54 -31 0 -34 3 -34 28 0 16 3 32 7 35 12 13 52 7 61 -9z m142 -179
c0 -8 -82 -45 -99 -45 -22 0 -4 13 42 31 48 19 57 21 57 14z"/>
<path d="M4340 6630 c-109 -51 -149 -110 -150 -217 0 -55 4 -67 28 -92 22 -25
42 -33 111 -47 102 -20 174 -14 245 22 96 48 124 91 106 162 -13 52 -69 129
-119 163 -49 34 -158 38 -221 9z m211 -30 c72 -37 130 -135 115 -194 -8 -33
-54 -82 -85 -91 l-23 -7 22 30 c48 64 43 158 -10 212 -77 79 -202 65 -261 -29
-45 -70 -34 -147 27 -205 32 -29 27 -31 -46 -15 -65 14 -84 41 -82 115 2 87
34 134 119 175 87 42 152 45 224 9z m-13 -46 c35 -27 62 -72 62 -104 0 -15 -6
-20 -26 -20 -15 0 -41 -13 -62 -31 -20 -17 -50 -38 -69 -45 -18 -8 -33 -19
-33 -24 0 -13 89 36 122 67 26 25 48 24 48 -3 0 -8 -5 -14 -11 -14 -6 0 -8 -7
-5 -16 7 -18 -10 -44 -27 -44 -5 0 -2 9 8 20 10 11 16 20 13 20 -3 0 -15 -9
-28 -20 -13 -11 -18 -20 -12 -20 22 0 12 -18 -13 -22 -26 -5 -34 6 -12 16 6 3
1 3 -13 -1 -14 -3 -32 -6 -40 -6 -8 0 -18 -5 -22 -10 -4 -7 -22 -1 -47 16
-101 67 -91 208 18 256 55 25 101 20 149 -15z"/>
<path d="M4343 6508 c-28 -13 -33 -72 -7 -82 28 -11 61 -6 74 10 16 18 3 65
-20 72 -11 4 -10 1 3 -12 20 -21 21 -27 4 -50 -21 -28 -61 -17 -65 17 -3 22 1
30 17 34 12 3 21 9 21 14 0 11 1 11 -27 -3z"/>
<path d="M3800 6293 c-108 -39 -127 -102 -50 -166 81 -69 280 -78 347 -15 62
59 1 143 -127 172 -71 16 -141 20 -170 9z m199 -29 c3 -5 22 -17 42 -27 40
-20 63 -54 57 -82 -16 -86 -259 -86 -346 1 -48 48 -37 78 43 111 33 14 193 11
204 -3z"/>
<path d="M3560 6034 c0 -3 17 -36 37 -72 78 -139 164 -202 289 -210 78 -5 131
12 199 64 39 29 135 140 135 155 0 5 -25 9 -55 9 -30 0 -74 7 -99 15 -44 15
-73 17 -293 15 -80 0 -124 4 -149 15 -38 16 -64 19 -64 9z m398 -45 c35 0 73
-4 85 -10 11 -7 43 -15 71 -18 l51 -7 -40 -12 c-48 -14 -255 -16 -305 -3 -19
6 -54 15 -77 21 -24 6 -43 15 -43 20 0 12 73 19 140 13 30 -3 83 -5 118 -4z
m-183 -60 c70 -16 113 -20 205 -17 121 3 126 1 61 -36 -31 -17 -39 -18 -102
-6 -56 11 -76 11 -108 0 -44 -14 -62 -8 -121 43 -35 30 -71 76 -39 50 9 -7 55
-22 104 -34z m-96 -13 c62 -64 128 -90 221 -91 83 0 118 11 198 63 29 19 55
33 57 30 10 -9 -102 -105 -148 -127 -115 -56 -270 -2 -357 125 -39 56 -26 56
29 0z m256 -66 c15 -6 6 -9 -32 -9 -28 -1 -55 4 -58 9 -8 12 61 12 90 0z"/>
<path d="M2010 5410 c0 -11 -9 -28 -20 -37 -27 -23 -26 -85 1 -130 47 -76 129
-78 129 -4 0 37 -31 99 -56 114 -9 5 -12 18 -8 35 5 26 5 26 -10 8 -16 -19
-16 -19 -16 1 0 12 -4 25 -10 28 -5 3 -10 -3 -10 -15z m26 -66 c17 -14 17 -15
1 -10 -10 3 -23 6 -28 6 -5 0 -9 5 -9 10 0 14 13 12 36 -6z m-11 -49 c0 -28
-29 -25 -33 3 -3 19 0 23 15 20 10 -2 18 -12 18 -23z m45 -4 c5 -11 10 -31 10
-45 0 -30 -23 -34 -54 -11 -17 13 -17 15 -3 21 10 3 17 17 17 30 0 29 15 31
30 5z"/>
<path d="M1078 5339 c-27 -15 -22 -66 12 -119 67 -104 99 -106 150 -9 19 37
41 73 48 82 10 12 11 21 2 36 -10 19 -20 21 -103 21 -51 0 -100 -5 -109 -11z
m197 -18 c3 -5 -5 -25 -17 -43 -13 -18 -32 -53 -42 -76 -25 -55 -48 -53 -93 6
-71 94 -57 122 63 122 45 0 85 -4 89 -9z"/>
<path d="M1871 5111 c-12 -12 -21 -30 -21 -41 0 -21 27 -40 48 -33 20 7 14
-12 -13 -41 -14 -15 -25 -28 -25 -30 0 -2 21 -2 46 -1 36 1 50 7 65 26 10 13
19 32 19 42 0 10 5 27 10 38 14 25 -1 25 -23 -1 -25 -30 -34 -25 -33 18 1 33
-2 37 -26 40 -17 2 -34 -4 -47 -17z m59 -14 c0 -28 -17 -47 -42 -47 -23 0 -23
27 -1 52 22 25 43 23 43 -5z m40 -65 c0 -4 -7 -18 -16 -30 -18 -26 -49 -31
-40 -6 3 9 6 19 6 24 0 5 8 11 18 13 28 8 32 7 32 -1z"/>
<path d="M1573 5046 c-16 -13 -39 -26 -51 -28 -25 -3 -31 -23 -8 -23 25 0 29
-13 7 -20 -12 -3 -19 -11 -15 -16 3 -5 9 -7 14 -4 5 3 21 -12 34 -34 33 -52
62 -71 109 -71 107 0 120 152 17 205 -41 21 -74 19 -107 -9z m92 -10 c59 -25
84 -107 45 -146 -24 -24 -55 -25 -90 -4 l-25 15 29 -6 c33 -7 71 14 79 44 6
26 -27 79 -58 91 -14 5 -25 12 -25 15 0 8 8 6 45 -9z m7 -47 c14 -18 17 -33
13 -52 -6 -23 -13 -27 -40 -27 -40 0 -54 16 -30 34 16 12 16 13 -6 12 -17 -1
-24 4 -24 18 0 26 19 31 39 11 9 -9 16 -12 16 -7 0 5 -10 17 -22 26 l-23 16
29 -2 c18 -2 37 -13 48 -29z"/>
<path d="M5585 5048 c-29 -85 -55 -170 -55 -182 0 -20 32 -21 69 -1 45 23 51
57 26 143 -15 50 -31 66 -40 40z m29 -105 c1 -40 -3 -49 -24 -60 -13 -6 -26
-10 -29 -8 -2 2 5 34 15 69 21 74 37 74 38 -1z"/>
<path d="M6215 4841 c-53 -32 -125 -102 -125 -120 0 -28 67 -81 104 -81 10 0
21 26 35 88 12 48 24 97 27 110 8 27 -2 28 -41 3z m11 -38 c-3 -10 -10 -40
-16 -68 -19 -81 -16 -77 -48 -61 -16 8 -35 22 -43 32 -12 15 -8 22 39 65 56
51 77 61 68 32z"/>
<path d="M5314 4522 c-56 -19 -101 -48 -91 -58 4 -4 12 -2 19 4 21 16 97 35
173 41 39 3 70 11 70 16 0 17 -117 15 -171 -3z"/>
<path d="M5140 4299 c0 -83 22 -120 85 -144 44 -17 49 -17 100 -1 57 18 115
59 115 81 0 13 -44 37 -90 50 -14 3 -34 10 -45 16 -11 5 -45 17 -75 28 -30 10
-63 22 -72 26 -16 6 -18 0 -18 -56z m83 14 c4 -3 5 -13 2 -23 -4 -12 2 -27 14
-39 l21 -21 -28 0 c-44 0 -72 26 -72 66 0 32 2 34 28 28 15 -4 31 -9 35 -11z
m55 -21 c17 -12 4 -44 -17 -40 -20 4 -28 48 -9 48 7 0 19 -4 26 -8z m115 -41
c15 -6 27 -14 27 -19 0 -13 -82 -62 -117 -68 -37 -7 -83 8 -108 36 -16 17 -15
18 24 13 37 -5 44 -2 68 26 29 33 46 35 106 12z"/>
<path d="M5684 4268 c-8 -13 13 -31 81 -65 63 -33 245 -94 245 -83 0 14 -45
38 -110 59 -35 12 -96 39 -136 60 -48 26 -76 36 -80 29z"/>
<path d="M5645 4131 c-7 -34 7 -96 30 -129 27 -37 88 -62 153 -62 49 0 66 5
98 28 100 73 93 85 -91 144 -83 26 -158 48 -167 48 -10 0 -19 -11 -23 -29z
m74 -2 c22 -8 31 -17 31 -34 0 -12 10 -30 23 -38 22 -16 21 -16 -18 -16 -56
-1 -85 21 -85 65 0 38 3 39 49 23z m92 -29 c15 0 10 -20 -6 -26 -18 -7 -47 14
-39 28 3 5 13 7 21 4 8 -3 19 -6 24 -6z m107 -35 c28 -9 52 -20 52 -24 0 -13
-40 -51 -72 -67 -46 -24 -123 -20 -165 8 -50 35 -49 46 5 40 37 -3 53 0 75 18
15 12 27 28 27 35 0 8 6 13 13 10 6 -2 36 -11 65 -20z"/>
<path d="M5411 4096 c-16 -19 -5 -59 26 -92 19 -21 22 -29 11 -35 -19 -12 -62
-11 -75 2 -7 7 -13 7 -17 1 -3 -6 0 -16 7 -24 7 -7 20 -33 30 -58 15 -41 66
-90 93 -90 5 0 -5 9 -23 20 -31 19 -63 65 -63 92 0 7 17 18 37 25 32 10 40 9
63 -9 18 -13 45 -20 79 -21 52 -2 52 -2 47 -30 -8 -37 -28 -56 -79 -73 -40
-14 -40 -14 -7 -9 49 7 83 36 95 79 6 21 17 41 25 46 11 6 12 12 4 20 -7 7
-19 6 -41 -5 -37 -18 -83 -11 -114 18 l-22 20 36 14 c62 25 57 67 -13 103 -46
23 -83 26 -99 6z m117 -43 c20 -8 14 -29 -14 -41 -40 -19 -95 25 -80 64 5 12
11 12 43 -2 21 -9 44 -18 51 -21z"/>
<path d="M2695 3874 c-63 -33 -185 -175 -185 -217 0 -22 8 -28 53 -43 28 -9
70 -30 91 -45 49 -36 93 -38 106 -6 13 30 29 213 23 260 -3 23 -13 43 -26 52
-26 18 -25 18 -62 -1z m61 -40 c7 -27 -3 -235 -13 -260 -8 -22 -30 -17 -86 21
-28 19 -61 35 -72 35 -12 0 -30 6 -40 14 -18 13 -18 16 -5 42 8 15 47 61 86
101 53 54 78 73 97 73 20 0 28 -6 33 -26z"/>
<path d="M1792 3387 c-75 -56 -112 -139 -112 -250 0 -88 25 -148 72 -177 40
-24 69 -25 111 -4 134 70 182 339 76 428 -41 34 -102 36 -147 3z m116 -13 c31
-21 28 -36 -4 -23 -106 40 -221 -146 -171 -276 21 -53 33 -66 73 -80 33 -11
36 -15 20 -21 -24 -9 -62 12 -90 49 -18 24 -21 43 -21 120 0 86 2 96 33 149
49 85 110 117 160 82z m12 -54 c0 -5 -9 -10 -19 -10 -22 0 -61 -44 -61 -69 0
-26 29 -61 51 -61 11 0 33 7 49 15 23 12 30 13 30 3 0 -15 -27 -104 -34 -117
-7 -11 -112 13 -132 29 -7 7 -14 19 -14 26 0 8 -11 19 -25 24 -30 12 -31 18
-4 75 29 62 71 95 120 95 21 0 39 -4 39 -10z m21 -52 c16 -30 3 -67 -28 -74
-45 -12 -71 49 -37 87 18 20 51 14 65 -13z m-140 -175 c14 -15 34 -23 66 -25
56 -4 64 -17 24 -41 -63 -37 -129 -5 -146 73 -9 40 4 59 21 34 8 -10 23 -29
35 -41z"/>
<path d="M2440 3257 c-50 -26 -104 -98 -121 -160 -15 -57 -6 -154 19 -203 35
-68 104 -98 174 -75 150 49 210 312 96 418 -50 47 -105 54 -168 20z m145 -39
l30 -30 -32 16 c-52 26 -94 21 -139 -18 -99 -85 -95 -259 7 -312 17 -8 38 -13
47 -10 67 18 68 18 34 -5 -40 -26 -108 -23 -139 8 -36 36 -57 107 -50 173 11
105 60 180 132 205 49 17 71 12 110 -27z m-15 -29 c13 -9 13 -11 1 -16 -28
-11 -61 -52 -61 -76 0 -13 10 -34 21 -46 17 -18 28 -22 52 -17 17 4 35 12 39
19 16 26 7 -39 -12 -80 -18 -42 -33 -53 -44 -34 -3 5 -23 12 -43 16 -25 4 -47
18 -66 41 -16 19 -38 34 -49 34 -17 0 -19 5 -13 33 22 100 116 168 175 126z
m36 -55 c20 -29 11 -69 -18 -88 -35 -21 -76 52 -50 90 7 10 28 21 44 23 4 1
15 -11 24 -25z m-165 -146 c17 -32 38 -45 81 -52 21 -4 38 -10 38 -14 0 -33
-81 -43 -116 -14 -26 21 -44 54 -44 81 0 28 26 27 41 -1z"/>
<path d="M2066 3018 c-22 -13 -20 -65 3 -85 11 -9 18 -20 15 -25 -8 -13 -36
-9 -56 9 -22 20 -37 9 -20 -15 6 -9 18 -32 26 -49 8 -18 16 -33 18 -33 2 0 17
-4 34 -9 34 -10 94 12 94 34 0 6 11 18 25 25 13 7 22 17 19 22 -3 4 -14 3 -25
-3 -21 -11 -59 -4 -59 12 0 5 5 9 10 9 15 0 60 47 60 62 0 7 -4 19 -9 26 -10
17 -114 32 -135 20z m114 -34 c6 -7 -13 -36 -33 -48 -24 -15 -67 11 -67 42 0
23 2 24 48 17 26 -4 49 -9 52 -11z m-37 -110 c21 -8 22 -30 1 -38 -37 -14 -84
0 -84 26 0 11 42 28 55 22 6 -2 18 -7 28 -10z"/>
<path d="M4918 3778 c-40 -40 -78 -103 -78 -132 0 -27 1 -28 39 -21 29 5 46 2
66 -11 21 -14 30 -15 52 -5 25 12 26 14 20 81 -3 38 -11 78 -17 89 -14 28 -53
27 -82 -1z m73 -28 c4 -14 7 -47 8 -73 1 -56 -14 -67 -53 -42 -17 12 -36 15
-56 11 -42 -8 -39 15 11 81 45 60 78 68 90 23z"/>
<path d="M5714 3603 c-64 -79 -73 -101 -50 -119 11 -7 23 -11 27 -8 4 2 25 -2
45 -11 48 -20 60 -19 84 5 26 26 28 133 4 168 -26 38 -58 28 -110 -35z m96 18
c16 -31 12 -117 -6 -135 -19 -19 -15 -19 -50 -1 -16 8 -39 15 -51 15 -34 0
-28 22 23 84 48 60 67 68 84 37z"/>
<path d="M4630 3009 c0 -6 -9 -9 -20 -6 -13 3 -20 0 -20 -10 0 -10 -6 -12 -22
-7 -20 6 -21 5 -10 -8 9 -12 10 -23 2 -44 -22 -56 18 -134 67 -134 57 0 101
62 87 124 -7 35 -84 113 -84 85z m52 -63 c16 -23 8 -86 -12 -106 -36 -36 -77
-19 -95 38 -9 31 13 82 39 92 21 8 55 -4 68 -24z"/>
<path d="M5210 2873 c-59 -9 -72 -15 -90 -46 -29 -46 -26 -102 6 -133 19 -20
31 -24 52 -19 41 10 72 44 79 88 3 21 12 41 19 44 8 3 14 10 14 15 0 6 -7 8
-15 4 -18 -7 -20 5 -2 23 10 11 8 12 -12 6 -20 -6 -23 -4 -18 9 4 9 3 15 -1
15 -4 -1 -18 -3 -32 -6z m16 -48 c14 -22 15 -32 5 -64 -18 -60 -59 -83 -91
-51 -28 28 -25 72 6 109 31 38 58 39 80 6z"/>
<path d="M4780 2744 c0 -10 7 -25 16 -35 21 -23 12 -64 -17 -79 -16 -9 -26 -8
-44 4 -30 20 -36 20 -28 0 8 -22 48 -35 76 -25 18 7 26 5 34 -9 14 -21 55 -30
77 -18 28 16 17 27 -21 25 -38 -2 -38 -2 -41 39 -3 35 0 42 17 47 24 6 38 34
25 47 -5 4 -28 11 -51 15 -37 6 -43 4 -43 -11z m65 -13 c19 -8 19 -8 -2 -15
-24 -8 -43 -1 -43 15 0 11 17 11 45 0z"/>
<path d="M2540 2080 c-9 -6 -10 -10 -3 -10 6 0 15 5 18 10 8 12 4 12 -15 0z"/>
<path d="M2514 2048 c-4 -7 -14 -24 -22 -38 -14 -24 -13 -24 3 -5 20 24 37 55
31 55 -3 0 -8 -6 -12 -12z"/>
<path d="M2862 1920 c-12 -12 -22 -24 -22 -27 0 -4 11 4 25 17 23 22 29 30 22
30 -2 0 -13 -9 -25 -20z"/>
<path d="M5066 1999 c-39 -30 -33 -56 27 -110 59 -54 87 -62 87 -24 0 36 -21
128 -32 143 -15 18 -52 15 -82 -9z m82 -50 c14 -60 15 -82 3 -77 -23 9 -91 72
-91 86 0 19 29 41 56 42 17 0 23 -10 32 -51z"/>
<path d="M4610 1925 c0 -14 5 -25 10 -25 6 0 10 11 10 25 0 14 -4 25 -10 25
-5 0 -10 -11 -10 -25z"/>
<path d="M4706 1932 c-2 -4 -1 -14 5 -22 7 -12 9 -10 9 8 0 23 -5 28 -14 14z"/>
<path d="M4770 1875 c0 -8 5 -15 10 -15 6 0 10 7 10 15 0 8 -4 15 -10 15 -5 0
-10 -7 -10 -15z"/>
<path d="M4604 1859 c-3 -6 -1 -16 5 -22 8 -8 11 -5 11 11 0 24 -5 28 -16 11z"/>
<path d="M4690 1840 c0 -11 5 -20 10 -20 6 0 10 9 10 20 0 11 -4 20 -10 20 -5
0 -10 -9 -10 -20z"/>
<path d="M4765 1797 c-4 -10 -5 -21 -1 -24 10 -10 18 4 13 24 -4 17 -4 17 -12
0z"/>
<path d="M4600 1775 c0 -15 4 -24 10 -20 6 3 10 12 10 20 0 8 -4 17 -10 20 -6
4 -10 -5 -10 -20z"/>
<path d="M4688 1784 c-5 -4 -8 -19 -8 -33 0 -18 3 -22 11 -14 6 6 9 21 7 33
-1 12 -6 18 -10 14z"/>
<path d="M4285 1580 c-19 -31 72 -80 149 -80 39 0 116 33 116 50 0 14 -13 12
-46 -5 -34 -18 -116 -20 -147 -4 -12 6 -32 20 -43 31 -15 14 -24 16 -29 8z"/>
<path d="M4815 1531 c-8 -14 40 -48 96 -66 61 -20 119 -13 157 21 31 27 20 30
-31 9 -20 -8 -50 -15 -66 -15 -35 0 -121 35 -121 50 0 12 -27 13 -35 1z"/>
<path d="M4651 1507 c-35 -18 -36 -34 -4 -54 26 -16 28 -22 22 -52 -11 -54
-47 -66 -93 -30 -14 11 -26 16 -26 11 0 -12 34 -42 48 -42 7 0 12 -13 12 -30
0 -63 95 -80 119 -21 7 15 25 32 41 38 21 8 30 18 30 34 l0 22 -24 -22 c-20
-19 -27 -20 -49 -10 -49 22 -47 80 3 98 41 14 40 46 -1 60 -40 14 -48 14 -78
-2z m79 -17 c13 -9 13 -11 0 -20 -20 -13 -77 -13 -86 1 -15 24 55 39 86 19z
m-25 -150 c17 -18 17 -21 1 -45 -18 -27 -45 -32 -64 -13 -19 19 -14 49 8 55
11 3 20 9 20 14 0 15 16 10 35 -11z"/>
<path d="M4285 1448 c-30 -17 -44 -40 -45 -70 0 -40 9 -57 41 -73 38 -20 56
-19 90 6 24 17 29 27 29 63 0 29 -6 48 -18 59 -25 22 -72 30 -97 15z m86 -30
c24 -30 24 -49 -2 -82 -37 -47 -109 -23 -109 36 0 64 71 93 111 46z"/>
<path d="M4993 1390 c-74 -30 -46 -150 36 -150 88 0 112 107 34 148 -25 14
-40 14 -70 2z m79 -27 c22 -20 24 -69 2 -90 -21 -21 -70 -21 -91 0 -23 22 -21
74 3 92 26 19 63 19 86 -2z"/>
<path d="M3699 2031 c-13 -11 -19 -20 -13 -21 15 0 50 27 43 34 -3 4 -17 -2
-30 -13z"/>
<path d="M3637 1973 c-4 -3 -7 -11 -7 -17 0 -6 5 -5 12 2 6 6 9 14 7 17 -3 3
-9 2 -12 -2z"/>
<path d="M3577 1873 c-4 -3 -7 -13 -7 -22 1 -13 3 -13 11 2 11 19 8 33 -4 20z"/>
<path d="M3530 1750 c0 -19 3 -21 12 -12 9 9 9 15 0 24 -9 9 -12 7 -12 -12z"/>
<path d="M3522 1635 c0 -16 2 -22 5 -12 2 9 2 23 0 30 -3 6 -5 -1 -5 -18z"/>
<path d="M3956 1984 c-10 -25 1 -29 14 -5 6 12 7 21 1 21 -5 0 -12 -7 -15 -16z"/>
<path d="M3877 1877 c-11 -29 -9 -43 4 -30 6 6 9 19 7 29 -3 18 -4 18 -11 1z"/>
<path d="M3832 1740 c0 -14 2 -19 5 -12 2 6 2 18 0 25 -3 6 -5 1 -5 -13z"/>
<path d="M2271 1796 c-6 -7 -32 -16 -57 -19 -75 -8 -131 -62 -141 -135 -8 -61
4 -108 38 -142 60 -60 158 -32 207 60 19 37 23 55 19 98 -4 40 -2 54 9 59 8 3
14 12 14 19 0 12 -4 12 -21 4 -26 -15 -35 -7 -14 13 8 9 11 18 6 22 -5 3 -12
1 -16 -5 -3 -5 -13 -10 -22 -10 -15 0 -14 2 0 18 10 10 17 22 17 25 0 12 -27
7 -39 -7z m-126 -102 c-55 -81 -11 -192 73 -182 30 4 32 3 16 -9 -23 -17 -48
-16 -83 2 -66 33 -71 157 -10 214 33 30 34 19 4 -25z m73 7 c-1 -35 8 -51 30
-51 13 0 13 2 -3 14 -17 12 -18 18 -7 40 13 30 24 33 43 10 10 -13 10 -19 0
-36 -7 -11 -10 -22 -7 -25 3 -3 8 2 12 11 10 25 24 8 24 -29 0 -50 -50 -105
-95 -105 -56 0 -84 46 -71 114 6 31 48 86 67 86 4 0 7 -13 7 -29z"/>
<path d="M2822 1545 c-25 -32 -36 -93 -23 -127 14 -38 26 -41 57 -15 20 18 28
35 31 74 9 84 -25 119 -65 68z m52 -20 c9 -35 -11 -103 -33 -114 -25 -14 -31
-5 -31 41 0 74 50 130 64 73z"/>
<path d="M1325 9821 c-22 -12 -51 -37 -65 -58 -22 -31 -25 -50 -28 -133 -3
-88 -1 -103 28 -179 18 -45 29 -85 26 -88 -3 -4 -6 -2 -6 4 0 6 -28 23 -62 39
-55 25 -75 29 -153 29 -79 0 -97 -4 -144 -29 -70 -36 -144 -112 -159 -163 -38
-126 13 -244 128 -303 59 -29 123 -45 233 -56 37 -3 67 -10 67 -14 0 -4 -12
-20 -26 -36 -40 -45 -95 -167 -103 -229 -22 -164 57 -310 209 -386 87 -43 209
-52 282 -21 100 44 159 140 180 297 6 44 12 81 13 83 2 2 23 -16 48 -40 24
-24 66 -54 93 -68 45 -23 59 -25 184 -24 115 0 143 4 188 22 78 33 118 67 148
128 22 46 26 63 21 105 -15 127 -130 226 -291 253 l-69 12 44 26 c58 34 129
111 158 172 32 65 40 170 17 230 -21 54 -77 111 -136 137 -37 17 -60 20 -130
17 -95 -5 -144 -25 -194 -77 -38 -39 -46 -39 -46 2 -1 124 -100 275 -222 338
-63 33 -179 37 -233 10z m231 -29 c152 -78 255 -305 187 -409 -28 -42 5 -24
59 33 77 81 124 106 214 112 165 10 275 -93 261 -247 -12 -140 -113 -259 -263
-310 -69 -23 -61 -28 61 -34 121 -6 190 -33 259 -100 83 -82 96 -169 41 -258
-49 -77 -162 -119 -326 -119 -82 0 -102 3 -147 26 -52 26 -162 135 -162 161 0
7 -6 13 -14 13 -11 0 -13 -10 -9 -39 7 -52 -14 -192 -37 -254 -28 -73 -66
-116 -127 -144 -46 -21 -65 -24 -131 -21 -131 7 -240 77 -308 200 -26 48 -29
62 -29 144 0 84 2 95 39 170 21 43 57 96 78 118 22 21 37 44 34 51 -3 8 -34
15 -78 20 -227 20 -317 64 -369 180 -39 86 -15 171 70 247 81 73 195 102 289
74 58 -17 152 -67 172 -91 14 -17 40 -20 40 -6 0 6 -18 38 -40 73 -46 74 -70
158 -70 244 0 145 53 198 190 191 51 -2 88 -11 116 -25z"/>
<path d="M1531 9279 c-186 -57 -238 -300 -91 -433 45 -41 92 -56 174 -56 75 0
133 27 181 83 37 43 65 118 65 172 0 81 -63 181 -138 219 -40 21 -146 29 -191
15z m171 -34 c57 -28 63 -34 102 -94 24 -37 29 -56 30 -110 1 -133 -94 -232
-224 -234 -149 -1 -267 145 -230 284 39 145 193 219 322 154z"/>
<path d="M6339 9356 c-37 -21 -75 -75 -91 -130 -14 -46 -14 -47 -26 -22 -32
72 -103 116 -184 116 -65 0 -108 -24 -131 -73 -34 -70 -11 -144 67 -215 l46
-43 -37 -14 c-68 -27 -107 -52 -138 -89 -25 -31 -30 -48 -33 -106 -4 -60 -1
-74 24 -121 50 -90 142 -127 220 -86 38 20 104 77 104 91 0 5 -15 -4 -32 -20
-66 -61 -89 -74 -135 -74 -75 0 -130 41 -158 119 -44 127 24 240 164 273 l52
12 -49 50 c-80 83 -92 104 -92 155 0 59 16 89 60 112 44 24 87 24 143 0 52
-22 81 -56 104 -123 21 -57 33 -62 33 -13 0 56 37 140 77 175 31 27 42 31 72
26 20 -3 37 -10 39 -16 2 -5 9 -10 15 -10 7 0 5 6 -4 15 -22 22 -79 28 -110
11z"/>
<path d="M6470 9325 c0 -5 9 -23 20 -40 11 -16 20 -25 20 -20 0 6 -9 24 -20
40 -11 17 -20 26 -20 20z"/>
<path d="M6511 9234 c0 -11 3 -14 6 -6 3 7 2 16 -1 19 -3 4 -6 -2 -5 -13z"/>
<path d="M6515 9165 c-3 -26 -4 -49 -2 -51 3 -3 8 16 12 41 3 26 4 49 2 51 -3
3 -8 -16 -12 -41z"/>
<path d="M6500 9093 c0 -6 -13 -25 -29 -42 l-29 -31 48 6 c59 8 105 -7 148
-46 36 -32 48 -71 38 -123 -8 -41 -27 -65 -79 -96 -34 -21 -48 -23 -118 -19
-73 4 -104 -3 -61 -14 10 -3 36 -26 57 -52 32 -39 39 -57 43 -102 5 -65 -13
-99 -65 -121 -40 -16 -103 -6 -149 24 -14 9 -27 13 -30 10 -10 -9 88 -50 131
-54 48 -5 100 24 115 63 23 60 6 145 -39 191 -11 12 -21 26 -21 30 0 4 25 9
55 10 63 3 98 18 138 60 73 78 43 194 -61 236 -23 9 -59 17 -78 17 l-36 0 17
26 c9 14 14 28 11 32 -3 3 -6 1 -6 -5z"/>
<path d="M6195 9044 c-70 -36 -97 -132 -55 -199 28 -46 66 -65 129 -65 45 0
55 4 92 40 l41 39 -4 66 c-3 54 -8 70 -28 88 -53 48 -118 59 -175 31z m126 -9
c66 -35 88 -123 46 -186 -37 -56 -95 -73 -164 -49 -36 13 -73 74 -73 120 0 94
107 158 191 115z"/>
<path d="M6167 8697 c-15 -39 54 -197 86 -197 6 0 -3 15 -20 33 -33 34 -54 97
-46 140 5 26 -11 46 -20 24z"/>
<path d="M6548 7960 c-72 -21 -118 -74 -132 -152 -8 -43 16 -111 51 -146 79
-79 214 -64 276 30 25 38 28 51 25 104 -6 96 -59 154 -153 167 -22 3 -52 1
-67 -3z m112 -32 c82 -42 114 -133 74 -211 -21 -39 -32 -50 -71 -71 -69 -35
-168 -5 -204 64 -43 79 -14 172 66 217 51 29 79 29 135 1z"/>
<path d="M5362 6884 c-67 -34 -99 -108 -82 -191 27 -131 193 -173 284 -72 71
78 59 189 -27 253 -37 27 -130 33 -175 10z m163 -27 c40 -28 59 -55 66 -96 9
-50 -8 -101 -47 -138 -118 -111 -304 21 -240 170 37 88 142 119 221 64z"/>
<path d="M7375 5981 c-160 -74 -166 -288 -11 -366 115 -58 249 -3 290 119 56
165 -120 321 -279 247z m187 -32 c53 -34 78 -84 78 -154 0 -73 -27 -122 -86
-158 -124 -75 -274 15 -274 163 0 71 42 136 109 167 42 20 130 11 173 -18z"/>
<path d="M6474 5291 c-66 -41 -66 -140 0 -181 50 -31 92 -26 132 14 95 95 -18
237 -132 167z m112 -16 c74 -51 37 -165 -54 -165 -45 0 -92 46 -92 90 0 68 91
115 146 75z"/>
<path d="M7088 3661 c-26 -53 -67 -117 -90 -142 -38 -41 -196 -159 -213 -159
-14 0 -125 -73 -125 -82 0 -6 23 -6 58 -1 133 19 282 -4 387 -60 50 -27 107
-84 129 -131 9 -20 19 -36 22 -36 3 0 3 21 -1 48 -10 78 23 166 89 233 29 30
77 66 104 79 28 14 50 29 48 35 -1 5 -38 23 -82 40 -136 53 -245 150 -260 231
-3 19 -9 36 -13 38 -3 2 -27 -40 -53 -93z m67 -2 c35 -76 175 -178 280 -203
l30 -8 -35 -18 c-53 -27 -125 -95 -153 -143 -24 -41 -29 -54 -42 -111 l-6 -28
-35 36 c-69 71 -193 116 -349 125 l-100 6 80 47 c97 57 126 79 186 141 48 49
109 151 109 181 0 29 17 17 35 -25z"/>
<path d="M6891 2470 c-29 -11 -68 -31 -86 -45 -85 -64 -156 -189 -163 -288
l-4 -57 -40 36 c-66 59 -120 79 -218 79 -68 0 -93 -5 -126 -22 -51 -27 -109
-93 -125 -141 -19 -57 -7 -168 25 -230 30 -59 111 -144 157 -164 16 -7 29 -16
29 -19 0 -4 -28 -12 -62 -18 -142 -25 -256 -116 -279 -222 -17 -78 3 -141 61
-199 50 -51 98 -71 214 -91 142 -24 257 6 345 88 30 29 56 53 57 53 1 0 5 -33
9 -72 14 -149 69 -250 161 -300 163 -87 393 2 485 187 30 62 31 68 27 162 -4
85 -9 107 -38 167 -18 38 -49 87 -68 108 -19 21 -32 38 -29 38 4 0 57 7 119
16 172 23 259 72 304 169 75 160 -31 330 -233 376 -70 15 -151 3 -227 -36 -68
-34 -76 -34 -50 0 28 38 54 144 54 226 0 116 -34 175 -117 205 -53 19 -119 17
-182 -6z m189 -22 c73 -38 85 -63 84 -181 0 -87 -4 -111 -27 -166 -15 -35 -38
-79 -52 -97 -40 -53 -30 -70 23 -37 15 10 29 20 32 24 3 3 30 19 60 34 78 40
182 46 265 14 80 -30 157 -106 173 -171 17 -68 15 -93 -13 -147 -30 -60 -88
-111 -152 -134 -36 -12 -247 -47 -289 -47 -15 0 1 -30 35 -65 101 -103 147
-277 104 -387 -38 -98 -129 -187 -227 -224 -99 -37 -237 -14 -297 49 -58 60
-108 239 -96 342 2 25 1 47 -3 50 -4 3 -20 -14 -35 -38 -61 -93 -146 -150
-241 -163 -67 -8 -216 12 -276 38 -56 24 -111 80 -128 133 -27 82 17 184 104
240 86 55 123 66 233 72 56 3 100 10 97 14 -3 5 -14 9 -25 9 -11 0 -43 12 -72
26 -166 85 -247 238 -206 389 15 56 91 127 152 145 62 17 151 8 208 -20 24
-12 70 -49 102 -82 32 -33 60 -58 62 -56 3 3 -2 19 -11 37 -44 88 36 272 159
365 76 57 183 71 257 34z"/>
<path d="M6763 1930 c-79 -16 -137 -60 -175 -133 -31 -58 -31 -165 -1 -222 81
-152 265 -191 388 -83 82 72 110 162 81 262 -36 124 -165 201 -293 176z m158
-41 c75 -38 122 -117 123 -204 0 -100 -45 -167 -139 -211 -58 -28 -104 -30
-166 -9 -53 18 -86 46 -124 104 -25 37 -29 53 -29 110 1 179 178 291 335 210z"/>
<path d="M565 2273 c17 -45 45 -221 45 -289 0 -73 -20 -199 -42 -259 -5 -16
-28 -74 -51 -128 -40 -97 -43 -124 -10 -95 33 29 117 65 191 83 110 27 230 18
300 -23 28 -18 52 -29 52 -25 0 4 -10 41 -21 82 -16 58 -20 92 -16 141 11 129
50 190 175 272 34 23 62 45 62 48 0 3 -93 6 -207 6 -179 -1 -216 2 -263 18
-88 30 -142 74 -181 149 -19 37 -48 53 -34 20z m72 -112 c18 -28 91 -69 159
-88 44 -13 99 -17 218 -17 l159 1 -29 -21 c-53 -37 -102 -94 -128 -150 -22
-46 -26 -69 -26 -143 0 -48 4 -102 9 -119 l9 -31 -72 19 c-90 24 -193 18 -298
-18 -40 -13 -81 -27 -91 -31 -16 -5 -16 -2 -6 23 79 204 95 285 86 437 -4 56
-10 114 -13 130 -7 31 6 36 23 8z"/>
<path d="M6930 270 c0 -46 3 -81 6 -77 8 8 9 145 1 154 -4 3 -7 -31 -7 -77z"/>
<path d="M5566 333 c-10 -10 -7 -143 3 -143 6 0 11 24 13 53 l3 52 25 -37 c14
-21 27 -38 30 -38 3 0 16 17 30 37 l25 37 3 -57 c2 -33 7 -55 13 -52 12 8 12
142 -1 150 -5 3 -22 -14 -37 -39 -15 -26 -30 -46 -34 -46 -3 0 -15 18 -28 40
-24 43 -35 53 -45 43z"/>
<path d="M6059 315 c-3 -26 -8 -30 -30 -27 -51 6 -79 -57 -41 -91 10 -10 32
-17 49 -17 l31 0 4 66 c3 70 -7 123 -13 69z m-7 -62 c8 -36 -3 -54 -31 -51
-26 3 -38 26 -27 54 8 20 54 18 58 -3z"/>
<path d="M6306 333 c-10 -10 -7 -141 4 -148 6 -4 10 16 11 52 0 49 2 55 12 40
7 -10 20 -28 30 -40 16 -19 20 -20 27 -6 5 9 18 27 29 40 l20 24 1 -58 c0 -38
4 -56 11 -52 11 8 10 143 -2 150 -4 3 -20 -15 -36 -40 -15 -25 -31 -45 -35
-45 -4 0 -13 10 -19 23 -20 36 -46 67 -53 60z"/>
<path d="M6787 328 c-4 -10 -9 -24 -11 -32 -3 -8 -14 -12 -28 -9 -43 8 -69
-55 -38 -92 16 -19 79 -20 86 -2 8 22 0 154 -9 135z m-12 -77 c9 -28 -5 -51
-30 -51 -25 0 -39 23 -30 51 8 25 52 25 60 0z"/>
<path d="M5752 278 c-16 -16 -15 -66 2 -84 18 -17 58 -18 74 -2 7 7 12 26 12
43 0 38 -16 55 -50 55 -14 0 -31 -5 -38 -12z m67 -22 c18 -22 -3 -56 -34 -56
-21 0 -25 5 -25 28 0 16 3 32 7 35 11 12 40 8 52 -7z"/>
<path d="M5860 234 c0 -34 4 -53 10 -49 6 3 10 24 10 46 0 36 2 40 23 37 17
-2 23 -11 25 -38 5 -54 22 -61 22 -9 0 54 -13 69 -57 69 l-33 0 0 -56z"/>
<path d="M6107 283 c-15 -15 -5 -22 23 -16 41 8 39 -14 -2 -25 -26 -6 -33 -14
-33 -33 0 -21 4 -24 40 -24 37 1 40 3 43 32 4 43 -13 73 -42 73 -12 0 -26 -3
-29 -7z m51 -65 c-5 -15 -48 -24 -48 -10 0 14 12 22 33 22 10 0 17 -5 15 -12z"/>
<path d="M6200 271 c0 -11 8 -36 17 -55 16 -34 16 -37 -3 -57 -18 -20 -18 -21
-1 -18 18 4 67 104 67 136 0 24 -18 4 -25 -27 -8 -39 -24 -38 -32 0 -7 36 -23
50 -23 21z"/>
<path d="M6497 283 c-14 -14 -6 -19 23 -15 40 6 38 -13 -2 -24 -61 -18 -46
-72 16 -60 29 6 36 11 36 31 0 44 -18 75 -43 75 -13 0 -27 -3 -30 -7z m51 -65
c-5 -15 -48 -24 -48 -10 0 14 12 22 33 22 10 0 17 -5 15 -12z"/>
<path d="M6590 233 c1 -44 3 -54 11 -41 5 10 9 24 8 30 -5 37 2 49 24 46 18
-2 23 -10 25 -46 4 -47 22 -48 22 -1 0 49 -16 69 -55 69 l-35 0 0 -57z"/>
<path d="M6837 283 c-15 -14 -6 -23 12 -13 14 7 22 7 27 -1 8 -13 -5 -26 -31
-31 -14 -2 -20 -11 -20 -28 0 -23 4 -25 40 -24 l40 0 -1 43 c-1 24 -8 47 -15
52 -17 10 -43 12 -52 2z m47 -68 c-6 -16 -44 -21 -44 -7 0 14 12 22 31 22 12
0 16 -5 13 -15z"/>
<path d="M6987 283 c-14 -13 -6 -23 11 -15 18 10 42 5 42 -8 0 -5 -13 -11 -29
-15 -66 -14 -61 -67 5 -62 32 2 34 4 34 39 0 20 -3 43 -6 52 -6 16 -45 22 -57
9z m51 -65 c-5 -15 -58 -24 -58 -10 0 15 12 22 38 22 14 0 22 -5 20 -12z"/>
<path d="M7126 275 c-17 -18 -19 -28 -10 -62 7 -25 34 -37 64 -28 30 10 24 20
-12 20 -30 0 -33 3 -33 30 0 27 3 30 33 30 17 0 31 4 29 10 -6 17 -54 17 -71
0z"/>
<path d="M7236 274 c-34 -33 -9 -94 38 -94 31 0 46 18 46 55 0 17 -5 36 -12
43 -17 17 -54 15 -72 -4z m66 -21 c8 -36 -3 -54 -31 -51 -26 3 -38 26 -27 54
8 20 54 18 58 -3z"/>
<path d="M7343 240 c-1 -28 3 -53 8 -56 5 -3 9 15 9 40 0 42 2 46 25 46 23 0
25 -4 25 -40 0 -22 5 -40 10 -40 6 0 10 18 10 41 0 36 2 40 23 37 18 -2 23
-11 28 -48 4 -35 7 -41 14 -26 4 10 4 35 -1 55 l-9 36 -71 2 -71 2 0 -49z"/>
</g>
</svg>
