<?xml version="1.0" standalone="no"?>
<!DOCTYPE svg PUBLIC "-//W3C//DTD SVG 20010904//EN"
 "http://www.w3.org/TR/2001/REC-SVG-20010904/DTD/svg10.dtd">
<svg version="1.0" xmlns="http://www.w3.org/2000/svg"
 width="816.000000pt" height="1056.000000pt" viewBox="0 0 816.000000 1056.000000"
 preserveAspectRatio="xMidYMid meet">
<metadata>
Created by potrace 1.16, written by Peter Selinger 2001-2019
</metadata>
<g transform="translate(0.000000,1056.000000) scale(0.100000,-0.100000)"
fill="#000000" stroke="none">
<path d="M225 10318 c-3 -7 -4 -2283 -3 -5058 l3 -5045 2613 0 c1436 0 2612 3
2612 8 0 4 -1172 7 -2605 7 l-2605 0 0 1588 0 1589 227 17 c216 17 236 17 383
1 164 -17 168 -17 492 16 108 11 208 19 221 17 l25 -3 -34 -130 c-48 -191 -44
-235 26 -278 62 -37 132 -26 182 28 42 45 102 216 122 350 l11 70 145 12 c329
28 513 76 585 152 l30 32 0 362 c1 332 -5 427 -26 427 -4 0 30 37 75 83 46 45
94 98 107 117 38 56 52 70 72 70 28 0 88 28 108 51 36 41 34 101 -5 204 -8 22
-15 54 -16 70 0 17 -4 45 -10 64 -9 31 -5 40 44 115 29 45 60 99 69 121 16 43
25 187 13 220 -36 99 -86 156 -164 186 -76 28 -174 21 -291 -20 -84 -31 -111
-30 -111 4 0 32 137 131 209 151 31 8 65 19 76 24 119 54 198 61 331 29 102
-24 164 -20 260 16 180 68 253 142 254 258 0 57 -37 175 -78 243 -15 27 -31
56 -34 64 -3 8 -39 60 -80 115 -200 269 -486 487 -659 502 -80 8 -97 1 -193
-71 -88 -67 -96 -67 -96 -8 0 57 -33 145 -70 183 -32 33 -43 39 -80 39 -37 0
-99 -26 -120 -50 -14 -15 -66 -30 -108 -30 -26 0 -103 12 -172 26 -128 27
-126 26 -317 8 -62 -6 -64 -6 -140 42 -100 63 -126 74 -175 74 -77 0 -126 -57
-157 -186 -24 -100 -31 -116 -85 -212 -47 -83 -98 -233 -117 -346 -16 -95 -6
-214 26 -316 27 -86 102 -240 117 -240 15 0 8 -45 -14 -97 -13 -29 -26 -53
-29 -53 -3 0 -20 44 -37 98 -73 224 -261 410 -445 437 -67 10 -177 -25 -216
-70 -51 -58 -49 -150 5 -214 37 -44 82 -56 159 -41 156 29 226 -33 299 -266
55 -172 170 -296 305 -325 36 -8 71 -25 99 -47 75 -61 55 -77 -114 -91 -71 -6
-282 -24 -469 -41 -187 -16 -357 -30 -377 -30 l-38 0 0 600 0 600 29 0 c33 0
79 29 142 92 76 75 211 106 321 74 83 -24 124 -21 144 9 21 32 12 71 -24 102
-28 24 -102 53 -134 53 -18 0 -18 1 -3 16 11 11 42 19 93 23 68 5 77 8 80 27
3 19 -59 185 -78 209 -14 18 -49 144 -65 234 -8 49 -36 162 -62 252 -41 144
-47 176 -47 261 0 94 1 98 27 118 29 23 37 76 15 98 -8 8 -8 15 1 26 8 10 10
27 6 47 -4 17 -3 34 2 38 5 3 16 16 24 27 8 12 46 57 84 100 39 42 79 89 90
104 11 16 65 88 121 161 100 134 219 311 329 489 105 171 428 824 467 945 58
178 68 213 68 234 0 12 3 21 8 21 13 0 2577 0 2590 0 9 0 12 -163 12 -784 l0
-783 -85 -5 c-132 -9 -222 -63 -281 -171 -38 -71 -44 -170 -15 -248 48 -127
187 -232 337 -255 l44 -6 -2 -1177 -3 -1176 -45 -3 c-25 -1 -153 -11 -285 -22
-223 -19 -241 -19 -250 -4 -43 71 -101 103 -153 83 -33 -13 -51 -32 -77 -84
-15 -29 -28 -40 -45 -41 -49 -3 -416 -34 -462 -40 -27 -3 -48 -10 -48 -15 0
-4 6 -6 13 -4 18 6 508 47 513 43 2 -3 -18 -69 -45 -149 -46 -134 -77 -233
-167 -534 -52 -173 -63 -223 -64 -289 l0 -59 -50 5 c-29 3 -53 1 -57 -5 -10
-16 28 -37 69 -37 30 0 38 -4 38 -19 0 -10 3 -33 6 -50 6 -31 6 -31 -38 -31
-52 0 -92 -23 -68 -39 8 -6 24 -8 35 -6 11 3 35 6 54 7 33 3 36 0 66 -57 l32
-59 -25 -36 c-21 -30 -23 -43 -19 -98 6 -74 43 -156 96 -212 45 -47 91 -59
146 -36 20 9 38 16 40 16 1 0 5 -52 8 -116 6 -106 9 -120 37 -165 35 -57 35
-59 15 -59 -19 0 -131 63 -145 81 -14 19 -137 102 -192 130 -57 30 -72 33
-153 33 -73 0 -99 -4 -140 -22 -113 -52 -159 -147 -100 -207 25 -24 31 -25
139 -25 86 0 126 -5 169 -19 53 -18 186 -86 197 -100 3 -3 25 -16 50 -28 59
-29 163 -45 215 -33 22 5 43 10 47 10 16 0 38 -109 38 -187 0 -85 8 -114 40
-144 39 -38 113 -31 154 13 31 34 22 176 -24 366 -17 70 -17 73 0 82 31 17 38
12 59 -45 14 -38 21 -79 21 -128 0 -88 21 -135 70 -159 29 -14 43 -16 73 -7
56 15 70 44 65 136 -3 77 -3 78 22 79 43 1 49 3 70 26 31 34 26 98 -16 193
-19 44 -37 103 -40 130 -3 28 -7 65 -9 82 -5 43 10 42 58 -3 29 -26 42 -50 53
-92 28 -106 98 -158 159 -118 44 29 56 59 56 135 0 88 -31 153 -106 226 -29
28 -60 63 -69 77 l-17 26 69 68 c38 38 74 78 80 89 9 16 14 18 34 8 12 -6 45
-19 71 -29 41 -15 50 -15 57 -4 13 21 6 26 -65 46 -62 18 -66 20 -60 44 10 41
26 49 98 51 50 1 70 6 74 16 9 24 -18 34 -74 27 -63 -7 -62 -10 -32 102 19 70
21 109 23 334 1 301 -16 632 -35 675 -23 49 -45 67 -92 72 -74 9 -134 -32
-314 -214 -104 -105 -115 -113 -150 -113 -21 0 -46 6 -55 14 -10 7 -45 68 -78
135 -34 68 -75 145 -91 173 -17 28 -29 52 -27 53 2 2 66 8 143 14 77 6 201 17
275 23 l135 11 680 -112 c374 -62 686 -115 694 -119 7 -4 22 -31 33 -60 10
-28 34 -66 52 -83 20 -19 45 -59 61 -101 36 -92 55 -108 122 -108 51 0 53 -1
53 -27 0 -15 -5 -53 -12 -84 -10 -48 -9 -61 4 -80 16 -25 22 -9 -133 -337 -27
-57 -49 -106 -49 -108 0 -3 -31 -70 -70 -150 -38 -81 -70 -148 -70 -150 0 -2
-21 -47 -46 -101 -26 -54 -57 -120 -69 -148 -13 -27 -32 -61 -44 -74 -31 -36
-27 -67 12 -88 24 -13 28 -18 15 -21 -10 -2 -49 17 -88 42 -114 74 -148 89
-188 81 -41 -8 -92 -57 -92 -89 0 -37 52 -105 188 -244 124 -127 130 -132 170
-132 34 0 48 6 71 31 33 34 61 87 61 116 0 10 9 33 20 51 16 26 26 32 55 32
38 0 55 20 55 65 0 24 91 222 108 235 7 5 12 13 100 180 73 139 81 150 182
255 47 50 99 106 114 125 l28 35 -7 -80 c-4 -44 -9 -183 -10 -310 -3 -236 -16
-405 -37 -461 -9 -27 -9 -37 5 -57 9 -14 26 -29 38 -32 23 -8 23 -17 -2 -160
l-12 -69 39 -34 c70 -62 93 -72 166 -72 111 0 148 23 148 93 0 48 -20 84 -83
151 -20 21 -37 46 -37 56 0 9 17 28 38 41 42 27 56 74 27 95 -14 11 -15 33 -9
209 l7 197 36 -6 c20 -3 91 -9 158 -12 96 -5 142 -3 212 11 50 10 95 23 101
30 6 7 15 37 19 66 13 79 50 219 67 250 15 30 19 126 6 146 -10 16 -72 29
-208 43 l-112 12 -7 74 c-4 40 -4 87 0 104 6 29 9 30 53 29 26 -1 64 6 84 15
21 9 53 16 73 16 46 0 86 21 156 83 75 65 99 110 99 180 0 31 4 59 10 62 5 3
10 1 10 -4 0 -6 12 -11 27 -11 14 0 76 -9 137 -20 61 -11 136 -23 166 -27 l55
-8 3 -2436 2 -2437 -22 -6 c-13 -3 -83 -6 -155 -6 -84 0 -133 -4 -133 -10 0
-7 58 -10 168 -8 l167 3 3 5049 c2 4033 0 5051 -10 5058 -7 4 -1742 8 -3856 8
-3065 0 -3844 -3 -3847 -12z m1380 -48 c-28 -164 -179 -549 -288 -735 -55 -92
-257 -375 -302 -421 -5 -6 -39 -55 -74 -110 -35 -54 -111 -169 -169 -255 -57
-86 -102 -163 -100 -170 2 -7 24 18 47 56 23 39 70 111 104 162 34 50 80 121
102 157 42 69 45 73 120 171 25 33 56 76 69 95 13 19 32 45 42 57 11 11 26 31
34 43 8 12 20 28 25 34 28 30 129 192 164 263 97 195 189 433 231 598 l22 90
110 -1 c60 -1 111 -4 113 -6 6 -6 -21 -109 -62 -232 -32 -98 -82 -214 -129
-301 -21 -37 -112 -219 -193 -385 -34 -69 -79 -154 -100 -190 -22 -36 -54 -90
-72 -120 -129 -222 -370 -552 -527 -724 -34 -38 -70 -82 -80 -98 -9 -15 -20
-28 -24 -28 -4 0 -31 15 -60 34 -71 45 -183 96 -226 103 l-35 6 6 88 c7 94 42
240 101 429 67 209 87 259 192 478 30 62 65 147 79 190 40 128 151 711 132
692 -3 -3 -13 -50 -22 -105 -16 -102 -84 -433 -111 -540 -16 -65 -26 -88 -89
-215 -54 -108 -144 -321 -161 -380 -7 -25 -29 -97 -49 -160 -57 -179 -84 -298
-91 -387 -7 -88 -7 -88 -63 -77 l-31 7 0 958 c0 888 1 958 17 961 9 2 318 3
685 3 l669 0 -6 -35z m5031 27 c2 -1 12 -45 23 -97 48 -220 107 -365 200 -490
63 -83 289 -316 396 -406 99 -83 407 -393 430 -431 11 -18 22 -33 26 -33 4 0
7 -16 7 -36 0 -21 9 -48 20 -63 19 -26 19 -27 1 -50 -24 -30 -24 -48 1 -89 50
-82 0 -300 -111 -483 -107 -176 -125 -222 -160 -413 -21 -115 -21 -120 -4
-133 11 -7 27 -13 38 -13 14 0 17 -4 12 -17 -50 -118 -86 -242 -78 -273 8 -30
29 -34 198 -40 152 -5 163 -7 218 -34 38 -20 57 -35 57 -48 0 -10 0 -467 0
-1015 l0 -998 -32 -1 c-18 0 -58 6 -88 13 -30 7 -91 18 -135 24 -142 19 -152
24 -159 67 -3 22 -17 55 -31 76 -14 20 -25 47 -24 59 0 22 0 22 10 -1 10 -26
9 -27 91 35 61 47 78 79 78 151 0 39 5 49 44 87 54 54 66 86 59 162 -4 48 -2
65 16 93 26 44 26 68 0 123 -27 55 -22 79 30 135 22 24 43 52 46 62 6 20 -45
129 -71 151 -9 7 -14 30 -14 61 0 50 -17 94 -44 117 -12 10 -16 33 -16 90 0
83 -5 94 -70 167 -25 26 -41 58 -50 92 -12 54 -55 106 -94 118 -51 14 -87 37
-101 64 -9 17 -22 75 -30 130 -16 104 -19 117 -41 166 -22 50 -49 68 -103 68
-58 0 -85 -18 -208 -137 l-81 -79 -79 -5 c-68 -5 -85 -3 -123 17 -38 19 -54
22 -111 16 -65 -6 -66 -6 -90 26 -44 58 -74 93 -94 109 -11 10 -33 28 -48 42
-54 46 -114 53 -163 17 -70 -50 -134 -241 -134 -398 0 -80 -1 -84 -29 -108
-58 -48 -84 -107 -101 -225 -5 -37 -28 -120 -50 -185 -50 -148 -51 -193 -9
-309 34 -93 35 -130 4 -216 -19 -55 -19 -100 -1 -143 14 -33 13 -35 -15 -62
-52 -50 -62 -131 -29 -236 11 -34 20 -69 20 -75 0 -19 -35 -16 -260 23 -113
19 -232 39 -265 44 -33 5 -141 23 -240 40 -99 17 -207 35 -240 41 -33 5 -123
19 -200 32 l-140 23 -3 1176 -2 1176 37 7 c212 39 324 251 340 645 6 152 -9
270 -57 441 -10 36 -15 70 -11 76 3 5 22 15 41 23 62 24 159 90 198 135 86 98
116 213 90 349 -15 76 -32 93 -49 50 -5 -16 -26 -49 -46 -74 -115 -144 -317
-266 -460 -278 -37 -3 -63 -9 -63 -16 0 -6 9 -24 20 -41 37 -55 99 -190 115
-250 36 -137 44 -385 15 -461 -6 -15 -8 -29 -5 -32 14 -14 24 21 34 114 21
198 -18 411 -105 571 -24 46 -44 84 -44 87 0 2 22 6 49 9 150 18 402 183 481
315 14 23 28 42 32 42 10 0 21 -124 16 -178 -12 -120 -113 -240 -264 -313 -46
-22 -84 -43 -84 -46 0 -2 11 -48 24 -101 45 -181 51 -232 50 -402 -1 -197 -29
-343 -89 -461 -65 -129 -147 -183 -280 -183 -69 -1 -89 4 -147 31 -224 106
-294 331 -154 499 43 51 129 98 198 107 65 9 154 -8 221 -42 31 -16 57 -26 57
-21 0 13 -67 51 -113 65 l-42 12 -3 779 c-1 428 0 784 2 789 2 7 366 9 1071 8
588 -2 1069 -4 1071 -6z m357 3 c4 0 7 -10 7 -23 0 -27 37 -122 82 -212 40
-77 78 -127 191 -246 50 -53 143 -156 205 -229 63 -72 116 -129 119 -126 6 6
-202 250 -357 420 -55 60 -115 136 -133 170 -41 74 -100 221 -96 235 3 7 151
12 452 13 l447 3 0 -509 0 -510 -50 100 c-28 55 -58 109 -68 120 -9 10 -37 50
-62 88 -24 38 -49 74 -55 80 -22 24 -79 119 -102 174 -13 31 -22 44 -18 27 10
-50 59 -146 117 -230 30 -44 75 -110 101 -147 25 -36 66 -109 91 -162 l46 -96
0 -189 0 -188 -31 -7 c-17 -3 -60 -6 -94 -6 l-63 0 -53 68 c-54 69 -190 209
-315 322 -459 416 -544 522 -625 775 -32 99 -72 272 -65 283 3 6 129 6 329 2z
m917 -1533 l0 -70 -42 7 c-79 12 -105 25 -122 60 -19 41 -19 41 -1 59 10 10
36 15 90 14 l75 0 0 -70z m-29 -77 l29 0 0 -75 0 -74 -32 5 c-66 12 -116 43
-128 79 -8 25 -8 40 0 56 11 19 18 21 57 15 25 -3 59 -6 74 -6z m-68 -142 c12
-6 38 -14 57 -18 l35 -5 5 -668 c3 -367 2 -667 -2 -667 -3 0 -30 12 -59 28
-50 25 -64 27 -219 33 -91 3 -166 7 -166 8 -12 11 -11 38 1 61 18 35 75 70
170 104 137 49 169 120 191 421 7 105 20 212 28 239 9 27 16 56 15 65 -3 41
-41 -115 -49 -199 -5 -52 -14 -142 -19 -200 -6 -58 -17 -127 -26 -155 -9 -27
-19 -56 -21 -63 -3 -9 -15 -2 -37 21 -41 44 -90 55 -171 38 -38 -8 -62 -9 -69
-2 -14 14 39 272 71 346 14 33 49 98 77 145 28 47 60 103 72 125 31 58 70 200
79 284 3 39 9 71 11 71 2 0 14 -5 26 -12z m-7458 -203 c90 -19 258 -103 297
-148 22 -25 23 -41 3 -57 -12 -10 -32 -9 -102 6 -56 12 -129 19 -200 18 l-113
0 0 98 c0 113 -7 109 115 83z m176 -216 c147 -26 177 -50 125 -100 -25 -24
-29 -24 -221 -24 l-196 0 3 65 c3 59 5 65 28 71 48 13 147 9 261 -12z m-177
-196 c-21 -89 -28 -283 -15 -418 14 -145 40 -304 53 -325 7 -12 8 -10 4 5 -3
11 -15 106 -27 210 -23 205 -22 455 2 543 l12 44 118 -5 119 -5 4 -113 c3 -93
11 -136 39 -234 19 -66 38 -127 41 -135 3 -8 15 -69 26 -134 17 -98 32 -147
85 -272 36 -85 65 -155 65 -157 0 -2 -35 -7 -77 -10 -43 -3 -79 -11 -81 -16
-9 -28 -20 -5 -27 56 -8 79 -40 170 -124 349 -68 149 -97 241 -116 382 l-13
97 -1 -70 c-1 -44 8 -107 24 -172 27 -108 35 -129 108 -285 74 -157 98 -234
104 -326 4 -48 11 -85 17 -87 6 -2 33 -6 59 -10 61 -8 117 -54 117 -96 0 -40
-34 -46 -136 -25 -135 28 -258 -1 -339 -80 -64 -63 -96 -84 -126 -84 l-29 0 0
703 0 704 23 11 c12 6 41 11 63 11 l41 1 -13 -57z m7341 -383 c50 -47 22 -82
-97 -124 -43 -16 -90 -37 -104 -49 l-27 -21 7 40 c4 21 11 44 15 49 5 6 16 33
26 60 24 67 39 77 103 72 37 -2 59 -10 77 -27z m-1383 -149 c53 -34 93 -73
134 -132 31 -45 27 -53 -35 -65 -31 -6 -38 -3 -69 32 -18 21 -43 49 -54 62
-25 28 -45 28 -75 0 -16 -15 -23 -33 -23 -57 0 -56 -25 -136 -56 -180 -16 -22
-32 -41 -36 -41 -16 0 -7 90 16 182 36 143 85 228 131 228 11 0 42 -13 67 -29z
m916 -24 c21 -22 26 -41 66 -257 17 -88 20 -152 10 -163 -3 -3 -28 6 -55 21
l-49 26 0 123 c0 110 -2 125 -20 143 -38 38 -71 25 -163 -62 -25 -23 -32 -25
-53 -16 -13 6 -24 14 -24 18 0 12 171 171 194 180 38 15 72 11 94 -13z m-5760
-103 c92 -59 141 -71 212 -55 76 18 183 12 312 -15 108 -23 130 -25 181 -16
33 6 73 22 91 34 57 42 84 52 113 42 39 -14 70 -65 88 -150 20 -88 16 -133
-21 -236 l-27 -77 -31 38 c-67 82 -167 148 -274 182 -103 33 -299 38 -414 10
-200 -47 -317 -120 -402 -251 -51 -77 -86 -200 -86 -301 0 -67 29 -197 58
-259 26 -57 109 -165 149 -196 21 -16 47 -36 57 -46 56 -51 245 -114 379 -127
l69 -6 -31 -40 c-17 -22 -35 -45 -41 -52 -5 -7 -10 -15 -10 -19 0 -23 -44 -63
-77 -69 -69 -12 -247 -76 -340 -121 -51 -24 -98 -44 -105 -44 -33 0 -140 123
-175 200 -34 75 -36 205 -4 269 l22 42 60 -51 c60 -49 99 -64 99 -36 0 8 -19
29 -42 48 -53 41 -100 90 -136 143 -15 22 -29 42 -32 45 -3 3 -20 39 -37 80
-100 241 -84 441 56 725 38 77 72 158 76 180 10 62 43 146 63 166 44 40 94 31
200 -37z m4833 -16 c13 -18 30 -39 37 -47 12 -13 8 -16 -31 -26 -25 -6 -57
-19 -72 -29 -15 -10 -29 -15 -32 -12 -3 3 -2 35 2 71 11 102 44 117 96 43z
m869 -14 c11 -28 11 -142 1 -187 l-6 -28 -74 55 c-41 30 -78 62 -83 70 -6 10
8 28 49 65 65 58 98 65 113 25z m-484 -40 c22 -9 41 -18 43 -20 2 -1 -14 -23
-34 -48 -36 -45 -39 -46 -94 -46 -31 1 -87 5 -126 10 -81 11 -177 -1 -242 -30
-58 -26 -57 -4 2 39 33 23 65 35 122 46 43 7 107 25 143 38 76 30 133 33 186
11z m221 -24 c6 0 43 -28 81 -62 38 -35 95 -85 126 -111 48 -41 98 -107 82
-107 -24 0 -103 56 -156 112 -66 68 -102 88 -187 102 -44 8 -83 40 -67 55 11
11 62 20 89 15 11 -2 25 -4 32 -4z m-79 -79 c20 -6 57 -16 81 -22 35 -8 60
-26 115 -83 39 -40 84 -79 99 -86 46 -23 74 -57 87 -107 6 -26 25 -75 42 -110
20 -42 33 -88 39 -140 4 -43 9 -89 11 -103 5 -42 -25 -30 -34 13 -4 21 -14 50
-22 65 -7 15 -19 54 -26 87 -13 68 -22 85 -85 155 -25 28 -51 65 -58 83 -20
45 -63 94 -100 112 -18 8 -63 19 -102 25 -55 9 -78 18 -112 46 -46 38 -53 62
-26 94 17 19 17 19 35 0 10 -11 35 -24 56 -29z m-3903 -21 c159 -79 310 -212
490 -431 42 -52 125 -193 154 -264 31 -73 42 -156 27 -202 -4 -12 -21 -28 -39
-36 -106 -50 -340 82 -571 321 -69 71 -185 219 -186 235 0 4 -8 17 -19 28 -10
11 -30 45 -46 76 -71 147 -85 247 -38 297 25 27 29 28 87 22 42 -4 86 -18 141
-46z m3625 -7 c80 -5 90 -8 90 -25 0 -37 -58 -50 -214 -46 -131 3 -144 1 -186
-20 -52 -27 -69 -48 -94 -115 -16 -42 -28 -55 -100 -102 -44 -30 -83 -50 -84
-44 -2 5 1 31 8 58 9 38 22 57 61 92 27 24 49 50 49 58 0 8 19 33 43 56 65 62
209 110 299 99 21 -2 78 -7 128 -11z m194 -48 c37 -34 60 -43 166 -65 70 -14
101 -39 142 -117 18 -34 47 -77 65 -96 41 -45 61 -85 69 -138 4 -24 15 -66 25
-92 11 -26 19 -59 19 -73 0 -26 -46 -104 -62 -104 -10 0 -9 13 7 121 10 64
-10 97 -93 152 -60 39 -73 54 -99 109 -40 82 -70 111 -146 138 -147 52 -167
67 -167 128 0 35 15 72 29 72 4 0 25 -16 45 -35z m-4114 -25 c0 -104 108 -314
243 -475 97 -114 240 -248 332 -309 108 -72 225 -126 275 -126 36 0 14 -17
-67 -52 -97 -42 -193 -48 -298 -18 -97 27 -156 23 -276 -19 -134 -47 -177 -54
-250 -41 -34 6 -79 20 -98 30 -126 64 -155 225 -75 415 36 88 37 94 44 255 8
194 25 251 101 340 46 53 69 53 69 0z m-780 -47 c0 -77 -8 -101 -34 -110 -29
-10 -46 -5 -67 20 -17 21 -46 114 -38 122 6 5 91 23 117 24 20 1 22 -3 22 -56z
m50 45 c0 -7 5 -42 10 -77 10 -73 38 -111 80 -111 44 0 64 32 68 111 4 57 7
67 19 60 10 -5 15 -26 16 -62 2 -70 26 -109 67 -109 34 0 57 21 66 58 11 43
13 44 52 15 54 -40 89 -80 113 -130 19 -39 21 -56 16 -156 -4 -100 -8 -121
-42 -202 -20 -49 -39 -114 -43 -145 -5 -53 -8 -58 -81 -127 -42 -40 -79 -73
-83 -73 -11 0 -55 82 -62 115 -4 19 -1 45 9 68 32 77 9 144 -62 173 -26 12
-33 20 -33 43 0 16 7 34 15 41 22 19 8 30 -37 30 -39 0 -40 -1 -25 -18 10 -10
17 -31 17 -46 0 -22 -7 -30 -43 -45 -105 -45 -128 -111 -72 -206 27 -46 125
-262 125 -276 0 -4 -14 -12 -30 -19 -75 -31 -296 9 -410 73 -42 24 -130 95
-148 119 -7 9 -18 23 -25 30 -6 7 -25 32 -41 55 l-28 42 26 32 c41 48 33 78
-28 109 l-50 24 35 9 c42 11 69 34 69 60 0 11 -21 40 -46 65 -45 43 -46 45
-40 89 19 137 158 282 326 339 77 26 89 23 90 -19 0 -34 33 -89 64 -108 42
-25 53 -24 87 10 26 26 29 36 29 94 0 35 3 67 7 70 10 11 23 8 23 -5z m108 2
l32 0 0 -67 c0 -48 -5 -72 -17 -85 -39 -44 -82 -6 -95 83 -9 69 -5 83 26 75
11 -3 36 -6 54 -6z m5416 -14 c59 -26 79 -53 90 -121 5 -30 21 -55 57 -94 l49
-53 0 -72 c0 -65 3 -77 35 -126 57 -91 50 -108 -62 -150 -36 -13 -63 -49 -73
-95 -4 -22 -12 -31 -30 -33 -14 -2 -31 -9 -38 -14 -21 -18 -24 -2 -8 37 9 21
16 49 16 64 0 33 -33 87 -58 95 -10 4 -28 20 -40 36 l-22 30 19 97 c17 82 19
112 11 186 -5 49 -14 94 -19 101 -13 15 -3 136 10 136 5 0 33 -11 63 -24z
m-929 -11 c39 0 82 3 98 8 64 18 2 -64 -79 -103 -32 -16 -61 -20 -146 -20
-130 0 -161 -16 -195 -100 -19 -48 -63 -100 -86 -100 -4 0 -25 -12 -46 -26
-55 -36 -67 -69 -51 -142 14 -66 11 -114 -7 -120 -7 -2 -26 10 -43 26 -37 37
-39 79 -10 184 22 81 42 106 120 156 79 50 98 69 115 121 31 94 103 137 205
123 30 -4 87 -7 125 -7z m-4322 -25 c33 -13 37 -18 37 -50 -1 -42 -20 -70 -48
-70 -26 0 -37 21 -45 81 -6 43 -1 63 12 57 3 -2 23 -10 44 -18z m5118 -61 c23
-22 41 -112 37 -184 l-3 -60 -34 70 c-28 59 -50 147 -51 204 0 15 16 5 51 -30z
m-586 -22 c17 -8 55 -22 85 -31 87 -25 116 -48 149 -118 37 -79 43 -85 116
-135 82 -56 88 -64 81 -115 -18 -122 -18 -129 -1 -149 27 -29 52 -23 83 21 19
28 34 39 53 40 14 0 40 5 57 11 47 16 82 -11 82 -63 0 -51 -20 -88 -70 -131
-63 -53 -140 -57 -140 -7 0 28 -25 15 -51 -26 -28 -46 -120 -115 -216 -163
-167 -85 -358 -111 -513 -72 -122 31 -216 80 -283 147 -31 31 -57 61 -57 66 0
5 -7 16 -15 24 -8 8 -23 44 -34 80 -18 60 -18 68 -4 110 11 32 13 61 8 97 -13
93 -11 128 10 143 27 20 37 17 30 -7 -6 -18 -4 -19 12 -11 10 6 27 19 37 31
27 29 72 42 171 45 92 4 107 10 99 42 -12 44 -72 50 -181 18 -23 -6 -23 -6 -7
32 30 74 40 79 172 79 128 1 159 9 222 63 34 29 36 30 55 12 11 -10 34 -24 50
-33z m-337 -174 c3 -10 -15 -13 -69 -13 -45 0 -69 4 -63 9 21 21 125 24 132 4z
m-5058 -188 c28 -28 32 -39 24 -52 -11 -18 -59 -35 -68 -25 -9 9 -7 112 2 112
4 0 23 -16 42 -35z m-694 -91 l21 -5 -20 -40 c-11 -23 -22 -70 -25 -109 l-5
-68 -67 -7 c-81 -8 -104 1 -125 52 -33 79 -6 139 75 168 38 14 112 18 146 9z
m5315 -58 c26 -18 35 -34 50 -95 22 -85 50 -138 110 -205 46 -52 148 -117 222
-142 l46 -16 -21 -29 -22 -29 -202 0 -201 0 -13 45 c-11 39 -10 55 9 129 24
95 23 118 -15 233 -28 82 -33 181 -9 149 8 -10 28 -28 46 -40z m-5218 17 c56
-37 59 -43 32 -65 -14 -10 -32 -43 -41 -72 l-17 -52 -36 6 -36 6 1 64 c1 66
24 140 44 140 6 0 29 -12 53 -27z m1343 -30 c21 -23 24 -34 19 -63 -10 -50
-13 -52 -55 -45 -26 4 -48 1 -69 -9 -39 -21 -38 -21 -56 14 -21 41 -19 73 8
97 28 26 43 31 90 32 29 1 44 -5 63 -26z m5634 17 c0 -5 -5 -10 -11 -10 -5 0
-7 5 -4 10 3 6 8 10 11 10 2 0 4 -4 4 -10z m-6369 -19 c21 -16 22 -22 11 -45
-15 -34 -38 -33 -46 2 -4 15 -9 35 -12 45 -7 23 17 22 47 -2z m6329 -32 c15
-26 5 -37 -20 -21 -28 17 -40 15 -40 -7 0 -11 13 -25 34 -35 19 -9 36 -23 40
-31 8 -21 43 -19 78 6 16 12 31 19 34 16 6 -6 -95 -124 -113 -131 -15 -6 -65
24 -95 58 -21 22 -22 45 -8 98 19 65 67 91 90 47z m70 6 c-7 -8 -16 -12 -21
-9 -13 8 -1 24 18 24 13 0 13 -3 3 -15z m-6886 -44 l38 -38 -34 -24 c-18 -13
-41 -34 -51 -46 -22 -28 -31 -28 -57 -6 -33 28 -24 79 23 131 28 30 37 28 81
-17z m6903 -11 c-14 -11 -31 -20 -38 -20 -8 0 -6 7 6 20 10 11 27 20 38 20 18
0 17 -2 -6 -20z m-6835 -67 c35 -42 88 -162 88 -200 0 -7 -10 -13 -23 -13 -12
0 -39 -9 -60 -20 -38 -20 -57 -19 -57 2 0 6 -16 44 -36 84 -40 82 -39 91 27
140 39 29 42 29 61 7z m6613 -15 c4 -13 26 -41 50 -63 56 -52 53 -61 -53 -158
-49 -44 -193 -148 -277 -200 -173 -106 -235 -179 -295 -352 -44 -125 -85 -215
-98 -215 -4 0 -23 16 -41 36 -19 19 -44 42 -57 50 -39 26 -51 71 -58 214 -6
147 -7 145 54 191 58 44 76 62 102 104 31 50 84 87 163 115 99 36 120 47 204
115 94 76 258 183 283 184 9 1 20 -9 23 -21z m-5484 0 c9 -7 23 -33 32 -58 24
-63 78 -127 177 -210 102 -85 90 -76 170 -130 73 -49 90 -64 90 -78 0 -12 -44
-42 -61 -42 -6 0 -55 29 -108 64 -53 35 -118 77 -146 94 -78 48 -185 165 -185
201 0 6 -4 19 -10 29 -5 9 -19 40 -30 69 -18 49 -18 53 -2 62 24 14 55 13 73
-1z m375 -182 c31 -31 122 -76 154 -76 30 0 34 -20 9 -42 -13 -12 -40 -36 -59
-55 l-36 -33 -75 53 c-91 63 -199 156 -199 171 0 6 28 36 63 68 l62 56 26 -56
c14 -32 39 -70 55 -86z m4813 115 c24 -6 23 -9 -33 -56 -65 -57 -113 -86 -171
-105 -72 -23 -129 -53 -162 -84 l-33 -30 0 31 c0 30 5 34 107 83 59 28 110 54
113 58 3 4 24 20 46 35 23 15 52 39 64 52 25 26 30 27 69 16z m486 -87 c21
-50 19 -76 -7 -110 -20 -25 -23 -39 -21 -108 l3 -78 -41 -40 c-49 -48 -69 -92
-69 -152 0 -36 -5 -50 -27 -71 -16 -14 -32 -24 -38 -22 -22 8 -28 78 -11 145
17 72 21 122 8 122 -14 0 -62 -164 -62 -212 0 -39 -6 -52 -42 -93 -25 -28 -44
-62 -48 -84 -6 -30 -8 -33 -14 -16 -5 11 -17 42 -28 69 -23 57 -19 106 14 174
36 76 2 66 -41 -11 -30 -54 -36 -113 -18 -165 13 -39 14 -50 1 -90 -18 -58
-29 -72 -77 -97 -60 -31 -82 -59 -106 -132 -25 -77 -38 -93 -79 -93 -37 0 -92
-18 -115 -38 -9 -8 -19 -13 -21 -11 -14 17 -26 84 -26 144 0 66 2 74 31 106
17 19 40 54 51 79 11 25 23 54 28 65 5 11 21 56 36 100 15 44 37 96 50 115 24
37 89 110 98 110 4 0 6 -11 6 -25 0 -14 7 -55 16 -90 15 -59 15 -71 1 -125
-16 -63 -6 -92 15 -43 14 31 15 154 3 225 -12 73 3 95 108 163 173 112 322
235 361 298 23 37 43 34 61 -9z m-6673 -124 c23 -51 24 -60 11 -60 -9 0 -36
-20 -60 -45 l-43 -45 -14 23 c-19 28 -46 104 -46 127 0 11 16 26 43 39 66 33
78 29 109 -39z m5748 -72 c0 -61 -1 -64 -37 -88 -31 -21 -50 -26 -129 -28
l-92 -4 -6 44 c-7 41 -15 89 -19 105 -1 3 27 6 63 5 36 -1 92 4 125 12 99 22
95 25 95 -46z m-4721 28 c29 -26 157 -116 166 -116 11 0 115 -73 115 -81 0
-16 -16 -16 -65 -3 -132 37 -200 45 -302 39 -59 -4 -103 -3 -103 2 0 20 141
181 159 183 3 0 16 -11 30 -24z m4397 -21 c23 -60 14 -158 -21 -248 -15 -37
-29 -67 -30 -65 -2 2 -10 26 -18 55 -14 48 -14 54 4 87 26 48 24 79 -7 131
l-25 44 20 20 c34 34 57 27 77 -24z m-5378 -82 c13 -66 12 -67 -12 -92 l-26
-25 -40 39 c-22 21 -40 45 -40 53 0 18 73 92 92 92 9 0 18 -23 26 -67z m5275
16 c21 -37 22 -63 3 -81 -24 -25 -28 -58 -12 -121 20 -79 10 -125 -37 -172
-19 -19 -39 -35 -45 -35 -5 0 -13 47 -17 105 -4 69 -11 108 -21 116 -11 9 -16
6 -24 -15 -8 -22 -14 -25 -42 -20 -48 8 -74 23 -89 50 -14 27 -39 32 -39 8 0
-8 11 -34 23 -57 28 -49 53 -138 45 -159 -5 -11 -106 -48 -133 -48 -19 0 -100
208 -114 294 -10 60 3 113 36 143 23 22 30 23 236 23 l212 0 18 -31z m-3446
-30 c36 -11 80 -49 112 -96 28 -41 38 -147 22 -221 -11 -53 -94 -197 -118
-206 -7 -3 -29 2 -49 10 -120 50 -203 -25 -214 -195 l-5 -75 -70 -47 c-115
-77 -245 -107 -384 -89 -156 20 -237 57 -318 144 -77 82 -121 177 -135 293 -6
50 -8 98 -5 106 6 16 103 40 205 52 51 6 168 -10 185 -25 4 -3 1 -33 -8 -65
-25 -99 -16 -198 23 -242 88 -100 210 -98 380 5 81 49 206 170 237 229 11 21
23 40 26 43 14 11 49 123 49 156 0 72 -34 107 -103 107 -61 0 -105 -17 -168
-65 l-45 -35 -37 32 c-23 20 -35 38 -31 46 11 26 99 83 174 112 114 45 190 52
277 26z m930 -73 c21 -24 49 -66 63 -92 14 -27 27 -51 30 -54 3 -3 35 -63 71
-135 61 -118 70 -132 110 -153 32 -17 55 -22 83 -18 34 4 53 19 149 116 l110
112 24 -26 c12 -14 23 -28 23 -32 0 -3 -18 -26 -40 -51 -54 -62 -92 -130 -85
-152 3 -12 29 -26 73 -41 37 -12 71 -26 77 -31 13 -13 47 -11 67 5 13 9 18 31
20 91 2 43 8 80 13 82 6 2 27 -12 47 -31 34 -33 36 -36 43 -129 11 -149 9
-433 -4 -527 -35 -248 -136 -416 -302 -497 -90 -45 -156 -57 -260 -49 -219 17
-519 104 -519 152 0 30 -31 81 -56 93 -14 6 -38 11 -54 11 -24 0 -35 8 -55 40
-30 48 -31 57 -5 65 29 9 25 25 -9 31 -19 4 -31 14 -35 28 -10 37 -7 45 22 48
l27 4 -32 19 c-29 18 -33 25 -33 65 0 70 44 240 120 470 10 30 24 75 30 100
14 55 100 320 135 415 46 125 88 144 152 71z m2700 -13 c9 -26 23 -33 66 -33
l37 0 0 -46 0 -46 -77 7 c-43 4 -81 10 -86 14 -6 6 1 33 28 109 6 18 25 15 32
-5z m-5413 -10 c3 -10 9 -24 12 -30 8 -18 -27 -17 -52 1 -19 15 -19 15 1 30
26 20 31 20 39 -1z m5526 7 c0 -5 -20 -10 -45 -10 -25 0 -45 5 -45 10 0 6 20
10 45 10 25 0 45 -4 45 -10z m-4670 -69 c17 -94 10 -120 -35 -123 -86 -4 -79
-9 -86 57 -4 33 -10 74 -14 92 -8 35 -15 32 102 41 19 2 23 -6 33 -67z m225
48 c37 -13 40 -17 43 -53 3 -39 -17 -105 -42 -138 -12 -16 -16 -16 -62 -2 -27
9 -68 19 -92 22 l-43 7 -3 75 c-1 41 -6 84 -11 94 -8 18 -4 19 81 13 49 -3
107 -11 129 -18z m-377 -50 c7 -28 12 -70 12 -93 l0 -43 -57 -12 c-32 -7 -98
-24 -146 -37 -101 -28 -108 -26 -138 41 -30 66 -26 83 29 107 53 24 249 87
273 87 11 1 19 -15 27 -50z m572 41 c0 -5 -2 -10 -4 -10 -3 0 -8 5 -11 10 -3
6 -1 10 4 10 6 0 11 -4 11 -10z m-10 -54 c59 -30 72 -41 93 -82 32 -61 -18
-163 -80 -164 -18 0 -164 68 -180 84 -3 2 5 23 17 46 12 24 24 67 27 97 l6 55
33 -5 c18 -3 56 -17 84 -31z m392 -3 c10 -9 18 -27 18 -39 0 -41 -52 -157 -96
-215 -50 -65 -148 -158 -190 -179 -16 -8 -31 -18 -34 -21 -3 -4 -25 -17 -50
-29 -63 -33 -161 -34 -211 -2 -65 40 -86 137 -53 235 11 33 21 47 34 47 24 0
31 -22 18 -62 -7 -23 -7 -45 1 -73 13 -49 18 -55 58 -83 76 -54 218 -12 339
100 81 76 107 135 101 227 -2 36 -7 76 -12 89 -7 20 -4 22 26 22 18 0 41 -7
51 -17z m-112 -38 c20 -37 8 -133 -23 -182 -57 -91 -199 -183 -282 -183 -38 0
-52 5 -76 29 -23 24 -29 38 -29 75 0 24 4 47 9 51 19 11 60 -18 66 -47 18 -82
156 -48 234 57 34 46 48 116 31 159 -20 54 43 92 70 41z m1982 14 c32 -17 47
-68 49 -170 1 -52 0 -96 -3 -99 -2 -3 -21 6 -41 20 -32 22 -37 30 -37 66 0 52
-17 68 -67 60 -28 -5 -44 -1 -62 12 l-23 19 33 32 c31 30 101 70 122 71 5 0
17 -5 29 -11z m1920 -19 c20 0 43 -3 52 -6 22 -8 20 -34 -2 -34 -10 0 -28 -14
-41 -30 -19 -27 -27 -30 -57 -25 -122 19 -117 14 -79 75 23 37 26 38 57 29 18
-5 49 -9 70 -9z m-5107 -60 c4 -22 15 -50 26 -64 26 -33 24 -42 -13 -57 -18
-7 -50 -26 -72 -43 -46 -35 -57 -31 -99 38 l-30 47 34 36 c36 37 128 95 140
87 4 -2 10 -22 14 -44z m4736 4 c8 -35 11 -104 4 -104 -16 0 -55 26 -59 39
-10 39 -17 92 -11 100 3 5 17 6 33 2 19 -5 29 -16 33 -37z m-3645 -69 c-4 -17
-20 -45 -38 -61 l-31 -29 20 30 c11 17 26 55 34 85 10 40 14 48 17 31 2 -13 1
-38 -2 -56z m4084 26 c0 -21 3 -53 6 -70 l7 -31 -78 0 c-70 0 -209 24 -228 40
-4 3 6 19 23 35 l29 28 78 -11 c82 -11 105 -6 123 28 19 35 40 24 40 -19z
m-5420 -26 c0 -2 -14 -24 -31 -49 -21 -29 -32 -58 -34 -86 -2 -41 -4 -44 -49
-61 -109 -41 -185 -133 -171 -207 5 -29 24 -54 90 -117 123 -118 129 -134 130
-335 l0 -164 -30 -7 c-59 -14 -157 -30 -161 -27 -1 2 10 17 25 34 51 54 73
110 73 183 0 80 -19 127 -75 188 -181 197 -578 146 -678 -87 -48 -110 -24
-226 63 -311 37 -37 40 -41 18 -36 -14 4 -53 7 -87 7 l-63 0 0 500 c0 393 3
500 13 500 22 0 841 70 862 74 32 5 105 6 105 1z m3372 -115 c-1 -63 -5 -126
-8 -139 -6 -26 -1 -26 -111 15 -88 32 -90 41 -32 122 54 74 109 123 134 120
19 -3 20 -10 17 -118z m-3308 57 c3 -13 17 -40 30 -60 l25 -36 -22 -14 c-58
-37 -117 -27 -117 20 0 32 46 113 64 113 8 0 16 -10 20 -23z m416 -35 c0 -236
168 -459 383 -507 51 -11 52 -12 55 -50 8 -89 -36 -245 -86 -313 l-25 -33
-101 3 c-96 3 -101 4 -113 28 -13 25 -101 213 -153 325 -64 139 -96 268 -106
420 -8 125 0 148 58 168 24 8 53 15 66 16 20 1 22 -3 22 -57z m5754 -6 c23
-42 26 -61 26 -140 -1 -55 -6 -100 -14 -114 -7 -13 -47 -54 -90 -93 -70 -63
-80 -69 -121 -69 -24 0 -66 -8 -92 -18 -43 -15 -111 -19 -228 -13 -80 5 -36
55 56 65 75 9 101 32 124 109 20 68 45 101 95 127 21 11 47 31 58 44 11 14 22
23 25 20 6 -7 -27 -70 -51 -97 -37 -42 40 -38 88 5 14 13 36 38 49 56 20 29
23 41 17 88 -6 55 7 105 24 88 5 -5 20 -31 34 -58z m-1281 29 c42 -29 46 -50
23 -125 l-13 -45 -59 0 -58 0 -25 60 c-14 33 -29 62 -33 63 -22 10 -4 32 30
38 20 4 48 13 62 20 33 17 30 18 73 -11z m239 -5 c47 -11 118 -20 163 -20 l80
0 65 -60 c35 -33 60 -63 56 -67 -14 -15 -229 -4 -316 15 l-85 19 1 37 c1 36 0
37 -27 31 -18 -4 -29 -2 -29 4 0 20 -39 11 -51 -11 -8 -16 -14 -19 -17 -10 -4
13 54 82 69 82 4 0 45 -9 91 -20z m-4902 -110 l0 -90 -42 0 c-24 0 -56 -7 -72
-15 -15 -8 -30 -15 -32 -15 -2 0 -4 24 -4 53 0 47 4 57 33 83 43 41 89 73 105
74 9 0 12 -24 12 -90z m918 63 c-10 -2 -26 -2 -35 0 -10 3 -2 5 17 5 19 0 27
-2 18 -5z m3910 -23 c7 0 12 -11 12 -24 0 -27 20 -38 125 -61 76 -17 266 -24
303 -11 22 7 23 5 20 -26 l-3 -33 -104 -3 c-72 -2 -139 3 -210 17 -58 10 -139
24 -178 31 -66 12 -73 15 -73 36 0 13 14 37 30 54 17 17 30 36 30 42 0 6 8 4
18 -5 10 -10 24 -17 30 -17z m1009 -32 c-2 -13 -4 -3 -4 22 0 25 2 35 4 23 2
-13 2 -33 0 -45z m-4478 -38 c44 -22 51 -35 51 -95 0 -39 -3 -44 -34 -59 -72
-34 -176 -5 -176 48 0 59 52 126 97 126 13 0 41 -9 62 -20z m-1664 -10 c36
-19 37 -20 12 -20 -34 0 -125 -35 -154 -59 -34 -29 -73 -92 -73 -119 0 -21 -2
-22 -15 -12 -9 8 -15 29 -15 56 0 37 6 49 43 87 44 47 108 86 142 87 12 0 38
-9 60 -20z m110 -11 c11 -16 1 -20 -35 -12 -29 5 -31 7 -15 14 29 11 43 10 50
-2z m-29 -35 c19 -5 22 -17 33 -117 6 -62 17 -136 25 -164 13 -49 13 -57 -6
-105 -38 -98 -48 -152 -48 -261 l0 -108 -55 3 -55 3 -3 165 c-3 197 -13 226
-107 324 -66 68 -74 99 -45 156 16 31 82 80 130 98 33 12 99 15 131 6z m5169
-30 c88 -17 161 -25 225 -24 52 1 100 1 105 1 6 -1 11 -23 12 -50 1 -43 -1
-50 -20 -55 -41 -11 -55 -6 -64 21 -9 26 -13 28 -80 29 -67 2 -71 0 -87 -27
-20 -35 -26 -35 -173 -9 -172 30 -166 28 -159 63 3 16 6 43 6 60 l0 30 53 -7
c28 -4 111 -18 182 -32z m-4949 -2 c5 -4 15 -34 21 -67 6 -33 13 -66 15 -74 2
-10 -9 -17 -33 -21 -20 -4 -53 -16 -73 -28 -21 -12 -41 -22 -45 -22 -10 0 -31
101 -31 150 0 36 10 47 60 63 23 8 74 7 86 -1z m1270 -102 c41 -9 59 -8 95 4
61 22 64 21 76 -19 10 -32 9 -37 -19 -60 -16 -14 -42 -28 -56 -31 -15 -3 -33
-8 -41 -10 -23 -7 -78 7 -99 26 -10 10 -22 37 -26 60 -7 42 1 72 13 51 4 -5
29 -15 57 -21z m3927 -25 c17 -23 24 -25 63 -19 42 6 44 5 44 -18 0 -24 -1
-24 -157 -36 -229 -18 -451 5 -454 47 -1 18 2 45 5 49 2 1 73 -10 160 -24 86
-14 163 -23 171 -20 9 3 19 16 24 29 9 22 14 24 67 21 50 -2 61 -6 77 -29z
m-3737 -119 c-7 -28 -45 -46 -97 -46 -41 0 -67 10 -106 40 -22 17 -22 18 41
18 64 0 113 17 146 50 14 14 15 13 18 -12 2 -16 1 -38 -2 -50z m-1397 19 c6
-25 25 -75 42 -111 16 -37 29 -74 27 -83 -4 -19 -70 -52 -118 -58 -34 -5 -36
-3 -62 54 -57 123 -69 174 -44 198 21 21 77 43 112 44 29 1 32 -2 43 -44z
m1111 13 c5 -13 18 -34 28 -47 l20 -24 -63 -76 c-35 -42 -105 -120 -156 -174
-92 -96 -95 -98 -148 -104 -49 -6 -53 -5 -48 13 16 53 38 167 45 234 l7 74 70
19 c62 16 183 73 210 98 15 14 25 11 35 -13z m3795 -31 c94 -1 210 2 259 7
l89 9 -6 -154 c-5 -122 -15 -193 -46 -344 -22 -104 -42 -216 -46 -247 -4 -32
-12 -58 -18 -58 -6 0 -19 -8 -29 -17 -16 -14 -24 -15 -48 -6 -45 17 -64 -2
-55 -55 4 -24 13 -49 22 -57 19 -20 72 -19 95 2 17 16 18 11 18 -120 0 -132
-1 -136 -22 -143 -33 -10 -114 -7 -155 7 l-36 11 7 142 c4 77 9 266 11 418 2
153 6 282 9 287 8 12 -27 221 -36 221 -4 0 -8 -27 -10 -61 l-3 -61 -43 32
c-51 36 -44 14 12 -39 20 -19 36 -39 36 -44 0 -17 -63 -91 -158 -187 -90 -91
-134 -153 -207 -295 -17 -33 -57 -103 -88 -157 -31 -53 -57 -98 -57 -101 0 -3
-9 -26 -20 -52 l-20 -47 -35 26 c-19 15 -61 39 -94 55 l-59 28 35 74 c19 41
45 97 58 124 13 28 52 113 88 190 110 238 138 298 172 370 78 168 105 227 105
234 0 21 24 28 63 19 23 -5 119 -10 212 -11z m-5621 -29 c68 -29 137 -91 167
-150 32 -62 29 -164 -6 -224 -66 -112 -174 -174 -321 -182 -108 -6 -183 13
-261 63 -150 99 -174 277 -54 403 48 51 76 69 158 98 93 34 228 30 317 -8z
m6047 10 c-1 -5 -1 -48 -1 -96 0 -60 -4 -94 -14 -108 -8 -10 -17 -16 -20 -13
-4 3 -3 57 0 118 6 88 10 111 21 109 8 -2 14 -6 14 -10z m121 -143 l3 -145
-69 0 c-61 0 -67 2 -61 18 4 9 11 73 15 142 4 69 8 126 9 128 1 1 23 2 50 2
l50 0 3 -145z m-4229 85 c20 -8 37 -19 37 -25 0 -5 -13 -25 -29 -44 l-28 -34
-23 21 c-13 12 -32 24 -42 28 -10 3 -18 8 -18 12 0 11 51 63 58 60 4 -2 24
-10 45 -18z m-473 -12 c0 -18 -19 -147 -26 -181 l-6 -27 -25 20 c-14 11 -41
22 -60 26 -33 6 -34 8 -29 43 3 20 8 57 12 84 l6 47 64 0 c45 0 64 -4 64 -12z
m-899 -120 c16 -31 33 -65 38 -75 35 -65 81 -165 81 -178 0 -12 -19 -15 -114
-15 l-113 0 -6 73 c-7 85 2 154 34 251 l23 69 15 -34 c8 -19 27 -60 42 -91z
m1299 50 c19 -13 35 -28 37 -35 5 -15 -136 -153 -161 -157 -12 -2 -46 -8 -76
-14 -30 -5 -56 -9 -57 -8 -1 1 29 36 68 77 38 41 86 93 106 117 19 23 39 42
43 42 4 0 22 -10 40 -22z m-1009 -145 c25 -54 44 -102 42 -108 -7 -19 -83 -66
-115 -71 -33 -6 -33 -5 -74 83 -62 134 -63 123 9 159 34 17 69 31 77 32 10 1
31 -31 61 -95z m5169 32 c0 -16 -6 -25 -15 -25 -15 0 -21 31 -8 43 13 14 23 6
23 -18z m385 3 c141 -24 92 -48 -96 -48 l-129 0 0 36 0 36 83 -7 c45 -3 109
-11 142 -17z m-5011 -37 l28 -29 -26 -78 c-37 -112 -39 -114 -71 -75 -15 17
-40 38 -56 46 l-28 15 30 65 c16 35 29 72 29 81 0 25 59 10 94 -25z m4888 -25
l218 -1 0 -23 c0 -58 -33 -76 -170 -88 -70 -6 -312 10 -346 23 -11 4 -13 15
-8 42 10 62 10 63 51 55 21 -4 136 -8 255 -8z m-4521 -67 c6 -12 7 -25 2 -30
-9 -9 -312 -39 -326 -32 -18 10 15 43 46 44 18 0 68 9 112 19 113 25 152 25
166 -1z m-817 -123 c23 -58 56 -196 56 -232 0 -6 -29 -14 -67 -18 -38 -3 -78
-9 -89 -12 -19 -5 -22 0 -29 42 -4 27 -18 86 -31 131 -13 46 -24 87 -24 92 0
4 17 13 38 19 20 6 53 23 72 37 19 14 37 22 40 18 4 -5 19 -39 34 -77z m5200
64 c65 -6 141 -8 167 -5 27 3 72 7 100 11 l51 5 -7 -28 c-4 -15 -17 -77 -30
-138 l-22 -110 -39 -19 c-34 -17 -61 -20 -199 -20 -88 -1 -182 3 -209 7 l-48
9 6 51 c9 68 44 235 52 248 3 6 18 8 32 5 15 -3 80 -11 146 -16z m-4866 -20
c72 -52 65 -100 -29 -184 -67 -60 -69 -60 -83 5 -3 14 -17 43 -32 64 l-26 38
32 25 c17 13 43 37 58 53 15 15 30 28 33 29 3 0 25 -13 47 -30z m496 -314 c3
-330 2 -339 -19 -369 -39 -59 -124 -94 -310 -127 -116 -21 -391 -48 -400 -39
-2 3 0 73 5 155 5 82 10 194 10 249 l0 101 38 13 c43 15 125 64 168 101 42 36
108 121 133 174 13 25 30 47 39 50 9 2 82 10 162 16 80 7 147 14 149 16 18 17
22 -41 25 -340z m-634 326 c0 -17 -103 -82 -130 -82 -8 0 -30 54 -30 74 0 7
30 12 80 13 44 2 80 -1 80 -5z m-429 -66 l8 -29 -187 6 c-185 6 -293 -4 -364
-31 -59 -24 -207 -34 -491 -36 l-297 -1 0 39 0 39 102 -6 c77 -4 116 -11 153
-28 42 -19 68 -23 165 -23 118 -1 163 9 245 55 17 9 53 20 80 24 28 4 70 11
95 15 25 4 144 7 264 6 l220 -1 7 -29z m17 -64 c24 -31 33 -27 -211 -92 -143
-38 -321 -108 -383 -151 -105 -72 -109 -212 -8 -254 71 -29 109 -21 284 63 58
27 128 59 156 70 55 23 200 56 212 48 11 -6 -5 -212 -26 -341 l-18 -109 -200
-22 c-321 -36 -382 -38 -551 -19 -141 16 -164 16 -322 1 -93 -9 -195 -16 -225
-16 l-56 0 0 384 c0 341 2 385 16 390 9 3 142 6 297 6 286 0 410 11 517 45 73
23 86 24 300 18 172 -4 207 -7 218 -21z m412 -56 c20 -53 13 -84 -22 -99 -42
-19 -68 -27 -68 -23 0 3 -7 40 -15 83 -19 99 -20 91 17 106 31 12 34 12 55
-13 12 -15 27 -39 33 -54z m1560 59 c9 -10 9 -15 1 -15 -6 0 -11 -6 -11 -14 0
-8 -11 -17 -25 -20 -38 -10 -50 -41 -25 -66 11 -11 20 -24 20 -29 0 -5 8 -17
17 -27 16 -15 16 -17 -2 -30 -45 -33 -75 0 -90 98 -5 36 -3 48 16 71 34 44 78
58 99 32z m30 -56 c0 -20 -15 -26 -25 -9 -9 15 3 43 15 35 5 -3 10 -15 10 -26z
m-47 -23 c9 -22 -18 -40 -33 -22 -6 9 -9 20 -5 26 9 15 32 12 38 -4z m-1917
-51 c14 -58 17 -132 7 -138 -5 -3 -25 -7 -46 -8 l-38 -4 -3 60 c-2 33 -6 75
-11 93 -7 28 -5 32 13 32 12 0 24 5 27 11 16 24 40 2 51 -46z m1974 6 c0 -37
-24 -59 -45 -41 -21 18 -19 36 7 54 31 22 38 20 38 -13z m-2089 -21 c4 -14 7
-52 8 -86 l1 -61 -42 -10 c-49 -12 -111 -35 -118 -44 -11 -12 -92 -39 -101
-34 -5 4 -9 16 -9 29 0 26 -28 115 -43 134 -5 7 -7 15 -4 18 14 14 245 83 272
81 22 -2 31 -8 36 -27z m2169 0 c14 -14 20 -33 20 -66 0 -39 -5 -51 -31 -75
-44 -41 -99 -40 -141 2 l-31 31 44 25 c56 31 79 52 90 81 11 27 23 28 49 2z
m117 -36 c14 -4 35 -28 54 -63 17 -31 61 -86 98 -122 36 -36 99 -100 139 -142
40 -41 90 -84 112 -94 33 -15 40 -24 46 -58 3 -22 15 -62 25 -88 21 -57 15
-83 -27 -116 -47 -37 -67 -25 -85 49 -9 36 -21 77 -28 93 -9 23 -8 29 9 39 25
16 26 48 3 48 -10 0 -27 -7 -38 -16 -35 -27 -106 -42 -163 -34 -29 3 -54 4
-57 2 -10 -10 19 -32 55 -42 40 -11 40 -11 68 -137 12 -51 2 -63 -49 -63 -39
0 -69 20 -69 46 0 23 -52 176 -69 205 -9 14 -29 45 -46 69 l-30 43 -3 194 c-4
212 -7 203 55 187z m-1924 -84 c5 -36 5 -102 2 -148 l-7 -83 -31 6 c-18 3 -59
7 -91 9 l-60 3 0 132 c-1 124 0 132 19 136 11 2 29 6 40 9 11 2 43 3 70 3 l50
-2 8 -65z m2597 45 c7 -14 33 -44 58 -67 42 -39 43 -42 26 -55 -36 -26 -62
-51 -66 -63 -7 -22 -56 18 -68 56 -6 19 -13 34 -15 34 -1 0 -16 -7 -31 -15
-16 -8 -46 -15 -66 -15 -47 0 -78 -28 -78 -70 0 -16 -4 -30 -8 -30 -4 0 -23
19 -42 43 -19 23 -60 68 -92 100 -32 31 -55 58 -51 58 4 1 67 1 138 0 118 -2
136 0 190 23 77 31 89 31 105 1z m-495 -23 c11 -14 47 -53 80 -88 33 -34 79
-82 102 -107 86 -93 129 -99 121 -16 -5 50 5 71 28 62 10 -4 14 -24 14 -67 0
-59 16 -119 46 -177 22 -44 36 -127 24 -150 -30 -56 -67 2 -107 170 -7 28 -15
37 -41 43 -47 12 -362 328 -362 362 0 18 77 -8 95 -32z m-2773 -30 c9 -29 20
-72 23 -95 l6 -42 -63 -27 c-126 -54 -208 -35 -208 49 0 52 45 103 125 143 82
41 96 37 117 -28z m5512 36 c-16 -54 -45 -98 -63 -98 -26 0 -61 46 -61 80 0
26 1 27 49 22 30 -2 51 0 55 7 13 20 28 12 20 -11z m-2094 -170 c37 -82 20
-180 -33 -186 -35 -4 -56 17 -73 75 -20 67 -17 93 13 125 40 42 70 37 93 -14z
m891 -51 c25 -16 35 -31 37 -54 2 -20 20 -51 52 -87 53 -60 99 -125 119 -166
15 -31 -23 10 -119 125 -70 85 -151 155 -180 155 -29 0 -33 17 -8 34 31 22 59
20 99 -7z m292 -25 c72 -40 123 -90 109 -104 -8 -8 -27 1 -67 33 -31 24 -74
54 -96 67 -22 13 -37 28 -34 32 6 10 41 -1 88 -28z m-2573 -1 c0 -5 -5 -11
-11 -13 -12 -4 -15 -93 -5 -127 l8 -23 -85 3 c-47 2 -89 7 -93 12 -4 4 -7 21
-7 37 0 37 31 72 87 99 43 21 106 28 106 12z m155 -16 c43 -20 133 -79 204
-133 61 -46 119 -75 166 -81 36 -5 41 -10 55 -48 8 -23 11 -45 7 -49 -13 -13
-105 -16 -157 -5 -29 6 -79 27 -111 47 -94 56 -191 102 -250 117 -47 12 -55
18 -66 48 -14 37 -9 93 10 115 16 19 89 13 142 -11z m-1537 -8 c21 -1 10 -282
-12 -305 -3 -2 -25 3 -49 12 -23 9 -66 16 -95 16 -58 0 -59 2 -43 75 5 22 15
80 21 129 l12 88 77 -7 c42 -4 82 -8 89 -8z m3637 -40 c17 -11 59 -56 95 -99
36 -44 72 -87 80 -96 29 -32 50 -71 41 -76 -15 -10 -88 51 -155 130 -37 43
-74 83 -84 90 -30 21 -74 83 -67 95 7 10 12 7 90 -44z m270 -105 c36 -71 36
-73 20 -98 -9 -15 -20 -22 -24 -18 -4 5 -24 36 -46 69 -22 33 -61 85 -87 114
-73 84 -65 99 26 48 70 -40 76 -46 111 -115z m51 73 l39 -34 -22 -22 c-12 -13
-24 -21 -26 -18 -16 19 -54 99 -49 103 10 11 20 6 58 -29z m794 -39 c41 -1 90
3 108 7 21 6 32 5 32 -2 0 -22 -65 -45 -130 -46 -77 0 -130 19 -130 47 0 16 3
17 23 7 12 -7 56 -13 97 -13z m10 -90 c0 -2 -13 -9 -30 -15 -24 -8 -30 -7 -30
5 0 9 10 14 30 14 17 0 30 -2 30 -4z m50 -46 c-8 -5 -25 -10 -37 -10 -51 0
-71 -32 -38 -60 8 -7 15 -19 15 -28 0 -15 11 -15 113 4 22 4 37 3 37 -3 0 -6
-21 -13 -46 -17 -25 -3 -58 -15 -74 -26 -37 -26 -54 -25 -89 6 -25 22 -29 31
-24 62 7 47 18 60 57 71 44 13 106 14 86 1z m33 -34 c6 -14 -30 -26 -79 -26
-25 0 -34 24 -11 33 27 11 85 7 90 -7z m-4886 -39 l31 -16 -23 -88 c-12 -49
-28 -100 -34 -116 l-11 -27 -30 28 c-29 28 -88 52 -129 52 -26 0 -26 1 1 107
l21 85 71 -4 c39 -3 85 -12 103 -21z m4888 -2 c-52 -22 -75 -27 -75 -16 0 6
10 13 23 15 12 3 31 7 42 9 37 8 40 5 10 -8z m81 -82 c6 -20 2 -31 -16 -45
-32 -26 -134 -25 -175 2 l-30 20 27 0 c15 0 44 11 64 25 25 17 50 25 80 25 39
0 44 -3 50 -27z m-2492 -26 c8 -54 1 -75 -29 -83 -52 -13 -85 20 -85 86 0 30
-5 28 91 38 12 2 18 -9 23 -41z m-255 -66 c6 -39 11 -82 11 -97 0 -76 -104
-88 -123 -14 -3 13 -4 57 0 97 l6 72 41 4 c23 2 44 4 47 5 3 1 11 -29 18 -67z
m-2342 -32 c24 -12 51 -32 60 -45 14 -22 14 -26 -1 -49 -39 -59 -114 -71 -160
-25 -21 21 -28 85 -13 124 9 23 61 20 114 -5z"/>
<path d="M6361 9420 c-13 -27 -39 -67 -57 -89 -76 -88 -248 -172 -378 -186
-33 -3 -62 -8 -64 -10 -3 -3 7 -22 21 -43 14 -21 35 -74 47 -118 22 -76 51
-260 42 -268 -2 -2 -18 0 -35 5 -141 40 -263 -45 -261 -183 2 -141 142 -227
274 -167 98 44 148 109 176 224 19 81 17 133 -6 239 -11 49 -19 90 -17 91 1 1
30 8 65 14 78 15 150 54 214 116 39 38 52 45 59 34 14 -22 67 -151 74 -181 7
-27 7 -28 -25 -17 -17 6 -54 9 -81 7 -89 -9 -146 -88 -137 -187 9 -87 100
-161 200 -161 70 0 144 53 181 130 30 64 30 262 0 365 -30 103 -72 203 -108
260 -34 52 -141 175 -153 175 -4 0 -18 -22 -31 -50z m108 -57 c71 -88 99 -138
141 -256 37 -103 50 -179 50 -283 0 -120 -35 -201 -106 -245 -69 -42 -191 -12
-239 59 -47 69 -25 175 45 216 39 23 111 24 145 2 14 -9 26 -12 30 -6 14 22
-68 248 -96 266 -6 3 -29 -14 -52 -39 -71 -76 -142 -115 -230 -129 -87 -14
-91 -19 -61 -99 12 -31 17 -78 17 -159 1 -96 -3 -123 -20 -161 -82 -180 -290
-227 -375 -84 -34 56 -36 105 -5 165 40 80 113 108 212 83 28 -7 54 -13 59
-13 9 0 2 105 -15 205 -11 65 -45 168 -66 200 -22 33 -16 45 25 45 150 1 391
146 447 270 10 22 21 40 25 40 4 0 35 -35 69 -77z"/>
<path d="M2751 7061 c-44 -44 -14 -157 81 -299 72 -110 117 -162 242 -287 169
-168 316 -264 403 -265 37 0 44 4 58 30 8 16 15 39 15 52 0 43 -95 237 -131
268 -3 3 -20 26 -38 52 -49 72 -246 273 -333 340 -146 111 -255 151 -297 109z
m170 -52 c140 -84 348 -278 439 -409 13 -19 32 -44 42 -54 10 -11 41 -64 68
-117 38 -74 50 -108 50 -142 0 -39 -3 -46 -23 -51 -45 -11 -144 35 -252 118
-183 142 -386 382 -466 553 -28 60 -37 121 -21 137 16 17 110 -3 163 -35z"/>
<path d="M1550 6646 c0 -22 64 -72 142 -110 71 -36 102 -43 112 -28 9 15 -10
30 -84 65 -41 19 -90 47 -109 61 -39 29 -61 33 -61 12z"/>
<path d="M2243 6542 c-83 -47 -110 -81 -55 -67 48 12 167 79 167 95 0 27 -29
20 -112 -28z"/>
<path d="M6652 6748 c-16 -16 -15 -43 1 -56 6 -5 46 -15 87 -22 88 -14 164
-49 215 -97 43 -40 53 -38 30 7 -40 77 -125 138 -230 166 -62 17 -88 17 -103
2z m165 -48 c25 -11 44 -22 41 -25 -2 -3 -36 2 -74 11 -38 8 -79 18 -91 20
-13 2 -23 9 -23 16 0 16 91 3 147 -22z"/>
<path d="M6180 6603 c-45 -17 -80 -79 -80 -145 0 -36 3 -40 38 -55 63 -27 136
-29 170 -4 72 51 64 157 -15 200 -22 11 -86 14 -113 4z m100 -24 c0 -5 -13 -9
-28 -9 -17 0 -38 -10 -51 -24 -27 -29 -39 -99 -21 -121 20 -24 6 -28 -35 -11
-34 14 -36 18 -31 50 7 40 25 85 44 105 25 26 122 34 122 10z m42 -36 c34 -31
17 -111 -29 -132 -38 -17 -81 -14 -93 8 -14 28 -12 41 5 35 38 -15 63 55 28
75 -16 9 -16 12 -3 21 23 15 71 12 92 -7z m-84 -51 c3 -16 -2 -22 -16 -22 -27
0 -33 10 -21 32 13 24 33 19 37 -10z"/>
<path d="M6742 6579 c-51 -26 -92 -81 -99 -136 -5 -36 -3 -39 31 -56 90 -42
184 -34 247 22 36 31 43 44 43 74 0 48 -41 91 -99 106 -61 15 -74 14 -123 -10z
m148 -20 c61 -38 75 -74 44 -117 -20 -29 -36 -28 -28 3 16 63 -25 115 -91 115
-35 0 -49 -5 -70 -27 -32 -35 -34 -89 -4 -127 25 -32 9 -35 -47 -9 -33 16 -35
20 -30 51 16 104 139 164 226 111z m-17 -41 c38 -45 1 -128 -58 -128 -14 0
-37 11 -50 25 -28 27 -33 47 -10 39 19 -8 45 13 45 36 0 10 -8 21 -17 25 -17
6 -17 8 2 21 25 18 64 11 88 -18z m-94 -17 c16 -10 6 -31 -14 -31 -17 0 -28
17 -20 30 8 12 16 12 34 1z"/>
<path d="M6374 6361 c-40 -25 -47 -36 -40 -66 9 -37 47 -57 109 -57 70 -1 127
30 127 69 0 11 -6 8 -20 -9 -40 -52 -165 -56 -191 -6 -10 19 -8 25 15 45 15
13 39 23 54 23 15 0 34 5 42 10 30 19 -64 10 -96 -9z"/>
<path d="M6348 6171 c-27 -9 -48 -20 -48 -26 0 -22 60 -113 85 -129 31 -20
120 -25 153 -7 22 11 82 92 82 109 0 5 7 16 17 23 17 15 1 19 -132 35 -96 11
-113 11 -157 -5z m111 -10 c8 -5 24 -6 35 -1 27 10 87 -12 67 -25 -18 -10
-168 -11 -201 0 -25 8 -25 8 10 21 42 15 70 17 89 5z m131 -53 c0 -12 -60 -46
-93 -54 -42 -9 -88 3 -119 30 -16 13 -28 25 -28 27 0 2 54 4 120 4 66 0 120
-3 120 -7z m-120 -71 c26 0 57 6 68 12 16 8 22 8 22 1 0 -6 -17 -18 -37 -27
-44 -18 -106 -12 -134 13 -28 25 -23 37 7 17 16 -10 45 -17 74 -16z"/>
<path d="M7056 5446 c-20 -42 -20 -85 -1 -155 12 -48 12 -58 -2 -95 -9 -22
-22 -50 -30 -61 -15 -22 -17 -55 -4 -55 16 0 71 125 71 161 0 19 -7 57 -15 84
-16 50 -12 119 6 131 12 7 12 24 0 24 -5 0 -16 -15 -25 -34z"/>
<path d="M3774 5522 c-20 -13 -33 -48 -44 -118 -6 -38 -18 -98 -26 -132 -11
-43 -13 -67 -6 -74 9 -9 166 11 224 28 27 8 31 39 13 102 -37 128 -116 224
-161 194z m60 -39 c27 -29 78 -128 90 -176 13 -53 2 -63 -81 -77 -43 -7 -88
-16 -102 -21 -13 -5 -25 -8 -28 -6 -2 2 4 35 12 73 9 38 20 101 26 139 16 102
36 118 83 68z"/>
<path d="M3695 4864 c-77 -40 -110 -106 -103 -208 3 -54 10 -74 36 -111 31
-44 32 -49 21 -88 -41 -155 97 -310 314 -352 238 -46 408 -13 503 99 37 43 69
133 59 165 -4 13 5 34 29 65 113 148 36 366 -130 366 -41 0 -59 -5 -81 -24
l-29 -25 -55 27 c-44 21 -72 27 -152 30 -57 3 -117 -1 -144 -8 -39 -9 -48 -9
-52 2 -2 7 -19 28 -37 46 -29 29 -38 32 -90 32 -34 0 -72 -7 -89 -16z m47 -39
c-60 -67 -52 -187 16 -246 30 -26 41 -30 78 -27 52 4 53 -9 3 -35 -43 -23
-120 -18 -157 10 -34 25 -63 85 -70 140 -9 83 71 192 142 193 15 0 13 -5 -12
-35z m118 -6 c24 -44 -43 -97 -81 -63 -24 22 -24 39 1 64 26 26 66 26 80 -1z
m376 -50 c24 -12 46 -25 49 -29 3 -4 -4 -28 -15 -51 -28 -63 -27 -161 3 -219
41 -81 118 -118 205 -96 29 7 32 6 32 -16 0 -44 -30 -114 -65 -151 -74 -78
-188 -113 -334 -103 -179 12 -297 54 -381 136 -53 52 -76 114 -67 186 6 59 13
65 61 54 95 -21 185 26 210 110 14 48 9 141 -9 170 -3 6 -5 10 -3 10 2 0 21 7
43 15 56 22 210 12 271 -16z m-328 -27 c6 -18 9 -38 6 -45 -7 -18 -58 -47 -82
-47 -11 0 -28 -7 -37 -16 -33 -34 36 -60 87 -33 26 14 33 6 13 -15 -26 -25
-97 -21 -128 8 -32 29 -51 95 -42 147 8 44 20 51 29 15 3 -13 16 -26 27 -29
31 -8 86 17 94 43 8 26 18 18 33 -28z m464 -7 c-17 -19 -34 -51 -38 -72 -8
-44 8 -114 36 -153 26 -37 94 -63 140 -55 l35 6 -31 -31 c-44 -45 -109 -52
-159 -19 -102 69 -106 264 -8 338 44 33 59 25 25 -14z m128 5 c13 -24 -4 -66
-32 -84 -13 -8 -23 -5 -43 14 -31 29 -31 37 -3 67 27 28 64 30 78 3z m60 -56
c22 -66 2 -90 -105 -122 -22 -6 -30 -15 -30 -32 0 -28 40 -43 88 -33 40 8 28
-13 -12 -22 -38 -8 -82 14 -116 59 -20 27 -26 46 -26 89 -1 30 4 63 9 74 10
17 11 17 18 -2 13 -37 36 -55 70 -55 35 0 64 28 64 62 0 32 28 19 40 -18z
m-660 -56 c-27 -22 -64 -32 -85 -24 -26 10 -16 24 22 31 20 4 46 13 57 21 30
21 35 -4 6 -28z m680 -48 c0 -40 -58 -76 -111 -68 -40 5 -28 32 17 40 23 5 50
17 60 28 25 25 34 25 34 0z"/>
<path d="M4028 4543 c-26 -7 -22 -46 7 -73 13 -12 22 -27 19 -31 -10 -16 -61
-9 -79 11 -18 20 -44 17 -26 -3 5 -7 12 -29 16 -49 10 -55 37 -79 90 -85 56
-7 101 11 109 43 4 13 16 33 28 44 12 11 18 23 15 27 -4 4 -13 1 -19 -5 -19
-19 -73 -14 -93 8 -18 19 -17 20 3 20 25 0 64 38 60 60 -2 8 -18 17 -38 21
-19 3 -44 8 -55 11 -11 3 -28 3 -37 1z m83 -30 c32 -6 35 -13 17 -31 -27 -27
-98 -6 -98 29 0 18 4 20 26 15 15 -4 39 -10 55 -13z m-24 -104 c6 -6 26 -14
44 -18 l32 -6 -24 -28 c-42 -49 -127 -35 -148 24 -9 27 -8 28 27 32 20 2 42 4
48 5 5 1 15 -3 21 -9z"/>
<path d="M605 4780 c-176 -38 -279 -186 -216 -308 28 -55 58 -81 120 -110 46
-22 70 -26 136 -26 273 2 417 254 224 394 -66 47 -179 69 -264 50z m219 -45
c55 -28 99 -81 110 -131 18 -83 -41 -175 -144 -223 -47 -22 -68 -26 -145 -25
-77 0 -97 4 -142 27 -125 65 -150 196 -55 292 95 95 257 121 376 60z"/>
<path d="M2883 9374 c1 -224 -99 -416 -263 -503 -69 -37 -81 -59 -17 -32 108
46 208 51 305 15 64 -24 127 -68 149 -104 9 -17 21 -30 25 -30 4 0 8 -6 9 -12
0 -7 8 -30 17 -51 l17 -38 -3 88 c-3 69 1 101 17 150 43 127 112 218 201 263
52 26 51 40 -2 40 -155 1 -347 120 -425 265 l-30 57 0 -108z m109 -76 c79 -77
178 -130 272 -147 33 -6 62 -11 65 -11 3 0 -15 -13 -40 -28 -24 -16 -57 -44
-73 -63 -54 -63 -115 -218 -116 -294 l-1 -30 -17 25 c-59 88 -170 141 -299
143 -46 1 -83 4 -83 7 0 3 9 11 19 17 35 22 108 127 134 193 28 72 47 162 47
225 0 42 11 68 18 43 2 -7 36 -43 74 -80z"/>
<path d="M2996 7927 c-27 -7 -51 -17 -53 -23 -2 -6 12 -37 31 -69 55 -91 71
-147 70 -255 -1 -72 -6 -110 -22 -154 -12 -33 -19 -63 -15 -67 5 -3 33 -14 63
-24 108 -34 277 -141 243 -152 -43 -15 -93 -86 -93 -133 0 -40 30 -88 67 -105
53 -25 135 -17 167 18 85 91 43 201 -124 324 -84 61 -88 66 -76 87 8 11 22 45
31 75 25 78 17 258 -14 320 -12 23 -21 45 -19 47 7 6 123 -24 168 -45 46 -20
87 -48 79 -54 -2 -1 -17 -9 -33 -17 -73 -37 -106 -140 -68 -210 10 -19 40 -50
66 -67 39 -27 58 -33 100 -33 97 0 146 52 146 151 0 157 -155 324 -350 378
-85 24 -278 28 -364 8z m383 -31 c171 -60 297 -196 308 -333 9 -105 -29 -153
-121 -153 -63 0 -116 29 -144 78 -44 79 -17 157 71 201 l47 23 -42 33 c-23 19
-66 43 -96 54 -54 21 -181 46 -189 37 -5 -5 34 -66 49 -76 14 -10 30 -155 25
-217 -3 -33 -18 -89 -32 -124 -14 -34 -25 -68 -25 -74 0 -7 28 -30 63 -53 86
-57 139 -109 165 -163 27 -56 28 -85 2 -126 -26 -44 -54 -56 -115 -51 -53 5
-72 16 -93 55 -28 52 4 123 68 152 l39 18 -32 30 c-76 72 -228 153 -287 153
-17 0 -21 4 -17 18 42 126 48 160 43 223 -8 86 -37 182 -76 243 -36 56 -33 62
40 71 25 4 50 8 55 11 6 2 59 2 118 -1 78 -4 128 -12 176 -29z"/>
<path d="M4010 2944 c-310 -15 -754 -61 -1020 -104 -447 -74 -954 -210 -1255
-339 -128 -55 -315 -148 -400 -200 -176 -107 -362 -274 -439 -395 -211 -331
-93 -666 335 -948 427 -282 1124 -485 1936 -563 296 -29 398 -35 708 -41 629
-13 1279 44 1835 161 150 32 331 73 350 81 8 3 49 15 90 25 158 42 496 160
567 198 10 5 67 33 127 61 609 290 881 684 721 1047 -62 139 -173 261 -355
390 -109 78 -148 101 -245 147 -168 79 -211 98 -310 134 -468 170 -988 274
-1635 327 -175 15 -843 27 -1010 19z m791 -24 c542 -31 925 -84 1359 -191 862
-212 1400 -581 1427 -980 10 -133 -32 -261 -126 -384 -133 -176 -347 -333
-641 -472 -180 -85 -171 -82 -330 -142 -72 -27 -283 -94 -385 -122 -299 -81
-653 -150 -990 -193 -309 -40 -735 -66 -1075 -66 -305 0 -770 25 -955 50 -296
41 -388 55 -520 81 -377 72 -733 175 -950 273 -172 78 -395 200 -415 226 -3 4
-23 18 -45 33 -60 38 -186 164 -233 233 -201 296 -127 587 223 875 104 86 200
147 360 229 250 128 495 220 825 308 295 80 487 117 925 182 148 22 553 56
755 63 205 8 627 6 791 -3z"/>
<path d="M5139 2591 c-28 -9 -131 -77 -164 -108 -17 -15 -83 -70 -168 -139
-44 -36 -186 -106 -261 -129 -103 -32 -279 -44 -393 -26 -76 12 -223 57 -233
71 -18 24 -179 134 -247 169 -116 59 -187 82 -273 87 -126 9 -158 -26 -184
-199 -23 -148 -48 -201 -185 -377 -88 -114 -108 -143 -147 -221 -86 -170 -86
-326 -2 -494 17 -33 33 -62 37 -65 4 -3 21 -24 39 -47 42 -54 164 -152 245
-197 139 -78 356 -138 602 -167 139 -17 566 -17 700 -1 290 36 526 123 735
271 158 111 256 237 286 368 30 128 19 216 -50 400 -49 130 -66 202 -77 328
-30 338 -38 377 -94 439 -31 35 -40 40 -87 42 -29 2 -65 0 -79 -5z m132 -32
c63 -44 85 -119 99 -334 13 -203 22 -254 72 -395 80 -230 91 -284 77 -393 -31
-249 -358 -519 -752 -621 -335 -87 -921 -84 -1271 6 -131 34 -201 62 -340 141
-62 35 -191 162 -234 230 -104 165 -110 342 -20 521 27 54 64 113 78 126 3 3
17 21 30 40 14 19 46 62 73 95 95 119 139 219 152 346 9 87 36 152 71 168 103
47 379 -56 566 -211 58 -49 112 -72 222 -98 165 -38 373 -23 525 39 116 47
200 104 370 248 127 108 218 138 282 92z"/>
<path d="M6205 2193 c-70 -29 -105 -81 -105 -157 0 -59 14 -96 80 -206 31 -52
73 -123 93 -157 37 -64 87 -180 87 -201 0 -19 6 -15 66 48 35 37 120 102 218
168 239 158 286 212 286 330 0 142 -126 217 -273 162 -29 -11 -67 -33 -84 -50
l-30 -29 -44 42 c-25 23 -63 48 -86 55 -56 17 -160 14 -208 -5z m239 -31 c45
-25 65 -49 81 -97 l7 -20 11 20 c23 39 87 92 126 103 140 43 245 -25 244 -159
-1 -110 -40 -154 -279 -312 -87 -58 -181 -126 -208 -152 -27 -25 -52 -42 -56
-38 -3 4 -21 41 -38 80 -18 40 -67 132 -110 205 -92 155 -106 191 -100 264 8
94 65 134 193 134 69 0 87 -4 129 -28z"/>
<path d="M1923 2109 c-75 -22 -143 -128 -143 -220 0 -27 -4 -49 -10 -49 -5 0
-10 4 -10 9 0 6 -25 18 -55 27 -47 15 -63 16 -121 5 -80 -15 -186 -63 -214
-98 -33 -42 -26 -80 21 -125 22 -21 61 -48 86 -60 40 -19 153 -95 238 -160 16
-13 69 -61 117 -107 l88 -84 0 32 c0 55 52 148 226 401 103 151 111 275 22
362 -59 58 -174 89 -245 67z m132 -20 c51 -14 124 -73 141 -115 33 -79 6 -185
-77 -305 -24 -35 -47 -66 -50 -69 -30 -26 -134 -205 -149 -257 -7 -24 -18 -43
-23 -43 -5 0 -46 35 -91 78 -85 81 -179 151 -333 246 -51 31 -97 66 -103 76
-34 63 93 151 242 166 53 5 72 3 116 -16 29 -12 52 -26 52 -31 0 -5 5 -9 10
-9 6 0 10 28 10 65 0 165 107 255 255 214z"/>
<path d="M6930 270 c0 -46 3 -81 6 -77 8 8 9 145 1 154 -4 3 -7 -31 -7 -77z"/>
<path d="M5566 333 c-10 -10 -7 -143 3 -143 6 0 11 24 13 53 l3 52 25 -37 c14
-21 27 -38 30 -38 3 0 16 17 30 37 l25 37 3 -52 c2 -29 7 -52 13 -52 12 0 12
137 -1 145 -5 3 -22 -14 -37 -39 -15 -26 -30 -46 -34 -46 -3 0 -15 18 -28 40
-24 43 -35 53 -45 43z"/>
<path d="M6058 313 c-3 -24 -7 -28 -29 -25 -51 6 -79 -57 -41 -91 10 -10 33
-17 50 -17 l32 0 0 80 c0 79 -6 105 -12 53z m-6 -60 c8 -36 -3 -54 -31 -51
-26 3 -38 26 -27 54 8 20 54 18 58 -3z"/>
<path d="M6306 333 c-10 -10 -7 -141 4 -148 6 -4 10 16 11 52 0 49 2 55 12 40
7 -10 20 -28 30 -40 16 -19 20 -20 27 -6 5 9 18 27 29 40 l20 24 1 -58 c0 -36
4 -56 10 -52 12 8 13 142 1 149 -5 4 -22 -14 -38 -39 -15 -25 -31 -45 -35 -45
-4 0 -13 10 -19 23 -20 36 -46 67 -53 60z"/>
<path d="M6787 328 c-4 -10 -9 -24 -11 -32 -3 -8 -14 -12 -28 -9 -43 8 -69
-55 -38 -92 16 -19 79 -20 86 -2 8 22 0 154 -9 135z m-12 -77 c9 -28 -5 -51
-30 -51 -25 0 -39 23 -30 51 8 25 52 25 60 0z"/>
<path d="M5752 278 c-16 -16 -15 -66 2 -84 18 -17 58 -18 74 -2 7 7 12 26 12
43 0 38 -16 55 -50 55 -14 0 -31 -5 -38 -12z m67 -22 c18 -22 -3 -56 -34 -56
-21 0 -25 5 -25 28 0 16 3 32 7 35 11 12 40 8 52 -7z"/>
<path d="M5860 234 c0 -34 4 -53 10 -49 6 3 10 24 10 46 0 36 2 40 23 37 17
-2 23 -11 25 -38 5 -54 22 -61 22 -9 0 54 -13 69 -57 69 l-33 0 0 -56z"/>
<path d="M6107 283 c-15 -15 -5 -22 23 -16 19 3 30 1 30 -6 0 -6 -13 -14 -30
-17 -29 -6 -47 -34 -35 -54 4 -6 23 -10 43 -8 33 3 37 7 40 35 4 43 -13 73
-42 73 -12 0 -26 -3 -29 -7z m51 -65 c-5 -15 -48 -24 -48 -10 0 14 12 22 33
22 10 0 17 -5 15 -12z"/>
<path d="M6200 271 c0 -11 8 -36 17 -55 16 -34 16 -37 -3 -57 -18 -20 -18 -21
-1 -18 18 4 67 104 67 136 0 24 -18 4 -25 -27 -8 -39 -24 -38 -32 0 -7 36 -23
50 -23 21z"/>
<path d="M6497 283 c-14 -14 -6 -19 23 -15 40 6 38 -13 -2 -24 -61 -18 -46
-72 16 -60 29 6 36 11 36 31 0 44 -18 75 -43 75 -13 0 -27 -3 -30 -7z m51 -65
c-5 -15 -48 -24 -48 -10 0 14 12 22 33 22 10 0 17 -5 15 -12z"/>
<path d="M6590 233 c1 -44 3 -54 11 -41 5 10 9 24 8 30 -5 37 2 49 24 46 18
-2 23 -10 25 -46 4 -47 22 -48 22 -1 0 49 -16 69 -55 69 l-35 0 0 -57z"/>
<path d="M6837 283 c-15 -14 -6 -23 12 -13 14 7 22 7 27 -1 8 -13 -5 -26 -31
-31 -14 -2 -20 -11 -20 -28 0 -22 4 -25 40 -25 l40 0 -1 44 c-1 24 -8 47 -15
52 -17 10 -43 12 -52 2z m47 -68 c-6 -16 -44 -21 -44 -7 0 14 12 22 31 22 12
0 16 -5 13 -15z"/>
<path d="M6987 283 c-14 -13 -6 -23 11 -15 18 10 42 5 42 -8 0 -5 -13 -11 -29
-15 -66 -14 -61 -67 5 -62 32 2 34 4 34 39 0 20 -3 43 -6 52 -6 16 -45 22 -57
9z m51 -65 c-5 -15 -58 -24 -58 -10 0 15 12 22 38 22 14 0 22 -5 20 -12z"/>
<path d="M7126 275 c-17 -18 -19 -28 -10 -62 7 -25 34 -37 64 -28 30 10 24 20
-12 20 -30 0 -33 3 -33 30 0 27 3 30 33 30 17 0 31 4 29 10 -6 17 -54 17 -71
0z"/>
<path d="M7236 274 c-34 -33 -9 -94 38 -94 31 0 46 18 46 55 0 17 -5 36 -12
43 -17 17 -54 15 -72 -4z m66 -21 c8 -36 -3 -54 -31 -51 -26 3 -38 26 -27 54
8 20 54 18 58 -3z"/>
<path d="M7343 240 c-1 -28 3 -53 8 -56 5 -3 9 15 9 40 0 42 2 46 25 46 23 0
25 -4 25 -40 0 -22 5 -40 10 -40 6 0 10 18 10 41 0 36 2 40 23 37 18 -2 23
-11 28 -48 4 -35 7 -41 14 -26 4 10 4 35 -1 55 l-9 36 -71 2 -71 2 0 -49z"/>
</g>
</svg>
