<?xml version="1.0" standalone="no"?>
<!DOCTYPE svg PUBLIC "-//W3C//DTD SVG 20010904//EN"
 "http://www.w3.org/TR/2001/REC-SVG-20010904/DTD/svg10.dtd">
<svg version="1.0" xmlns="http://www.w3.org/2000/svg"
 width="816.000000pt" height="1056.000000pt" viewBox="0 0 816.000000 1056.000000"
 preserveAspectRatio="xMidYMid meet">
<metadata>
Created by potrace 1.16, written by Peter Selinger 2001-2019
</metadata>
<g transform="translate(0.000000,1056.000000) scale(0.100000,-0.100000)"
fill="#000000" stroke="none">
<path d="M225 10318 c-3 -7 -4 -2283 -3 -5058 l3 -5045 2613 0 c1436 0 2611 4
2610 8 -2 4 -173 8 -380 7 -357 0 -428 3 -428 19 0 4 -22 48 -49 99 -64 120
-101 214 -101 255 0 36 17 51 70 61 89 18 209 61 331 118 114 53 142 63 191
63 50 0 61 -4 88 -30 18 -17 66 -99 110 -187 83 -165 182 -328 200 -328 17 0
11 25 -13 61 -45 68 -105 177 -166 302 -123 253 -160 265 -435 137 -100 -45
-268 -104 -334 -115 -54 -9 -76 -39 -76 -106 0 -41 12 -72 72 -191 53 -105 69
-144 60 -150 -7 -4 -988 -8 -2180 -8 l-2168 0 0 289 0 288 72 7 c111 11 415
81 499 114 42 17 147 67 234 111 88 45 166 81 174 81 9 0 45 9 79 20 37 11 92
20 130 20 66 0 96 4 297 35 55 9 161 20 235 25 97 6 148 14 180 28 61 27 118
85 126 129 6 30 10 34 28 28 67 -21 101 -25 188 -25 54 -1 151 7 215 16 91 13
154 15 278 10 88 -4 342 -11 565 -15 223 -5 412 -12 421 -16 29 -11 126 -152
197 -285 96 -180 163 -196 499 -116 106 25 225 51 265 58 88 14 105 26 88 59
-7 12 -17 28 -22 33 -33 40 -156 242 -150 248 12 12 335 67 490 83 81 9 248
20 372 26 279 12 532 26 715 39 77 6 237 9 355 8 l215 -3 72 33 c39 17 77 32
85 32 7 0 42 9 78 20 109 34 157 41 355 50 105 5 223 12 263 16 l72 7 0 -720
0 -721 -22 -6 c-13 -3 -83 -6 -155 -6 -84 0 -133 -4 -133 -10 0 -7 58 -10 168
-8 l167 3 3 5049 c2 4033 0 5051 -10 5058 -7 4 -1742 8 -3856 8 -3065 0 -3844
-3 -3847 -12z m7685 -148 l0 -135 -78 3 c-248 12 -412 -200 -271 -353 43 -46
47 -55 24 -55 -35 0 -167 -74 -221 -122 -134 -123 -156 -245 -63 -342 l39 -41
-38 -10 c-57 -16 -101 -43 -151 -95 -59 -61 -96 -131 -117 -221 -56 -247 76
-451 308 -477 l63 -7 6 -71 c7 -74 23 -116 71 -176 31 -39 131 -107 187 -126
47 -17 165 -15 206 2 l35 15 2 -3110 c2 -1711 0 -3113 -3 -3115 -15 -9 -197
-24 -359 -30 -169 -6 -286 -24 -355 -56 -34 -15 -41 -5 -18 29 72 106 125 293
142 496 19 218 22 343 12 439 -9 97 -9 98 20 156 46 94 60 248 39 437 -19 160
-101 360 -204 494 -48 63 -55 81 -31 81 21 0 44 89 47 185 l3 80 55 6 c141 17
341 50 364 61 36 16 60 69 53 114 -4 26 -2 37 9 41 26 10 36 52 20 84 -14 28
-13 29 8 29 29 0 46 18 46 50 0 34 -20 52 -95 86 -33 15 -61 28 -63 29 -4 3
26 70 68 156 68 139 73 161 65 332 -7 165 -16 212 -45 227 -31 16 -44 12 -106
-35 -33 -25 -70 -45 -84 -45 -14 0 -55 15 -90 33 -36 18 -96 46 -135 62 -127
53 -145 69 -145 129 0 107 -26 156 -83 156 -36 0 -78 -23 -151 -84 -102 -84
-102 -84 -201 -352 l-67 -181 -87 -6 c-47 -4 -96 -9 -108 -13 -22 -6 -23 -4
-17 42 11 99 15 111 50 150 59 65 67 88 60 169 -9 94 1 118 53 133 49 15 101
67 101 102 0 14 7 36 16 48 14 20 14 25 1 45 -8 12 -18 38 -22 57 -12 59 -31
80 -71 80 l-35 0 4 83 c2 45 10 114 17 154 12 65 12 76 -5 120 -10 26 -36 71
-58 100 -48 65 -67 125 -67 219 0 96 -24 153 -82 193 -24 17 -48 35 -55 41 -7
5 -15 10 -19 10 -17 0 -92 72 -107 102 -21 44 -13 51 31 26 169 -96 162 -93
246 -93 l78 0 42 46 c46 51 106 199 106 259 -1 81 -78 176 -163 199 -23 6 -86
18 -139 26 -91 13 -138 27 -138 42 0 3 13 27 28 52 87 143 121 323 92 483 -10
50 -7 66 19 159 35 122 69 269 82 354 11 78 -2 127 -42 155 -42 31 -97 23
-248 -33 -153 -58 -182 -63 -218 -44 -15 8 -53 27 -83 43 -115 60 -231 93
-368 103 -89 6 -105 10 -117 29 -9 11 -21 27 -28 34 -7 7 -32 38 -57 68 -73
91 -154 168 -184 176 -53 13 -92 -19 -136 -110 -49 -102 -130 -342 -130 -384
0 -23 -10 -43 -32 -68 -70 -76 -135 -202 -165 -324 l-9 -34 -21 35 c-54 93
-155 122 -259 75 -32 -15 -73 -38 -92 -53 -49 -37 -100 -39 -212 -8 -218 60
-402 70 -569 31 -88 -20 -120 -13 -196 44 -126 95 -203 126 -272 108 -48 -12
-57 -9 -48 14 4 9 24 18 46 22 69 11 119 36 125 63 9 36 -13 52 -81 61 l-60 7
-12 109 c-7 60 -24 150 -38 200 -29 107 -31 134 -9 184 24 55 20 112 -10 139
-37 32 -123 46 -220 37 -104 -11 -108 -10 -256 37 -141 45 -169 61 -222 130
-43 55 -83 71 -137 56 -45 -12 -50 -17 -133 -149 -71 -114 -153 -208 -181
-208 -8 0 -22 11 -31 25 -18 27 -54 33 -74 13 -15 -15 -16 -72 -2 -98 16 -29
-8 -36 -35 -10 -31 29 -102 39 -111 16 -9 -23 15 -75 43 -93 36 -24 28 -30
-35 -25 -44 3 -61 0 -71 -12 -21 -25 10 -64 63 -78 43 -11 44 -12 49 -65 3
-30 15 -69 26 -88 21 -36 19 -45 -13 -45 -31 -1 -107 -37 -138 -67 -54 -52
-42 -135 24 -169 36 -19 161 -15 181 5 20 20 25 12 32 -46 8 -68 25 -103 67
-143 l30 -29 -17 -70 c-10 -41 -14 -82 -10 -101 13 -58 147 -136 192 -111 30
16 59 54 83 109 13 28 27 52 32 52 19 0 18 -30 -1 -69 -31 -61 -28 -97 14
-136 43 -42 122 -69 157 -56 29 11 50 41 68 95 11 35 14 38 42 32 17 -3 49 -1
70 5 35 9 43 8 62 -9 32 -30 61 -42 100 -42 54 0 84 19 107 67 21 44 22 94 3
159 -5 18 0 23 38 32 24 6 61 20 82 31 22 12 42 19 44 16 2 -2 -10 -79 -27
-171 -32 -173 -57 -238 -141 -370 -34 -54 -90 -193 -90 -223 0 -15 -9 -22 -37
-26 -57 -9 -144 -43 -178 -70 l-31 -23 -32 29 c-24 23 -40 29 -74 29 -76 -1
-234 -64 -268 -108 -27 -33 -25 -73 6 -155 l26 -68 -20 -47 c-22 -52 -29 -82
-68 -286 -14 -77 -32 -153 -40 -171 -15 -37 -67 -91 -109 -112 -16 -9 -32 -19
-35 -22 -3 -3 -21 -15 -40 -25 -19 -11 -44 -28 -55 -38 -43 -40 -83 -42 -180
-10 -50 16 -120 42 -157 57 l-68 27 3 56 c3 70 25 107 59 99 13 -3 43 -11 68
-17 60 -15 122 -5 155 26 24 22 27 30 22 69 -6 41 -5 43 26 55 111 42 181 99
239 195 45 74 68 152 68 224 0 69 -31 212 -61 281 -22 51 -22 52 -6 173 9 67
19 146 23 175 12 101 -31 182 -95 182 -36 0 -153 -57 -236 -115 l-68 -48 5 66
c4 42 16 87 34 126 l29 61 53 0 c46 0 58 4 84 30 27 28 30 36 25 77 -7 64 -34
88 -98 88 -43 0 -54 -4 -75 -28 -25 -30 -34 -103 -14 -123 7 -7 -2 -32 -24
-74 -22 -43 -38 -92 -46 -142 -11 -64 -16 -78 -31 -78 -10 0 -21 5 -24 10 -8
12 -55 13 -74 1 -10 -6 -22 -5 -35 4 -11 8 -30 12 -42 9 -31 -8 -39 25 -30
118 8 92 26 125 71 134 49 9 85 54 85 106 0 32 -7 47 -34 74 -100 100 -240
-42 -146 -149 16 -19 26 -38 21 -43 -15 -17 -31 -102 -31 -169 0 -60 -2 -66
-25 -77 -27 -12 -34 -8 -160 88 -94 71 -156 90 -208 62 -32 -17 -41 -28 -62
-78 -15 -36 -20 -81 -24 -225 -6 -174 -7 -182 -34 -229 -53 -92 -68 -144 -68
-237 1 -169 75 -317 200 -399 l24 -16 -27 -29 c-14 -15 -31 -45 -38 -67 -13
-44 -28 -47 -80 -15 -50 30 -69 58 -108 157 -18 47 -43 98 -54 115 -11 16 -19
39 -18 51 2 12 -4 47 -13 78 -10 33 -14 69 -10 86 5 23 1 35 -19 55 -35 35
-86 34 -125 -2 -28 -26 -30 -33 -31 -108 -3 -194 11 -235 80 -235 46 0 61 -16
96 -105 15 -38 38 -86 50 -106 38 -62 115 -107 189 -110 33 -2 54 -9 66 -23
25 -26 24 -30 -6 -50 -80 -52 -33 -156 54 -120 46 19 51 18 51 -10 0 -48 64
-70 120 -41 l28 15 32 -68 c17 -37 39 -85 48 -107 9 -22 25 -56 35 -75 11 -19
39 -71 61 -115 l41 -80 -3 -140 c-3 -122 1 -162 28 -310 17 -93 40 -195 51
-225 61 -163 70 -194 65 -216 -8 -30 -37 -31 -80 -4 -17 11 -94 86 -171 168
-166 176 -193 197 -256 197 -55 0 -84 -27 -93 -87 -12 -76 34 -287 106 -483
56 -152 65 -194 77 -331 11 -119 39 -224 76 -280 15 -24 15 -24 -22 -24 -67 0
-123 -55 -123 -120 0 -41 46 -72 152 -104 l87 -26 12 -57 c24 -104 111 -183
204 -183 38 0 65 -13 65 -31 0 -4 -22 -15 -49 -24 -66 -22 -155 -81 -213 -141
-88 -92 -137 -180 -173 -317 -21 -77 -25 -115 -25 -229 0 -190 13 -277 57
-368 31 -67 39 -99 68 -305 50 -339 100 -573 142 -660 25 -53 76 -115 93 -115
22 0 8 -20 -18 -26 -89 -19 -173 -52 -302 -116 -153 -77 -224 -105 -355 -137
-82 -20 -347 -71 -372 -71 -11 0 -13 604 -13 3615 l0 3615 43 0 c23 0 78 12
121 27 64 22 90 38 136 83 83 79 93 104 98 237 3 75 8 116 17 123 7 6 56 17
109 25 53 8 114 24 136 35 101 51 160 140 160 241 0 84 -42 141 -148 205 -2 1
12 17 31 35 91 90 70 221 -60 359 -67 72 -129 106 -247 136 l-68 17 6 51 c3
28 11 76 16 106 11 56 5 120 -12 155 -15 30 -70 85 -85 85 -7 0 -13 4 -13 8 0
15 -96 44 -167 49 l-73 6 0 118 c0 102 2 118 17 121 9 2 1735 3 3835 3 l3818
0 0 -135z m-7505 -156 c65 -21 132 -74 151 -121 19 -44 18 -86 -6 -177 -32
-120 -28 -124 160 -181 73 -22 148 -82 199 -157 90 -134 77 -245 -34 -297 -25
-12 -45 -25 -45 -30 0 -5 17 -11 38 -15 21 -3 57 -19 80 -36 111 -80 110 -234
0 -323 -55 -44 -106 -63 -202 -76 -128 -18 -136 -28 -136 -163 0 -102 -16
-150 -65 -201 -58 -61 -183 -117 -260 -117 l-45 0 0 961 0 962 54 -6 c30 -3
79 -13 111 -23z m7503 -1017 l2 -1017 -27 -13 c-16 -6 -64 -12 -108 -12 -97 0
-168 29 -244 100 -62 58 -90 122 -92 209 -2 73 5 67 -104 82 -104 14 -204 83
-249 172 -30 60 -39 102 -38 180 3 177 118 351 264 397 29 9 59 19 67 21 11 3
6 10 -15 23 -87 54 -115 134 -79 228 41 107 213 233 341 249 30 3 54 9 54 13
-1 3 -22 16 -48 28 -61 29 -102 89 -102 150 0 52 17 87 62 129 64 61 133 83
243 81 l70 -2 3 -1018z m-5726 182 c13 -5 36 -28 52 -50 16 -23 46 -53 67 -68
l38 -28 -50 -23 c-48 -23 -70 -54 -54 -79 9 -15 61 -14 77 2 7 7 25 20 41 30
15 10 27 26 27 37 0 17 5 19 33 14 53 -10 80 -27 84 -54 5 -41 25 -83 51 -112
29 -32 44 -35 63 -12 12 15 7 54 -15 104 -5 13 14 15 136 18 129 2 146 0 176
-18 36 -22 39 -35 17 -87 -22 -52 -19 -114 12 -233 23 -91 27 -125 27 -255 0
-130 -3 -158 -22 -213 -12 -34 -30 -72 -40 -83 -94 -115 -199 -137 -359 -75
-409 157 -539 217 -705 328 -147 98 -181 141 -186 239 -3 49 0 75 13 100 22
42 74 109 85 109 5 0 17 -17 27 -37 24 -50 63 -59 63 -16 0 29 -31 73 -52 73
-6 0 2 10 17 22 27 21 29 21 57 5 43 -25 68 -22 68 7 0 14 -6 31 -14 39 -12
12 -9 20 21 58 19 24 55 78 81 119 26 41 50 77 54 78 5 2 8 8 8 14 0 15 48 58
65 58 8 0 24 -5 37 -11z m168 -178 c0 -8 -74 -61 -85 -61 -17 0 0 28 28 47 34
23 57 29 57 14z m196 -39 c17 -11 44 -68 44 -92 0 -32 -17 -23 -45 23 -34 58
-33 92 1 69z m-786 -113 c0 -12 -7 -19 -20 -19 -14 0 -20 7 -20 23 0 13 3 27
7 30 10 11 33 -13 33 -34z m146 -17 c-9 -9 -37 8 -31 18 5 8 11 7 21 -1 8 -6
12 -14 10 -17z m-257 -53 c18 -17 19 -23 8 -39 -6 -11 -14 -20 -17 -20 -11 1
-37 26 -54 52 -13 20 -14 27 -4 30 20 7 44 -2 67 -23z m3517 3 c16 -15 49 -52
74 -82 25 -30 62 -73 82 -95 21 -22 38 -43 38 -46 0 -4 -17 -9 -37 -13 -37 -6
-40 -4 -98 59 -33 36 -68 65 -78 65 -38 0 -75 -57 -93 -140 -16 -73 -19 -79
-55 -100 -21 -11 -46 -28 -54 -37 -9 -8 -18 -14 -20 -11 -14 14 94 315 139
387 32 50 60 53 102 13z m-3346 -59 c0 -13 -3 -13 -15 -3 -8 7 -15 19 -15 27
0 13 3 13 15 3 8 -7 15 -19 15 -27z m-221 -52 c8 -5 11 -16 7 -26 -5 -14 -14
-16 -43 -12 -36 6 -56 23 -47 39 7 11 65 10 83 -1z m3586 -53 c14 -18 33 -41
41 -51 22 -27 18 -32 -43 -52 -32 -10 -62 -22 -67 -27 -15 -12 -46 -10 -46 5
0 37 32 124 51 140 29 23 33 22 64 -15z m490 -131 c322 -92 567 -324 640 -607
54 -210 15 -422 -110 -588 -53 -70 -63 -78 -77 -64 -8 8 1 24 29 56 89 101
133 224 133 371 0 141 -35 256 -116 383 -64 100 -203 230 -294 277 -19 10 -37
21 -40 25 -9 12 -136 59 -217 80 -477 125 -912 -175 -879 -605 9 -105 25 -163
72 -260 21 -44 40 -83 42 -87 2 -4 -9 -8 -25 -10 -25 -3 -31 2 -54 52 -53 112
-83 285 -69 398 19 147 72 261 174 370 98 105 220 175 356 207 41 9 80 19 85
21 24 9 304 -6 350 -19z m746 -48 c20 -20 21 -29 15 -98 -6 -76 -76 -391 -87
-391 -3 0 -17 28 -31 62 -24 59 -25 65 -12 117 8 31 16 79 19 106 4 40 1 33
-17 -37 -13 -47 -26 -89 -30 -93 -3 -4 -15 6 -25 22 -22 34 -38 55 -80 103
-18 21 -33 40 -33 43 0 3 21 12 47 21 52 18 113 21 113 6 0 -5 5 -10 10 -10
21 0 9 18 -19 30 -24 9 -41 9 -91 -4 -80 -21 -89 -20 -125 9 -27 22 -28 25
-10 30 11 4 43 15 70 25 135 51 222 79 243 79 12 1 32 -9 43 -20z m-869 -20
c81 -16 81 -16 68 -40 -8 -15 -9 -24 -1 -32 7 -7 14 -2 22 16 14 31 18 32 64
13 32 -14 34 -17 25 -41 -6 -15 -7 -31 -4 -36 9 -15 34 10 34 33 0 11 3 18 8
16 4 -2 24 -10 45 -18 29 -11 37 -19 33 -32 -3 -10 -9 -27 -12 -38 -9 -27 12
-26 27 3 6 12 13 23 14 25 5 6 88 -50 124 -83 20 -19 45 -42 57 -52 60 -53
143 -191 181 -302 23 -64 27 -94 27 -191 1 -132 -13 -185 -74 -290 -57 -96
-93 -126 -160 -133 l-55 -5 0 50 c0 43 -4 53 -30 74 -37 30 -91 31 -143 5 -46
-24 -72 -67 -72 -119 0 -33 6 -45 31 -67 17 -14 30 -27 28 -29 -2 -1 -35 -17
-74 -36 -66 -31 -73 -32 -150 -26 -45 3 -116 15 -158 26 -73 18 -253 98 -280
123 -6 7 -30 26 -52 44 -22 17 -58 56 -80 86 -22 31 -51 62 -65 71 -30 17
-106 146 -134 225 -12 36 -21 95 -24 164 -8 182 35 295 162 423 79 79 195 143
296 163 30 6 64 13 75 15 43 8 197 5 247 -5z m-3839 -69 c25 -20 25 -21 11
-63 -15 -44 -34 -58 -109 -78 -52 -15 -113 4 -121 37 -12 48 28 91 106 115 45
13 87 9 113 -11z m110 -73 l29 -22 -21 -80 c-12 -43 -21 -91 -21 -107 0 -39
-17 -35 -35 8 -24 58 -18 224 9 224 6 0 24 -10 39 -23z m1295 -3 c2 -1 -18 -9
-45 -17 -50 -14 -70 -9 -60 16 4 11 17 13 54 10 26 -3 50 -7 51 -9z m-1198
-60 c46 -30 45 -28 26 -82 -8 -23 -20 -67 -25 -98 -6 -32 -13 -59 -15 -61 -2
-2 -20 4 -40 13 -34 17 -36 21 -36 63 0 43 24 163 36 182 7 13 10 12 54 -17z
m265 -129 c28 -10 56 -23 63 -28 7 -6 23 -12 35 -13 12 -1 46 -13 75 -26 l53
-24 -32 -61 c-38 -74 -85 -133 -105 -133 -14 0 -52 18 -82 38 -9 6 -3 29 29
96 22 48 39 90 36 92 -3 3 -17 -19 -31 -48 -39 -81 -60 -118 -67 -118 -15 0
-119 52 -119 60 0 5 15 43 34 84 46 101 31 98 -19 -4 -21 -44 -40 -80 -42 -80
-1 0 -21 7 -43 16 -36 15 -40 19 -40 53 0 33 31 158 44 180 4 5 40 -7 84 -28
42 -21 100 -46 127 -56z m977 19 c51 -26 100 -57 125 -81 64 -58 141 -73 258
-48 173 37 264 31 530 -35 209 -52 230 -60 346 -137 115 -76 155 -92 123 -50
-25 32 -124 103 -199 143 l-66 34 58 37 c69 44 136 64 178 52 16 -5 48 -28 70
-52 40 -44 57 -91 80 -227 3 -19 22 -104 42 -189 26 -110 33 -156 25 -159 -7
-2 -12 -10 -12 -18 0 -31 -26 -11 -53 39 -15 30 -58 85 -96 123 -78 79 -76 78
-163 133 -227 143 -475 195 -718 150 -227 -42 -389 -127 -543 -284 -146 -148
-224 -294 -247 -462 -33 -241 84 -540 280 -716 49 -44 171 -121 240 -151 66
-28 245 -76 339 -90 86 -13 110 -24 111 -50 0 -4 -15 -6 -32 -2 -32 5 -212 28
-331 41 -54 6 -59 9 -75 43 -19 41 -51 53 -72 27 -20 -24 -43 -18 -171 46
-137 70 -123 51 -214 279 -25 63 -50 124 -55 135 -5 11 -18 47 -30 80 -11 33
-24 69 -29 80 -5 11 -15 38 -24 60 -70 182 -103 251 -140 287 l-39 38 21 67
c11 38 42 104 68 148 27 44 59 102 73 129 26 50 137 161 203 203 22 13 37 27
34 30 -11 10 -76 -18 -121 -53 -24 -18 -47 -34 -50 -34 -12 0 -5 49 23 187 36
169 47 199 95 241 46 40 87 42 158 6z m-1883 -119 c71 -36 45 -135 -35 -135
-79 0 -103 111 -31 140 31 12 34 12 66 -5z m1204 -16 c42 -15 45 -22 19 -41
-30 -21 -42 -53 -42 -112 0 -55 0 -55 -34 -62 -34 -6 -101 9 -111 26 -2 4 16
38 40 76 25 37 45 74 45 82 0 23 21 54 33 49 7 -2 29 -10 50 -18z m-846 -35
c63 -63 -29 -155 -95 -94 -31 29 -29 73 4 99 35 28 59 26 91 -5z m255 -12 c18
-10 57 -27 86 -37 59 -21 62 -30 32 -97 -36 -83 -64 -92 -137 -44 -48 31 -58
64 -42 136 7 33 17 60 21 60 4 0 22 -8 40 -18z m743 -8 c47 -19 62 -143 22
-190 -21 -24 -28 -26 -61 -20 -94 18 -129 150 -52 197 32 19 62 24 91 13z
m1142 -228 c-8 -86 -67 -103 -131 -37 -32 32 -71 109 -61 119 2 2 43 11 91 21
l89 18 8 -36 c5 -20 6 -58 4 -85z m67 63 c7 -69 33 -135 64 -163 12 -10 41
-21 65 -23 37 -4 48 -1 72 21 26 24 29 34 33 106 3 44 9 83 14 86 18 12 35
-18 41 -70 9 -89 55 -146 117 -146 45 1 65 17 87 69 l18 43 70 -48 c112 -75
182 -151 234 -251 25 -50 26 -74 6 -114 -20 -38 -49 -135 -66 -219 -10 -54
-18 -70 -48 -95 -113 -96 -161 -167 -180 -266 -5 -29 -33 -98 -60 -151 -27
-53 -53 -114 -57 -134 -8 -45 12 -373 26 -408 6 -16 6 -27 0 -31 -6 -4 -10 -2
-10 4 0 6 -13 24 -30 41 -27 28 -30 37 -30 96 0 37 -6 77 -15 93 -16 32 -69
61 -110 61 -14 0 -39 7 -55 15 -28 14 -31 14 -50 -7 -12 -13 -30 -32 -40 -43
-11 -12 -20 -26 -20 -33 0 -7 -7 -12 -15 -12 -8 0 -23 -9 -32 -20 -21 -25 -59
-26 -156 -4 -241 53 -433 142 -541 250 -71 71 -186 238 -186 270 0 5 27 15 61
21 96 18 135 77 90 135 -18 22 -48 38 -183 95 -44 19 -51 37 -10 26 15 -5 60
-8 101 -8 68 0 75 2 93 26 17 23 18 30 8 50 -18 34 -36 46 -120 88 -86 41 -93
55 -64 130 48 125 194 307 319 396 68 49 217 123 254 127 21 3 26 -3 34 -34
20 -82 113 -149 176 -127 39 14 52 50 51 133 -2 91 -3 86 19 86 15 0 19 -11
25 -61z m193 42 c26 -7 27 -10 24 -62 -5 -112 -26 -149 -86 -149 -56 0 -93 63
-111 184 l-7 49 77 -8 c42 -3 88 -10 103 -14z m-1839 -11 c18 -11 38 -20 45
-20 6 0 23 -9 35 -18 22 -17 23 -22 13 -60 -21 -76 -49 -85 -131 -43 -48 24
-58 57 -36 115 20 52 27 54 74 26z m2067 -63 c51 -28 60 -36 57 -57 -4 -37
-35 -75 -67 -78 -51 -6 -105 68 -105 144 0 34 1 36 28 29 15 -3 54 -21 87 -38z
m-3345 -78 c34 -22 69 -47 77 -54 8 -8 21 -19 31 -24 14 -8 14 -13 3 -33 -7
-13 -11 -37 -9 -53 2 -16 -2 -30 -9 -32 -7 -3 -13 1 -13 9 0 19 -80 95 -113
107 -73 28 -115 -55 -91 -178 11 -52 60 -51 187 4 12 5 17 3 17 -9 0 -23 47
-31 84 -14 22 11 36 12 47 5 9 -6 25 -7 35 -2 24 10 114 14 114 5 0 -13 45
-27 65 -19 29 11 83 11 90 -1 7 -12 85 -14 85 -2 0 4 4 13 9 21 7 12 13 12 24
3 27 -23 161 -72 179 -66 19 6 23 18 33 96 9 66 -3 116 -31 134 -20 14 -26 14
-56 0 -19 -9 -58 -41 -87 -71 -30 -30 -58 -55 -62 -55 -5 0 -6 17 -3 39 5 32
3 41 -16 54 -22 15 -22 15 26 51 84 61 208 120 239 112 59 -15 66 -96 28 -337
-16 -105 -16 -108 5 -175 80 -256 63 -404 -65 -544 -77 -84 -229 -142 -408
-155 -99 -6 -281 13 -375 41 -56 16 -143 58 -170 82 -126 110 -169 202 -170
360 0 76 21 147 76 252 21 41 23 59 26 220 3 160 5 179 26 223 23 45 26 47 66
47 33 0 57 -9 106 -41z m-20 -114 c36 -19 83 -79 78 -101 -3 -18 -8 -21 -71
-48 -81 -34 -103 -17 -92 71 13 102 22 111 85 78z m273 -31 c-3 -83 -7 -89
-46 -89 -20 0 -41 -6 -48 -12 -7 -7 -19 -13 -26 -13 -20 0 -15 31 9 52 16 14
19 21 10 30 -30 30 4 72 36 46 12 -11 17 -9 30 10 21 32 37 22 35 -24z m87 31
c16 -20 39 -19 62 1 14 13 21 14 32 5 18 -15 9 -48 -15 -54 -25 -7 -24 -33 1
-40 14 -3 20 -14 20 -31 0 -33 -34 -35 -67 -4 -20 19 -26 20 -47 9 -13 -8 -29
-10 -35 -7 -16 11 -13 44 5 54 15 8 15 11 0 35 -16 24 -16 26 1 36 24 14 28
14 43 -4z m170 -36 c0 -17 5 -19 35 -13 28 5 35 3 35 -10 0 -8 -9 -20 -20 -26
-26 -14 -26 -30 0 -37 25 -7 23 -36 -3 -41 -10 -2 -21 6 -29 23 -9 20 -17 25
-34 21 -18 -5 -23 -1 -28 24 -6 30 0 55 17 77 12 17 27 7 27 -18z m304 15 c9
-24 7 -157 -3 -173 -8 -12 -13 -12 -33 1 -12 8 -47 23 -75 32 -29 10 -56 22
-60 29 -3 6 21 36 56 69 63 59 103 74 115 42z m3182 -121 c28 -26 124 -164
124 -179 0 -4 15 -28 34 -54 l35 -48 -42 -4 c-63 -7 -70 -2 -112 70 -49 88
-72 112 -106 112 -29 0 -64 -29 -75 -62 -3 -10 -11 -50 -17 -90 -9 -54 -18
-75 -32 -83 -11 -6 -33 -19 -48 -29 -15 -10 -30 -16 -34 -13 -10 11 40 191 74
265 48 103 85 142 132 142 27 0 46 -8 67 -27z m992 -29 c30 -9 55 -58 47 -94
-8 -38 -38 -63 -67 -56 -13 3 -17 3 -10 0 21 -9 -17 -33 -53 -34 -64 0 -93 52
-66 123 18 48 89 77 149 61z m-1021 -111 c24 -31 74 -133 69 -142 -3 -4 -36
-11 -73 -14 -37 -4 -79 -10 -92 -13 -23 -7 -24 -6 -17 42 9 60 25 113 40 131
16 18 57 16 73 -4z m270 -50 c86 -55 231 -107 350 -125 40 -6 71 -13 70 -15
-2 -2 -28 -5 -58 -8 -41 -4 -65 0 -94 14 -51 24 -104 37 -185 46 -35 3 -72 11
-83 16 -18 10 -77 95 -77 112 0 9 1 9 77 -40z m1118 20 c17 -7 64 -17 105 -23
170 -26 180 -30 221 -71 42 -42 49 -63 23 -73 -12 -5 -15 -16 -11 -49 2 -23 8
-52 12 -65 7 -21 5 -22 -18 -17 -39 10 -62 -30 -54 -95 6 -48 5 -51 -24 -66
-49 -25 -110 -10 -233 59 l-109 61 7 68 c6 61 -5 183 -19 220 -7 17 55 83 65
69 3 -4 19 -12 35 -18z m-175 -26 c28 -23 42 -72 47 -167 4 -95 0 -122 -59
-394 -9 -38 -7 -73 7 -165 11 -74 16 -145 13 -192 -6 -77 -46 -212 -63 -211
-13 1 -34 103 -35 167 0 27 5 98 12 157 14 130 6 184 -47 297 -32 67 -51 90
-158 192 -67 64 -132 121 -144 128 -30 16 -29 37 2 45 14 4 74 30 133 58 193
92 259 112 292 85z m-3449 -67 c25 -14 73 -90 62 -100 -57 -52 -246 -145 -281
-138 -11 2 -22 22 -32 61 -13 53 -13 60 4 92 35 64 188 116 247 85z m381 -47
c71 -34 89 -47 94 -69 9 -35 -15 -54 -68 -54 -47 0 -126 19 -134 32 -8 13 6
140 14 136 4 -2 46 -23 94 -45z m-726 9 c22 -14 34 -49 21 -60 -43 -34 -187
-90 -242 -93 -53 -2 -55 -1 -55 40 0 46 13 56 115 94 69 25 139 34 161 19z
m3024 -38 c39 -8 72 -20 76 -25 3 -6 -7 -23 -24 -38 l-29 -28 -39 23 c-50 31
-112 31 -170 2 -54 -27 -51 -33 6 -13 64 23 119 19 155 -9 l30 -25 -22 -22
-21 -22 -23 22 c-45 42 -129 41 -225 -3 -65 -30 -130 -34 -194 -11 -23 8 -72
15 -108 15 -82 0 -119 -22 -172 -102 -63 -94 -48 -86 42 24 55 68 126 78 258
39 60 -19 113 -13 186 20 56 26 78 30 120 27 29 -3 64 -12 78 -22 l27 -17 -33
-45 c-18 -25 -45 -52 -60 -60 -45 -23 -122 -17 -222 18 -75 25 -107 31 -181
32 -108 0 -166 -22 -204 -82 -41 -61 -73 -92 -124 -119 -27 -13 -50 -23 -52
-21 -7 7 23 126 40 158 22 44 109 130 155 156 19 10 41 25 48 32 7 6 18 12 23
12 5 0 26 11 47 25 70 46 119 57 277 65 246 11 263 11 335 -6z m1317 -66 c-3
-22 -4 -21 -11 4 -5 16 -5 36 0 45 7 16 8 15 11 -4 3 -13 3 -33 0 -45z m-4306
12 c1 -5 2 -13 3 -17 1 -5 6 -23 10 -42 5 -18 17 -52 27 -75 10 -22 19 -54 19
-69 0 -31 -27 -47 -125 -73 -76 -21 -91 -18 -104 16 -16 48 -50 90 -72 90 -13
0 -25 12 -35 35 -17 42 -12 55 23 55 38 0 122 27 183 59 62 33 69 35 71 21z
m443 -130 c27 -69 54 -141 61 -160 7 -19 25 -64 39 -100 31 -77 31 -82 9 -102
-27 -22 -225 -100 -234 -91 -12 13 -219 429 -219 442 0 6 7 11 16 11 19 0 149
65 218 109 28 17 53 28 56 24 3 -5 28 -64 54 -133z m2854 108 c26 -17 75 -59
109 -92 34 -34 86 -83 114 -111 86 -83 137 -216 125 -328 -15 -144 -18 -264
-6 -317 20 -92 24 -211 9 -221 -23 -14 -65 -10 -88 9 -21 17 -22 18 -5 57 22
54 14 123 -24 205 -17 36 -35 76 -40 90 l-11 25 0 -30 c-1 -16 6 -55 15 -85
44 -154 40 -183 -34 -258 l-55 -57 6 45 c3 25 13 60 23 78 23 47 29 106 14
144 -13 32 -81 104 -127 135 -12 8 -45 61 -74 116 -56 113 -79 137 -189 205
-149 92 -178 153 -111 238 l20 26 16 -38 c23 -55 42 -72 120 -109 102 -49 135
-86 170 -193 17 -52 58 -112 76 -112 6 0 -1 15 -15 33 -15 19 -35 59 -45 89
-26 75 -44 108 -78 139 -30 29 -100 69 -120 69 -7 0 -30 17 -53 38 -34 33 -40
45 -40 79 0 27 6 46 20 58 19 17 21 17 52 -18 19 -20 77 -57 135 -86 154 -78
214 -151 239 -291 l12 -65 1 59 c1 45 -6 72 -29 121 -38 81 -97 133 -215 192
-125 62 -171 107 -143 140 28 34 73 53 126 53 44 0 62 -6 100 -32z m-5220 -40
c22 -22 13 -28 -43 -28 -30 0 -55 4 -55 8 0 17 25 32 55 32 17 0 36 -5 43 -12z
m2612 -66 c79 -35 100 -54 100 -92 0 -41 -32 -60 -102 -60 -67 0 -70 3 -93
122 -14 72 -12 82 14 68 9 -5 45 -22 81 -38z m3580 10 c0 -10 -6 -27 -14 -38
-13 -17 -15 -17 -21 -2 -7 18 10 58 25 58 6 0 10 -8 10 -18z m-6209 -12 c26
-14 24 -30 -4 -30 -22 0 -63 -23 -80 -44 -5 -6 -6 4 -3 23 9 52 45 73 87 51z
m4558 -88 c55 -22 81 -27 154 -27 48 0 87 -1 87 -2 0 0 -21 -14 -47 -29 -40
-23 -62 -29 -134 -32 -52 -3 -101 0 -123 8 -20 6 -68 12 -107 12 -95 0 -155
-29 -188 -92 -30 -56 -75 -98 -136 -130 -59 -31 -76 -56 -87 -131 -8 -61 -62
-180 -70 -157 -3 7 -6 54 -7 103 -4 152 41 240 154 303 50 28 83 56 115 97 79
101 115 117 244 109 55 -3 100 -13 145 -32z m-4531 16 c21 -21 14 -39 -12 -32
-46 11 -87 -61 -54 -94 14 -14 4 -27 -16 -19 -38 15 -31 94 11 133 28 26 53
30 71 12z m1703 -79 c14 -35 37 -98 49 -139 12 -41 26 -79 30 -85 5 -5 25 -41
45 -80 45 -88 85 -124 177 -160 40 -15 92 -41 116 -58 l44 -29 -21 -22 c-12
-12 -21 -27 -21 -33 0 -13 70 -39 142 -52 65 -12 91 -28 211 -130 26 -22 57
-46 68 -52 11 -6 64 -41 117 -78 100 -70 174 -112 274 -155 46 -20 64 -34 88
-72 56 -88 35 -92 -113 -18 -48 24 -97 44 -108 44 -28 0 -59 -18 -59 -34 0
-24 -27 -25 -97 -5 -45 13 -82 18 -109 14 l-41 -6 -5 73 c-7 111 -67 207 -120
195 -45 -10 -363 -156 -372 -170 -14 -22 19 -88 67 -137 62 -63 128 -93 212
-94 39 -1 83 3 99 8 28 9 29 8 22 -20 -3 -16 -11 -69 -17 -118 -6 -49 -16 -95
-24 -102 -7 -7 -23 -30 -36 -51 l-23 -37 -13 50 c-8 33 -10 58 -3 76 6 19 5
30 -3 35 -6 3 -13 1 -15 -6 -2 -7 -14 -24 -26 -38 -26 -30 -100 -43 -128 -21
-17 12 -16 16 7 63 14 28 25 61 23 75 -3 21 -9 25 -40 28 -65 5 -188 -66 -188
-109 0 -26 42 -51 95 -57 39 -4 45 -8 45 -27 0 -13 -13 -37 -30 -55 -25 -26
-36 -31 -66 -28 -46 4 -58 -18 -17 -32 16 -6 37 -24 46 -40 10 -16 31 -37 47
-46 29 -17 29 -18 12 -46 -18 -31 -54 -37 -78 -13 -9 8 -30 15 -48 15 -62 0
-96 -65 -111 -210 -6 -64 -11 -78 -36 -101 -33 -30 -37 -62 -15 -114 16 -37
90 -92 139 -102 15 -3 27 -9 27 -13 0 -13 -77 -38 -151 -49 -36 -6 -88 -18
-115 -26 -27 -8 -56 -15 -65 -15 -11 0 -31 41 -69 143 l-54 142 -7 155 c-4 85
-11 178 -14 205 l-7 50 60 -3 c102 -6 189 46 236 140 22 43 26 66 26 135 0 69
-4 92 -25 133 -23 45 -49 70 -72 70 -18 0 -188 -103 -256 -155 -67 -50 -72
-52 -87 -36 -25 29 -56 41 -104 41 -37 0 -52 -6 -82 -32 -60 -53 -92 -146
-130 -380 -9 -60 -21 -108 -26 -108 -4 0 -8 4 -8 10 0 5 -14 40 -32 77 -39 85
-40 152 -2 257 14 39 37 105 51 146 15 46 42 97 69 133 24 31 44 60 44 63 0
26 -232 -38 -252 -70 -5 -6 -8 -7 -8 -1 0 6 -2 57 -3 115 -2 98 -4 110 -37
175 -19 39 -42 81 -51 95 -9 14 -44 90 -78 170 -34 80 -71 163 -82 186 -23 48
-24 64 -4 64 13 0 92 -28 140 -50 49 -21 331 -122 380 -135 58 -15 77 -24 131
-60 19 -13 49 -27 67 -31 18 -3 57 -18 87 -31 30 -13 82 -34 115 -45 33 -11
81 -31 107 -44 26 -13 52 -24 58 -24 22 0 20 29 -3 81 -38 84 -40 95 -22 150
9 27 14 61 11 75 -8 30 -62 120 -94 154 -33 36 -35 58 -17 136 9 38 25 119 35
180 23 129 37 174 58 192 25 19 34 11 63 -59z m319 -65 l28 -89 -40 -18 c-63
-29 -171 -49 -185 -34 -13 14 -38 86 -48 137 l-6 35 100 29 c56 15 101 33 101
39 0 29 23 -18 50 -99z m3852 -28 c92 -56 98 -67 113 -211 13 -120 29 -173 63
-211 64 -70 85 -144 63 -228 -6 -25 -14 -80 -18 -122 -6 -73 -7 -75 -30 -69
-32 8 -89 -21 -115 -59 -31 -43 -56 -60 -103 -67 -22 -3 -48 -9 -57 -14 -32
-13 -21 36 29 130 39 76 46 98 46 146 -1 68 -17 100 -78 159 -66 63 -78 89
-65 142 14 62 12 145 -5 235 -20 102 -19 104 11 66 14 -18 49 -49 79 -68 92
-61 107 -105 80 -225 -21 -91 -15 -114 42 -182 18 -22 35 -50 38 -62 2 -11 6
-30 8 -41 3 -11 5 -1 6 21 1 35 -6 51 -44 100 -50 64 -56 97 -30 169 22 61 19
126 -7 165 -13 19 -50 54 -82 79 -85 67 -101 91 -101 159 0 31 4 70 8 85 l8
28 38 -43 c22 -24 68 -60 103 -82z m-5860 85 c14 -16 37 -60 52 -97 73 -180
96 -211 181 -243 62 -24 73 -45 19 -35 -99 17 -150 63 -195 173 -18 44 -52
104 -76 133 -46 56 -50 67 -31 86 17 17 23 15 50 -17z m4784 -23 c20 -39 102
-118 123 -118 5 0 15 -8 22 -17 13 -15 11 -16 -21 -9 -19 4 -68 12 -108 18
-65 9 -75 9 -92 -7 -20 -18 -26 -51 -12 -71 4 -7 49 -13 112 -16 84 -3 114 -9
148 -26 59 -31 99 -76 132 -148 35 -78 50 -88 50 -35 l0 41 48 -48 c26 -27 59
-57 73 -68 32 -24 59 -74 59 -109 0 -15 -14 -55 -31 -91 -33 -69 -34 -108 -3
-152 21 -31 47 -27 63 8 7 17 23 38 36 46 21 13 27 13 64 -7 41 -21 53 -22
136 -4 65 14 101 -63 71 -153 -21 -62 -91 -131 -141 -139 -26 -4 -35 -2 -35 8
-1 24 -50 51 -90 51 -59 -1 -159 -56 -245 -135 -40 -37 -77 -47 -277 -78 -142
-22 -242 -32 -333 -33 -119 -1 -136 2 -197 26 -86 34 -188 102 -263 176 -79
77 -87 87 -129 173 -38 78 -50 126 -61 250 l-7 76 51 103 c33 66 51 116 51
139 0 55 19 80 92 125 37 23 76 53 88 69 28 35 79 36 156 2 31 -14 60 -25 64
-25 14 0 22 58 11 78 -11 21 -78 52 -111 52 -24 0 -26 15 -4 24 25 10 106 7
144 -5 48 -14 198 -13 248 1 22 7 53 23 68 36 16 13 30 23 31 24 1 0 10 -15
19 -32z m-474 -84 c40 -13 67 -38 55 -51 -2 -2 -24 6 -48 17 -24 11 -58 20
-76 20 -31 0 -48 11 -36 24 11 11 58 7 105 -10z m-2165 -151 c189 -400 182
-376 82 -292 -11 9 -43 91 -79 200 -65 200 -62 189 -55 189 3 0 26 -44 52 -97z
m-97 84 c0 -2 23 -70 50 -152 28 -81 48 -150 46 -152 -3 -3 -17 4 -33 15 -15
11 -65 34 -110 52 -78 29 -123 66 -123 98 0 6 -4 12 -8 14 -4 2 -15 19 -24 38
l-17 35 27 3 c44 4 152 34 158 43 5 8 34 13 34 6z m2786 -7 c105 -18 171 -41
208 -74 39 -35 72 -101 56 -111 -6 -3 -10 -1 -10 4 0 23 -77 95 -125 117 -42
20 -66 24 -147 24 -88 0 -98 2 -98 18 0 36 17 39 116 22z m-2318 -100 c11 -30
41 -99 66 -153 25 -54 46 -104 46 -110 0 -33 -238 -110 -259 -83 -16 21 -129
270 -133 293 -2 13 8 21 37 31 58 19 189 83 194 94 6 17 28 -15 49 -72z
m-2138 44 c-17 -43 -11 -65 23 -99 39 -39 93 -53 151 -37 40 10 41 10 83 -35
l42 -46 56 6 c53 5 55 5 55 -19 0 -14 -6 -27 -13 -30 -8 -3 -49 10 -93 27 -75
31 -144 42 -160 26 -4 -4 -8 -25 -8 -46 -1 -22 -4 -42 -7 -46 -12 -11 -77 23
-90 47 -6 12 -29 42 -50 65 -33 36 -39 49 -39 87 0 51 11 86 35 109 23 23 26
21 15 -9z m178 -16 c45 -12 81 -27 79 -33 -5 -17 -89 -55 -123 -55 -76 0 -119
44 -95 96 9 20 17 25 34 21 12 -4 59 -16 105 -29z m530 -20 c17 -17 15 -35 -8
-58 -39 -39 -202 -17 -208 28 -3 19 1 22 35 23 21 0 56 4 78 8 60 13 90 12
103 -1z m-397 -32 c-18 -21 -9 -59 14 -66 11 -3 29 -11 40 -17 17 -11 18 -14
5 -23 -27 -18 -51 -11 -87 25 l-36 36 33 34 c32 33 56 41 31 11z m59 14 c0 -6
12 -9 27 -8 19 2 28 -2 31 -14 2 -12 -3 -18 -13 -18 -9 0 -19 -9 -22 -20 -6
-24 -16 -25 -33 -6 -6 8 -18 12 -26 9 -17 -6 -18 5 -1 40 12 26 37 37 37 17z
m797 -212 c60 -89 64 -105 46 -170 -14 -51 -14 -60 1 -104 9 -26 15 -49 13
-50 -4 -4 -110 37 -198 77 -36 16 -74 29 -85 29 -24 0 -96 41 -101 57 -3 7 22
29 54 49 134 86 167 110 192 141 14 18 28 33 31 33 3 0 24 -28 47 -62z m2033
25 c0 -10 9 -33 20 -51 24 -39 25 -52 4 -52 -17 0 -44 57 -44 95 0 14 5 25 10
25 6 0 10 -8 10 -17z m-726 -88 c38 -11 41 -15 44 -50 2 -24 -2 -43 -13 -55
-10 -11 -18 -36 -19 -57 -1 -22 -9 -49 -18 -62 l-16 -23 -27 42 c-38 61 -145
270 -145 285 0 7 30 -4 77 -28 42 -22 95 -46 117 -52z m843 65 c1 0 9 -7 17
-16 12 -11 16 -36 16 -90 0 -71 -1 -75 -25 -84 -14 -5 -52 -27 -83 -49 l-58
-39 -21 40 c-18 32 -20 44 -11 64 6 13 17 24 23 24 7 0 18 7 25 15 7 8 21 15
31 15 10 0 22 7 27 16 6 11 11 13 16 5 12 -19 26 -12 26 14 0 13 -13 40 -30
58 -34 40 -31 49 13 36 18 -5 33 -9 34 -9z m-3307 -9 c13 -25 5 -45 -25 -61
-51 -27 -73 13 -30 55 29 30 41 31 55 6z m3145 -31 c4 -16 11 -32 16 -35 5 -4
9 -16 9 -28 l0 -21 -20 20 c-23 22 -39 94 -22 94 6 0 13 -13 17 -30z m-567
-52 c-2 -39 -7 -53 -18 -53 -11 0 -16 14 -18 53 -3 47 -1 52 18 52 19 0 21 -5
18 -52z m-748 -15 c0 -16 0 -16 -39 3 -25 13 -30 19 -20 30 9 11 15 11 35 -4
13 -9 24 -23 24 -29z m1273 12 c30 -64 16 -88 -22 -39 -21 27 -27 55 -14 67
12 13 19 7 36 -28z m-2946 11 c11 -11 -7 -36 -32 -42 -36 -9 -55 2 -55 32 0
25 2 26 41 21 22 -3 43 -8 46 -11z m2163 -103 c33 -65 74 -138 90 -163 42 -66
74 -129 68 -135 -5 -6 -121 57 -148 79 -8 7 -59 43 -112 79 -53 37 -118 87
-144 112 -26 25 -51 45 -56 45 -4 0 -8 5 -8 10 0 6 11 10 25 10 29 0 127 36
170 62 16 10 36 18 42 18 7 0 40 -53 73 -117z m3000 108 c0 -5 25 -36 55 -68
82 -87 86 -139 19 -280 -20 -43 -39 -96 -42 -118 -4 -36 -11 -44 -61 -77 -31
-20 -73 -44 -93 -53 -42 -17 -92 -20 -83 -5 3 6 15 10 26 10 34 0 104 56 139
110 45 70 53 159 18 210 -13 19 -38 41 -56 49 -37 17 -37 17 13 126 18 39 35
78 38 88 7 18 27 24 27 8z m-2357 -92 c37 -6 67 -14 67 -18 0 -14 -50 -31 -88
-31 -51 0 -332 76 -332 89 0 7 230 -19 353 -40z m-296 -4 c68 -26 240 -65 288
-65 32 0 57 7 77 22 l30 21 -4 -129 c-4 -142 -12 -164 -64 -189 -47 -22 -116
-18 -244 14 -63 16 -139 32 -168 36 -47 6 -56 11 -78 46 -13 21 -24 43 -24 49
0 5 -4 10 -10 10 -14 0 -12 27 5 59 13 26 17 28 62 24 40 -4 51 -1 67 16 20
23 31 81 15 81 -5 0 -9 5 -9 10 0 14 13 13 57 -5z m-75 -19 c15 -22 7 -44 -21
-56 -55 -22 -92 20 -55 62 18 19 62 15 76 -6z m548 -143 c0 -41 10 -72 44
-145 25 -51 46 -106 48 -123 l3 -30 -64 -3 c-47 -2 -107 7 -215 32 -83 19
-200 42 -261 51 -128 20 -164 35 -165 68 0 10 21 6 190 -35 214 -52 298 -40
340 47 17 34 20 62 20 161 l0 119 30 -45 c24 -35 30 -56 30 -97z m285 42 c16
-33 33 -62 36 -65 4 -3 26 -43 49 -90 23 -46 66 -113 96 -147 54 -64 94 -158
94 -222 0 -47 12 -101 23 -101 10 0 4 139 -8 190 -3 14 4 6 16 -18 14 -28 42
-58 80 -85 33 -22 59 -45 59 -51 0 -5 -7 -17 -16 -27 -8 -9 -17 -37 -19 -61
-3 -39 -11 -52 -74 -116 -39 -39 -71 -79 -71 -87 0 -23 37 -55 64 -55 26 0 56
33 56 60 0 26 41 57 100 77 47 15 55 22 55 43 0 22 -5 26 -45 30 -45 5 -45 5
-48 48 -3 38 -1 43 24 53 15 5 44 9 63 7 l36 -3 0 -65 c0 -59 -4 -72 -44 -140
-65 -111 -69 -120 -89 -201 -11 -41 -36 -107 -57 -148 -34 -66 -37 -80 -37
-150 1 -67 -1 -74 -13 -57 -8 10 -16 44 -19 75 -4 31 -11 76 -17 101 -6 25
-14 90 -19 146 -8 99 -23 146 -58 182 -56 57 -87 116 -102 194 -12 61 -51 108
-91 108 -41 0 -120 115 -154 225 -28 88 -28 87 -79 195 -20 41 -36 85 -36 98
0 38 134 125 185 120 25 -3 34 -12 60 -63z m-1401 -143 c29 -47 46 -103 46
-158 0 -93 -112 -180 -198 -154 l-27 8 28 1 c128 4 157 170 49 278 l-31 30 32
16 c52 26 74 21 101 -21z m-117 -44 c79 -83 85 -186 14 -223 -30 -15 -106 -20
-135 -9 -20 8 -21 24 -1 24 8 0 22 11 31 25 30 45 -3 105 -57 105 -36 0 -69
-31 -69 -65 0 -14 -4 -25 -10 -25 -11 0 -60 70 -60 85 0 12 215 114 241 115 8
0 29 -15 46 -32z m3775 -5 c31 -28 23 -45 -17 -37 -36 6 -48 -9 -25 -32 12
-12 14 -51 5 -80 -4 -13 -1 -27 10 -37 9 -9 13 -22 10 -27 -4 -6 0 -22 9 -35
15 -23 15 -24 -17 -33 -17 -6 -51 -13 -75 -16 l-43 -6 -21 47 c-12 27 -23 68
-25 93 -4 44 -2 47 62 113 69 70 94 80 127 50z m95 -14 c-14 -8 -22 -8 -30 0
-8 8 -3 11 19 11 25 -1 27 -2 11 -11z m33 -48 c0 -5 -9 -12 -20 -15 -11 -3
-29 -9 -40 -12 -11 -3 -20 -1 -20 5 0 6 15 15 33 20 43 12 47 13 47 2z m-3043
-41 c60 -11 159 -31 219 -46 64 -15 142 -27 189 -28 78 -1 80 -2 80 -26 0 -60
-81 -62 -254 -6 -89 29 -231 55 -299 56 -14 0 -62 48 -62 61 0 12 1 12 127
-11z m-975 -7 c25 -23 23 -50 -7 -69 -23 -15 -27 -15 -50 0 -41 27 -28 86 19
86 11 0 28 -7 38 -17z m3648 -38 c0 -44 48 -166 72 -183 10 -7 18 -16 18 -20
0 -4 -26 -20 -58 -36 -31 -17 -76 -42 -98 -58 -23 -15 -77 -39 -120 -54 -44
-14 -94 -35 -111 -46 -35 -21 -36 -20 -33 27 1 17 5 84 9 149 l6 120 47 12
c26 6 68 24 95 39 175 101 173 100 173 50z m380 25 c0 -12 -30 -24 -82 -34
-30 -5 -38 -4 -38 7 0 10 19 18 58 25 31 5 58 10 60 11 1 0 2 -4 2 -9z m-776
-22 c8 -12 21 -45 27 -74 17 -74 -3 -323 -36 -456 -30 -120 -31 -141 -7 -169
53 -66 89 -89 138 -89 15 0 102 19 195 42 103 25 173 38 178 32 17 -17 17 -66
1 -75 -8 -4 -62 -26 -120 -49 -113 -45 -150 -71 -150 -106 0 -12 27 -55 60
-95 92 -115 97 -119 129 -119 26 0 37 9 80 73 57 85 78 106 85 86 21 -66 27
-92 28 -116 1 -28 -87 -172 -185 -302 -23 -31 -56 -76 -72 -101 -17 -24 -35
-51 -42 -60 -6 -8 -47 -62 -90 -120 -137 -184 -185 -235 -270 -286 -69 -42
-149 -65 -265 -79 -32 -4 -58 -5 -58 -1 0 3 14 27 30 53 64 100 23 202 -81
203 -34 0 -67 -10 -126 -40 -44 -21 -101 -45 -126 -52 -53 -14 -70 -8 -127 45
-19 18 -62 55 -95 82 -60 50 -71 61 -148 145 -84 92 -130 175 -153 282 -33
156 11 305 143 483 58 78 253 282 363 380 30 26 84 76 120 110 36 33 99 90
140 125 41 36 77 68 80 71 3 3 46 37 96 77 151 117 226 146 258 100z m-2579
-50 c33 -17 92 -43 131 -57 39 -14 71 -30 71 -36 0 -5 -8 -9 -18 -7 -27 5 -31
-13 -9 -41 11 -14 20 -28 20 -31 0 -12 -37 -6 -96 15 -72 25 -121 21 -175 -15
-21 -14 -41 -26 -44 -26 -3 0 -5 14 -5 31 l0 32 -73 -7 c-114 -10 -112 10 8
69 57 28 76 43 89 70 9 19 22 35 29 35 7 0 39 -14 72 -32z m3329 -13 c-10 -8
-29 -15 -41 -16 -13 -1 -27 -2 -33 -3 -5 -1 -11 3 -12 9 -3 9 92 36 101 28 3
-2 -4 -10 -15 -18z m-3565 4 c49 -17 37 -29 -29 -29 -83 0 -110 -26 -117 -113
-4 -43 -12 -69 -26 -84 -11 -12 -23 -20 -27 -18 -4 2 -3 32 2 66 20 147 46
189 119 189 25 0 60 -5 78 -11z m639 -15 c39 -6 41 -22 4 -57 l-28 -27 -70 27
c-58 24 -69 32 -72 54 l-3 25 68 -9 c37 -4 83 -11 101 -13z m3342 -25 c0 -51
-15 -79 -42 -79 -28 0 -88 22 -88 32 0 10 103 88 118 88 7 0 12 -15 12 -41z
m45 -60 c5 -65 10 -80 33 -101 23 -21 129 -78 146 -78 3 0 52 -22 108 -50 56
-27 111 -50 121 -50 30 0 81 26 120 59 27 24 40 30 53 23 14 -8 10 -14 -25
-38 -65 -46 -65 -78 2 -105 18 -7 35 -18 39 -23 4 -6 8 -49 8 -96 0 -87 -23
-180 -45 -180 -13 0 -106 37 -185 73 -30 14 -154 69 -275 122 -121 53 -242
107 -270 120 -27 13 -74 33 -102 45 -29 12 -53 26 -53 29 0 14 48 147 63 177
8 16 24 38 36 48 21 19 22 19 74 1 89 -30 117 -12 117 76 0 39 10 57 21 37 4
-7 10 -47 14 -89z m-5605 55 c0 -3 -13 -22 -29 -42 -16 -20 -39 -66 -51 -102
-12 -36 -31 -83 -42 -105 -11 -22 -26 -60 -33 -85 l-12 -45 -12 55 c-7 30 -17
90 -24 132 -15 108 -9 117 100 161 93 37 103 40 103 31z m2396 -20 c48 -15 84
-32 84 -39 0 -7 -16 -27 -35 -43 l-34 -31 -63 26 c-35 13 -71 27 -80 30 -10 3
-18 9 -18 15 0 13 42 68 53 68 5 0 47 -12 93 -26z m-866 12 c0 -3 -11 -17 -25
-32 -27 -29 -32 -53 -15 -70 14 -14 -14 -39 -31 -29 -19 13 -4 96 21 117 20
16 50 24 50 14z m-869 -62 c13 -28 24 -73 27 -115 4 -60 1 -75 -22 -124 -15
-30 -36 -59 -46 -65 -17 -9 -17 -7 1 27 23 45 25 136 4 186 -8 19 -31 49 -52
66 -20 17 -35 32 -32 34 13 12 66 36 81 37 10 0 25 -18 39 -46z m1989 37 c0
-5 16 -30 35 -55 24 -32 31 -48 23 -51 -31 -11 -224 -23 -232 -15 -6 6 1 20
17 36 15 15 27 31 27 37 0 15 33 36 57 37 12 0 25 5 28 10 8 13 45 13 45 1z
m566 -26 c36 -19 72 -35 79 -35 16 0 38 -34 28 -44 -11 -11 -52 -6 -60 7 -4 8
-34 32 -65 56 -53 38 -66 51 -53 51 3 0 34 -16 71 -35z m-1091 -26 c0 -9 -14
-15 -37 -17 -42 -4 -46 2 -22 29 18 20 59 12 59 -12z m1839 9 c-10 -23 -74
-70 -112 -84 -20 -7 -58 -13 -84 -14 -39 0 -48 3 -48 18 1 40 27 55 127 73
124 21 123 21 117 7z m-3418 -27 c47 -29 77 -99 72 -170 -5 -69 -27 -103 -86
-132 -33 -16 -53 -20 -87 -15 -49 8 -71 26 -31 26 55 0 86 71 49 112 -9 11
-30 18 -50 18 -26 0 -37 -6 -51 -29 l-18 -29 -16 44 -16 45 40 37 c39 36 145
112 157 112 3 0 20 -9 37 -19z m4457 -57 c8 -83 -1 -110 -48 -154 -40 -37 -55
-73 -55 -128 0 -27 -6 -64 -14 -82 -12 -30 -19 -34 -122 -61 -60 -15 -115 -28
-121 -29 -18 0 -17 62 2 106 11 27 26 40 68 59 74 34 92 56 92 113 -1 26 -5
66 -9 89 l-9 43 55 25 c30 14 69 41 87 60 52 57 67 49 74 -41z m-2821 28 c21
-44 14 -53 -46 -59 -33 -4 -53 -1 -71 11 -42 28 -28 55 28 56 12 0 31 7 41 15
27 20 29 20 48 -23z m79 11 c54 -19 63 -37 24 -47 -22 -6 -85 16 -85 28 0 3
-3 11 -6 20 -8 21 6 20 67 -1z m1434 0 c-4 -10 -10 -29 -13 -42 -5 -23 -82
-81 -108 -81 -7 0 -25 -16 -40 -35 -25 -33 -30 -35 -84 -35 l-57 0 -6 78 c-3
42 -8 86 -12 98 -6 20 -4 21 67 17 40 -2 109 0 153 5 44 5 86 10 94 11 9 1 11
-5 6 -16z m-2632 -25 c-1 -15 -12 -41 -24 -57 -19 -26 -29 -31 -67 -31 -113 0
-106 51 13 102 56 24 80 20 78 -14z m825 6 c83 -21 94 -30 48 -38 -55 -11
-146 19 -132 43 9 14 4 14 84 -5z m-244 -19 c9 -35 50 -43 85 -17 l28 21 49
-25 c40 -21 60 -24 109 -21 33 2 70 8 83 12 16 5 22 3 22 -7 0 -23 37 -91 62
-115 65 -59 185 -89 261 -64 20 7 51 29 69 49 l34 37 39 -23 c32 -18 52 -22
100 -19 33 2 67 7 76 11 21 9 82 -47 133 -122 34 -51 38 -72 15 -72 -6 0 -7 5
-4 10 3 6 0 10 -8 10 -7 0 -26 14 -43 31 -83 88 -203 90 -259 5 -22 -32 -65
-161 -65 -192 0 -28 7 -34 85 -80 83 -49 138 -55 207 -21 62 31 93 72 110 145
7 29 16 52 20 52 4 0 17 -30 29 -67 27 -87 29 -237 4 -312 -9 -28 -22 -51 -28
-52 -7 -1 -28 0 -49 1 -72 3 -128 -48 -128 -117 0 -34 -5 -41 -43 -64 -81 -49
-179 -80 -192 -60 -3 6 -24 11 -45 11 -29 0 -45 -7 -62 -25 -29 -30 -115 -45
-273 -45 -148 0 -232 14 -343 55 -142 54 -184 84 -327 239 -6 6 -22 27 -35 46
-13 19 -32 43 -41 53 -30 33 -78 144 -90 209 -10 53 -9 77 4 141 16 79 63 197
78 197 5 0 9 6 9 13 1 29 116 129 195 170 28 14 66 26 86 27 31 0 38 -4 43
-25z m716 -11 c0 -8 14 -28 31 -43 17 -16 26 -31 21 -35 -6 -3 -8 -14 -5 -24
2 -10 -7 -30 -22 -46 -22 -23 -29 -26 -36 -15 -16 25 -10 37 21 44 46 10 36
20 -21 20 -43 0 -54 4 -75 28 -33 38 -31 57 5 57 16 0 34 7 41 15 16 20 40 19
40 -1z m84 -20 c32 -11 44 -20 38 -26 -14 -14 -54 -3 -83 22 -29 24 -17 25 45
4z m361 10 c39 -15 52 -79 38 -192 -6 -50 -7 -52 -24 -36 -15 13 -19 31 -19
81 0 50 -4 67 -20 83 -23 23 -27 24 -84 9 -36 -9 -49 -8 -76 6 -17 9 -30 19
-27 21 5 6 142 31 174 33 12 1 29 -2 38 -5z m-2565 -42 c37 -40 85 -159 70
-175 -4 -5 -45 1 -91 13 -59 15 -98 20 -131 15 -43 -5 -48 -4 -48 14 0 33 38
110 70 141 44 43 83 41 130 -8z m1999 2 c7 -19 19 -38 27 -41 21 -8 17 -18
-11 -31 -45 -21 -84 -15 -116 17 -38 38 -38 61 -1 61 16 0 37 7 48 15 29 22
39 18 53 -21z m-138 -28 c31 -66 116 -90 176 -50 28 18 38 12 48 -28 l7 -28
-60 0 c-91 0 -173 44 -207 111 -19 35 -19 39 0 39 8 0 24 -20 36 -44z m1649
-26 c-68 -63 -80 -70 -80 -45 0 24 -29 29 -50 10 -14 -13 -20 -31 -20 -60 0
-34 -6 -47 -35 -75 l-35 -34 0 45 c1 58 23 117 51 137 63 46 146 82 189 82
l45 0 -65 -60z m1027 -10 c13 -79 -3 -113 -62 -136 -68 -26 -97 -63 -106 -135
-7 -61 -18 -79 -51 -79 -16 0 -17 9 -11 82 7 97 -10 103 -21 7 -4 -41 -12 -66
-23 -75 -24 -18 -27 -18 -56 12 -37 36 -41 73 -21 157 16 65 22 76 61 105 23
18 47 32 53 32 25 0 165 52 189 70 14 11 29 20 32 20 3 0 11 -27 16 -60z
m-2237 30 c6 -11 27 -29 48 -39 l37 -20 -32 -1 c-62 0 -149 50 -126 74 15 14
63 5 73 -14z m228 -15 c15 -32 16 -75 2 -75 -5 0 -10 3 -10 8 0 4 -18 20 -40
36 -46 34 -49 43 -17 49 46 9 54 6 65 -18z m-164 0 c25 -19 9 -19 -24 0 -14 8
-19 14 -10 14 8 0 24 -6 34 -14z m-2156 -27 c17 -17 15 -53 -3 -68 -38 -31
-96 27 -65 65 15 18 51 20 68 3z m635 -5 c10 -3 38 0 63 7 58 16 66 6 61 -68
-5 -65 -30 -102 -84 -121 -51 -18 -111 -3 -148 37 -31 33 -31 45 -2 61 27 14
57 60 57 86 0 12 5 15 18 10 9 -4 25 -10 35 -12z m5117 -43 c0 -27 -2 -50 -5
-50 -16 0 -65 32 -65 42 0 12 49 57 63 58 4 0 7 -22 7 -50z m-2920 32 c0 -4
-21 -14 -47 -21 -26 -6 -56 -19 -65 -28 -10 -9 -18 -12 -18 -6 0 5 9 18 19 27
29 26 111 47 111 28z m376 -27 c6 -15 -23 -52 -33 -42 -8 9 6 57 18 57 5 0 12
-7 15 -15z m1808 -75 c86 -38 158 -70 161 -70 3 0 33 -13 67 -29 100 -46 357
-159 421 -185 20 -8 37 -20 37 -26 0 -6 -10 -34 -21 -61 -19 -44 -25 -49 -53
-49 -44 0 -121 41 -180 95 -27 25 -54 45 -60 46 -159 7 -250 41 -304 113 -37
49 -57 59 -156 74 -51 8 -78 18 -105 40 -38 32 -42 50 -19 105 14 36 14 36
212 -53z m-1974 39 c0 -22 -6 -28 -31 -33 -57 -11 -69 -8 -69 19 0 14 -4 25
-10 25 -5 0 -10 5 -10 11 0 6 23 9 60 7 57 -3 60 -4 60 -29z m-519 -107 c28
-46 33 -66 40 -150 5 -53 13 -113 19 -132 5 -19 10 -56 10 -82 0 -57 23 -120
61 -170 29 -37 47 -104 35 -133 -5 -13 -10 -14 -28 -4 -13 7 -25 15 -28 19 -3
4 -41 30 -85 60 -103 68 -98 62 -81 96 21 42 37 179 30 249 -4 33 -18 92 -32
130 -27 75 -38 159 -27 202 l6 27 24 -30 c13 -16 38 -53 56 -82z m401 81 c3
-27 4 -28 61 -25 55 4 57 3 57 -21 0 -42 -24 -57 -90 -57 -40 0 -64 5 -80 18
l-21 17 26 48 c30 54 42 59 47 20z m-3187 7 c3 -5 0 -10 -9 -10 -24 0 -53 -79
-77 -210 -12 -69 -22 -134 -22 -146 1 -19 -5 -20 -68 -20 -57 1 -68 4 -63 16
18 44 37 119 60 242 l27 138 73 0 c40 0 76 -4 79 -10z m137 -28 c17 -18 37
-169 39 -287 1 -131 -4 -151 -35 -126 -8 7 -37 14 -65 18 -28 3 -51 7 -51 9 0
1 14 16 30 32 36 36 36 40 10 213 -15 97 -25 138 -38 148 -15 11 -9 12 43 7
33 -4 63 -10 67 -14z m2351 -20 c29 -26 57 -87 57 -125 0 -32 -1 -33 -62 -46
-90 -19 -98 -21 -98 -32 0 -14 -20 -11 -36 6 -33 32 -57 126 -36 139 5 3 16
-4 25 -15 22 -25 63 -25 77 0 14 27 13 47 -6 65 -38 38 37 46 79 8z m452 3 c0
-13 -8 -21 -22 -23 -19 -3 -23 1 -23 23 0 22 4 26 23 23 14 -2 22 -10 22 -23z
m-3656 -31 c28 -25 51 -50 51 -55 0 -5 -10 -13 -23 -18 -53 -21 -54 -26 -17
-206 35 -177 44 -195 91 -195 36 0 36 -5 1 -38 -15 -15 -41 -44 -57 -65 l-29
-39 -39 114 c-71 205 -90 281 -77 301 6 11 9 22 6 25 -3 3 -6 0 -6 -6 0 -7 -4
-12 -8 -12 -24 0 -42 183 -22 221 20 36 71 25 129 -27z m739 -6 c51 -270 50
-251 16 -283 -32 -30 -107 -35 -122 -9 -5 9 0 62 14 138 37 200 73 260 92 154z
m2381 6 c9 -20 9 -30 0 -40 -29 -36 -81 5 -59 46 15 28 45 25 59 -6z m2651 -3
c0 -17 95 -53 162 -63 65 -9 70 -12 119 -63 29 -30 66 -62 83 -71 44 -23 124
-44 168 -44 50 0 76 -12 123 -55 43 -40 123 -85 152 -85 43 -1 44 -14 12 -91
-18 -41 -55 -130 -84 -199 -50 -121 -52 -125 -81 -124 -16 1 -60 16 -99 34
-38 18 -90 40 -115 50 -25 10 -101 45 -170 78 -178 85 -213 100 -309 133 -47
16 -87 29 -88 29 -9 0 3 30 49 127 60 125 73 203 43 249 -15 23 -16 32 -5 65
7 22 19 39 27 39 7 0 13 -4 13 -9z m-4045 -18 c-4 -10 -9 -53 -12 -95 -3 -43
-9 -78 -12 -78 -8 0 -40 52 -63 103 l-17 38 25 9 c14 6 29 10 33 10 5 0 14 7
21 15 17 21 34 19 25 -2z m1585 -35 c16 -22 30 -49 30 -59 0 -33 -38 -105 -70
-132 -26 -23 -41 -27 -91 -27 -63 0 -75 4 -151 53 -50 32 -56 46 -34 86 l14
25 15 -31 c21 -39 79 -83 121 -90 44 -7 102 21 122 60 16 30 16 104 0 140 -15
33 14 17 44 -25z m570 10 c18 -6 56 -7 82 -4 26 4 48 3 48 -1 0 -4 -31 -41
-69 -82 l-69 -74 -46 7 c-55 9 -62 21 -47 80 20 81 30 99 49 91 9 -4 33 -12
52 -17z m-510 -18 c0 -5 -4 -10 -10 -10 -5 0 -10 5 -10 10 0 6 5 10 10 10 6 0
10 -4 10 -10z m-1778 -17 c10 -9 18 -23 18 -31 0 -13 32 -64 56 -89 27 -28 54
-81 60 -121 15 -95 -68 -226 -161 -252 -106 -30 -258 17 -295 90 -22 43 -26
70 -10 70 6 0 10 -4 10 -10 0 -5 7 -10 15 -10 18 0 22 18 35 145 14 145 33
195 75 195 33 0 39 -12 14 -31 -31 -23 -16 -43 19 -25 15 7 51 17 80 21 46 6
52 9 47 26 -6 19 0 39 12 39 4 0 15 -7 25 -17z m-1465 -50 c131 -138 168 -175
185 -184 24 -13 23 -28 -4 -39 -13 -5 -33 -17 -45 -26 -21 -15 -23 -15 -23 0
0 14 -34 76 -61 110 -32 41 -103 120 -131 145 -28 26 -31 32 -18 41 27 18 42
11 97 -47z m5550 21 c38 -10 39 -59 5 -145 -49 -123 -116 -259 -127 -256 -5 2
-16 31 -24 64 -14 60 -14 61 12 94 71 94 51 148 -54 149 -34 0 -37 2 -42 37
-4 20 -5 38 -3 40 16 16 190 28 233 17z m-5621 -52 c40 -37 99 -106 143 -170
20 -28 22 -38 12 -58 -22 -48 -114 -83 -138 -51 -10 12 -47 161 -58 232 -3 22
-8 50 -11 63 -6 31 4 27 52 -16z m3194 -1 c0 -17 -58 -51 -87 -51 -57 0 -72
39 -15 41 15 0 36 4 47 9 27 12 55 12 55 1z m555 -51 c44 0 51 -16 21 -54 -30
-39 -50 -44 -84 -20 l-22 15 21 41 c15 30 24 37 32 29 6 -6 20 -11 32 -11z
m1743 -50 c2 -17 -11 -41 -38 -75 -22 -27 -65 -87 -96 -132 -71 -106 -85 -108
-144 -23 -13 19 -35 46 -48 60 -38 40 -54 76 -39 88 24 19 114 60 177 80 36
12 72 23 80 26 8 3 35 4 60 3 40 -2 45 -5 48 -27z m-1771 -66 c2 0 -10 -24
-25 -52 -21 -40 -32 -52 -51 -52 -23 0 -24 2 -18 50 3 27 11 59 17 70 11 20
12 20 43 3 18 -10 33 -18 34 -19z m-3088 -14 c115 -17 211 -41 211 -53 0 -1
18 -54 41 -117 113 -319 118 -352 73 -443 -40 -81 -78 -107 -227 -160 -187
-67 -298 -89 -422 -85 -80 2 -108 7 -143 26 -106 55 -162 178 -182 396 -6 65
-13 123 -16 127 -16 26 67 121 189 218 95 74 126 91 169 92 18 0 42 4 53 9 33
14 106 11 254 -10z m1103 -62 c17 -24 17 -28 2 -42 -22 -23 -80 -66 -87 -66
-3 0 4 24 17 53 13 28 27 66 31 82 5 19 9 25 13 15 3 -8 13 -27 24 -42z m1917
-55 c0 -10 -4 -27 -8 -37 -7 -19 -8 -19 -14 -1 -9 21 0 55 14 55 5 0 9 -8 8
-17z m-1806 -93 c37 -44 64 -80 59 -80 -4 0 -32 13 -62 28 -30 16 -79 34 -108
41 -28 7 -52 17 -52 22 0 5 5 9 10 9 6 0 24 14 42 30 17 17 34 30 37 30 3 0
36 -36 74 -80z m4802 33 c50 -25 70 -43 45 -43 -16 0 -120 54 -120 62 0 14 17
9 75 -19z m-1020 -13 c14 -5 25 -11 25 -14 0 -12 -46 -89 -56 -93 -15 -6 -84
25 -84 38 0 6 10 29 22 51 23 41 29 42 93 18z m987 -46 c36 -18 44 -24 23 -19
-44 9 -85 26 -85 36 0 13 2 12 62 -17z m-3227 -24 c25 -17 45 -33 45 -36 0 -7
-42 -84 -64 -116 -18 -28 -18 -28 -48 -10 -46 27 -52 39 -18 39 16 0 36 5 44
12 24 20 30 68 12 96 -20 30 -56 33 -63 5 -3 -11 -13 -20 -23 -20 -19 0 -30
-19 -30 -51 0 -27 -16 -15 -36 26 -16 34 -13 55 8 55 6 0 8 -11 6 -25 -3 -14
-2 -25 2 -25 12 0 20 28 13 47 -4 11 -3 14 5 9 15 -9 52 2 52 15 0 6 -6 7 -12
2 -7 -4 -25 -8 -40 -9 -22 -1 -24 1 -15 12 21 24 110 10 162 -26z m2338 34 c3
-4 0 -16 -8 -28 -19 -26 -19 -70 -1 -85 20 -17 62 5 77 40 14 36 29 36 106 -4
50 -25 60 -35 53 -47 -15 -23 -12 -76 5 -90 22 -18 64 -4 77 28 7 15 13 29 15
31 1 2 22 -5 46 -15 42 -17 45 -22 51 -63 8 -58 6 -269 -3 -301 -7 -24 -10
-25 -87 -24 -137 2 -375 66 -460 125 -48 33 -94 84 -94 104 0 8 32 64 70 125
39 62 82 134 95 161 23 45 42 59 58 43z m51 -20 c25 -9 -7 -84 -36 -84 -21 0
-25 38 -8 71 11 20 19 23 44 13z m-4104 -24 c0 -23 -36 -50 -66 -50 -30 0 -50
26 -34 44 10 13 22 16 83 23 11 1 17 -5 17 -17z m215 -65 c72 -36 144 -67 160
-71 17 -3 40 -13 52 -20 13 -8 69 -30 125 -48 l103 -34 -44 -12 c-24 -6 -57
-25 -73 -41 -34 -33 -36 -34 -58 -14 -32 29 -172 55 -398 75 -174 15 -252 59
-252 144 0 39 13 66 32 66 4 0 8 -7 8 -15 0 -17 30 -35 59 -35 35 0 70 22 83
52 11 25 17 28 43 23 17 -3 89 -35 160 -70z m4702 53 c68 -25 87 -38 75 -50
-12 -12 -136 37 -140 56 -4 20 -5 20 65 -6z m-3242 -8 c15 -46 -26 -91 -65
-70 -27 15 -27 50 1 50 12 0 23 8 26 20 3 11 11 20 18 20 8 0 17 -9 20 -20z
m-1882 -12 c-15 -42 -6 -98 22 -138 31 -44 30 -59 -5 -153 -23 -60 -38 -69
-74 -42 -11 8 -28 15 -38 15 -10 0 -18 6 -18 13 0 26 103 327 112 327 5 0 6
-9 1 -22z m-88 -70 c-49 -155 -75 -222 -109 -279 -52 -88 -63 -132 -43 -173
19 -40 12 -113 -12 -125 -9 -5 -80 -10 -157 -13 l-141 -3 -17 44 c-21 58 -10
76 75 121 64 33 144 84 165 105 35 34 44 96 18 130 -12 16 -26 20 -73 20 l-58
-1 -1 63 c-1 35 -3 68 -5 74 -2 12 56 29 178 53 45 8 103 24 130 34 75 30 75
30 50 -50z m2095 52 c0 -5 6 -10 14 -10 7 0 19 -7 27 -16 7 -8 34 -26 60 -39
43 -22 47 -28 54 -71 4 -26 21 -75 38 -110 27 -54 29 -66 18 -86 -6 -13 -23
-43 -36 -68 -14 -25 -25 -50 -25 -57 0 -18 -19 -26 -33 -15 -27 22 -95 33
-143 22 -132 -30 -210 -188 -145 -290 27 -42 64 -68 114 -81 26 -7 47 -16 47
-20 0 -22 -40 -51 -77 -56 -63 -8 -108 23 -128 90 -44 150 -46 311 -4 387 40
73 81 90 220 90 88 0 118 3 122 13 8 20 -1 29 -83 80 -41 25 -90 59 -108 74
l-33 28 27 50 c15 28 33 60 41 73 14 23 33 30 33 12z m2054 -5 c20 -8 36 -21
36 -27 0 -12 -66 -126 -79 -138 -8 -7 -28 -39 -47 -76 -20 -38 -14 -71 20
-111 22 -27 25 -53 4 -53 -5 0 -30 18 -55 40 -25 22 -50 40 -55 40 -16 0 -68
44 -68 58 0 7 19 39 43 70 24 31 63 86 88 122 70 103 60 97 113 75z m496 -40
c26 -31 -24 -90 -56 -64 -17 14 -18 33 -4 60 13 23 43 25 60 4z m-2830 -16 c0
-12 -48 -31 -69 -27 -10 2 -4 10 19 25 33 21 50 22 50 2z m3414 -15 c9 -8 16
-32 16 -54 0 -32 -4 -39 -27 -48 -32 -12 -234 -42 -335 -49 l-68 -5 0 56 c0
31 2 56 4 56 2 0 36 -13 74 -30 113 -48 150 -41 186 36 l26 54 54 0 c36 0 60
-5 70 -16z m-3309 -64 c22 -16 73 -52 113 -80 39 -28 72 -53 72 -55 0 -3 -97
-5 -215 -5 l-216 0 -39 38 c-22 21 -41 51 -45 70 l-7 32 49 0 c26 1 77 7 113
14 102 21 130 19 175 -14z m-404 7 c8 -7 24 -34 34 -61 10 -27 37 -66 59 -87
l40 -39 -22 -45 c-12 -26 -29 -45 -38 -45 -21 0 -134 60 -134 71 0 5 -5 9 -11
9 -13 0 -48 40 -49 55 0 22 52 121 73 137 26 21 27 21 48 5z m-137 -59 c-9
-30 -6 -30 -43 -17 -45 16 -109 3 -157 -31 l-40 -28 -41 26 c-22 15 -49 32
-59 38 -14 8 9 12 101 13 66 1 140 6 165 10 78 14 82 14 74 -11z m-1074 -54
c19 -87 111 -158 183 -140 45 11 87 54 93 97 7 40 16 45 61 33 28 -8 49 -60
57 -149 4 -38 14 -95 22 -126 19 -78 19 -79 -23 -78 -83 3 -95 10 -118 68 -11
30 -32 63 -47 74 -26 19 -28 19 -53 3 -14 -9 -33 -33 -42 -51 -9 -19 -23 -35
-30 -35 -21 0 -107 22 -115 29 -4 3 -11 56 -17 118 -6 62 -17 128 -26 149 -18
44 -13 54 22 45 20 -5 29 -16 33 -37z m-96 -36 c22 -84 32 -218 16 -218 -23 0
-140 61 -140 73 0 7 13 36 30 65 16 29 34 70 40 90 6 20 14 43 16 51 8 23 22
0 38 -61z m271 49 c85 -13 94 -20 81 -73 -7 -28 -60 -64 -94 -64 -59 0 -126
58 -138 120 -6 29 -6 30 32 29 22 0 75 -6 119 -12z m539 7 c24 -9 19 -32 -13
-65 -39 -39 -97 -40 -138 -4 l-28 25 30 25 c23 19 41 25 82 25 28 0 58 -3 67
-6z m331 -39 c0 -28 -3 -30 -41 -33 -29 -2 -47 3 -67 18 -46 37 -31 49 58 47
49 -2 50 -3 50 -32z m-258 -5 c29 -22 63 -26 80 -9 14 14 43 5 43 -14 0 -7
-11 -24 -25 -37 -23 -22 -29 -23 -58 -12 -19 7 -45 12 -59 12 -31 0 -41 21
-28 55 11 30 15 31 47 5z m-1375 -5 c0 -5 -5 -11 -11 -13 -6 -2 -11 4 -11 13
0 9 5 15 11 13 6 -2 11 -8 11 -13z m4527 -105 c103 -52 288 -100 419 -107 62
-4 91 -9 89 -17 -6 -17 -207 -12 -312 8 -164 32 -345 141 -345 208 l0 30 56
-51 c31 -29 73 -60 93 -71z m-4551 88 c8 -8 15 -8 27 2 27 22 42 -3 21 -35
-15 -22 -22 -25 -48 -20 -33 8 -48 -5 -48 -41 0 -12 -8 -24 -17 -27 -24 -8
-108 -58 -132 -79 -33 -28 -36 -64 -11 -142 12 -39 25 -99 28 -134 4 -58 8
-67 49 -110 73 -77 76 -114 13 -147 -57 -30 -72 -20 -155 104 -16 24 -35 45
-41 48 -7 3 -29 -7 -50 -21 -27 -18 -42 -23 -55 -16 -12 7 -21 5 -29 -5 -10
-12 -6 -27 20 -80 34 -69 33 -85 -4 -128 -73 -85 -149 -112 -176 -63 -11 21
-10 33 4 77 23 70 15 107 -38 169 -29 34 -49 71 -61 113 -23 76 -61 163 -76
173 -6 3 -15 1 -20 -7 -6 -11 -22 -11 -91 -1 -132 19 -156 29 -160 66 -3 26
-8 32 -32 34 -19 2 -32 -2 -38 -12 -11 -20 -24 -20 -32 -1 -4 10 2 19 18 25
13 5 26 20 30 36 6 24 10 26 46 21 21 -3 66 -22 100 -42 77 -47 156 -59 289
-45 53 5 125 17 160 25 35 9 65 14 67 13 1 -2 0 -15 -3 -29 -4 -24 -11 -28
-60 -34 -72 -9 -93 -30 -93 -92 1 -64 17 -131 37 -151 11 -11 33 -17 67 -17
88 0 186 80 186 152 0 42 -60 155 -90 170 l-24 12 24 9 c14 5 54 20 90 32 35
13 80 29 99 37 39 17 131 106 131 127 0 16 37 46 55 46 6 0 16 -5 23 -12z
m1075 -16 c31 -32 53 -115 60 -219 4 -67 3 -73 -15 -73 -26 0 -45 48 -67 178
-10 59 -22 115 -26 125 -11 27 17 21 48 -11z m143 -32 c30 0 31 -23 3 -51 -28
-28 -51 -20 -62 21 -5 19 -13 39 -18 45 -5 5 -9 15 -9 23 0 9 10 5 31 -12 17
-14 41 -26 55 -26z m-880 2 c26 -19 29 -34 13 -63 -7 -14 -16 -18 -29 -14 -26
8 -85 -9 -107 -30 -32 -32 -26 3 12 71 34 60 39 65 62 59 14 -3 36 -14 49 -23z
m1245 -7 c13 -20 34 -38 47 -41 26 -7 28 -17 5 -39 -23 -24 -63 -37 -90 -30
-29 7 -82 87 -63 93 8 3 23 15 34 27 29 32 40 30 67 -10z m107 6 c11 -16 18
-31 15 -35 -15 -15 -62 -4 -89 21 l-29 27 30 7 c49 11 50 10 73 -20z m-355 12
c4 -3 -10 -22 -31 -42 -21 -20 -45 -47 -53 -60 -9 -15 -20 -21 -27 -17 -9 5
-5 16 11 39 13 18 27 40 30 50 9 23 57 44 70 30z m855 -5 c-7 -19 -53 -21 -85
-4 -28 15 -28 15 30 16 43 0 58 -3 55 -12z m-154 -23 c27 -14 57 -25 65 -25
36 -1 40 -13 22 -68 -10 -29 -20 -55 -23 -57 -5 -5 -178 72 -178 79 0 9 52 96
58 96 4 0 29 -11 56 -25z m2171 15 c4 -6 23 -19 43 -29 20 -11 55 -34 76 -53
38 -33 39 -35 27 -70 -10 -29 -9 -43 2 -71 35 -82 157 -124 230 -79 32 21 41
33 66 96 9 23 16 27 34 22 12 -4 39 -10 61 -13 l38 -6 -6 -41 c-16 -105 -18
-144 -7 -164 15 -28 76 -44 153 -40 58 3 64 5 85 37 15 22 23 49 23 77 0 24 4
44 9 44 17 0 100 -124 134 -201 19 -41 47 -112 63 -159 28 -82 29 -91 29 -280
l0 -195 -30 -60 c-62 -123 -191 -168 -226 -79 -11 30 -42 29 -48 -1 -13 -70
-75 -94 -198 -76 -98 14 -115 22 -137 69 -18 36 -37 38 -46 4 -15 -61 -64 -77
-135 -42 l-42 20 -12 83 c-15 97 -121 530 -157 637 -14 41 -36 99 -49 128 -14
29 -25 55 -25 58 0 13 -78 119 -117 160 -13 13 -23 26 -23 29 0 7 59 96 69
105 4 3 22 26 41 52 34 45 62 60 75 38z m-4205 -19 c0 -5 -7 -14 -15 -21 -13
-10 -15 -9 -15 9 0 12 6 21 15 21 8 0 15 -4 15 -9z m2678 -28 c3 -23 -13 -63
-26 -63 -4 0 -15 7 -25 15 -18 13 -18 15 -1 45 21 34 47 36 52 3z m-1239 -17
c31 -37 76 -185 67 -220 -10 -41 -70 -80 -124 -80 -47 -1 -47 -1 -74 53 -54
106 -28 241 52 267 36 12 57 7 79 -20z m302 -28 c20 -40 20 -42 3 -55 -30 -22
-124 -15 -124 9 0 14 50 72 69 80 27 11 30 9 52 -34z m96 -6 c62 -35 82 -45
178 -85 l80 -34 0 -54 0 -54 -50 -27 c-94 -51 -234 -46 -350 11 -66 33 -125
80 -125 99 0 7 -4 12 -8 12 -4 0 -14 17 -21 38 -8 20 -16 43 -19 50 -7 19 66
4 97 -19 30 -24 98 -25 131 -2 17 12 25 13 28 5 5 -17 42 -15 42 2 0 8 -9 31
-21 50 -12 20 -18 36 -15 36 3 0 27 -12 53 -28z m2747 -52 c22 0 27 -28 12
-63 -16 -39 -32 -53 -72 -61 -38 -8 -74 5 -108 39 -32 32 -33 53 -1 115 l25
50 65 -40 c36 -22 72 -40 79 -40z m-1816 13 c26 -27 74 -71 107 -100 33 -28
76 -65 95 -82 l35 -30 -37 -31 c-36 -29 -51 -70 -27 -70 5 0 27 14 49 31 35
28 89 48 133 49 14 0 17 -9 17 -50 0 -51 31 -130 50 -130 24 0 7 -27 -23 -38
-55 -20 -172 -14 -285 13 -111 27 -204 31 -296 14 -32 -6 -60 -8 -63 -6 -2 3
3 19 12 37 9 18 30 78 45 135 16 57 37 123 47 147 18 46 81 158 89 158 2 0 25
-21 52 -47z m-1537 -54 c-3 -45 -5 -50 -25 -47 -17 2 -22 12 -28 58 -10 76 -5
86 29 60 25 -18 28 -25 24 -71z m1399 71 c12 -7 11 -15 -9 -54 -37 -75 -80
-51 -46 25 18 40 29 46 55 29z m-2235 -33 c114 -54 171 -74 345 -118 164 -41
166 -41 305 -36 77 2 152 10 167 16 28 10 29 9 64 -61 24 -47 57 -92 95 -128
l58 -56 11 -364 c6 -201 16 -382 21 -402 6 -23 22 -47 42 -62 35 -27 42 -30
197 -86 58 -21 128 -47 156 -58 29 -11 96 -28 150 -37 55 -10 102 -21 106 -24
13 -11 -12 -92 -35 -115 -76 -78 -237 -128 -412 -127 -98 0 -224 26 -249 51
-17 17 -58 12 -54 -6 5 -26 80 -61 169 -80 50 -11 93 -27 109 -40 66 -56 216
-104 328 -104 118 0 349 42 472 85 104 37 153 67 224 139 37 38 79 69 106 80
24 10 72 36 107 59 47 31 63 47 63 64 0 28 -19 30 -46 5 -37 -34 -81 -61 -134
-82 -29 -12 -74 -30 -98 -42 -64 -29 -151 -38 -247 -27 -121 13 -189 49 -224
116 -16 31 -14 40 12 47 23 6 358 224 393 257 11 10 23 19 27 19 11 0 77 62
99 93 23 32 23 32 -43 372 -22 110 -39 203 -39 208 0 15 100 6 240 -23 80 -16
166 -30 193 -30 46 0 60 -12 38 -35 -40 -43 -54 -274 -25 -394 28 -117 90
-226 175 -311 87 -87 90 -89 149 -117 95 -44 201 -55 298 -31 137 33 254 167
298 340 23 90 15 279 -16 368 -48 137 -142 266 -250 340 -22 16 -22 16 38 53
33 20 95 74 137 120 l76 82 43 -48 c53 -59 114 -174 149 -282 72 -218 187
-740 218 -988 20 -169 0 -304 -60 -387 -97 -136 -223 -175 -751 -235 -124 -14
-274 -34 -335 -45 -298 -54 -626 -97 -1060 -140 -115 -11 -237 -25 -270 -30
-33 -5 -166 -21 -295 -35 -129 -14 -293 -34 -365 -45 -71 -11 -197 -26 -280
-35 -82 -8 -238 -27 -346 -40 -215 -27 -284 -30 -344 -14 -127 33 -184 95
-229 249 -9 30 -21 69 -26 85 -38 127 -83 456 -94 685 -11 225 21 516 74 665
12 33 42 103 67 155 62 130 60 123 113 426 11 61 25 123 31 137 21 47 72 48
164 4z m2090 16 c21 -10 35 -24 35 -35 0 -19 -28 -97 -80 -222 l-33 -78 -43 5
c-78 8 -144 80 -144 154 1 41 33 103 71 139 58 54 130 67 194 37z m-1648 -64
c9 -44 8 -44 -37 -35 -34 6 -37 16 -14 51 19 30 43 22 51 -16z m-1961 4 c-10
-10 -19 5 -10 18 6 11 8 11 12 0 2 -7 1 -15 -2 -18z m6058 -28 l58 -7 -7 -81
c-4 -45 -9 -85 -11 -89 -8 -12 -107 -10 -143 3 -36 13 -35 7 -19 101 13 75 22
91 48 84 8 -3 41 -7 74 -11z m-5328 -3 c12 -8 52 -90 64 -133 22 -75 -134
-180 -208 -140 -25 14 -42 68 -42 137 0 61 10 72 74 80 49 7 76 25 76 50 0 15
18 18 36 6z m-671 -27 c0 -15 -6 -19 -24 -17 -31 3 -35 7 -27 27 9 24 51 15
51 -10z m3634 16 c13 -8 12 -17 -4 -65 -19 -55 -28 -63 -53 -48 -10 7 -8 21 9
65 23 60 25 62 48 48z m853 -54 c35 -53 4 -125 -85 -198 -58 -49 -95 -66 -121
-56 -21 8 -56 89 -56 130 0 24 7 44 21 58 20 20 124 72 164 82 27 7 68 -2 77
-16z m-1850 -19 c70 -67 195 -118 288 -118 55 0 42 -12 -30 -29 -104 -24 -153
-44 -189 -77 l-37 -33 -66 32 c-71 35 -177 115 -178 135 0 6 10 12 23 12 42 1
106 38 128 75 12 19 22 35 24 35 1 0 18 -15 37 -32z m-1440 -84 c-6 -93 -31
-185 -78 -282 -119 -251 -157 -445 -153 -803 1 -118 -1 -221 -5 -227 -39 -63
-276 -61 -318 2 -4 6 -8 46 -8 89 0 58 -3 77 -13 77 -20 0 -39 -98 -31 -157 6
-46 4 -51 -22 -68 -40 -26 -189 -34 -232 -11 -44 22 -54 47 -63 150 -10 105
-33 146 -45 80 -4 -21 -2 -82 3 -134 7 -60 7 -99 1 -105 -12 -14 -121 -10
-126 4 -2 6 -8 11 -14 11 -14 0 -54 44 -72 79 -42 81 -67 329 -46 466 26 179
79 292 186 402 71 72 161 125 237 140 29 6 29 6 24 -33 -20 -139 -20 -142 -1
-162 64 -66 122 -54 232 52 55 53 67 113 34 169 l-20 34 28 17 c16 9 33 16 39
16 6 0 29 -29 52 -65 23 -36 50 -70 61 -76 73 -39 188 26 188 106 0 37 -16 64
-66 111 -43 40 -44 43 -44 102 l0 61 128 3 c70 2 132 3 137 2 6 -1 9 -23 7
-50z m-931 10 c13 -3 58 -119 63 -159 2 -18 -58 -5 -97 21 -39 25 -59 60 -71
123 l-6 33 48 -6 c26 -4 54 -9 63 -12z m3321 8 c16 -6 15 -12 -6 -74 -12 -37
-25 -70 -28 -73 -3 -3 -18 -3 -32 1 -30 7 -29 17 5 88 11 22 19 46 19 53 0 14
15 16 42 5z m-388 -75 c4 -23 15 -57 26 -75 l20 -32 -25 0 c-13 0 -59 -11
-102 -25 -43 -14 -83 -25 -89 -25 -9 0 -44 91 -44 116 0 6 36 21 81 34 44 14
85 30 91 37 20 24 36 13 42 -30z m-225 -79 c26 -87 26 -91 -26 -115 -27 -12
-68 -34 -93 -48 -70 -39 -110 -32 -141 26 -25 47 23 121 89 138 20 5 53 14 72
19 68 19 87 15 99 -20z m1843 -13 c271 -212 320 -673 93 -871 -62 -55 -116
-82 -189 -94 -226 -37 -473 172 -531 448 -40 185 4 409 86 442 19 8 55 27 81
43 40 24 71 32 189 48 78 10 144 21 147 24 3 3 19 5 36 5 22 0 49 -14 88 -45z
m-1305 -1 c16 -4 23 -15 25 -38 3 -31 4 -31 56 -31 28 1 52 -1 52 -3 0 -19
-39 -30 -128 -34 l-102 -6 0 30 c0 20 10 40 28 58 30 30 37 33 69 24z m-916
-36 c63 -30 69 -35 69 -63 0 -36 31 -89 61 -105 33 -18 82 -16 131 5 23 11 45
22 48 25 8 8 91 47 140 65 25 10 51 19 58 22 7 3 12 -3 12 -16 0 -12 12 -34
26 -48 25 -25 28 -26 117 -19 51 4 153 11 228 15 104 6 144 13 167 27 17 10
33 16 35 13 3 -3 55 -270 72 -369 l6 -35 -133 -1 c-97 -1 -181 -10 -313 -32
-321 -55 -726 -145 -733 -163 -2 -5 -12 -9 -22 -9 -24 0 -28 36 -35 325 -3
127 -8 267 -11 313 -3 45 -3 82 1 82 3 0 37 -15 76 -32z m673 -36 c-1 -7 -2
-21 -2 -32 -2 -23 -39 -35 -77 -26 -34 9 -36 53 -2 60 55 12 63 13 72 11 6 -1
10 -7 9 -13z m116 -10 c0 -27 -4 -30 -41 -36 -50 -8 -57 -4 -51 32 3 26 8 29
48 31 42 2 44 1 44 -27z m340 -482 c23 -7 21 -9 -31 -33 -49 -22 -183 -65
-324 -103 -64 -17 -329 -51 -466 -60 -104 -7 -239 1 -239 14 0 12 322 94 440
112 30 5 96 16 145 24 187 32 226 38 312 45 114 10 133 11 163 1z m10 -49 c0
-18 -108 -103 -261 -205 -212 -142 -221 -146 -300 -146 -73 0 -229 36 -303 69
-25 12 -83 34 -129 50 -180 63 -181 70 -4 63 147 -5 383 16 557 49 113 22 399
104 415 120 12 12 25 12 25 0z m2536 -238 c8 -87 -1 -351 -17 -473 -24 -198
-103 -409 -180 -482 -38 -36 -115 -68 -166 -68 -28 0 -28 0 -2 44 49 83 101
259 135 455 20 113 27 195 31 362 l6 215 57 -4 c39 -3 66 1 86 12 16 8 32 15
36 16 3 0 10 -35 14 -77z m-567 41 l23 -17 -5 -226 c-5 -206 -12 -279 -47
-471 -14 -79 -53 -227 -78 -295 l-18 -50 -139 -6 c-77 -4 -143 -5 -146 -3 -4
2 7 50 23 106 16 57 32 137 35 178 5 66 10 78 35 103 44 42 94 126 112 187 22
73 22 255 1 388 -9 57 -14 106 -11 109 3 3 12 0 20 -6 23 -19 114 -17 134 2
20 21 31 21 61 1z m349 -100 c6 -169 -25 -452 -68 -631 -25 -101 -55 -184 -99
-271 l-31 -62 -120 0 c-65 0 -121 4 -125 9 -3 5 4 33 14 63 75 203 122 495
124 769 l2 196 98 -5 c97 -5 177 9 177 30 0 6 6 8 13 6 8 -3 13 -36 15 -104z
m-2788 -223 c57 -56 132 -75 287 -76 112 0 120 -1 107 -16 -22 -25 -120 -74
-194 -99 -181 -60 -438 -85 -560 -56 -40 10 -88 27 -108 39 l-36 22 49 7 c145
22 236 50 304 92 42 27 101 93 101 113 0 20 7 16 50 -26z m-2550 -112 c25 -7
46 -14 48 -15 2 -1 10 -53 18 -115 36 -279 112 -591 181 -737 14 -29 23 -55
22 -57 -9 -7 -225 -23 -231 -17 -13 13 -76 187 -97 267 -70 273 -106 447 -115
560 l-7 70 48 32 c49 32 56 33 133 12z m270 -6 c1 -114 78 -493 120 -588 5
-11 16 -36 23 -55 8 -19 24 -44 34 -56 52 -53 58 -116 16 -156 -35 -32 -78
-54 -125 -63 -36 -7 -37 -7 -62 49 -34 74 -93 263 -130 417 -20 81 -66 373
-66 417 0 31 1 32 43 33 23 0 58 6 77 13 57 22 70 20 70 -11z m-663 -24 c7 -7
47 -11 101 -11 l89 1 7 -84 c12 -164 110 -583 172 -738 20 -49 34 -90 32 -92
-3 -2 -113 -19 -213 -32 l-40 -5 -31 69 c-95 206 -205 736 -180 866 6 30 11
37 29 37 13 0 28 -5 34 -11z m-130 -17 l43 3 0 -75 c0 -83 22 -251 45 -345 8
-33 26 -112 41 -175 29 -123 73 -255 105 -308 28 -49 25 -54 -28 -46 -65 10
-116 44 -149 101 -46 78 -113 374 -154 678 -26 199 -28 186 17 173 20 -5 56
-8 80 -6z m5130 -354 c-32 -168 -50 -230 -72 -238 -11 -4 -65 -9 -120 -11 -90
-4 -100 -2 -99 14 0 9 1 70 2 136 l2 119 108 27 c59 14 123 34 142 44 19 10
39 14 44 9 6 -5 3 -43 -7 -100z m-309 -105 c-2 -65 -7 -124 -11 -130 -12 -19
-99 28 -131 70 -24 31 -55 141 -44 152 6 6 111 22 157 24 l33 1 -4 -117z
m-222 21 c7 -34 18 -72 26 -85 14 -26 68 -79 81 -79 4 0 7 -4 7 -8 0 -5 -102
-12 -226 -16 -258 -7 -512 -37 -789 -91 -295 -58 -457 -62 -865 -20 -88 9
-304 19 -500 22 -207 4 -335 9 -321 14 12 5 152 25 309 44 158 19 357 44 442
55 85 11 229 27 320 35 220 20 504 52 615 70 50 8 137 21 195 29 58 9 157 25
220 37 143 26 393 58 439 56 34 -2 35 -3 47 -63z m-1597 -364 c139 -13 371
-13 488 2 l96 12 25 -33 c48 -61 160 -246 153 -252 -3 -4 -58 -17 -121 -29
-63 -12 -169 -35 -235 -52 -66 -16 -156 -32 -201 -35 -123 -8 -157 15 -243
174 -30 54 -70 123 -91 153 -58 88 -57 83 -14 76 22 -3 86 -10 143 -16z"/>
<path d="M4104 10051 c-57 -14 -124 -52 -167 -96 l-43 -43 -54 14 c-73 19
-213 18 -280 -2 -63 -19 -121 -53 -173 -103 -120 -113 -111 -275 20 -365 l33
-23 -26 -14 c-64 -34 -114 -137 -114 -236 0 -141 101 -231 313 -282 176 -43
330 -51 463 -26 76 14 136 39 262 110 l63 34 107 -6 c128 -7 197 9 281 64 138
91 195 195 170 311 -12 60 -70 127 -138 162 l-43 21 20 22 c70 75 49 242 -40
322 -53 49 -95 65 -165 65 -63 0 -122 -23 -161 -60 -13 -12 -24 -20 -26 -19
-1 2 -8 19 -15 36 -37 92 -166 143 -287 114z m173 -32 c35 -11 113 -92 113
-118 0 -9 4 -23 10 -31 7 -12 13 -9 30 13 12 15 40 37 62 48 125 64 255 10
308 -129 23 -60 25 -94 9 -143 -13 -38 -56 -89 -76 -89 -7 0 -13 -7 -13 -15 0
-9 9 -15 25 -15 38 0 112 -38 140 -72 100 -119 57 -262 -111 -370 -88 -57
-109 -62 -252 -60 -146 2 -143 2 -267 -72 -125 -76 -287 -100 -489 -72 -312
44 -440 130 -440 296 0 82 27 142 89 197 25 23 45 45 45 50 0 6 -22 27 -49 49
-60 47 -81 88 -81 155 0 79 48 150 147 218 81 55 275 75 373 37 64 -24 75 -24
78 1 4 25 58 74 112 100 86 41 154 48 237 22z"/>
<path d="M2382 8956 c-46 -67 -52 -146 -11 -146 40 0 92 118 69 159 -15 30
-32 26 -58 -13z m38 -16 c0 -33 -31 -100 -47 -100 -16 0 -13 19 14 83 17 40
33 49 33 17z"/>
<path d="M1903 8713 c-13 -2 -23 -10 -23 -18 0 -9 14 -13 50 -12 52 2 58 5 38
25 -12 12 -24 13 -65 5z"/>
<path d="M2233 8579 c-18 -18 -16 -33 7 -54 15 -14 17 -21 9 -32 -18 -21 -49
-15 -59 12 -12 32 -20 32 -20 1 0 -31 26 -58 54 -54 12 1 31 -7 44 -20 25 -25
64 -29 82 -7 17 21 6 29 -20 15 -27 -15 -50 2 -50 37 0 20 4 23 21 18 35 -11
71 3 67 27 -6 44 -107 86 -135 57z m88 -29 c10 -6 19 -15 19 -20 0 -17 -54
-10 -80 10 l-25 20 33 0 c18 0 42 -5 53 -10z"/>
<path d="M2631 8474 c-31 -39 -29 -113 4 -148 63 -68 159 0 140 100 -13 73
-101 102 -144 48z m64 -14 c-10 -33 4 -60 31 -60 26 0 30 -11 14 -41 -15 -27
-45 -24 -58 6 -7 14 -19 28 -27 31 -21 8 -19 36 5 62 26 28 43 28 35 2z m43
-23 c2 -10 -3 -17 -12 -17 -10 0 -16 9 -16 21 0 24 23 21 28 -4z m-55 -117
c-7 -8 -43 40 -43 58 0 10 10 2 24 -18 13 -19 22 -37 19 -40z"/>
<path d="M2580 8226 c-14 -18 8 -65 46 -95 46 -36 59 -3 23 55 -27 44 -53 59
-69 40z m70 -78 c0 -6 -11 -1 -25 12 -14 13 -25 31 -25 39 1 11 8 8 25 -12 14
-15 25 -33 25 -39z"/>
<path d="M2433 8183 c-32 -12 -3 -63 43 -77 26 -8 57 14 49 36 -5 14 -64 50
-77 47 -1 0 -9 -3 -15 -6z m56 -29 c33 -24 11 -43 -23 -20 -28 18 -34 36 -13
36 7 0 23 -7 36 -16z"/>
<path d="M5580 8248 c-25 -42 -9 -66 20 -28 22 28 25 46 10 55 -5 3 -19 -9
-30 -27z"/>
<path d="M5702 8247 c-6 -6 -13 -24 -17 -40 -6 -21 -4 -27 8 -27 9 0 18 8 21
18 2 9 7 27 11 40 7 24 -6 30 -23 9z"/>
<path d="M5792 8165 c-16 -34 -15 -45 3 -45 17 0 39 46 29 61 -9 16 -20 10
-32 -16z"/>
<path d="M5521 8108 c-12 -34 -1 -57 17 -36 6 7 13 25 17 41 10 40 -20 36 -34
-5z"/>
<path d="M5642 8115 c-16 -35 -15 -55 2 -55 16 0 26 21 26 56 0 31 -14 31 -28
-1z"/>
<path d="M5112 8085 c-137 -60 -163 -242 -48 -342 99 -88 251 -60 314 57 20
38 23 56 20 112 -3 56 -8 73 -34 105 -59 74 -169 104 -252 68z m190 -48 c84
-64 98 -178 31 -258 -101 -119 -313 -45 -313 110 0 104 77 181 181 181 49 0
63 -5 101 -33z"/>
<path d="M5168 8006 c-60 -22 -88 -60 -88 -123 0 -108 120 -167 211 -102 35
25 49 55 49 107 0 48 -18 82 -55 103 -45 26 -76 30 -117 15z m100 -26 c40 -24
40 -31 3 -28 -16 1 -36 -4 -45 -11 -19 -16 -21 -62 -4 -79 17 -17 58 -15 80 5
17 15 18 15 18 -6 0 -12 -13 -35 -29 -51 -52 -52 -113 -52 -163 2 -43 47 -36
120 16 158 48 35 78 38 124 10z m20 -52 c17 -17 15 -43 -4 -59 -31 -26 -70 25
-44 56 15 18 32 19 48 3z"/>
<path d="M5752 8067 c-15 -18 -19 -51 -7 -56 16 -6 42 46 29 59 -8 8 -14 7
-22 -3z"/>
<path d="M5585 7980 c-17 -34 -20 -60 -5 -60 10 0 19 17 34 68 11 33 -11 27
-29 -8z"/>
<path d="M5780 7804 c-135 -62 -147 -250 -22 -338 99 -70 260 -13 292 103 35
128 -33 232 -165 250 -47 7 -64 4 -105 -15z m175 -29 c32 -18 48 -37 64 -74
26 -62 26 -80 1 -140 -30 -69 -86 -104 -162 -99 -96 7 -160 74 -160 168 0 134
141 214 257 145z"/>
<path d="M5768 7737 c-36 -31 -48 -58 -48 -112 0 -40 5 -52 33 -80 45 -45 93
-54 150 -26 85 41 100 140 32 208 -29 29 -39 33 -86 33 -41 0 -60 -5 -81 -23z
m116 3 c28 -10 35 -30 12 -30 -22 0 -46 -29 -46 -54 0 -13 9 -31 21 -41 17
-16 25 -17 49 -8 37 14 43 7 25 -28 -20 -38 -53 -59 -93 -59 -67 0 -117 50
-115 114 1 45 18 73 56 96 36 22 54 24 91 10z m37 -50 c36 -20 13 -76 -28 -68
-22 4 -29 43 -13 64 15 17 16 17 41 4z"/>
<path d="M4914 7746 c-37 -16 -44 -32 -44 -95 0 -90 78 -160 156 -139 90 23
68 185 -32 233 -38 18 -40 18 -80 1z m92 -34 c53 -42 71 -135 34 -172 -24 -24
-41 -25 -80 -5 -33 17 -64 58 -74 97 -7 29 8 78 27 90 21 13 71 8 93 -10z"/>
<path d="M4990 7690 c0 -5 5 -10 11 -10 5 0 7 5 4 10 -3 6 -8 10 -11 10 -2 0
-4 -4 -4 -10z"/>
<path d="M5020 7580 c0 -5 5 -10 10 -10 6 0 10 5 10 10 0 6 -4 10 -10 10 -5 0
-10 -4 -10 -10z"/>
<path d="M4975 7570 c3 -5 8 -10 11 -10 2 0 4 5 4 10 0 6 -5 10 -11 10 -5 0
-7 -4 -4 -10z"/>
<path d="M5387 7673 c-15 -14 -6 -58 18 -89 22 -29 24 -37 14 -56 -17 -33 -40
-47 -72 -48 -30 0 -77 39 -77 65 0 8 -4 15 -10 15 -22 0 -8 -42 27 -80 67 -76
86 -84 194 -87 78 -2 99 0 110 13 12 14 8 15 -34 9 -42 -6 -51 -4 -82 19 -58
45 -44 116 23 116 46 0 75 19 71 46 -7 34 -160 100 -182 77z m103 -41 c71 -35
72 -56 4 -60 -46 -3 -54 0 -73 24 -26 33 -28 64 -3 63 9 0 42 -12 72 -27z
m-56 -184 c20 -28 20 -38 1 -38 -22 0 -75 28 -75 40 0 8 20 16 47 19 6 0 19
-9 27 -21z"/>
<path d="M3378 7344 c-48 -26 -31 -33 66 -27 85 5 98 4 149 -20 31 -14 78 -46
105 -71 27 -25 54 -46 61 -46 24 0 9 35 -36 79 -48 47 -63 56 -137 86 -50 20
-171 19 -208 -1z"/>
<path d="M4368 7276 c-67 -27 -126 -73 -127 -98 -1 -10 2 -18 5 -18 7 0 67 41
74 51 3 3 24 16 48 28 46 23 109 31 155 18 21 -6 27 -4 27 7 0 41 -96 47 -182
12z"/>
<path d="M3963 7190 c-32 -13 -30 -47 3 -62 25 -11 26 -15 22 -73 -4 -70 -31
-130 -71 -159 -25 -18 -43 -21 -141 -21 -122 0 -156 11 -178 61 -13 27 -38 33
-38 8 0 -24 62 -82 96 -89 51 -12 54 -14 54 -45 0 -92 97 -198 205 -224 17 -4
58 -7 93 -7 78 0 163 42 203 99 31 44 59 114 59 145 0 17 9 26 36 36 33 12 94
65 94 81 0 20 -16 14 -50 -20 -77 -77 -193 -75 -276 5 l-44 42 0 76 c0 71 1
76 23 79 15 2 23 11 25 29 3 22 -2 29 -29 38 -37 13 -56 13 -86 1z m78 -20
c10 -6 19 -15 19 -19 0 -14 -52 -20 -77 -8 -38 17 -30 26 30 36 5 0 17 -4 28
-9z m49 -326 c0 -13 9 -28 21 -34 25 -14 75 -4 83 16 3 8 15 14 26 14 14 0 20
-7 20 -24 0 -25 -35 -112 -49 -120 -4 -3 -26 4 -48 15 -38 18 -46 19 -101 8
-53 -11 -68 -10 -120 5 -57 18 -69 17 -138 0 -17 -5 -22 1 -32 34 -23 77 -20
82 51 82 79 0 137 26 174 77 l27 39 43 -45 c25 -26 43 -54 43 -67z m74 -3 c7
-11 -22 -23 -35 -15 -5 3 -9 9 -9 15 0 12 37 12 44 0z m-226 -145 c34 -13 52
-14 80 -6 48 13 85 13 117 -2 37 -17 31 -33 -22 -60 -91 -44 -234 -24 -297 41
-26 27 -27 30 -9 40 22 14 74 9 131 -13z"/>
<path d="M820 6974 c0 -3 5 -14 10 -25 14 -24 -5 -26 -19 -2 -5 10 -13 14 -17
10 -5 -4 -3 -17 4 -27 7 -12 9 -36 6 -63 -12 -85 41 -167 108 -167 120 0 145
201 31 255 -30 14 -43 16 -66 7 -22 -9 -29 -8 -34 4 -5 13 -23 20 -23 8z m125
-42 c18 -13 42 -56 48 -90 11 -57 -30 -122 -77 -122 -67 0 -123 119 -83 175
12 16 13 11 9 -36 -4 -49 -1 -59 23 -87 15 -18 35 -32 46 -32 24 0 57 32 65
65 9 35 -21 109 -49 123 -14 7 -16 11 -7 11 8 0 20 -3 25 -7z m-15 -37 c18
-19 21 -28 13 -36 -19 -19 -45 -2 -38 23 6 18 4 20 -5 12 -23 -22 -7 -49 28
-49 30 0 32 -2 32 -32 0 -41 -26 -44 -60 -8 -12 13 -27 22 -31 19 -13 -7 -11
53 1 77 14 26 32 24 60 -6z m-29 -111 c21 -23 22 -26 5 -23 -19 4 -56 49 -39
49 5 0 20 -12 34 -26z"/>
<path d="M1583 6920 c-30 -12 -63 -80 -63 -130 0 -115 94 -149 160 -58 22 30
30 52 30 83 0 29 5 45 15 49 25 9 18 28 -7 21 -19 -6 -21 -5 -10 6 19 20 14
30 -12 23 -13 -3 -27 -1 -30 5 -8 13 -52 13 -83 1z m82 -35 c40 -39 33 -107
-18 -162 -20 -23 -61 -31 -71 -14 -3 5 6 9 21 9 50 0 94 80 73 133 -21 49 -85
45 -114 -8 -8 -15 -15 -24 -16 -20 0 15 23 51 44 69 29 24 53 22 81 -7z m-29
-85 l25 0 -18 -30 c-20 -34 -26 -36 -43 -15 -7 8 -19 15 -26 15 -19 0 -17 41
3 70 l17 24 8 -32 c7 -25 14 -32 34 -32z m12 32 c4 -24 -7 -29 -26 -10 -18 18
-15 40 6 36 9 -2 18 -13 20 -26z m-68 -93 c0 -6 -4 -7 -10 -4 -5 3 -10 11 -10
16 0 6 5 7 10 4 6 -3 10 -11 10 -16z"/>
<path d="M1222 6773 c-13 -3 -26 -11 -29 -19 -8 -21 13 -64 32 -64 8 0 15 -4
15 -10 0 -14 -33 -13 -48 2 -9 9 -12 8 -12 -5 0 -9 4 -17 8 -17 4 0 12 -15 17
-32 8 -27 16 -34 41 -36 30 -3 37 2 72 42 18 22 15 27 -14 24 -15 -2 -29 3
-31 10 -3 6 2 12 10 12 20 0 47 33 47 56 0 14 -11 24 -33 32 -18 7 -38 11 -43
11 -5 -1 -19 -4 -32 -6z m87 -29 c3 -3 0 -13 -5 -22 -16 -25 -57 -26 -85 -3
l-24 20 25 10 c24 10 77 7 89 -5z m-30 -103 c7 -5 10 -14 7 -20 -9 -14 -53
-15 -61 -1 -15 25 24 40 54 21z"/>
<path d="M5835 7330 c-3 -5 1 -10 9 -10 8 0 18 5 21 10 3 6 -1 10 -9 10 -8 0
-18 -4 -21 -10z"/>
<path d="M5795 7299 c-4 -6 -5 -13 -2 -16 7 -7 27 6 27 18 0 12 -17 12 -25 -2z"/>
<path d="M5770 7240 c0 -11 5 -20 10 -20 6 0 10 9 10 20 0 11 -4 20 -10 20 -5
0 -10 -9 -10 -20z"/>
<path d="M5795 7200 c3 -5 13 -10 21 -10 8 0 12 5 9 10 -3 6 -13 10 -21 10 -8
0 -12 -4 -9 -10z"/>
<path d="M6447 7133 c-4 -3 2 -13 14 -21 24 -17 37 -9 19 13 -14 16 -23 19
-33 8z"/>
<path d="M6520 7071 c0 -6 9 -15 21 -21 18 -10 20 -9 17 7 -3 19 -38 32 -38
14z"/>
<path d="M6400 7026 c0 -18 49 -31 64 -16 8 8 7 13 -4 20 -23 15 -60 12 -60
-4z"/>
<path d="M6490 6992 c0 -13 23 -32 37 -32 11 0 11 5 3 20 -10 19 -40 28 -40
12z"/>
<path d="M5952 7119 c-13 -5 -29 -15 -36 -22 -7 -7 -39 -30 -72 -52 -90 -61
-94 -74 -34 -105 23 -12 58 -36 78 -54 37 -33 74 -56 89 -56 4 0 17 7 27 15
34 26 60 220 36 266 -12 21 -49 24 -88 8z m67 -18 c24 -15 -2 -229 -29 -246
-13 -8 -60 18 -85 45 -11 12 -41 33 -67 46 -27 13 -48 28 -48 33 0 5 15 18 33
29 17 12 59 39 92 61 61 42 79 47 104 32z"/>
<path d="M5717 6773 c84 -89 120 -168 152 -338 16 -84 19 -92 20 -53 2 74 -26
194 -60 263 -17 35 -54 86 -82 114 -59 59 -83 70 -30 14z"/>
<path d="M2060 6485 c-11 -13 -11 -35 -2 -109 16 -127 16 -126 69 -126 58 0
83 14 83 47 0 30 -107 203 -125 203 -7 0 -18 -7 -25 -15z m88 -113 c23 -36 41
-71 38 -78 -5 -12 -50 -22 -77 -16 -17 3 -29 67 -28 152 0 39 2 42 12 27 7
-11 31 -49 55 -85z"/>
<path d="M2356 6059 c-84 -34 -162 -96 -143 -115 2 -3 25 9 50 25 88 60 146
81 227 82 l75 1 -40 13 c-57 19 -112 17 -169 -6z"/>
<path d="M1190 6025 c0 -9 11 -33 25 -55 13 -21 40 -72 59 -114 36 -78 63
-104 94 -87 27 15 60 53 72 85 16 44 -9 71 -126 133 -106 56 -124 62 -124 38z
m139 -81 c50 -31 91 -62 91 -70 0 -23 -67 -91 -78 -79 -12 12 -113 205 -107
205 1 0 44 -25 94 -56z"/>
<path d="M1800 5723 c-140 -56 -209 -138 -234 -275 -12 -68 10 -48 44 38 18
48 47 101 64 119 31 33 112 77 198 110 48 18 55 35 15 35 -12 0 -51 -12 -87
-27z"/>
<path d="M4544 6346 c-59 -26 -113 -107 -114 -172 0 -63 85 -108 194 -102 82
4 101 30 101 133 0 68 -2 76 -29 104 -26 27 -80 52 -111 51 -5 -1 -24 -7 -41
-14z m96 -26 c0 -5 -13 -10 -30 -10 -33 0 -75 -36 -91 -78 -6 -15 -9 -49 -8
-77 2 -54 -8 -60 -43 -28 -42 38 3 167 67 194 29 11 105 11 105 -1z m21 -30
c5 0 18 -9 29 -20 28 -28 27 -86 -2 -101 -13 -7 -29 -20 -36 -31 -16 -22 -64
-48 -91 -48 -36 0 -46 93 -16 150 17 32 69 63 93 55 8 -3 18 -5 23 -5z m49
-137 c0 -3 -11 -21 -26 -40 -16 -21 -33 -33 -50 -33 -23 0 -23 1 14 39 34 36
62 51 62 34z"/>
<path d="M4560 6225 c-20 -25 -8 -50 25 -50 21 0 31 5 33 18 4 21 -14 47 -33
47 -7 0 -18 -7 -25 -15z m44 -11 c7 -19 -1 -34 -19 -34 -18 0 -28 17 -21 35 7
20 32 19 40 -1z"/>
<path d="M5195 6213 c-87 -45 -137 -135 -113 -203 18 -52 131 -90 265 -90 101
0 143 35 143 118 0 64 -67 142 -147 172 -64 24 -107 25 -148 3z m129 -15 c27
-8 59 -31 94 -66 47 -48 52 -57 52 -98 0 -56 -36 -100 -75 -90 -13 3 -27 1
-30 -5 -5 -7 -25 -8 -59 -4 -61 8 -85 25 -36 25 18 0 53 10 77 21 46 22 64 20
43 -6 -8 -10 -9 -15 -2 -15 21 0 34 43 30 97 -7 76 -45 114 -120 121 -44 3
-59 0 -88 -20 -19 -13 -44 -40 -55 -60 -17 -31 -18 -43 -9 -77 10 -35 9 -41
-4 -41 -25 0 -52 31 -52 59 1 49 35 106 85 139 52 35 84 39 149 20z m-6 -37
c48 -14 92 -67 92 -111 -1 -20 -10 -29 -49 -47 -26 -13 -58 -23 -70 -23 -12 0
-35 -7 -51 -15 -50 -26 -80 5 -80 81 0 33 14 47 23 22 2 -7 3 -5 2 4 -4 22 20
42 40 34 23 -8 19 -46 -5 -46 -11 0 -20 -5 -20 -11 0 -6 9 -8 23 -3 28 8 26 6
29 34 2 16 -4 27 -20 35 -37 19 -37 24 -1 39 41 18 45 19 87 7z"/>
<path d="M4743 6005 c-59 -25 -67 -68 -22 -119 51 -59 164 -71 217 -23 28 26
28 66 2 95 -29 31 -46 27 -21 -4 26 -33 27 -56 2 -78 -31 -28 -91 -31 -138 -7
-78 39 -89 65 -48 106 19 20 35 25 71 25 54 0 55 5 4 13 -21 4 -48 1 -67 -8z"/>
<path d="M4586 5731 c8 -93 26 -147 62 -184 99 -105 215 -62 329 122 31 49 29
58 -14 66 -20 4 -54 15 -75 26 -20 10 -52 19 -71 19 -18 0 -38 5 -45 12 -7 7
-49 12 -102 14 l-91 2 7 -77z m174 44 c14 -8 41 -15 60 -15 19 -1 55 -12 80
-24 l45 -24 -38 -7 c-60 -12 -134 1 -206 37 l-66 32 40 6 c59 10 58 10 85 -5z
m-67 -49 c79 -41 141 -52 216 -38 31 5 57 8 59 7 2 -2 -13 -22 -33 -44 -40
-44 -67 -50 -100 -25 -14 10 -31 13 -58 9 -32 -6 -42 -3 -72 24 -20 17 -42 31
-49 31 -16 0 -31 17 -40 48 -10 29 -1 28 77 -12z m-4 -140 c46 -32 106 -43
152 -27 46 16 47 7 2 -23 -79 -54 -170 -24 -214 71 -25 55 -25 90 1 42 10 -19
37 -48 59 -63z m-3 62 c30 -27 45 -32 88 -33 51 0 76 -9 76 -25 0 -13 -58 -23
-96 -16 -34 7 -114 72 -114 94 0 18 6 15 46 -20z"/>
<path d="M5663 5394 c-18 -9 -49 -37 -70 -63 -20 -25 -40 -48 -44 -51 -3 -3
-31 -38 -62 -79 -55 -71 -72 -117 -44 -125 6 -2 57 -18 112 -35 114 -36 146
-38 168 -13 16 18 57 231 57 297 0 25 -7 43 -25 60 -28 29 -48 31 -92 9z m75
-26 c15 -15 16 -98 2 -170 -28 -146 -32 -157 -49 -163 -10 -3 -59 8 -109 25
-50 16 -97 30 -104 30 -7 0 -19 4 -27 9 -14 9 -5 22 104 151 103 121 150 151
183 118z"/>
<path d="M5055 4772 c-56 -27 -122 -96 -158 -167 -27 -53 -31 -70 -31 -145 -1
-95 11 -128 66 -179 29 -27 40 -31 91 -31 94 0 160 45 225 153 39 64 59 159
48 229 -19 123 -135 190 -241 140z m106 -24 c39 -13 74 -50 89 -91 l10 -29
-34 30 c-46 40 -84 47 -151 27 -43 -12 -67 -28 -111 -72 l-56 -57 16 37 c32
77 88 131 161 155 40 14 37 14 76 0z m-21 -129 c0 -30 -28 -59 -55 -59 -56 0
-58 71 -3 95 37 15 58 2 58 -36z m71 22 c24 -25 29 -37 29 -80 0 -94 -59 -179
-154 -222 -53 -24 -93 -24 -133 1 -73 44 -60 164 28 265 35 39 54 45 46 14
-14 -51 39 -92 86 -68 44 24 62 80 35 107 -9 9 -7 12 11 12 12 0 36 -13 52
-29z m-51 -302 c-14 -10 -29 -22 -35 -27 -51 -38 -155 -43 -169 -7 -4 11 1 11
25 3 37 -13 114 4 160 37 40 27 56 22 19 -6z"/>
<path d="M4926 4432 c-13 -12 -5 -40 18 -61 38 -36 139 -30 149 9 5 18 -12 29
-68 44 -35 10 -93 14 -99 8z m98 -23 c62 -13 68 -28 18 -43 -24 -7 -38 -4 -63
10 -35 21 -49 44 -27 44 8 0 40 -5 72 -11z"/>
<path d="M5650 4205 c-151 -65 -241 -260 -177 -385 76 -150 319 -87 413 107
38 76 40 170 5 226 -47 76 -140 96 -241 52z m176 -24 c83 -51 84 -189 2 -296
-28 -36 -78 -83 -78 -72 0 2 12 17 26 33 78 88 87 233 17 302 -7 8 -30 22 -51
33 l-37 18 45 1 c27 0 57 -8 76 -19z m-179 -39 c-20 -22 -22 -71 -4 -95 38
-50 121 -12 121 56 0 29 3 34 14 25 54 -46 56 -166 3 -241 -33 -45 -100 -87
-139 -87 -51 0 -103 37 -123 88 -12 31 -11 108 1 153 12 43 89 119 121 119 21
0 21 -1 6 -18z m87 -1 c23 -26 17 -60 -15 -84 -58 -43 -100 38 -43 82 33 26
37 26 58 2z m-170 -341 c50 -24 94 -25 142 -5 19 8 32 10 29 5 -12 -19 -111
-43 -149 -36 -54 10 -106 66 -106 114 l1 37 20 -47 c17 -37 31 -52 63 -68z"/>
<path d="M5562 3901 c-22 -13 -10 -44 23 -60 63 -30 171 -5 163 37 -3 14 -16
17 -68 18 -36 0 -74 3 -85 7 -11 4 -26 3 -33 -2z m168 -21 c3 0 -6 -10 -19
-20 -36 -30 -126 -20 -138 15 -2 8 102 11 157 5z"/>
<path d="M5188 4175 c-22 -29 -22 -42 -3 -78 12 -24 12 -29 0 -34 -8 -3 -26
-2 -40 1 -20 5 -25 13 -25 36 0 17 -4 30 -10 30 -13 0 -13 -33 2 -65 9 -19 19
-25 45 -25 26 0 33 -4 33 -20 0 -25 44 -55 67 -45 15 6 12 9 -14 17 -27 7 -33
14 -33 35 0 24 2 25 35 20 47 -8 89 8 106 39 16 31 4 54 -37 67 -16 6 -35 18
-42 29 -19 26 -63 23 -84 -7z m72 -20 c13 -14 32 -25 42 -25 27 0 35 -30 12
-47 -23 -17 -77 -11 -99 11 -18 18 -20 57 -3 74 17 17 21 15 48 -13z"/>
<path d="M3066 5225 c7 -29 -10 -34 -25 -8 -5 10 -13 14 -17 10 -5 -4 -2 -17
5 -29 12 -19 11 -20 -13 -16 -26 5 -35 -5 -16 -17 6 -3 10 -21 10 -40 0 -64
37 -158 77 -197 60 -58 95 -68 238 -68 110 0 127 2 144 19 42 42 41 205 -3
271 -52 79 -177 110 -306 75 -69 -19 -67 -19 -75 5 -9 29 -27 25 -19 -5z m314
-37 c51 -27 76 -59 85 -109 l7 -36 -40 1 c-27 0 -47 -6 -61 -18 -14 -12 -41
-21 -76 -24 -41 -3 -59 -10 -70 -25 -12 -17 -16 -18 -30 -7 -60 50 -60 154 0
216 30 31 125 32 185 2z m-210 7 c0 -2 -9 -19 -20 -37 -46 -75 -16 -177 65
-220 107 -57 203 -36 249 54 l17 33 -4 -57 c-2 -31 -9 -63 -15 -71 -9 -11 -43
-15 -139 -16 -117 -1 -129 1 -167 23 -51 31 -66 48 -94 113 -17 41 -31 142
-19 143 1 0 27 9 57 20 60 20 70 23 70 15z m280 -184 c0 -52 -80 -99 -148 -86
-80 15 -85 51 -8 57 33 3 64 12 82 26 37 27 74 29 74 3z"/>
<path d="M3218 5156 c-26 -19 -23 -71 4 -90 32 -23 54 -20 77 11 45 56 -24
123 -81 79z m60 -12 c28 -19 26 -51 -3 -70 -18 -12 -24 -11 -43 2 -26 18 -28
46 -6 68 19 20 24 20 52 0z"/>
<path d="M3632 4838 c-18 -18 -15 -42 9 -72 25 -32 18 -46 -26 -46 -25 0 -35
5 -40 20 -3 11 -11 20 -16 20 -15 0 -10 -36 6 -50 8 -7 15 -18 15 -25 0 -7 13
-27 29 -44 38 -41 96 -44 131 -6 13 14 31 25 41 25 9 0 22 7 29 15 12 14 8 15
-29 9 -35 -6 -46 -3 -66 16 -19 18 -22 26 -14 37 6 7 17 13 23 13 21 0 59 48
53 65 -13 32 -119 49 -145 23z m121 -28 c10 -9 -39 -50 -59 -50 -22 0 -54 38
-47 56 5 13 15 15 52 9 25 -4 50 -10 54 -15z m-63 -120 c8 -11 20 -20 27 -20
18 0 16 -27 -3 -34 -33 -13 -66 -5 -91 20 l-27 27 35 12 c19 7 36 13 39 14 3
0 12 -8 20 -19z"/>
<path d="M900 4869 c0 -5 5 -7 10 -4 6 3 10 8 10 11 0 2 -4 4 -10 4 -5 0 -10
-5 -10 -11z"/>
<path d="M876 4843 c-6 -14 -5 -15 5 -6 7 7 10 15 7 18 -3 3 -9 -2 -12 -12z"/>
<path d="M6820 4818 c-32 -35 -8 -88 41 -88 54 0 77 52 39 90 -26 26 -54 25
-80 -2z m68 -10 c18 -18 14 -46 -7 -58 -25 -13 -48 -4 -56 21 -12 38 35 65 63
37z"/>
<path d="M7024 4666 c-3 -8 0 -24 6 -36 22 -40 -30 -69 -64 -35 -30 31 -24 -3
7 -38 34 -38 38 -40 105 -38 47 1 59 21 12 21 -23 0 -31 5 -36 24 -8 32 -1 42
36 49 42 9 37 32 -10 51 -49 19 -49 19 -56 2z m56 -26 c12 -8 11 -10 -7 -10
-12 0 -25 5 -28 10 -8 13 15 13 35 0z m-40 -95 c0 -13 -4 -14 -20 -5 -11 6
-20 13 -20 15 0 3 9 5 20 5 11 0 20 -7 20 -15z"/>
<path d="M7270 4630 c-52 -52 16 -141 78 -101 19 12 28 87 12 106 -18 21 -66
19 -90 -5z m78 -36 c4 -41 -19 -61 -53 -46 -44 20 -24 86 23 80 22 -2 28 -9
30 -34z"/>
<path d="M2605 4740 c-4 -6 -3 -16 3 -22 6 -6 12 -6 17 2 4 6 3 16 -3 22 -6 6
-12 6 -17 -2z"/>
<path d="M2435 4701 c-7 -12 12 -24 25 -16 11 7 4 25 -10 25 -5 0 -11 -4 -15
-9z"/>
<path d="M2537 4694 c-3 -3 -3 -12 -1 -19 3 -8 -4 -16 -16 -20 -13 -4 -18 -11
-13 -16 7 -7 57 4 81 17 4 2 -36 44 -41 44 -2 0 -6 -3 -10 -6z"/>
<path d="M1660 4407 c-52 -20 -69 -32 -70 -49 0 -4 23 5 51 19 32 17 73 28
110 31 32 2 56 8 53 13 -9 16 -87 8 -144 -14z"/>
<path d="M1690 4367 c-54 -18 -83 -82 -77 -169 9 -142 118 -227 215 -168 96
59 79 256 -28 322 -37 23 -71 28 -110 15z m109 -36 c29 -19 71 -105 71 -147 0
-87 -42 -154 -98 -154 -41 0 -92 38 -120 90 -32 61 -28 156 8 196 43 46 85 50
139 15z"/>
<path d="M1695 4320 c-16 -7 -11 -9 22 -9 33 -1 46 -7 66 -31 37 -44 40 -63
17 -103 -24 -41 -50 -53 -80 -37 -11 6 -24 9 -29 6 -8 -5 -31 36 -31 56 0 5 7
7 16 4 45 -17 78 61 35 84 -32 16 -41 12 -57 -26 -49 -117 92 -250 166 -157
36 46 20 152 -29 197 -22 20 -70 28 -96 16z m23 -66 c2 -11 -4 -27 -13 -34
-24 -20 -46 6 -34 38 11 29 43 26 47 -4z m101 -107 c-30 -57 -65 -71 -103 -42
-25 19 -14 30 14 15 26 -14 64 7 75 40 4 11 11 18 16 15 5 -4 5 -15 -2 -28z"/>
<path d="M1175 4327 c-41 -16 -80 -45 -72 -53 4 -4 15 0 24 8 33 28 82 41 138
36 59 -5 75 6 24 16 -44 9 -79 6 -114 -7z"/>
<path d="M1165 4218 c-85 -79 -56 -232 52 -280 38 -17 49 -18 81 -7 20 7 42
17 48 23 47 48 58 153 23 216 -26 45 -83 80 -133 80 -27 0 -45 -8 -71 -32z
m136 -8 c13 -10 19 -19 12 -20 -6 0 -15 5 -18 10 -3 6 -22 10 -41 10 -51 0
-84 -39 -84 -97 0 -59 26 -102 75 -124 39 -17 41 -17 70 1 16 10 35 34 42 52
7 18 12 25 12 15 2 -38 -27 -84 -63 -101 -100 -47 -198 80 -155 203 22 62 104
90 150 51z m-11 -25 c43 -22 78 -95 46 -95 -7 0 -20 -10 -28 -22 -11 -17 -25
-22 -61 -23 -34 0 -48 4 -52 15 -8 24 -1 35 18 32 10 -2 25 2 33 8 16 14 19
66 4 75 -13 8 -13 25 0 25 6 0 24 -7 40 -15z m-46 -30 c8 -23 -4 -45 -25 -45
-11 0 -22 7 -25 15 -9 23 3 45 25 45 10 0 21 -7 25 -15z m106 -90 c0 -2 -5
-15 -11 -28 -15 -33 -52 -49 -84 -37 -37 14 -32 34 6 26 25 -5 35 -1 52 19 20
22 37 32 37 20z"/>
<path d="M1459 4102 c-32 -27 -19 -52 26 -52 22 0 35 -5 35 -13 0 -21 -22 -37
-52 -37 l-27 0 39 -40 c22 -22 46 -40 54 -40 14 0 66 54 66 70 0 5 3 15 6 23
4 11 -1 13 -19 10 -14 -3 -29 2 -36 11 -11 13 -10 19 9 34 15 12 21 25 17 35
-9 24 -88 23 -118 -1z m97 -3 c9 -16 -15 -29 -53 -29 -38 0 -43 16 -10 30 31
12 55 12 63 -1z m24 -109 c0 -20 -38 -53 -54 -47 -25 10 -29 33 -10 55 14 17
21 18 40 10 13 -6 24 -14 24 -18z"/>
<path d="M6790 4248 c-37 -61 -14 -127 37 -107 31 11 45 43 41 92 -3 37 -6 42
-30 45 -22 3 -32 -3 -48 -30z m65 -9 c13 -39 -28 -101 -56 -83 -12 7 -11 61 1
85 14 25 47 24 55 -2z"/>
<path d="M7071 4143 c-29 -24 -38 -84 -16 -106 20 -20 24 -21 49 -2 23 18 36
73 23 103 -12 27 -28 28 -56 5z m47 -38 c4 -37 -19 -71 -42 -62 -18 7 -21 34
-6 72 14 36 44 30 48 -10z"/>
<path d="M6592 4127 c-41 -44 -22 -113 28 -100 24 6 53 62 49 93 -5 35 -47 39
-77 7z m62 -2 c8 -22 -13 -73 -35 -80 -28 -9 -42 4 -34 34 12 49 56 79 69 46z"/>
<path d="M6921 4034 c-15 -19 -21 -39 -19 -63 3 -31 7 -36 30 -39 36 -4 60 33
56 85 -4 49 -35 57 -67 17z m59 -23 c0 -35 -26 -71 -51 -71 -26 0 -26 49 1 83
25 32 50 25 50 -12z"/>
<path d="M6506 3838 c-23 -32 -20 -54 10 -77 34 -26 54 -26 82 -1 42 39 16
100 -43 100 -24 0 -39 -7 -49 -22z m79 -32 c0 -38 -28 -57 -51 -34 -11 11 -15
25 -10 43 5 21 12 26 34 23 22 -2 27 -8 27 -32z"/>
<path d="M2514 3177 c6 -60 5 -64 -21 -87 -16 -12 -35 -29 -44 -37 -15 -12
-19 -10 -40 24 -23 38 -37 53 -51 53 -15 0 -7 -33 18 -79 l27 -47 -27 -42
c-14 -23 -30 -42 -34 -42 -5 0 -18 14 -30 30 -13 17 -29 30 -37 30 -26 0 -16
-38 18 -71 l34 -32 -30 -86 c-28 -82 -29 -92 -24 -221 4 -115 8 -145 31 -204
60 -158 156 -255 295 -299 162 -51 357 29 475 197 92 130 141 333 116 483 -14
88 -50 191 -85 244 -38 59 -123 135 -184 165 -79 39 -200 45 -286 15 -89 -32
-89 -32 -99 22 -14 70 -30 59 -22 -16z m401 -59 c61 -32 156 -129 184 -189 48
-105 55 -140 55 -274 1 -117 -2 -138 -27 -208 -153 -436 -618 -483 -780 -80
-30 74 -32 84 -32 218 0 111 4 151 19 195 61 177 162 294 299 346 86 33 209
30 282 -8z"/>
<path d="M2685 3045 c-154 -58 -257 -176 -296 -341 -25 -105 -20 -174 18 -284
22 -63 37 -85 87 -135 72 -71 129 -95 226 -95 88 0 172 40 249 118 173 177
187 476 31 646 -80 87 -219 127 -315 91z m162 -30 c170 -51 270 -265 218 -470
-37 -146 -130 -263 -242 -305 -253 -94 -468 153 -402 462 l12 52 16 -43 c49
-133 211 -104 280 49 48 106 5 220 -83 220 -38 0 -25 13 34 34 58 19 104 20
167 1z m-147 -80 c55 -59 30 -179 -52 -249 -68 -59 -130 -57 -168 6 -32 53
-23 115 28 191 51 75 146 101 192 52z"/>
<path d="M4392 3690 c1 -19 7 -25 24 -26 13 -1 24 2 24 7 0 5 -5 9 -11 9 -6 0
-8 8 -5 18 4 13 1 18 -13 18 -14 0 -19 -7 -19 -26z"/>
<path d="M6930 3711 c-29 -56 14 -116 66 -93 63 29 48 112 -21 112 -24 0 -37
-6 -45 -19z m80 -21 c15 -28 -22 -65 -50 -50 -22 12 -27 55 -7 63 26 11 47 6
57 -13z"/>
<path d="M5518 3426 c-102 -28 -180 -109 -217 -226 -102 -324 217 -698 503
-590 76 29 129 77 166 154 84 170 47 386 -94 543 -41 47 -116 92 -187 114 -70
22 -105 23 -171 5z m216 -46 c70 -33 157 -119 196 -191 44 -83 60 -148 60
-247 0 -74 -4 -92 -33 -155 -56 -120 -139 -171 -266 -165 -97 4 -164 37 -243
120 -108 112 -157 269 -131 421 l6 38 21 -53 c28 -69 69 -98 142 -98 47 0 57
4 93 38 51 47 64 110 37 170 -27 59 -60 77 -138 77 -78 0 -76 12 7 52 42 20
61 23 125 20 51 -3 90 -11 124 -27z m-201 -71 c64 -33 89 -88 68 -152 -17 -52
-53 -79 -108 -84 -60 -6 -111 25 -131 79 -39 101 76 206 171 157z"/>
<path d="M6930 265 c0 -49 3 -86 6 -83 8 9 9 156 1 165 -4 3 -7 -33 -7 -82z"/>
<path d="M5566 333 c-10 -11 -7 -143 4 -143 6 0 10 23 10 50 0 28 3 50 8 50 4
0 16 -16 26 -35 11 -19 22 -35 25 -35 3 0 17 17 31 37 l25 37 3 -57 c2 -33 7
-55 13 -52 12 8 12 142 -1 150 -5 3 -22 -14 -37 -39 -15 -26 -30 -46 -34 -46
-3 0 -15 18 -28 40 -24 43 -35 53 -45 43z"/>
<path d="M6059 315 c-3 -26 -8 -30 -30 -27 -51 6 -79 -57 -41 -91 10 -10 32
-17 49 -17 l31 0 4 66 c3 70 -7 123 -13 69z m-7 -62 c8 -36 -3 -54 -31 -51
-26 3 -38 26 -27 54 8 20 54 18 58 -3z"/>
<path d="M6307 333 c-11 -10 -8 -141 2 -148 6 -3 11 19 13 52 l3 58 23 -37
c13 -21 27 -38 30 -38 4 0 18 17 32 38 l25 37 5 -60 c3 -35 8 -55 13 -48 10
16 7 142 -4 148 -4 3 -20 -15 -36 -40 -15 -25 -30 -45 -33 -45 -3 1 -19 21
-36 45 -17 25 -33 42 -37 38z"/>
<path d="M6787 328 c-4 -10 -9 -24 -11 -32 -3 -8 -14 -12 -28 -9 -43 8 -69
-55 -38 -92 16 -19 79 -20 86 -2 8 22 0 154 -9 135z m-12 -77 c9 -28 -5 -51
-30 -51 -25 0 -39 23 -30 51 8 25 52 25 60 0z"/>
<path d="M5752 278 c-16 -16 -15 -66 2 -84 18 -17 58 -18 74 -2 7 7 12 26 12
43 0 38 -16 55 -50 55 -14 0 -31 -5 -38 -12z m67 -22 c18 -22 -3 -56 -34 -56
-21 0 -25 5 -25 28 0 16 3 32 7 35 11 12 40 8 52 -7z"/>
<path d="M5860 234 c0 -34 4 -53 10 -49 6 3 10 24 10 46 0 36 2 40 23 37 17
-2 23 -11 25 -38 5 -54 22 -61 22 -9 0 54 -13 69 -57 69 l-33 0 0 -56z"/>
<path d="M6107 283 c-15 -15 -5 -22 23 -16 41 8 39 -14 -2 -25 -26 -6 -33 -14
-33 -33 0 -21 4 -24 40 -24 37 1 40 3 43 32 4 43 -13 73 -42 73 -12 0 -26 -3
-29 -7z m51 -65 c-5 -15 -48 -24 -48 -10 0 14 12 22 33 22 10 0 17 -5 15 -12z"/>
<path d="M6200 271 c0 -11 8 -36 17 -55 16 -34 16 -37 -3 -57 -18 -20 -18 -21
-1 -18 18 4 67 104 67 136 0 24 -18 4 -25 -27 -8 -39 -24 -38 -32 0 -7 36 -23
50 -23 21z"/>
<path d="M6497 283 c-14 -14 -6 -19 23 -15 40 6 38 -13 -2 -24 -61 -18 -46
-72 16 -60 29 6 36 11 36 31 0 44 -18 75 -43 75 -13 0 -27 -3 -30 -7z m51 -65
c-5 -15 -48 -24 -48 -10 0 14 12 22 33 22 10 0 17 -5 15 -12z"/>
<path d="M6590 233 c1 -44 3 -54 11 -41 5 10 9 24 8 30 -5 37 2 49 24 46 18
-2 23 -10 25 -46 4 -47 22 -48 22 -1 0 49 -16 69 -55 69 l-35 0 0 -57z"/>
<path d="M6837 283 c-15 -14 -6 -23 12 -13 14 7 22 7 27 -1 8 -13 -5 -26 -31
-31 -14 -2 -20 -11 -20 -28 0 -22 4 -25 38 -25 20 0 38 4 38 10 4 39 -2 79
-13 86 -16 10 -42 11 -51 2z m51 -65 c-5 -15 -48 -24 -48 -10 0 14 12 22 33
22 10 0 17 -5 15 -12z"/>
<path d="M6987 283 c-14 -13 -6 -23 11 -15 18 10 42 5 42 -8 0 -5 -13 -11 -29
-15 -66 -14 -61 -67 5 -62 32 2 34 4 34 39 0 20 -3 43 -6 52 -6 16 -45 22 -57
9z m51 -65 c-5 -15 -58 -24 -58 -10 0 15 12 22 38 22 14 0 22 -5 20 -12z"/>
<path d="M7126 275 c-17 -18 -19 -28 -10 -62 7 -25 34 -37 64 -28 30 10 24 20
-12 20 -30 0 -33 3 -33 30 0 27 3 30 33 30 17 0 31 4 29 10 -6 17 -54 17 -71
0z"/>
<path d="M7236 274 c-34 -33 -9 -94 38 -94 31 0 46 18 46 55 0 17 -5 36 -12
43 -17 17 -54 15 -72 -4z m66 -21 c8 -36 -3 -54 -31 -51 -26 3 -38 26 -27 54
8 20 54 18 58 -3z"/>
<path d="M7343 240 c-1 -28 3 -53 8 -56 5 -3 9 15 9 40 0 42 2 46 25 46 23 0
25 -4 25 -40 0 -22 5 -40 10 -40 6 0 10 18 10 41 0 36 2 40 23 37 18 -2 23
-11 28 -48 4 -35 7 -41 14 -26 4 10 4 35 -1 55 l-9 36 -71 2 -71 2 0 -49z"/>
</g>
</svg>
