<?xml version="1.0" standalone="no"?>
<!DOCTYPE svg PUBLIC "-//W3C//DTD SVG 20010904//EN"
 "http://www.w3.org/TR/2001/REC-SVG-20010904/DTD/svg10.dtd">
<svg version="1.0" xmlns="http://www.w3.org/2000/svg"
 width="816.000000pt" height="1056.000000pt" viewBox="0 0 816.000000 1056.000000"
 preserveAspectRatio="xMidYMid meet">
<metadata>
Created by potrace 1.16, written by Peter Selinger 2001-2019
</metadata>
<g transform="translate(0.000000,1056.000000) scale(0.100000,-0.100000)"
fill="#000000" stroke="none">
<path d="M225 10318 c-3 -7 -4 -2283 -3 -5058 l3 -5045 2613 0 c1436 0 2613 3
2615 8 1 4 -815 7 -1813 7 -998 0 -1820 4 -1826 8 -6 4 -14 35 -17 69 -12 143
-119 230 -228 186 -39 -15 -42 -15 -52 2 -41 74 -148 148 -233 161 -44 7 -108
-9 -135 -33 -14 -12 -23 -10 -65 12 -27 14 -69 29 -93 33 -44 7 -45 9 -58 57
-13 52 -18 191 -7 220 4 9 23 24 44 35 21 11 56 38 79 61 l40 42 46 -22 c102
-48 194 -11 252 104 23 44 25 57 20 125 l-6 75 42 14 c163 50 183 208 37 300
-25 16 -61 32 -80 36 -60 13 -67 20 -75 82 -10 80 -38 128 -92 153 -23 11 -55
20 -70 20 -30 0 -126 -41 -137 -58 -3 -6 -19 2 -37 19 -68 63 -166 64 -232 1
-61 -58 -81 -141 -52 -221 l14 -41 -52 0 c-34 0 -69 -8 -102 -24 -95 -45 -129
-97 -128 -196 1 -143 115 -270 243 -270 l50 0 0 -42 c0 -65 16 -111 52 -147
l33 -34 0 -121 c1 -66 4 -133 9 -148 8 -26 5 -29 -45 -51 l-53 -23 -17 48 c-9
26 -29 60 -45 74 -26 23 -35 25 -85 21 l-57 -5 -6 51 c-8 56 -34 113 -65 141
-33 30 -111 33 -161 7 -22 -11 -43 -21 -45 -21 -3 0 -5 983 -5 2184 l0 2185
53 16 c28 8 93 27 142 41 50 15 126 38 170 52 44 13 157 38 250 53 299 51 380
68 537 118 156 50 390 90 443 77 18 -5 29 -21 45 -64 28 -72 37 -134 45 -300
4 -74 15 -175 26 -225 10 -50 17 -92 15 -94 -7 -8 -135 26 -173 45 -23 12 -68
29 -99 37 -72 19 -90 30 -139 93 -49 63 -93 77 -130 42 l-23 -22 -56 57 c-91
90 -154 105 -209 47 -33 -34 -49 -74 -77 -187 -17 -69 -33 -105 -67 -153 -55
-80 -98 -165 -126 -250 -18 -56 -22 -90 -22 -202 1 -146 15 -211 70 -321 28
-55 28 -55 75 -110 46 -55 36 -55 -32 0 -34 28 -81 57 -105 65 -114 39 -190
-53 -134 -162 43 -82 248 -243 386 -302 113 -48 109 -43 102 -119 -31 -326
-51 -427 -105 -511 -49 -77 -167 -164 -222 -162 -14 0 -59 9 -100 20 -108 28
-142 33 -230 33 -55 0 -90 -5 -112 -17 -79 -41 -100 -114 -50 -172 29 -34 144
-82 218 -93 61 -9 86 -7 166 7 27 5 28 5 23 -38 -7 -52 8 -84 54 -115 38 -26
94 -30 138 -11 26 11 96 62 125 92 35 34 150 71 177 56 25 -13 79 -110 91
-163 6 -27 19 -65 29 -85 20 -39 92 -111 151 -152 19 -13 37 -27 40 -31 13
-18 336 -222 419 -265 l94 -49 -53 -3 c-37 -2 -82 6 -155 28 -115 35 -154 34
-200 -6 -20 -17 -29 -35 -32 -67 -5 -40 -2 -48 31 -85 63 -69 181 -114 344
-131 46 -5 86 -11 89 -15 4 -3 2 -77 -3 -164 -12 -175 -21 -204 -92 -277 -41
-43 -110 -143 -130 -188 -22 -50 -15 -111 14 -141 65 -64 161 -23 299 128 43
47 84 86 90 86 18 0 25 -31 31 -135 8 -134 35 -183 104 -187 61 -4 81 3 119
41 37 37 39 42 46 123 5 63 1 109 -14 191 -21 113 -20 144 13 252 9 28 16 60
16 72 0 33 15 36 67 14 88 -37 140 -44 182 -24 52 26 76 78 61 133 -16 59 -53
92 -148 129 -45 18 -82 37 -82 42 0 4 71 5 158 2 117 -4 184 -1 263 11 124 19
149 20 149 6 0 -5 -6 -10 -14 -10 -8 0 -16 -3 -18 -7 -1 -5 -30 -28 -63 -52
-81 -60 -212 -193 -258 -263 -58 -88 -90 -182 -84 -245 7 -68 29 -113 70 -140
75 -51 177 -15 239 84 18 30 51 82 73 116 53 82 255 287 284 287 3 0 6 -75 7
-168 1 -138 4 -181 23 -251 22 -84 65 -162 101 -181 16 -9 17 -14 8 -40 -12
-37 3 -82 36 -103 11 -7 59 -26 106 -42 47 -15 110 -39 140 -52 86 -39 92 -41
140 -58 47 -15 135 -20 189 -9 17 4 45 20 61 37 25 26 30 39 30 79 0 38 -6 54
-30 82 -19 21 -26 36 -19 38 24 8 109 -9 122 -23 69 -83 208 -118 335 -85 76
21 112 60 112 125 0 42 3 49 23 55 33 9 107 7 147 -4 19 -5 87 -24 150 -41
177 -48 273 -42 412 27 26 13 60 24 75 24 15 0 53 7 83 16 93 26 100 27 118
11 9 -8 45 -25 79 -37 53 -19 77 -22 165 -18 101 4 118 8 217 57 32 16 111 95
111 112 0 16 20 9 46 -14 22 -21 24 -26 13 -50 -29 -65 41 -160 128 -173 33
-5 53 -1 85 15 23 11 43 19 44 18 2 -1 -2 -36 -8 -77 -12 -91 -6 -256 11 -289
18 -34 0 -46 -31 -21 -53 41 -107 42 -123 2 -10 -27 12 -37 35 -17 15 13 25
16 34 10 65 -48 66 -48 104 -36 20 7 50 11 67 9 24 -2 32 2 43 25 17 36 35 42
73 27 39 -17 51 -4 19 22 -19 15 -33 18 -65 14 l-41 -7 -17 68 c-10 37 -19
102 -20 143 l-2 75 61 -3 c142 -8 233 90 193 208 -11 29 -9 34 14 56 88 81
102 151 43 210 -31 31 -34 39 -33 89 l2 55 41 0 c22 0 49 7 60 15 27 20 34 19
34 -9 0 -12 11 -68 24 -122 57 -233 59 -397 10 -686 -16 -93 -18 -97 -45 -103
-16 -4 -31 -10 -34 -15 -3 -5 -30 -6 -60 -3 -51 5 -55 4 -66 -21 -10 -21 -10
-29 0 -39 10 -9 16 -7 28 10 19 28 44 29 68 3 18 -19 18 -19 47 5 16 14 36 25
44 25 16 0 52 -34 70 -65 10 -19 11 -18 39 3 21 17 36 21 57 17 21 -5 28 -3
28 9 0 24 -29 35 -67 24 -19 -5 -38 -7 -41 -3 -3 3 11 74 33 158 35 137 40
167 43 303 3 107 -1 177 -12 242 -22 129 -22 129 32 73 84 -87 267 -187 405
-221 l47 -12 0 -73 c0 -72 0 -72 -25 -67 -40 7 -73 -6 -106 -43 -17 -19 -48
-39 -68 -45 -85 -26 -103 -52 -77 -114 16 -38 13 -46 -18 -46 -12 0 -32 -7
-45 -16 -22 -16 -23 -22 -17 -76 6 -57 5 -61 -23 -84 -44 -37 -64 -114 -30
-114 5 0 9 11 9 25 0 15 11 36 28 51 15 14 35 33 45 42 10 9 15 23 11 32 -14
35 -16 81 -4 95 7 8 25 15 40 15 42 0 55 22 36 59 -34 64 -19 99 46 107 40 6
58 14 89 46 32 32 45 39 71 36 l33 -3 3 -281 2 -282 -22 -6 c-13 -3 -83 -6
-155 -6 -84 0 -133 -4 -133 -10 0 -7 58 -10 168 -8 l167 3 3 5049 c2 4033 0
5051 -10 5058 -7 4 -1742 8 -3856 8 -3065 0 -3844 -3 -3847 -12z m7685 -85 l0
-73 -69 0 c-120 0 -225 -49 -269 -125 -17 -31 -22 -53 -20 -100 l2 -60 -45 -3
c-171 -10 -381 -89 -443 -165 -80 -99 -4 -207 144 -206 30 0 94 6 141 13 l86
12 -10 -29 c-15 -45 14 -125 62 -169 95 -89 203 -107 316 -55 33 15 67 35 77
44 10 9 20 14 23 11 3 -3 4 -212 3 -466 l-3 -462 -39 37 c-32 30 -47 37 -90
41 -49 4 -53 2 -89 -37 -36 -38 -43 -41 -90 -41 -68 0 -112 -27 -133 -80 -17
-42 -37 -56 -112 -80 -50 -16 -102 -69 -102 -105 0 -13 8 -40 17 -60 16 -34
16 -36 -3 -50 -10 -8 -38 -24 -61 -35 -58 -29 -103 -83 -103 -122 0 -29 25
-71 73 -123 12 -13 17 -29 14 -45 -3 -14 -11 -52 -17 -86 -7 -33 -10 -72 -6
-87 18 -74 106 -119 196 -101 l48 10 6 -36 c8 -52 38 -85 94 -106 67 -25 81
-40 100 -108 21 -77 70 -132 127 -140 96 -16 114 -25 145 -74 28 -44 30 -53
30 -149 l0 -103 -47 18 c-40 15 -52 25 -69 62 -27 56 -61 88 -127 121 -39 19
-62 40 -92 84 -66 95 -122 115 -227 78 -48 -18 -49 -18 -91 6 -84 47 -98 53
-141 53 -62 0 -102 -25 -142 -87 l-35 -55 -65 0 c-113 0 -168 -39 -199 -141
-20 -64 -20 -64 -137 -89 -45 -9 -68 -21 -107 -56 -63 -57 -77 -100 -61 -181
10 -46 6 -177 -6 -225 -1 -5 -2 -15 -3 -23 -1 -9 -11 -15 -26 -15 -40 0 -96
-33 -148 -89 -43 -45 -91 -71 -134 -71 -26 0 -89 -70 -118 -129 -16 -34 -32
-61 -36 -61 -4 0 -20 25 -34 55 -27 53 -27 56 -20 192 9 175 4 188 -115 304
-111 109 -118 128 -102 272 22 190 12 294 -34 354 -63 83 -138 82 -384 -3
-153 -53 -172 -57 -260 -58 -83 -1 -106 3 -185 31 -49 17 -157 50 -240 73
-216 60 -219 61 -355 270 -26 41 -58 85 -69 97 l-20 21 134 4 c125 3 135 5
159 27 22 20 26 33 26 78 0 30 -6 64 -14 76 -9 15 -16 68 -19 162 -4 117 -10
156 -35 237 -33 107 -55 149 -117 221 l-42 48 -6 267 c-5 247 -8 274 -32 355
-32 111 -54 154 -101 200 -81 78 -178 97 -270 52 -94 -46 -175 -138 -302 -346
-62 -101 -122 -195 -133 -209 l-21 -25 -351 -3 c-277 -2 -352 0 -359 10 -4 7
-22 47 -39 88 -45 109 -137 290 -166 328 -14 18 -44 47 -67 64 -37 27 -47 29
-100 26 -52 -4 -63 -9 -91 -40 -59 -63 -111 -252 -134 -480 -16 -156 -23 -175
-79 -228 -91 -85 -134 -155 -170 -272 -24 -76 -44 -275 -41 -392 1 -45 -3 -94
-9 -109 -19 -46 -15 -93 12 -124 22 -25 31 -28 86 -28 l62 0 -7 -245 c-7 -245
-11 -274 -37 -301 -58 -60 -63 -107 -14 -144 19 -14 37 -38 41 -52 3 -14 3
-106 -1 -204 l-7 -178 -31 -7 c-65 -14 -108 -68 -122 -151 -13 -84 30 -254
117 -457 21 -50 37 -90 36 -91 -1 -1 -63 -9 -137 -18 -74 -9 -162 -24 -194
-32 -32 -9 -61 -13 -63 -11 -9 9 10 296 19 296 19 0 135 95 163 133 67 94 34
188 -87 245 -84 40 -98 56 -91 109 5 35 12 46 47 69 22 15 46 34 52 43 7 9 21
27 33 40 38 44 40 139 3 168 -9 7 -34 23 -55 34 -71 37 -77 47 -77 119 0 88 5
101 47 130 87 59 121 124 108 206 -8 55 -30 82 -108 133 -44 28 -74 41 -98 41
-19 0 -44 6 -54 14 -19 14 -19 15 8 27 38 17 41 67 6 106 -19 19 -20 26 -10
54 10 28 9 35 -10 55 -12 12 -39 26 -61 29 -37 7 -41 5 -83 -41 -25 -26 -45
-53 -45 -59 0 -5 -9 -27 -20 -48 -23 -43 -19 -73 11 -82 29 -9 59 -42 59 -62
0 -15 -11 -18 -69 -20 l-69 -2 -7 63 c-6 56 -5 66 13 84 17 17 19 27 12 56
-11 48 -42 98 -114 182 -39 47 -78 47 -100 0 -9 -19 -16 -37 -16 -41 0 -5 -16
-48 -35 -96 -40 -103 -42 -119 -15 -126 16 -4 20 -14 20 -43 0 -48 -18 -62
-72 -58 -39 3 -43 6 -46 31 -3 21 1 27 17 27 24 0 29 16 29 105 0 45 -6 83
-17 105 -16 34 -18 35 -77 38 -67 3 -94 -11 -94 -49 0 -11 -7 -31 -16 -44 -9
-14 -14 -34 -11 -45 3 -11 0 -33 -6 -49 -14 -39 2 -59 51 -63 35 -3 37 -5 34
-33 -2 -16 -10 -35 -19 -42 -21 -16 -14 -150 11 -187 37 -57 53 -61 263 -61
161 0 195 -3 203 -15 17 -27 6 -42 -46 -61 -74 -28 -127 -77 -127 -117 0 -50
56 -100 131 -117 29 -6 29 -6 42 -123 17 -160 17 -160 -53 -186 -168 -62 -175
-151 -17 -224 l80 -37 0 -117 c0 -64 3 -123 6 -131 4 -11 -8 -19 -45 -32 -87
-28 -125 -100 -85 -160 9 -13 35 -37 59 -52 l43 -27 7 -94 c4 -52 3 -97 -1
-101 -5 -4 -77 -18 -160 -30 -184 -28 -249 -44 -592 -151 -34 -11 -65 -20 -67
-20 -10 0 -5 4978 5 4982 6 2 1731 3 3835 3 l3825 0 0 -72z m0 -475 l0 -393
-48 -32 c-97 -65 -167 -84 -238 -64 -115 33 -213 167 -175 240 20 36 -1 43
-78 26 -101 -21 -206 -19 -258 5 -110 49 -69 167 83 236 72 33 167 61 229 68
172 19 170 18 155 46 -16 31 -12 102 9 136 44 72 149 122 259 123 l62 1 0
-392z m-3963 -517 c93 -43 152 -140 188 -314 17 -82 20 -207 5 -207 -5 0 -10
4 -10 9 0 12 -46 60 -97 100 -63 48 -52 29 26 -47 38 -37 74 -77 80 -89 6 -13
11 -77 11 -153 l0 -130 -66 47 c-37 27 -80 61 -97 76 l-30 28 7 117 c22 376
22 382 -35 441 -24 26 -37 31 -75 31 -40 0 -51 -5 -83 -37 -20 -21 -44 -49
-52 -62 l-16 -25 -29 21 c-16 11 -39 24 -51 27 -13 4 -23 11 -23 15 0 10 99
104 135 128 68 46 144 54 212 24z m-1648 -85 c47 -25 96 -88 151 -197 64 -128
130 -281 123 -291 -2 -5 -19 -8 -36 -8 -49 0 -276 -39 -332 -56 -27 -9 -85
-34 -127 -55 -43 -21 -78 -33 -78 -28 0 17 29 229 46 329 26 165 81 292 134
313 28 11 91 7 119 -7z m1544 -108 c-8 -46 -16 -84 -18 -86 -3 -3 -70 12 -103
23 -33 11 76 145 117 145 17 0 17 -4 4 -82z m72 66 c34 -35 46 -74 45 -152 -3
-114 -12 -192 -22 -192 -6 0 -34 7 -64 16 -51 14 -54 17 -54 47 0 18 5 49 11
70 9 35 13 38 37 33 l27 -5 -25 11 c-14 7 -26 13 -28 14 -2 1 4 41 14 88 18
88 29 100 59 70z m-238 -85 c7 -6 13 -18 13 -26 0 -17 -36 -103 -101 -240
l-50 -106 -46 7 c-25 3 -70 6 -99 6 -58 0 -64 6 -36 36 21 23 42 56 116 184
30 52 68 114 85 138 l31 42 37 -15 c20 -9 42 -20 50 -26z m105 -71 l40 -12 -6
-59 c-11 -90 -8 -88 -84 -64 -37 12 -69 23 -71 24 -4 3 4 29 30 101 10 25 32
28 91 10z m-47 -149 c28 -8 53 -17 56 -22 5 -7 -18 -157 -26 -165 -1 -2 -47 6
-101 16 -71 14 -98 23 -96 33 2 7 20 46 39 87 40 81 31 77 128 51z m150 -45
l64 -16 0 -100 c0 -54 -3 -98 -7 -96 -4 2 -41 16 -82 32 -41 17 -76 30 -77 31
-3 1 16 138 22 153 6 15 3 15 80 -4z m-255 -142 c128 -24 220 -51 295 -89 82
-42 97 -54 85 -68 -24 -29 -153 -30 -183 -1 -22 21 -66 46 -81 46 -8 0 -36
-14 -63 -32 -38 -26 -57 -32 -98 -32 -61 0 -121 25 -156 67 l-26 30 -19 -32
c-10 -18 -41 -46 -67 -63 -43 -28 -54 -30 -106 -25 -78 7 -171 58 -171 94 0
21 -11 15 -47 -26 -67 -79 -172 -84 -268 -12 -61 46 -73 49 -106 22 -53 -41
-91 -54 -144 -48 -52 5 -124 38 -138 63 -12 22 -23 17 -45 -20 -28 -47 -74
-70 -129 -63 -43 5 -123 48 -123 67 0 23 163 86 285 111 171 34 240 37 715 35
435 -2 485 -5 590 -24z m-210 -122 c0 -5 24 -23 53 -40 39 -22 65 -30 102 -30
47 0 62 6 144 53 30 17 31 17 82 -14 65 -40 131 -48 195 -24 l45 17 54 -42
c70 -54 149 -146 141 -165 -4 -11 -21 -15 -60 -15 -67 0 -92 9 -135 49 -40 37
-48 38 -72 7 -11 -14 -33 -28 -50 -31 -26 -6 -36 -2 -62 23 -50 47 -95 65
-162 66 -68 1 -134 -25 -174 -68 -29 -31 -59 -33 -111 -6 -53 27 -69 25 -107
-10 -37 -34 -98 -51 -147 -40 -42 9 -102 45 -115 68 -9 15 -14 12 -41 -21 -73
-87 -150 -88 -245 -3 -48 42 -64 44 -95 11 -13 -14 -39 -29 -58 -35 -32 -8
-39 -6 -70 21 -46 41 -71 49 -150 49 -55 0 -75 -5 -114 -28 -25 -15 -57 -40
-69 -56 -20 -25 -27 -28 -68 -23 -35 4 -52 12 -73 36 l-29 32 -24 -30 c-35
-41 -72 -52 -120 -35 -21 7 -47 22 -58 32 -19 20 -19 20 11 64 32 47 123 141
160 166 21 14 25 13 45 -5 46 -42 115 -66 164 -57 17 3 51 23 73 44 l42 39 39
-25 c86 -54 164 -56 240 -4 24 16 51 30 59 30 8 0 31 -14 50 -31 19 -18 49
-38 67 -45 72 -31 176 -7 221 51 11 14 22 25 25 25 2 0 22 -16 43 -35 96 -88
230 -80 312 17 24 28 42 36 42 18z m4383 -41 c12 -6 41 -30 65 -52 l42 -41 0
-706 0 -705 -21 35 c-27 44 -47 59 -80 60 -46 0 -118 31 -144 61 -13 17 -30
49 -36 72 -21 77 -36 97 -102 126 -79 36 -92 52 -91 113 0 26 0 48 -2 48 -1 0
-18 -7 -37 -15 -50 -21 -103 -19 -152 5 -65 32 -78 76 -50 180 21 77 20 80
-30 144 -26 34 -45 69 -45 83 0 30 55 85 124 126 45 26 48 30 42 60 -19 108
-20 103 11 131 15 14 48 33 73 42 86 30 91 34 109 78 25 58 53 76 117 76 47 0
55 4 97 45 48 46 72 53 110 34z m-4027 -138 c172 -78 178 -309 10 -396 -117
-60 -257 -4 -300 120 -28 84 -17 148 39 221 53 69 166 94 251 55z m-1311 -30
c81 -38 134 -116 135 -197 0 -59 -45 -142 -98 -178 -59 -41 -149 -48 -212 -16
-165 84 -157 313 14 391 52 24 110 24 161 0z m1576 -25 c51 -47 132 -59 202
-31 14 6 22 -4 43 -51 14 -33 28 -73 31 -89 4 -27 1 -32 -29 -43 -58 -21 -117
-15 -177 18 -55 31 -89 37 -119 21 -9 -4 -30 -11 -45 -15 -28 -7 -29 -6 -22
23 5 25 -4 80 -21 125 -3 8 7 18 25 25 16 7 37 21 47 32 9 10 19 19 22 19 2 0
22 -15 43 -34z m-1292 -6 c20 -17 43 -36 51 -43 8 -7 44 -12 83 -12 67 0 68 1
108 43 41 42 41 42 59 22 25 -28 99 -60 143 -60 41 0 89 20 124 52 14 13 30
19 45 15 24 -6 111 -37 116 -41 1 -2 -5 -20 -14 -42 -12 -30 -15 -55 -10 -107
l6 -69 -32 7 c-18 4 -52 18 -76 32 -48 27 -75 26 -121 -7 -14 -10 -38 -22 -53
-26 -23 -5 -29 -2 -37 17 -18 48 -56 65 -129 61 -14 -1 -33 -17 -50 -42 -24
-35 -30 -39 -57 -34 -16 4 -40 15 -52 26 l-22 21 -35 -31 c-41 -36 -94 -49
-142 -34 -19 5 -34 6 -34 1 0 -14 47 -22 96 -16 25 2 58 15 77 30 34 26 34 26
63 7 16 -11 41 -22 56 -26 17 -3 28 -12 28 -23 0 -46 71 -97 120 -86 41 9 90
57 90 89 0 20 5 26 23 26 13 0 45 14 71 30 l48 31 54 -31 c30 -17 68 -30 87
-30 26 0 44 -11 89 -54 64 -62 115 -81 190 -73 87 11 161 65 193 140 10 24 22
37 34 37 10 0 37 6 59 14 39 14 42 13 103 -19 72 -38 127 -44 186 -20 20 8 38
13 40 11 8 -7 24 -136 21 -163 -3 -26 -5 -28 -48 -25 -25 2 -64 13 -88 24
l-44 21 -60 -32 c-74 -38 -115 -39 -210 -6 -77 27 -67 28 -153 -18 -71 -39
-180 -29 -280 24 -30 16 -64 29 -75 29 -10 0 -40 -14 -65 -32 -56 -40 -136
-49 -205 -23 -70 27 -104 29 -141 9 -51 -26 -145 -22 -215 10 -70 32 -79 32
-121 0 -77 -58 -136 -67 -235 -33 -61 22 -63 22 -134 4 -79 -20 -128 -14 -205
25 -51 26 -72 25 -120 -7 -47 -31 -133 -42 -179 -23 -30 12 -30 14 -30 86 0
43 4 74 10 74 6 0 10 -4 10 -8 0 -16 78 -35 116 -29 21 4 55 20 76 37 35 29
39 30 55 15 25 -25 59 -35 120 -35 50 0 58 -3 87 -34 107 -116 283 -97 368 39
26 42 31 60 31 115 1 42 -5 76 -16 97 -22 41 -22 40 10 48 14 3 40 17 57 31
17 13 35 24 40 24 4 0 25 -14 45 -30z m-683 -35 c20 -13 51 -27 68 -31 l33 -6
-10 -44 c-8 -32 -7 -61 0 -97 6 -29 9 -55 6 -59 -16 -27 -163 18 -163 49 0 9
-17 -1 -46 -26 -57 -50 -113 -58 -176 -25 -24 12 -28 21 -28 56 0 47 40 198
53 198 4 0 22 -10 38 -22 46 -34 120 -32 156 5 15 15 29 27 30 27 1 0 19 -11
39 -25z m1047 -166 c24 -29 22 -90 -4 -120 -28 -33 -88 -33 -123 0 -43 40 -29
122 24 144 27 11 85 -2 103 -24z m1181 -216 l56 -6 0 -44 c0 -42 -2 -45 -22
-40 -13 3 -93 12 -178 19 -116 10 -404 12 -1135 11 -945 -2 -1199 -9 -1245
-33 -27 -14 -29 -12 -32 31 -3 29 0 33 17 30 11 -2 45 -5 76 -8 56 -5 93 8
154 51 18 13 26 12 75 -11 81 -37 159 -47 212 -27 56 22 81 21 151 -5 50 -19
66 -20 113 -12 51 10 93 26 104 41 3 3 16 14 29 23 21 14 27 14 51 2 94 -48
198 -58 271 -26 42 19 44 19 92 1 104 -40 177 -35 251 15 48 32 63 32 138 -7
53 -27 77 -33 149 -36 82 -4 90 -3 147 28 l60 32 67 -21 c96 -30 169 -28 224
7 l44 28 38 -19 c20 -10 62 -21 93 -24z m-3299 -160 c30 -42 52 -80 48 -84
-10 -9 -213 -32 -220 -25 -3 2 7 30 21 62 14 31 26 60 26 65 0 30 22 59 44 59
19 0 37 -17 81 -77z m3101 67 c250 -17 284 -30 284 -111 0 -60 -24 -79 -110
-89 -125 -15 -187 -12 -230 10 -46 24 -94 26 -142 5 -28 -11 -103 -14 -384
-15 -192 0 -666 -5 -1054 -10 l-705 -11 -23 27 c-42 48 -14 140 53 177 11 6
81 14 155 17 231 11 1985 11 2156 0z m-3377 -112 c13 -30 16 -49 9 -61 -5 -10
-6 -37 -3 -60 9 -66 1 -71 -97 -61 l-83 9 3 55 c2 30 10 64 17 76 7 11 15 31
17 45 3 24 9 26 106 37 7 1 21 -17 31 -40z m609 -3 c11 -10 11 -18 3 -33 -17
-32 -13 -59 10 -76 20 -13 30 -59 16 -72 -3 -3 -37 -12 -76 -20 l-71 -15 -40
32 c-45 36 -46 38 -25 65 8 10 15 26 15 35 0 9 18 39 41 67 40 49 41 50 77 40
21 -5 43 -16 50 -23z m-260 -91 c3 -20 -3 -21 -100 -28 -57 -3 -118 -9 -135
-12 -29 -6 -33 -4 -33 15 0 12 6 24 14 27 24 9 148 22 201 20 43 -1 50 -4 53
-22z m2985 -55 c15 -15 27 -32 27 -38 0 -6 4 -11 9 -11 5 0 20 -17 32 -37 13
-21 25 -40 29 -43 3 -3 14 -23 25 -44 11 -21 41 -62 67 -91 55 -61 116 -90
272 -130 54 -14 152 -44 219 -66 199 -66 229 -65 505 27 293 97 355 70 354
-156 0 -119 -15 -201 -58 -311 -46 -118 -54 -167 -54 -344 0 -204 -21 -323
-89 -504 -34 -90 -36 -85 -21 49 16 140 -11 379 -61 532 -94 289 -279 494
-514 568 -21 7 -66 29 -100 50 -153 94 -327 118 -648 89 -125 -11 -242 -46
-320 -97 -20 -14 -39 -23 -41 -21 -12 11 101 382 152 500 25 58 76 117 105
121 33 6 79 -12 110 -43z m-209 24 c-9 -10 -26 -37 -36 -60 l-19 -43 -170 0
c-187 0 -215 -7 -238 -56 -15 -34 -17 -275 -1 -303 5 -11 7 -26 4 -35 -10 -26
31 -36 150 -36 121 0 126 -2 110 -44 -6 -14 -96 -16 -920 -16 -603 0 -914 3
-914 10 0 6 4 10 8 10 5 0 18 17 30 39 19 33 22 55 23 152 1 63 4 175 8 249
l6 135 435 5 c239 3 684 6 988 8 525 2 553 1 536 -15z m-2820 -11 c2 -4 8 -36
12 -71 l7 -63 -101 4 c-56 2 -103 6 -105 8 -2 3 -1 28 1 56 l4 52 66 10 c90
13 110 13 116 4z m-344 -107 c0 -37 -22 -57 -42 -37 -17 17 0 72 23 72 15 0
19 -7 19 -35z m635 5 c9 -29 -12 -50 -51 -50 -38 0 -45 8 -37 38 5 19 15 24
70 31 6 0 15 -8 18 -19z m2458 -17 c4 -3 2 -12 -4 -20 -9 -10 -45 -13 -143
-13 -86 0 -140 -5 -156 -13 -25 -13 -25 -13 -24 -150 l2 -138 -27 3 c-22 3
-27 9 -33 43 -11 62 -9 201 3 232 23 62 27 63 209 63 92 0 170 -3 173 -7z
m-2271 -61 c122 -90 120 -188 -7 -284 -67 -51 -213 -123 -302 -148 -39 -11
-85 -32 -102 -46 -27 -23 -34 -24 -70 -14 -53 14 -101 55 -101 86 0 41 79 98
170 122 151 41 380 148 380 179 0 7 -18 0 -43 -18 -24 -17 -106 -53 -182 -80
-139 -49 -154 -50 -155 -12 0 22 -44 27 -220 28 -158 0 -178 2 -210 20 -41 24
-59 66 -59 142 -1 55 9 72 29 48 16 -19 35 -19 54 0 14 14 47 15 271 9 141 -4
258 -11 261 -16 11 -18 83 -8 110 15 40 35 102 24 176 -31z m2253 1 c-20 -49
-74 -221 -77 -243 -3 -25 -4 -25 -109 -28 l-106 -3 -6 83 c-15 190 -12 195
108 201 202 8 198 8 190 -10z m3477 -240 c58 -36 61 -36 101 -24 64 20 125 24
156 12 16 -7 45 -39 70 -77 37 -56 52 -69 109 -97 60 -29 69 -38 102 -97 34
-62 39 -66 88 -79 l52 -14 0 -872 0 -872 -37 -7 c-71 -11 -103 -7 -138 19 -55
43 -90 42 -174 0 l-74 -38 -66 12 c-55 10 -79 9 -139 -4 -40 -8 -98 -15 -127
-15 -30 0 -66 -5 -80 -12 -32 -14 -41 -3 -84 107 -18 44 -39 95 -47 113 -8 18
-14 37 -14 43 0 5 -18 46 -40 92 -60 124 -110 170 -182 169 -58 -1 -115 -40
-214 -148 -111 -119 -147 -139 -280 -153 -170 -17 -254 -23 -254 -18 0 3 14
28 31 55 39 63 40 111 5 208 -32 88 -32 103 -1 192 36 102 34 160 -8 225 -19
29 -41 58 -50 66 -24 19 -21 35 13 100 46 86 69 107 134 126 46 13 73 30 122
76 68 63 97 79 145 79 16 0 29 4 29 10 0 5 5 55 11 110 8 76 8 117 -1 164 -10
53 -9 68 4 97 32 72 90 112 186 129 79 14 95 27 114 94 9 28 23 61 31 74 24
33 79 52 151 52 52 0 67 4 84 22 11 12 20 25 20 29 0 4 12 22 27 40 58 69 127
73 225 12z m-3572 -62 c0 -16 -12 -19 -103 -25 -111 -8 -157 -2 -157 19 0 19
21 23 148 24 103 1 112 0 112 -18z m822 -46 c40 -8 100 -29 133 -46 33 -18 70
-37 82 -43 13 -6 23 -16 23 -22 0 -16 -126 -144 -142 -144 -7 0 -63 25 -123
55 -149 75 -189 82 -312 62 -54 -9 -143 -17 -198 -16 -112 1 -222 -19 -284
-50 -48 -25 -50 -20 -15 26 43 56 76 82 159 122 116 57 180 67 437 69 115 2
189 -3 240 -13z m-3054 -192 l-3 -178 -39 -18 c-36 -17 -162 -48 -248 -60
l-38 -6 0 43 c0 24 -5 80 -11 125 -6 45 -8 93 -5 106 7 29 52 54 151 84 39 12
95 34 125 50 30 16 58 30 63 30 4 1 6 -79 5 -176z m2202 98 c0 -55 64 -51
-908 -51 -819 0 -897 1 -914 17 -10 9 -18 24 -18 35 0 17 32 18 920 18 900 0
920 0 920 -19z m1201 -53 c52 -17 166 -95 219 -148 74 -75 190 -262 190 -307
0 -18 -144 82 -206 142 -56 56 -118 102 -174 130 -78 39 -107 61 -124 97 -19
38 -20 46 -3 62 13 14 49 35 58 36 3 0 21 -5 40 -12z m-421 -58 c58 -27 115
-52 128 -55 23 -7 31 -25 11 -25 -7 0 -31 -16 -55 -35 -59 -49 -99 -47 -239
11 -140 59 -228 68 -326 35 -35 -11 -99 -27 -141 -35 -153 -29 -203 -67 -278
-211 -28 -56 -63 -105 -98 -138 -29 -29 -60 -65 -68 -80 -21 -40 -26 -29 -14
34 11 59 58 162 88 195 11 11 47 58 80 105 96 132 114 151 169 176 78 36 175
53 313 53 73 1 148 7 180 15 79 20 131 11 250 -45z m-1695 5 c-19 -20 -38 -47
-41 -60 l-6 -25 -227 0 c-284 0 -275 3 -279 -105 -1 -44 2 -123 7 -175 8 -82
9 -72 4 72 -4 159 -4 167 15 177 22 12 454 16 465 4 4 -3 2 -12 -4 -20 -9 -10
-49 -13 -163 -14 -83 -1 -178 -4 -211 -8 l-60 -6 4 -152 3 -153 -60 0 c-43 0
-83 9 -139 30 -43 16 -98 34 -122 41 l-44 11 7 188 c5 131 4 195 -4 209 l-11
21 451 0 451 0 -36 -35z m875 23 c-6 -7 -32 -50 -58 -95 -26 -45 -56 -92 -67
-105 -11 -13 -32 -40 -47 -60 -15 -20 -33 -42 -40 -50 -7 -7 -22 -30 -33 -51
-40 -77 -40 -77 -153 58 -102 121 -185 208 -255 266 l-58 49 361 0 c288 0 359
-3 350 -12z m-2078 -55 c65 -34 77 -48 78 -94 0 -49 -49 -120 -110 -159 -27
-17 -116 -53 -197 -79 -179 -57 -222 -77 -234 -107 l-8 -24 -48 21 c-52 21
-83 51 -83 79 0 28 64 77 121 94 29 9 100 25 159 36 110 21 213 51 236 71 7 6
15 47 20 100 3 49 8 89 9 89 2 0 27 -12 57 -27z m1378 1 c38 -29 160 -154 208
-212 l44 -52 -49 0 c-46 0 -51 3 -93 50 -51 58 -94 73 -135 46 -14 -10 -30
-28 -35 -41 -9 -23 -10 -23 -40 -8 -17 8 -49 17 -71 20 l-40 6 6 41 c4 23 11
46 15 51 4 6 10 23 14 40 4 16 21 42 38 58 26 25 36 29 72 25 23 -3 53 -14 66
-24z m1841 -28 c22 -35 40 -50 101 -78 46 -22 98 -58 139 -97 65 -61 118 -102
195 -154 102 -69 120 -107 150 -317 26 -182 1 -495 -41 -527 -24 -17 -27 -13
-53 72 -18 57 -22 99 -24 225 -3 146 -5 159 -31 214 -19 42 -54 85 -120 151
-58 58 -105 115 -127 155 -46 84 -96 133 -178 174 -79 40 -101 62 -112 111 -7
33 -5 40 28 76 20 21 39 39 42 39 3 0 17 -20 31 -44z m-609 -41 c30 -8 86 -28
124 -45 38 -18 95 -35 129 -39 53 -6 60 -9 57 -26 -5 -28 -20 -44 -63 -66 -63
-31 -136 -35 -219 -10 -62 19 -95 22 -228 22 -204 -2 -220 -10 -277 -141 -23
-54 -43 -70 -133 -115 -78 -40 -99 -69 -126 -179 -9 -38 -24 -83 -33 -100
l-17 -31 -8 35 c-11 48 0 154 22 206 10 23 45 69 77 101 38 38 75 90 107 151
74 139 105 161 276 198 36 8 92 23 125 33 73 24 114 25 187 6z m525 -111 c15
-14 55 -39 88 -56 80 -40 109 -69 161 -158 28 -48 74 -105 130 -160 64 -63 95
-102 118 -150 31 -64 31 -66 28 -206 -2 -118 1 -151 18 -204 24 -76 26 -110 5
-110 -9 0 -34 -9 -55 -19 l-40 -19 0 54 c0 66 -17 109 -60 149 -53 50 -60 73
-60 195 0 129 -9 155 -93 265 -57 75 -116 126 -218 190 -117 72 -189 156 -189
218 0 23 39 67 90 100 24 17 24 17 36 -24 7 -22 25 -51 41 -65z m-2012 14 c-4
-24 -12 -92 -19 -153 l-11 -110 -182 -3 -183 -2 0 22 c0 13 -5 74 -11 136 -8
85 -7 117 1 127 9 11 45 15 133 18 67 1 157 4 201 5 l79 2 -8 -42z m2970 -32
c9 -19 50 -66 91 -105 47 -44 83 -89 95 -116 19 -42 19 -53 8 -146 -17 -151 9
-243 95 -330 80 -82 97 -158 56 -259 -30 -73 -29 -139 4 -224 31 -82 32 -98 6
-150 -35 -70 -80 -114 -139 -136 -30 -11 -57 -17 -60 -14 -11 11 -6 151 6 175
28 54 53 132 53 162 0 38 -17 65 -85 136 -52 55 -73 100 -74 164 -1 38 2 53
34 191 32 132 3 227 -102 335 l-63 66 0 75 c0 41 7 93 14 115 25 71 35 95 40
95 3 0 12 -15 21 -34z m-2637 -23 c45 -44 144 -208 163 -271 19 -65 5 -74
-123 -79 -169 -7 -181 8 -167 204 5 73 14 144 19 158 15 39 60 34 108 -12z
m-179 -16 l26 -12 -4 -142 -4 -142 30 -29 c35 -36 99 -47 206 -37 139 13 150
41 72 196 -30 61 -55 113 -55 115 0 2 21 4 47 4 45 0 51 -3 103 -58 31 -33 61
-61 68 -63 10 -3 11 -20 1 -79 -20 -127 11 -471 57 -630 20 -70 89 -212 121
-251 l25 -29 -25 0 c-29 0 -93 -22 -153 -52 -75 -37 -80 -100 -11 -152 18 -14
48 -29 66 -32 17 -4 33 -10 36 -14 6 -9 -51 -70 -65 -70 -6 0 -10 -7 -10 -15
0 -8 3 -15 8 -15 16 0 72 41 87 64 14 20 21 24 35 16 28 -15 67 -12 74 5 4 11
-2 15 -20 15 -14 0 -34 4 -44 10 -17 9 -17 12 6 57 13 27 29 67 35 91 11 47
14 46 59 -18 38 -54 77 -98 156 -175 81 -80 81 -64 -3 -177 -178 -238 -451
-410 -709 -448 -94 -13 -248 -13 -295 2 -46 13 -47 22 -19 104 46 130 62 263
38 307 -41 79 -125 87 -267 26 -65 -27 -83 -31 -136 -27 -34 3 -70 10 -81 17
-28 16 -166 78 -191 85 -43 13 -69 126 -83 359 -6 93 -14 187 -20 210 -8 38
-44 133 -83 218 -66 145 -112 279 -128 374 -24 142 14 225 103 225 69 0 165
-34 358 -127 63 -30 133 -62 155 -71 22 -9 61 -28 86 -44 76 -46 102 -52 143
-33 59 28 69 64 77 275 4 102 8 187 8 189 2 7 94 -9 120 -22z m1676 -53 c40
-62 93 -106 216 -184 74 -46 105 -73 162 -143 83 -102 92 -126 90 -251 -2 -90
1 -115 17 -147 11 -21 25 -41 31 -44 5 -4 24 -25 40 -47 24 -34 29 -51 29 -97
0 -31 -4 -71 -9 -89 -6 -18 -7 -40 -4 -48 8 -22 45 -17 68 10 32 37 87 66 126
66 19 0 54 9 77 20 87 42 142 15 142 -71 0 -65 -17 -95 -85 -155 -96 -83 -130
-99 -210 -98 -52 0 -81 6 -113 22 l-42 23 -53 -49 c-58 -55 -103 -80 -221
-124 -185 -68 -487 -126 -593 -114 -217 25 -341 92 -473 255 -19 24 -41 49
-47 56 -7 8 -13 16 -13 20 0 3 -11 18 -25 33 -35 38 -127 178 -152 232 -48
105 -66 186 -61 283 4 74 10 102 31 143 15 28 33 80 40 116 19 88 37 110 120
151 86 41 96 52 142 145 19 39 44 76 57 83 36 19 286 22 345 3 123 -38 213
-37 291 4 50 26 57 26 77 -4z m-3045 -107 c0 -46 -3 -125 -6 -174 l-7 -90 -41
-18 c-23 -10 -61 -27 -86 -38 -72 -32 -162 -50 -172 -35 -4 7 -8 67 -8 132 0
95 -3 123 -16 137 -39 44 3 70 210 129 54 16 101 31 104 34 16 17 22 -2 22
-77z m107 -71 c59 -31 76 -46 93 -80 25 -53 19 -90 -22 -140 -52 -64 -213
-161 -344 -209 -109 -40 -139 -54 -172 -82 l-31 -26 -45 44 c-52 50 -59 82
-23 114 25 23 71 40 207 78 113 31 246 92 279 129 28 30 22 34 -16 9 l-26 -17
6 69 c4 39 7 90 7 113 0 24 3 42 8 40 4 -1 39 -20 79 -42z m1081 7 c-4 -19 -6
-20 -221 -27 -133 -4 -164 -2 -193 11 -19 9 -34 20 -34 25 0 4 102 8 226 8
206 0 225 -1 222 -17z m2 -73 c0 -48 -22 -96 -49 -105 -22 -7 -57 6 -108 39
-21 13 -74 39 -118 58 l-80 33 115 6 c63 3 143 6 178 7 l62 2 0 -40z m2978 -9
c71 -69 93 -119 94 -208 1 -49 -5 -94 -16 -122 -22 -60 -31 -195 -17 -249 9
-30 32 -63 81 -115 83 -86 84 -94 34 -221 -33 -83 -36 -98 -32 -168 l5 -77
-35 -17 c-19 -9 -49 -17 -65 -18 -29 -1 -30 0 -33 49 -2 28 -6 68 -9 91 -4 29
0 53 14 85 18 40 20 58 15 194 -7 199 -15 237 -63 294 -74 89 -85 135 -56 241
8 30 18 106 21 168 4 61 10 112 14 112 4 0 26 -18 48 -39z m-4158 -395 c0 -45
-3 -110 -6 -143 l-6 -60 -42 -11 c-73 -21 -270 -72 -277 -72 -4 0 -10 46 -14
102 l-7 102 29 26 c15 14 67 40 113 58 133 52 164 65 175 74 27 24 35 7 35
-76z m4062 -30 c9 -18 30 -49 46 -67 47 -54 52 -72 52 -173 0 -53 5 -127 12
-165 11 -65 10 -73 -10 -118 -17 -36 -22 -67 -22 -123 0 -130 2 -125 -55 -122
-28 1 -59 7 -70 11 -44 20 -144 41 -190 41 -61 0 -104 -30 -136 -97 -22 -44
-24 -63 -27 -233 -2 -102 1 -234 6 -295 5 -60 9 -111 8 -112 -1 -2 -37 11 -78
27 -42 16 -104 34 -137 41 l-60 13 -15 65 c-8 36 -18 89 -22 116 -3 28 -16 68
-27 90 -18 37 -72 113 -88 125 -18 13 -52 96 -53 127 l-1 36 95 34 c129 46
174 69 238 121 47 38 57 43 76 33 69 -36 188 -29 264 15 72 42 169 140 188
190 25 65 15 146 -23 179 -15 13 -38 25 -50 25 -36 0 -37 17 -5 98 17 42 36
94 43 115 7 20 16 37 19 37 4 0 14 -15 22 -34z m1285 -408 c30 -28 88 -147
148 -303 42 -108 110 -252 125 -265 21 -17 114 -166 139 -221 105 -232 117
-536 28 -728 -35 -76 -124 -204 -188 -270 -56 -58 -63 -62 -94 -57 -40 8 -65
-12 -65 -53 0 -23 -12 -33 -87 -78 -92 -53 -194 -103 -212 -103 -6 0 -22 17
-36 37 l-25 38 69 21 c110 34 258 122 338 201 45 46 123 146 123 159 0 7 4 14
8 16 15 6 61 135 83 231 28 121 31 308 5 382 -46 131 -113 236 -219 340 -179
176 -346 249 -592 262 -249 12 -503 -61 -700 -201 -98 -71 -223 -197 -250
-254 -11 -23 -22 -42 -25 -42 -3 0 -19 -36 -35 -81 -26 -71 -35 -83 -67 -100
-49 -25 -77 -24 -87 4 -5 12 -14 100 -21 195 -19 260 -3 430 46 487 21 24 32
29 72 28 26 0 88 -13 137 -28 69 -22 111 -28 180 -29 82 -1 95 2 150 30 122
63 195 83 348 94 169 13 278 33 322 60 26 16 60 48 171 164 26 26 81 73 99 85
28 16 83 6 112 -21z m-3302 -58 c8 -13 -20 -115 -39 -146 -21 -31 -64 -32
-117 -2 -44 24 -59 59 -38 85 19 23 128 72 161 73 15 0 30 -4 33 -10z m-2164
-117 c38 -36 69 -72 69 -79 0 -7 -9 -18 -19 -24 -16 -8 -25 -4 -51 20 -65 61
-118 48 -157 -37 -14 -31 -23 -66 -21 -85 3 -33 3 -33 54 -32 46 1 53 -1 63
-23 6 -13 11 -48 11 -76 0 -29 5 -58 12 -65 14 -14 88 -16 88 -3 0 5 9 11 20
14 14 3 27 -5 45 -29 36 -47 93 -74 155 -74 l50 0 0 -34 c0 -121 107 -218 241
-218 50 0 67 5 109 32 28 18 50 35 50 39 0 3 8 16 18 29 l18 23 53 -27 c166
-83 317 42 256 211 -18 49 -18 45 0 45 8 0 59 18 114 40 114 46 140 49 176 17
39 -33 36 -108 -9 -262 -19 -66 -42 -154 -52 -195 -29 -127 -76 -240 -101
-240 -18 0 -54 -54 -110 -166 -87 -174 -127 -227 -197 -262 -101 -51 -135 -57
-341 -57 -176 0 -197 2 -288 27 -202 57 -366 167 -530 359 -85 98 -141 240
-154 391 -11 126 43 299 137 438 54 80 65 105 88 200 47 193 89 214 203 103z
m232 -97 c46 -52 64 -65 104 -76 26 -6 56 -14 66 -17 27 -7 20 -20 -17 -33
-41 -13 -63 -44 -72 -100 -4 -23 -13 -44 -20 -47 -8 -3 -44 7 -81 22 -73 29
-99 28 -168 -5 -22 -10 -41 -17 -43 -15 -2 1 -4 27 -5 57 -2 37 -9 63 -25 86
l-24 32 36 15 c19 8 40 15 46 15 29 0 73 34 87 68 18 45 32 62 47 62 7 0 38
-29 69 -64z m-265 17 c33 -28 30 -41 -18 -65 -34 -18 -46 -29 -48 -50 -5 -46
-62 -50 -62 -5 0 23 33 102 52 124 15 18 52 16 76 -4z m6443 -152 c51 -34 68
-37 131 -27 26 4 50 6 53 4 6 -3 7 -1259 1 -1266 -2 -2 -55 -6 -118 -9 -99 -4
-132 -1 -263 25 -82 17 -187 36 -232 42 -46 7 -83 14 -83 16 0 2 13 30 30 62
63 125 75 181 75 362 0 179 -15 263 -72 400 -28 66 -111 208 -142 242 -10 10
-24 30 -32 44 -12 23 -11 27 6 40 11 8 43 14 74 14 31 0 90 7 131 15 59 11 89
12 143 3 67 -11 67 -11 135 25 82 44 106 45 163 8z m-3841 -14 c8 -7 23 -41
33 -77 l17 -65 -28 -25 c-16 -14 -46 -38 -68 -54 -21 -17 -62 -54 -90 -83 -28
-29 -59 -53 -70 -53 -10 0 -75 -14 -144 -30 -68 -16 -126 -28 -128 -25 -2 2 9
12 25 22 127 82 262 215 370 366 33 46 49 51 83 24z m-2105 -6 c-22 -21 -75
-39 -75 -25 0 9 64 41 85 43 5 1 1 -8 -10 -18z m65 -28 c0 -39 40 -103 66
-103 27 0 14 -26 -25 -48 -46 -26 -100 -28 -144 -6 -55 28 -67 44 -67 90 0 42
1 43 38 49 51 9 82 22 88 40 4 8 15 15 25 15 15 0 19 -7 19 -37z m2740 2 c0
-24 28 -105 40 -115 16 -14 80 -99 99 -132 19 -34 57 -215 48 -224 -2 -3 -18
3 -34 13 -29 16 -32 16 -56 0 -14 -9 -35 -37 -48 -62 -12 -25 -35 -60 -50 -78
l-28 -32 36 89 c30 76 35 100 35 170 0 105 -27 179 -85 235 -102 100 -219 90
-320 -26 -104 -121 -231 -242 -242 -232 -13 14 16 68 66 125 32 36 67 84 79
106 32 62 98 127 139 137 20 5 74 15 121 21 47 7 108 18 135 25 58 14 65 12
65 -20z m1741 30 c26 -8 25 -59 -1 -85 -44 -44 -130 -8 -130 54 l0 33 56 2
c31 1 65 -1 75 -4z m-4363 -20 c42 -9 91 -21 109 -26 29 -9 31 -12 21 -34 -24
-54 -131 -70 -186 -28 -32 25 -56 67 -49 87 8 20 10 20 105 1z m4212 -15 c0
-42 39 -80 83 -80 18 0 37 -4 43 -10 6 -6 25 -4 54 6 33 12 66 15 128 11 66
-5 82 -3 82 8 0 20 -59 29 -141 22 -38 -3 -69 -2 -69 2 0 5 3 23 6 41 l7 32
61 -7 c157 -17 345 -113 469 -240 65 -66 125 -142 151 -192 16 -32 16 -33 -2
-33 -39 0 -68 -59 -58 -116 8 -40 46 -64 101 -64 28 0 35 -4 35 -20 0 -15 -7
-20 -27 -20 -16 0 -33 -4 -39 -8 -19 -13 -34 -50 -34 -86 0 -40 28 -66 71 -66
25 0 26 -1 18 -52 -35 -259 -184 -450 -457 -587 -46 -23 -99 -43 -119 -44 -34
-2 -37 1 -45 33 -18 68 -68 93 -114 58 -22 -18 -29 -19 -74 -8 -33 8 -81 10
-138 5 -76 -6 -93 -4 -137 15 -33 14 -61 20 -83 16 -33 -5 -92 -55 -105 -88
-9 -26 -25 -23 -128 22 -116 50 -167 80 -213 125 -39 38 -44 52 -21 61 22 9
-1 34 -31 34 -15 0 -22 5 -19 13 4 8 21 11 50 9 36 -3 45 -1 45 12 0 11 -13
18 -40 22 -50 8 -59 20 -22 29 15 3 42 18 60 31 37 28 41 60 14 94 -19 24 -46
28 -104 17 -35 -7 -38 -6 -38 15 0 15 11 29 30 40 80 45 50 149 -39 136 -35
-5 -41 5 -29 47 14 50 9 98 -13 134 -19 31 -20 39 -9 75 38 129 172 298 315
396 41 28 46 29 52 13 4 -10 14 -23 22 -30 19 -15 75 -17 100 -3 25 13 45 65
38 100 -5 23 -2 32 15 41 25 13 33 3 42 -51 9 -57 48 -90 107 -90 98 0 135 42
120 137 -10 63 -8 73 15 73 9 0 14 -11 14 -30z m-44 -37 c9 -73 -7 -103 -63
-122 -72 -26 -125 11 -139 96 -6 41 -6 42 32 53 42 12 118 27 146 29 13 1 18
-11 24 -56z m-2081 26 c22 -4 57 -8 78 -9 20 0 37 -3 37 -6 0 -4 -15 -23 -32
-44 -18 -21 -43 -55 -56 -76 -13 -22 -45 -63 -71 -91 -30 -33 -54 -70 -62 -98
-7 -25 -17 -45 -21 -45 -13 0 -10 15 18 87 47 126 48 139 17 277 -6 28 -5 29
23 21 16 -4 47 -11 69 -16z m-1878 -43 c26 -13 73 -32 103 -42 30 -9 57 -18
58 -20 2 -1 1 -16 -3 -33 -22 -100 -258 -112 -336 -17 -27 31 -24 51 9 54 44
3 76 20 97 52 11 17 21 30 22 30 1 0 23 -11 50 -24z m3673 -50 c0 -48 -24 -76
-65 -76 -28 0 -65 27 -65 49 0 11 19 27 53 44 72 36 77 35 77 -17z m-4297 -16
c53 -19 60 -19 87 -5 27 14 30 13 42 -3 7 -11 23 -24 36 -31 29 -15 28 -23 -8
-43 -28 -16 -30 -16 -40 2 -8 14 -17 18 -43 13 -66 -10 -177 42 -177 84 0 18
14 15 103 -17z m446 -71 c10 -10 38 -27 61 -39 63 -32 177 -25 237 14 23 15
44 34 47 42 11 30 26 2 26 -49 0 -132 -117 -185 -237 -109 -45 28 -51 40 -31
60 7 7 8 12 2 12 -6 0 -19 -9 -30 -21 -29 -32 -68 -49 -113 -49 -80 0 -133 38
-145 103 l-7 37 42 6 c27 5 52 18 73 39 l31 31 13 -30 c7 -17 21 -38 31 -47z
m2486 53 c56 -39 82 -82 95 -162 14 -81 7 -130 -28 -220 -44 -109 -61 -121
-347 -248 -217 -95 -303 -111 -416 -75 -49 16 -210 101 -233 124 -13 12 36 63
89 95 22 13 76 35 120 50 44 15 98 36 120 47 79 39 271 211 355 316 82 104
165 128 245 73z m-2684 -88 c7 -54 27 -81 75 -104 45 -22 89 -25 130 -10 33
13 39 8 25 -18 -18 -34 -101 -82 -140 -82 -89 0 -179 51 -206 117 -25 60 -20
75 38 110 28 18 57 31 62 29 6 -1 13 -20 16 -42z m2129 29 c0 -16 -54 -148
-63 -154 -12 -8 -97 19 -97 31 0 4 26 31 58 59 31 28 62 55 67 61 12 11 35 13
35 3z m-91 -202 c47 -14 86 -31 88 -37 5 -15 -96 -71 -162 -89 -72 -20 -150
-58 -188 -94 l-28 -26 -22 30 c-24 32 -46 110 -47 166 0 32 4 37 28 43 15 3
50 13 77 20 77 22 159 18 254 -13z m-379 -69 c0 -60 26 -150 50 -177 16 -18
17 -22 3 -34 -24 -22 -119 -9 -174 24 -77 47 -136 157 -96 182 17 11 168 51
195 52 20 1 22 -4 22 -47z m3629 -9 c5 -10 16 -42 24 -70 l16 -53 -40 0 c-54
0 -83 30 -76 77 3 19 11 41 18 49 16 19 46 18 58 -3z m-2326 -43 c27 -19 64
-34 102 -40 98 -18 216 -58 266 -91 42 -29 77 -33 119 -14 66 30 73 19 65 -85
-6 -76 -4 -94 10 -116 9 -14 23 -64 30 -112 8 -48 20 -111 26 -141 25 -112
-17 -235 -98 -291 -115 -79 -390 -81 -575 -5 -157 65 -242 117 -299 187 -65
78 -80 110 -86 186 -7 85 16 145 73 188 62 47 94 77 94 88 0 12 27 42 99 110
22 22 58 68 78 102 21 35 42 64 46 64 5 0 27 -13 50 -30z m-1898 -4 c50 0 117
4 149 8 l58 6 -26 -31 c-30 -35 -32 -61 -10 -115 17 -41 15 -199 -4 -283 -13
-56 -2 -85 40 -110 55 -33 58 -38 58 -104 0 -86 15 -132 52 -161 l32 -25 -28
-10 c-48 -19 -118 -12 -198 18 -187 72 -245 119 -273 221 -46 162 -87 281
-110 315 l-26 38 19 46 c21 49 46 127 57 175 l6 28 57 -8 c31 -5 98 -9 147 -8z
m321 -3 c13 -45 50 -106 77 -129 16 -14 27 -27 24 -30 -11 -11 -152 18 -184
38 -32 19 -42 49 -25 74 8 13 83 63 95 63 4 1 10 -7 13 -16z m3944 -208 l0
-65 -34 0 c-43 0 -60 21 -52 62 8 41 33 68 63 68 22 0 23 -3 23 -65z m-3751
-3 c95 1 112 -1 150 -22 27 -16 44 -33 47 -50 3 -14 10 -41 15 -60 33 -129
-31 -180 -229 -180 -164 0 -275 23 -287 59 -3 9 2 48 10 86 8 39 15 100 15
136 l0 65 85 -17 c53 -11 128 -17 194 -17z m1091 31 c0 -21 -42 -67 -94 -104
-57 -41 -59 -42 -86 -25 -28 16 -60 13 -60 -6 0 -5 14 -17 30 -26 21 -11 30
-24 28 -37 -3 -18 -9 -20 -60 -17 -53 4 -58 2 -58 -17 0 -19 6 -21 50 -21 28
0 50 -4 50 -10 0 -16 -379 -12 -482 4 -122 20 -141 31 -150 85 -4 25 -5 47 -3
49 3 3 26 -6 52 -20 59 -31 163 -58 227 -58 26 0 80 11 119 24 69 23 334 138
393 170 33 17 44 19 44 9z m-1906 -105 c19 -29 69 -172 91 -258 19 -74 54
-160 65 -160 9 0 45 -172 65 -310 37 -254 49 -303 81 -308 24 -3 33 7 110 113
53 75 82 125 148 266 22 45 35 60 67 74 21 10 44 24 50 32 6 7 29 13 51 13 41
0 88 34 88 65 0 19 13 19 52 -1 31 -16 84 -15 122 1 17 8 19 5 12 -25 -3 -19
-27 -76 -52 -128 -77 -161 -86 -227 -49 -372 8 -31 26 -119 40 -195 14 -77 29
-150 34 -162 11 -24 -4 -33 -96 -53 -29 -7 -65 -21 -79 -33 -25 -19 -26 -25
-21 -76 3 -31 9 -67 13 -80 6 -21 5 -23 -12 -17 -10 4 -26 9 -34 11 -8 2 -53
21 -100 43 -118 56 -232 89 -266 76 -42 -14 -65 -54 -71 -121 -10 -112 45
-213 142 -262 86 -43 195 -17 282 67 22 22 45 48 51 58 15 27 19 18 26 -67 6
-74 6 -76 -19 -87 -15 -7 -25 -20 -25 -32 0 -24 8 -25 38 -4 29 20 41 10 19
-14 -33 -36 -12 -59 24 -27 11 11 26 14 43 9 23 -6 25 -10 20 -43 -4 -28 -1
-42 16 -64 26 -32 62 -35 132 -10 44 15 49 15 65 1 10 -9 30 -21 46 -27 19 -8
27 -17 27 -36 0 -28 -16 -36 -165 -86 -49 -16 -113 -41 -142 -54 -51 -24 -140
-42 -321 -66 -144 -19 -437 -6 -587 25 -137 29 -353 101 -375 125 -3 4 -48 28
-100 55 -52 27 -131 73 -175 101 -44 28 -113 72 -152 98 -164 105 -275 206
-293 267 -34 112 -48 145 -82 188 -85 108 -139 195 -136 221 3 23 11 27 90 46
181 44 318 138 473 324 47 56 67 73 106 85 68 22 160 20 262 -7 l87 -24 0 21
c0 55 -85 174 -152 214 -16 9 -28 21 -28 27 0 11 36 43 130 114 81 62 142 146
235 326 90 173 101 185 129 143z m-1673 -47 c24 -17 82 -66 129 -110 77 -74
177 -140 211 -142 8 0 43 -15 79 -34 123 -66 175 -87 263 -110 l89 -22 -45
-26 -46 -25 -18 20 c-51 58 -179 76 -254 37 l-41 -20 -22 20 c-12 11 -54 34
-93 50 -75 31 -122 60 -233 144 -124 95 -150 128 -150 191 0 62 59 74 131 27z
m4559 10 c15 -30 12 -48 -12 -71 -12 -11 -24 -20 -28 -20 -5 0 -40 90 -40 104
0 3 16 6 35 6 24 0 37 -6 45 -19z m-1635 -141 c53 -7 166 -10 271 -8 l182 3 5
-55 c3 -30 5 -56 3 -57 -1 -2 -77 -6 -167 -9 -126 -5 -192 -3 -284 10 -205 28
-185 19 -185 85 0 32 3 60 6 64 3 3 22 0 43 -8 20 -7 77 -18 126 -25z m1709
-36 c30 -30 19 -62 -31 -88 -45 -23 -60 -20 -66 12 -3 15 -8 36 -12 48 -5 15
-1 23 17 31 34 17 74 15 92 -3z m-1970 -81 c12 -75 7 -122 -13 -133 -54 -28
-124 -4 -140 49 -24 79 -21 85 35 93 28 4 61 12 75 17 36 14 36 14 43 -26z
m-222 1 c4 -3 8 -43 8 -89 0 -78 -2 -86 -24 -100 -20 -13 -29 -14 -61 -3 -54
18 -72 50 -80 137 l-6 74 77 -7 c43 -4 81 -9 86 -12z m781 -30 c114 4 177 2
177 -4 0 -6 -9 -10 -20 -10 -30 0 -60 -56 -60 -112 l0 -48 -45 0 c-42 0 -44 1
-51 35 -9 52 -20 56 -119 47 -92 -7 -95 -9 -115 -64 -9 -26 -14 -28 -57 -27
-27 0 -73 6 -103 12 -51 11 -55 14 -58 42 -1 17 -7 56 -13 88 -5 31 -8 61 -5
65 2 4 69 0 148 -11 113 -15 180 -17 321 -13z m3202 -64 c39 -7 140 -25 225
-42 134 -26 168 -29 253 -23 54 3 104 8 112 12 13 4 15 -39 15 -315 l0 -319
-46 -6 c-31 -3 -101 -32 -208 -86 -130 -66 -178 -85 -246 -97 -105 -20 -180
-9 -249 35 l-46 30 50 22 c73 31 112 64 125 104 10 30 8 46 -10 104 -18 60
-20 83 -14 164 8 114 -1 138 -81 217 -68 67 -71 92 -19 168 25 38 40 52 52 48
9 -3 49 -10 87 -16z m-2972 -22 c13 -18 38 -47 55 -65 17 -17 29 -33 27 -35
-10 -10 -158 10 -166 23 -23 37 4 109 40 109 10 0 30 -15 44 -32z m-253 -47
c0 -9 7 -27 16 -40 14 -19 24 -22 63 -20 30 2 58 -3 79 -14 20 -11 66 -20 118
-24 74 -5 84 -8 84 -25 0 -20 -52 -47 -143 -72 -89 -25 -290 -36 -387 -21
-116 17 -252 53 -262 68 -6 10 -1 95 6 104 2 2 34 -4 72 -12 76 -16 123 -19
140 -7 7 4 19 24 27 45 16 36 17 37 69 38 29 0 62 4 73 8 23 10 45 -4 45 -28z
m-1950 -1 c0 -5 -4 -10 -8 -10 -5 0 -27 -16 -50 -36 l-42 -35 -93 7 c-66 4
-96 3 -101 -5 -10 -16 -36 -14 -36 4 0 8 -9 20 -20 27 -11 7 -20 16 -20 20 0
5 48 8 108 9 59 1 136 7 172 14 87 16 90 17 90 5z m864 -114 c43 -14 87 -26
98 -26 12 0 18 -5 15 -12 -69 -159 -185 -359 -231 -397 -31 -26 -34 -16 -82
312 -8 53 -18 116 -24 140 -20 87 -20 87 68 46 42 -20 112 -48 156 -63z m2455
69 c41 -60 169 -140 304 -190 44 -17 48 -20 42 -44 -8 -33 -32 -71 -46 -71
-35 0 -218 118 -313 202 l-50 44 13 47 c8 26 16 47 20 47 3 0 17 -16 30 -35z
m-4014 -29 c0 -47 4 -59 30 -86 16 -17 40 -33 52 -36 31 -8 29 -28 -6 -53 -55
-40 -175 -19 -230 40 -31 34 -26 53 19 73 38 17 115 94 104 105 -3 3 -16 -8
-29 -25 -27 -34 -58 -57 -92 -68 -21 -7 -23 -4 -23 28 0 49 43 76 120 76 l55
0 0 -54z m72 14 c12 -10 24 -28 28 -40 8 -25 32 -26 54 -2 25 29 69 54 81 47
26 -16 -2 -104 -39 -125 -72 -38 -180 23 -181 103 0 29 4 37 18 37 10 0 28 -9
39 -20z m224 0 c34 -19 49 -64 49 -148 0 -87 -3 -92 -61 -92 -37 0 -68 15 -91
44 -25 30 -22 43 12 61 34 17 51 51 56 105 1 19 3 36 3 38 2 5 13 2 32 -8z
m1885 -125 c13 -20 12 -46 -7 -231 -16 -155 -19 -234 -14 -304 13 -161 13
-165 -10 -165 -17 0 -22 15 -41 130 -12 72 -31 169 -43 216 -36 148 -28 201
55 377 l39 83 3 -42 c2 -23 10 -52 18 -64z m3474 95 c0 -5 27 -37 60 -70 33
-33 62 -71 66 -85 3 -13 4 -68 2 -121 l-3 -96 -43 -38 c-61 -55 -225 -130
-460 -211 -108 -37 -115 -38 -143 -23 l-30 15 27 32 c35 41 54 88 54 131 0 32
3 35 32 38 23 2 34 9 36 22 3 13 0 17 -9 14 -47 -18 -59 -19 -59 -5 0 7 16 18
37 23 20 5 39 15 41 23 4 11 -5 13 -46 7 -49 -6 -52 -6 -58 19 -3 14 -5 27 -3
28 2 1 37 18 78 37 41 19 101 52 135 72 34 21 64 38 67 38 7 0 20 -58 24 -102
1 -14 9 -38 19 -52 24 -37 86 -37 115 0 29 37 27 77 -8 116 -15 18 -31 49 -35
69 -6 34 -3 40 41 83 48 46 63 55 63 36z m-2486 -63 c134 -66 225 -89 366 -93
86 -2 115 -6 115 -16 0 -9 -18 -13 -62 -13 -72 0 -102 -21 -128 -90 -16 -42
-16 -42 -58 -35 -84 14 -301 98 -334 130 -17 16 -23 33 -23 65 0 51 10 107 19
103 3 -2 50 -25 105 -51z m-2635 34 c13 -9 7 -17 -110 -161 -15 -19 -30 -32
-32 -30 -2 3 -1 43 2 88 5 66 10 87 26 98 21 15 92 19 114 5z m3426 -51 c16
-16 27 -32 24 -34 -20 -19 -128 -66 -150 -66 -15 0 -51 -5 -79 -11 -28 -6 -54
-8 -57 -5 -11 11 16 56 33 56 32 0 116 35 147 62 41 35 47 34 82 -2z m-3283
-33 c29 -29 58 -60 63 -68 16 -22 38 -79 33 -84 -3 -3 -25 2 -49 12 -32 12
-76 17 -161 17 l-116 1 36 45 c91 113 107 130 123 130 10 0 41 -24 71 -53z
m3900 32 c45 -23 75 -25 183 -14 54 6 79 4 108 -8 38 -17 61 -14 86 10 24 25
43 9 61 -50 10 -32 29 -75 43 -95 38 -58 63 -112 76 -166 49 -199 -157 -299
-514 -251 -240 32 -307 78 -306 211 0 46 31 152 51 179 5 6 27 47 50 93 40 78
71 110 108 112 7 0 31 -9 54 -21z m921 4 c16 -59 17 -93 3 -93 -14 0 -40 86
-30 102 9 14 22 9 27 -9z m-5655 -62 c16 -16 47 -35 70 -42 35 -10 40 -15 32
-29 -26 -49 -150 -83 -150 -41 0 28 12 141 16 141 1 0 16 -13 32 -29z m3157
-3 c14 -64 41 -88 150 -133 17 -7 44 -18 60 -25 17 -7 73 -25 125 -40 l95 -28
3 -48 c4 -64 -13 -87 -63 -88 -45 -1 -62 -26 -18 -26 39 0 50 -13 45 -54 -4
-33 -6 -35 -53 -41 -64 -9 -107 6 -155 56 -77 80 -124 85 -165 19 -15 -24 -42
-48 -69 -62 -25 -12 -70 -42 -101 -65 -55 -43 -56 -43 -140 -43 -60 0 -91 -4
-106 -15 -21 -15 -23 -14 -28 12 -14 72 -42 134 -93 208 -76 111 -90 127 -96
116 -10 -15 15 -72 66 -154 53 -84 64 -108 77 -167 15 -65 -1 -67 -69 -6 -89
80 -149 85 -185 16 -18 -35 -53 -58 -60 -38 -2 7 -9 56 -15 108 -9 81 -7 119
10 250 11 85 20 176 20 202 0 26 4 49 9 53 5 3 67 -6 138 -21 115 -24 142 -26
268 -20 136 5 286 33 309 56 19 19 34 10 41 -22z m-2837 -6 c4 -27 56 -71 93
-79 35 -7 37 -26 6 -57 -49 -49 -161 -41 -218 17 -38 38 -38 63 2 72 17 4 45
22 62 40 36 37 50 39 55 7z m3882 -31 c5 -11 10 -34 10 -51 0 -28 43 -99 71
-120 4 -3 20 -30 35 -60 21 -41 28 -70 28 -112 1 -53 -2 -60 -35 -90 -39 -36
-135 -74 -209 -83 -25 -3 -94 -12 -154 -20 l-108 -16 -120 48 -120 48 5 56 c3
31 12 70 21 87 10 19 16 57 16 99 0 51 6 79 24 113 l23 45 57 -2 c32 -1 64 -7
71 -13 9 -8 15 -8 20 0 3 5 13 10 21 10 16 0 20 -45 4 -55 -5 -3 -10 -12 -10
-18 1 -20 40 34 40 54 0 30 17 22 23 -10 12 -59 81 -48 93 14 3 19 11 35 18
35 6 0 38 13 71 29 72 35 91 37 105 12z m-4045 -50 c6 -29 29 -54 78 -84 24
-16 26 -20 16 -40 -31 -58 -104 -93 -174 -83 -113 17 -190 146 -87 146 40 0
117 45 129 75 9 25 31 17 38 -14z m4163 -4 c31 -18 74 -41 95 -50 20 -10 37
-24 37 -31 0 -26 -22 -76 -33 -76 -7 0 -21 -3 -33 -6 -16 -4 -24 1 -33 24 -7
17 -24 41 -38 54 -37 34 -77 118 -57 118 3 0 31 -15 62 -33z m1402 8 c7 -9 10
-25 6 -41 -5 -20 -12 -25 -34 -22 -19 2 -28 9 -30 26 -6 43 33 68 58 37z
m-5225 -20 c-3 -14 -7 -35 -10 -47 -2 -13 -27 -45 -55 -73 l-51 -50 -20 24
c-28 35 -24 48 25 70 30 13 50 30 62 53 26 51 58 66 49 23z m3505 10 c0 -23
-27 -55 -46 -55 -23 0 -41 31 -29 50 6 10 75 15 75 5z m-3696 -101 c9 -3 16
-12 16 -19 0 -7 9 -24 20 -38 11 -14 20 -32 20 -40 0 -15 -74 -81 -127 -112
-33 -19 -34 -19 -70 0 -38 21 -59 54 -50 78 3 8 21 17 41 21 41 8 90 46 112
87 16 32 16 32 38 23z m-279 -104 c43 0 -17 -66 -66 -73 -59 -9 -65 1 -43 76
l18 65 38 -34 c21 -19 45 -34 53 -34z m5945 -47 c0 -23 -45 -83 -63 -83 -7 0
-39 -15 -73 -33 -203 -108 -250 -129 -329 -147 -47 -11 -103 -20 -124 -20 -38
0 -39 1 -43 41 -4 48 -11 43 137 94 178 60 388 155 440 199 l30 25 12 -27 c7
-15 12 -37 13 -49z m-1550 47 c0 -5 -9 -10 -20 -10 -11 0 -20 5 -20 10 0 6 9
10 20 10 11 0 20 -4 20 -10z m-4330 -35 c0 -28 22 -61 52 -78 38 -22 32 -29
-49 -56 -82 -28 -119 -27 -137 2 -24 37 -24 71 -1 75 42 7 73 24 85 48 14 26
50 33 50 9z m4340 -26 c0 -20 34 -84 54 -103 53 -48 206 -93 353 -103 46 -3
83 -9 83 -13 0 -4 -13 -13 -30 -20 -16 -7 -35 -18 -41 -26 -16 -19 -36 -18
-136 12 -71 21 -117 27 -238 31 -168 6 -277 -8 -416 -53 -81 -26 -139 -26
-139 0 0 9 37 17 118 26 229 25 352 98 352 211 0 42 3 49 20 49 11 0 20 -5 20
-11z m-4508 -73 c5 -22 13 -46 20 -53 6 -7 9 -15 7 -16 -57 -44 -70 -49 -100
-37 -52 22 -54 42 -7 99 23 29 49 50 57 49 9 -2 19 -20 23 -42z m3382 -20 c40
-43 92 -76 118 -76 10 0 12 -20 10 -82 -2 -46 4 -137 12 -203 9 -65 16 -129
16 -141 0 -77 -262 -204 -421 -204 -70 0 -128 20 -165 58 -40 41 -41 55 -13
102 26 42 36 142 20 192 -12 38 -80 118 -99 118 -17 0 -15 36 3 54 13 12 31
14 94 9 54 -4 80 -2 85 6 12 19 26 12 26 -13 0 -34 45 -85 60 -69 17 16 -6 82
-32 92 -19 7 -18 10 18 40 22 17 49 34 62 37 12 4 22 10 22 14 0 4 11 11 25
14 15 4 40 26 57 51 18 25 38 45 47 45 8 0 33 -20 55 -44z m3327 -81 c-2 -90
-4 -102 -24 -117 -35 -28 -42 -22 -43 35 -1 30 -11 74 -23 101 -11 27 -21 50
-21 51 0 8 87 34 104 31 5 -1 8 -47 7 -101z m-102 0 c23 -62 28 -147 9 -163
-20 -16 -152 -82 -164 -82 -8 0 -13 29 -15 84 -3 65 -8 89 -23 105 -11 12 -17
23 -15 25 19 19 148 86 166 86 17 0 26 -11 42 -55z m-6723 0 c14 -14 36 -25
50 -25 34 0 39 -21 15 -61 -12 -19 -21 -49 -21 -66 0 -29 -3 -33 -27 -33 -46
0 -110 30 -122 56 -21 46 -13 74 30 115 23 22 43 39 46 39 2 0 15 -11 29 -25z
m3860 -35 c106 -44 244 -112 244 -120 0 -3 -19 -16 -42 -29 l-43 -23 -55 22
c-118 47 -129 50 -154 40 -35 -13 -39 -41 -22 -149 9 -51 12 -99 8 -105 -4 -6
-23 -33 -42 -59 -33 -45 -35 -47 -42 -25 -14 47 -50 390 -45 424 13 78 51 82
193 24z m-4186 -5 c73 -18 119 -25 150 -21 l45 6 0 -41 c0 -32 6 -46 28 -65
33 -28 99 -47 136 -39 19 4 32 1 40 -9 10 -12 6 -18 -26 -34 -21 -11 -64 -43
-96 -71 -52 -46 -63 -51 -104 -51 -60 0 -93 28 -93 79 0 29 9 43 50 83 28 26
50 53 50 58 0 17 -40 11 -71 -10 -33 -24 -142 -50 -210 -50 -60 0 -163 32
-212 65 -32 23 -38 31 -35 58 2 23 13 38 38 55 32 22 42 24 120 19 47 -3 132
-17 190 -32z m5804 19 c10 -26 6 -113 -9 -219 -8 -55 -15 -121 -15 -147 0 -55
-7 -59 -35 -20 -17 23 -20 43 -20 138 0 127 -7 144 -63 144 -25 0 -52 -11 -89
-37 l-54 -37 -59 30 c-32 16 -59 34 -60 39 0 16 140 78 250 110 66 19 146 19
154 -1z m550 -9 c9 -9 36 -25 61 -36 43 -19 45 -22 44 -62 0 -23 -6 -58 -12
-77 -16 -44 -43 -44 -90 0 -30 28 -32 35 -35 110 -4 82 2 95 32 65z m-71 -87
c4 -51 9 -103 13 -115 5 -17 0 -25 -23 -36 -42 -21 -100 -30 -109 -16 -4 7
-14 51 -23 98 l-17 86 71 37 c38 20 73 37 76 38 3 0 9 -42 12 -92z m-3185 38
c26 -24 79 -60 117 -80 117 -60 151 -103 149 -190 -1 -66 -33 -128 -86 -166
-23 -17 -120 -69 -217 -117 -174 -86 -177 -87 -252 -87 -63 -1 -81 3 -99 19
-46 41 -61 90 -70 224 -4 69 -13 141 -20 159 -19 51 2 74 87 94 64 15 123 15
123 -1 0 -3 3 -16 6 -28 9 -32 -14 -30 -26 2 -14 36 -21 31 -8 -6 15 -43 44
-35 41 11 -1 19 -6 36 -12 38 -23 8 -10 29 30 50 48 26 60 27 53 7 -4 -8 1
-26 10 -40 18 -28 56 -34 56 -9 0 24 -19 54 -35 54 -24 0 -17 19 14 46 17 14
33 34 36 44 11 34 51 24 103 -24z m3751 -8 c7 -24 11 -70 9 -103 -3 -53 -6
-61 -29 -72 -15 -7 -53 -16 -86 -19 l-59 -6 1 102 1 103 47 12 c26 7 50 15 54
18 3 4 16 7 28 7 18 0 25 -9 34 -42z m-6374 -119 c-11 -16 -44 -10 -65 13 -22
24 -25 53 -9 94 l10 28 35 -63 c19 -34 32 -66 29 -72z m4678 101 c113 -23 298
-91 327 -120 3 -3 18 -12 34 -20 52 -26 189 -171 232 -245 50 -86 70 -139 85
-229 30 -179 -37 -389 -171 -538 -220 -243 -557 -360 -905 -314 -272 36 -481
147 -622 329 -147 191 -177 446 -76 657 87 180 255 334 448 410 33 13 65 26
70 30 6 4 30 12 55 19 162 44 373 52 523 21z m1517 -54 c0 -35 -5 -77 -11 -95
-10 -27 -15 -31 -48 -31 -21 0 -64 5 -95 12 -51 10 -57 13 -52 32 3 12 9 50
12 86 l6 65 94 -3 94 -3 0 -63z m-3113 33 c8 -16 9 -25 2 -28 -12 -4 -38 28
-39 47 0 21 23 8 37 -19z m2537 -6 c3 -16 13 -73 21 -128 16 -99 47 -286 66
-397 8 -47 7 -63 -6 -88 -9 -18 -15 -48 -13 -68 2 -30 -1 -37 -17 -40 -11 -2
-26 -9 -33 -15 -20 -16 -27 -1 -52 102 -23 97 -41 137 -128 281 -69 113 -96
196 -88 265 9 80 13 85 60 85 22 1 70 7 106 14 36 8 68 14 72 15 3 0 9 -11 12
-26z m-400 -18 c17 -13 18 -23 12 -97 -4 -45 -9 -84 -11 -86 -2 -2 -33 21 -69
51 -35 30 -70 57 -77 59 -18 6 -5 22 48 57 51 34 69 37 97 16z m-2730 -28 c6
-9 7 -19 3 -23 -9 -9 -37 15 -37 33 0 18 20 12 34 -10z m4186 -677 c0 -385 -2
-700 -5 -700 -2 0 -37 13 -77 29 -92 36 -179 88 -243 144 l-49 44 12 40 c22
74 14 112 -36 165 l-25 28 32 30 c38 37 51 67 51 120 0 50 -45 97 -99 106
l-38 6 -5 62 c-10 115 -81 186 -186 186 -56 0 -49 -13 -77 141 -7 42 -20 91
-28 110 -7 19 -17 47 -21 62 l-7 28 38 -19 c87 -43 154 -57 273 -57 122 0 183
13 294 61 53 24 113 59 143 84 7 5 17 10 23 10 5 0 10 5 10 10 0 6 5 10 10 10
7 0 10 -240 10 -700z m-2903 663 c32 -15 60 -29 63 -31 2 -2 -11 -15 -30 -30
-18 -15 -55 -46 -81 -70 -26 -24 -50 -39 -53 -34 -10 17 -29 161 -22 177 8 23
59 18 123 -12z m2092 -177 c21 -75 21 -79 4 -92 -23 -17 -70 -26 -114 -22 -32
3 -35 6 -46 53 -6 28 -12 65 -12 82 -1 28 3 33 27 38 15 3 43 14 62 24 46 23
53 16 79 -83z m-4086 78 c28 -6 38 -24 13 -24 -8 0 -27 -16 -42 -35 -20 -27
-26 -46 -26 -85 0 -108 94 -168 196 -125 51 21 78 68 74 128 -2 26 -1 47 2 47
3 0 27 -8 53 -17 58 -21 67 -44 38 -101 -40 -79 -134 -136 -226 -136 -81 -1
-141 39 -180 119 -24 48 -27 64 -23 126 3 63 7 74 32 96 15 13 35 22 44 19 10
-3 29 -8 45 -12z m130 -48 c58 -25 67 -40 67 -109 0 -31 -7 -46 -35 -74 -33
-33 -39 -35 -86 -31 -56 6 -91 32 -108 80 -9 27 -9 29 7 23 40 -17 51 -16 72
5 29 29 24 80 -9 96 -22 11 -22 12 -5 23 27 15 37 14 97 -13z m-85 -54 c7 -45
-38 -70 -58 -32 -8 14 -7 25 2 40 17 27 52 22 56 -8z m3601 -174 c-38 -32 -56
-23 -68 32 -12 56 -15 143 -5 153 4 4 26 -33 50 -81 l44 -87 -21 -17z m480 15
c13 -75 12 -78 -8 -95 -23 -17 -94 -33 -127 -26 -15 2 -22 18 -31 68 -19 102
-20 100 35 100 26 1 58 7 72 15 14 8 30 14 36 15 5 0 16 -35 23 -77z m-2379
-8 c0 -84 -19 -98 -39 -30 -12 41 -12 48 4 65 24 27 35 16 35 -35z m-659 -37
c7 -27 8 -56 3 -77 -10 -37 -34 -55 -34 -25 0 9 -8 42 -17 71 -15 47 -15 56
-3 64 28 17 39 9 51 -33z m613 -31 c22 -74 18 -86 -28 -90 -25 -2 -30 4 -51
60 l-24 62 32 20 c18 11 37 19 42 18 6 -2 19 -34 29 -70z m1998 23 c7 -16 16
-30 19 -30 3 0 14 -26 24 -57 l18 -57 -38 -33 c-23 -19 -49 -33 -65 -33 -25 0
-27 3 -29 52 -1 28 -6 74 -12 102 -5 29 -6 52 -1 54 5 1 18 9 28 17 28 22 41
18 56 -15z m-2676 -35 c30 -105 31 -103 -22 -125 -26 -11 -49 -19 -51 -17 -7
8 -43 116 -43 131 0 18 59 55 85 53 13 -1 23 -14 31 -42z m582 -20 c27 -56 28
-75 3 -75 -39 0 -71 20 -90 57 l-19 38 27 12 c45 20 56 15 79 -32z m-378 -31
c0 -12 2 -29 6 -37 4 -11 -6 -16 -38 -20 -59 -8 -70 5 -57 64 l10 47 40 -16
c29 -11 39 -21 39 -38z m3080 27 c54 -37 83 -134 60 -197 -15 -38 -1 -49 43
-35 58 20 107 -14 107 -72 0 -36 -37 -85 -75 -101 -19 -8 -35 -20 -35 -26 0
-7 20 -31 45 -56 38 -37 45 -49 45 -82 0 -49 -28 -86 -76 -102 -49 -16 -92 -6
-132 33 -27 26 -34 29 -42 17 -5 -8 -10 -29 -10 -47 0 -101 -70 -145 -131 -83
-28 28 -30 35 -28 92 3 73 -11 84 -60 49 -16 -12 -39 -21 -51 -21 -28 0 -80
52 -80 80 0 33 27 87 49 100 31 16 26 29 -23 49 -58 25 -86 57 -86 98 0 40 31
63 95 71 54 6 62 15 41 47 -36 55 -8 115 54 115 35 0 90 -36 90 -59 0 -22 25
-45 40 -36 5 3 10 29 10 57 0 116 68 165 150 109z m-3401 -42 c6 -28 16 -59
21 -69 9 -16 5 -22 -20 -35 l-30 -16 -21 48 c-11 26 -23 62 -26 78 -4 26 -1
32 24 41 15 6 31 9 35 7 3 -2 11 -26 17 -54z m598 22 l20 -39 -34 -4 c-27 -3
-39 1 -54 20 -26 34 -24 50 9 55 15 2 30 5 33 6 4 0 16 -17 26 -38z m-157 5
c0 -22 -30 -47 -53 -44 -44 7 -23 51 26 56 18 1 27 -3 27 -12z m2771 -25 c-14
-24 -18 -25 -51 -6 -24 13 -24 14 -5 20 11 4 27 10 35 15 22 12 34 -5 21 -29z
m-3296 -24 c4 -17 14 -47 22 -65 18 -38 17 -40 -25 -48 -29 -6 -32 -4 -62 56
-17 34 -30 64 -28 66 10 9 74 32 80 28 3 -2 10 -19 13 -37z m575 -2 c0 -8 -7
-15 -15 -15 -16 0 -20 12 -8 23 11 12 23 8 23 -8z m-657 -54 c32 -58 33 -61 8
-61 -33 0 -50 11 -72 47 -22 35 -22 36 -4 49 29 22 38 17 68 -35z m371 -5 c8
-34 -2 -54 -35 -71 -39 -21 -46 -19 -64 14 -15 30 -15 30 28 54 54 32 64 32
71 3z m587 -36 c-2 -42 -12 -70 -46 -129 -60 -103 -91 -205 -106 -336 -18
-169 -8 -248 51 -405 15 -41 38 -106 50 -145 12 -38 31 -85 41 -104 11 -18 18
-35 16 -37 -10 -10 -161 -25 -308 -31 l-165 -6 -23 59 c-38 100 -51 190 -58
401 -7 225 0 269 60 433 40 111 66 151 149 232 102 100 138 118 231 116 43 0
80 2 84 6 17 17 27 -5 24 -54z m-1081 36 c0 -14 -57 -46 -83 -46 -28 0 -47 12
-47 29 0 27 9 31 72 31 43 0 58 -4 58 -14z m806 -19 c-37 -22 -139 -127 -172
-177 -33 -50 -99 -234 -114 -317 -15 -81 -9 -407 9 -509 10 -54 34 -136 56
-188 8 -18 4 -19 -106 -12 -63 4 -141 11 -174 16 -33 6 -86 13 -118 16 -54 6
-61 10 -82 44 -57 90 -100 329 -92 505 6 137 27 201 105 315 48 71 63 85 88
88 82 8 110 43 100 120 -5 40 -3 51 10 56 26 10 34 7 46 -18 33 -73 154 -45
177 40 9 36 34 41 187 40 l111 -1 -31 -18z m2354 -17 c11 -40 11 -51 7 -145
-2 -42 -7 -52 -27 -62 -49 -26 -60 -15 -90 87 -16 52 -26 98 -24 102 3 4 13 8
23 8 9 0 32 11 51 25 19 14 37 25 42 25 4 0 12 -18 18 -40z m-2898 -89 c6 -39
-7 -61 -36 -61 -26 0 -52 25 -58 54 -2 14 4 22 22 27 53 15 67 11 72 -20z
m2788 -149 c17 -56 35 -138 40 -180 5 -43 14 -90 21 -105 15 -34 9 -40 -26
-27 -92 35 -206 -72 -177 -166 10 -34 9 -36 -29 -61 -22 -14 -40 -24 -42 -22
-31 55 -80 170 -84 198 -6 47 5 68 74 146 29 33 69 86 88 119 37 62 85 183 86
219 0 21 1 21 9 2 4 -11 22 -66 40 -123z m-5722 84 c12 -11 26 -34 30 -50 11
-40 52 -51 52 -13 0 40 64 87 120 87 73 0 120 -55 120 -139 0 -31 7 -46 31
-70 17 -17 38 -31 47 -31 32 0 118 -47 145 -79 26 -32 35 -78 21 -115 -10 -25
-74 -60 -134 -72 -40 -8 -56 -16 -58 -29 -2 -9 2 -21 9 -26 8 -5 15 -34 17
-77 5 -80 -17 -136 -67 -171 -55 -39 -139 -25 -179 31 -20 28 -34 21 -67 -30
-63 -99 -182 -143 -234 -88 -31 33 -40 129 -17 174 26 51 5 66 -50 37 -39 -20
-77 -19 -127 5 -61 29 -73 40 -107 104 -54 104 -35 196 54 251 44 27 58 30
127 30 42 0 80 3 84 6 3 4 -3 31 -15 60 -44 118 -9 217 87 237 42 9 75 0 111
-32z m3765 0 c8 -52 51 -165 85 -220 13 -21 20 -41 15 -45 -4 -4 -37 -13 -72
-20 -69 -13 -141 -45 -141 -62 0 -20 29 -20 88 0 84 27 168 37 187 21 23 -19
19 -24 -43 -53 -78 -37 -120 -72 -106 -87 12 -12 68 11 125 51 49 35 75 34
118 -2 85 -73 304 -181 399 -196 17 -3 32 -9 32 -12 0 -4 -18 -17 -39 -29 -22
-13 -54 -41 -73 -63 -62 -77 -93 -99 -233 -168 -157 -77 -230 -104 -288 -105
-45 -1 -60 17 -90 109 -9 28 -25 77 -36 110 -11 33 -32 92 -48 130 -25 64 -27
81 -27 205 -1 180 24 287 97 428 15 28 31 52 36 52 4 0 11 -20 14 -44z m-937
-20 c3 -8 -17 -45 -44 -83 -71 -98 -109 -185 -123 -285 -21 -142 24 -446 82
-560 24 -47 18 -58 -18 -38 -73 42 -103 121 -121 328 -22 244 26 434 146 585
56 69 69 78 78 53z m-1857 -30 c68 -21 103 -26 190 -26 83 0 118 -4 161 -21
68 -26 75 -30 62 -38 -19 -12 -63 -121 -78 -193 -21 -100 -15 -237 14 -301 22
-50 58 -73 99 -62 34 8 90 90 114 164 25 81 37 273 20 322 -6 18 -9 34 -6 37
2 3 32 -1 65 -7 50 -10 68 -20 103 -54 26 -26 59 -47 87 -56 97 -28 140 -67
140 -126 0 -32 -33 -65 -63 -65 -45 0 -197 56 -197 72 0 5 -9 8 -19 8 -21 0
-31 -18 -31 -58 0 -15 -11 -67 -25 -117 -29 -105 -31 -162 -9 -265 19 -89 15
-241 -7 -263 -43 -43 -110 -50 -133 -14 -8 12 -19 70 -24 133 -11 117 -26 157
-64 167 -32 9 -61 -8 -103 -59 -98 -120 -179 -184 -232 -184 -37 0 -56 40 -43
88 11 45 70 136 126 197 68 74 83 106 93 191 17 136 22 268 13 299 -7 26 -13
30 -48 33 -129 8 -285 45 -344 81 -100 61 -90 160 15 148 22 -3 78 -17 124
-31z m1705 -43 c-32 -48 -66 -122 -88 -194 -16 -49 -25 -61 -79 -100 -114 -83
-245 -226 -312 -341 -50 -85 -83 -128 -100 -128 -7 0 -15 -5 -17 -10 -6 -19
-85 -16 -107 4 -52 47 -52 154 -1 257 18 35 35 66 39 69 3 3 18 21 33 41 50
68 212 211 307 273 25 16 50 33 55 38 33 26 89 57 151 82 39 15 79 32 90 36
11 5 28 9 37 9 15 1 14 -4 -8 -36z m3241 -18 c17 -10 17 -13 3 -45 -26 -57
-27 -67 -17 -104 19 -68 75 -104 145 -93 24 4 34 2 34 -7 0 -8 3 -28 6 -45 6
-30 5 -31 -28 -31 -27 0 -38 6 -48 26 -22 40 -84 67 -141 62 -57 -6 -55 -9
-69 109 -6 47 -15 94 -20 104 -17 31 -11 44 28 60 35 15 38 14 63 -5 15 -12
34 -26 44 -31z m-4441 -36 c38 -9 43 -14 55 -56 22 -73 10 -251 -23 -338 -28
-74 -75 -135 -104 -135 -33 0 -61 31 -77 82 -33 114 -8 319 52 414 30 48 34
49 97 33z m5133 -351 c-11 -46 -74 -118 -103 -118 -33 0 -104 120 -104 175 0
21 7 25 60 36 33 6 63 16 66 21 4 6 25 -9 49 -32 41 -41 42 -43 32 -82z m-649
80 c8 -7 21 -28 29 -45 14 -34 31 -41 50 -22 19 19 66 6 82 -22 18 -32 9 -68
-25 -102 -33 -34 -27 -51 19 -52 50 -2 67 -20 67 -68 0 -33 -6 -46 -35 -74
-19 -18 -48 -36 -65 -39 -36 -8 -37 -13 -5 -60 46 -67 29 -125 -47 -165 -53
-27 -79 -24 -137 16 -58 40 -82 43 -120 16 -41 -29 -74 -34 -114 -18 -46 20
-71 58 -63 97 3 16 9 43 12 60 5 25 3 31 -20 40 -32 12 -66 65 -66 103 0 56
48 107 101 107 28 0 35 27 15 60 -31 54 -16 107 40 136 34 18 54 18 94 -3 32
-16 34 -15 52 7 10 12 18 28 18 35 0 27 83 22 118 -7z m396 26 c11 -4 16 -19
16 -43 0 -20 12 -81 26 -136 43 -163 55 -251 55 -405 0 -155 -5 -190 -52 -342
-20 -66 -35 -98 -44 -98 -8 0 -15 1 -15 3 0 1 9 47 19 102 27 137 45 355 37
442 -8 83 -29 196 -50 268 -15 51 -21 110 -18 178 2 40 2 40 26 31z m-1033
-140 c-41 -82 -44 -86 -69 -79 -15 4 -59 9 -97 12 -123 8 -239 -54 -291 -154
-24 -48 -26 -59 -19 -118 6 -58 5 -65 -11 -65 -10 0 -32 -5 -51 -12 -41 -15
-47 -9 -28 28 34 67 9 191 -50 246 l-27 26 93 7 c179 13 391 83 533 173 27 18
52 30 54 27 3 -3 -14 -44 -37 -91z m1399 7 c3 -4 31 -18 63 -33 l57 -28 0 -50
c0 -59 -19 -110 -54 -145 l-25 -25 -72 37 c-39 21 -93 58 -120 82 l-50 44 23
15 c40 28 66 66 88 125 l10 29 38 -23 c20 -13 39 -25 42 -28z m-1291 -66 c80
-155 38 -304 -99 -363 -116 -49 -313 -45 -386 8 -78 58 -73 163 13 238 94 83
230 88 373 15 14 -7 33 -13 43 -13 30 0 18 30 -18 46 -33 14 -45 36 -26 48 5
3 18 26 30 51 12 25 25 44 29 41 4 -2 23 -34 41 -71z m1493 -22 l27 -5 3 -124
c3 -112 1 -124 -14 -124 -25 0 -148 41 -148 50 0 3 8 15 18 26 28 30 52 100
52 150 0 40 2 45 18 39 9 -3 29 -9 44 -12z m-2294 -63 c67 -29 96 -77 97 -156
0 -50 -4 -66 -26 -95 -31 -41 -101 -81 -183 -104 -88 -26 -124 -21 -398 55
-21 6 -38 14 -38 19 0 4 45 30 100 56 87 43 108 58 172 128 40 44 86 88 103
98 40 25 114 24 173 -1z m-4695 -412 c2 -123 0 -138 -15 -138 -23 0 -32 46
-31 162 2 103 6 121 29 116 12 -2 15 -29 17 -140z m-478 100 c36 -28 55 -76
55 -137 0 -85 13 -95 85 -66 20 9 45 13 55 10 35 -11 60 -54 60 -104 0 -77 6
-79 101 -32 76 37 92 42 161 42 90 1 146 -20 166 -63 7 -16 16 -28 20 -28 4 0
24 18 46 40 35 36 44 40 88 40 100 0 220 -87 234 -169 3 -20 7 -42 9 -48 7
-22 33 -14 47 14 18 37 55 55 98 47 67 -11 110 -75 110 -162 l0 -49 -52 -7
c-29 -3 -369 -6 -755 -6 l-703 0 0 313 c0 350 -2 340 71 371 47 21 72 19 104
-6z m4406 -72 c26 -56 -49 -96 -180 -96 -43 0 -71 7 -111 28 -30 15 -56 32
-57 38 -3 8 25 14 81 19 47 4 120 13 163 20 43 7 81 13 86 14 4 1 12 -10 18
-23z m-886 -1 c177 -20 291 -42 323 -63 82 -54 42 -162 -60 -162 -39 0 -157
27 -172 39 -14 11 -137 61 -236 96 -83 29 -100 40 -100 64 0 46 33 49 245 26z
m2880 -25 c3 -6 7 -61 9 -123 2 -86 8 -125 24 -167 12 -30 22 -58 22 -62 0 -5
-16 -8 -35 -8 -31 0 -35 3 -44 38 -21 78 -23 127 -11 228 12 97 20 118 35 94z"/>
<path d="M1323 10084 c-84 -31 -163 -135 -163 -214 l0 -40 -104 0 c-275 0
-460 -101 -460 -251 0 -34 7 -57 24 -83 31 -44 129 -103 188 -112 66 -10 189
2 257 26 108 37 122 36 193 -10 187 -122 359 -98 432 61 31 66 37 71 130 105
151 56 219 175 179 318 -13 46 -79 120 -131 147 -53 27 -123 25 -183 -6 -27
-13 -52 -21 -55 -17 -46 67 -83 85 -185 89 -54 2 -94 -2 -122 -13z m232 -27
c38 -19 70 -47 77 -68 2 -5 23 1 47 13 98 48 193 31 256 -47 39 -49 53 -89 54
-150 1 -103 -68 -183 -192 -224 -70 -24 -92 -43 -126 -111 -13 -25 -34 -57
-48 -72 -27 -29 -99 -58 -142 -58 -53 0 -133 30 -203 74 -85 55 -113 57 -219
20 -155 -55 -293 -40 -386 41 -60 53 -71 95 -43 161 46 107 212 173 436 174
l112 0 4 60 c3 46 11 70 34 102 73 104 225 142 339 85z"/>
<path d="M5618 9440 c-9 -6 -20 -24 -23 -42 -6 -26 -3 -35 15 -50 21 -17 21
-18 6 -90 -9 -40 -17 -93 -18 -117 -4 -53 -21 -63 -41 -24 -21 40 -65 82 -112
105 -50 25 -45 20 -51 54 -8 43 -32 64 -74 64 -44 0 -60 -14 -60 -55 0 -46 19
-66 60 -65 104 5 107 4 150 -28 33 -24 90 -98 90 -117 0 -3 -88 1 -185 10 -78
7 -82 7 -112 -19 -50 -42 -51 -74 -7 -164 35 -72 38 -85 44 -192 6 -121 20
-162 72 -221 37 -42 116 -87 174 -100 30 -7 54 -16 54 -21 0 -4 -4 -8 -10 -8
-5 0 -10 -13 -10 -30 0 -53 60 -73 134 -44 16 6 18 4 12 -12 -4 -10 -10 -57
-12 -103 -4 -94 4 -110 62 -111 23 0 34 -6 42 -25 13 -28 50 -46 79 -39 15 4
27 -8 55 -53 74 -120 138 -172 238 -195 46 -11 53 -16 67 -50 8 -21 23 -43 32
-48 29 -15 282 -16 309 -1 15 8 12 12 -20 25 -25 11 -48 33 -73 70 -20 30 -47
62 -61 71 -34 22 -108 22 -141 0 -57 -37 -200 24 -274 117 -44 56 -46 64 -21
72 28 9 46 50 39 89 -5 32 -3 34 30 43 21 5 45 21 57 37 l21 28 -21 37 c-11
20 -29 53 -39 72 -40 77 -41 72 10 84 49 12 75 34 75 64 -1 37 -22 61 -64 73
l-36 10 30 26 c17 14 43 49 58 77 23 44 27 63 27 136 0 73 -4 93 -28 143 -17
33 -44 69 -65 85 -89 66 -107 92 -131 184 -18 70 -29 93 -53 113 -44 37 -88
34 -127 -10 -17 -20 -31 -40 -31 -46 0 -6 -19 -39 -42 -74 -32 -49 -47 -64
-70 -67 -20 -3 -32 0 -35 9 -14 37 29 223 52 223 18 0 45 34 45 58 0 42 -51
66 -92 42z m60 -12 c32 -32 -4 -87 -48 -73 -38 12 -20 85 20 85 9 0 21 -5 28
-12z m-318 -120 c24 -26 25 -36 3 -60 -32 -36 -93 -13 -93 36 0 48 54 62 90
24z m534 -13 c24 -16 42 -57 70 -157 15 -51 24 -63 90 -120 91 -78 119 -131
120 -228 0 -95 -17 -143 -72 -199 -62 -64 -122 -102 -207 -134 -232 -85 -389
-73 -498 39 -60 62 -71 95 -77 229 -5 115 -6 122 -39 175 -44 69 -47 122 -11
151 22 17 36 20 111 16 105 -5 119 -12 84 -39 -14 -10 -25 -26 -25 -34 0 -10
-6 -13 -17 -10 -53 15 -69 16 -88 2 -16 -12 -18 -19 -10 -42 6 -16 22 -35 36
-43 23 -13 28 -12 52 5 15 10 29 27 32 37 7 18 40 23 50 7 9 -15 41 -12 55 5
7 8 25 15 40 15 15 0 33 7 40 15 7 8 21 15 31 15 10 0 21 5 25 11 3 6 18 9 32
6 19 -4 33 3 54 23 15 16 28 35 28 44 0 23 -30 47 -51 41 -27 -9 -24 6 16 85
48 94 81 116 129 85z m-170 -192 c5 -12 9 -14 18 -5 33 33 51 -5 22 -46 -21
-30 -39 -28 -64 8 -18 25 -19 34 -10 45 16 19 26 19 34 -2z m-58 -29 c-3 -7 2
-17 11 -22 23 -13 7 -32 -28 -32 -18 0 -29 -5 -29 -14 0 -23 -41 -31 -56 -11
-15 20 -8 45 13 45 10 0 13 6 9 17 -8 21 5 29 50 30 26 1 34 -2 30 -13z m-120
-61 c-2 -41 -6 -48 -24 -51 -12 -2 -22 1 -22 7 0 6 -9 11 -21 11 -28 0 -21 34
9 38 14 2 22 10 22 23 0 12 7 19 19 19 16 0 18 -7 17 -47z m-107 -48 c8 -9
-42 -55 -60 -55 -10 0 -25 10 -33 22 -23 33 -3 52 48 43 22 -3 42 -8 45 -10z
m699 -461 c13 -9 22 -26 22 -40 0 -20 -9 -29 -42 -44 -62 -28 -90 -26 -111 9
-25 42 -22 50 26 71 51 24 76 25 105 4z m-159 -67 c5 -12 25 -36 45 -53 45
-39 49 -74 9 -74 -28 0 -48 -9 -98 -45 -17 -12 -42 -19 -66 -18 -26 1 -49 -6
-74 -23 -63 -42 -77 -25 -45 55 11 28 20 66 20 84 1 31 2 33 93 63 114 39 106
38 116 11z m-224 -79 c-7 -33 -19 -53 -33 -53 -4 -1 -24 -4 -45 -8 -51 -11
-77 -1 -77 28 0 29 9 35 75 51 83 20 88 19 80 -18z m348 -100 c31 -48 32 -56
11 -83 -12 -16 -25 -20 -71 -18 -43 2 -62 -3 -82 -18 -21 -17 -34 -19 -69 -14
-38 6 -48 3 -71 -18 -26 -25 -40 -30 -73 -28 -29 2 -23 101 6 101 7 0 27 11
46 25 22 17 47 25 73 25 41 0 75 14 93 38 6 9 31 18 55 22 24 4 46 8 49 9 3 0
18 -18 33 -41z m-77 -154 c14 -77 -43 -115 -85 -55 -27 38 -26 42 12 68 48 32
65 29 73 -13z m-126 -13 c23 -45 -3 -96 -38 -74 -28 17 -46 61 -32 79 18 20
57 17 70 -5z m78 -113 c24 -45 88 -114 129 -139 20 -12 67 -32 107 -44 50 -15
72 -27 75 -40 2 -14 -1 -16 -15 -10 -11 4 -41 13 -69 19 -27 7 -68 22 -90 33
-60 32 -140 123 -165 187 -14 38 7 34 28 -6z m464 -187 c13 -11 37 -40 53 -65
16 -25 37 -48 47 -52 10 -3 18 -10 18 -15 0 -7 -44 -8 -127 -3 -110 6 -130 10
-145 27 -23 26 -25 55 -3 37 19 -16 30 8 22 50 -7 34 0 38 64 39 31 1 54 -5
71 -18z"/>
<path d="M5826 9193 c-14 -28 -19 -54 -17 -85 1 -14 10 -18 44 -18 60 0 71 10
64 59 -9 71 -63 97 -91 44z m67 -26 c23 -46 16 -57 -34 -57 -44 0 -48 9 -24
66 18 43 34 40 58 -9z"/>
<path d="M6020 8870 c-7 -13 -21 -20 -40 -20 -16 0 -42 -11 -59 -26 -25 -21
-31 -33 -31 -65 0 -86 92 -121 152 -57 26 28 29 37 24 72 -4 23 -7 51 -7 63
-1 15 -6 20 -16 16 -12 -5 -14 -1 -8 15 8 28 -1 28 -15 2z m18 -57 c20 -28 14
-33 -18 -15 -27 15 -32 16 -57 2 -40 -22 -43 -70 -7 -99 31 -24 10 -29 -24 -5
-28 20 -31 93 -4 116 36 32 86 32 110 1z m-28 -32 c0 -14 -18 -23 -30 -16 -6
4 -8 11 -5 16 8 12 35 12 35 0z m-16 -31 c9 0 16 5 16 10 0 6 7 10 15 10 18 0
20 -41 3 -58 -32 -32 -100 13 -83 55 6 17 7 17 19 1 7 -10 21 -18 30 -18z"/>
<path d="M5505 8662 c-2 -2 -1 -10 2 -18 3 -8 -1 -14 -10 -14 -14 0 -14 -5 -4
-32 22 -61 32 -70 79 -75 40 -5 47 -2 66 22 28 35 28 65 1 99 -19 24 -27 27
-76 24 -30 -2 -56 -5 -58 -6z m111 -17 c18 -15 18 -15 -6 -10 -14 4 -38 1 -53
-4 -22 -8 -27 -17 -27 -43 -1 -29 -2 -30 -11 -14 -20 34 18 82 67 85 5 1 19
-6 30 -14z m-27 -65 c9 0 22 5 29 12 9 9 12 7 12 -10 0 -41 -83 -44 -88 -3 -5
30 21 50 26 21 2 -11 11 -20 21 -20z m21 25 c0 -8 -7 -15 -15 -15 -8 0 -15 7
-15 15 0 8 7 15 15 15 8 0 15 -7 15 -15z"/>
<path d="M5786 8624 c-16 -15 -16 -18 -1 -33 14 -14 18 -14 43 -1 15 9 27 22
27 30 0 22 -49 24 -69 4z m54 -3 c0 -12 -39 -25 -48 -16 -7 7 17 25 36 25 6 0
12 -4 12 -9z"/>
<path d="M3910 8920 c8 -5 20 -10 25 -10 6 0 3 5 -5 10 -8 5 -19 10 -25 10 -5
0 -3 -5 5 -10z"/>
<path d="M3632 8286 c-50 -18 -100 -70 -112 -117 -41 -150 106 -266 247 -198
136 66 118 277 -27 319 -44 12 -66 12 -108 -4z m76 -51 c2 -22 9 -89 16 -148
l13 -109 -24 -9 c-42 -16 -39 -25 -60 234 l-6 79 29 -4 c25 -3 29 -7 32 -43z
m-61 -119 c8 -75 12 -140 8 -144 -13 -13 -80 36 -102 74 -26 45 -29 90 -9 138
16 39 67 89 79 77 4 -4 15 -70 24 -145z m131 133 c45 -35 62 -70 62 -127 0
-58 -28 -113 -67 -131 -28 -13 -30 -6 -38 119 -3 52 -8 110 -11 128 -6 39 14
43 54 11z"/>
<path d="M2328 8251 c-105 -34 -150 -157 -91 -248 55 -86 166 -106 243 -44 47
38 65 76 64 138 0 43 -6 59 -30 90 -17 21 -42 43 -55 50 -35 17 -99 24 -131
14z m19 -58 c-14 -134 -33 -233 -42 -233 -20 0 -67 58 -74 92 -14 68 20 149
74 176 41 21 48 15 42 -35z m63 24 c0 -13 -4 -59 -10 -103 -5 -43 -11 -99 -13
-124 -2 -41 -5 -45 -30 -48 -24 -3 -27 0 -27 25 0 15 7 69 15 118 8 50 18 105
21 123 6 40 44 47 44 9z m74 -21 c61 -61 57 -158 -8 -218 -17 -15 -34 -28 -37
-28 -4 0 -14 -3 -23 -6 -13 -5 -16 3 -16 49 0 53 16 199 25 225 7 20 22 14 59
-22z"/>
<path d="M3926 7329 c-48 -38 -104 -175 -92 -225 9 -33 57 -32 138 1 74 30
118 69 118 103 0 36 -46 109 -80 127 -39 20 -52 19 -84 -6z m67 -10 c39 -21
77 -73 77 -107 0 -10 -10 -28 -23 -40 -34 -32 -135 -73 -171 -70 -27 3 -31 6
-29 32 3 43 70 171 96 184 29 14 25 14 50 1z"/>
<path d="M5277 6929 c-50 -12 -140 -50 -149 -63 -18 -25 -6 -56 34 -93 24 -21
71 -66 106 -100 34 -34 73 -65 84 -69 48 -15 73 63 66 201 -3 64 -7 79 -28 99
-30 30 -63 37 -113 25z m99 -40 c16 -18 19 -37 19 -130 0 -88 -3 -111 -17
-125 -16 -16 -22 -12 -99 62 -45 43 -95 91 -111 107 -28 25 -29 29 -16 49 18
27 99 56 159 57 35 1 51 -4 65 -20z"/>
<path d="M2230 7413 c-45 -17 -50 -31 -51 -157 0 -67 -4 -143 -8 -169 -7 -42
-5 -49 11 -58 21 -11 467 -2 487 10 13 8 23 342 11 362 -8 11 -49 14 -222 16
-117 1 -220 -1 -228 -4z m435 -167 c0 -105 -3 -150 -12 -153 -8 -3 -12 33 -15
127 -2 102 -6 133 -18 141 -20 13 -359 2 -377 -13 -9 -7 -13 -46 -13 -134 0
-117 -1 -124 -20 -124 -19 0 -20 7 -20 114 0 140 6 175 34 186 12 5 116 8 231
7 l210 -2 0 -149z m-51 97 c3 -10 6 -70 8 -133 l3 -115 -192 -3 -193 -2 0 119
c0 85 4 122 13 129 7 6 62 13 123 15 60 1 137 4 171 5 51 2 63 -1 67 -15z m51
-278 c0 -23 -472 -33 -478 -10 -1 6 76 12 208 16 262 6 270 6 270 -6z"/>
<path d="M906 7477 c-26 -19 -17 -59 16 -71 34 -12 58 6 58 44 0 20 -6 29 -22
34 -31 8 -32 8 -52 -7z m54 -32 c0 -20 -5 -25 -24 -25 -13 0 -26 6 -29 13 -7
22 4 37 29 37 19 0 24 -5 24 -25z"/>
<path d="M7320 6522 c-30 -29 -39 -48 -44 -88 -4 -27 -6 -56 -4 -64 2 -8 -9
-16 -27 -20 -91 -20 -175 -107 -175 -180 0 -11 -8 -23 -17 -26 -79 -25 -132
-64 -159 -115 -24 -47 -18 -112 13 -150 43 -51 131 -76 173 -49 11 7 -1 10
-39 10 -167 0 -195 187 -40 266 40 20 59 24 90 19 41 -7 58 12 19 22 -31 8
-25 54 13 104 52 68 126 96 179 68 29 -16 35 -2 10 24 -26 27 -28 72 -8 121
22 53 51 76 94 76 37 0 110 -32 124 -54 4 -6 8 -7 8 -1 0 32 -78 75 -134 75
-31 0 -45 -7 -76 -38z"/>
<path d="M1198 6786 c-66 -50 -13 -160 67 -140 55 14 79 91 40 134 -21 23 -80
27 -107 6z m87 -21 c37 -36 32 -70 -12 -94 -32 -17 -70 -4 -81 27 -11 33 3 79
26 85 34 9 43 7 67 -18z"/>
<path d="M2010 6163 c-48 -17 -52 -85 -10 -186 16 -40 38 -110 50 -157 27
-111 34 -126 61 -133 18 -5 35 7 88 61 36 37 87 84 112 104 85 68 75 111 -43
199 -124 92 -209 129 -258 112z m68 -37 c49 -18 140 -74 205 -128 63 -53 63
-78 0 -132 -26 -23 -71 -65 -99 -93 -28 -29 -56 -53 -63 -53 -15 0 -26 31 -36
95 -4 28 -25 96 -46 153 -49 127 -50 166 -8 171 4 1 25 -5 47 -13z"/>
<path d="M2825 5328 c-123 -43 -213 -123 -218 -194 -3 -46 26 -42 48 6 40 89
153 156 281 167 61 5 74 9 72 22 -5 26 -110 25 -183 -1z"/>
<path d="M3742 6344 c-36 -25 -26 -35 31 -28 42 5 64 1 116 -20 75 -30 71 -30
71 -13 0 19 -40 52 -80 65 -46 17 -112 15 -138 -4z"/>
<path d="M4460 6161 c0 -17 26 -29 103 -47 42 -10 77 -21 77 -26 0 -4 6 -8 14
-8 22 0 112 -105 141 -165 15 -30 30 -55 32 -55 12 0 -9 85 -32 128 -55 103
-125 154 -233 171 -86 13 -102 14 -102 2z"/>
<path d="M3630 6147 c-50 -24 -117 -88 -131 -124 -28 -75 0 -135 101 -215 92
-73 143 -90 206 -68 55 20 114 131 114 214 0 57 -40 137 -85 172 -33 25 -48
29 -109 31 -41 2 -82 -3 -96 -10z m166 -28 c29 -14 55 -36 70 -60 26 -42 33
-77 9 -45 -58 77 -190 73 -248 -6 -11 -14 -22 -48 -24 -75 -5 -54 18 -98 70
-137 30 -22 102 -28 145 -13 14 5 22 4 22 -2 0 -6 -18 -16 -40 -22 -55 -17
-107 0 -184 61 -64 51 -106 111 -106 153 0 64 128 167 206 167 19 0 55 -10 80
-21z m41 -96 c43 -32 60 -86 43 -139 -18 -55 -70 -100 -70 -60 0 16 -21 26
-53 26 -12 0 -40 11 -61 24 -22 13 -46 22 -53 19 -17 -7 -27 21 -18 55 6 23 8
25 18 11 18 -24 56 -41 77 -34 11 4 20 10 20 15 0 5 -7 7 -15 4 -28 -11 -63 5
-69 32 -8 32 16 64 49 64 30 0 45 -19 46 -59 0 -33 1 -34 10 -13 10 26 2 72
-13 72 -5 0 -6 5 -3 10 9 14 55 1 92 -27z m-163 -158 c8 -8 37 -20 65 -26 40
-8 51 -15 51 -30 0 -35 -83 -22 -127 20 -23 22 -31 51 -14 51 5 0 16 -7 25
-15z"/>
<path d="M4465 5907 c-79 -36 -142 -121 -152 -204 -5 -45 -3 -53 27 -86 66
-76 229 -128 332 -106 97 21 145 92 135 200 -6 69 -47 136 -109 177 -35 23
-54 27 -122 30 -52 1 -92 -3 -111 -11z m167 -17 c83 -23 148 -109 156 -205 6
-78 -10 -105 -84 -141 -48 -24 -61 -26 -116 -20 -97 11 -220 73 -251 126 -39
65 45 196 153 239 33 13 96 13 142 1z"/>
<path d="M4518 5840 c-58 -17 -107 -106 -94 -172 3 -18 19 -50 36 -70 80 -97
247 -55 265 66 20 132 -78 215 -207 176z m153 -49 c34 -34 39 -44 39 -85 0
-26 -5 -56 -11 -67 -10 -20 -11 -20 -24 -3 -12 17 -17 17 -101 1 -48 -10 -91
-22 -95 -28 -9 -15 -39 53 -38 88 0 27 1 27 11 6 13 -27 49 -37 82 -21 50 22
31 108 -23 108 -12 0 -21 4 -21 8 0 16 44 31 94 31 43 1 52 -3 87 -38z m-140
-21 c37 -20 18 -80 -26 -80 -12 0 -26 5 -33 12 -25 25 -8 78 26 78 7 0 22 -5
33 -10z m139 -155 c0 -38 -75 -65 -133 -48 -39 11 -50 43 -15 43 13 0 46 6 73
14 54 14 75 11 75 -9z"/>
<path d="M3846 5654 c-32 -33 -33 -69 -2 -114 56 -84 231 -119 294 -59 28 25
28 68 1 103 -30 38 -42 32 -19 -11 25 -46 25 -48 0 -73 -39 -39 -170 -18 -229
37 -29 27 -42 68 -28 87 16 21 60 36 105 36 28 0 33 3 22 10 -8 5 -38 10 -66
10 -42 0 -56 -5 -78 -26z"/>
<path d="M3817 5381 c-39 -6 -40 -9 -30 -51 29 -123 293 -149 367 -35 9 13 16
26 16 27 0 2 -18 2 -40 0 -29 -3 -47 2 -71 19 -50 35 -162 54 -242 40z m119
-16 c10 -8 33 -15 49 -15 17 0 41 -9 54 -19 l24 -19 -40 -6 c-43 -8 -119 7
-168 32 l-30 16 40 12 c52 16 48 16 71 -1z m39 -79 c28 0 74 3 103 7 59 10 67
0 21 -27 -71 -42 -237 -26 -274 27 -29 41 -17 47 43 20 33 -14 78 -26 107 -27z"/>
<path d="M1201 6251 c-12 -11 -25 -35 -28 -55 -5 -31 -1 -40 27 -66 41 -38 73
-38 111 -1 35 35 38 77 8 115 -26 32 -84 36 -118 7z m97 -11 c44 -41 15 -120
-43 -120 -33 0 -65 33 -65 68 0 35 9 49 40 61 36 14 44 13 68 -9z"/>
<path d="M2453 4750 c-43 -26 -42 -50 2 -99 77 -84 135 -74 135 23 0 69 -20
96 -68 96 -20 0 -52 -9 -69 -20z m101 -16 c21 -20 21 -97 1 -114 -17 -14 -24
-10 -82 44 -40 37 -41 51 -5 70 35 20 67 20 86 0z"/>
<path d="M1286 4645 c-100 -26 -161 -106 -160 -210 1 -115 78 -206 188 -221
61 -9 106 1 157 36 109 72 130 232 42 330 -54 61 -143 86 -227 65z m153 -34
c47 -23 87 -76 102 -133 24 -88 -32 -196 -118 -229 -36 -13 -119 -11 -156 5
-71 29 -126 128 -113 204 22 141 161 214 285 153z"/>
<path d="M1281 4573 c-18 -9 -47 -35 -63 -57 -26 -36 -29 -47 -26 -98 7 -95
73 -160 163 -160 139 0 216 140 143 260 -39 65 -143 91 -217 55z m143 -17 c36
-15 70 -63 81 -114 9 -44 -26 -115 -69 -142 -38 -23 -108 -26 -146 -7 -13 7
-35 27 -47 46 -38 56 -45 146 -7 93 21 -30 68 -29 99 3 44 43 23 114 -34 116
-24 0 -24 1 -6 9 31 13 92 11 129 -4z m-91 -47 c23 -37 -20 -91 -65 -81 -26 5
-34 59 -12 83 21 23 62 22 77 -2z"/>
<path d="M2094 4407 c-37 -14 -94 -61 -94 -76 0 -6 -4 -11 -9 -11 -14 0 -33
-106 -26 -143 19 -91 95 -158 186 -165 94 -7 163 29 202 105 53 102 19 213
-85 279 -42 27 -120 32 -174 11z m128 -17 c81 -23 128 -89 128 -180 0 -56 -15
-93 -52 -126 -58 -54 -127 -67 -195 -39 -48 20 -71 41 -94 87 -49 96 2 216
107 253 48 17 59 18 106 5z"/>
<path d="M2088 4332 c-38 -23 -68 -82 -68 -134 0 -60 36 -111 94 -133 61 -23
106 -14 155 33 72 68 63 174 -19 230 -40 27 -121 29 -162 4z m150 -19 c33 -20
62 -73 62 -112 0 -111 -148 -172 -224 -92 -30 31 -49 86 -40 116 7 19 7 19 15
-2 4 -12 20 -25 34 -29 58 -15 112 54 80 103 -9 12 -21 23 -28 24 -6 0 -3 4 8
9 24 10 61 3 93 -17z m-95 -17 c22 -17 22 -44 0 -68 -40 -44 -96 -4 -73 53 14
32 42 38 73 15z"/>
<path d="M1663 4185 c-31 -22 -29 -60 3 -90 22 -20 24 -27 14 -39 -19 -24 -46
-28 -84 -12 -37 15 -56 7 -31 -14 25 -20 89 -24 108 -6 14 15 17 15 29 -2 16
-23 51 -35 78 -27 29 9 25 27 -4 19 -17 -4 -31 1 -45 15 -22 22 -20 44 2 39
29 -6 67 13 73 37 8 32 1 50 -29 70 -38 24 -88 29 -114 10z m109 -32 c28 -25
19 -57 -16 -61 -46 -6 -75 6 -82 33 -13 53 50 71 98 28z"/>
<path d="M5729 4675 c-43 -15 -89 -53 -89 -72 0 -19 14 -16 36 8 24 26 87 59
113 59 11 0 23 5 26 10 9 14 -43 11 -86 -5z"/>
<path d="M6455 4674 c-108 -56 -135 -190 -56 -281 79 -91 219 -81 287 20 62
92 21 228 -79 266 -41 16 -117 13 -152 -5z m163 -24 c64 -39 96 -128 69 -193
-44 -105 -154 -136 -249 -71 -124 87 -57 284 97 284 32 0 62 -7 83 -20z"/>
<path d="M6463 4610 c-39 -16 -65 -69 -60 -120 9 -87 99 -135 177 -95 44 23
60 53 60 111 0 47 -3 55 -35 83 -28 25 -44 31 -78 30 -23 0 -52 -4 -64 -9z
m114 -22 c30 -15 56 -73 48 -105 -11 -45 -58 -83 -102 -83 -43 1 -59 11 -91
57 -14 19 -18 34 -12 38 5 3 10 2 10 -4 0 -15 57 -24 79 -12 42 23 34 92 -13
107 -21 7 -21 7 -1 15 22 8 47 4 82 -13z m-73 -34 c21 -20 20 -37 -3 -58 -23
-21 -49 -12 -57 20 -13 49 25 73 60 38z"/>
<path d="M5724 4506 c-120 -53 -152 -214 -62 -317 71 -79 221 -78 294 3 33 35
56 114 48 162 -10 64 -53 123 -112 155 -28 15 -131 13 -168 -3z m153 -18 c36
-10 90 -66 98 -101 18 -74 4 -134 -42 -180 -65 -65 -158 -75 -226 -23 -56 43
-71 73 -72 143 0 53 4 67 31 104 24 32 44 48 80 61 48 16 67 16 131 -4z"/>
<path d="M5736 4419 c-102 -80 -52 -229 76 -229 43 0 55 5 83 33 41 41 52 90
31 140 -29 71 -132 101 -190 56z m156 -40 c62 -74 11 -169 -90 -169 -33 0 -45
6 -71 35 -17 20 -31 46 -31 58 l0 21 16 -22 c18 -27 69 -30 96 -5 32 29 15
103 -25 103 -9 0 -19 5 -23 11 -5 9 8 10 47 7 45 -5 58 -11 81 -39z m-101 1
c28 -16 26 -68 -3 -79 -47 -18 -85 33 -52 70 20 22 28 23 55 9z"/>
<path d="M6196 4360 c-83 -25 -89 -110 -7 -110 18 0 21 -6 21 -47 0 -95 -55
-141 -195 -163 -63 -10 -108 -8 -157 6 -12 4 -18 0 -18 -10 0 -9 8 -16 18 -16
9 0 37 -12 62 -26 72 -41 180 -82 240 -89 67 -8 187 20 253 58 55 33 147 131
176 189 12 24 31 55 43 69 38 50 13 54 -32 5 -122 -130 -319 -129 -353 3 -4
18 2 31 28 55 63 60 16 104 -79 76z m82 -32 c5 -24 -55 -59 -93 -56 -43 4 -41
38 5 61 42 21 84 19 88 -5z m-5 -189 c12 -11 35 -23 50 -26 18 -4 32 -15 38
-30 5 -13 15 -26 23 -29 17 -7 76 25 76 41 0 10 66 45 85 45 13 0 -26 -53 -72
-98 -73 -70 -176 -112 -277 -112 -54 0 -176 33 -214 58 -24 16 -24 16 44 28
114 20 186 63 200 121 8 28 18 29 47 2z m157 -49 c0 -5 -7 -10 -15 -10 -8 0
-18 0 -22 -1 -4 0 -9 4 -11 10 -2 6 8 11 22 11 14 0 26 -4 26 -10z"/>
<path d="M4849 4221 c-43 -42 -47 -64 -11 -69 26 -4 102 62 102 89 0 33 -45
23 -91 -20z m71 15 c0 -14 -58 -66 -73 -66 -16 0 -5 25 23 51 33 32 50 37 50
15z"/>
<path d="M4974 4212 c-13 -8 -54 -98 -54 -117 0 -16 25 -26 45 -19 18 7 57
108 49 129 -7 16 -22 19 -40 7z m20 -34 c-15 -51 -34 -88 -43 -88 -15 0 -14
23 5 70 17 43 51 58 38 18z"/>
<path d="M5049 4172 c-15 -52 -9 -86 17 -90 23 -3 44 32 44 73 0 65 -42 78
-61 17z m41 -19 c0 -44 -15 -73 -28 -58 -11 12 5 95 19 95 5 0 9 -17 9 -37z"/>
<path d="M4511 4006 c-68 -37 -42 -130 35 -130 39 0 73 32 74 70 0 20 -33 64
-50 64 -4 0 -14 2 -22 5 -7 2 -24 -2 -37 -9z m39 -28 l9 -23 0 23 c1 31 23 24
35 -11 15 -40 -6 -77 -43 -77 -37 0 -61 23 -61 58 0 20 3 23 12 14 7 -7 19
-12 27 -12 11 0 11 3 -4 13 -10 8 -15 19 -11 25 11 19 26 14 36 -10z"/>
<path d="M4794 3825 c-4 -8 -1 -22 6 -31 20 -23 -3 -43 -30 -26 -12 7 -21 8
-25 2 -10 -16 40 -34 61 -22 14 8 22 5 37 -14 11 -14 29 -24 45 -24 29 0 20
16 -12 22 -26 4 -33 28 -8 28 25 0 44 23 36 43 -12 31 -100 49 -110 22z m64
-11 c22 -6 32 -34 12 -34 -13 0 -70 29 -70 35 0 7 30 6 58 -1z"/>
<path d="M5070 3820 c-49 -49 -3 -139 65 -126 43 9 60 30 60 76 0 28 -6 44
-20 54 -29 22 -81 20 -105 -4z m48 -17 c-5 -25 -28 -28 -28 -4 0 12 6 21 16
21 9 0 14 -7 12 -17z m50 5 c17 -17 15 -58 -5 -80 -29 -32 -87 -16 -95 27 -2
16 2 19 20 17 28 -4 53 14 45 34 -6 17 18 19 35 2z"/>
<path d="M2461 3846 c-53 -110 -60 -136 -38 -154 37 -31 129 -25 148 9 10 20
8 39 -20 204 -12 72 -34 58 -90 -59z m89 -53 c11 -59 11 -75 0 -88 -24 -28
-120 -13 -120 19 0 7 21 58 46 112 53 112 46 117 74 -43z"/>
<path d="M3360 3539 c-86 -54 -110 -78 -110 -107 0 -28 55 -86 91 -95 36 -10
73 38 103 131 39 125 23 138 -84 71z m90 13 c0 -32 -64 -181 -83 -193 -26 -18
-102 44 -95 77 2 10 36 42 77 71 69 50 101 64 101 45z"/>
<path d="M2190 3003 c0 -5 51 -24 113 -44 61 -20 150 -55 196 -78 46 -22 88
-41 93 -41 50 0 -112 89 -242 133 -82 27 -160 42 -160 30z"/>
<path d="M2089 2927 c-51 -26 -80 -133 -60 -229 9 -42 23 -68 52 -102 47 -53
146 -106 198 -106 63 0 146 26 195 59 54 37 106 112 106 151 0 51 -100 117
-273 180 -157 56 -186 62 -218 47z m61 -19 c0 -2 -11 -24 -24 -50 -62 -123
-33 -226 78 -272 69 -29 146 -18 195 27 31 29 61 94 61 135 0 38 3 38 55 9 50
-28 56 -60 22 -114 -49 -78 -137 -125 -233 -125 -104 -1 -196 54 -235 137 -35
75 -16 236 29 248 20 5 52 8 52 5z m144 -48 c50 -17 106 -38 124 -48 31 -16
33 -20 28 -55 -17 -105 -65 -158 -151 -165 -82 -7 -164 46 -182 117 -13 51 40
181 74 181 8 0 56 -14 107 -30z"/>
<path d="M2152 2817 c-26 -28 -27 -45 -6 -75 10 -15 25 -22 48 -22 41 0 56 15
56 56 0 61 -57 85 -98 41z m76 -9 c17 -17 15 -53 -3 -68 -35 -29 -85 13 -70
60 7 23 53 28 73 8z"/>
<path d="M2956 2692 c12 -12 299 -92 326 -92 27 0 -11 21 -69 38 -162 49 -280
73 -257 54z"/>
<path d="M2561 2428 c-10 -27 3 -67 30 -96 19 -21 19 -21 0 -32 -36 -19 -104
-12 -142 15 -20 13 -39 21 -43 18 -3 -3 2 -12 13 -19 11 -8 20 -30 24 -59 12
-113 144 -169 255 -110 26 14 57 25 69 25 13 0 23 5 23 10 0 6 -19 10 -43 10
-50 0 -104 39 -109 79 -3 21 3 25 52 38 65 16 73 23 68 54 -2 18 -19 33 -63
56 -73 39 -122 43 -134 11z m98 -18 c107 -41 110 -80 5 -80 -39 0 -47 4 -64
33 -23 36 -26 67 -7 67 6 0 36 -9 66 -20z m-44 -160 c3 -10 22 -34 41 -53 l36
-34 -33 -12 c-60 -21 -93 -14 -143 30 -33 29 -46 48 -46 67 0 27 0 27 70 24
57 -3 70 -7 75 -22z"/>
<path d="M6095 3384 c-18 -28 -14 -54 8 -54 20 0 47 33 47 58 0 31 -33 28 -55
-4z m35 -1 c0 -26 -16 -47 -29 -39 -7 5 -6 15 5 32 19 29 24 30 24 7z"/>
<path d="M6170 3391 c-14 -27 -13 -56 3 -69 25 -21 44 12 39 71 -3 23 -29 22
-42 -2z m30 -31 c0 -28 -13 -40 -24 -22 -7 12 5 52 15 52 5 0 9 -13 9 -30z"/>
<path d="M6237 3403 c-13 -12 -7 -60 8 -73 29 -24 56 20 39 64 -6 16 -35 22
-47 9z m37 -18 c6 -17 -2 -45 -14 -45 -10 0 -21 41 -14 52 8 13 21 9 28 -7z"/>
<path d="M5903 3199 c-18 -6 -23 -16 -23 -42 0 -29 5 -37 29 -47 38 -15 71 4
71 41 0 40 -37 63 -77 48z m15 -40 c8 -12 19 -18 28 -15 8 3 14 -1 14 -8 0 -8
-7 -17 -16 -20 -24 -9 -54 12 -54 39 0 30 11 32 28 4z m32 11 c0 -5 -7 -10
-15 -10 -8 0 -15 5 -15 10 0 6 7 10 15 10 8 0 15 -4 15 -10z"/>
<path d="M6362 3184 c-42 -29 -18 -104 35 -104 21 0 63 39 63 59 0 16 -46 61
-62 61 -8 0 -24 -7 -36 -16z m53 -14 c3 -6 -1 -13 -10 -16 -19 -8 -30 0 -20
15 8 14 22 14 30 1z m0 -26 c27 7 34 -11 13 -32 -29 -29 -68 -9 -68 35 0 13 3
13 15 3 8 -7 25 -10 40 -6z"/>
<path d="M6127 3163 c-12 -11 -8 -34 8 -50 17 -16 12 -33 -11 -33 -8 0 -14 -4
-14 -10 0 -13 17 -13 26 1 4 6 20 8 40 4 21 -3 34 -2 34 5 0 5 -9 10 -20 10
-11 0 -20 5 -20 10 0 6 6 10 13 10 28 0 40 17 28 39 -8 15 -21 21 -45 21 -18
0 -36 -3 -39 -7z m54 -14 c11 -5 17 -14 14 -20 -9 -14 -41 -11 -54 5 -11 13
-7 19 17 25 2 1 12 -4 23 -10z"/>
<path d="M5100 3260 c0 -11 4 -20 9 -20 5 0 7 9 4 20 -3 11 -7 20 -9 20 -2 0
-4 -9 -4 -20z"/>
<path d="M5344 3115 c-18 -28 -11 -60 17 -76 21 -11 59 -3 71 15 12 17 9 61
-4 74 -21 21 -66 14 -84 -13z m66 -5 c0 -5 -7 -10 -15 -10 -8 0 -15 5 -15 10
0 6 7 10 15 10 8 0 15 -4 15 -10z m1 -23 c21 6 25 -7 7 -25 -29 -29 -68 -9
-68 34 0 13 3 13 21 1 11 -8 29 -13 40 -10z"/>
<path d="M4952 3048 c-22 -22 -15 -57 13 -64 33 -8 57 12 53 45 -2 19 -10 27
-28 29 -14 2 -31 -3 -38 -10z m24 -25 c-4 11 0 17 11 17 9 0 13 -3 10 -7 -4
-3 -2 -12 4 -19 7 -9 4 -14 -12 -19 -22 -7 -39 7 -39 34 0 11 4 9 16 -5 13
-16 15 -16 10 -1z"/>
<path d="M5127 3053 c-12 -11 -8 -41 6 -46 7 -3 2 -9 -13 -16 -24 -11 -24 -11
8 -8 18 2 35 0 38 -5 7 -11 54 -10 54 2 0 6 -9 10 -19 10 -26 0 -37 18 -17 26
9 3 16 15 16 25 0 15 -7 19 -33 19 -19 0 -37 -3 -40 -7z m47 -12 c3 -5 -3 -11
-14 -14 -22 -6 -37 8 -18 16 20 8 26 8 32 -2z"/>
<path d="M4391 2866 c-6 -7 -8 -21 -5 -30 5 -14 2 -16 -20 -10 -34 8 -43 -14
-21 -55 27 -52 73 -36 53 19 -9 23 -8 23 10 7 21 -19 48 -22 57 -7 8 13 -21
67 -44 79 -14 8 -22 7 -30 -3z m59 -63 c0 -20 -17 -16 -34 9 -26 37 -20 55 9
28 14 -13 25 -29 25 -37z m-66 -16 c6 -9 7 -19 3 -23 -9 -9 -37 15 -37 33 0
18 20 12 34 -10z"/>
<path d="M4602 2684 c-41 -28 -19 -94 32 -94 28 0 56 29 56 58 0 20 -33 52
-55 52 -6 0 -21 -7 -33 -16z m68 -40 c0 -29 -29 -46 -53 -33 -24 14 -21 29 6
30 16 1 18 2 5 6 -29 7 -20 22 12 21 24 -1 30 -5 30 -24z"/>
<path d="M4462 2533 c-31 -26 -32 -57 -4 -61 21 -3 23 -8 20 -38 -3 -23 0 -34
9 -34 7 0 13 11 13 25 0 24 2 25 35 19 23 -4 35 -2 35 5 0 6 -8 11 -17 11 -34
0 -46 15 -32 37 27 44 -18 71 -59 36z m48 -16 c0 -16 -47 -43 -57 -34 -8 9 27
47 44 47 7 0 13 -6 13 -13z"/>
<path d="M4225 2470 c-37 -41 17 -102 64 -73 26 16 26 59 -1 77 -29 21 -41 20
-63 -4z m39 -9 c3 -5 -1 -14 -9 -21 -13 -10 -15 -9 -15 9 0 21 14 28 24 12z
m26 -42 c-11 -20 -50 -27 -50 -9 0 6 6 10 14 10 8 0 17 7 20 16 3 8 10 12 16
9 7 -4 7 -13 0 -26z"/>
<path d="M3610 2680 c0 -31 34 -80 56 -80 31 0 26 49 -9 88 -29 31 -47 28 -47
-8z m53 -22 c17 -35 14 -50 -8 -42 -15 6 -37 59 -28 68 12 12 21 5 36 -26z"/>
<path d="M3922 2608 c-27 -27 -10 -78 27 -78 36 0 58 37 42 69 -13 23 -50 28
-69 9z m57 -49 c-10 -20 -26 -24 -47 -10 -10 6 -9 10 7 14 14 3 21 13 21 29 1
22 1 22 15 4 10 -13 11 -24 4 -37z m-35 20 c-3 -5 -10 -7 -15 -3 -5 3 -7 10
-3 15 3 5 10 7 15 3 5 -3 7 -10 3 -15z"/>
<path d="M3740 2490 c-24 -20 -25 -21 -6 -35 11 -8 36 -15 55 -15 29 1 33 2
19 11 -10 5 -18 21 -18 34 0 30 -16 31 -50 5z m24 -14 c-21 -15 -30 -14 -19 3
3 6 14 11 23 11 13 0 13 -2 -4 -14z"/>
<path d="M3540 2410 c-23 -23 -25 -38 -6 -62 15 -21 56 -24 74 -6 18 18 15 53
-6 71 -24 22 -38 21 -62 -3z m68 -27 c4 -25 -22 -47 -45 -38 -16 6 -15 8 6 16
17 7 22 15 18 30 -3 13 -1 19 6 16 7 -2 13 -13 15 -24z m-38 2 c0 -8 -4 -15
-10 -15 -5 0 -10 7 -10 15 0 8 5 15 10 15 6 0 10 -7 10 -15z"/>
<path d="M3747 2423 c-4 -3 -7 -11 -7 -17 0 -6 5 -5 12 2 6 6 9 14 7 17 -3 3
-9 2 -12 -2z"/>
<path d="M5552 2721 c-354 -57 -643 -283 -707 -552 -17 -74 -19 -197 -4 -254
12 -48 50 -146 61 -160 5 -5 22 -31 39 -57 85 -132 267 -248 476 -304 85 -23
118 -27 248 -27 215 0 372 38 541 134 96 53 236 188 283 271 94 168 106 366
30 526 -32 66 -102 159 -152 201 -16 14 -34 29 -41 35 -73 67 -244 145 -377
171 -90 18 -324 27 -397 16z m340 -25 c265 -52 486 -196 580 -377 57 -110 71
-172 66 -283 -4 -85 -10 -113 -37 -178 -68 -162 -198 -286 -394 -378 -144 -67
-227 -84 -422 -84 -143 -1 -184 3 -258 22 -244 61 -441 208 -526 393 -109 236
-33 499 200 695 90 75 269 154 414 184 111 22 279 25 377 6z"/>
<path d="M5640 2660 c0 -11 5 -20 10 -20 6 0 10 9 10 20 0 11 -4 20 -10 20 -5
0 -10 -9 -10 -20z"/>
<path d="M5760 2654 c0 -14 4 -23 9 -20 5 3 7 15 4 26 -7 28 -13 25 -13 -6z"/>
<path d="M5500 2639 c0 -17 4 -28 10 -24 6 3 10 17 10 31 0 13 -4 24 -10 24
-5 0 -10 -14 -10 -31z"/>
<path d="M5642 2585 c0 -16 2 -22 5 -12 2 9 2 23 0 30 -3 6 -5 -1 -5 -18z"/>
<path d="M5753 2574 c-3 -8 -1 -20 6 -27 8 -8 11 -4 11 16 0 30 -7 35 -17 11z"/>
<path d="M5490 2554 c0 -14 4 -23 10 -19 6 3 10 15 10 26 0 10 -4 19 -10 19
-5 0 -10 -12 -10 -26z"/>
<path d="M5630 2475 c0 -15 4 -24 10 -20 6 3 10 12 10 20 0 8 -4 17 -10 20 -6
4 -10 -5 -10 -20z"/>
<path d="M5750 2481 c0 -11 5 -23 10 -26 6 -4 10 5 10 19 0 14 -4 26 -10 26
-5 0 -10 -9 -10 -19z"/>
<path d="M5490 2464 c0 -14 4 -23 10 -19 6 3 10 15 10 26 0 10 -4 19 -10 19
-5 0 -10 -12 -10 -26z"/>
<path d="M5167 2320 c-72 -14 -138 -77 -158 -151 -34 -126 51 -249 182 -266
89 -12 193 55 223 144 19 56 20 73 4 124 -31 104 -142 170 -251 149z m118 -30
c83 -39 115 -87 115 -174 0 -67 -14 -101 -56 -142 -57 -53 -139 -67 -209 -35
-93 42 -139 155 -100 242 l15 34 -6 -37 c-8 -48 24 -117 65 -141 36 -21 102
-22 141 -2 67 34 90 132 47 196 -21 32 -39 44 -97 67 -24 10 -24 11 10 11 19
0 53 -8 75 -19z m-48 -31 c34 -16 45 -28 54 -59 27 -89 -22 -160 -111 -160
-157 0 -158 226 -1 239 8 0 34 -8 58 -20z"/>
<path d="M5110 2221 c-18 -34 -12 -78 12 -95 30 -21 50 -20 82 5 29 23 33 54
10 87 -20 30 -88 31 -104 3z m84 -7 c20 -19 21 -58 2 -73 -25 -21 -69 -9 -80
21 -17 50 42 89 78 52z"/>
<path d="M5945 2301 c-84 -38 -129 -107 -129 -196 0 -124 88 -215 209 -215
126 0 215 88 215 213 0 68 -9 94 -52 142 -62 71 -161 94 -243 56z m164 -21
c74 -34 111 -92 111 -175 0 -147 -145 -238 -277 -174 -54 26 -88 69 -104 132
-12 51 -6 76 10 36 18 -49 82 -89 139 -89 75 0 143 94 122 169 -12 47 -69 101
-106 101 -14 0 -22 4 -19 10 10 17 77 11 124 -10z m-57 -42 c36 -25 53 -86 37
-132 -43 -120 -229 -87 -229 41 l0 25 32 -27 c49 -41 107 -16 108 47 0 26 -22
58 -41 58 -6 0 -7 4 -4 10 8 13 65 1 97 -22z m-76 -23 c15 -23 15 -27 0 -50
-38 -58 -106 -8 -80 59 10 26 61 20 80 -9z"/>
<path d="M5552 1954 c-37 -26 -26 -65 23 -83 22 -8 41 -16 43 -17 2 -1 -4 -16
-12 -33 -23 -44 -58 -64 -105 -59 -31 3 -37 1 -29 -9 23 -28 105 -4 139 40
l17 20 11 -20 c6 -12 27 -31 46 -43 40 -25 93 -22 116 7 12 15 12 16 -6 9 -64
-27 -108 -18 -135 27 -29 47 -26 64 14 71 66 13 86 75 29 97 -39 15 -126 11
-151 -7z m143 -6 c33 -15 32 -46 -1 -58 -43 -17 -119 -12 -137 8 -40 43 67 83
138 50z"/>
<path d="M6101 1842 c-70 -35 -91 -126 -43 -192 61 -87 193 -68 231 33 15 39
14 63 -6 104 -32 67 -112 92 -182 55z m125 -18 c31 -21 54 -64 54 -100 0 -63
-76 -123 -138 -109 -71 16 -112 96 -81 158 31 62 111 86 165 51z"/>
<path d="M5093 1780 c-49 -29 -65 -114 -30 -160 24 -32 62 -50 105 -50 37 0
50 6 78 34 34 34 43 76 28 131 -15 57 -120 83 -181 45z m101 0 c7 0 25 -11 40
-25 30 -28 35 -79 11 -124 -17 -33 -33 -41 -84 -41 -107 0 -137 135 -41 183
19 9 41 15 48 12 8 -3 19 -5 26 -5z"/>
<path d="M7155 1985 c-5 -2 -22 -6 -37 -9 -66 -15 -116 -93 -104 -162 10 -48
66 -100 126 -114 63 -15 101 -6 143 33 80 76 74 187 -13 232 -27 13 -98 26
-115 20z m101 -63 c46 -37 51 -75 18 -131 -20 -34 -52 -51 -94 -51 -104 0
-158 101 -89 169 27 27 37 31 87 31 39 0 64 -6 78 -18z"/>
<path d="M932 1687 c-109 -40 -158 -187 -95 -285 31 -48 107 -92 157 -92 85 0
150 41 185 115 75 159 -79 322 -247 262z m162 -54 c34 -25 66 -84 66 -124 0
-56 -36 -115 -84 -138 -139 -68 -271 58 -212 200 27 65 74 91 153 85 29 -3 63
-13 77 -23z"/>
<path d="M6738 1275 c-56 -32 -85 -123 -57 -178 26 -49 71 -77 124 -77 129 0
184 160 83 244 -30 26 -113 32 -150 11z m133 -56 c48 -51 33 -123 -31 -149
-38 -16 -72 -7 -106 27 -22 22 -25 32 -21 67 12 84 101 116 158 55z"/>
<path d="M6932 265 l1 -90 7 80 c3 44 2 84 -2 90 -4 5 -7 -31 -6 -80z"/>
<path d="M5566 333 c-10 -11 -7 -143 4 -143 6 0 10 23 10 50 0 28 3 50 8 50 4
0 16 -16 26 -35 11 -19 22 -35 25 -35 3 0 17 17 31 37 l25 37 3 -52 c2 -29 7
-52 13 -52 12 0 12 137 -1 145 -5 3 -22 -14 -37 -39 -15 -26 -30 -46 -34 -46
-3 0 -15 18 -28 40 -24 43 -35 53 -45 43z"/>
<path d="M6059 315 c-3 -26 -8 -30 -30 -27 -51 6 -79 -57 -41 -91 10 -10 32
-17 49 -17 l31 0 4 66 c3 70 -7 123 -13 69z m-7 -62 c8 -36 -3 -54 -31 -51
-26 3 -38 26 -27 54 8 20 54 18 58 -3z"/>
<path d="M6307 333 c-11 -10 -8 -141 2 -148 6 -3 11 19 13 52 l3 58 23 -37
c13 -21 27 -38 30 -38 4 0 18 17 32 38 l25 37 5 -60 c3 -35 8 -55 13 -48 10
16 7 142 -4 148 -4 3 -20 -15 -36 -40 -15 -25 -30 -45 -33 -45 -3 1 -19 21
-36 45 -17 25 -33 42 -37 38z"/>
<path d="M6787 328 c-4 -10 -9 -24 -11 -32 -3 -8 -14 -12 -28 -9 -43 8 -69
-55 -38 -92 16 -19 79 -20 86 -2 8 22 0 154 -9 135z m-12 -77 c9 -28 -5 -51
-30 -51 -25 0 -39 23 -30 51 8 25 52 25 60 0z"/>
<path d="M5752 278 c-16 -16 -15 -66 2 -84 18 -17 58 -18 74 -2 7 7 12 26 12
43 0 38 -16 55 -50 55 -14 0 -31 -5 -38 -12z m67 -22 c18 -22 -3 -56 -34 -56
-21 0 -25 5 -25 28 0 16 3 32 7 35 11 12 40 8 52 -7z"/>
<path d="M5860 234 c0 -34 4 -53 10 -49 6 3 10 24 10 46 0 36 2 40 23 37 17
-2 23 -11 25 -38 5 -54 22 -61 22 -9 0 54 -13 69 -57 69 l-33 0 0 -56z"/>
<path d="M6107 283 c-15 -15 -5 -22 23 -16 19 3 30 1 30 -6 0 -6 -13 -14 -30
-17 -29 -6 -47 -34 -35 -54 4 -6 23 -10 43 -8 35 4 37 6 40 42 2 20 -2 44 -9
52 -12 14 -51 19 -62 7z m51 -65 c-5 -15 -48 -24 -48 -10 0 14 12 22 33 22 10
0 17 -5 15 -12z"/>
<path d="M6201 279 c-1 -9 6 -36 14 -59 14 -40 14 -45 -2 -63 -17 -19 -17 -19
1 -16 13 3 27 24 42 64 13 33 23 66 23 73 1 24 -17 2 -24 -28 -9 -40 -19 -38
-38 8 -8 20 -15 30 -16 21z"/>
<path d="M6497 284 c-14 -15 -6 -20 23 -16 40 6 38 -13 -2 -24 -26 -8 -33 -15
-33 -34 0 -22 5 -25 38 -26 31 -1 38 3 43 22 10 38 -9 79 -37 82 -14 2 -28 0
-32 -4z m51 -66 c-5 -15 -48 -24 -48 -10 0 14 12 22 33 22 10 0 17 -5 15 -12z"/>
<path d="M6590 233 c0 -56 13 -68 16 -15 1 15 2 33 3 40 0 8 10 12 24 10 18
-2 23 -10 25 -46 4 -51 22 -46 22 7 0 46 -14 61 -57 61 l-33 0 0 -57z"/>
<path d="M6837 283 c-15 -14 -6 -23 12 -13 14 7 22 7 27 -1 8 -13 -5 -26 -31
-31 -14 -2 -20 -11 -20 -28 0 -22 4 -25 38 -26 20 -1 38 4 38 10 4 41 -2 80
-13 87 -16 10 -42 11 -51 2z m51 -65 c-5 -15 -48 -24 -48 -10 0 14 12 22 33
22 10 0 17 -5 15 -12z"/>
<path d="M6987 283 c-14 -13 -6 -23 11 -15 18 10 42 5 42 -8 0 -5 -13 -11 -29
-15 -66 -14 -61 -67 5 -62 32 2 34 4 34 39 0 20 -3 43 -6 52 -6 16 -45 22 -57
9z m48 -63 c8 -13 -20 -24 -41 -16 -20 8 -9 26 16 26 10 0 22 -5 25 -10z"/>
<path d="M7126 275 c-17 -18 -19 -28 -10 -62 7 -25 34 -37 64 -28 30 10 24 20
-12 20 -30 0 -33 3 -33 30 0 27 3 30 33 30 17 0 31 4 29 10 -6 17 -54 17 -71
0z"/>
<path d="M7236 274 c-34 -33 -9 -94 38 -94 31 0 46 18 46 55 0 17 -5 36 -12
43 -17 17 -54 15 -72 -4z m68 -20 c9 -25 -12 -56 -37 -52 -22 3 -33 28 -23 54
7 19 52 18 60 -2z"/>
<path d="M7342 239 c0 -27 4 -52 9 -55 5 -3 9 15 9 40 0 42 2 46 25 46 23 0
25 -4 25 -40 0 -22 5 -40 10 -40 6 0 10 18 10 41 0 36 2 40 23 37 18 -2 23
-10 25 -46 4 -47 22 -48 22 -1 0 56 -12 65 -89 67 l-70 1 1 -50z"/>
</g>
</svg>
