<?xml version="1.0" standalone="no"?>
<!DOCTYPE svg PUBLIC "-//W3C//DTD SVG 20010904//EN"
 "http://www.w3.org/TR/2001/REC-SVG-20010904/DTD/svg10.dtd">
<svg version="1.0" xmlns="http://www.w3.org/2000/svg"
 width="816.000000pt" height="1056.000000pt" viewBox="0 0 816.000000 1056.000000"
 preserveAspectRatio="xMidYMid meet">
<metadata>
Created by potrace 1.16, written by Peter Selinger 2001-2019
</metadata>
<g transform="translate(0.000000,1056.000000) scale(0.100000,-0.100000)"
fill="#000000" stroke="none">
<path d="M225 10318 c-3 -7 -4 -2283 -3 -5058 l3 -5045 2613 0 c1436 0 2612 3
2612 8 0 4 -1172 7 -2605 7 l-2605 0 2 502 3 502 43 13 c34 9 51 10 80 0 55
-18 75 -61 82 -180 4 -65 11 -101 19 -106 15 -10 28 -7 134 25 154 47 237 24
237 -66 0 -37 2 -41 22 -38 16 2 30 19 48 55 33 70 95 142 136 159 64 27 102
-5 144 -123 7 -17 18 -34 26 -37 8 -3 42 9 76 27 78 40 155 45 189 10 27 -27
36 -105 19 -158 -17 -51 -2 -65 40 -35 42 30 111 38 133 15 30 -30 18 -80 -34
-139 -35 -40 -33 -52 5 -42 26 6 68 69 80 118 18 79 -66 129 -156 93 -16 -6
-18 0 -18 55 0 75 -18 110 -73 140 -58 33 -118 23 -239 -38 -5 -2 -8 3 -8 12
0 8 -8 32 -17 53 -68 146 -205 133 -302 -29 -24 -40 -38 -47 -47 -23 -3 8 -21
24 -40 36 -48 29 -122 28 -228 -6 -48 -14 -90 -25 -92 -22 -3 3 -7 33 -8 68
-9 173 -81 247 -207 215 l-49 -13 0 893 0 893 42 12 c33 9 69 9 153 0 81 -9
119 -9 145 -1 19 6 77 15 128 20 106 11 134 25 181 93 42 61 74 87 114 94 36
5 51 -2 175 -79 20 -12 61 -24 104 -28 51 -6 76 -13 85 -26 15 -21 17 -92 3
-128 -14 -37 3 -41 61 -16 104 44 183 36 289 -29 56 -34 88 -39 182 -27 65 8
70 7 138 -27 92 -47 123 -52 212 -32 61 13 81 14 118 4 62 -17 129 -15 167 4
48 26 93 21 129 -12 39 -35 39 -35 64 -201 23 -149 41 -453 33 -554 -7 -77 9
-109 63 -132 44 -18 45 -55 4 -104 -17 -19 -30 -38 -30 -43 0 -12 -52 -84 -94
-132 -63 -70 -72 -173 -19 -215 22 -17 41 -20 125 -20 61 0 111 5 132 14 32
13 142 137 171 193 17 31 20 129 6 165 -5 13 -18 34 -30 47 -13 15 -21 38 -21
60 0 30 5 40 30 55 60 35 64 50 51 203 -6 76 -20 179 -31 228 -25 113 -42 274
-38 357 l3 63 40 -3 c22 -2 56 -14 76 -28 42 -29 54 -30 71 -6 27 37 36 33 72
-28 44 -74 56 -117 101 -350 19 -102 44 -221 55 -265 10 -44 24 -103 30 -131
11 -50 22 -61 73 -78 22 -7 22 -17 -1 -42 -34 -39 -45 -69 -50 -135 -7 -106 7
-135 98 -191 202 -127 227 -135 361 -124 131 11 185 51 183 137 -1 55 -37 108
-106 155 -74 50 -131 94 -190 146 -45 41 -58 58 -63 90 -6 35 -4 44 19 65 19
18 26 34 26 63 0 35 -24 107 -51 154 -7 11 -25 70 -41 130 -16 61 -38 143 -48
181 -40 149 -71 298 -65 314 6 21 46 41 79 41 31 0 89 -25 105 -44 7 -9 28
-25 46 -36 43 -26 71 -15 109 46 15 24 32 44 38 44 5 0 21 -9 35 -20 39 -31
60 -25 126 36 l61 56 67 -4 c54 -4 78 -12 116 -36 70 -45 435 -202 469 -202
19 0 26 -34 13 -66 -6 -17 -9 -69 -7 -123 3 -85 1 -95 -17 -105 -55 -30 -85
-60 -106 -102 -25 -52 -74 -104 -98 -104 -20 0 -82 -37 -98 -59 -22 -29 -26
-87 -9 -120 23 -43 109 -91 164 -91 53 0 83 28 150 136 50 81 106 124 162 124
30 0 84 10 196 37 17 4 27 -5 51 -44 16 -26 37 -69 47 -94 20 -52 49 -87 100
-118 25 -16 39 -35 51 -71 22 -67 68 -110 116 -110 66 0 109 57 109 148 0 17
4 32 9 32 16 0 45 33 141 165 51 68 52 71 48 128 l-4 59 55 -7 c73 -8 163 -51
254 -118 128 -96 150 -108 204 -109 80 -2 125 42 125 121 0 95 -58 163 -216
251 -107 59 -215 80 -446 87 -191 5 -195 6 -220 31 l-25 25 35 -7 c19 -3 92
-9 161 -12 102 -5 136 -3 184 11 137 39 170 162 64 238 -30 22 -48 27 -93 27
l-56 0 76 75 c77 76 88 80 126 48 11 -10 18 -11 23 -4 11 19 50 12 98 -19 26
-16 47 -33 47 -38 0 -4 21 -29 46 -55 62 -64 92 -64 170 -1 100 82 139 92 184
49 15 -14 33 -23 41 -20 8 3 27 37 42 75 18 44 45 86 72 115 42 43 47 45 100
45 37 0 70 -7 97 -21 68 -35 121 -50 151 -43 15 3 53 30 85 59 77 71 100 74
185 30 94 -49 94 -49 207 29 53 38 95 38 149 0 l41 -29 0 -308 0 -308 -68 7
c-90 8 -142 22 -149 40 -3 8 12 40 33 72 33 49 39 65 39 111 0 50 -3 56 -35
80 -19 14 -66 58 -105 98 -90 93 -141 116 -250 117 -89 0 -159 -25 -195 -72
-46 -57 -10 -204 57 -236 51 -24 115 -13 147 25 50 59 135 27 122 -46 -4 -19
-10 -35 -14 -35 -4 0 -18 -10 -32 -22 -97 -88 -93 -86 -187 -93 -227 -17 -304
-36 -401 -102 -72 -49 -203 -176 -234 -228 -54 -87 -66 -233 -30 -346 11 -35
28 -95 36 -132 30 -127 50 -147 159 -158 37 -3 71 -9 74 -13 4 -4 10 -34 13
-67 7 -67 -3 -85 -77 -133 -39 -26 -43 -27 -71 -12 -17 9 -56 19 -87 22 -47 6
-67 15 -121 57 -62 48 -69 50 -138 55 -71 4 -74 4 -110 -28 -41 -36 -66 -78
-66 -110 0 -17 -6 -20 -50 -20 -61 0 -103 -17 -151 -62 -64 -59 -84 -125 -67
-222 2 -15 -8 -21 -52 -33 -30 -7 -56 -18 -58 -23 -2 -6 -9 -10 -15 -10 -6 0
-28 -18 -48 -40 -36 -39 -56 -99 -47 -140 2 -11 -10 -16 -53 -20 -57 -5 -99
-29 -99 -56 0 -24 18 -24 55 -2 39 22 45 22 163 -8 28 -8 29 9 1 48 -17 23
-20 39 -16 76 4 39 12 53 46 83 42 38 102 59 165 59 20 0 36 4 36 9 0 5 -9 30
-21 56 -54 122 44 256 175 240 27 -3 55 -13 63 -21 21 -21 53 -18 53 6 0 10
-6 23 -14 27 -31 17 -23 76 15 115 27 28 37 32 84 32 44 0 62 -5 104 -34 28
-19 51 -38 51 -42 0 -10 80 -36 132 -43 30 -4 59 -16 79 -33 l31 -26 19 25
c10 14 41 41 68 60 28 18 51 37 51 42 0 17 53 5 97 -23 59 -38 87 -38 148 1
52 33 48 33 206 13 36 -4 53 -1 80 15 60 37 154 21 196 -33 27 -33 36 -33 83
5 44 36 105 48 149 29 l30 -12 3 -210 c2 -115 -1 -212 -5 -215 -5 -3 -18 4
-30 15 -58 55 -165 68 -235 29 -37 -20 -105 -90 -114 -119 -3 -9 -15 -7 -42 6
-39 18 -91 18 -212 0 -37 -5 -44 -2 -95 41 -78 68 -160 105 -232 105 -94 0
-137 -32 -137 -104 0 -25 -5 -36 -14 -36 -25 0 -74 -58 -91 -109 -9 -27 -23
-55 -31 -62 -9 -7 -60 -16 -119 -19 -110 -7 -165 -30 -165 -70 0 -32 21 -34
45 -4 21 27 27 28 135 34 107 7 115 9 136 34 13 14 29 45 36 69 13 45 48 86
76 88 9 1 36 1 60 -1 50 -2 59 21 15 42 -40 19 -44 70 -8 86 74 34 166 0 280
-102 53 -47 76 -52 151 -33 99 27 147 19 179 -30 23 -34 42 -28 66 21 71 152
190 187 299 89 l50 -45 0 -393 0 -393 -22 -6 c-13 -3 -83 -6 -155 -6 -84 0
-133 -4 -133 -10 0 -7 58 -10 168 -8 l167 3 3 5049 c2 4033 0 5051 -10 5058
-7 4 -1742 8 -3856 8 -3065 0 -3844 -3 -3847 -12z m1003 -373 c2 -338 1 -357
-15 -350 -97 41 -157 45 -235 15 -65 -25 -67 -25 -61 0 10 36 -18 107 -55 144
-43 43 -84 56 -179 56 -84 0 -93 8 -93 87 0 101 -41 172 -124 216 -43 22 -144
30 -198 14 l-28 -7 0 89 c0 76 3 90 17 93 9 2 231 2 492 1 l476 -1 3 -357z
m3247 354 c21 -22 -33 -99 -97 -137 -43 -27 -105 -93 -118 -127 -5 -14 -11
-47 -12 -75 -3 -49 -4 -51 -28 -44 -109 27 -172 35 -235 30 -87 -7 -149 -30
-250 -90 -43 -27 -99 -57 -124 -68 -64 -28 -197 -67 -255 -76 -82 -12 -67 -29
31 -34 104 -7 153 -24 248 -89 39 -26 83 -53 98 -58 42 -16 112 -13 197 8 83
20 130 13 187 -27 15 -10 53 -32 83 -48 49 -25 65 -29 145 -29 78 0 98 4 149
28 33 15 89 53 124 85 l66 57 125 6 c69 3 137 10 151 16 82 36 153 118 185
214 l16 48 37 -22 c172 -107 363 -98 529 24 121 90 177 232 139 354 -8 27 -14
50 -12 52 1 2 465 4 1029 6 l1027 2 0 -72 0 -73 -30 0 c-38 0 -118 -27 -154
-53 -43 -31 -86 -104 -86 -149 0 -45 -6 -46 -74 -14 -86 40 -187 59 -284 54
-79 -4 -92 -7 -136 -37 -33 -23 -54 -46 -64 -72 l-15 -39 -63 0 c-62 0 -166
-30 -180 -51 -3 -6 -3 -21 0 -34 5 -20 18 -28 64 -40 158 -43 190 -61 258
-150 21 -27 42 -55 48 -60 51 -49 112 -58 185 -25 49 22 54 21 59 -17 5 -39
39 -101 80 -144 71 -77 161 -114 310 -125 l82 -7 0 -1573 0 -1573 -42 -6 c-60
-9 -102 -10 -359 -7 l-226 2 -7 32 c-4 22 -26 50 -67 88 -52 48 -60 61 -57 86
3 26 6 29 33 26 122 -11 149 -8 193 23 50 35 92 114 92 172 0 50 -32 101 -75
119 -65 27 -115 -15 -115 -98 0 -28 -5 -48 -11 -48 -6 0 -32 15 -58 32 -39 28
-55 33 -104 33 -40 -1 -61 -5 -67 -15 -23 -37 -17 6 12 91 27 78 32 109 32
184 1 165 -24 519 -45 645 -11 69 -23 195 -26 281 l-5 156 46 12 c82 20 103
64 86 184 -17 116 -28 145 -72 187 -39 39 -40 41 -33 87 4 27 15 84 26 128 10
44 30 157 44 250 56 364 56 364 -3 423 -21 20 -78 57 -127 81 -50 24 -141 72
-204 108 -62 36 -137 76 -165 90 -66 32 -84 43 -126 74 -19 15 -46 29 -60 32
-45 11 -304 -56 -575 -150 -88 -30 -187 -62 -220 -70 -33 -8 -96 -26 -140 -39
-44 -13 -98 -26 -120 -29 -53 -9 -239 -60 -345 -96 -47 -16 -139 -43 -205 -60
-126 -33 -144 -39 -169 -64 -19 -19 -71 -186 -87 -280 -14 -83 -40 -127 -128
-218 -87 -90 -92 -106 -90 -252 2 -83 -3 -149 -16 -213 -18 -91 -19 -94 -56
-112 -44 -23 -69 -55 -69 -88 0 -39 33 -152 45 -152 5 0 23 7 39 15 40 21 43
20 60 -27 35 -97 48 -379 26 -573 -22 -194 -40 -507 -39 -650 1 -122 -1 -150
-12 -148 -116 17 -183 23 -245 23 l-74 0 -2 53 c-1 28 -2 160 -3 292 0 267 -8
314 -65 373 -60 64 -130 52 -260 -44 -127 -92 -192 -134 -212 -134 -10 0 -36
9 -58 20 -22 11 -55 20 -74 20 -19 0 -67 16 -107 35 -55 26 -87 35 -125 35
-28 0 -99 3 -157 6 l-106 7 -78 78 c-151 150 -224 179 -308 122 -58 -39 -83
-69 -121 -148 -31 -65 -64 -190 -64 -242 0 -22 -55 -73 -79 -73 -18 0 -88 -38
-118 -63 -14 -12 -40 -44 -58 -70 -18 -26 -51 -62 -73 -78 -38 -28 -45 -30
-104 -24 -117 11 -233 27 -348 47 -92 16 -141 19 -245 15 -148 -7 -214 -21
-460 -101 -162 -52 -305 -95 -460 -137 -38 -10 -71 -19 -72 -19 -2 0 -3 560
-3 1245 0 990 3 1245 13 1245 6 -1 39 -7 72 -15 145 -35 198 -11 220 103 7 34
45 77 80 92 39 16 106 71 125 103 16 25 20 50 20 115 l0 82 32 0 c17 0 76 -21
131 -46 82 -39 105 -46 139 -41 41 5 80 39 116 100 42 70 42 66 42 -727 0
-415 -3 -761 -6 -770 -3 -9 -14 -16 -24 -16 -24 0 -80 -53 -81 -77 -2 -45 4
-99 12 -109 11 -14 2 -21 -78 -64 -68 -35 -160 -123 -199 -188 -91 -152 -65
-348 61 -465 98 -91 224 -137 375 -137 142 0 258 38 360 116 133 102 192 209
192 353 0 69 -5 89 -32 146 -71 148 -218 239 -411 252 -47 3 -92 11 -100 17
-18 13 -49 57 -49 68 0 16 33 7 62 -17 34 -29 46 -31 76 -9 17 12 22 25 22 63
0 80 -63 126 -116 86 -46 -35 -44 -60 -42 762 l3 778 40 13 c22 7 94 16 160
20 150 9 154 20 28 72 -83 34 -142 67 -210 116 l-23 17 0 363 0 364 1583 2
c870 2 1594 3 1609 3 15 0 29 -3 33 -6z m1353 -28 c54 -121 -4 -281 -131 -366
-169 -112 -372 -112 -505 0 -18 15 -36 24 -41 21 -5 -3 -14 -27 -20 -53 -17
-66 -84 -164 -134 -195 -56 -35 -113 -47 -224 -48 l-92 0 -68 -55 c-157 -127
-286 -147 -433 -67 -151 83 -154 84 -281 51 -51 -13 -91 -18 -112 -14 -43 9
-97 35 -122 58 -32 29 -155 87 -186 87 -15 0 -31 5 -34 10 -3 6 2 10 12 10 35
1 179 58 248 99 39 23 99 56 135 74 62 30 70 32 185 31 105 0 128 -3 190 -26
38 -15 71 -25 74 -23 2 3 -1 16 -9 29 -19 37 -8 118 23 165 15 22 53 58 84 79
69 47 84 63 109 119 l19 42 650 1 650 0 13 -29z m2082 -576 c0 -250 1 -458 1
-462 2 -12 -130 -3 -196 13 -33 9 -78 26 -101 39 -81 47 -153 152 -154 222 0
17 -4 34 -9 37 -5 3 -35 -8 -66 -24 -96 -50 -134 -38 -220 70 -66 83 -108 113
-190 135 -33 8 -77 20 -97 26 -21 5 -38 16 -38 23 0 25 72 50 152 54 69 4 77
2 87 -17 7 -12 18 -21 26 -21 20 0 19 37 -1 48 -15 9 -15 12 2 43 25 44 50 65
102 85 87 34 264 4 409 -71 41 -20 56 -12 48 26 -4 16 -1 46 5 66 30 93 101
143 233 162 4 1 7 -204 7 -454z m-7478 409 c91 -35 128 -91 135 -206 8 -107
12 -112 114 -114 99 -1 147 -19 181 -66 19 -28 23 -45 23 -109 l-1 -76 61 33
c53 29 71 34 131 34 53 0 78 -6 109 -23 l40 -23 3 -100 3 -100 -38 -40 c-21
-22 -51 -57 -66 -77 -38 -51 -77 -50 -193 5 -86 40 -161 54 -181 35 -4 -5 -7
-41 -5 -80 4 -105 -13 -134 -110 -197 -89 -59 -102 -75 -118 -144 -18 -81 -47
-89 -197 -60 l-83 17 0 643 0 644 28 6 c15 3 32 7 37 9 27 9 89 3 127 -11z
m882 -608 c28 -18 79 -46 113 -62 35 -16 63 -32 63 -36 0 -5 -26 -8 -57 -8
-54 -1 -108 -9 -160 -25 -23 -7 -23 -6 -23 79 0 47 3 86 6 86 4 0 30 -15 58
-34z m5154 -54 c20 -16 70 -46 110 -66 39 -21 72 -42 72 -49 0 -23 -115 -124
-149 -130 -87 -18 -157 -2 -208 45 -36 35 -53 30 -53 -15 0 -50 -40 -119 -80
-140 -77 -40 -188 -8 -238 69 -27 41 -40 43 -48 7 -3 -16 -13 -50 -23 -78 -22
-62 -78 -108 -159 -131 -86 -25 -131 -11 -205 68 -31 33 -59 59 -60 57 -2 -2
-10 -24 -17 -48 -32 -101 -110 -162 -208 -162 -62 -1 -93 12 -146 62 -25 22
-49 38 -54 35 -5 -3 -12 -23 -16 -45 -8 -52 -42 -91 -114 -129 -67 -36 -133
-42 -170 -16 -48 33 -74 132 -48 182 17 33 35 42 151 73 44 12 114 32 155 46
41 13 122 37 180 53 58 15 117 33 133 39 15 6 56 15 91 21 35 5 92 19 127 31
35 11 87 24 114 29 28 6 77 21 110 34 111 44 343 115 595 181 72 19 112 13
158 -23z m284 -156 c31 -19 115 -64 187 -101 179 -91 204 -127 132 -184 -77
-61 -154 -68 -207 -20 -33 30 -61 24 -83 -18 -36 -71 -110 -113 -199 -113 -70
0 -113 16 -157 55 -21 20 -45 35 -53 33 -7 -2 -22 -28 -33 -57 -37 -105 -126
-166 -244 -166 -85 0 -155 25 -205 72 -19 18 -42 33 -50 33 -8 0 -31 -27 -52
-59 -45 -74 -95 -107 -183 -121 -115 -18 -217 11 -287 83 -33 35 -39 37 -44
21 -20 -59 -45 -103 -73 -131 -73 -73 -189 -83 -277 -25 -26 18 -53 31 -58 29
-6 -2 -24 -29 -40 -61 -32 -63 -94 -120 -141 -129 -44 -8 -120 11 -142 36 -32
37 -44 74 -28 87 26 21 54 94 76 195 12 55 25 104 28 108 4 4 13 -10 19 -31
19 -64 42 -77 132 -77 75 0 81 2 137 40 52 36 87 81 106 139 2 6 14 0 28 -14
46 -47 89 -65 159 -65 102 1 189 59 221 149 7 20 15 36 19 36 3 0 17 -15 32
-34 42 -53 107 -80 177 -73 120 10 209 83 235 190 7 29 21 35 29 13 9 -23 89
-73 131 -80 97 -18 185 35 206 124 7 27 14 50 16 50 2 0 25 -12 51 -27 38 -21
61 -27 113 -27 82 0 130 23 196 98 27 30 54 55 59 55 6 1 36 -14 67 -33z m363
-328 c-25 -201 -57 -396 -66 -415 -12 -21 -56 -43 -88 -43 -9 0 -33 9 -54 20
-50 27 -57 26 -100 -19 -36 -38 -103 -68 -194 -86 -54 -11 -134 19 -192 71
l-52 47 -47 -50 c-27 -29 -75 -65 -112 -84 -62 -31 -71 -33 -170 -33 -116 1
-191 21 -253 68 -45 35 -67 33 -108 -10 -50 -53 -101 -74 -186 -74 -78 0 -144
22 -177 59 -26 29 -41 26 -56 -8 -21 -51 -60 -78 -144 -101 -97 -27 -156 -23
-227 14 -28 14 -52 26 -54 26 -2 0 -27 -30 -56 -67 -47 -58 -64 -71 -139 -106
-175 -82 -259 -56 -276 86 -12 99 0 137 62 201 l56 58 18 -29 c30 -49 64 -73
113 -79 98 -14 180 34 231 134 30 60 18 59 103 5 42 -27 146 -24 203 5 56 30
119 96 127 133 3 16 7 29 10 29 2 0 21 -14 42 -31 47 -38 145 -69 216 -69 71
0 176 33 210 67 15 16 41 50 58 76 l30 48 38 -37 c47 -46 92 -63 185 -71 100
-8 163 14 229 81 31 31 56 68 64 94 16 47 21 50 45 23 60 -66 201 -84 292 -38
52 26 104 77 104 102 0 24 19 27 49 6 72 -52 140 -47 221 14 25 18 47 34 48
34 2 1 1 -23 -3 -51z m-220 -459 c30 -18 45 -21 91 -15 33 4 54 2 54 -4 0 -5
-7 -44 -16 -87 -9 -43 -18 -88 -20 -100 -4 -20 -11 -23 -52 -23 -26 0 -85 -7
-132 -15 -94 -17 -206 -28 -520 -51 -261 -19 -772 -14 -940 10 -134 20 -201
20 -292 1 -174 -36 -549 -156 -646 -207 -41 -21 -76 -37 -78 -35 -2 2 3 41 11
88 8 46 15 85 15 87 0 2 16 -9 35 -24 52 -40 130 -31 248 26 73 37 94 52 129
99 23 31 45 60 49 64 4 5 26 -4 50 -20 39 -26 50 -28 133 -27 111 1 189 27
235 80 17 19 31 39 31 44 0 6 18 -3 40 -19 54 -39 117 -55 198 -49 78 6 111
21 171 77 24 23 46 41 48 41 3 0 18 -11 34 -24 38 -32 125 -64 213 -78 59 -9
82 -8 136 6 96 25 160 58 207 106 l41 43 40 -34 c60 -51 130 -73 208 -66 83 8
176 49 209 93 14 19 28 34 30 34 2 0 20 -10 40 -21z m144 -278 c35 -24 58 -75
70 -151 17 -100 14 -144 -9 -165 -34 -30 -284 -44 -865 -45 -286 -1 -592 -2
-680 -2 -88 -1 -281 0 -430 2 -390 5 -532 -16 -778 -114 l-89 -35 -14 34 c-22
53 -17 135 8 135 5 0 28 13 51 29 86 58 197 112 303 146 461 149 514 158 769
129 198 -23 759 -26 985 -6 80 7 195 17 255 23 61 5 144 16 185 24 144 27 197
27 239 -4z m-55 -501 c2 -74 11 -180 20 -235 34 -205 46 -313 46 -420 l0 -110
-21 40 c-40 74 -109 129 -191 151 -145 38 -301 -5 -420 -118 -121 -114 -178
-245 -178 -411 0 -33 -5 -41 -47 -71 -57 -42 -81 -68 -99 -112 -24 -56 -18
-101 16 -136 38 -38 68 -33 122 20 21 19 39 34 41 31 2 -2 14 -31 27 -64 13
-33 41 -86 62 -118 42 -65 47 -81 21 -73 -34 10 -618 96 -722 106 -57 5 -147
10 -201 10 l-98 0 -5 63 c-3 34 -12 168 -21 297 -33 505 -39 569 -65 740 -16
97 -31 182 -35 189 -5 8 -19 10 -38 6 -52 -12 -214 -81 -315 -136 -54 -29
-136 -72 -183 -95 -130 -64 -123 -45 -117 -301 4 -206 15 -344 36 -493 6 -36
13 -104 16 -152 7 -104 21 -97 -148 -66 -106 20 -120 25 -128 46 -20 53 -10
343 27 742 24 259 12 521 -31 656 -6 19 3 24 102 57 208 68 212 69 1333 73
553 3 1034 8 1070 13 36 5 77 8 92 7 l28 -1 4 -135z m-5601 6 c15 -61 -27 -90
-59 -41 -20 31 -63 33 -88 6 -17 -18 -17 -22 -1 -54 9 -20 23 -38 31 -41 19
-7 18 -42 -2 -50 -9 -4 -32 -4 -51 0 -41 8 -63 44 -63 104 0 48 22 74 77 90
21 6 54 19 73 30 44 24 71 10 83 -44z m72 -181 c127 -14 263 -109 321 -224 22
-45 27 -69 28 -135 1 -74 -2 -88 -33 -151 -59 -120 -169 -208 -326 -260 -46
-15 -171 -22 -238 -14 -147 18 -289 116 -344 235 -22 48 -25 66 -21 142 3 72
8 97 33 146 39 80 124 163 210 207 64 33 76 36 135 32 57 -4 67 -2 85 17 15
16 27 20 55 16 19 -3 62 -8 95 -11z m3779 -138 c4 -28 15 -97 26 -152 17 -93
23 -163 50 -575 13 -184 27 -357 36 -421 l6 -47 -40 -7 c-23 -4 -46 -4 -52 0
-6 4 -10 49 -10 108 0 105 -27 554 -34 566 -4 7 -34 361 -39 451 -2 45 -5 55
-21 58 -11 3 -74 -23 -140 -56 -67 -34 -166 -80 -221 -102 -131 -55 -155 -77
-155 -146 0 -74 18 -240 40 -374 17 -103 40 -364 40 -447 0 -29 -3 -33 -25
-33 -32 0 -45 31 -45 103 0 29 -11 151 -25 272 -17 155 -25 275 -25 405 l0
186 113 58 c273 142 342 177 415 205 90 35 96 32 106 -52z m-74 -94 c0 -77 18
-283 36 -413 17 -122 33 -380 35 -565 l1 -130 -128 -3 c-122 -3 -352 12 -363
24 -3 3 -11 101 -17 217 -7 117 -19 248 -27 292 -19 99 -40 316 -35 370 3 38
6 41 73 76 39 20 96 46 127 57 59 22 176 77 238 112 54 31 60 27 60 -37z
m-2544 -177 c56 -41 156 -140 237 -235 l37 -44 168 -8 c92 -4 203 -15 247 -24
139 -26 164 -19 303 84 46 34 87 59 92 56 5 -3 11 3 14 13 8 24 88 62 130 62
76 0 113 -81 118 -257 2 -62 1 -113 -2 -113 -4 0 -16 14 -29 31 -17 23 -24 49
-28 102 -5 78 -27 130 -58 135 -19 4 -105 -34 -105 -46 0 -4 -17 -18 -37 -32
-82 -55 -93 -84 -40 -115 17 -10 58 -39 90 -64 94 -73 108 -81 129 -70 12 7
18 21 18 48 0 54 10 57 38 10 22 -38 24 -49 19 -115 -4 -40 -2 -98 4 -129 15
-80 7 -88 -19 -19 -26 71 -57 107 -137 160 -33 21 -86 60 -118 85 -62 50 -136
79 -200 79 -40 0 -127 34 -127 50 0 19 -96 31 -180 21 -47 -5 -131 -7 -187 -4
-225 13 -339 -41 -564 -266 -109 -109 -131 -137 -167 -211 -41 -83 -72 -200
-72 -275 0 -53 -18 -51 -26 2 -11 73 11 252 42 335 49 136 72 233 83 358 17
177 45 268 109 356 31 42 100 84 138 84 12 0 48 -20 80 -44z m4241 -42 c79
-33 140 -105 174 -206 29 -86 22 -177 -25 -327 -20 -63 -39 -147 -43 -188 -6
-70 -5 -73 16 -73 17 0 21 6 21 30 0 45 24 96 55 116 40 26 88 21 137 -15 44
-32 94 -41 116 -19 7 7 12 38 12 70 0 47 4 59 20 68 26 14 65 -11 79 -50 12
-35 -1 -91 -31 -133 -33 -47 -69 -59 -165 -55 l-86 3 -20 -32 c-32 -55 -15
-91 83 -176 29 -26 32 -33 26 -65 -3 -20 -10 -38 -16 -40 -5 -2 -10 -8 -10
-14 0 -15 -45 -55 -83 -75 -116 -60 -308 -54 -438 12 -48 25 -137 95 -185 147
-136 145 -190 279 -201 503 -8 188 28 295 138 404 125 125 293 170 426 115z
m-3777 -157 c49 -2 78 -9 118 -30 29 -15 79 -31 112 -36 33 -4 63 -11 67 -14
15 -15 -6 -16 -58 -2 -30 8 -135 19 -234 26 -185 11 -215 19 -215 57 0 12 12
14 73 8 39 -4 101 -8 137 -9z m790 -43 c13 -33 25 -214 16 -248 -8 -33 -23
-33 -61 0 -16 15 -65 51 -108 81 -42 30 -75 59 -71 64 3 5 42 36 86 69 89 67
123 75 138 34z m-520 -155 c35 -36 46 -67 31 -82 -20 -20 -140 -11 -226 16
-117 37 -138 40 -202 27 -61 -12 -251 -80 -316 -112 -81 -40 -127 -95 -172
-204 -12 -28 -42 -78 -67 -110 -48 -63 -88 -135 -87 -156 0 -7 4 -3 9 9 5 13
29 48 52 79 81 106 95 129 119 184 48 116 97 159 250 218 206 82 270 89 410
46 70 -21 98 -25 166 -21 76 4 83 3 89 -15 9 -30 -39 -65 -102 -73 -41 -6 -65
-2 -125 20 -143 52 -177 59 -252 47 -93 -14 -170 -61 -220 -132 -53 -77 -83
-109 -156 -165 -50 -38 -69 -60 -88 -104 -43 -98 -55 -117 -108 -174 -28 -31
-66 -86 -84 -122 -27 -54 -37 -66 -55 -63 -28 4 -33 51 -12 112 9 25 20 87 26
138 19 164 97 294 274 456 198 180 232 194 476 202 370 12 338 14 370 -21z
m-1104 -86 c-14 -139 -34 -167 -149 -213 -34 -13 -81 -44 -112 -72 -62 -56
-76 -100 -68 -205 7 -84 2 -100 -57 -167 -66 -75 -80 -105 -80 -167 0 -53 58
-301 86 -367 8 -20 26 -88 40 -150 26 -120 46 -168 89 -217 69 -78 80 -127 54
-238 -31 -131 -20 -177 65 -277 33 -39 51 -73 71 -138 15 -48 34 -106 41 -130
8 -23 14 -68 14 -98 l0 -55 -27 18 c-16 10 -50 29 -78 43 -60 29 -67 36 -89
77 -11 22 -16 58 -16 112 0 44 -4 91 -9 104 -11 28 -48 67 -105 111 -76 58
-94 156 -55 302 26 94 29 185 10 234 -8 19 -46 88 -84 153 -82 139 -107 211
-114 332 -5 91 3 137 42 245 13 33 15 58 9 95 -15 101 -11 126 33 192 25 40
45 84 52 120 15 78 39 114 105 158 53 35 69 51 145 145 27 34 119 91 190 119
2 0 1 -29 -3 -66z m1283 36 c62 -10 96 -27 154 -79 16 -13 63 -47 105 -75 66
-43 81 -58 105 -108 16 -32 27 -60 25 -62 -10 -11 -146 41 -173 65 -38 35 -75
54 -151 75 -83 23 -139 72 -159 138 -8 28 -15 52 -15 54 0 6 45 3 109 -8z
m-395 -130 c102 -35 126 -40 169 -35 28 4 62 16 75 27 30 23 38 17 47 -32 6
-33 4 -37 -36 -65 -39 -26 -49 -29 -118 -27 -313 8 -292 9 -352 -19 -89 -41
-133 -87 -171 -180 -44 -107 -78 -140 -177 -167 -87 -25 -152 -55 -176 -81
-23 -26 -44 -88 -44 -130 l1 -35 9 40 c24 107 64 146 184 176 130 33 172 72
225 202 55 139 196 202 396 176 132 -16 185 -9 234 30 l40 32 0 -38 c-1 -84
-50 -147 -157 -200 -50 -24 -70 -28 -143 -28 -68 0 -93 5 -127 23 -88 46 -164
18 -199 -76 -45 -120 -93 -159 -212 -174 -158 -20 -189 -45 -178 -142 4 -38 0
-61 -19 -107 -14 -32 -25 -74 -25 -94 0 -19 -3 -35 -8 -35 -4 0 -24 14 -44 30
-72 60 -75 143 -8 278 45 90 68 110 175 151 77 28 127 81 185 192 70 136 93
164 162 198 61 31 56 40 -13 21 -62 -17 -116 -74 -166 -174 -25 -50 -60 -110
-79 -133 -33 -41 -121 -93 -156 -93 -17 0 -16 4 6 38 14 20 32 57 41 81 19 56
25 62 114 133 44 35 93 86 123 128 53 75 82 100 144 124 94 36 138 34 278 -15z
m393 -52 c15 -8 52 -20 81 -27 45 -10 134 -63 152 -91 3 -4 34 -15 70 -24 72
-18 110 -39 110 -58 0 -7 26 -53 57 -103 31 -49 63 -111 70 -139 14 -52 16
-133 4 -174 l-7 -24 -17 26 c-9 15 -42 45 -71 67 -57 44 -56 40 -102 194 -26
86 -86 142 -190 179 -43 15 -97 38 -120 52 -50 30 -93 89 -101 140 l-6 38 21
-21 c11 -11 34 -27 49 -35z m-2016 -1 c79 -13 182 -27 229 -31 116 -9 116 -9
87 -47 -14 -18 -30 -49 -36 -68 -6 -19 -17 -55 -25 -80 -8 -25 -31 -72 -51
-105 l-36 -60 6 -102 c6 -90 5 -107 -13 -145 -12 -24 -26 -66 -32 -94 l-11
-52 -42 5 c-138 15 -162 27 -292 138 -47 40 -114 88 -148 105 -100 52 -120 72
-164 162 -58 120 -84 148 -138 148 -39 0 -48 -5 -114 -71 -64 -63 -80 -73
-158 -101 -48 -17 -96 -40 -106 -52 -47 -56 -70 -76 -86 -76 -10 0 -46 -3 -80
-6 l-61 -7 0 154 0 154 118 29 c64 16 207 58 317 93 446 143 550 157 836 109z
m4743 -47 l7 -62 -45 -44 c-47 -44 -54 -48 -72 -35 -40 27 -19 108 43 168 24
24 48 42 53 39 4 -2 11 -32 14 -66z m-4077 -51 c-22 -60 -37 -129 -47 -222
l-8 -78 -61 -55 c-34 -31 -74 -76 -88 -101 -23 -39 -27 -57 -29 -146 -1 -55
-5 -131 -9 -167 -8 -74 7 -115 65 -178 55 -59 77 -103 94 -190 23 -112 31
-127 125 -230 49 -54 53 -74 46 -202 l-8 -119 43 -69 c61 -102 62 -128 6 -239
-25 -51 -50 -92 -55 -92 -4 0 -14 26 -21 58 -21 95 -50 161 -95 217 -80 98
-91 146 -59 269 27 104 14 147 -85 283 -29 40 -40 68 -50 125 -20 108 -30 146
-58 218 -34 86 -83 282 -83 331 0 55 21 100 73 156 67 73 79 107 71 201 -7 88
3 120 57 171 30 29 180 113 188 105 2 -2 -3 -23 -12 -46z m1416 -64 c29 -13
58 -24 65 -24 21 0 105 -47 135 -75 42 -40 53 -63 77 -153 23 -87 43 -115 120
-173 19 -15 47 -51 61 -80 91 -184 95 -210 49 -279 -20 -30 -30 -58 -30 -83 0
-44 10 -66 57 -123 18 -23 33 -50 33 -60 0 -11 -23 -47 -51 -79 -28 -33 -66
-83 -85 -112 -34 -50 -76 -87 -87 -76 -3 3 10 37 30 77 50 97 50 146 0 242
-46 89 -60 154 -45 209 15 51 13 49 37 35 30 -15 47 -2 23 18 -32 28 -44 62
-42 115 4 87 2 91 -59 153 -49 50 -62 70 -81 132 -13 39 -27 72 -31 72 -5 0
-9 5 -9 10 0 18 -32 45 -107 93 -73 47 -116 97 -153 180 -28 61 -24 75 11 38
17 -18 54 -44 82 -57z m-99 -46 c36 -67 62 -93 148 -148 69 -45 80 -56 106
-113 16 -34 35 -78 41 -98 7 -21 34 -57 66 -88 l55 -51 0 -76 c0 -75 -18 -167
-46 -234 -36 -84 -88 -182 -125 -234 -44 -62 -52 -64 -137 -42 -30 8 -60 12
-68 9 -28 -11 -9 -38 36 -53 25 -8 47 -19 48 -24 5 -12 -80 -71 -158 -111
-140 -71 -282 -94 -366 -59 -134 55 -403 195 -511 267 -192 126 -243 188 -268
322 -6 38 -6 39 12 24 44 -39 123 -64 123 -39 0 6 -7 22 -16 35 -22 34 -20 81
6 139 18 39 21 61 17 104 -3 31 -2 63 3 72 11 20 69 36 159 45 l64 6 -27 -31
c-30 -37 -35 -59 -7 -39 142 104 151 107 283 89 192 -24 185 -24 191 0 8 29
-1 48 -24 55 -36 12 -213 21 -254 14 -22 -4 -41 -6 -43 -5 -5 5 59 141 75 158
28 31 64 31 142 -2 91 -37 148 -39 235 -6 94 36 146 74 193 144 18 27 16 28
47 -30z m741 -13 c50 -7 153 -25 230 -39 339 -63 505 -75 950 -66 202 4 347
-7 530 -40 28 -5 100 -16 160 -25 61 -9 160 -25 222 -36 108 -18 113 -21 156
-61 145 -141 304 -207 467 -195 157 12 254 68 319 184 4 8 94 12 324 15 l317
3 0 -1366 0 -1366 -47 23 c-63 32 -92 30 -149 -11 -27 -19 -63 -42 -81 -51
-32 -17 -33 -17 -102 19 -104 55 -137 50 -223 -31 -21 -20 -39 -34 -41 -31 -9
11 -48 229 -45 250 2 16 15 29 38 40 119 55 115 52 114 89 -1 40 -32 159 -45
176 -18 22 -47 21 -115 -2 -37 -13 -73 -24 -79 -24 -7 0 -16 31 -23 77 -16
114 -32 123 -186 104 -54 -8 -74 -15 -98 -38 -32 -30 -31 -19 -12 -157 l6 -44
-38 -11 c-22 -6 -44 -11 -50 -11 -6 0 -29 -13 -52 -30 -48 -34 -68 -88 -57
-157 10 -68 38 -92 117 -101 37 -5 70 -11 73 -13 2 -3 14 -41 26 -85 l21 -80
-25 -37 c-14 -21 -33 -60 -42 -88 l-17 -49 -28 20 c-48 34 -99 27 -162 -22
-29 -24 -68 -50 -87 -60 -42 -21 -56 -15 -127 59 -33 33 -74 63 -111 79 -93
41 -123 58 -123 69 1 24 28 99 37 102 6 2 35 -7 64 -21 40 -18 57 -22 67 -14
18 16 -4 36 -70 64 -40 17 -52 27 -49 41 1 10 6 153 10 318 l6 299 42 8 c50 8
111 38 138 68 29 33 33 133 6 192 -40 88 -125 141 -260 160 -79 11 -81 12
-122 60 -40 48 -42 53 -55 160 -12 93 -21 125 -56 202 l-43 91 0 227 c0 214 1
228 21 255 26 34 72 41 110 17 14 -10 50 -55 80 -100 63 -98 98 -123 143 -100
33 18 51 73 51 161 0 47 -8 71 -51 158 -61 121 -109 172 -198 211 -94 42 -145
35 -253 -33 -46 -29 -115 -67 -154 -86 -157 -74 -210 -130 -279 -299 -22 -56
-68 -141 -101 -191 -81 -120 -99 -159 -130 -284 -14 -58 -43 -142 -64 -187
l-38 -81 -50 5 c-60 5 -201 -22 -256 -50 -47 -24 -83 -60 -97 -95 -13 -34 12
-88 50 -108 26 -13 31 -21 31 -53 0 -32 -33 -177 -60 -267 -44 -146 -80 -332
-80 -419 l0 -42 -72 -15 c-52 -10 -73 -18 -73 -29 0 -16 41 -19 115 -9 35 4
35 4 38 -38 3 -38 1 -43 -18 -43 -34 0 -90 -28 -90 -45 0 -20 26 -30 43 -17 6
6 28 13 47 17 35 6 35 6 53 -48 9 -29 17 -56 17 -60 0 -3 -24 -3 -52 0 -48 4
-57 2 -95 -26 -49 -36 -75 -99 -55 -132 18 -28 15 -32 -23 -25 -57 11 -112
-10 -170 -65 -29 -27 -57 -49 -62 -49 -6 0 -22 9 -37 21 -33 26 -65 20 -88
-18 -9 -15 -27 -38 -41 -51 l-24 -23 -52 40 c-66 49 -127 68 -172 52 -53 -18
-56 -16 -69 62 -18 106 -84 378 -120 486 -30 94 -40 194 -20 206 6 3 10 13 10
22 0 8 13 43 30 77 23 48 40 68 81 96 89 59 109 80 145 151 19 38 40 69 48 69
7 0 30 -7 50 -15 27 -11 42 -13 56 -5 27 14 34 31 65 139 14 51 33 104 42 118
9 14 51 51 92 83 97 74 117 96 136 150 12 34 14 64 9 121 -7 87 4 134 45 189
14 19 29 37 32 40 8 6 93 173 110 215 7 17 11 38 10 48 -3 23 33 78 101 155
59 66 111 161 106 195 -2 12 -13 26 -25 32 -18 8 -23 18 -23 46 0 40 -19 63
-44 53 -10 -4 -16 -1 -16 7 0 34 -63 66 -72 37 -3 -8 -18 -12 -40 -10 -30 3
-36 0 -46 -25 -6 -15 -13 -57 -15 -92 -3 -35 -10 -68 -16 -74 -9 -9 -11 -4 -9
18 7 101 -88 53 -111 -55 -6 -28 -11 -61 -11 -73 0 -40 -12 -66 -37 -83 -24
-15 -26 -15 -47 7 -78 86 -82 110 -30 189 42 65 41 101 -2 190 -25 51 -27 65
-28 196 l-1 140 -48 95 c-64 127 -63 129 21 128 37 0 108 -6 157 -14z m-3363
-57 c9 -7 38 -55 64 -106 26 -52 60 -106 76 -120 15 -15 28 -30 28 -33 0 -3
-27 -12 -60 -19 -78 -16 -95 -29 -86 -63 7 -31 25 -33 108 -16 55 12 88 32 88
56 0 27 34 13 120 -51 30 -23 62 -48 70 -56 103 -96 151 -121 240 -127 115 -7
110 -4 110 -81 0 -60 -4 -75 -34 -124 -34 -57 -50 -110 -61 -204 -4 -29 -17
-73 -31 -100 -20 -39 -24 -62 -24 -136 0 -86 -1 -88 -24 -88 -37 0 -52 -25
-32 -55 9 -14 23 -25 31 -25 16 0 19 -18 7 -38 -7 -10 -16 -9 -46 3 -21 9 -45
14 -52 11 -23 -9 -16 -53 13 -80 l27 -25 -46 -43 c-24 -24 -73 -59 -108 -77
-59 -32 -67 -33 -132 -28 -55 5 -81 13 -121 38 -73 45 -131 83 -137 89 -33 35
-137 99 -413 254 -77 43 -154 92 -173 108 l-34 30 0 398 0 398 31 6 c17 3 51
6 76 6 56 0 77 11 133 70 37 39 57 51 119 69 66 20 82 30 152 97 80 76 93 83
121 62z m1261 -195 c3 -27 9 -74 13 -105 6 -55 6 -58 -15 -58 -38 0 -78 -28
-96 -67 -31 -64 2 -185 68 -253 34 -35 99 -69 132 -70 35 -1 46 -16 49 -66 3
-59 25 -109 76 -166 48 -56 66 -91 78 -159 6 -31 25 -78 42 -106 53 -85 66
-185 29 -219 -12 -10 -32 -41 -46 -69 -14 -27 -39 -72 -56 -98 l-31 -48 -12
33 c-6 18 -28 60 -48 93 -39 66 -42 82 -24 186 15 93 2 131 -68 211 -72 82
-89 117 -103 208 -14 91 -38 138 -102 204 -64 66 -76 105 -60 194 6 37 10 103
9 148 -3 73 0 84 24 121 27 40 116 133 129 133 3 0 9 -21 12 -47z m961 -35
c13 -7 15 -13 7 -21 -7 -7 -35 -6 -98 6 -49 10 -110 17 -138 17 -37 0 -46 3
-35 11 18 12 236 2 264 -13z m-2024 -67 c0 -16 -25 -29 -78 -40 -68 -14 -72
-14 -72 3 0 9 20 21 48 29 55 17 102 21 102 8z m1123 -134 c24 -22 38 -46 43
-72 4 -22 13 -49 19 -60 7 -11 16 -42 19 -70 4 -27 10 -58 13 -69 5 -17 1 -18
-43 -11 -75 11 -120 46 -160 125 -28 56 -32 134 -8 168 24 34 74 30 117 -11z
m2343 -92 c3 -8 -2 -49 -11 -91 -24 -107 -4 -119 29 -17 10 28 24 57 33 65 15
12 16 9 9 -30 -3 -24 -15 -61 -26 -83 -41 -79 -13 -90 33 -12 20 32 31 43 39
35 15 -15 -41 -114 -98 -177 -25 -27 -62 -74 -81 -102 -20 -29 -40 -53 -45
-53 -24 0 -79 32 -108 62 -31 32 -32 34 -28 118 3 82 27 160 49 160 5 0 9 -18
9 -40 0 -86 73 -27 85 70 11 79 16 100 27 100 7 0 9 -25 4 -75 -5 -59 -4 -75
6 -75 8 0 21 30 32 80 19 78 31 96 42 65z m1496 -40 c63 -42 79 -62 137 -175
46 -88 54 -113 54 -155 -3 -129 -55 -139 -115 -22 -29 57 -95 124 -133 137
-68 23 -147 -25 -161 -96 -3 -17 -6 -125 -7 -240 -2 -184 0 -215 17 -259 11
-27 22 -52 26 -55 4 -3 17 -32 30 -65 27 -71 40 -248 21 -283 -15 -28 -81 -45
-142 -37 -38 5 -48 11 -51 27 -5 37 -48 57 -158 73 -110 17 -157 14 -196 -12
-28 -18 -53 -14 -179 29 -135 45 -130 40 -100 98 13 27 28 51 33 54 11 6 82
-41 101 -67 9 -12 17 -15 23 -9 19 19 -4 52 -58 84 -30 18 -54 37 -54 41 0 5
12 57 26 115 23 95 62 182 82 182 4 0 18 -12 31 -25 13 -14 27 -25 32 -25 18
0 8 22 -21 47 -35 29 -36 33 -10 61 30 31 84 136 120 229 19 51 46 99 70 126
42 47 131 106 193 128 20 7 37 17 37 21 0 4 4 8 9 8 5 0 47 23 93 51 81 50 84
51 146 46 46 -3 74 -12 104 -32z m-4361 -212 c6 -21 42 -88 79 -148 89 -148
104 -189 97 -268 -3 -34 -13 -82 -23 -107 -10 -28 -17 -78 -18 -130 -1 -109
24 -166 93 -212 74 -49 83 -67 95 -192 15 -143 27 -165 122 -211 88 -42 117
-68 132 -121 6 -22 23 -56 36 -75 14 -19 35 -54 46 -79 83 -174 88 -182 204
-306 76 -81 83 -102 85 -239 1 -33 8 -96 16 -140 32 -173 55 -319 51 -323 -3
-2 -15 3 -28 12 -31 22 -77 20 -135 -5 -47 -20 -50 -20 -124 -4 -63 15 -83 15
-125 5 -103 -25 -109 -24 -196 16 -85 40 -89 41 -240 34 -50 -3 -72 1 -85 12
-25 21 -115 68 -132 68 -11 0 -12 17 -7 93 18 251 19 253 131 243 41 -4 93 -2
123 4 43 10 52 16 61 42 17 49 14 184 -5 213 -15 23 -22 25 -103 25 -47 0
-109 3 -138 6 l-52 7 5 161 c3 97 2 167 -4 175 -18 26 -203 42 -242 21 -32
-17 -42 -48 -51 -159 -11 -136 -16 -141 -138 -141 -105 0 -154 -12 -169 -43
-17 -34 -32 -98 -32 -139 0 -47 22 -63 128 -92 60 -17 79 -27 89 -46 16 -31
16 -93 2 -160 l-11 -51 -31 26 c-55 44 -124 75 -167 75 -42 0 -67 -20 -173
-138 -36 -39 -43 -42 -88 -42 -28 0 -83 -7 -124 -15 -50 -11 -116 -15 -207
-13 -73 2 -143 -1 -155 -5 l-23 -8 0 640 0 641 70 0 c51 0 82 6 117 23 27 12
50 25 51 30 6 13 47 7 88 -12 47 -23 130 -41 186 -41 26 0 61 11 100 32 l60
32 26 -30 c93 -105 226 -122 310 -38 46 46 45 102 -3 162 l-34 44 60 30 c33
17 84 54 114 83 48 48 55 52 72 40 53 -41 95 10 54 65 -15 21 -19 35 -12 52 7
19 14 22 52 20 55 -4 90 18 73 45 -6 10 -29 28 -51 41 -40 22 -41 23 -48 96
-6 65 -4 79 16 117 29 58 38 91 48 175 6 48 17 86 36 118 15 25 28 46 30 46 2
0 9 -17 16 -37z m2242 -20 c4 -20 23 -70 43 -110 44 -90 42 -116 -17 -232
l-40 -79 -67 -17 c-37 -9 -72 -19 -79 -20 -24 -7 -32 23 -30 117 2 89 4 99 28
125 29 31 92 134 108 176 6 15 15 38 21 52 14 35 26 31 33 -12z m-1586 -11
c31 -69 159 -168 384 -298 123 -71 159 -114 94 -114 -25 0 -85 -30 -85 -42 0
-5 -5 -8 -11 -8 -6 0 -29 -14 -51 -32 -36 -28 -40 -35 -35 -65 5 -31 3 -35
-28 -50 -19 -9 -37 -14 -40 -12 -2 3 -9 35 -14 70 -6 43 -19 82 -39 115 -17
27 -36 78 -43 114 -14 73 -25 94 -86 163 -54 61 -73 100 -73 149 0 45 10 49
27 10z m2003 -184 c14 -8 42 -20 63 -27 20 -7 37 -15 37 -17 0 -14 -76 -164
-102 -203 -34 -50 -137 -171 -178 -209 -84 -79 -236 -145 -394 -172 -61 -10
-107 -31 -141 -65 -34 -33 -146 -190 -151 -212 -4 -14 -4 -59 0 -99 3 -41 3
-74 -1 -74 -15 0 -114 83 -140 117 -15 21 -34 44 -41 51 -25 28 -44 75 -72
192 -28 112 -41 215 -21 165 5 -11 12 -42 16 -70 4 -27 10 -52 13 -55 4 -3 12
-14 18 -25 17 -30 59 -31 89 -1 33 33 32 62 -3 94 -20 19 -31 40 -35 71 -7 58
16 92 86 127 29 15 63 36 77 49 45 40 108 57 245 65 100 6 147 14 204 34 99
34 109 42 165 123 26 37 66 91 89 119 23 28 50 66 60 85 l19 34 36 -41 c21
-23 48 -48 62 -56z m-696 -42 c31 -8 45 -16 37 -20 -17 -11 -94 2 -117 19 -18
14 -18 14 6 14 14 0 47 -6 74 -13z m71 -214 c-2 -2 -32 -5 -66 -6 -35 -2 -86
-11 -112 -20 -27 -10 -51 -15 -54 -12 -3 2 -2 17 2 33 5 22 31 44 114 98 l106
71 6 -81 c4 -44 6 -81 4 -83z m-3424 47 c16 -11 29 -25 29 -30 0 -10 -2 -13
-44 -64 l-25 -30 -1 73 c0 39 3 72 6 72 3 0 19 -9 35 -21z m2734 -55 c54 -26
117 -49 141 -52 41 -4 58 -22 35 -37 -5 -3 -12 -19 -16 -35 -8 -36 -27 -42
-140 -44 -107 -1 -112 4 -117 102 -2 42 -8 85 -12 95 -12 26 2 22 109 -29z
m-2627 -10 c26 -15 57 -33 70 -41 l23 -14 -43 -52 c-24 -28 -49 -58 -56 -66
-8 -8 -32 -43 -54 -78 -22 -34 -42 -63 -46 -63 -3 0 -14 7 -24 17 -15 13 -18
32 -18 109 l0 94 43 59 c23 33 46 60 50 60 5 1 29 -11 55 -25z m2476 10 c13
-5 16 -24 16 -100 l0 -93 -29 5 c-22 5 -34 1 -47 -15 -27 -30 -39 -26 -74 24
-17 25 -40 49 -50 55 -34 18 -23 36 53 84 70 44 98 53 131 40z m576 -22 c0
-40 -22 -66 -84 -95 -30 -14 -61 -36 -70 -49 -14 -19 -19 -21 -36 -10 -11 6
-27 12 -36 12 -36 0 23 120 59 121 12 0 49 11 82 23 79 31 85 31 85 -2z
m-1875 -39 c44 -21 45 -33 3 -33 -37 0 -128 30 -128 42 0 15 89 8 125 -9z
m-1022 -34 c23 -12 50 -28 59 -37 17 -14 16 -17 -13 -51 -71 -83 -201 -211
-214 -211 -7 0 -27 12 -44 26 -30 25 -30 26 -15 56 18 36 81 124 107 153 11
11 30 35 44 53 14 17 27 32 30 32 2 0 23 -10 46 -21z m152 -89 c84 -48 85 -51
24 -116 -57 -61 -203 -174 -223 -174 -16 0 -97 53 -94 61 2 4 41 47 88 96 47
49 96 106 110 126 14 20 29 37 34 37 5 0 32 -14 61 -30z m755 4 c22 -15 40
-33 40 -40 0 -20 -6 -18 -56 18 -69 50 -55 69 16 22z m1256 -25 c15 -23 39
-45 52 -50 22 -9 23 -13 19 -72 -3 -34 -9 -78 -12 -99 -6 -32 -4 -38 19 -53
17 -12 35 -15 56 -10 l32 7 -18 -34 c-9 -18 -34 -58 -55 -89 -21 -32 -49 -81
-62 -110 -13 -30 -33 -62 -44 -72 -20 -17 -20 -16 -36 82 -10 55 -17 112 -17
126 0 20 -4 26 -17 23 -10 -2 -17 -10 -15 -16 1 -7 3 -43 4 -81 2 -63 0 -71
-27 -104 -17 -20 -35 -36 -42 -36 -6 -1 -20 15 -32 34 -22 38 -41 46 -41 17 0
-23 22 -55 81 -118 27 -29 51 -65 54 -80 3 -16 13 -55 22 -86 9 -31 13 -63 11
-70 -3 -8 -29 -20 -58 -27 -38 -10 -63 -25 -91 -54 -22 -22 -41 -38 -43 -36
-8 9 -66 138 -66 146 0 5 -23 45 -51 88 l-50 80 3 105 c3 104 4 106 59 220 48
99 88 170 176 315 15 25 123 91 154 94 4 1 19 -17 35 -40z m1524 -54 c0 -113
-12 -135 -118 -215 -47 -36 -94 -77 -105 -92 -11 -15 -33 -75 -48 -134 -16
-59 -32 -111 -37 -116 -6 -6 -24 -3 -45 6 -37 15 -54 16 -74 3 -9 -6 -13 0
-13 21 0 34 35 90 85 133 48 43 54 56 66 151 10 85 40 168 58 168 18 0 144 85
181 122 19 19 38 36 43 37 4 0 7 -37 7 -84z m-1070 52 c0 -10 -5 -27 -10 -38
-9 -17 -22 -19 -100 -19 -84 0 -90 1 -90 20 0 13 -10 24 -26 30 -46 18 -17 25
105 25 110 0 121 -2 121 -18z m79 -6 c15 -27 18 -123 5 -128 -7 -2 -16 19 -23
49 -7 29 -14 63 -18 76 -7 28 22 31 36 3z m-391 -73 c-2 -60 -6 -73 -20 -76
-16 -3 -18 5 -18 60 0 59 11 88 32 88 5 0 8 -33 6 -72z m102 27 c13 -24 17
-25 106 -25 l92 0 4 -46 c2 -35 -1 -48 -12 -52 -8 -4 -62 -6 -120 -7 l-105 0
-6 65 c-4 36 -4 71 -2 78 8 20 29 14 43 -13z m-2114 -22 c24 -16 46 -33 48
-39 10 -27 -214 -224 -255 -224 -24 0 -99 37 -99 49 0 4 14 19 32 32 110 83
208 177 208 199 0 17 21 11 66 -17z m104 -73 c14 -11 30 -20 36 -20 6 0 17 -7
25 -16 11 -13 8 -19 -17 -42 -16 -15 -49 -41 -73 -57 -98 -68 -114 -75 -173
-75 -32 0 -58 3 -58 8 1 4 30 28 65 54 35 27 86 75 112 107 26 33 50 60 53 60
3 0 16 -8 30 -19z m3000 -52 c-10 -29 -23 -84 -28 -123 -10 -65 -14 -73 -63
-120 -58 -55 -74 -86 -84 -160 -10 -77 -51 -143 -115 -187 -30 -21 -62 -43
-71 -50 -24 -20 -59 -74 -59 -92 0 -33 -19 -14 -35 34 l-17 50 45 78 c25 42
57 113 71 158 20 59 36 90 62 115 71 68 79 85 84 194 l5 100 100 26 c55 15
105 28 111 28 8 1 6 -17 -6 -51z m-3660 19 c14 -12 58 -44 97 -70 40 -27 75
-52 78 -57 7 -11 -57 -45 -103 -55 -18 -4 -50 -4 -72 0 l-40 7 0 99 c0 54 3
99 8 99 4 0 18 -10 32 -23z m3038 -3 c4 -25 -22 -49 -43 -40 -18 7 -20 52 -2
59 23 10 42 2 45 -19z m-155 -11 c3 -5 8 -27 12 -50 l7 -43 -36 0 c-32 0 -36
-3 -47 -40 l-12 -40 -109 0 c-59 0 -108 2 -108 5 0 4 8 20 17 38 9 18 19 50
22 72 l6 40 115 11 c63 6 118 12 122 12 4 1 9 -1 11 -5z m-307 -18 c8 -20 -13
-45 -38 -45 -21 0 -33 22 -24 45 7 20 55 19 62 0z m-1685 -18 c48 -31 75 -89
59 -126 -25 -62 -138 -81 -206 -35 -68 47 -81 80 -41 107 13 8 37 29 53 46 36
39 85 42 135 8z m2540 -64 c-4 -100 -11 -119 -75 -186 -35 -38 -51 -67 -72
-130 -28 -87 -52 -139 -78 -172 -15 -19 -16 -15 -10 55 4 42 13 81 21 88 7 8
12 22 9 31 -3 9 -8 46 -11 83 -6 54 -4 72 11 100 11 18 21 35 24 38 3 3 25 32
49 65 51 70 99 115 121 115 13 0 14 -14 11 -87z m1366 46 c15 -7 42 -17 58
-24 17 -7 64 -20 105 -30 41 -10 76 -19 77 -19 1 -1 -9 -35 -23 -76 -19 -53
-25 -87 -21 -118 2 -23 2 -41 -2 -40 -3 2 -19 10 -36 18 -16 8 -32 17 -35 20
-3 3 -22 16 -42 30 -21 14 -38 28 -38 33 0 4 -4 7 -9 7 -4 0 -37 20 -73 43
l-65 44 15 49 c22 76 34 85 89 63z m-132 -36 c-3 -21 -10 -42 -15 -47 -5 -5
-31 -3 -61 4 -33 8 -80 10 -130 6 -44 -4 -79 -4 -79 -1 0 25 154 73 239 74
l53 1 -7 -37z m608 -14 c110 -17 107 -14 107 -127 0 -164 -24 -183 -192 -160
-124 18 -148 31 -148 86 0 47 39 167 62 192 22 23 64 25 171 9z m-2389 -9 c16
-6 28 -20 32 -37 4 -15 20 -52 36 -80 l29 -53 -224 0 c-123 0 -226 3 -230 6
-3 3 6 24 20 45 l25 38 121 3 c129 3 130 4 142 61 6 30 11 32 49 17z m2818
-57 c37 -41 51 -72 58 -130 l6 -53 -110 0 c-61 0 -138 -7 -171 -15 -33 -7 -63
-11 -67 -7 -3 4 -3 27 2 52 5 25 9 61 10 82 l0 36 90 4 c82 3 92 5 117 31 15
15 30 27 33 27 4 0 18 -12 32 -27z m-1036 -43 c44 -22 106 -60 139 -85 77 -59
169 -110 223 -125 23 -6 92 -15 153 -20 104 -10 118 -9 262 21 212 43 278 39
418 -27 80 -37 114 -48 156 -48 60 -1 62 -10 12 -44 -30 -21 -42 -23 -109 -18
-41 3 -210 10 -375 15 -300 9 -410 21 -520 57 -59 20 -302 127 -417 185 -45
23 -107 47 -137 55 -79 20 -111 34 -111 50 0 15 34 20 146 22 77 2 86 0 160
-38z m1219 -31 c84 -15 149 -61 182 -126 34 -70 27 -83 -40 -83 -41 0 -70 8
-124 35 -38 19 -75 40 -80 47 -6 7 -14 41 -18 76 -8 71 -12 68 80 51z m-2840
-108 c28 -26 61 -54 74 -60 49 -27 5 -34 -233 -39 l-234 -5 -7 42 c-8 50 -22
58 -65 36 -30 -15 -33 -15 -51 0 -10 10 -25 15 -34 12 -8 -4 -15 -2 -15 3 0
20 24 59 38 62 8 2 119 2 246 0 l231 -3 50 -48z m1607 -21 c233 -112 321 -148
425 -174 115 -29 301 -46 503 -45 80 1 179 -2 220 -6 l75 -7 -2 -291 c0 -161
-5 -305 -10 -322 -7 -22 -18 -31 -44 -38 -67 -17 -83 -53 -19 -42 46 8 50 -1
24 -64 l-16 -39 -54 5 c-64 7 -77 -13 -14 -23 53 -9 52 -29 -5 -87 -64 -65
-117 -98 -221 -140 -265 -105 -690 -59 -931 100 -125 83 -217 193 -248 297
-14 46 -14 52 1 63 14 10 14 13 -5 23 -23 12 -23 13 -24 200 0 130 13 193 98
479 14 46 25 105 25 130 0 26 3 51 7 55 15 15 76 -6 215 -74z m-2293 -82 c0
-21 -1 -38 -4 -38 -10 0 -54 54 -55 66 0 6 10 24 22 40 l23 28 6 -29 c4 -17 7
-47 8 -67z m161 57 c0 -19 27 -19 64 0 34 18 35 17 41 -23 7 -57 -1 -55 254
-49 130 3 246 9 258 13 17 5 22 1 25 -18 2 -12 2 -35 0 -50 -4 -25 -8 -27 -71
-35 -86 -10 -615 -10 -664 0 -37 8 -38 9 -35 50 3 41 4 42 40 45 32 3 39 8 44
30 3 15 7 33 10 40 5 17 34 15 34 -3z m-57 -23 c-8 -20 -24 -33 -35 -26 -4 3
0 16 9 29 20 25 36 24 26 -3z m-1136 -149 c14 -6 15 -23 10 -158 -4 -84 -9
-159 -12 -167 -9 -22 20 -27 165 -35 69 -3 131 -10 138 -16 8 -6 12 -39 12
-98 0 -77 -3 -92 -21 -110 -20 -20 -29 -21 -123 -17 -163 9 -170 0 -182 -223
l-7 -127 -55 -6 c-31 -4 -74 -15 -97 -25 l-41 -18 4 53 c2 29 1 65 -2 79 -8
32 -57 55 -116 55 -46 0 -47 2 -30 108 13 75 1 131 -32 151 -12 8 -56 22 -97
33 -41 10 -79 24 -83 31 -21 33 0 160 30 176 9 5 65 11 124 13 159 7 159 7
174 196 9 117 20 126 137 118 48 -4 95 -10 104 -13z m1413 -18 c135 0 284 4
332 8 l86 7 -1 -34 c-1 -32 -3 -34 -28 -29 -21 4 -31 0 -41 -16 -13 -22 -38
-29 -38 -11 0 6 -13 10 -30 10 -28 0 -30 -2 -30 -39 0 -51 -2 -51 -285 -57
-216 -4 -232 -3 -263 16 -36 22 -50 50 -59 118 l-6 45 59 -9 c32 -5 169 -9
304 -9z m400 -115 c4 -47 8 -54 27 -55 28 -2 30 -4 38 -37 9 -34 -3 -40 -123
-63 -73 -14 -121 -16 -230 -11 -228 10 -302 17 -302 31 0 7 -9 24 -20 38 -11
14 -20 27 -20 29 0 1 51 1 112 -3 110 -5 282 5 343 20 25 6 31 13 33 42 5 46
17 57 41 35 24 -22 57 -14 64 15 10 39 32 14 37 -41z m3644 25 c8 -8 18 -37
21 -63 4 -26 11 -62 17 -79 12 -40 33 -42 110 -13 76 29 94 27 106 -12 46
-154 45 -149 31 -162 -8 -7 -40 -21 -71 -31 -48 -16 -60 -25 -74 -54 -16 -33
-16 -39 10 -140 14 -58 26 -116 26 -128 0 -32 -31 -30 -110 8 -86 41 -152 47
-204 20 -22 -11 -41 -19 -43 -17 -2 2 -12 34 -22 72 -11 37 -27 74 -37 81 -9
7 -44 15 -77 19 -79 9 -97 27 -97 99 0 91 17 111 135 153 l50 18 -1 49 c0 28
-4 71 -9 96 -7 43 -5 48 16 60 65 35 197 49 223 24z m-3610 -40 c3 -8 1 -15
-4 -15 -6 0 -10 7 -10 15 0 8 2 15 4 15 2 0 6 -7 10 -15z m-723 -66 c54 -38
75 -69 48 -69 -12 0 -72 40 -77 52 -5 10 -42 10 -42 1 0 -16 16 -31 78 -72
100 -67 75 -86 -35 -26 -72 40 -73 40 -73 22 0 -7 33 -31 73 -54 73 -41 105
-82 53 -69 -14 3 -48 20 -76 36 -41 24 -52 27 -56 15 -3 -8 8 -28 25 -47 30
-31 49 -73 39 -84 -7 -6 -40 26 -68 66 -14 19 -46 55 -72 78 -54 50 -64 73
-49 111 13 31 40 49 96 67 61 19 72 17 136 -27z m739 -181 c6 -45 20 -98 29
-118 31 -63 78 -267 121 -530 12 -74 31 -171 41 -215 l19 -80 -37 -31 c-26
-22 -42 -29 -50 -22 -6 5 -24 8 -40 6 -23 -2 -29 -8 -31 -35 -4 -43 24 -101
59 -118 47 -25 84 -19 113 17 29 37 26 41 61 -84 12 -46 33 -111 46 -146 l23
-63 -24 -22 c-72 -65 -138 -92 -215 -88 -23 1 -17 -24 -94 356 -54 262 -75
331 -125 405 -17 25 -69 122 -117 215 -47 94 -98 191 -112 217 -35 60 -34 68
6 69 29 0 30 1 10 11 l-21 10 24 46 c21 39 24 58 24 148 l0 104 58 0 c31 1 84
7 117 14 106 24 101 27 115 -66z m-402 57 c2 -1 7 -65 11 -141 8 -127 7 -142
-11 -171 -17 -29 -19 -58 -21 -395 l-2 -363 32 -150 c38 -177 46 -302 21 -316
-29 -16 -158 -39 -222 -39 l-63 0 -7 193 c-8 217 -25 380 -61 571 -14 72 -34
179 -45 237 -22 116 -50 359 -43 372 2 4 9 5 14 2 5 -4 19 -3 30 0 19 6 21 13
17 50 l-5 43 28 -10 c38 -13 73 5 67 36 -3 12 2 28 10 35 8 8 11 23 7 39 l-6
25 123 -7 c67 -4 124 -9 126 -11z m85 -46 c4 -24 5 -66 2 -92 -7 -58 -35 -132
-45 -120 -4 4 -11 66 -14 136 l-7 128 28 -4 c24 -3 29 -9 36 -48z m34 -524
c30 -60 65 -132 79 -158 24 -47 24 -49 7 -77 -21 -36 -29 -37 -60 -8 -16 15
-40 23 -79 26 l-57 5 7 96 c3 53 6 141 6 196 l0 100 21 -35 c12 -19 46 -84 76
-145z m1343 107 c0 -13 -12 -22 -22 -16 -10 6 -1 24 13 24 5 0 9 -4 9 -8z m93
-33 c25 -16 49 -39 52 -49 6 -19 -28 -114 -49 -137 -9 -10 -19 -9 -49 4 -43
20 -48 33 -13 33 29 0 56 33 56 68 0 12 -11 34 -25 48 -20 20 -28 23 -45 14
-11 -6 -20 -18 -20 -28 0 -9 -10 -22 -22 -27 -16 -7 -22 -17 -20 -35 l2 -24
-25 24 -25 23 25 23 c21 19 23 27 15 49 -14 37 -13 39 15 21 19 -13 30 -14 45
-6 11 6 20 15 20 20 0 16 14 12 63 -21z m-166 -43 c-4 -9 -11 -16 -17 -16 -11
0 -14 33 -3 44 11 10 26 -11 20 -28z m143 -47 c0 -33 -28 -52 -64 -43 -35 8
-41 33 -11 44 14 5 25 18 25 28 0 10 3 22 7 25 12 13 43 -26 43 -54z m2898 17
c30 -15 84 -65 100 -92 4 -6 33 -30 65 -54 82 -61 86 -97 22 -193 -70 -104
-41 -132 163 -153 l62 -7 0 -38 c0 -22 1 -42 3 -46 1 -5 -34 -9 -78 -9 -89 -2
-157 -25 -200 -68 -30 -30 -33 -84 -9 -148 33 -84 79 -107 217 -108 l68 0 -3
-57 c-3 -55 -4 -58 -31 -61 -19 -2 -43 6 -68 23 -32 21 -50 25 -87 23 -41 -3
-49 -7 -69 -38 -43 -68 -46 -70 -131 -70 -80 0 -102 9 -102 41 0 10 -11 30
-24 46 -22 25 -31 28 -103 31 l-78 4 -47 -41 c-38 -34 -53 -41 -86 -41 -65 0
-90 14 -98 54 -4 25 -18 45 -48 69 -80 66 -123 75 -176 37 -66 -47 -63 -94 7
-113 62 -16 77 -41 69 -115 -3 -31 -3 -62 2 -68 11 -18 44 -31 92 -39 25 -4
82 -16 128 -27 46 -10 92 -16 103 -13 11 4 29 27 41 51 l21 45 61 -3 61 -3 7
-54 c7 -60 17 -71 68 -71 19 0 53 -5 74 -10 66 -15 95 -3 116 45 21 48 33 55
101 55 45 0 49 -2 54 -27 13 -61 28 -78 70 -77 22 1 48 3 57 5 9 2 17 1 17 -3
1 -5 1 -51 1 -104 0 -95 0 -95 -22 -87 -44 16 -114 7 -161 -20 l-44 -26 -34
25 c-68 50 -127 55 -210 18 -57 -26 -59 -26 -99 -10 -67 27 -127 21 -189 -19
l-54 -34 -51 28 c-28 15 -63 31 -78 34 -25 7 -28 12 -28 48 0 49 -22 104 -47
118 -11 5 -44 13 -74 16 -106 12 -105 11 -133 130 -7 33 -24 93 -36 134 -28
91 -23 191 13 273 39 88 221 252 322 292 52 20 129 33 241 41 153 12 170 19
273 118 52 50 53 53 49 98 -7 65 -44 99 -110 99 -29 1 -36 7 -63 53 -16 28
-45 61 -63 74 -30 20 -31 23 -15 33 26 16 161 7 201 -14z m-2759 -33 c20 -15
38 -29 41 -32 12 -14 99 -70 137 -89 31 -16 44 -31 53 -58 7 -21 8 -40 3 -45
-9 -9 -273 89 -307 114 -16 12 -16 15 3 57 11 25 21 53 21 63 0 23 7 22 49
-10z m2557 -28 c12 -8 32 -35 44 -60 21 -43 21 -47 6 -64 -23 -25 -66 -33 -92
-16 -38 24 -69 147 -41 159 17 7 57 -2 83 -19z m-1269 -135 c-9 -35 15 -54 61
-46 45 7 60 -9 18 -20 -33 -8 -51 -47 -33 -71 6 -9 5 -14 -4 -18 -38 -13 -110
-25 -156 -25 -58 0 -73 14 -73 68 0 90 16 107 115 122 78 12 78 12 72 -10z
m64 -1 c24 -12 16 -29 -15 -29 -28 0 -36 8 -29 26 6 17 18 18 44 3z m-1001
-86 c29 -54 32 -65 20 -73 -20 -13 -52 27 -78 94 -36 94 5 79 58 -21z m736 45
c-3 -13 -6 -47 -6 -77 l0 -54 -42 8 c-24 4 -85 10 -136 14 -121 8 -123 6 -88
-100 33 -101 33 -114 4 -104 -80 25 -112 16 -124 -38 l-6 -31 -102 106 c-97
99 -226 271 -214 283 3 4 32 -1 64 -9 122 -32 245 -40 382 -26 70 7 152 20
182 30 79 26 94 25 86 -2z m307 -58 c-3 -11 -14 -25 -24 -31 -30 -16 -38 19
-10 43 27 21 41 16 34 -12z m-1102 -57 c32 -53 124 -158 264 -298 66 -66 138
-147 160 -180 21 -33 52 -77 69 -98 26 -35 27 -40 13 -54 -14 -14 -19 -14 -49
3 -25 15 -44 41 -78 112 -25 51 -62 108 -81 128 l-35 35 -51 -20 c-27 -11 -88
-25 -134 -31 -79 -12 -149 -34 -149 -49 0 -3 -9 -12 -21 -19 -18 -12 -26 -9
-64 20 -25 18 -45 36 -45 39 0 11 29 73 42 90 7 9 33 26 57 38 l43 22 22 -20
c25 -24 66 -28 66 -7 0 7 -11 21 -25 30 -46 30 -58 70 -53 176 4 85 11 120 23
120 2 0 13 -17 26 -37z m145 -60 c15 -21 32 -39 36 -41 13 -6 9 -32 -4 -32
-16 0 -98 81 -98 97 0 26 38 12 66 -24z m520 -68 c31 -33 41 -50 37 -66 -4
-12 -49 -64 -100 -116 -84 -82 -95 -91 -100 -72 -3 12 -17 42 -29 68 -37 72
-31 100 17 76 82 -43 120 4 95 118 -8 34 -7 37 15 37 15 0 39 -16 65 -45z
m-2001 -19 c14 -89 -23 -139 -90 -122 -31 8 -65 60 -65 99 0 30 17 35 50 15
17 -11 24 -9 52 20 18 17 36 32 40 32 4 0 10 -20 13 -44z m1596 -37 c36 -37
43 -59 19 -59 -13 0 -90 77 -90 90 0 22 34 8 71 -31z m919 12 c107 -34 170
-65 170 -82 0 -22 -52 -92 -87 -117 l-30 -21 -54 33 c-81 48 -134 66 -227 77
l-84 9 -59 62 c-32 33 -59 63 -59 66 0 2 82 2 183 -1 148 -4 194 -8 247 -26z
m-433 -48 c8 -20 -14 -127 -34 -168 -9 -16 -43 -61 -76 -100 -33 -38 -64 -74
-69 -79 -11 -14 -40 15 -94 97 -26 38 -76 101 -111 137 -35 37 -63 70 -63 74
0 36 141 -94 167 -154 25 -57 74 -100 58 -50 -8 26 19 63 114 155 39 37 73 76
76 86 8 23 24 24 32 2z m124 -141 c16 -42 10 -57 -61 -153 -86 -114 -109 -134
-152 -125 -35 7 -78 32 -78 44 0 5 29 42 64 83 75 87 111 155 121 224 l7 50
45 -50 c25 -27 49 -60 54 -73z m558 62 c46 -40 81 -99 81 -139 0 -14 -11 -37
-26 -52 -22 -22 -31 -24 -66 -19 -38 6 -158 79 -158 97 0 4 22 31 50 60 27 29
52 61 56 71 8 25 14 23 63 -18z m1451 -98 l0 -124 -63 -6 c-110 -12 -157 7
-186 75 -26 59 -27 101 -3 122 38 34 106 56 180 56 l72 1 0 -124z m-3046 -75
l38 -38 -47 -74 c-26 -41 -49 -76 -52 -78 -11 -14 -75 0 -116 25 -39 24 -47
34 -47 59 0 43 24 72 69 86 21 6 52 22 67 35 16 13 34 23 39 24 6 0 28 -17 49
-39z m2033 -121 c41 -32 53 -47 53 -68 0 -15 4 -32 8 -39 12 -19 89 -43 136
-43 36 0 48 6 81 40 l40 41 74 -3 c78 -3 78 -3 101 -65 17 -45 53 -57 153 -50
72 5 84 8 104 32 13 14 23 32 23 40 0 21 29 45 56 45 13 0 42 -11 63 -24 21
-14 57 -26 80 -28 23 -2 41 -6 41 -10 0 -5 0 -47 0 -95 l0 -88 -38 -16 c-47
-20 -62 -15 -62 20 0 16 -9 40 -21 55 -18 23 -27 26 -82 26 -77 0 -122 -24
-132 -70 -4 -17 -12 -33 -18 -36 -7 -2 -46 2 -87 9 l-75 13 -3 41 c-5 61 -29
78 -112 78 -71 0 -110 -19 -110 -54 -1 -43 -12 -44 -146 -17 -174 36 -165 32
-154 62 30 77 -9 159 -80 170 -47 8 -51 24 -14 53 38 30 60 26 121 -19z
m-3084 -48 c-70 -59 -206 -99 -231 -69 -10 12 -1 17 60 32 66 16 137 53 178
94 13 13 15 12 18 -9 3 -17 -5 -31 -25 -48z m-693 -6 c0 -43 -74 -70 -192 -70
-78 -1 -90 2 -110 22 -12 12 -18 22 -13 22 87 1 201 12 240 23 66 19 75 20 75
3z m2498 -15 c15 -10 39 -21 55 -25 22 -5 27 -12 27 -36 0 -52 -19 -80 -55
-80 -40 0 -60 22 -76 82 -10 38 -10 49 0 62 17 20 17 20 49 -3z m-1820 -94 c3
-20 -4 -35 -22 -52 -14 -13 -26 -31 -26 -39 0 -37 -72 -47 -94 -13 -12 18 -13
29 -3 59 10 32 19 40 62 57 64 25 79 22 83 -12z m-768 -31 c0 -19 3 -41 6 -50
8 -21 -14 -21 -37 0 -10 9 -36 18 -58 21 -35 5 -41 9 -41 29 0 20 6 23 48 27
26 2 55 4 65 5 13 2 17 -6 17 -32z m831 -55 l24 -19 -29 -12 c-48 -18 -70 -17
-74 4 -4 20 21 46 44 46 6 0 22 -9 35 -19z m-873 -43 c15 -32 24 -34 46 -13 8
8 20 15 26 15 12 0 30 -41 30 -69 0 -18 -140 -171 -157 -171 -5 0 -18 10 -29
21 -22 25 -74 49 -106 49 -13 0 -30 5 -38 10 -13 9 -12 13 7 29 18 15 34 17
102 13 76 -4 81 -3 74 14 -4 11 -14 24 -22 31 -13 9 -10 11 19 10 26 -2 35 2
38 16 6 28 -27 46 -82 47 -43 0 -47 2 -36 15 10 12 28 15 64 13 44 -3 53 -7
64 -30z m639 -2 c16 -27 46 -34 95 -21 48 12 68 6 68 -21 0 -18 42 -22 75 -8
36 16 55 17 55 5 0 -5 -11 -12 -25 -15 -26 -7 -50 -40 -40 -56 9 -14 37 -12
78 5 41 17 95 19 117 5 17 -10 18 -9 -43 -38 -26 -12 -67 -40 -91 -62 l-44
-41 -88 44 c-49 24 -110 56 -136 71 l-48 28 0 59 c0 57 10 74 27 45z m288 -6
c5 -8 -59 -31 -90 -31 -24 -1 -12 19 17 28 43 14 65 15 73 3z m-965 -20 c8 -5
12 -11 10 -13 -9 -8 -120 5 -120 14 0 12 91 11 110 -1z m1030 -30 c8 -5 12
-11 10 -13 -11 -9 -92 -37 -107 -37 -15 0 -15 2 -3 14 15 14 70 46 80 46 3 0
12 -4 20 -10z m-1076 -26 c9 -3 16 -9 16 -14 0 -10 -102 0 -114 11 -11 10 73
13 98 3z m186 -42 c0 -15 -68 -108 -117 -159 l-49 -53 -96 0 c-53 0 -103 3
-112 6 -34 13 -13 20 57 19 62 0 80 4 127 30 52 28 170 136 170 156 0 5 5 9
10 9 6 0 10 -3 10 -8z m904 -167 c50 0 103 4 119 9 39 12 35 -12 -5 -29 -44
-18 -156 -29 -207 -20 -37 6 -122 52 -251 137 -99 65 -47 54 101 -21 l151 -76
92 0z m123 133 c11 -13 26 -34 33 -47 11 -21 10 -26 -4 -36 -43 -32 -236 -42
-236 -12 0 20 72 76 122 96 66 25 61 25 85 -1z m-1273 -40 c32 -16 56 -40 56
-54 0 -23 -94 -46 -152 -37 -48 7 -53 11 -56 36 -2 16 4 40 13 54 16 23 21 25
68 19 28 -4 60 -12 71 -18z"/>
<path d="M2515 9560 c-132 -27 -241 -123 -289 -253 -27 -73 -19 -213 17 -287
55 -116 182 -205 309 -217 159 -14 317 76 385 222 25 53 28 71 27 160 0 87 -3
107 -27 156 -77 164 -251 253 -422 219z m228 -54 c73 -35 156 -126 182 -198
13 -35 19 -79 19 -128 1 -189 -144 -339 -337 -348 -136 -7 -250 50 -320 161
-125 195 -34 450 188 530 75 27 195 19 268 -17z"/>
<path d="M3740 9007 c-8 -7 -47 -50 -87 -97 -73 -87 -188 -201 -259 -257 -23
-17 -82 -52 -132 -78 -50 -25 -95 -51 -99 -58 -4 -6 -21 -46 -38 -87 -26 -64
-34 -75 -56 -78 -20 -2 -36 6 -62 35 -35 36 -37 37 -70 25 -53 -19 -114 -15
-134 8 -10 11 -20 20 -23 20 -3 0 -5 -49 -6 -108 -2 -195 -46 -213 -199 -82
-33 28 -70 53 -83 57 -28 7 -96 -10 -170 -43 -114 -51 -349 -55 -449 -7 -89
42 -22 -32 77 -86 62 -33 137 -54 255 -71 117 -17 192 -55 300 -152 38 -35 87
-45 145 -28 119 34 190 21 305 -55 44 -29 89 -62 99 -74 11 -12 22 -21 26 -21
4 0 10 33 13 73 12 144 48 197 160 237 26 9 27 12 27 82 0 133 41 179 174 193
37 4 74 14 82 22 9 9 14 35 14 73 0 124 43 238 154 409 55 84 75 136 60 151
-5 5 -16 3 -24 -3z m10 -31 c0 -3 -70 -123 -131 -223 -54 -89 -79 -164 -86
-263 -3 -49 -9 -93 -13 -99 -3 -6 -38 -15 -77 -20 -114 -14 -156 -45 -173
-128 -7 -30 -9 -65 -6 -76 10 -41 -4 -65 -50 -83 -48 -18 -99 -69 -120 -119
-7 -18 -16 -62 -20 -99 l-7 -67 -33 34 c-18 18 -69 52 -113 75 -97 52 -189 66
-255 38 -71 -29 -100 -22 -179 43 -93 77 -157 108 -259 127 -135 24 -208 44
-261 70 -27 14 -47 27 -45 29 1 2 43 -2 92 -8 110 -13 223 1 316 38 139 57
159 55 251 -28 132 -120 209 -90 217 83 l4 87 43 -5 c23 -2 59 1 80 8 36 12
38 11 71 -23 67 -69 105 -55 149 56 35 89 41 96 115 126 127 52 299 205 450
399 21 27 40 41 40 28z"/>
<path d="M5725 7499 c-133 -10 -192 -31 -229 -82 -46 -64 -13 -300 73 -524 39
-100 54 -109 174 -100 85 7 277 54 315 78 12 7 27 26 33 41 18 44 5 225 -26
381 -32 156 -50 186 -121 206 -43 12 -46 12 -219 0z m216 -19 c20 -6 43 -18
52 -28 28 -31 78 -273 84 -404 7 -134 -3 -161 -59 -173 -18 -4 -71 -18 -118
-31 -47 -13 -121 -27 -165 -30 -76 -6 -82 -5 -107 17 -45 42 -125 308 -135
450 -11 146 33 183 233 198 171 12 175 12 215 1z"/>
<path d="M5623 7424 c-36 -8 -73 -50 -73 -82 0 -38 38 -296 52 -347 14 -57 45
-103 81 -121 25 -14 39 -15 81 -6 28 6 74 14 101 18 28 3 69 15 92 26 63 29
71 64 50 226 -18 137 -38 211 -65 235 -33 29 -116 50 -207 53 -49 1 -100 0
-112 -2z m202 -24 c80 -21 114 -41 125 -74 44 -134 66 -340 39 -372 -21 -26
-64 -40 -183 -60 l-109 -19 -32 37 c-39 46 -50 82 -70 228 -29 209 -29 223 -9
241 11 10 28 19 39 22 37 9 160 7 200 -3z"/>
<path d="M1533 7413 c-7 -3 -13 -10 -13 -17 0 -19 -39 -51 -96 -79 -62 -31
-76 -48 -72 -83 4 -34 41 -62 94 -70 35 -5 45 -2 68 19 30 28 66 127 66 183 0
34 -22 56 -47 47z m27 -40 c0 -49 -41 -160 -64 -175 -18 -13 -65 -9 -96 7 -50
26 -39 52 41 92 31 17 62 41 74 60 22 35 45 43 45 16z"/>
<path d="M1003 7342 c-37 -24 -13 -116 45 -169 60 -57 132 -42 172 37 35 68
26 80 -58 80 -26 0 -57 6 -68 13 -68 39 -81 45 -91 39z m44 -44 c19 -18 39
-23 93 -26 67 -4 70 -5 70 -29 0 -31 -51 -83 -81 -83 -53 0 -119 75 -119 135
0 31 7 31 37 3z"/>
<path d="M1623 7200 c-50 -47 -62 -67 -57 -97 4 -26 -13 -40 -29 -24 -16 16
-34 14 -109 -15 -62 -23 -68 -28 -68 -54 0 -19 -6 -31 -19 -35 -29 -9 -71 12
-71 34 0 28 -30 41 -94 41 -48 0 -58 -3 -72 -25 -22 -34 -41 -32 -49 5 -4 19
-17 36 -35 45 -16 8 -37 28 -47 45 -14 24 -33 40 -33 28 1 -23 23 -130 31
-150 14 -35 97 -88 136 -88 22 0 36 7 47 25 22 34 51 32 73 -5 22 -37 39 -43
106 -35 80 10 108 25 121 65 12 37 33 43 84 26 20 -7 31 0 67 38 34 35 49 63
66 116 20 66 20 100 2 100 -4 0 -27 -18 -50 -40z m32 -32 c-10 -43 -42 -107
-68 -136 -19 -20 -27 -22 -73 -17 -58 8 -84 -8 -84 -51 0 -16 -7 -25 -22 -29
-131 -29 -134 -29 -167 15 -28 38 -65 39 -103 3 l-28 -26 -40 18 c-50 22 -90
68 -90 101 0 41 38 20 55 -31 13 -39 56 -47 78 -15 28 40 137 36 137 -5 0 -35
94 -61 118 -32 5 6 12 23 14 37 2 21 14 29 68 47 36 12 67 17 68 12 5 -13 60
-11 68 3 5 7 7 25 6 41 -2 19 7 40 25 62 36 43 46 43 38 3z"/>
<path d="M1263 7208 c-18 -23 -40 -93 -35 -108 8 -23 23 -30 68 -30 66 0 74
20 39 89 -30 57 -54 73 -72 49z m47 -48 c30 -59 27 -72 -17 -68 -25 2 -39 9
-41 18 -3 16 24 90 33 90 2 0 14 -18 25 -40z"/>
<path d="M5060 6888 c-14 -16 -20 -35 -20 -70 0 -40 4 -50 25 -64 50 -33 105
12 105 85 0 64 -68 94 -110 49z m90 -50 c0 -52 -15 -78 -45 -78 -51 0 -69 76
-28 122 12 13 20 14 44 6 25 -9 29 -15 29 -50z"/>
<path d="M2486 7038 c-28 -45 -59 -170 -60 -247 -1 -69 1 -76 19 -79 26 -4
315 135 315 151 0 7 -45 54 -100 105 -80 73 -106 92 -130 92 -20 0 -34 -7 -44
-22z m150 -70 c46 -46 89 -84 94 -86 25 -9 5 -30 -52 -56 -35 -15 -99 -46
-144 -67 -44 -21 -84 -39 -89 -39 -14 0 2 153 24 227 22 75 41 103 68 103 9 0
53 -37 99 -82z"/>
<path d="M3720 6955 c0 -5 5 -17 10 -25 5 -8 10 -10 10 -5 0 6 -5 17 -10 25
-5 8 -10 11 -10 5z"/>
<path d="M6454 6961 c-69 -50 -111 -106 -124 -168 -13 -57 12 -73 73 -48 13 6
20 0 28 -24 7 -20 20 -33 36 -37 34 -9 64 25 93 104 58 161 2 253 -106 173z
m100 -17 c12 -31 5 -90 -17 -153 -25 -72 -52 -98 -71 -67 -22 38 -47 58 -64
51 -41 -17 -52 -17 -52 -1 0 39 58 123 113 164 36 26 82 29 91 6z"/>
<path d="M6669 6877 c-54 -36 -92 -98 -97 -160 -5 -67 13 -88 56 -66 15 7 30
15 34 17 4 2 14 -11 23 -27 24 -47 58 -42 90 13 30 52 51 141 41 179 -16 65
-85 86 -147 44z m106 -17 c11 -12 18 -35 18 -60 0 -45 -41 -157 -60 -164 -6
-3 -21 11 -32 30 -23 38 -36 41 -69 18 -23 -16 -42 -12 -42 9 0 58 48 134 105
168 38 24 58 24 80 -1z"/>
<path d="M6487 6630 c-52 -41 -41 -140 16 -140 63 1 102 95 57 140 -25 25 -41
25 -73 0z m54 -10 c38 -21 9 -110 -36 -110 -36 0 -41 64 -7 103 18 20 18 20
43 7z"/>
<path d="M6745 6538 c-75 -44 -111 -152 -70 -214 13 -20 23 -24 48 -22 27 2
36 11 57 50 15 29 32 48 43 48 21 0 23 28 2 37 -20 7 -52 -22 -74 -66 -21 -45
-38 -50 -52 -14 -16 42 -3 87 37 127 29 29 43 36 76 36 35 0 39 2 28 15 -15
18 -67 19 -95 3z"/>
<path d="M3430 5996 c-6 -8 -10 -25 -8 -38 3 -21 9 -23 63 -26 33 -1 90 -7
127 -13 64 -10 71 -14 128 -71 33 -34 60 -56 60 -49 0 26 -44 103 -76 130 -34
30 -51 37 -176 65 -83 20 -102 20 -118 2z m98 -20 c26 -8 67 -17 92 -21 25 -3
56 -14 70 -25 l25 -19 -45 15 c-25 9 -87 18 -137 21 -82 5 -93 8 -93 24 0 23
24 24 88 5z"/>
<path d="M2766 5869 c-77 -19 -145 -98 -146 -168 0 -60 118 -120 257 -129 125
-8 170 28 160 126 -13 121 -143 203 -271 171z m116 -20 c92 -25 172 -156 133
-216 -19 -29 -53 -43 -103 -43 -32 1 -35 2 -21 13 29 22 59 81 59 115 0 61
-65 122 -131 122 -40 0 -90 -32 -109 -71 -24 -45 -25 -74 -6 -111 18 -35 7
-36 -33 -2 -49 41 -36 107 31 158 55 41 117 53 180 35z m13 -60 c28 -25 35
-38 35 -69 0 -35 -2 -38 -32 -43 -79 -13 -128 -29 -128 -43 0 -22 -16 -17 -39
12 -12 15 -21 40 -21 57 0 28 1 29 13 13 9 -12 22 -16 38 -13 24 4 24 4 -2 6
-31 1 -45 34 -23 51 19 17 54 2 55 -23 1 -18 2 -19 6 -4 6 23 -14 47 -38 47
-26 0 -24 15 4 28 44 21 94 14 132 -19z m15 -139 c-17 -31 -55 -52 -92 -48
-48 4 -43 30 9 43 23 5 45 13 49 18 4 4 16 7 26 7 16 0 17 -3 8 -20z"/>
<path d="M3535 5815 c-78 -42 -111 -102 -103 -187 7 -73 32 -93 111 -93 168 0
237 35 237 120 0 54 -31 117 -71 145 -42 31 -131 38 -174 15z m145 -23 c46
-23 80 -83 80 -143 0 -43 -2 -48 -34 -63 -36 -17 -66 -21 -66 -8 0 4 7 16 15
26 8 11 15 41 15 67 0 61 -40 108 -100 116 -22 3 -37 9 -34 14 9 15 87 10 124
-9z m-23 -59 c15 -18 23 -42 23 -65 0 -34 -3 -38 -27 -39 -17 -1 -21 -3 -10
-6 18 -5 21 -12 9 -29 -21 -33 -112 -48 -112 -19 0 10 10 15 33 15 17 0 39 5
47 10 19 13 -66 2 -93 -12 -23 -12 -36 -3 -54 39 -13 33 -12 39 9 84 26 56 52
69 112 58 27 -5 48 -17 63 -36z m-175 -153 c4 0 8 -6 8 -12 0 -7 -12 0 -25 15
-14 15 -25 36 -24 45 0 10 7 4 16 -15 9 -18 20 -33 25 -33z"/>
<path d="M3546 5685 c-9 -26 -7 -32 5 -12 6 10 9 21 6 23 -2 3 -7 -2 -11 -11z"/>
<path d="M3470 5676 c0 -2 7 -9 15 -16 13 -11 14 -10 9 4 -5 14 -24 23 -24 12z"/>
<path d="M3153 5533 c-38 -19 -47 -41 -39 -88 5 -27 15 -38 49 -54 101 -49
247 -5 247 74 0 17 -43 65 -59 65 -6 0 1 -11 15 -25 51 -51 6 -106 -95 -113
-98 -7 -171 43 -141 97 11 22 39 37 95 51 l30 8 -35 0 c-19 1 -50 -7 -67 -15z"/>
<path d="M2674 5485 c-6 -16 12 -45 27 -45 5 0 33 -16 63 -35 63 -40 98 -48
104 -23 2 11 -21 32 -75 67 -81 53 -110 61 -119 36z m107 -46 c35 -23 69 -46
74 -51 18 -19 -48 2 -80 25 -16 13 -42 29 -57 36 -16 8 -28 18 -28 23 0 17 29
7 91 -33z"/>
<path d="M3628 5399 c-58 -29 -78 -44 -78 -59 0 -28 20 -25 99 15 68 34 82 48
73 73 -6 17 -7 16 -94 -29z m71 5 c-19 -23 -108 -66 -127 -62 -11 2 7 17 48
40 73 40 101 48 79 22z"/>
<path d="M2664 5356 c-10 -25 3 -32 88 -51 81 -18 121 -14 116 12 -4 20 -61
40 -138 49 -51 6 -61 4 -66 -10z m113 -13 c40 -10 73 -21 73 -25 0 -21 -148 6
-172 30 -17 17 12 16 99 -5z"/>
<path d="M3582 5310 c-40 -9 -46 -15 -39 -35 14 -34 207 -9 207 27 0 16 -9 18
-67 17 -38 -1 -83 -5 -101 -9z m142 -9 c8 -12 -45 -21 -113 -20 l-56 1 50 13
c60 16 112 18 119 6z"/>
<path d="M3125 5269 c-27 -5 -64 -7 -82 -4 -17 3 -34 1 -38 -4 -3 -6 6 -32 19
-59 25 -50 76 -97 129 -120 42 -18 117 -15 152 6 30 19 115 121 115 138 0 10
-101 34 -165 38 -22 2 -49 6 -60 9 -11 3 -42 1 -70 -4z m120 -20 c44 -1 135
-21 135 -30 0 -28 -208 -22 -280 8 l-45 18 45 6 c25 4 61 5 80 2 19 -2 49 -4
65 -4z m-125 -44 c47 -17 190 -24 230 -12 24 8 24 7 5 -8 -66 -52 -202 -46
-275 14 -30 25 -18 26 40 6z m64 -70 c40 -6 83 0 156 21 l25 7 -20 -23 c-32
-36 -101 -63 -143 -55 -49 9 -90 31 -129 68 -50 47 -40 60 17 22 28 -19 70
-37 94 -40z"/>
<path d="M2673 5259 c-22 -22 -2 -39 46 -38 85 1 135 13 139 32 3 15 -6 17
-85 17 -53 0 -94 -5 -100 -11z m172 -8 c-13 -11 -165 -22 -165 -11 0 12 32 17
110 19 37 0 60 -3 55 -8z"/>
<path d="M6898 5706 c-47 -35 -40 -115 13 -138 36 -16 82 -101 99 -181 15 -75
10 -87 -37 -87 -49 0 -59 8 -67 51 -9 50 -58 115 -111 147 -37 22 -44 30 -38
47 4 11 7 32 7 48 -3 95 -154 86 -154 -9 0 -44 32 -74 78 -74 52 0 125 -48
162 -107 17 -26 30 -55 30 -65 0 -28 -40 -22 -80 12 -58 50 -134 83 -174 76
-53 -10 -86 -55 -86 -119 0 -29 5 -68 10 -87 19 -67 14 -141 -15 -210 -23 -55
-28 -80 -28 -160 -1 -81 3 -105 25 -158 15 -34 34 -69 42 -78 9 -8 21 -23 28
-32 17 -23 93 -82 106 -82 6 0 12 -4 14 -9 2 -5 30 -18 63 -29 l60 -21 -3 -48
c-4 -60 11 -76 72 -75 l44 0 -13 -36 c-24 -68 -37 -142 -30 -169 17 -67 108
-87 166 -35 l31 28 28 -28 c35 -34 63 -36 95 -4 20 20 31 23 65 19 34 -5 45
-2 66 18 22 21 25 30 20 66 -5 37 -2 44 24 65 21 15 32 35 37 61 4 29 14 44
39 60 46 31 74 86 86 169 10 78 31 128 52 128 7 0 27 -5 45 -11 36 -13 78 0
108 33 18 20 45 126 34 132 -3 2 -40 7 -83 11 -103 9 -148 -13 -148 -75 0 -10
-13 -31 -28 -48 -16 -17 -40 -66 -56 -113 -59 -171 -100 -203 -161 -123 l-26
34 61 59 c41 40 71 82 93 128 29 62 32 76 31 163 0 91 -2 98 -41 175 -37 72
-41 89 -47 178 -7 112 -26 166 -67 202 -65 54 -140 38 -231 -50 -26 -25 -49
-45 -51 -45 -2 0 -7 28 -11 63 -4 38 -18 86 -36 123 -31 64 -36 84 -21 84 15
0 32 56 25 84 -12 49 -76 73 -116 42z m76 -32 c29 -28 18 -67 -22 -77 -16 -4
-30 1 -43 14 -24 24 -24 34 1 59 24 24 43 25 64 4z m-253 -55 c26 -26 21 -60
-10 -75 -53 -27 -101 37 -58 77 27 24 42 24 68 -2z m572 -228 c40 -15 65 -83
72 -191 6 -79 12 -107 40 -165 67 -142 72 -219 22 -328 -45 -97 -116 -161
-224 -202 -71 -27 -89 -30 -198 -30 -107 0 -129 3 -202 29 -150 53 -239 164
-250 311 -6 79 4 133 42 230 l23 60 -21 106 c-18 91 -19 111 -8 138 24 56 81
51 168 -15 l43 -32 -23 -15 c-19 -13 -26 -13 -60 0 -31 13 -43 13 -67 3 -35
-15 -36 -19 -12 -85 14 -38 23 -51 41 -53 13 -2 28 1 34 7 13 13 54 14 61 2 8
-13 244 -12 283 0 18 6 40 20 48 32 14 19 16 20 27 4 15 -19 120 -67 147 -67
26 0 32 21 24 91 -10 98 -60 113 -142 42 -28 -23 -41 -30 -41 -19 0 8 -7 21
-15 30 -14 13 -10 19 31 58 72 68 103 79 157 59z m-27 -109 c18 -11 29 -118
14 -127 -15 -9 -130 44 -130 60 0 6 12 23 28 37 37 35 66 45 88 30z m-551 -14
c30 -13 34 -52 8 -80 -32 -35 -59 -18 -78 49 -12 42 17 55 70 31z m223 -4 c18
-12 20 -19 11 -35 -8 -16 -17 -19 -36 -14 -14 3 -31 1 -39 -6 -7 -6 -21 -8
-30 -5 -14 5 -14 9 -3 23 11 13 11 17 2 20 -7 3 -13 11 -13 19 0 20 79 19 108
-2z m140 -27 c3 -23 -2 -30 -32 -42 -19 -8 -47 -15 -61 -15 -25 0 -34 14 -15
25 6 3 10 20 10 36 0 30 1 30 48 27 43 -3 47 -5 50 -31z m-268 -18 c0 -38 -24
-35 -28 4 -2 19 1 27 12 27 11 0 16 -10 16 -31z m952 -435 c4 -3 8 -18 8 -34
0 -38 -35 -70 -76 -70 -42 0 -53 17 -20 30 31 11 36 34 6 25 -13 -4 -22 -1
-26 9 -3 9 -12 16 -20 16 -19 0 -17 17 4 30 16 10 105 5 124 -6z m-176 -109
c-29 -43 -46 -95 -46 -144 0 -68 -86 -180 -110 -142 -5 9 2 24 21 43 29 31 62
107 74 171 6 33 72 124 82 114 2 -3 -7 -21 -21 -42z m-311 -207 c28 -13 33
-43 9 -52 -28 -11 -80 -6 -100 8 -10 8 -17 16 -14 18 4 3 71 35 77 37 1 1 14
-4 28 -11z m-309 -65 c9 -33 -18 -55 -61 -51 -59 6 -36 78 26 78 23 0 30 -5
35 -27z m184 -3 c19 -16 43 -29 52 -30 9 0 19 -4 22 -9 9 -13 -24 -36 -48 -33
-15 2 -26 -7 -38 -28 -22 -39 -42 -46 -86 -30 -33 12 -37 11 -53 -9 -9 -11
-20 -21 -23 -21 -12 0 -5 38 9 50 22 18 35 76 25 110 l-9 30 58 0 c48 0 62 -4
91 -30z m231 -21 c22 -15 29 -28 29 -54 0 -41 -31 -69 -103 -90 -31 -9 -60
-26 -76 -45 -20 -23 -39 -33 -81 -40 -38 -7 -64 -19 -85 -40 -17 -17 -41 -30
-53 -30 -30 0 -62 34 -62 68 0 33 5 40 48 71 25 17 37 20 45 12 22 -22 65 -12
101 24 20 19 42 35 49 35 21 0 67 39 67 56 0 8 14 20 30 25 17 6 30 15 30 20
0 16 31 10 61 -12z m-35 -203 c3 -14 3 -30 -1 -35 -10 -17 -61 -13 -76 5 -11
14 -10 19 10 35 32 26 59 24 67 -5z m-126 -66 c0 -6 -7 -13 -15 -16 -20 -8
-48 3 -40 16 8 13 55 13 55 0z"/>
<path d="M7139 4904 c-8 -10 -21 -13 -36 -9 -28 7 -76 -16 -97 -47 -18 -26
-21 -90 -5 -120 6 -11 26 -26 45 -34 29 -12 39 -12 68 0 57 24 83 86 56 136
-7 13 -7 21 0 25 19 12 10 26 -12 19 -22 -6 -22 -6 -5 13 9 11 17 23 17 26 0
12 -17 7 -31 -9z m-28 -34 c23 -13 49 -61 49 -93 0 -51 -74 -87 -119 -58 -8 5
4 7 32 4 40 -5 47 -3 62 20 19 30 13 78 -12 98 -8 7 -30 13 -49 13 -36 0 -46
11 -16 19 28 8 33 7 53 -3z m-51 -55 c0 -7 7 -18 16 -26 12 -10 20 -10 35 -1
16 10 19 9 19 -7 0 -22 -25 -51 -44 -51 -25 0 -44 26 -48 66 -2 31 0 40 9 37
7 -3 13 -11 13 -18z m50 -1 c0 -9 -7 -14 -17 -12 -25 5 -28 28 -4 28 12 0 21
-6 21 -16z m-93 -46 c-3 -8 -6 -5 -6 6 -1 11 2 17 5 13 3 -3 4 -12 1 -19z"/>
<path d="M6583 4872 c4 -18 2 -22 -9 -18 -15 6 -20 -9 -5 -18 4 -3 11 -24 14
-47 10 -77 85 -118 121 -67 22 31 20 63 -5 108 -21 37 -58 58 -80 44 -5 -3
-17 0 -26 8 -15 11 -16 10 -10 -10z m67 -21 c0 -5 -7 -12 -16 -15 -17 -7 -16
-60 1 -101 8 -19 8 -19 -9 -3 -35 36 -29 128 9 128 8 0 15 -4 15 -9z m20 -36
c0 -8 -4 -15 -10 -15 -5 0 -10 7 -10 15 0 8 5 15 10 15 6 0 10 -7 10 -15z m8
-28 c8 3 12 -6 12 -26 0 -39 -31 -43 -48 -6 -17 37 -15 47 6 37 9 -5 23 -7 30
-5z"/>
<path d="M6813 4753 c-19 -7 -15 -31 7 -45 28 -18 25 -31 -5 -26 -35 7 -31
-12 7 -39 34 -24 51 -20 89 18 26 26 24 30 -11 23 -19 -4 -30 -2 -30 5 0 6 4
11 9 11 17 0 24 42 10 51 -15 9 -56 11 -76 2z m67 -22 c0 -12 -21 -19 -37 -13
-22 8 -14 22 12 22 14 0 25 -4 25 -9z m-2 -78 c2 -8 -5 -13 -17 -13 -12 0 -21
6 -21 16 0 18 31 15 38 -3z"/>
<path d="M1042 5831 c-45 -42 -48 -51 -32 -82 16 -28 48 -23 82 14 52 54 62
75 48 92 -21 25 -54 17 -98 -24z m78 4 c0 -17 -64 -85 -80 -85 -20 0 -9 35 22
67 34 35 58 43 58 18z"/>
<path d="M445 5830 c-88 -43 -102 -145 -25 -185 62 -32 148 -10 188 49 71 103
-41 196 -163 136z m146 -26 c21 -19 25 -64 9 -94 -16 -31 -74 -60 -116 -59
l-39 1 49 13 c63 18 96 49 96 91 0 53 -66 72 -131 38 -17 -8 -33 -13 -35 -11
-3 2 14 14 38 26 48 25 99 23 129 -5z m-76 -24 c-9 -27 3 -60 21 -60 22 0 16
-16 -11 -28 -34 -15 -88 -15 -103 0 -27 27 -8 60 53 92 40 21 48 20 40 -4z
m55 -19 c0 -11 -5 -23 -11 -27 -15 -9 -33 12 -26 30 9 23 37 20 37 -3z"/>
<path d="M1201 5811 c-21 -38 -5 -124 25 -135 38 -15 62 26 50 87 -8 41 -16
53 -43 61 -16 5 -25 2 -32 -13z m55 -56 c7 -49 3 -61 -19 -52 -14 5 -30 73
-21 89 14 23 33 5 40 -37z"/>
<path d="M667 5534 c-4 -4 -7 -45 -7 -90 0 -82 1 -84 35 -118 56 -57 118 -65
177 -24 14 10 34 18 43 18 35 0 7 25 -34 31 -45 6 -61 20 -61 55 0 29 8 34 36
22 17 -8 27 -8 39 2 22 18 19 25 -22 70 -48 54 -78 52 -78 -5 0 -22 -4 -43
-10 -47 -34 -25 -93 11 -103 61 -4 18 -10 29 -15 25z m188 -46 c14 -12 25 -25
25 -30 0 -15 -24 -8 -47 14 -42 39 -22 54 22 16z m-141 -63 c11 -8 32 -15 48
-15 19 0 28 -5 28 -16 0 -8 14 -29 31 -46 33 -34 27 -48 -23 -48 -58 0 -105
42 -115 105 -6 38 1 42 31 20z"/>
<path d="M1142 5325 c-38 -32 -65 -99 -57 -141 6 -36 52 -80 93 -91 42 -10
102 17 123 57 23 42 25 118 3 148 -38 54 -115 67 -162 27z m131 -37 c15 -18
27 -43 27 -55 0 -36 -26 -90 -48 -102 -33 -18 -35 -13 -8 20 26 30 31 51 27
98 -4 46 -52 68 -106 47 -17 -6 -16 -4 4 14 32 28 67 20 104 -22z m-69 -23
c-19 -29 -11 -61 17 -70 25 -8 24 -20 -3 -39 -52 -37 -96 -5 -84 60 7 33 46
74 73 74 11 0 10 -5 -3 -25z m48 -17 c8 -21 -2 -38 -23 -38 -19 0 -27 29 -12
43 11 11 31 8 35 -5z"/>
<path d="M5350 4931 c0 -12 29 -41 41 -41 15 0 10 22 -8 36 -21 16 -33 18 -33
5z"/>
<path d="M5449 4409 c-49 -18 -67 -111 -30 -148 23 -23 80 -36 116 -27 54 14
79 116 38 158 -23 23 -87 32 -124 17z m89 -35 c24 -17 30 -61 12 -95 -15 -27
-73 -26 -101 2 -17 17 -20 28 -14 57 4 21 12 40 18 44 20 13 61 9 85 -8z"/>
<path d="M4821 3855 c-46 -21 -88 -68 -120 -135 -23 -49 -26 -67 -26 -160 0
-97 2 -109 28 -152 87 -149 253 -126 338 48 28 57 32 75 33 152 1 76 -2 94
-27 145 -16 31 -44 69 -63 84 -43 32 -114 40 -163 18z m127 -35 c18 -11 41
-34 52 -52 23 -37 27 -63 5 -35 -28 37 -79 67 -114 67 -70 0 -143 -70 -167
-158 -10 -39 -13 -42 -13 -17 0 67 52 159 113 196 40 24 83 24 124 -1z m-8
-55 l25 -14 -33 -1 c-40 0 -82 -38 -82 -75 0 -30 41 -75 67 -75 32 0 62 29 69
67 6 31 8 33 17 17 20 -35 13 -145 -12 -197 -12 -26 -26 -47 -29 -47 -4 0 -13
9 -20 20 -9 15 -23 20 -58 20 -32 0 -56 7 -82 25 -20 14 -43 25 -51 25 -26 0
-8 131 25 180 42 62 110 86 164 55z m20 -50 c8 -9 10 -28 6 -50 -9 -47 -50
-60 -78 -25 -20 25 -17 68 5 82 20 13 54 9 67 -7z m-167 -319 c39 -29 102 -28
145 3 40 28 50 24 20 -8 -85 -92 -214 -39 -243 99 -6 31 -4 29 21 -19 16 -30
42 -63 57 -75z m83 64 c45 0 54 -3 54 -18 0 -28 -20 -42 -61 -42 -41 0 -82 27
-104 70 -20 38 -8 44 27 15 24 -20 41 -25 84 -25z"/>
<path d="M5604 3760 c-86 -43 -143 -135 -151 -244 -21 -281 255 -414 411 -199
44 61 59 111 58 200 -1 112 -59 215 -140 248 -50 21 -129 19 -178 -5z m159
-26 c36 -19 77 -53 77 -66 0 -5 -17 3 -37 17 -52 35 -108 34 -159 -4 -77 -56
-104 -107 -104 -197 0 -147 78 -230 198 -210 36 6 37 6 12 -8 -33 -20 -102
-20 -142 0 -48 24 -89 78 -105 137 -17 67 -16 107 2 172 40 135 160 209 258
159z m35 -75 c23 -17 42 -36 42 -42 0 -7 -4 -7 -9 2 -5 8 -27 15 -52 15 -36 1
-45 -3 -58 -25 -20 -35 0 -86 37 -96 36 -9 76 8 80 35 2 12 8 22 14 22 18 0 4
-154 -17 -186 -15 -24 -19 -25 -27 -11 -7 13 -23 17 -65 17 -47 0 -61 5 -94
31 -30 23 -46 29 -64 25 -23 -6 -25 -4 -25 30 0 64 22 117 70 166 40 42 52 48
86 48 29 0 52 -9 82 -31z m15 -53 c23 -18 22 -49 -3 -71 -18 -16 -23 -17 -45
-5 -30 16 -40 42 -25 70 12 23 46 26 73 6z m-77 -236 c29 0 55 -4 58 -8 3 -5
-6 -21 -20 -37 -49 -57 -150 -30 -189 50 -13 28 -14 39 -5 50 10 12 19 9 57
-20 39 -30 54 -35 99 -35z"/>
<path d="M5158 3420 c-27 -17 -23 -72 7 -100 14 -13 25 -27 25 -32 0 -16 -57
-7 -75 12 -10 11 -22 20 -27 20 -17 0 -7 -29 17 -48 14 -11 25 -27 25 -37 0
-28 55 -75 88 -75 33 0 82 34 82 56 0 8 16 24 35 35 19 12 35 25 35 30 0 12 0
12 -46 -5 -27 -9 -47 -10 -64 -4 l-25 10 37 19 c64 33 83 85 39 109 -28 15
-134 22 -153 10z m135 -32 c24 -12 21 -23 -9 -47 -34 -27 -78 -27 -104 -1 -25
25 -26 46 -2 59 18 11 85 5 115 -11z m-46 -140 c21 -8 33 -19 33 -30 0 -22
-18 -23 -44 -3 -11 8 -32 15 -48 15 -29 0 -38 14 -15 23 21 9 39 8 74 -5z
m-14 -55 c-7 -2 -21 -2 -30 0 -10 3 -4 5 12 5 17 0 24 -2 18 -5z"/>
<path d="M6969 2521 c-36 -20 -69 -71 -69 -109 0 -31 43 -86 83 -105 69 -32
176 -49 230 -36 98 23 140 110 78 161 -15 14 -62 41 -103 62 -94 47 -166 56
-219 27z m179 -37 c20 -9 58 -30 84 -47 40 -27 48 -37 48 -64 0 -27 -6 -34
-46 -53 -51 -25 -97 -24 -190 4 -72 22 -104 50 -104 89 1 85 94 117 208 71z"/>
<path d="M5900 2877 c-35 -18 -40 -70 -8 -104 32 -34 64 -46 88 -31 31 19 33
54 7 101 -26 46 -48 54 -87 34z m72 -46 c34 -61 0 -98 -52 -55 -31 27 -39 61
-18 82 21 21 50 9 70 -27z"/>
<path d="M810 2866 c-168 -36 -347 -142 -419 -249 -81 -121 -102 -272 -61
-443 27 -111 112 -335 150 -394 64 -99 193 -130 285 -67 22 15 43 27 47 27 5
0 8 -15 8 -33 0 -68 9 -72 192 -74 90 -1 170 -2 178 -3 8 0 56 2 105 6 141 10
149 28 86 187 -22 55 -34 97 -28 96 39 -5 58 3 72 31 30 58 20 98 -52 206 -38
55 -39 68 -17 176 26 129 11 178 -73 231 -29 18 -45 37 -53 64 -7 21 -16 42
-21 48 -5 5 -9 15 -9 22 0 8 -5 19 -10 26 -6 7 -24 31 -41 54 -60 83 -196 119
-339 89z m225 -50 c55 -23 93 -62 121 -121 33 -70 32 -86 -4 -73 -31 12 -67 6
-96 -17 -32 -24 -6 -41 32 -21 29 15 32 14 108 -26 136 -70 141 -82 117 -228
-20 -117 -14 -154 37 -222 46 -60 60 -112 38 -134 -19 -20 -36 -11 -78 41 -19
24 -41 46 -49 50 -35 14 -30 -17 18 -107 60 -116 79 -174 63 -190 -9 -9 -16
-7 -28 11 -13 18 -23 22 -44 17 -19 -3 -33 0 -41 10 -9 11 -23 14 -43 10 -19
-3 -38 0 -50 9 -28 21 -52 18 -73 -9 -14 -18 -24 -21 -40 -15 -15 6 -29 2 -46
-11 -24 -19 -25 -19 -30 0 -3 13 -17 22 -37 26 -31 7 -31 7 -25 55 11 76 -22
62 -45 -18 -21 -70 -106 -133 -179 -133 -106 0 -144 43 -227 256 -76 197 -104
350 -84 450 37 181 153 303 366 384 87 32 248 35 319 6z m97 -1023 c9 -16 19
-50 23 -77 8 -48 7 -49 -16 -43 -13 4 -32 7 -41 7 -22 0 -37 102 -18 125 18
22 34 18 52 -12z m-204 -18 c7 -14 12 -41 12 -60 0 -37 -23 -52 -60 -40 -16 5
-20 15 -20 54 0 26 5 52 12 59 20 20 44 14 56 -13z m294 3 c8 -13 18 -40 22
-60 6 -34 5 -38 -19 -44 -14 -3 -28 -4 -31 -1 -3 3 -8 33 -11 66 -5 50 -3 61
9 61 9 0 22 -10 30 -22z m-188 -14 c9 -8 16 -21 16 -27 0 -7 3 -22 6 -34 6
-22 3 -23 -46 -23 l-52 0 7 38 c11 61 37 78 69 46z m271 -14 c23 -44 20 -70
-9 -70 -20 0 -24 6 -30 41 -10 64 12 81 39 29z m69 -12 c11 -42 7 -58 -14 -58
-14 0 -20 7 -20 24 0 52 23 75 34 34z"/>
<path d="M695 2702 c-37 -23 -58 -48 -53 -62 2 -6 21 2 43 17 36 25 47 28 120
26 77 -1 79 -1 52 14 -48 25 -127 27 -162 5z"/>
<path d="M751 2599 c-42 -17 -58 -46 -66 -117 -4 -37 -22 -113 -41 -170 -39
-117 -40 -133 -17 -173 24 -40 114 -100 161 -106 59 -8 136 37 185 107 23 33
22 117 -2 186 -11 30 -23 76 -27 102 -17 121 -112 205 -193 171z m92 -56 c41
-32 54 -57 66 -133 5 -30 17 -73 26 -94 9 -22 17 -63 18 -93 1 -47 -2 -56 -33
-89 -82 -85 -149 -84 -242 4 -35 33 -35 51 3 164 17 51 33 118 36 148 7 85 12
100 36 110 36 14 52 11 90 -17z"/>
<path d="M1013 2489 c-21 -21 -15 -55 28 -165 45 -115 71 -153 123 -178 62
-29 116 5 116 73 0 30 -49 173 -71 210 -31 48 -167 90 -196 60z m91 -39 c61
-23 79 -47 115 -147 37 -106 23 -147 -42 -119 -40 16 -57 38 -87 115 -12 30
-30 74 -41 99 -18 38 -20 72 -5 72 3 0 30 -9 60 -20z"/>
<path d="M406 2454 c-22 -21 -20 -27 3 -14 49 26 63 2 76 -132 4 -37 11 -71
17 -74 17 -10 5 186 -12 214 -17 26 -61 30 -84 6z"/>
<path d="M1036 2168 c-3 -13 -6 -60 -6 -105 0 -61 4 -86 16 -97 19 -20 25 -20
49 -2 14 10 25 11 37 5 30 -16 58 6 58 46 0 35 -48 110 -98 152 -34 29 -48 29
-56 1z m82 -75 c43 -57 54 -93 28 -93 -8 0 -18 5 -21 10 -10 17 -33 11 -40
-10 -14 -44 -25 -15 -25 65 0 47 3 85 8 85 4 0 26 -26 50 -57z"/>
<path d="M4375 1459 c-31 -9 -76 -46 -110 -92 -19 -25 -22 -26 -68 -17 -86 17
-176 -15 -244 -87 l-32 -34 -48 34 c-63 46 -129 67 -206 67 -84 0 -126 -14
-189 -60 -29 -22 -64 -40 -78 -40 -62 0 -200 -115 -200 -167 0 -35 14 -28 48
26 38 62 97 102 159 108 38 4 56 13 88 43 51 48 99 63 183 58 75 -4 139 -31
202 -85 21 -18 44 -33 52 -33 7 0 22 17 33 38 11 20 42 52 69 70 39 26 58 32
102 32 59 0 104 -16 104 -37 0 -31 34 -7 42 30 9 43 57 100 99 117 43 18 76 5
135 -56 54 -55 73 -54 32 2 -56 75 -110 101 -173 83z"/>
<path d="M2503 695 c-17 -14 -41 -41 -53 -61 l-22 -35 -22 20 c-13 12 -35 21
-52 21 -33 -1 -74 -30 -74 -54 0 -20 14 -21 30 -1 21 25 59 19 65 -10 3 -14 7
-36 10 -50 9 -41 33 -29 62 32 32 66 85 123 114 123 12 0 23 -10 30 -27 10
-26 26 -43 42 -43 14 0 7 45 -13 78 -25 41 -70 44 -117 7z"/>
<path d="M6930 265 c0 -49 3 -86 6 -83 8 9 9 156 1 165 -4 3 -7 -33 -7 -82z"/>
<path d="M5566 333 c-10 -11 -7 -143 4 -143 6 0 10 23 10 50 0 28 3 50 8 50 4
0 16 -16 26 -35 11 -19 22 -35 25 -35 3 0 17 17 31 37 l25 37 3 -57 c2 -33 7
-55 13 -52 12 8 12 142 -1 150 -5 3 -22 -14 -37 -39 -15 -26 -30 -46 -34 -46
-3 0 -15 18 -28 40 -24 43 -35 53 -45 43z"/>
<path d="M6059 315 c-3 -26 -8 -30 -30 -27 -51 6 -79 -57 -41 -91 10 -10 32
-17 49 -17 l31 0 4 66 c3 70 -7 123 -13 69z m-7 -62 c8 -36 -3 -54 -31 -51
-26 3 -38 26 -27 54 8 20 54 18 58 -3z"/>
<path d="M6307 333 c-11 -10 -8 -141 2 -148 6 -3 11 19 13 52 l3 58 23 -37
c13 -21 27 -38 30 -38 4 0 18 17 32 38 l25 37 5 -60 c3 -35 8 -55 13 -48 10
16 7 142 -4 148 -4 3 -20 -15 -36 -40 -15 -25 -30 -45 -33 -45 -3 1 -19 21
-36 45 -17 25 -33 42 -37 38z"/>
<path d="M6787 328 c-4 -10 -9 -24 -11 -32 -3 -8 -14 -12 -28 -9 -43 8 -69
-55 -38 -92 16 -19 79 -20 86 -2 8 22 0 154 -9 135z m-12 -77 c9 -28 -5 -51
-30 -51 -25 0 -39 23 -30 51 8 25 52 25 60 0z"/>
<path d="M5752 278 c-16 -16 -15 -66 2 -84 18 -17 58 -18 74 -2 7 7 12 26 12
43 0 38 -16 55 -50 55 -14 0 -31 -5 -38 -12z m67 -22 c18 -22 -3 -56 -34 -56
-21 0 -25 5 -25 28 0 16 3 32 7 35 11 12 40 8 52 -7z"/>
<path d="M5860 234 c0 -34 4 -53 10 -49 6 3 10 24 10 46 0 36 2 40 23 37 17
-2 23 -11 25 -38 5 -54 22 -61 22 -9 0 54 -13 69 -57 69 l-33 0 0 -56z"/>
<path d="M6107 283 c-15 -15 -5 -22 23 -16 41 8 39 -14 -2 -25 -26 -6 -33 -14
-33 -33 0 -21 4 -24 40 -24 37 1 40 3 43 32 4 43 -13 73 -42 73 -12 0 -26 -3
-29 -7z m51 -65 c-5 -15 -48 -24 -48 -10 0 14 12 22 33 22 10 0 17 -5 15 -12z"/>
<path d="M6200 271 c0 -11 8 -36 17 -55 16 -34 16 -37 -3 -57 -18 -20 -18 -21
-1 -18 18 4 67 104 67 136 0 24 -18 4 -25 -27 -8 -39 -24 -38 -32 0 -7 36 -23
50 -23 21z"/>
<path d="M6497 283 c-14 -14 -6 -19 23 -15 40 6 38 -13 -2 -24 -61 -18 -46
-72 16 -60 29 6 36 11 36 31 0 44 -18 75 -43 75 -13 0 -27 -3 -30 -7z m51 -65
c-5 -15 -48 -24 -48 -10 0 14 12 22 33 22 10 0 17 -5 15 -12z"/>
<path d="M6590 233 c1 -44 3 -54 11 -41 5 10 9 24 8 30 -5 37 2 49 24 46 18
-2 23 -10 25 -46 4 -47 22 -48 22 -1 0 49 -16 69 -55 69 l-35 0 0 -57z"/>
<path d="M6837 283 c-15 -14 -6 -23 12 -13 14 7 22 7 27 -1 8 -13 -5 -26 -31
-31 -14 -2 -20 -11 -20 -28 0 -22 4 -25 38 -25 20 0 38 4 38 10 4 39 -2 79
-13 86 -16 10 -42 11 -51 2z m51 -65 c-5 -15 -48 -24 -48 -10 0 14 12 22 33
22 10 0 17 -5 15 -12z"/>
<path d="M6987 283 c-14 -13 -6 -23 11 -15 18 10 42 5 42 -8 0 -5 -13 -11 -29
-15 -66 -14 -61 -67 5 -62 32 2 34 4 34 39 0 20 -3 43 -6 52 -6 16 -45 22 -57
9z m51 -65 c-5 -15 -58 -24 -58 -10 0 15 12 22 38 22 14 0 22 -5 20 -12z"/>
<path d="M7126 275 c-17 -18 -19 -28 -10 -62 7 -25 34 -37 64 -28 30 10 24 20
-12 20 -30 0 -33 3 -33 30 0 27 3 30 33 30 17 0 31 4 29 10 -6 17 -54 17 -71
0z"/>
<path d="M7236 274 c-34 -33 -9 -94 38 -94 31 0 46 18 46 55 0 17 -5 36 -12
43 -17 17 -54 15 -72 -4z m66 -21 c8 -36 -3 -54 -31 -51 -26 3 -38 26 -27 54
8 20 54 18 58 -3z"/>
<path d="M7343 240 c-1 -28 3 -53 8 -56 5 -3 9 15 9 40 0 42 2 46 25 46 23 0
25 -4 25 -40 0 -22 5 -40 10 -40 6 0 10 18 10 41 0 36 2 40 23 37 18 -2 23
-11 28 -48 4 -35 7 -41 14 -26 4 10 4 35 -1 55 l-9 36 -71 2 -71 2 0 -49z"/>
</g>
</svg>
