<?xml version="1.0" standalone="no"?>
<!DOCTYPE svg PUBLIC "-//W3C//DTD SVG 20010904//EN"
 "http://www.w3.org/TR/2001/REC-SVG-20010904/DTD/svg10.dtd">
<svg version="1.0" xmlns="http://www.w3.org/2000/svg"
 width="816.000000pt" height="1056.000000pt" viewBox="0 0 816.000000 1056.000000"
 preserveAspectRatio="xMidYMid meet">
<metadata>
Created by potrace 1.16, written by Peter Selinger 2001-2019
</metadata>
<g transform="translate(0.000000,1056.000000) scale(0.100000,-0.100000)"
fill="#000000" stroke="none">
<path d="M225 10318 c-3 -7 -4 -2283 -3 -5058 l3 -5045 2613 0 c1494 0 2611 4
2610 9 -2 5 -44 8 -95 7 -55 -1 -94 2 -98 8 -3 6 -2 11 3 11 16 0 551 331 792
489 51 34 96 61 101 61 4 0 9 4 11 8 1 5 35 29 73 54 39 25 79 51 91 59 183
122 234 159 262 186 28 28 32 38 32 86 0 103 -54 219 -142 306 -62 62 -88 77
-158 92 -85 18 -187 -18 -353 -124 -109 -70 -137 -87 -141 -87 -2 0 -55 -31
-118 -68 -62 -38 -187 -113 -278 -167 -91 -53 -181 -107 -200 -120 -19 -12
-316 -190 -660 -395 -344 -205 -632 -380 -641 -387 -14 -11 -79 -13 -361 -11
l-345 3 -49 40 c-27 22 -54 44 -60 50 -13 12 -111 86 -259 198 -60 45 -149
112 -196 149 -108 83 -221 149 -324 189 -44 17 -246 86 -450 154 -203 68 -422
142 -485 165 -63 23 -179 63 -257 90 -192 67 -454 166 -531 201 -35 16 -66 29
-69 29 -3 0 -73 32 -154 72 l-149 71 0 563 0 563 122 40 c68 22 337 113 598
202 261 89 491 163 510 165 19 3 60 -1 90 -9 55 -12 55 -13 67 -62 7 -28 16
-86 19 -131 6 -67 3 -93 -17 -159 l-23 -78 22 -17 c14 -12 48 -20 94 -24 40
-4 108 -12 152 -18 69 -11 84 -10 128 6 49 17 50 17 65 -3 13 -19 24 -21 109
-21 52 0 126 -5 163 -11 l68 -11 94 42 c52 23 104 51 116 62 32 30 47 136 40
291 -4 114 -3 128 13 137 9 5 23 22 29 38 10 25 8 38 -13 97 -21 54 -28 97
-36 223 -5 86 -8 157 -6 159 4 5 154 -71 232 -117 36 -22 73 -33 127 -40 43
-5 91 -17 108 -26 41 -21 130 -30 157 -15 46 24 34 80 -41 204 -16 26 -28 50
-26 52 2 1 348 8 769 14 l766 10 84 -23 85 -23 -1 -154 c-1 -94 -8 -193 -18
-254 -20 -119 -14 -148 36 -164 55 -17 219 -31 367 -31 131 0 143 2 207 29 38
16 72 27 76 25 5 -3 6 -15 2 -28 -3 -14 1 -27 10 -35 17 -14 302 -43 441 -45
92 -1 117 6 253 73 76 37 92 104 99 418 4 168 8 223 18 227 7 2 316 7 687 11
370 3 708 8 751 10 l77 4 0 -182 0 -182 -84 3 c-76 4 -86 2 -107 -19 -18 -18
-32 -22 -77 -20 -44 2 -59 -2 -78 -20 -22 -20 -27 -21 -80 -10 -86 17 -110 14
-132 -14 -16 -20 -29 -25 -64 -25 -59 0 -82 -18 -81 -64 2 -64 11 -69 203
-106 58 -12 193 -40 300 -63 l195 -42 5 -304 c3 -166 2 -305 -2 -307 -3 -2
-132 27 -285 65 -153 38 -294 73 -313 76 -39 8 -105 43 -285 150 -203 121
-267 143 -338 116 -41 -16 -75 -60 -82 -107 -3 -24 -12 -44 -18 -44 -7 0 -44
9 -82 20 -85 24 -126 25 -172 3 -47 -22 -73 -66 -73 -125 0 -80 64 -134 188
-158 34 -7 65 -18 70 -24 15 -20 95 -236 90 -241 -3 -3 -76 29 -163 71 -132
64 -163 75 -192 71 -60 -10 -103 -79 -103 -167 0 -43 5 -55 33 -84 17 -19 86
-63 152 -97 66 -34 127 -67 135 -73 16 -12 59 -36 224 -121 l99 -52 124 -309
c68 -170 130 -322 138 -339 7 -16 20 -48 28 -70 68 -190 82 -219 137 -274 53
-53 175 -165 250 -227 103 -87 147 -107 170 -79 17 20 8 90 -50 393 -32 167
-44 212 -68 250 -47 75 -203 392 -193 392 5 0 16 -7 25 -15 8 -8 17 -15 20
-15 3 0 36 -20 73 -45 37 -24 156 -100 263 -168 l195 -123 3 -431 2 -431 -22
-6 c-13 -3 -83 -6 -155 -6 -84 0 -133 -4 -133 -10 0 -7 58 -10 168 -8 l167 3
3 5049 c2 4033 0 5051 -10 5058 -7 4 -1742 8 -3856 8 -3065 0 -3844 -3 -3847
-12z m7685 -90 c0 -42 -4 -79 -9 -83 -17 -10 -97 -148 -121 -210 -13 -33 -27
-64 -31 -70 -4 -5 -35 -62 -69 -125 -133 -243 -180 -296 -255 -286 -22 3 -89
12 -150 20 -147 20 -456 20 -610 1 -150 -20 -312 -58 -435 -102 -117 -42 -355
-141 -437 -182 -82 -41 -120 -41 -160 2 -32 35 -307 378 -392 491 -29 38 -58
74 -64 81 -23 23 -117 132 -139 161 -63 83 -184 179 -240 189 -31 6 -38 4 -52
-17 -26 -40 -28 -114 -12 -488 8 -201 20 -489 26 -640 10 -272 36 -873 44
-1022 2 -43 0 -78 -4 -78 -5 0 -22 19 -39 43 -16 23 -44 61 -63 83 -18 22 -49
60 -68 84 -103 129 -168 180 -230 180 -79 0 -145 -65 -302 -295 -45 -66 -85
-122 -88 -125 -4 -3 -9 -9 -11 -15 -2 -5 -22 -41 -44 -80 l-40 -70 -4 -140
c-4 -165 14 -558 34 -735 8 -69 19 -210 25 -315 6 -104 29 -404 51 -665 21
-261 39 -512 39 -558 0 -146 30 -172 173 -154 202 25 527 46 538 35 32 -32
-56 -93 -233 -162 -68 -27 -152 -60 -188 -74 -36 -14 -108 -42 -161 -61 -129
-49 -177 -84 -340 -247 l-139 -140 -325 -11 c-179 -6 -327 -9 -330 -6 -3 3 1
36 9 74 37 169 79 426 126 769 17 121 37 247 45 280 22 90 19 154 -12 237 -14
40 -34 104 -44 142 -40 157 -111 157 -287 0 -97 -87 -125 -104 -172 -104 -22
0 -136 14 -253 31 -396 57 -368 51 -398 77 -18 15 -51 94 -79 187 -18 57 -50
117 -73 138 -60 51 -113 24 -218 -114 -15 -19 -61 -77 -103 -129 -79 -98 -128
-188 -164 -300 -27 -80 -87 -324 -107 -428 -8 -42 -31 -147 -50 -232 -114
-509 -114 -507 -58 -616 21 -40 35 -75 33 -77 -3 -2 -153 -9 -335 -16 -181 -6
-408 -14 -502 -18 l-173 -6 0 2981 c0 2783 1 2981 17 2984 9 2 1735 3 3835 3
l3818 0 0 -77z m0 -271 c0 -144 -2 -166 -18 -183 -28 -29 -142 -207 -200 -310
-62 -109 -100 -151 -146 -159 -20 -4 -77 2 -139 14 -162 31 -388 45 -542 32
-200 -17 -314 -44 -610 -142 -285 -95 -395 -141 -499 -212 -88 -61 -143 -53
-206 29 -19 25 -68 87 -109 137 -40 51 -100 126 -133 167 -33 41 -69 86 -81
100 -12 14 -68 84 -126 155 -173 216 -212 249 -227 189 -15 -59 63 -1236 84
-1269 4 -5 9 -196 12 -422 5 -423 4 -440 -32 -410 -8 7 -36 42 -61 79 l-46 68
-10 202 c-6 112 -15 329 -21 483 -6 154 -15 368 -20 475 -19 361 -40 874 -40
966 0 149 21 177 99 138 55 -28 263 -248 391 -414 188 -245 282 -362 362 -452
72 -81 101 -91 174 -58 423 192 610 254 873 290 198 28 486 27 670 0 151 -23
185 -19 226 27 56 62 137 197 221 368 82 169 140 275 150 275 2 0 4 -73 4
-163z m-2974 -205 c16 -16 38 -40 49 -53 24 -29 170 -211 233 -289 24 -30 53
-65 63 -78 22 -25 23 -36 39 -407 6 -126 22 -454 36 -728 14 -275 24 -500 22
-502 -7 -8 -379 -27 -386 -21 -4 4 -10 197 -13 429 -4 232 -12 456 -18 497 -5
41 -15 145 -21 230 -49 716 -60 950 -41 950 4 0 21 -13 37 -28z m2974 -586 l0
-595 -47 5 c-26 2 -81 14 -122 25 -265 74 -533 94 -816 60 -198 -24 -413 -61
-545 -92 -47 -12 -101 -19 -120 -16 -23 3 -92 43 -200 115 -91 60 -218 144
-283 185 l-118 76 44 19 c25 11 70 36 101 56 32 20 101 55 154 77 159 67 558
195 697 225 123 27 143 28 365 27 208 -1 250 -4 366 -26 196 -39 216 -30 311
133 57 99 201 320 209 320 2 0 4 -267 4 -594z m-2511 24 c14 -19 28 -37 31
-40 3 -3 31 -39 62 -80 30 -41 64 -82 74 -91 17 -15 319 -217 571 -382 70 -46
111 -67 133 -67 17 0 76 11 133 25 129 31 293 58 517 86 230 28 424 23 625
-15 77 -15 169 -36 204 -46 35 -11 85 -20 112 -20 l49 0 2 -2365 c2 -1301 3
-2365 3 -2366 0 0 -43 -2 -95 -4 -78 -3 -88 -2 -53 6 22 5 53 22 68 36 l26 27
-3 230 -3 231 -73 150 c-104 215 -104 216 -134 238 -24 18 -34 19 -75 11 l-48
-9 -75 57 c-41 31 -84 65 -96 76 -46 43 -153 116 -208 143 -33 16 -103 38
-155 50 -102 23 -406 112 -456 134 -16 7 -39 17 -50 21 -24 10 -26 10 345 24
151 5 302 16 335 23 95 20 92 1 72 434 -83 1779 -77 1686 -116 1765 -17 35
-75 122 -129 193 -53 72 -132 186 -174 255 -94 151 -97 156 -125 190 -13 15
-23 31 -23 34 0 9 -50 65 -132 148 -91 93 -153 117 -216 84 -43 -23 -78 -72
-136 -193 -6 -13 -14 -23 -18 -23 -5 0 -8 -5 -8 -11 0 -16 -62 -143 -72 -147
-4 -2 -8 -8 -8 -12 0 -14 -64 -145 -72 -148 -4 -2 -8 -8 -8 -13 0 -22 -65 -89
-94 -98 -25 -8 -243 -24 -464 -34 -51 -2 -46 -22 -56 213 -4 80 -11 240 -16
355 -6 116 -17 354 -25 530 -8 176 -17 358 -21 405 l-5 85 26 -30 c15 -16 39
-46 54 -65z m1034 -862 c32 -16 142 -132 203 -213 49 -66 164 -248 164 -260 0
-3 9 -15 20 -27 34 -37 25 -45 -60 -52 -44 -4 -84 -5 -89 -2 -5 3 -3 27 6 55
19 67 7 91 -47 91 -35 0 -40 3 -46 28 -4 15 -13 40 -21 56 -14 26 -18 28 -56
23 -23 -2 -49 -6 -57 -8 -11 -3 -16 9 -20 49 -8 73 -30 87 -87 52 -43 -26
-153 -196 -215 -332 -22 -48 -38 -58 -95 -58 -37 0 -41 12 -15 40 9 10 73 129
141 263 68 135 136 259 152 276 30 34 80 42 122 19z m-1980 -130 c24 -12 35
-24 115 -115 99 -115 318 -410 310 -418 -7 -8 -349 -28 -355 -21 -4 3 8 25 26
49 51 68 64 103 49 135 -12 25 -30 35 -88 46 -20 4 -28 16 -40 53 -14 45 -18
48 -51 51 -31 3 -43 -4 -89 -45 -30 -26 -76 -82 -103 -123 -47 -72 -89 -129
-132 -176 -14 -16 -36 -24 -77 -28 l-58 -6 0 29 c0 17 5 43 12 58 15 35 89
147 100 151 4 2 8 8 8 13 0 20 157 240 217 305 16 17 38 36 48 42 26 15 81 15
108 0z m1937 -130 c0 -78 28 -101 95 -81 39 12 55 2 55 -37 0 -39 20 -59 65
-62 36 -3 40 -5 37 -28 -1 -14 -10 -41 -20 -60 l-17 -35 -125 -7 c-69 -3 -172
-9 -228 -13 l-104 -6 7 22 c4 13 33 66 64 118 31 53 62 108 70 122 15 31 79
99 92 99 5 0 9 -15 9 -32z m-1950 -167 c13 -48 23 -57 80 -68 41 -8 45 -12 43
-36 -1 -15 -9 -34 -17 -42 -8 -9 -23 -29 -33 -45 -9 -17 -21 -30 -25 -30 -4 0
-8 -7 -8 -15 0 -9 -10 -20 -22 -25 -29 -12 -308 -28 -315 -17 -2 4 3 14 11 23
9 8 46 58 82 110 75 108 147 184 174 184 14 0 22 -11 30 -39z m2508 -251 c35
-47 69 -92 77 -101 49 -61 109 -221 88 -239 -4 -4 -640 -47 -1413 -95 -773
-48 -1476 -92 -1563 -98 -86 -5 -160 -7 -163 -4 -11 10 -28 427 -18 436 5 5
347 30 759 55 779 49 1269 79 1535 96 85 5 234 14 330 20 96 6 193 12 215 14
85 7 86 6 153 -84z m176 -537 c3 -93 8 -189 11 -215 4 -44 2 -50 -28 -72 -87
-66 -242 -115 -430 -137 -254 -29 -753 21 -912 91 -11 5 -36 13 -55 19 -134
37 -380 167 -513 270 -34 26 -72 53 -83 59 -26 14 -36 6 -84 -58 -73 -99 -233
-222 -400 -307 -88 -45 -118 -56 -225 -87 -177 -51 -309 -73 -370 -62 -33 7
-35 9 -35 49 0 23 -7 124 -16 225 -9 101 -13 186 -10 189 4 4 66 10 139 15
455 26 687 40 877 53 118 8 427 28 685 45 766 49 1093 70 1210 79 61 4 138 9
171 10 l62 1 6 -167z m-1937 -91 c118 -87 251 -161 423 -235 159 -69 384 -119
642 -143 336 -31 622 6 822 107 32 17 60 28 62 27 2 -2 8 -96 13 -208 6 -113
15 -297 21 -410 40 -789 42 -838 26 -840 -111 -14 -248 -22 -526 -30 -190 -6
-471 -17 -625 -25 -154 -8 -406 -19 -560 -25 -154 -5 -347 -15 -430 -20 -284
-20 -670 -51 -762 -60 -117 -13 -170 -13 -178 0 -3 6 -11 94 -16 198 -5 103
-21 318 -35 477 -22 253 -53 669 -54 716 0 14 18 17 108 22 184 10 417 83 603
188 138 78 303 215 355 294 9 14 20 25 25 25 5 0 43 -26 86 -58z m-3309 -778
c29 -20 54 -69 86 -174 15 -47 34 -96 42 -108 20 -31 15 -35 -39 -27 -41 6
-46 10 -50 38 -19 118 -39 157 -79 157 -9 0 -55 -34 -101 -75 -74 -66 -117
-91 -117 -67 0 4 15 23 33 44 17 20 48 57 67 83 44 59 121 145 129 145 4 0 17
-7 29 -16z m-20 -156 c7 -7 12 -27 12 -46 0 -18 4 -41 9 -51 23 -43 -12 -48
-147 -24 l-33 5 67 64 c37 35 70 64 74 64 3 0 11 -5 18 -12z m1248 -86 c7 -4
20 -38 29 -77 10 -38 21 -77 25 -85 23 -46 42 -101 37 -106 -3 -4 -28 -1 -54
5 l-48 12 -2 71 c-2 40 -7 76 -12 81 -15 15 -53 1 -135 -53 -73 -47 -118 -61
-131 -41 -3 5 4 16 15 24 11 8 37 29 58 48 128 117 181 146 218 121z m-1281
-92 c536 -66 786 -102 995 -145 69 -14 175 -35 235 -46 61 -11 118 -22 128
-25 21 -7 22 -47 2 -142 -8 -38 -22 -127 -31 -198 -9 -71 -20 -138 -24 -150
-12 -31 -93 -48 -189 -41 -107 8 -195 40 -266 97 -55 44 -77 46 -164 19 -64
-20 -96 -24 -211 -24 -133 0 -136 1 -200 33 -36 18 -85 51 -110 73 -72 66 -97
73 -167 47 -119 -43 -302 -21 -380 47 -27 22 -27 23 -15 86 13 71 74 265 99
313 38 74 53 88 92 82 20 -3 113 -15 206 -26z m1241 -80 c2 -41 -1 -50 -18
-56 -23 -7 -116 5 -123 16 -5 8 113 90 130 90 6 0 11 -22 11 -50z m-1615 -434
c101 -57 249 -72 355 -36 81 27 93 25 139 -16 113 -102 185 -133 330 -140 88
-5 112 -2 200 21 55 15 109 28 121 27 11 0 43 -15 70 -35 68 -48 135 -75 218
-88 67 -11 162 -7 214 7 19 6 22 3 22 -22 0 -16 -9 -81 -20 -144 -11 -63 -32
-180 -45 -260 -14 -80 -34 -188 -45 -240 -10 -52 -21 -117 -25 -144 -4 -27 -9
-54 -11 -61 -5 -13 -3 -14 -399 50 -121 20 -265 43 -320 51 -55 9 -161 26
-235 39 -74 13 -211 35 -305 50 -401 63 -470 76 -482 93 -19 23 -16 61 11 170
13 53 27 115 30 137 4 22 22 108 41 190 18 83 43 195 55 250 23 110 27 125 33
125 3 0 24 -11 48 -24z m4875 -278 c-1 -120 22 -224 66 -295 l20 -33 -51 0
c-44 0 -56 -5 -88 -34 -34 -31 -37 -39 -41 -98 -8 -125 60 -213 166 -213 46 0
57 4 77 27 13 16 26 25 28 20 3 -4 13 -54 22 -112 9 -58 25 -156 36 -218 24
-142 22 -147 -102 -196 -179 -72 -682 -145 -995 -146 -257 0 -402 23 -649 102
-143 46 -167 58 -113 58 105 0 197 99 198 212 0 83 -37 127 -116 136 -38 4
-43 7 -39 26 2 11 18 77 34 146 62 264 77 391 62 517 -6 48 -14 100 -17 114
l-6 25 164 13 c155 11 811 40 927 41 l55 0 -31 -32 c-44 -47 -54 -72 -54 -134
0 -69 24 -119 79 -161 128 -98 311 -5 312 157 0 58 -35 129 -77 155 -18 11
-32 23 -33 28 0 4 38 7 84 7 l84 0 -2 -112z m-171 86 c18 -8 45 -33 60 -54 95
-137 -14 -312 -177 -285 -56 10 -121 72 -137 132 -39 142 120 271 254 207z
m305 -19 c33 -17 256 -89 350 -114 41 -10 74 -24 73 -29 -1 -6 -16 -32 -33
-58 -38 -61 -79 -188 -87 -270 -5 -54 -9 -64 -22 -59 -9 4 -63 22 -121 41 -58
19 -109 37 -115 42 -24 18 -78 107 -101 169 -21 54 -27 92 -32 187 l-5 118 34
-7 c19 -4 45 -13 59 -20z m-1665 -261 c0 -117 -18 -267 -34 -291 -8 -11 -61
-36 -144 -68 -35 -13 -84 -34 -110 -46 l-47 -23 -31 30 c-57 53 -109 185 -109
273 0 45 1 46 48 65 26 11 65 27 87 37 22 9 83 34 135 54 96 37 180 83 180 98
0 5 6 7 13 4 9 -3 12 -38 12 -133z m2259 85 c74 -25 146 -60 146 -71 0 -4 5
-8 11 -8 6 0 57 -37 112 -83 56 -46 118 -94 137 -107 63 -43 78 -67 64 -104
-9 -23 -25 -20 -61 14 -26 25 -40 30 -80 30 -45 0 -113 -28 -113 -47 -1 -31
-117 -63 -227 -63 -48 0 -217 46 -252 69 -11 7 -12 24 -7 78 12 117 47 218
103 292 24 31 29 33 66 27 22 -4 67 -16 101 -27z m-2754 -203 c0 -34 27 -145
44 -187 8 -19 31 -56 50 -83 l36 -49 -118 -53 c-138 -62 -200 -74 -377 -73
-167 2 -189 6 -193 40 -3 23 18 48 130 161 152 153 197 187 312 234 99 41 116
42 116 10z m2134 -70 c36 -34 46 -56 24 -56 -6 0 -20 -8 -30 -17 -13 -11 -22
-14 -26 -7 -13 20 -54 36 -78 30 -45 -12 -41 -74 8 -126 13 -14 37 -43 53 -64
l30 -39 -39 6 c-65 10 -119 74 -132 155 -8 49 23 123 59 140 46 22 93 14 131
-22z m1199 -33 c11 -13 19 -61 29 -180 l13 -161 -65 -5 c-36 -3 -130 -15 -210
-26 -80 -11 -148 -21 -152 -21 -4 0 7 30 25 68 27 56 32 80 33 146 2 71 4 81
25 97 36 28 74 24 111 -11 44 -43 91 -42 119 3 13 21 18 43 15 64 -2 17 -2 34
1 37 12 12 40 6 56 -11z m-693 -161 l95 -25 107 18 c58 9 112 14 118 10 19
-12 4 -76 -42 -178 -38 -84 -42 -98 -40 -167 4 -124 31 -269 61 -326 l28 -51
-111 -7 c-61 -3 -228 -6 -370 -6 l-260 0 52 26 c58 29 102 75 102 106 0 12
-13 49 -29 83 -16 34 -35 89 -41 121 -26 132 -87 519 -84 526 3 3 75 -19 162
-49 86 -31 200 -67 252 -81z m-550 98 c33 -35 36 -36 43 -10 5 21 33 37 45 26
3 -4 -11 -40 -33 -80 l-39 -73 -43 51 c-44 51 -60 86 -48 105 12 20 47 11 75
-19z m1427 -455 l2 -150 -25 54 c-14 30 -32 80 -40 110 -8 31 -25 79 -39 106
-17 35 -27 81 -35 153 -18 183 -17 183 63 22 l72 -145 2 -150z m-1337 324
c-11 -25 -45 -48 -56 -36 -6 6 24 76 44 103 l17 22 3 -30 c2 -17 -2 -43 -8
-59z m-1744 19 c-3 -17 -8 -33 -10 -35 -2 -2 -41 -3 -87 -1 l-82 3 79 32 c103
41 108 41 100 1z m-3361 -58 c39 -5 165 -25 280 -44 116 -19 260 -41 320 -50
61 -10 207 -32 325 -51 118 -19 303 -48 410 -65 277 -43 256 -35 251 -100 -4
-67 -23 -106 -55 -114 -28 -7 -295 40 -313 56 -7 6 -13 21 -13 34 0 85 -172
147 -540 194 -242 31 -332 24 -399 -32 -27 -23 -34 -24 -87 -17 -81 11 -186
45 -218 70 -25 20 -76 106 -76 129 0 6 10 8 23 6 12 -3 54 -10 92 -16z m3345
-13 c0 -7 -16 -82 -35 -167 -19 -85 -35 -155 -35 -156 0 -2 -78 -5 -740 -29
-223 -8 -517 -19 -655 -24 -137 -5 -251 -8 -253 -6 -4 4 12 149 30 266 l11 77
246 7 c450 12 406 13 403 -12 -4 -32 14 -60 50 -79 26 -14 61 -15 232 -12 224
5 196 -2 441 107 86 38 94 40 198 40 82 1 107 -2 107 -12z m-3425 -127 c32
-33 136 -76 208 -86 26 -4 47 -10 47 -14 0 -16 -130 -65 -360 -135 -30 -9 -89
-33 -130 -55 l-75 -38 -220 -6 c-121 -3 -289 -9 -372 -12 l-153 -6 0 170 0
170 82 6 c46 3 268 11 493 17 226 6 412 13 414 15 13 12 41 0 66 -26z m6391
-15 c28 -43 117 -307 121 -361 7 -80 27 -74 -354 -102 -56 -4 -112 -5 -124 -2
-52 13 -81 93 -100 282 -11 102 -11 121 2 133 9 9 77 25 164 40 83 14 155 27
160 29 6 3 34 5 62 5 46 1 55 -2 69 -24z m-2841 -29 c73 -56 43 -198 -54 -263
-34 -23 -131 -34 -131 -14 0 9 50 54 109 99 59 45 49 102 -17 102 l-35 0 7 42
c4 22 9 45 12 50 11 18 77 8 109 -16z m-2847 3 c53 -6 99 -13 101 -15 3 -2 -4
-11 -16 -19 -55 -38 -57 -150 -4 -197 48 -43 97 -34 126 22 26 51 16 139 -19
162 -25 16 9 21 67 9 124 -24 256 -70 272 -94 12 -18 14 -54 12 -173 -2 -148
-2 -149 26 -192 27 -42 29 -53 38 -210 5 -92 14 -189 19 -215 14 -67 13 -75
-12 -88 -141 -76 -690 -57 -1068 36 -130 32 -174 49 -178 68 -2 9 12 58 32
109 19 51 71 206 117 343 45 138 83 252 86 254 2 3 12 -5 23 -17 41 -43 102
-17 142 61 22 43 29 119 14 150 -7 15 -1 17 58 17 37 0 110 -5 164 -11z m-237
-26 c23 -62 -28 -176 -85 -189 -37 -8 -56 14 -56 67 0 48 17 87 53 122 38 36
74 36 88 0z m414 -33 c11 -12 20 -41 23 -73 7 -87 -48 -133 -106 -89 -39 30
-43 130 -6 166 22 22 67 20 89 -4z m2612 -57 c4 -11 -5 -25 -28 -45 -51 -43
-58 -48 -65 -48 -10 0 5 82 18 97 15 19 67 16 75 -4z m-3223 -20 c-4 -16 -19
-66 -34 -113 -15 -47 -30 -99 -34 -117 -4 -17 -13 -36 -19 -41 -15 -11 -107
-45 -111 -41 -1 2 -7 36 -14 75 -6 38 -23 91 -37 117 -16 28 -22 47 -15 47 7
0 26 6 43 14 18 8 50 20 71 27 22 6 63 22 90 35 65 29 68 29 60 -3z m3076 -57
c0 -8 -12 -47 -26 -87 -33 -92 -30 -148 12 -184 16 -14 33 -25 37 -25 5 0 6
-4 2 -9 -3 -5 -87 -10 -188 -10 -100 0 -434 -3 -742 -7 l-560 -5 -65 75 c-36
41 -91 92 -122 113 -53 34 -71 53 -50 53 5 0 19 10 31 22 27 24 31 25 921 53
278 9 525 17 550 19 142 8 200 6 200 -8z m-3342 -68 c29 -56 55 -178 41 -195
-14 -16 -60 -30 -126 -37 -47 -6 -53 -4 -64 16 -7 13 -21 31 -32 40 -21 19
-125 55 -171 60 -25 3 -15 10 74 58 99 53 209 99 240 100 8 0 25 -19 38 -42z
m1417 -3 c84 -15 217 -75 277 -124 70 -58 169 -174 202 -238 19 -38 15 -40
-58 -17 -66 20 -104 8 -112 -36 -6 -27 -10 -30 -43 -30 -25 0 -57 12 -97 36
-32 20 -90 51 -129 71 -78 39 -104 60 -146 117 -27 37 -29 45 -29 136 0 53 3
100 6 103 4 4 16 4 28 2 12 -3 57 -12 101 -20z m3915 -75 c0 -76 -148 -120
-555 -165 -121 -14 -230 -27 -242 -30 -13 -3 -138 -12 -280 -20 -192 -11 -286
-12 -373 -5 -323 29 -550 103 -550 180 0 32 18 32 103 2 117 -43 208 -70 317
-93 135 -30 486 -37 695 -15 165 18 467 65 585 91 95 22 221 69 251 96 22 19
24 19 36 3 7 -10 13 -30 13 -44z m-5741 -10 c-35 -33 -40 -43 -35 -66 9 -36
19 -44 111 -84 77 -34 84 -35 200 -35 110 1 127 3 201 32 83 32 100 33 85 4
-5 -9 -23 -59 -40 -111 -17 -52 -54 -157 -83 -232 -46 -125 -50 -140 -38 -167
13 -33 44 -56 98 -75 33 -12 35 -14 17 -23 -11 -6 -238 -83 -505 -172 -267
-90 -514 -173 -550 -186 -36 -13 -75 -26 -87 -30 l-23 -6 0 585 0 586 88 1
c48 1 157 5 242 9 85 3 201 7 258 8 l103 2 -42 -40z m126 -69 c47 -12 105 -46
105 -61 0 -18 -59 -11 -118 14 -31 12 -66 26 -77 30 -20 7 -20 8 -1 22 11 8
27 12 35 10 9 -3 34 -10 56 -15z m5318 -168 c9 -91 8 -205 -1 -219 -7 -11 -82
-38 -138 -49 l-32 -6 4 158 4 158 62 11 c101 18 94 22 101 -53z m-189 0 c8
-50 7 -198 -2 -245 -6 -32 -17 -43 -82 -86 -41 -26 -97 -65 -123 -85 -68 -52
-90 -49 -152 20 -27 31 -74 80 -102 109 -50 50 -53 56 -53 102 0 27 -3 76 -6
110 l-7 60 69 7 c38 3 119 13 179 20 165 22 166 22 221 24 l51 1 7 -37z
m-1059 -8 c65 -8 175 -15 242 -15 l123 0 0 -109 0 -109 -103 -65 c-112 -72
-153 -91 -170 -80 -7 4 -41 29 -77 56 -35 27 -83 59 -107 70 l-43 21 0 123 c0
68 3 123 8 123 4 0 61 -7 127 -15z m497 -75 c1 -38 2 -86 3 -106 l0 -36 -55
-1 -55 -1 -3 98 c-3 112 -1 116 66 116 l42 0 2 -70z m-2394 -30 c62 -29 79
-54 45 -67 -27 -10 -154 37 -163 61 -4 12 -6 24 -3 29 9 15 60 6 121 -23z
m1927 -272 c71 -54 91 -51 221 32 126 80 123 82 104 -56 -18 -140 -12 -134
-132 -134 -104 0 -338 22 -370 35 -10 4 -18 18 -18 31 0 21 15 132 26 192 5
25 -10 34 169 -100z m475 31 c0 -91 -10 -129 -33 -129 -7 0 -32 -9 -55 -20
-24 -12 -46 -18 -51 -16 -4 3 -2 38 5 78 7 40 13 97 13 126 l1 52 60 0 60 0 0
-91z m736 19 c-13 -129 -23 -161 -59 -186 -18 -12 -39 -22 -46 -22 -6 0 -30
-9 -52 -21 -23 -11 -43 -18 -45 -16 -3 2 2 44 11 92 8 48 15 102 15 119 0 44
7 50 80 70 36 9 72 21 80 26 8 5 17 10 19 10 2 0 0 -33 -3 -72z m1547 62 c20
0 30 -7 38 -26 5 -15 7 -29 4 -32 -9 -10 -195 30 -189 40 11 17 49 28 84 23
19 -3 47 -5 63 -5z m-2170 -88 c27 -32 51 -62 55 -68 22 -31 77 -64 106 -64
29 0 100 37 116 60 9 13 127 90 139 90 15 0 13 -49 -7 -155 l-17 -90 -45 -3
c-40 -4 -194 7 -374 24 l-58 6 6 47 c4 25 10 83 13 129 3 45 9 82 12 81 3 0
28 -26 54 -57z m2094 27 c107 -20 113 -23 113 -45 0 -17 -6 -24 -18 -24 -21 0
-315 60 -320 65 -2 2 -1 8 3 14 10 17 98 13 222 -10z m-259 -19 c53 -11 140
-29 192 -40 52 -11 114 -22 137 -26 33 -5 42 -11 46 -30 2 -13 2 -24 0 -24 -2
0 -70 13 -151 29 -81 16 -203 39 -272 51 -69 13 -127 24 -129 26 -2 2 -1 10 2
19 9 21 56 19 175 -5z m-6112 -36 c147 -48 412 -89 683 -105 221 -14 356 -4
469 33 75 26 88 23 78 -16 -10 -40 -65 -48 -386 -53 -413 -7 -773 28 -897 88
-36 17 -43 26 -43 50 0 16 4 29 9 29 5 0 44 -11 87 -26z m6021 -14 c59 -12
158 -30 218 -41 61 -11 140 -27 178 -36 l67 -15 0 -62 0 -62 -187 38 c-104 21
-235 48 -293 59 -152 29 -199 46 -206 74 -3 13 -1 33 6 44 14 28 73 28 217 1z
m-5594 -166 c85 -6 99 -10 109 -28 14 -26 23 -232 14 -320 l-8 -66 -36 0 c-61
0 -256 22 -265 30 -5 4 -1 29 7 55 19 55 22 173 7 260 -16 90 -17 88 32 81 23
-3 86 -8 140 -12z m755 -147 c4 -202 3 -204 -88 -249 -41 -20 -75 -36 -77 -34
-1 1 2 43 8 92 11 84 8 214 -7 296 l-6 37 63 4 c115 6 104 22 107 -146z m-538
96 c16 -60 23 -164 16 -236 -7 -64 -9 -68 -49 -95 l-42 -28 0 171 c0 93 -4
182 -8 198 -7 26 -6 27 32 27 38 0 41 -2 51 -37z m360 -35 c13 -73 8 -245 -8
-318 l-8 -35 -54 2 c-212 7 -250 9 -251 16 -1 4 4 34 11 66 12 59 9 257 -5
314 l-7 27 155 0 155 0 12 -72z m4425 -260 c33 -17 70 -36 82 -42 13 -6 23
-14 23 -18 0 -5 4 -8 10 -8 5 0 55 -27 110 -60 55 -33 103 -60 105 -60 3 0 22
-11 43 -24 20 -13 98 -56 172 -96 74 -40 155 -85 180 -101 25 -15 61 -35 80
-46 82 -44 236 -137 245 -148 15 -18 7 -185 -9 -185 -7 0 -54 25 -105 55 -51
30 -95 55 -98 55 -3 0 -17 8 -31 18 -15 11 -63 38 -107 62 -44 23 -98 53 -120
65 -104 58 -181 99 -455 238 -162 82 -305 159 -317 170 -40 36 -27 117 25 150
36 23 89 15 167 -25z m-321 -107 c43 -11 85 -28 94 -38 30 -34 74 -59 312
-179 263 -132 245 -122 238 -129 -2 -3 -56 8 -119 24 -120 31 -429 100 -587
131 -99 20 -106 23 -139 53 -32 29 -32 107 -1 137 28 26 99 27 202 1z m1108
-211 c106 -28 210 -55 231 -61 l37 -10 0 -78 0 -79 -117 67 c-65 37 -129 74
-143 83 -38 25 -151 87 -187 103 -33 15 -60 44 -30 32 9 -3 103 -29 209 -57z
m-937 -74 c59 -14 108 -26 109 -28 2 -2 83 -160 181 -353 98 -192 198 -388
223 -435 255 -487 290 -564 312 -665 70 -336 88 -445 72 -445 -11 0 -142 104
-207 165 -186 173 -202 192 -235 285 -13 36 -27 69 -32 75 -4 5 -8 15 -8 22 0
7 -8 32 -19 56 -16 37 -56 137 -108 272 -8 22 -19 49 -24 60 -5 11 -28 72 -53
135 -69 180 -232 591 -292 737 -30 72 -54 134 -54 137 0 10 24 7 135 -18z
m295 -66 c248 -46 361 -82 490 -156 30 -17 137 -78 238 -134 l182 -103 0 -208
0 -208 -297 151 c-164 83 -352 178 -418 212 l-119 61 -103 200 c-56 110 -103
203 -103 206 0 4 17 3 38 -2 20 -5 62 -14 92 -19z m-680 -50 c3 -3 75 -41 160
-84 85 -44 156 -80 158 -81 6 -5 114 -270 119 -292 3 -13 2 -23 -2 -23 -8 0
-60 28 -230 125 -120 68 -196 110 -268 147 -46 25 -67 53 -67 91 0 32 23 91
43 111 23 23 71 26 87 6z m1583 -799 c4 -4 6 -80 5 -169 l-3 -161 -145 94
c-80 51 -150 97 -156 102 -5 4 -18 13 -27 18 -14 9 -154 98 -267 170 -28 18
-49 51 -105 161 -38 77 -73 141 -77 142 -5 2 -8 12 -8 23 0 15 70 -17 388
-177 213 -108 390 -199 395 -203z m-7505 46 c147 -73 226 -108 292 -132 19 -7
55 -22 80 -33 25 -11 65 -27 90 -36 40 -13 215 -75 355 -126 223 -80 460 -162
683 -236 144 -48 262 -91 262 -95 0 -5 -15 -9 -32 -9 -50 0 -106 -19 -128 -42
-26 -28 -26 -82 1 -120 12 -16 19 -32 15 -35 -3 -3 -61 8 -128 25 -169 42
-275 56 -379 49 -90 -6 -162 -29 -188 -60 -7 -10 -18 -17 -24 -17 -5 0 -62 29
-126 64 -630 349 -862 476 -867 476 -3 0 -19 9 -35 21 l-29 20 0 180 c0 98 3
179 6 179 3 0 71 -33 152 -73z m5971 5 c51 -24 133 -110 163 -173 58 -120 64
-190 21 -231 -27 -25 -191 -133 -202 -133 -3 0 -13 35 -23 77 -26 115 -78 216
-139 272 -56 51 -106 80 -158 91 l-34 7 64 41 c118 75 218 91 308 49z m-288
-143 c101 -51 177 -158 214 -298 28 -109 25 -119 -57 -173 -39 -26 -75 -45
-80 -42 -4 3 -8 20 -8 38 0 49 -43 166 -86 233 -47 73 -129 154 -184 180 l-42
19 58 37 c50 31 66 36 102 32 23 -3 61 -14 83 -26z m-184 -97 c16 -11 53 -46
83 -78 43 -46 51 -59 40 -66 -14 -8 -181 -105 -455 -264 -60 -35 -115 -68
-122 -74 -7 -5 -15 -10 -19 -10 -4 0 -39 -20 -78 -43 -39 -24 -163 -97 -276
-162 -113 -65 -233 -135 -267 -156 -34 -22 -64 -39 -67 -39 -6 0 -236 -137
-253 -152 -12 -10 -76 -14 -252 -16 -203 -3 -234 -1 -221 11 8 7 362 222 785
476 424 254 777 466 785 472 8 5 64 38 124 73 117 70 132 72 193 28z m-5599
-108 c51 -29 307 -170 387 -214 28 -15 97 -53 155 -86 58 -32 130 -72 161 -88
285 -157 287 -158 294 -195 9 -52 45 -109 111 -175 69 -69 62 -69 -104 10 -63
30 -116 54 -118 54 -4 0 -134 64 -791 387 l-153 75 0 129 c0 71 3 129 6 129 3
0 26 -12 52 -26z m5801 -159 c13 -35 25 -91 28 -124 5 -58 5 -61 -21 -72 -14
-7 -26 -15 -26 -19 0 -4 -18 -15 -40 -25 -22 -10 -40 -21 -40 -24 0 -4 -17
-15 -37 -26 -21 -11 -40 -22 -43 -25 -6 -6 -420 -269 -541 -343 -42 -26 -81
-47 -87 -47 -5 0 -12 -4 -14 -8 -1 -4 -30 -23 -63 -42 l-60 -35 -317 -2 c-174
-2 -319 1 -322 5 -3 4 95 66 217 137 122 70 262 152 310 182 49 29 91 53 93
53 2 0 38 20 79 45 41 25 92 55 115 68 60 33 340 196 380 222 19 12 69 41 110
65 41 24 107 62 145 86 l70 42 21 -25 c11 -13 31 -53 43 -88z m-5405 -339
c391 -194 641 -316 650 -316 2 0 46 -20 97 -44 52 -24 115 -51 142 -61 26 -10
47 -22 47 -26 0 -5 -311 -9 -695 -9 l-695 0 0 335 c0 250 3 335 12 335 6 0
205 -96 442 -214z m1689 106 c73 -34 237 -138 257 -162 3 -3 67 -52 143 -109
75 -57 140 -108 144 -113 4 -7 -7 -8 -31 -4 -80 15 -244 -49 -324 -127 l-43
-42 -335 -3 c-331 -3 -338 -2 -433 22 -145 38 -186 57 -269 131 -77 67 -133
130 -153 171 -20 43 -20 45 -2 81 23 47 66 62 198 70 107 6 214 -10 408 -62
50 -14 102 -25 115 -25 30 0 29 27 -3 52 -35 27 -58 75 -51 104 12 45 76 64
206 61 77 -2 93 -6 173 -45z m620 -451 c62 -27 141 -92 124 -103 -18 -12 -515
-10 -522 2 -12 19 149 107 225 123 44 9 124 -1 173 -22z"/>
<path d="M651 9347 c-26 -7 -52 -22 -63 -37 -24 -33 -41 -179 -36 -321 3 -100
5 -108 28 -128 14 -11 40 -23 59 -27 l33 -7 -6 -106 c-4 -58 -11 -153 -16
-211 -5 -58 -21 -287 -35 -510 -14 -223 -30 -449 -35 -504 -6 -54 -10 -102
-10 -106 0 -5 -8 -6 -19 -3 -31 8 -81 -25 -98 -65 -11 -27 -14 -65 -11 -152 5
-171 28 -196 191 -207 143 -9 205 22 216 109 5 33 11 43 26 46 51 8 67 14 87
37 12 14 29 25 37 25 9 0 31 9 49 20 l34 21 -5 -178 c-2 -98 -10 -219 -18
-270 -7 -51 -10 -95 -7 -98 7 -7 229 12 268 23 25 7 25 9 31 152 4 80 7 177 8
216 l1 72 34 6 c19 4 39 13 46 21 16 19 36 19 44 0 16 -43 127 -54 169 -18 16
15 17 9 17 -128 0 -80 -7 -196 -16 -261 -20 -144 -18 -153 39 -143 23 3 83 10
134 15 50 4 97 11 102 15 6 3 11 34 11 69 0 35 3 131 7 214 7 163 9 168 57
137 32 -21 99 -22 131 -1 l27 18 -5 -209 c-2 -120 -10 -233 -18 -266 -12 -50
-11 -59 1 -68 8 -5 24 -7 35 -4 11 3 70 10 130 17 72 7 114 16 122 25 8 10 12
74 13 196 2 245 0 230 35 238 17 4 57 21 89 38 33 17 62 31 66 31 11 0 1 -304
-13 -375 -19 -102 -16 -109 46 -101 29 4 84 9 122 13 39 3 76 10 83 16 9 7 12
55 12 178 0 93 3 169 7 169 4 0 22 -5 40 -12 30 -11 33 -15 33 -55 0 -87 39
-119 145 -117 96 1 155 43 155 110 0 17 -10 43 -21 58 -19 24 -20 31 -10 54
15 31 24 145 51 602 11 184 25 403 30 485 5 83 14 260 20 394 10 224 12 244
30 260 27 21 41 106 26 152 -13 40 -53 58 -132 58 -54 1 -84 -18 -84 -52 0
-13 -9 -17 -34 -17 -19 0 -49 -11 -70 -25 -26 -17 -50 -25 -82 -25 -41 0 -47
-3 -76 -45 -30 -42 -35 -45 -78 -45 -45 0 -46 1 -60 43 -12 33 -24 47 -56 63
-22 11 -56 30 -76 42 -24 15 -51 22 -86 22 -55 0 -78 -16 -108 -72 -13 -25
-20 -28 -69 -28 l-54 0 -11 39 c-14 52 -52 88 -103 96 -23 4 -51 14 -64 22
-12 8 -46 17 -77 20 -64 7 -77 -1 -107 -59 -19 -37 -21 -38 -75 -38 -43 0 -56
4 -60 18 -25 81 -53 105 -137 117 -36 6 -53 3 -72 -9 -22 -15 -26 -15 -57 3
-18 11 -56 23 -84 26 -49 7 -51 6 -82 -29 -18 -20 -32 -43 -32 -51 0 -12 -15
-15 -65 -15 -53 0 -65 3 -65 16 0 51 -60 114 -109 114 -11 0 -28 11 -37 25
-18 28 -68 45 -130 45 -45 0 -54 12 -54 75 0 40 -34 93 -66 105 -34 13 -128
11 -183 -3z m206 -42 c18 -20 23 -38 23 -80 0 -52 -1 -54 -32 -60 -109 -24
-153 -84 -164 -223 -5 -69 -10 -92 -21 -92 -23 0 -72 29 -83 49 -13 25 -13
179 0 290 15 129 45 153 190 146 55 -3 68 -7 87 -30z m191 -176 c12 -8 24 -27
27 -44 6 -31 -17 -478 -55 -1080 -5 -93 -17 -307 -26 -475 -17 -328 -21 -350
-75 -377 -27 -14 -82 -16 -153 -7 l-47 7 19 21 c31 34 40 81 46 256 3 91 13
251 21 355 41 508 65 950 65 1189 l0 179 78 -6 c44 -2 89 -11 100 -18z m-202
-271 c-6 -303 -15 -480 -47 -898 -11 -146 -26 -368 -33 -495 -10 -196 -14
-235 -31 -262 -39 -66 -131 -49 -147 28 -4 19 -3 77 2 129 10 97 28 359 55
780 36 560 61 858 76 897 13 35 36 61 74 84 58 36 56 44 51 -263z m326 200
c16 -11 31 -34 37 -56 30 -115 21 -370 -20 -543 -23 -99 -52 -173 -62 -162 -4
3 -7 -1 -7 -9 0 -16 -44 -33 -60 -23 -9 5 -2 46 10 55 12 9 39 87 62 181 40
165 30 479 -18 555 -24 39 4 39 58 2z m302 -30 c35 -54 49 -140 49 -288 1
-157 -9 -228 -50 -360 -33 -104 -43 -77 -14 36 75 298 48 544 -60 544 -36 0
-37 13 -3 57 29 38 58 42 78 11z m88 -16 c36 -35 48 -101 48 -261 0 -139 -10
-224 -40 -345 -34 -134 -69 -186 -125 -186 -19 0 -19 34 0 50 23 19 56 117 76
229 34 189 21 453 -28 527 l-17 27 29 -7 c17 -4 42 -19 57 -34z m-433 -56 c15
-83 14 -273 -4 -386 -24 -158 -74 -280 -61 -150 3 36 11 153 16 260 19 381 24
411 49 276z m559 37 c34 -68 45 -163 39 -332 -7 -168 -28 -276 -72 -366 -31
-65 -59 -83 -87 -58 -12 10 -18 26 -15 38 3 11 17 66 31 122 16 63 29 152 35
235 9 129 2 314 -14 351 -5 12 -2 22 11 32 32 24 52 17 72 -22z m60 17 c46
-28 59 -67 67 -200 8 -132 -5 -280 -36 -414 -34 -144 -69 -196 -131 -196 -34
0 -34 3 -4 43 56 74 93 223 103 412 7 149 -8 277 -38 337 -23 44 -12 49 39 18z
m334 -72 c9 -25 22 -93 28 -151 18 -162 -11 -398 -63 -517 -25 -56 -20 -9 13
140 46 210 39 408 -18 465 -24 24 -34 29 -59 26 -23 -3 -24 21 -1 55 19 28 28
34 53 32 25 -3 32 -10 47 -50z m42 38 c54 -22 69 -69 74 -222 8 -260 -40 -510
-110 -569 -56 -47 -89 -23 -49 34 91 127 126 596 55 733 -23 44 -21 45 30 24z
m106 -30 c0 4 13 -7 29 -25 18 -20 34 -53 40 -83 17 -75 14 -322 -5 -419 -46
-245 -78 -298 -173 -290 -11 1 -9 7 6 24 33 36 62 101 85 194 20 76 23 115 23
288 0 170 -3 207 -18 245 -32 80 -33 84 -8 71 11 -7 21 -8 21 -5z m-823 -6
c38 -14 59 -58 74 -152 13 -87 6 -178 -26 -307 -38 -151 -45 -220 -53 -471
l-7 -235 -50 -2 c-27 -2 -83 -8 -124 -14 -42 -6 -77 -7 -82 -2 -5 5 -2 42 7
88 12 57 16 129 15 254 -1 167 0 178 35 320 34 135 37 160 42 339 l5 192 67 0
c37 0 80 -5 97 -10z m1950 -16 c23 -23 25 -31 19 -75 -12 -86 -30 -106 -42
-45 -8 45 -33 67 -90 77 -57 11 -58 12 -50 44 6 24 10 25 72 25 56 0 68 -3 91
-26z m-777 -79 c22 -56 24 -73 25 -235 0 -132 -4 -195 -18 -258 -19 -89 -56
-197 -64 -188 -3 2 10 69 29 148 57 245 43 464 -32 503 -16 8 -36 15 -45 15
-21 0 -19 22 6 54 15 20 29 26 48 24 21 -2 30 -13 51 -63z m50 48 c41 -24 52
-55 59 -168 15 -233 -28 -523 -89 -597 -34 -42 -80 -56 -80 -26 0 10 7 29 15
42 48 73 95 301 95 459 -1 134 -17 220 -58 300 -7 13 29 7 58 -10z m-620 -16
c69 -35 87 -252 37 -447 -40 -159 -47 -218 -51 -471 -4 -177 -8 -234 -18 -240
-7 -5 -41 -9 -74 -9 -34 0 -85 -5 -115 -10 -29 -6 -56 -7 -60 -3 -4 5 0 42 8
83 8 45 15 156 17 280 2 187 5 213 29 291 35 119 47 215 47 390 l0 149 78 0
c42 0 88 -6 102 -13z m1129 -53 c12 -42 12 -109 2 -452 -7 -221 -16 -465 -21
-541 -5 -76 -16 -268 -25 -427 -14 -281 -22 -342 -48 -375 -28 -36 -86 -48
-147 -29 -23 7 -24 8 -5 15 11 4 32 11 47 17 35 13 61 66 90 183 18 75 22 119
22 270 1 99 -3 197 -7 217 -8 39 -56 84 -80 74 -7 -3 -3 -7 10 -11 13 -4 33
-24 45 -44 21 -34 23 -47 23 -206 -1 -175 -10 -252 -47 -365 -23 -74 -51 -110
-85 -110 -29 0 -29 7 2 67 69 135 97 460 51 591 -18 50 -21 93 -18 260 2 121
2 122 26 122 84 0 140 165 152 444 8 178 -4 256 -43 291 l-28 25 24 20 c33 28
43 22 60 -36z m129 28 c19 -8 38 -27 44 -41 11 -28 -3 -398 -27 -766 -8 -115
-21 -325 -30 -465 -32 -537 -31 -526 -52 -561 -40 -70 -112 -95 -184 -65 l-34
14 26 10 c34 13 66 54 79 101 5 20 15 135 20 256 6 121 15 288 20 370 29 452
38 1114 16 1157 -7 16 -3 17 40 12 27 -4 64 -13 82 -22z m-535 -22 c34 -39 41
-104 34 -294 -6 -151 -29 -283 -63 -348 -14 -27 -60 -65 -69 -56 -2 2 7 39 21
82 45 141 57 243 51 431 -3 94 -8 180 -12 193 -10 31 8 28 38 -8z m284 -62
c15 -44 18 -83 17 -218 0 -170 -16 -269 -59 -360 l-16 -35 4 30 c2 17 17 89
32 160 31 147 31 275 0 352 -14 36 -24 45 -56 54 -21 7 -39 16 -39 21 0 5 13
23 30 39 39 39 62 28 87 -43z m42 46 c35 -21 48 -58 56 -164 15 -200 -45 -508
-105 -540 -44 -23 -68 3 -36 39 14 16 49 120 61 177 28 144 22 391 -13 462
-23 48 -12 55 37 26z m-543 -21 c30 -31 47 -86 52 -178 5 -97 -3 -158 -42
-330 -33 -144 -36 -183 -36 -420 -1 -110 -4 -205 -8 -211 -4 -6 -57 -16 -117
-22 -61 -6 -119 -14 -129 -18 -21 -8 -21 -18 4 161 5 39 9 143 10 233 0 143 3
174 25 250 37 130 46 210 48 390 l1 162 87 0 c69 0 91 -4 105 -17z m437 -65
c50 -38 63 -229 26 -385 -36 -150 -49 -271 -49 -455 0 -181 -2 -190 -40 -194
-50 -6 -200 -14 -200 -11 0 2 7 48 15 103 9 57 15 163 14 249 0 123 3 162 19
215 34 111 42 169 45 332 l2 158 76 0 c45 0 82 -5 92 -12z m-727 -133 c-7
-136 -26 -248 -58 -337 -21 -60 -58 -109 -80 -107 -11 0 -11 2 0 6 46 18 107
213 117 373 8 126 16 190 22 190 3 0 3 -56 -1 -125z m-1080 -459 c5 -140 1
-155 -33 -121 -8 9 -29 19 -45 22 -27 5 -29 9 -24 36 3 16 6 60 6 97 l0 68 34
6 c19 4 37 14 40 23 12 31 17 4 22 -131z m415 80 c10 -13 35 -27 54 -30 38 -7
105 9 105 25 0 5 3 9 8 9 4 0 8 -63 10 -140 1 -77 0 -140 -2 -140 -3 0 -20 9
-38 19 -48 29 -130 38 -151 17 -20 -20 -24 -20 -54 4 -14 11 -37 20 -51 20
-25 0 -25 1 -18 61 3 34 6 80 6 103 0 39 2 41 31 42 17 1 38 9 47 18 22 22 31
20 53 -8z m514 -96 c10 -16 111 -12 129 5 8 8 17 15 20 15 3 0 6 -63 6 -141
l0 -140 -28 20 c-16 11 -47 25 -68 30 -21 5 -57 16 -79 24 l-40 15 4 94 c2 51
5 96 8 101 5 8 39 -8 48 -23z m623 -149 c-2 -94 -6 -173 -10 -176 -3 -4 -28 5
-54 19 -27 14 -66 33 -87 43 l-37 18 2 94 3 95 35 9 c19 5 42 15 50 22 8 7 27
17 43 20 15 4 30 11 33 16 3 5 10 9 16 9 7 0 9 -55 6 -169z m-1578 14 c23 -24
23 -25 8 -122 -17 -109 -14 -133 13 -133 16 0 19 -8 19 -56 0 -102 -39 -315
-71 -390 -19 -45 -54 -84 -76 -84 -19 0 -16 41 7 92 49 111 64 211 64 418 1
165 -2 202 -17 240 -33 82 -33 81 1 69 16 -5 40 -21 52 -34z m387 -41 c27 -26
36 -115 30 -304 -5 -188 -25 -303 -71 -412 -23 -55 -107 -93 -103 -48 1 11 4
20 8 20 15 0 62 128 81 222 28 140 30 363 4 463 -10 39 -23 73 -29 76 -5 4 -6
12 -3 18 8 12 58 -9 83 -35z m117 -17 c28 -59 48 -208 41 -312 -14 -210 -55
-374 -106 -426 -34 -34 -40 -35 -64 -9 -17 19 -17 22 4 85 39 121 54 238 55
435 1 121 -3 194 -11 211 -9 22 -9 29 5 43 26 26 55 15 76 -27z m81 2 l29 -29
-15 -92 c-17 -97 -12 -138 16 -138 48 0 -22 -419 -82 -491 -22 -26 -86 -49
-99 -36 -3 3 5 17 17 31 31 36 66 124 87 220 13 62 17 127 17 271 -1 173 -3
195 -23 243 -12 29 -22 55 -22 58 0 13 48 -11 75 -37z m-635 -115 c14 -134
-16 -407 -50 -461 -9 -14 -10 13 -5 107 3 69 8 197 11 285 3 88 8 171 11 185
l5 25 9 -24 c5 -13 14 -66 19 -117z m386 -79 c9 -156 -17 -346 -62 -454 -25
-61 -25 -26 0 85 40 175 52 283 38 357 -7 36 -12 98 -11 138 l1 74 14 -45 c8
-25 17 -94 20 -155z m631 159 c35 -38 45 -96 44 -262 -1 -166 -10 -244 -42
-362 -26 -95 -54 -146 -91 -161 -46 -19 -55 0 -25 53 63 108 104 328 93 508
-5 103 -28 216 -47 235 -17 17 -9 25 19 19 15 -3 37 -17 49 -30z m101 -30 c38
-30 38 -25 16 -206 -7 -56 -6 -58 17 -58 24 0 24 -1 21 -87 -5 -161 -57 -375
-101 -417 -28 -27 -86 -42 -96 -26 -3 5 -2 10 4 10 24 0 73 111 100 221 18 78
33 281 27 364 -7 88 -29 182 -45 198 -35 35 11 35 57 1z m-144 -244 c0 -175
-14 -277 -56 -388 -33 -89 -32 -47 3 104 34 148 39 235 26 439 l-7 100 17 -45
c13 -35 17 -82 17 -210z m511 218 c47 -21 66 -76 72 -211 11 -241 -50 -551
-115 -586 -25 -13 -62 -14 -62 -2 0 5 13 35 29 67 90 184 109 552 36 727 -8
20 4 22 40 5z m-26 -118 c14 -85 14 -282 0 -373 -13 -89 -47 -207 -64 -226 -9
-9 -6 21 11 95 50 227 50 220 28 509 -8 97 9 94 25 -5z m147 -1 c-6 -42 -4
-49 14 -59 18 -10 20 -21 20 -102 0 -183 -53 -427 -101 -468 -35 -28 -68 -24
-40 6 19 19 60 205 71 322 9 102 4 281 -11 358 -4 22 3 23 27 7 24 -15 26 -21
20 -64z m-1262 10 c15 -77 0 -210 -44 -384 -24 -93 -45 -435 -34 -552 6 -70 6
-72 -17 -77 -49 -9 -243 -26 -247 -21 -3 3 1 42 8 88 7 45 17 177 20 292 6
184 11 223 34 310 20 72 29 134 33 223 4 90 9 125 19 129 7 3 55 8 106 13 51
4 98 8 104 9 6 0 14 -13 18 -30z m590 -45 c3 -9 6 -49 6 -89 0 -73 -11 -139
-50 -310 -23 -98 -43 -424 -33 -527 3 -31 3 -68 -1 -82 -6 -25 -10 -26 -74
-26 -38 0 -94 -5 -126 -11 -32 -6 -61 -8 -64 -5 -3 4 1 43 8 89 7 45 15 165
16 267 2 170 5 195 34 310 23 91 33 158 37 248 3 69 11 125 17 129 5 4 53 10
106 13 52 4 100 8 106 8 7 1 15 -5 18 -14z m951 -1 c14 -33 18 -271 5 -354
-13 -92 -52 -223 -57 -197 -3 9 8 70 22 135 23 100 26 135 23 228 -3 78 -9
120 -22 143 -14 26 -14 35 -4 47 17 19 24 19 33 -2z m-805 -263 c-25 -190 -79
-330 -127 -330 -8 0 -2 11 15 25 53 44 107 285 114 510 2 62 3 59 6 -25 1 -52
-2 -133 -8 -180z m760 205 c22 -44 24 -62 23 -155 -1 -70 -9 -137 -23 -200
-34 -146 -39 -189 -44 -414 -4 -156 -8 -211 -18 -217 -7 -5 -42 -9 -78 -9 -36
0 -82 -4 -103 -9 -20 -5 -39 -6 -41 -2 -2 3 3 44 10 91 7 47 13 155 13 241 1
107 6 171 16 205 31 102 47 213 54 358 l6 151 40 6 c22 4 58 6 80 5 38 -1 41
-4 65 -51z m-409 -113 c0 -95 -6 -128 -57 -347 -9 -38 -16 -155 -20 -315 -4
-142 -11 -261 -17 -267 -6 -8 -36 -13 -81 -13 -39 -1 -91 -5 -116 -10 -25 -5
-49 -5 -53 -1 -5 5 -3 35 4 67 6 33 15 160 19 284 7 200 10 235 34 320 18 62
30 141 37 230 6 74 12 136 15 139 8 8 219 27 227 21 5 -4 8 -52 8 -108z
m-1940 -226 c3 -71 8 -88 27 -109 28 -30 82 -46 173 -54 l69 -6 0 -36 c0 -46
-37 -88 -86 -97 -55 -10 -187 2 -228 21 -44 21 -56 57 -56 174 0 110 14 155
54 175 17 9 34 16 37 16 4 0 9 -38 10 -84z m2668 -354 c8 -20 9 -36 2 -55 -16
-43 -53 -60 -132 -61 -58 0 -73 3 -90 21 -26 26 -33 100 -9 94 54 -14 117 -11
150 7 49 28 66 26 79 -6z"/>
<path d="M676 9264 c-41 -40 7 -109 59 -86 49 22 28 102 -26 102 -10 0 -25 -7
-33 -16z m68 -26 c15 -24 -13 -53 -43 -43 -21 6 -29 43 -14 59 12 12 45 2 57
-16z"/>
<path d="M538 7127 c-20 -16 -24 -35 -14 -64 6 -18 15 -23 40 -23 17 0 37 5
44 12 18 18 15 53 -6 71 -22 20 -41 21 -64 4z m62 -38 c0 -33 -23 -48 -49 -32
-22 14 -25 38 -7 56 24 24 56 10 56 -24z"/>
<path d="M6433 6488 c-6 -7 -13 -22 -15 -33 -2 -16 -13 -21 -53 -25 -152 -17
-230 -191 -143 -320 86 -126 280 -113 351 24 26 49 28 139 4 184 -18 32 -18
32 8 42 14 5 25 16 25 25 0 17 -35 21 -45 5 -11 -18 -45 -11 -45 9 0 11 5 23
10 26 15 9 12 35 -3 35 -8 0 -22 -9 -32 -20 -26 -29 -35 -25 -32 16 2 38 -13
54 -30 32z m34 -117 c60 -28 89 -88 85 -178 -2 -21 -14 -44 -39 -70 -49 -51
-89 -67 -145 -58 -58 10 -74 19 -108 67 -24 32 -30 52 -30 90 0 129 117 203
237 149z"/>
<path d="M4720 6380 c0 -12 7 -32 16 -45 15 -23 15 -25 0 -31 -11 -4 -26 2
-40 15 -12 11 -28 21 -34 21 -17 0 -15 -35 3 -50 8 -7 15 -21 15 -32 0 -17 -4
-19 -27 -14 -51 13 -68 12 -68 -4 0 -8 14 -22 31 -30 31 -14 32 -17 27 -65 -4
-39 0 -61 16 -95 29 -61 39 -72 91 -105 62 -39 147 -40 211 -3 69 41 98 85
106 163 14 132 -82 234 -219 235 -51 0 -59 3 -78 30 -25 34 -50 39 -50 10z
m204 -94 c91 -38 132 -147 87 -234 -37 -73 -99 -104 -181 -91 -89 14 -142 75
-144 164 -1 124 124 209 238 161z"/>
<path d="M5563 5993 c-30 -6 -45 -27 -41 -59 4 -36 45 -65 99 -71 38 -4 49 0
82 27 27 23 37 39 37 60 0 25 -5 31 -37 39 -38 11 -97 12 -140 4z m111 -70
c-35 -28 -61 -29 -94 -3 -30 22 -20 28 55 32 67 4 74 -1 39 -29z"/>
<path d="M5610 5781 c-5 -11 -10 -27 -10 -35 0 -8 -16 -31 -35 -51 -30 -29
-43 -35 -78 -35 -23 0 -51 7 -61 15 -27 21 -46 19 -46 -5 0 -22 38 -45 93 -55
47 -9 115 23 141 65 l18 31 34 -35 c56 -57 133 -70 209 -35 52 24 69 43 61 64
-5 13 -13 11 -56 -11 -41 -21 -60 -26 -100 -22 -59 6 -85 26 -112 86 -20 45
-41 54 -58 23z"/>
<path d="M1709 5208 c-38 -16 -69 -67 -69 -115 0 -33 7 -49 34 -77 29 -31 39
-36 80 -36 53 0 90 20 112 61 32 62 8 131 -56 164 -33 17 -63 18 -101 3z m108
-50 c16 -15 23 -33 23 -60 0 -77 -78 -114 -136 -65 -36 31 -37 98 -2 127 31
26 86 26 115 -2z"/>
<path d="M2615 5041 c-79 -34 -85 -165 -8 -200 55 -25 129 -4 151 44 34 73 -7
152 -83 160 -22 3 -49 1 -60 -4z m72 -31 c30 -11 53 -45 53 -79 0 -26 -48 -71
-77 -71 -86 0 -109 118 -30 150 12 5 22 9 23 9 1 1 15 -4 31 -9z"/>
<path d="M2102 4988 c-20 -20 -14 -36 23 -65 46 -37 47 -72 4 -97 -23 -14 -42
-17 -74 -13 -50 7 -61 0 -38 -25 20 -22 86 -24 125 -4 26 14 28 13 53 -20 28
-37 61 -50 100 -40 17 4 25 13 25 27 0 17 -4 20 -29 14 -33 -7 -79 26 -82 60
-4 54 0 64 35 70 34 7 76 37 76 55 0 15 -31 27 -101 39 -83 14 -102 14 -117
-1z m153 -49 c5 -5 -10 -9 -42 -9 -35 0 -55 5 -64 17 -13 15 -10 16 41 9 30
-4 59 -11 65 -17z"/>
<path d="M5303 5143 c-13 -2 -23 -9 -23 -14 0 -5 -6 -9 -13 -9 -16 0 -58 -45
-77 -84 -21 -41 -18 -125 5 -166 11 -18 37 -47 58 -63 31 -26 48 -32 100 -34
51 -3 69 0 102 19 46 27 81 74 96 131 12 47 -9 127 -44 166 -45 48 -124 69
-204 54z m165 -50 c53 -43 73 -87 68 -150 -10 -118 -119 -183 -238 -144 -70
23 -117 111 -103 194 8 45 72 123 108 131 12 2 46 3 75 2 41 -2 60 -9 90 -33z"/>
<path d="M5265 5048 c-27 -15 -35 -28 -35 -59 0 -26 74 -149 90 -149 4 0 14 7
21 17 8 9 38 33 66 55 29 21 60 49 69 63 31 47 -7 84 -65 64 -20 -7 -35 -6
-57 6 -34 18 -61 19 -89 3z m95 -28 c24 -24 33 -25 50 -5 27 32 68 10 49 -27
-11 -21 -125 -108 -142 -108 -18 0 -67 83 -67 113 0 47 73 64 110 27z"/>
<path d="M5709 4750 c-93 -17 -160 -93 -167 -189 -7 -95 27 -162 108 -210 48
-29 138 -29 197 0 123 60 156 232 63 328 -62 64 -123 85 -201 71z m80 -20 c70
-13 116 -52 141 -118 32 -85 8 -168 -63 -226 -34 -27 -47 -31 -110 -34 -65 -2
-76 0 -112 26 -80 56 -110 170 -66 252 23 44 80 90 123 100 18 4 34 8 34 9 1
1 25 -3 53 -9z"/>
<path d="M5632 4640 c-41 -25 -57 -64 -42 -100 6 -15 40 -55 76 -91 61 -60 67
-63 77 -44 7 10 43 52 80 92 59 63 68 78 65 105 -5 57 -79 76 -122 32 -14 -14
-18 -13 -38 5 -27 26 -54 26 -96 1z m94 -28 c18 -36 22 -36 49 -3 29 34 65 41
85 16 20 -25 4 -57 -60 -119 -33 -32 -60 -62 -60 -67 0 -18 -17 -8 -73 46 -64
62 -72 93 -35 132 29 31 78 28 94 -5z"/>
<path d="M4927 4705 c-102 -36 -150 -174 -91 -261 37 -54 57 -69 109 -84 139
-39 267 96 220 231 -19 54 -49 86 -100 110 -47 22 -86 23 -138 4z m163 -35
c38 -27 69 -90 70 -139 0 -50 -43 -117 -92 -142 -107 -54 -238 23 -238 140 0
72 35 129 95 157 44 21 125 13 165 -16z"/>
<path d="M4893 4605 c-16 -18 -17 -69 -1 -98 6 -12 26 -38 45 -57 18 -19 33
-38 33 -42 0 -16 29 -7 34 10 3 9 17 29 30 43 58 63 69 126 25 150 -16 8 -28
8 -50 -2 -23 -9 -33 -9 -42 0 -15 15 -59 13 -74 -4z m76 -19 c10 -12 16 -12
41 2 24 14 30 14 45 2 11 -9 14 -21 10 -39 -7 -26 -74 -121 -85 -121 -8 0 -75
91 -82 110 -3 8 -2 25 3 38 10 25 50 30 68 8z"/>
<path d="M5243 4309 c-163 -81 -165 -312 -3 -394 149 -76 322 29 322 195 0 72
-22 119 -78 169 -65 57 -163 69 -241 30z m215 -32 c54 -36 82 -90 82 -162 0
-97 -48 -169 -129 -196 -56 -19 -142 -7 -184 25 -126 96 -112 274 28 350 48
26 152 18 203 -17z"/>
<path d="M5201 4214 c-37 -47 -26 -85 56 -201 25 -35 50 -63 55 -63 6 0 32 19
57 43 25 23 61 53 79 67 62 46 77 99 41 144 -24 31 -81 36 -117 10 -21 -14
-24 -14 -48 5 -39 31 -97 28 -123 -5z m92 -5 c12 -6 29 -20 38 -32 l16 -20 21
21 c31 31 69 38 92 17 42 -38 21 -76 -87 -158 l-61 -47 -30 38 c-72 91 -87
139 -55 174 19 21 35 23 66 7z"/>
<path d="M6095 4313 c-103 -54 -138 -161 -87 -265 47 -94 181 -126 270 -64
125 86 105 272 -35 332 -43 18 -111 17 -148 -3z m170 -24 c69 -41 99 -153 61
-227 -62 -121 -240 -122 -303 -3 -29 55 -29 101 -2 156 44 88 160 123 244 74z"/>
<path d="M6093 4236 c-29 -22 -38 -67 -19 -103 16 -30 103 -119 110 -112 2 2
27 33 55 68 38 47 51 72 51 96 0 42 -18 56 -71 54 -24 0 -57 2 -74 6 -20 4
-37 1 -52 -9z m81 -27 l15 -22 27 22 c20 16 30 18 40 10 29 -24 15 -64 -49
-139 -27 -32 -28 -32 -49 -14 -80 70 -98 119 -56 148 31 22 54 20 72 -5z"/>
<path d="M5945 5095 c-14 -13 -25 -30 -25 -38 0 -23 51 -91 102 -135 l50 -43
17 34 c9 18 35 50 58 70 50 46 69 87 53 116 -13 26 -65 28 -92 4 -18 -16 -21
-16 -47 0 -42 25 -87 22 -116 -8z m245 -21 c0 -15 -120 -149 -133 -149 -4 0
-30 22 -57 49 -37 36 -50 57 -50 78 0 52 69 63 117 18 18 -16 23 -17 30 -6 4
8 21 21 37 30 32 16 56 7 56 -20z"/>
<path d="M1760 3962 c-72 -72 -39 -212 50 -212 67 0 113 117 75 190 -29 57
-81 65 -125 22z m86 0 c51 -34 41 -162 -15 -192 -29 -15 -40 -13 -66 16 -20
22 -25 38 -25 79 0 41 5 57 25 79 23 25 59 33 81 18z"/>
<path d="M2320 3928 c-29 -49 -28 -153 3 -199 30 -45 78 -52 102 -15 58 88 26
236 -53 244 -27 3 -35 -2 -52 -30z m79 1 c19 -21 41 -89 41 -130 0 -44 -23
-89 -49 -96 -68 -17 -108 163 -50 226 25 26 33 26 58 0z"/>
<path d="M1508 3697 c-56 -47 -83 -157 -54 -219 37 -77 110 -65 151 24 62 134
-6 272 -97 195z m89 -27 c7 -14 13 -47 13 -73 0 -122 -94 -208 -134 -123 -29
62 -14 153 35 210 21 24 71 16 86 -14z"/>
<path d="M2024 3601 c-84 -51 -91 -220 -9 -251 33 -13 85 7 115 43 19 24 25
45 28 98 4 65 3 70 -26 99 -35 35 -64 38 -108 11z m106 -46 c25 -52 22 -90
-10 -143 -38 -63 -107 -68 -131 -11 -35 85 15 199 87 199 28 0 35 -5 54 -45z"/>
<path d="M1764 2974 c-74 -36 -73 -153 1 -189 43 -20 75 -19 105 2 69 47 73
143 7 183 -38 24 -71 25 -113 4z m90 -14 c53 -20 69 -106 27 -144 -73 -66
-181 16 -137 103 25 48 59 61 110 41z"/>
<path d="M2224 2960 c-31 -12 -54 -54 -54 -98 0 -116 152 -145 203 -40 16 32
17 43 7 73 -21 63 -89 92 -156 65z m113 -32 c12 -13 22 -30 23 -38 10 -69 -21
-110 -82 -110 -79 0 -117 86 -63 144 32 34 92 36 122 4z"/>
<path d="M6930 265 c0 -49 3 -86 6 -83 8 9 9 156 1 165 -4 3 -7 -33 -7 -82z"/>
<path d="M5566 333 c-10 -11 -7 -143 4 -143 6 0 10 23 10 50 0 28 3 50 8 50 4
0 16 -16 26 -35 11 -19 22 -35 25 -35 3 0 17 17 31 37 l25 37 3 -52 c2 -29 7
-52 13 -52 12 0 12 137 -1 145 -5 3 -22 -14 -37 -39 -15 -26 -30 -46 -34 -46
-3 0 -15 18 -28 40 -24 43 -35 53 -45 43z"/>
<path d="M6059 315 c-3 -26 -8 -30 -30 -27 -51 6 -79 -57 -41 -91 10 -10 32
-17 49 -17 l31 0 4 66 c3 70 -7 123 -13 69z m-7 -62 c8 -36 -3 -54 -31 -51
-26 3 -38 26 -27 54 8 20 54 18 58 -3z"/>
<path d="M6307 333 c-11 -10 -8 -141 2 -148 6 -3 11 19 13 52 l3 58 23 -37
c13 -21 27 -38 30 -38 4 0 18 17 32 38 l25 37 3 -58 c2 -33 7 -55 13 -52 12 8
12 142 0 149 -5 4 -22 -14 -38 -39 -15 -25 -30 -45 -33 -45 -3 1 -19 21 -36
45 -17 25 -33 42 -37 38z"/>
<path d="M6787 328 c-4 -10 -9 -24 -11 -32 -3 -8 -14 -12 -28 -9 -43 8 -69
-55 -38 -92 16 -19 79 -20 86 -2 8 22 0 154 -9 135z m-12 -77 c9 -28 -5 -51
-30 -51 -25 0 -39 23 -30 51 8 25 52 25 60 0z"/>
<path d="M5752 278 c-16 -16 -15 -66 2 -84 18 -17 58 -18 74 -2 7 7 12 26 12
43 0 38 -16 55 -50 55 -14 0 -31 -5 -38 -12z m67 -22 c18 -22 -3 -56 -34 -56
-21 0 -25 5 -25 28 0 16 3 32 7 35 11 12 40 8 52 -7z"/>
<path d="M5860 234 c0 -34 4 -53 10 -49 6 3 10 24 10 46 0 36 2 40 23 37 17
-2 23 -11 25 -38 5 -54 22 -61 22 -9 0 54 -13 69 -57 69 l-33 0 0 -56z"/>
<path d="M6107 283 c-15 -15 -5 -22 23 -16 19 3 30 1 30 -6 0 -6 -13 -14 -30
-17 -29 -6 -47 -34 -35 -54 4 -6 23 -10 43 -8 33 3 37 7 40 35 4 43 -13 73
-42 73 -12 0 -26 -3 -29 -7z m51 -65 c-5 -15 -48 -24 -48 -10 0 14 12 22 33
22 10 0 17 -5 15 -12z"/>
<path d="M6200 271 c0 -11 8 -36 17 -55 16 -34 16 -37 -3 -57 -18 -20 -18 -21
-1 -18 18 4 67 104 67 136 0 24 -18 4 -25 -27 -8 -39 -24 -38 -32 0 -7 36 -23
50 -23 21z"/>
<path d="M6497 283 c-14 -14 -6 -19 23 -15 40 6 38 -13 -2 -24 -61 -18 -46
-72 16 -60 29 6 36 11 36 31 0 44 -18 75 -43 75 -13 0 -27 -3 -30 -7z m51 -65
c-5 -15 -48 -24 -48 -10 0 14 12 22 33 22 10 0 17 -5 15 -12z"/>
<path d="M6590 233 c1 -44 3 -54 11 -41 5 10 9 24 8 30 -5 37 2 49 24 46 18
-2 23 -10 25 -46 4 -47 22 -48 22 -1 0 49 -16 69 -55 69 l-35 0 0 -57z"/>
<path d="M6837 283 c-15 -14 -6 -23 12 -13 14 7 22 7 27 -1 8 -13 -5 -26 -31
-31 -14 -2 -20 -11 -20 -28 0 -22 4 -25 38 -26 20 -1 38 4 38 10 4 41 -2 80
-13 87 -16 10 -42 11 -51 2z m51 -65 c-5 -15 -48 -24 -48 -10 0 14 12 22 33
22 10 0 17 -5 15 -12z"/>
<path d="M6987 283 c-14 -13 -6 -23 11 -15 18 10 42 5 42 -8 0 -5 -13 -11 -29
-15 -66 -14 -61 -67 5 -62 32 2 34 4 34 39 0 20 -3 43 -6 52 -6 16 -45 22 -57
9z m51 -65 c-5 -15 -58 -24 -58 -10 0 15 12 22 38 22 14 0 22 -5 20 -12z"/>
<path d="M7126 275 c-17 -18 -19 -28 -10 -62 7 -25 34 -37 64 -28 30 10 24 20
-12 20 -30 0 -33 3 -33 30 0 27 3 30 33 30 17 0 31 4 29 10 -6 17 -54 17 -71
0z"/>
<path d="M7236 274 c-34 -33 -9 -94 38 -94 31 0 46 18 46 55 0 17 -5 36 -12
43 -17 17 -54 15 -72 -4z m66 -21 c8 -36 -3 -54 -31 -51 -26 3 -38 26 -27 54
8 20 54 18 58 -3z"/>
<path d="M7343 240 c-1 -28 3 -53 8 -56 5 -3 9 15 9 40 0 42 2 46 25 46 23 0
25 -4 25 -40 0 -22 5 -40 10 -40 6 0 10 18 10 41 0 36 2 40 23 37 18 -2 23
-11 28 -48 4 -35 7 -41 14 -26 4 10 4 35 -1 55 l-9 36 -71 2 -71 2 0 -49z"/>
</g>
</svg>
