<?xml version="1.0" standalone="no"?>
<!DOCTYPE svg PUBLIC "-//W3C//DTD SVG 20010904//EN"
 "http://www.w3.org/TR/2001/REC-SVG-20010904/DTD/svg10.dtd">
<svg version="1.0" xmlns="http://www.w3.org/2000/svg"
 width="816.000000pt" height="1056.000000pt" viewBox="0 0 816.000000 1056.000000"
 preserveAspectRatio="xMidYMid meet">
<metadata>
Created by potrace 1.16, written by Peter Selinger 2001-2019
</metadata>
<g transform="translate(0.000000,1056.000000) scale(0.100000,-0.100000)"
fill="#000000" stroke="none">
<path d="M225 10318 c-3 -7 -4 -2283 -3 -5058 l3 -5045 2613 0 c1436 0 2612 3
2612 8 0 4 -1172 7 -2605 7 l-2605 0 0 5035 c0 4021 3 5035 13 5035 6 0 1732
1 3835 3 l3822 2 0 -5031 0 -5032 -22 -6 c-13 -3 -83 -6 -155 -6 -84 0 -133
-4 -133 -10 0 -7 58 -10 168 -8 l167 3 3 5049 c2 4033 0 5051 -10 5058 -7 4
-1742 8 -3856 8 -3065 0 -3844 -3 -3847 -12z"/>
<path d="M2814 9892 c-22 -11 -58 -35 -79 -53 -40 -35 -155 -201 -155 -224 0
-7 -3 -15 -8 -17 -10 -4 -49 -131 -61 -202 -6 -33 -11 -140 -11 -238 0 -201 7
-181 -88 -258 -54 -44 -81 -86 -116 -177 -24 -64 -36 -81 -103 -140 -79 -71
-100 -102 -129 -198 -10 -33 -33 -82 -50 -110 -70 -112 -77 -133 -84 -255 -5
-88 -11 -124 -27 -155 -11 -22 -39 -74 -61 -115 -70 -132 -77 -232 -21 -342
23 -46 24 -89 3 -173 -11 -44 -14 -80 -9 -112 6 -41 15 -55 71 -109 74 -70 79
-94 40 -172 -34 -68 -39 -100 -21 -157 22 -73 19 -86 -25 -135 -69 -79 -95
-136 -94 -210 0 -67 29 -145 58 -156 8 -3 22 -20 32 -39 17 -32 17 -35 -1 -74
-10 -23 -21 -41 -25 -41 -4 0 -22 -27 -40 -61 -54 -102 -36 -162 67 -227 49
-31 58 -53 48 -120 -16 -109 -17 -124 -11 -157 9 -45 54 -89 113 -111 71 -26
93 -49 93 -98 0 -106 41 -161 144 -196 66 -22 93 -43 120 -97 9 -18 20 -33 25
-33 16 0 18 37 5 70 -20 46 -59 77 -130 100 -83 28 -101 50 -114 138 -14 104
-31 123 -137 162 -76 28 -95 77 -69 177 30 113 18 149 -68 206 -85 57 -88 110
-12 221 53 78 59 120 23 173 -12 18 -25 33 -29 33 -4 0 -17 18 -28 40 -41 80
-21 178 51 254 63 65 65 76 43 226 -4 26 2 52 25 100 48 101 43 125 -46 206
-51 46 -56 55 -61 102 -3 31 2 79 13 121 19 77 17 93 -22 191 -44 112 -32 169
87 390 23 43 30 68 30 115 1 127 17 191 70 278 27 45 61 118 75 162 27 80 35
92 135 181 44 39 70 71 70 87 0 7 4 17 9 22 4 6 16 33 26 61 19 56 51 97 103
133 25 18 32 19 32 7 0 -27 -60 -307 -70 -324 -8 -15 -36 -126 -55 -222 -10
-46 -43 -110 -69 -134 -12 -10 -50 -42 -86 -71 -36 -29 -73 -61 -82 -71 -35
-40 -70 -127 -88 -222 -10 -55 -30 -134 -45 -177 -18 -53 -26 -100 -26 -146 0
-72 3 -80 73 -174 35 -47 38 -55 38 -120 0 -38 -7 -101 -15 -140 -32 -150 -11
-262 70 -374 31 -43 32 -88 3 -186 -20 -68 -21 -81 -9 -137 6 -35 26 -85 43
-113 40 -65 51 -180 23 -236 -17 -32 -63 -95 -93 -127 -25 -28 -44 -87 -39
-127 5 -42 12 -61 52 -135 14 -25 25 -59 25 -76 0 -58 22 -149 43 -179 24 -33
57 -64 70 -65 5 0 33 -12 63 -26 44 -21 60 -36 84 -77 26 -45 30 -62 30 -128
0 -95 16 -147 85 -284 31 -61 76 -166 101 -235 25 -69 55 -149 66 -178 22 -55
67 -102 99 -102 10 0 19 -6 19 -12 0 -17 39 -65 118 -147 123 -127 113 -97
128 -379 8 -152 21 -289 34 -357 11 -60 29 -189 40 -285 18 -171 79 -550 100
-620 23 -79 59 -305 71 -441 9 -118 9 -167 -1 -255 -22 -174 -20 -202 14 -229
15 -12 46 -28 68 -36 l40 -13 -6 -47 c-9 -68 -27 -105 -86 -178 -58 -73 -110
-152 -128 -196 -7 -17 -24 -44 -38 -60 -58 -67 -78 -114 -76 -181 3 -107 20
-130 122 -164 89 -31 237 -38 311 -16 72 21 147 79 186 145 32 54 61 94 96
134 56 65 60 80 55 221 -4 141 -11 166 -64 211 -19 17 -24 31 -25 85 l-3 64
54 28 c30 15 63 36 73 47 19 19 19 20 -7 88 -26 69 -53 234 -76 478 -16 158
-17 649 -2 850 8 109 9 227 3 370 -4 116 -7 212 -5 213 2 3 40 -37 97 -102 24
-26 76 -116 106 -181 42 -89 56 -135 136 -440 59 -222 92 -337 123 -425 81
-232 198 -688 208 -814 4 -44 10 -88 15 -97 14 -27 76 -51 127 -48 45 3 46 2
53 -30 7 -35 2 -71 -11 -71 -5 0 -20 -23 -34 -52 -23 -46 -26 -63 -25 -157 1
-139 21 -191 86 -225 18 -9 37 -16 42 -16 30 0 132 -49 210 -101 49 -32 124
-71 168 -86 69 -25 91 -28 198 -27 132 0 180 11 219 51 23 23 26 33 26 100 0
99 -20 135 -117 214 -132 106 -243 214 -243 236 0 9 -121 123 -130 123 -16 0
-50 81 -50 121 0 36 6 49 29 71 53 51 48 98 -21 189 -42 54 -67 120 -89 231
-11 55 -21 103 -23 107 -3 4 -9 45 -16 91 -14 108 -47 279 -64 333 -7 23 -23
71 -34 107 -46 145 -74 269 -117 535 -8 50 -31 169 -50 265 -20 96 -54 267
-76 380 -23 113 -47 234 -55 270 -29 140 -17 172 86 236 33 20 66 47 75 60 19
30 19 81 0 127 -27 65 -20 99 30 153 70 75 91 142 65 208 -11 29 -2 33 33 14
35 -18 67 -57 67 -82 0 -29 -19 -86 -29 -86 -15 0 -41 -72 -41 -113 0 -48 28
-112 49 -112 8 0 19 14 24 30 13 40 33 62 87 93 95 54 130 104 130 187 0 40 2
45 23 45 77 0 161 60 173 124 3 21 -1 55 -12 89 l-17 56 28 38 c16 21 31 40
34 43 14 12 32 58 34 85 2 28 5 30 54 35 68 7 97 32 89 79 -3 19 -11 38 -18
43 -9 5 -4 8 14 8 18 0 42 13 67 35 51 46 66 100 57 206 -8 92 -5 98 63 167
53 53 71 97 71 170 0 45 18 97 41 123 8 8 19 22 24 30 27 43 91 135 96 139 10
9 95 153 120 205 19 40 23 64 22 119 -2 78 -1 80 96 181 113 118 220 257 241
312 25 68 25 84 -1 117 -21 26 -31 28 -70 12 -14 -6 -15 1 -11 49 6 68 -11
113 -46 122 -19 4 -29 0 -43 -18 l-17 -23 -7 39 c-4 22 -14 50 -21 63 -17 27
-61 30 -80 5 -12 -17 -14 -17 -34 5 -11 12 -32 22 -45 22 -33 0 -52 -39 -65
-132 -6 -40 -16 -91 -22 -113 -9 -37 -11 -38 -19 -17 -13 34 -51 48 -89 32
-31 -13 -50 -44 -90 -145 l-11 -29 -30 47 c-35 57 -37 100 -9 206 24 88 25
150 6 215 -15 49 -11 105 14 186 24 81 11 128 -65 236 -40 56 -40 57 -46 175
-6 114 -7 120 -39 161 -18 24 -61 63 -95 87 -110 79 -121 115 -89 291 14 82
14 95 -16 355 -45 400 -62 475 -123 527 -26 24 -93 41 -126 34 -65 -15 -111
-31 -111 -38 0 -4 -6 -8 -13 -8 -31 0 -195 -130 -340 -269 -101 -97 -166 -152
-184 -156 -53 -11 -98 -28 -122 -46 -28 -22 -41 -24 -41 -6 0 34 -57 98 -113
128 -96 51 -184 51 -466 -2 -133 -25 -159 -18 -238 59 -59 56 -94 101 -188
237 -64 92 -198 225 -256 253 -67 32 -134 37 -185 14z m161 -53 c72 -34 187
-154 285 -299 36 -52 95 -126 132 -164 37 -38 65 -73 62 -78 -3 -4 -17 -8 -31
-8 -14 0 -76 -14 -137 -31 -162 -45 -266 -100 -451 -239 -11 -8 -60 -56 -110
-105 -96 -97 -125 -144 -174 -283 -23 -65 -73 -159 -108 -201 -12 -16 -9 14 9
74 11 39 34 131 50 205 27 122 31 160 38 390 10 340 31 437 125 579 111 168
197 213 310 160z m2192 -186 c51 -45 68 -113 98 -403 9 -80 19 -163 22 -185
l6 -40 -28 40 c-15 22 -44 58 -65 80 -55 58 -67 90 -72 185 -5 94 -21 131 -69
156 -39 20 -83 18 -129 -6 -22 -11 -41 -20 -44 -20 -3 0 -17 21 -32 46 -27 46
-27 47 -8 60 10 7 24 18 31 23 6 6 47 28 90 51 98 50 153 54 200 13z m-332
-173 l18 -41 -39 -40 c-21 -23 -69 -65 -106 -95 -55 -44 -65 -57 -61 -76 11
-46 30 -58 140 -92 80 -25 171 -83 247 -158 38 -37 72 -68 76 -68 4 0 13 7 20
15 9 11 10 45 5 130 -4 63 -5 115 -1 115 12 0 66 -65 117 -140 l51 -75 -5 -75
c-3 -41 -13 -118 -21 -170 -9 -52 -16 -130 -16 -172 0 -43 -2 -78 -5 -78 -10
0 -54 54 -55 65 0 6 -5 16 -11 22 -7 7 -29 63 -49 125 -78 236 -150 308 -390
393 -52 18 -86 43 -153 108 -29 29 -62 57 -72 64 -18 10 -11 20 91 120 139
136 183 175 193 169 4 -3 16 -23 26 -46z m192 -30 c49 -17 58 -48 55 -176 -1
-63 2 -151 7 -196 5 -46 7 -85 5 -87 -2 -3 -21 11 -42 30 -90 86 -187 143
-295 174 -67 19 -82 41 -46 64 13 9 52 41 85 73 66 61 121 99 169 116 17 6 30
11 31 11 1 1 15 -4 31 -9z m-905 -157 c68 -36 98 -81 98 -144 0 -36 -4 -49
-14 -49 -8 0 -17 4 -20 8 -10 16 -115 35 -164 29 -27 -3 -75 -15 -108 -26 -38
-14 -83 -21 -131 -21 -76 0 -102 -13 -58 -30 44 -17 147 -12 211 10 100 35
204 27 254 -20 50 -47 42 -56 -57 -55 -92 0 -106 -5 -223 -70 -63 -36 -146
-30 -300 22 -97 32 -128 38 -200 38 -75 0 -92 -4 -144 -30 -125 -63 -228 -187
-281 -338 -58 -161 -54 -156 -166 -240 -64 -48 -154 -147 -134 -147 4 0 30 20
58 43 29 24 75 59 102 77 86 57 113 89 145 172 17 42 30 82 30 88 0 6 14 41
32 78 40 83 150 198 228 237 94 47 150 46 315 -10 87 -30 165 -49 205 -52 63
-5 68 -3 160 45 53 28 116 53 140 57 82 12 140 -28 140 -95 l0 -41 -34 7 c-48
8 -124 -16 -241 -77 -86 -46 -107 -53 -170 -57 -43 -3 -111 2 -170 12 -173 30
-302 20 -370 -27 -42 -30 -145 -128 -145 -139 0 -5 7 -2 16 6 8 9 18 16 22 16
4 0 23 15 42 33 61 55 97 77 152 88 59 13 220 6 283 -13 22 -6 84 -11 137 -12
l98 0 133 68 c113 57 141 68 188 69 30 0 60 -2 67 -7 14 -9 16 -87 2 -136 -14
-52 -94 -127 -175 -165 -112 -53 -163 -66 -285 -72 -103 -5 -127 -3 -230 22
-63 16 -140 28 -170 28 -110 0 -185 -61 -257 -209 -81 -165 -156 -231 -314
-275 -127 -35 -180 -72 -227 -157 -39 -71 -37 -91 4 -42 45 53 99 100 102 89
2 -5 -3 -25 -12 -44 -53 -115 -72 -172 -96 -290 -25 -116 -21 -151 20 -226 26
-48 38 -89 26 -89 -3 0 -17 11 -32 25 -15 14 -34 25 -42 25 -26 0 -79 39 -91
68 -6 15 -18 63 -25 107 -8 44 -22 98 -32 120 -11 25 -17 65 -17 107 0 62 5
77 61 190 66 134 82 181 81 243 0 37 -2 35 -28 -40 -15 -44 -45 -109 -68 -145
-22 -36 -42 -72 -46 -80 -3 -8 -6 19 -7 60 0 41 -9 107 -20 145 -11 39 -20 81
-20 95 0 35 28 107 63 160 17 25 55 83 86 130 63 95 70 109 101 195 37 108 74
167 150 245 198 202 451 335 705 369 113 15 241 36 370 61 136 26 227 21 297
-17z m370 -92 c13 -5 52 -38 88 -73 67 -64 95 -81 235 -139 163 -67 213 -123
275 -309 48 -143 62 -168 144 -270 42 -52 90 -123 107 -157 28 -56 33 -77 39
-183 9 -138 29 -191 88 -237 63 -49 114 -105 133 -147 25 -55 24 -143 -2 -247
-11 -46 -18 -99 -15 -117 6 -37 46 -122 57 -122 16 0 22 -78 10 -145 -11 -64
-42 -134 -74 -167 -11 -12 -54 -76 -83 -124 -9 -16 -12 -9 -18 41 -9 69 -28
105 -86 157 -45 42 -66 84 -51 102 21 25 62 155 68 212 7 76 -9 127 -49 157
-29 22 -30 23 -24 87 20 204 20 197 -7 253 -15 29 -34 61 -44 72 -37 40 -60
81 -73 128 -14 51 -24 64 -36 45 -22 -36 3 -117 57 -178 31 -37 66 -101 73
-135 3 -16 -1 -65 -9 -108 -8 -43 -15 -109 -15 -146 0 -52 -6 -79 -26 -119
-14 -29 -29 -52 -33 -52 -20 0 -43 79 -37 127 3 26 9 89 12 139 7 107 1 122
-81 214 -40 45 -59 78 -76 128 -35 107 -52 134 -157 238 -55 54 -104 108 -110
120 -32 62 -124 148 -250 233 -120 81 -212 201 -212 278 0 26 5 34 24 39 36 9
92 -13 119 -46 14 -16 41 -57 60 -93 20 -35 54 -80 76 -100 41 -37 120 -67
175 -67 85 0 204 -66 254 -139 18 -25 41 -73 52 -106 22 -63 41 -107 46 -102
6 6 -36 177 -49 204 -30 57 -103 119 -180 153 -23 10 -78 23 -122 29 -45 5
-92 14 -106 19 -35 14 -83 72 -119 142 -59 116 -118 158 -205 146 l-43 -5 -6
37 c-14 93 -12 106 14 119 14 7 39 13 55 13 39 0 156 -57 215 -103 51 -41 61
-41 31 1 -25 35 -71 71 -131 102 -48 25 -131 32 -182 16 l-28 -8 0 54 c0 46 4
58 28 81 56 53 148 80 204 58z m-102 -671 c25 -25 87 -74 139 -110 118 -82
168 -131 201 -194 8 -16 59 -73 113 -125 94 -92 136 -152 151 -216 13 -55 49
-117 93 -162 73 -73 88 -133 58 -243 -19 -70 -19 -98 0 -153 13 -40 13 -50 -6
-118 -26 -97 -48 -154 -101 -269 -119 -253 -319 -379 -863 -539 -134 -39 -218
-52 -345 -52 -145 -1 -256 23 -436 92 -134 52 -383 178 -425 215 -8 8 -20 14
-26 14 -21 0 -191 171 -235 237 -65 97 -82 129 -107 205 -24 73 -26 143 -2 81
15 -39 33 -42 66 -8 33 32 31 58 -10 141 -39 77 -42 105 -20 214 18 92 34 146
70 230 15 36 33 85 39 110 l12 45 67 17 c36 9 89 28 118 43 28 14 53 24 55 22
2 -1 -10 -17 -27 -35 -30 -32 -50 -92 -31 -92 6 0 46 18 90 40 135 69 284 94
479 83 l111 -6 21 34 c28 46 28 110 0 135 -56 51 -321 12 -499 -73 -52 -25
-98 -51 -102 -57 -5 -8 -8 -8 -8 0 0 6 12 22 28 36 35 33 62 66 62 77 0 5 3
11 8 13 4 2 18 28 32 58 46 103 88 157 143 185 64 31 98 31 222 -1 130 -34
300 -36 417 -5 163 42 294 124 334 209 l17 36 26 -34 c14 -19 46 -55 71 -80z
m1033 -67 c74 -51 87 -80 87 -198 0 -105 13 -148 65 -207 61 -69 69 -120 39
-224 l-16 -55 -36 33 c-20 18 -46 40 -57 48 -52 38 -67 76 -75 194 -10 141
-19 175 -73 262 -40 64 -45 80 -50 147 -3 42 -3 78 0 81 3 3 20 -7 38 -22 17
-15 53 -42 78 -59z m-3113 -334 c0 -17 6 -57 14 -88 8 -31 16 -124 18 -207 l5
-152 -38 -6 c-52 -8 -102 -59 -120 -122 -21 -73 -17 -195 10 -292 27 -95 24
-142 -11 -212 -16 -31 -23 -62 -23 -100 1 -51 5 -61 48 -118 84 -108 106 -185
68 -233 -33 -43 -114 -119 -119 -114 -3 3 2 22 12 42 10 21 20 61 23 88 6 53
-1 70 -74 194 -35 58 -41 161 -19 289 9 50 16 113 16 140 0 47 -28 123 -49
137 -7 3 -24 25 -38 48 -37 57 -35 123 5 247 17 52 35 124 41 160 14 80 37
144 68 190 22 33 139 138 156 139 4 1 7 -13 7 -30z m1298 9 c16 -16 15 -73 -1
-86 -7 -6 -70 -10 -152 -10 -155 -1 -242 -12 -331 -42 -102 -36 -101 -36 -85
-17 28 34 206 115 302 136 152 33 246 40 267 19z m-1233 -585 c12 -40 26 -98
30 -129 9 -78 40 -138 82 -161 20 -11 36 -28 39 -43 10 -42 21 -84 29 -102 5
-13 -2 -23 -27 -38 -85 -52 -200 5 -260 129 -43 90 -61 250 -36 333 14 48 61
90 95 86 21 -3 28 -14 48 -75z m3634 -93 c0 -47 -4 -105 -9 -130 -9 -50 -6
-62 15 -54 19 8 42 81 56 180 14 95 32 124 49 78 10 -26 6 -112 -13 -288 -3
-31 21 -30 40 2 10 17 29 73 42 127 25 102 44 120 49 46 3 -44 -37 -192 -67
-244 -14 -25 -14 -29 -1 -37 20 -12 59 29 94 98 27 53 61 82 69 59 8 -24 -40
-131 -76 -170 -7 -7 -41 -46 -77 -87 -36 -41 -89 -99 -118 -130 -29 -30 -67
-81 -83 -112 -24 -47 -34 -58 -54 -58 -26 0 -71 17 -95 37 -8 7 -33 26 -55 43
-22 18 -53 50 -68 73 -36 52 -34 78 19 262 39 136 65 188 93 183 13 -3 16 -17
16 -83 0 -63 3 -80 15 -80 37 0 89 130 110 275 22 151 50 157 49 10z m-651
-140 c2 -33 -1 -82 -8 -108 -19 -68 -73 -173 -107 -204 -46 -44 -143 -76 -143
-48 0 6 8 27 18 48 10 20 29 72 43 114 22 71 26 77 53 80 16 2 32 10 37 18 21
43 68 147 74 164 10 35 28 0 33 -64z m-3048 -242 c45 -39 47 -43 38 -70 -13
-38 -5 -111 16 -143 10 -15 48 -46 86 -71 127 -82 139 -125 64 -226 -57 -76
-76 -121 -76 -170 1 -47 21 -77 87 -128 82 -63 82 -84 5 -120 -96 -45 -150
-117 -150 -200 0 -73 44 -109 152 -125 70 -11 105 -36 118 -87 7 -24 16 -53
21 -66 16 -41 10 -61 -41 -138 -27 -41 -50 -80 -50 -85 0 -5 -4 -9 -10 -9 -5
0 -10 -5 -10 -10 0 -6 -20 -44 -45 -84 -25 -41 -50 -87 -55 -102 l-11 -28 -24
43 c-30 51 -58 75 -108 92 -86 28 -126 91 -127 196 0 39 -25 121 -40 133 -4 3
-17 27 -29 53 -18 36 -21 56 -16 85 6 35 34 89 59 115 107 113 120 205 47 359
-17 36 -31 76 -31 89 0 33 31 81 89 137 61 60 71 79 71 140 0 63 -16 100 -80
187 -51 68 -52 71 -47 125 3 30 12 69 21 85 9 17 16 38 16 48 0 24 5 22 60
-25z m294 -89 c20 -40 24 -60 19 -97 -6 -52 3 -76 62 -177 43 -75 44 -107 4
-210 -23 -59 -30 -89 -26 -118 7 -48 48 -94 93 -103 17 -3 46 -15 64 -26 l32
-19 -7 -110 c-5 -77 -3 -119 5 -139 10 -24 8 -33 -13 -67 -14 -22 -39 -73 -56
-114 -17 -41 -40 -87 -51 -104 l-19 -29 -7 41 c-14 88 -64 134 -167 152 -62
11 -104 32 -114 57 -10 27 8 84 37 118 16 18 56 47 88 64 71 38 85 54 85 94 0
24 -9 39 -39 65 -103 91 -114 104 -114 134 0 35 28 92 66 134 32 36 63 101 64
133 0 46 -37 98 -102 141 -110 72 -112 75 -116 147 l-4 64 63 0 c35 0 71 5 79
10 31 20 48 10 74 -41z m2745 -46 c69 -69 81 -97 81 -195 0 -93 1 -91 -94
-195 -94 -103 -258 -203 -373 -228 -30 -6 -31 -5 -38 34 -11 66 3 83 131 158
128 75 146 147 69 267 -26 41 -45 81 -45 98 0 26 3 28 43 28 48 0 113 27 141
59 11 11 23 21 28 21 5 0 31 -21 57 -47z m316 -70 c44 -67 165 -158 228 -172
17 -4 44 -4 60 0 23 6 27 4 27 -14 0 -12 -9 -41 -19 -64 -19 -42 -177 -293
-190 -303 -4 -3 -18 -21 -31 -40 -79 -113 -152 -188 -273 -281 -166 -128 -298
-199 -482 -259 -155 -51 -200 -71 -280 -123 -82 -54 -152 -123 -180 -178 -13
-25 -31 -84 -40 -130 -28 -147 -57 -239 -77 -239 -57 0 -206 128 -275 236 -37
57 -89 207 -97 280 -4 29 -20 94 -36 145 -33 103 -37 134 -16 142 18 7 26 -13
26 -68 0 -35 5 -48 26 -64 69 -55 138 16 96 98 -11 21 -23 59 -27 83 -7 43 -5
48 37 93 23 27 51 55 62 64 10 9 29 26 42 39 24 23 106 72 162 98 53 24 127
34 250 34 308 0 508 72 688 248 43 41 132 158 190 248 93 145 99 154 105 154
4 0 15 -12 24 -27z m-2981 -11 c7 -22 113 -132 178 -185 l47 -39 -2 -77 c-2
-96 10 -116 97 -171 96 -61 117 -122 79 -230 -19 -51 -24 -57 -86 -90 -36 -20
-75 -44 -85 -53 -37 -33 -45 -22 -37 46 5 34 9 92 9 129 1 58 -2 69 -23 88
-14 11 -44 26 -68 31 -52 14 -93 52 -93 88 1 14 14 60 30 101 44 112 39 171
-25 260 -26 36 -55 98 -55 116 0 13 30 1 34 -14z m2380 -36 c3 -14 17 -37 30
-53 13 -15 29 -45 35 -66 22 -65 -6 -111 -96 -159 -42 -23 -43 -23 -43 6 0 13
-8 44 -18 68 -35 81 -35 90 4 133 19 22 42 52 51 68 21 33 29 34 37 3z m-125
-196 c29 -76 28 -117 -4 -142 -41 -32 -57 -73 -49 -123 6 -42 5 -45 -21 -55
-16 -6 -69 -9 -119 -8 l-91 3 38 24 c55 34 67 59 72 146 6 101 9 108 53 138
20 13 50 36 67 50 16 15 30 25 31 24 1 -1 12 -27 23 -57z m-1890 -74 c113 -63
228 -119 326 -156 96 -38 94 -56 -6 -52 -85 4 -118 -8 -173 -59 -36 -34 -56
-37 -56 -9 0 52 -61 120 -138 154 -23 10 -42 25 -42 33 0 7 -4 13 -10 13 -6 0
-10 28 -10 65 0 36 3 65 7 65 4 0 50 -24 102 -54z m1690 -73 c-6 -73 -8 -79
-39 -103 -19 -14 -46 -37 -62 -51 -22 -22 -43 -29 -110 -38 l-82 -11 -30 33
c-17 19 -49 40 -71 47 -35 11 -69 30 -54 30 18 0 325 113 374 138 33 16 65 30
70 31 7 1 8 -26 4 -76z m-477 -137 c18 -8 48 -20 65 -26 18 -7 43 -21 55 -32
23 -19 23 -20 4 -34 -11 -8 -24 -14 -29 -14 -5 0 -41 -19 -80 -42 -67 -40 -95
-65 -160 -143 l-25 -30 -22 28 c-26 33 -43 34 -70 5 -18 -19 -21 -32 -17 -70
4 -45 -5 -79 -18 -66 -3 3 -7 37 -7 75 -1 62 2 76 30 122 18 28 32 55 32 59 0
5 11 30 24 58 50 102 136 145 218 110z m-652 -22 c92 -21 252 -28 340 -16 41
6 76 9 78 7 2 -2 -10 -34 -28 -72 -48 -103 -64 -134 -76 -144 -24 -20 -190
-28 -294 -14 -56 8 -108 19 -117 24 -13 7 -16 29 -17 125 l-1 117 25 -6 c14
-4 54 -13 90 -21z m-206 -24 l49 0 -6 -112 c-9 -145 -15 -171 -36 -162 -42 17
-52 15 -79 -14 l-29 -31 -29 30 c-17 16 -57 40 -89 54 -55 22 -60 27 -63 57
-3 38 10 55 91 123 58 48 95 66 122 60 11 -3 42 -5 69 -5z m2270 -222 c-8 -53
-25 -81 -80 -135 -53 -52 -64 -88 -51 -175 9 -57 7 -74 -9 -115 l-18 -48 -8
54 c-5 30 -22 79 -38 109 -21 40 -30 69 -30 103 0 47 2 50 53 88 28 22 81 67
117 100 36 33 66 60 68 61 1 0 -1 -19 -4 -42z m-2065 -34 c91 -15 242 -15 282
1 13 5 17 -6 23 -66 3 -40 5 -74 2 -76 -2 -2 -60 -8 -128 -14 -155 -12 -173
-7 -183 53 -4 24 -12 49 -17 56 -12 14 -54 16 -63 2 -3 -5 -15 -10 -26 -10
-16 0 -19 7 -19 41 0 34 3 40 16 35 9 -4 60 -14 113 -22z m-500 2 c7 -8 30
-17 52 -21 21 -4 39 -11 39 -16 0 -5 6 -9 13 -9 7 0 33 -20 57 -45 43 -44 45
-48 48 -116 3 -44 0 -75 -7 -82 -20 -20 -13 -76 15 -103 29 -30 64 -27 102 8
l22 21 0 -22 c0 -51 -23 -165 -44 -219 -13 -32 -57 -109 -98 -172 -41 -63 -92
-143 -113 -177 -21 -35 -42 -63 -46 -63 -5 0 -11 12 -15 28 -3 15 -11 45 -16
67 -20 81 -58 322 -58 373 0 28 -4 52 -10 52 -5 0 -10 -7 -10 -15 0 -8 -4 -15
-10 -15 -15 0 -12 -98 6 -201 8 -50 13 -102 9 -117 -8 -40 -90 -124 -119 -124
-13 0 -49 7 -80 17 -56 18 -74 16 -61 -4 8 -15 80 -51 99 -51 27 0 73 -58 95
-122 13 -34 39 -97 58 -138 50 -105 63 -146 63 -195 l0 -42 -65 -22 c-82 -27
-137 -61 -196 -124 -30 -31 -53 -48 -65 -45 -26 5 -62 81 -109 228 -15 47 -61
153 -101 235 -128 261 -126 314 17 555 31 52 78 127 103 165 26 39 83 144 127
235 45 91 92 177 107 192 14 15 48 40 76 54 28 14 55 30 61 35 14 13 41 11 54
-5z m947 -103 c12 -65 11 -84 -3 -70 -9 10 -32 135 -25 142 10 9 15 -4 28 -72z
m-660 22 c8 -32 -8 -165 -21 -168 -11 -2 -26 158 -18 180 8 22 32 14 39 -12z
m186 -30 c11 -75 18 -78 188 -70 l146 7 15 -67 c8 -36 13 -68 9 -70 -29 -18
-405 -41 -428 -26 -5 3 -12 61 -16 129 -7 117 -6 122 12 122 11 0 23 7 26 16
3 8 14 14 23 12 13 -2 20 -17 25 -53z m-132 -112 c0 -50 -3 -64 -11 -56 -11
11 -4 123 7 123 2 0 4 -30 4 -67z m1945 2 c5 -38 4 -60 -5 -70 -7 -8 -22 -42
-34 -74 l-21 -59 -37 34 c-41 37 -68 82 -68 113 0 13 17 29 53 49 28 17 61 37
72 46 11 8 23 16 27 16 4 0 10 -25 13 -55z m-1299 -20 c9 -23 -3 -45 -21 -39
-20 8 -20 54 0 54 9 0 18 -7 21 -15z m1113 -79 c7 -29 23 -54 49 -77 21 -19
55 -60 75 -91 20 -31 48 -64 62 -74 20 -13 23 -19 14 -30 -16 -20 -59 -17 -95
5 -21 13 -38 37 -54 77 -13 33 -27 61 -30 64 -25 20 -60 90 -60 121 0 64 23
67 39 5z m-1814 -12 c0 -32 -31 -47 -46 -22 -12 18 -11 24 7 43 23 22 39 14
39 -21z m2053 1 c15 -33 15 -63 0 -120 -14 -51 -20 -54 -42 -23 -21 29 -20 88
1 133 20 42 26 43 41 10z m-318 -25 c4 -20 20 -56 38 -81 17 -26 42 -72 56
-103 14 -31 32 -64 41 -72 26 -26 19 -85 -16 -132 -40 -55 -53 -54 -45 2 11
73 -10 131 -61 174 -111 91 -123 109 -123 177 0 42 3 47 33 60 50 23 71 16 77
-25z m-1165 7 c14 -34 31 -142 24 -145 -5 -2 -29 4 -55 14 -44 17 -46 17 -72
-3 -18 -13 -31 -37 -39 -68 -7 -27 -18 -52 -25 -56 -31 -20 -317 -23 -336 -4
-3 2 3 42 12 87 9 46 17 101 19 123 l2 40 170 3 c94 2 186 7 205 12 53 12 90
11 95 -3z m1035 -49 c0 -26 9 -57 21 -78 20 -33 32 -45 105 -108 40 -34 51
-71 63 -212 6 -63 13 -130 17 -147 14 -71 -20 -108 -119 -129 -58 -12 -62 -11
-80 9 -58 67 -57 130 3 245 59 111 54 157 -26 239 -56 58 -64 73 -64 113 0 44
36 110 60 110 17 0 20 -7 20 -42z m-124 -42 c-9 -59 11 -105 74 -172 70 -74
71 -87 16 -197 -27 -53 -46 -106 -46 -124 0 -40 -12 -42 -35 -6 -13 20 -16 38
-12 76 4 27 10 54 16 61 5 6 16 32 25 58 24 71 13 102 -61 173 -58 56 -63 65
-63 103 0 38 3 43 33 56 55 24 60 21 53 -28z m-110 -64 c4 -21 80 -102 96
-102 13 0 38 -58 38 -90 0 -17 -11 -57 -25 -90 -14 -33 -25 -76 -25 -96 0 -36
33 -104 51 -104 5 0 17 -17 28 -37 10 -21 29 -49 41 -63 42 -47 52 -77 40
-118 -11 -43 -34 -67 -100 -104 -25 -14 -54 -35 -64 -47 -46 -50 -50 5 -5 72
77 116 58 188 -69 256 -40 22 -47 31 -50 59 -2 21 5 47 19 70 64 108 72 132
63 181 -4 18 -26 54 -50 80 -72 80 -78 124 -26 168 24 21 27 21 30 5 1 -9 5
-27 8 -40z m-787 -12 c11 0 22 -19 35 -60 10 -33 31 -87 47 -121 16 -33 29
-62 29 -64 0 -2 -19 -6 -42 -10 -24 -3 -76 -13 -117 -21 -86 -17 -430 -30
-513 -20 -48 6 -58 11 -58 27 0 10 4 19 8 19 5 0 23 29 41 63 l33 64 152 -1
c83 -1 167 2 187 7 38 8 59 37 59 82 0 13 11 32 26 44 24 19 28 19 61 6 20 -8
43 -15 52 -15z m734 -146 c53 -64 60 -100 26 -149 -55 -82 -71 -127 -66 -184
3 -31 12 -79 20 -107 20 -70 13 -95 -49 -164 -73 -82 -78 -107 -40 -208 16
-42 13 -92 -5 -92 -5 0 -9 14 -9 31 0 36 -21 84 -66 151 -60 88 -52 161 36
347 61 126 63 163 20 254 -16 35 -30 79 -30 98 0 37 26 87 68 132 l27 28 10
-40 c6 -23 30 -65 58 -97z m-130 -223 c0 -35 -10 -66 -41 -126 -76 -149 -100
-257 -72 -329 5 -14 28 -54 50 -88 33 -52 40 -70 40 -112 0 -48 -3 -53 -38
-76 -20 -14 -40 -26 -44 -28 -24 -11 -80 451 -65 542 3 18 23 71 46 117 22 46
45 113 52 149 18 99 18 100 46 46 16 -31 26 -67 26 -95z m-437 52 c62 -77 178
-173 209 -173 22 0 37 -26 23 -37 -44 -35 -637 -75 -774 -53 -33 6 -62 10 -65
10 -4 0 -10 25 -14 55 -10 82 -39 103 -88 65 -32 -26 -67 -25 -101 1 -44 35
-83 7 -95 -70 -4 -22 -12 -35 -23 -37 -41 -6 -34 23 31 123 36 56 71 109 76
118 9 14 16 15 60 5 87 -21 399 -12 565 16 93 15 129 21 146 23 7 0 29 -20 50
-46z m-1066 -125 c5 -24 15 -56 20 -73 6 -16 13 -86 15 -155 4 -122 4 -125
-14 -103 -10 12 -33 59 -50 105 -18 46 -42 104 -53 130 l-21 46 39 46 c22 25
42 45 46 46 4 0 12 -19 18 -42z m250 -28 c34 -27 97 -26 118 1 27 32 48 16 55
-43 4 -29 13 -58 20 -65 28 -28 140 -35 395 -24 226 10 281 15 410 36 l42 8 0
-90 0 -90 -57 -13 c-40 -9 -157 -15 -373 -17 -641 -8 -649 -8 -715 14 l-60 19
0 85 0 84 25 -4 c62 -10 65 -9 70 40 5 43 23 79 39 79 3 0 17 -9 31 -20z m147
-333 c89 1 195 7 235 13 51 9 126 11 248 6 152 -6 219 -3 394 17 21 2 22 -4
27 -138 4 -84 3 -90 -16 -90 -16 0 -21 10 -28 53 -8 49 -10 52 -37 52 -19 0
-31 -6 -35 -19 -9 -29 -64 -36 -87 -11 -42 45 -98 1 -98 -76 0 -39 -3 -44 -27
-51 -45 -11 -697 15 -797 32 -49 9 -93 18 -99 22 -10 6 -4 203 7 221 3 6 34 2
78 -11 62 -18 99 -21 235 -20z m843 -152 c8 -56 17 -68 50 -62 27 6 27 5 45
-75 22 -96 24 -93 -88 -129 -79 -26 -73 -26 -674 -19 l-262 3 -6 26 c-7 32
-35 65 -95 111 -25 19 -47 37 -50 41 -3 3 -14 11 -25 17 -19 11 -19 11 5 12
14 0 77 -7 140 -14 127 -16 681 -25 718 -13 19 7 22 16 22 57 0 71 33 100 67
60 27 -31 113 -19 113 15 0 10 7 15 18 13 11 -2 19 -16 22 -43z m-1027 -206
c31 -28 48 -50 43 -57 -10 -17 -17 -15 -51 14 -16 14 -42 33 -57 42 -16 9 -28
20 -28 24 0 4 -6 8 -14 8 -8 0 -16 5 -18 12 -5 14 -38 4 -38 -12 0 -5 8 -18
19 -27 10 -10 57 -54 104 -98 146 -135 106 -143 -83 -16 -82 55 -100 61 -100
32 0 -13 32 -40 103 -87 107 -71 131 -93 117 -108 -15 -16 -77 4 -139 44 -101
65 -140 42 -60 -35 47 -46 73 -90 65 -111 -10 -26 -34 -14 -83 42 -26 31 -87
99 -136 151 -48 52 -90 106 -93 120 -13 52 133 163 241 182 36 7 45 3 98 -33
32 -23 82 -62 110 -87z m1131 -101 c3 -13 10 -57 16 -99 6 -41 17 -99 25 -128
l14 -53 -27 7 c-42 10 -131 66 -169 107 -33 34 -83 111 -83 128 0 4 24 10 53
14 28 3 75 15 102 25 63 25 64 25 69 -1z m-636 -35 c13 -33 6 -404 -9 -458
l-14 -50 -77 -3 c-59 -2 -78 -6 -78 -17 0 -21 33 -35 84 -35 l44 0 9 -67 c10
-87 10 -514 -1 -848 -12 -358 11 -721 60 -959 17 -86 8 -100 -75 -117 -101
-21 -366 -8 -393 19 -4 4 -4 64 2 133 9 107 8 148 -11 299 -11 96 -36 247 -56
335 -19 88 -38 185 -43 215 -5 30 -16 93 -24 140 -8 47 -25 166 -36 265 -12
99 -32 248 -46 332 -13 83 -27 221 -31 306 l-6 155 34 7 c49 11 146 61 185 98
33 29 114 174 114 203 0 7 4 24 10 38 l10 26 170 0 c153 0 171 -2 178 -17z
m132 -87 c0 -53 -6 -114 -15 -143 -14 -49 -56 -103 -79 -103 -12 0 -17 331 -5
340 4 3 28 4 53 2 l46 -4 0 -92z m-515 58 c-3 -20 -10 -44 -14 -53 -44 -92
-60 -117 -98 -152 -43 -39 -120 -80 -174 -93 -21 -4 -28 -2 -32 14 -6 25 1 32
24 19 48 -25 96 22 86 86 -5 31 -3 35 11 31 9 -3 34 -8 55 -10 43 -5 77 19 77
55 0 12 12 30 26 41 26 21 27 37 9 81 -6 13 -2 17 15 17 20 0 22 -3 15 -36z
m801 -32 c19 -31 54 -76 79 -99 42 -38 156 -103 183 -103 7 0 12 -3 12 -7 0
-5 25 -129 56 -278 30 -148 71 -362 90 -475 36 -214 82 -411 133 -570 37 -113
47 -160 33 -160 -5 0 -12 18 -16 39 -6 39 -28 71 -47 71 -5 0 -25 -16 -45 -35
-37 -37 -55 -42 -100 -25 -21 8 -32 7 -52 -6 -23 -15 -24 -21 -19 -70 5 -47 3
-56 -14 -67 -29 -18 -24 -39 9 -37 15 1 33 2 40 1 19 -2 14 -25 -8 -39 -22
-13 -27 -42 -7 -42 6 0 20 7 31 15 16 12 22 12 43 -2 13 -9 42 -16 65 -16 35
0 47 6 75 36 18 20 33 45 33 56 0 19 26 36 34 22 3 -4 14 -59 25 -122 45 -256
68 -341 112 -407 23 -34 27 -46 18 -61 -15 -23 -82 -63 -139 -84 -67 -24 -213
-49 -267 -45 -43 3 -48 6 -51 28 -4 31 -40 185 -53 225 -5 17 -21 82 -35 145
-28 126 -38 158 -114 393 -59 183 -95 306 -145 507 -90 362 -152 496 -312 669
-23 25 -43 49 -43 52 0 3 26 18 58 32 31 15 66 33 77 40 58 36 75 49 70 57 -7
12 -47 -1 -135 -43 -41 -19 -78 -33 -82 -31 -5 3 -6 15 -4 27 3 12 8 43 11 69
5 38 10 47 30 52 59 15 88 92 101 267 l6 87 115 -4 115 -4 34 -58z m543 -1687
c-1 -22 2 -47 5 -56 4 -10 3 -20 -3 -24 -6 -3 -8 -17 -5 -30 8 -33 -23 -73
-62 -81 -39 -7 -76 10 -67 32 4 10 -2 17 -16 21 -18 5 -21 11 -16 30 4 19 1
26 -14 30 -19 5 -31 30 -31 69 0 28 20 35 51 18 13 -7 33 -13 43 -14 26 0 86
47 86 68 1 15 3 14 16 -3 8 -11 14 -37 13 -60z m59 -56 c-2 -6 -8 -10 -13 -10
-5 0 -11 4 -13 10 -2 6 4 11 13 11 9 0 15 -5 13 -11z m208 -675 c10 -38 -22
-74 -103 -115 -91 -45 -272 -91 -331 -82 -44 6 -72 31 -72 65 0 16 10 18 78
18 126 0 323 62 377 118 27 28 43 27 51 -4z m-1176 -92 c0 -24 -7 -32 -47 -50
-125 -56 -291 -69 -400 -30 -48 16 -64 27 -71 47 -15 44 -6 50 46 33 33 -11
91 -15 197 -16 132 -1 156 2 200 21 68 28 75 28 75 -5z m1110 -86 c0 -13 13
-49 29 -80 l30 -56 -39 0 c-53 0 -87 -17 -102 -52 -8 -17 -23 -31 -38 -34 -14
-3 -42 -10 -63 -16 -54 -16 -62 -4 -62 98 l0 85 40 10 c22 5 74 23 115 38 93
36 90 36 90 7z m-1240 -98 c0 -29 7 -66 15 -81 17 -34 7 -62 -26 -72 -17 -6
-29 2 -58 33 -39 44 -84 62 -158 62 l-42 0 5 38 c9 61 8 61 71 56 32 -3 78 -1
103 4 89 19 90 19 90 -40z m1390 -106 l20 -21 -37 -10 c-21 -6 -55 -20 -76
-31 l-39 -21 -34 26 c-38 29 -40 34 -21 57 16 21 26 23 102 23 53 -1 68 -5 85
-23z m-1540 -3 c45 -14 66 -47 46 -75 -12 -16 -16 -16 -54 -1 -23 9 -64 17
-92 18 -61 3 -70 13 -39 44 27 27 79 32 139 14z m234 -55 c12 -31 7 -56 -10
-50 -9 3 -28 6 -42 6 l-27 1 23 18 c12 11 22 24 22 30 0 17 27 13 34 -5z m876
6 c0 -5 12 -16 26 -23 l26 -14 -30 -21 c-44 -32 -52 -28 -52 23 0 33 4 45 15
45 8 0 15 -4 15 -10z m479 -9 c23 -15 8 -32 -49 -56 -101 -42 -154 -5 -57 40
55 26 83 30 106 16z m-247 -26 c20 -14 41 -25 45 -25 5 0 13 -10 18 -22 6 -14
21 -24 36 -26 23 -3 27 -8 25 -35 -1 -27 3 -32 29 -37 22 -4 29 -11 27 -24 -4
-22 15 -46 36 -46 8 0 43 13 77 30 83 41 114 45 143 20 27 -22 21 -40 -12 -40
-30 0 -133 -53 -171 -88 -17 -15 -41 -42 -54 -60 -12 -18 -29 -32 -38 -32 -8
0 -41 17 -73 38 -31 21 -90 49 -131 61 -126 38 -159 52 -189 78 -26 22 -30 31
-30 76 l0 52 69 37 c37 21 74 45 81 53 19 23 71 18 112 -10z m-1202 -20 c8 -7
33 -16 55 -20 22 -4 43 -12 47 -18 13 -21 9 -102 -7 -123 -13 -18 -14 -17 -15
17 0 24 -5 39 -16 43 -12 5 -15 2 -9 -11 8 -21 8 -21 6 -53 -2 -35 -15 -52
-33 -45 -25 10 -29 44 -7 63 25 22 24 36 -2 22 -38 -21 -42 -78 -6 -102 6 -3
-17 -36 -51 -74 -34 -38 -62 -74 -62 -82 0 -7 -28 16 -63 50 -79 79 -136 102
-254 103 -79 0 -82 1 -69 20 7 11 16 26 20 33 6 10 11 9 23 -7 12 -18 23 -21
86 -19 40 1 95 -4 123 -12 62 -16 80 -10 100 32 19 44 36 70 54 84 10 8 14 28
12 59 -1 26 1 51 3 55 6 10 45 1 65 -15z m-200 4 c74 -16 100 -31 100 -56 0
-28 0 -28 -58 -1 -32 15 -71 23 -122 25 -41 1 -77 3 -80 3 -3 0 6 10 19 20 26
22 71 25 141 9z m1716 -33 c18 -14 18 -15 -9 -25 -16 -6 -34 -11 -40 -11 -7 0
-21 -7 -31 -15 -21 -16 -86 -21 -86 -6 0 9 65 55 90 64 28 10 56 7 76 -7z
m-1692 -54 c70 -32 50 -47 -35 -27 -35 8 -88 15 -117 15 -35 0 -51 4 -47 11
22 35 122 35 199 1z m1756 -10 c0 -4 -19 -14 -42 -23 -24 -9 -60 -24 -81 -33
-38 -17 -38 -17 -35 5 4 29 62 59 115 59 24 0 43 -3 43 -8z m-1766 -62 c26
-10 28 -13 15 -26 -13 -13 -24 -13 -81 -1 -37 8 -89 12 -117 9 -51 -5 -62 3
-38 27 14 16 174 9 221 -9z m229 -137 c-33 -43 -66 -89 -73 -103 -29 -55 -71
-97 -127 -125 -51 -26 -68 -29 -148 -28 -88 0 -197 22 -236 46 -50 31 1 35
133 10 75 -14 99 -15 159 -5 95 16 122 32 168 100 40 59 171 196 179 187 3 -2
-22 -40 -55 -82z m1707 55 c37 -39 50 -67 50 -113 0 -28 -5 -35 -31 -44 -43
-15 -94 -14 -177 4 -38 8 -91 16 -118 18 -26 3 -50 9 -51 14 -5 14 67 83 112
106 46 23 118 45 156 46 18 1 38 -10 59 -31z m-2055 -40 c25 -7 45 -16 45 -20
0 -4 6 -8 13 -8 20 0 108 -92 105 -110 -2 -8 -21 -24 -43 -34 -49 -24 -148
-26 -292 -6 l-103 14 0 45 c0 53 28 107 63 121 32 13 160 12 212 -2z m1466
-14 c41 -14 97 -40 124 -59 37 -25 65 -34 110 -39 33 -3 115 -16 183 -28 101
-18 131 -20 165 -11 50 14 60 8 29 -17 -48 -39 -256 -39 -369 0 -34 12 -103
48 -154 81 -51 32 -97 59 -103 59 -19 1 -92 39 -75 40 8 0 49 -12 90 -26z"/>
<path d="M2836 9655 c-53 -28 -74 -69 -111 -216 -20 -78 -44 -288 -45 -386 0
-22 46 -14 70 12 34 36 176 127 245 157 90 39 198 78 217 78 27 0 48 11 48 26
0 15 -296 316 -328 333 -28 15 -62 14 -96 -4z m224 -177 c77 -77 138 -143 135
-147 -2 -5 -18 -11 -34 -14 -90 -18 -309 -118 -353 -160 -18 -17 -75 -57 -82
-57 -7 0 2 111 16 205 9 60 17 97 55 230 16 55 66 97 105 87 9 -2 81 -67 158
-144z"/>
<path d="M4221 8091 c-21 -16 -23 -24 -19 -76 7 -87 15 -90 217 -90 199 -1
302 -22 419 -86 82 -45 104 -43 83 8 -38 93 -201 190 -397 237 -137 32 -266
36 -303 7z m295 -46 c146 -41 313 -123 298 -147 -4 -5 -10 -5 -17 0 -22 18
-152 51 -247 63 -56 6 -134 8 -188 4 -66 -4 -98 -3 -108 6 -15 12 -20 80 -6
94 11 12 204 -2 268 -20z"/>
<path d="M3105 7866 c-73 -34 -135 -107 -162 -192 -27 -85 -37 -145 -29 -177
7 -31 55 -80 92 -95 63 -24 236 -52 327 -52 116 0 146 6 182 34 28 22 29 27
38 154 l10 131 -29 58 c-36 71 -79 105 -171 138 -97 33 -188 34 -258 1z m279
-54 c49 -23 73 -42 99 -78 43 -59 51 -102 41 -229 l-7 -95 -43 -21 c-59 -28
-188 -28 -332 2 -138 28 -177 47 -204 104 l-22 45 22 68 c30 92 72 154 135
195 66 44 76 47 169 42 61 -2 92 -10 142 -33z"/>
<path d="M3126 7800 c-52 -26 -62 -35 -91 -87 -46 -83 -33 -176 35 -244 38
-38 57 -49 103 -59 103 -21 190 21 233 114 51 110 12 220 -98 277 -49 25 -130
24 -182 -1z m186 -23 c90 -54 120 -153 77 -247 -20 -43 -21 -44 -30 -21 -7 19
-14 22 -37 18 -15 -4 -54 -11 -87 -17 -33 -7 -71 -14 -83 -16 -20 -4 -23 -9
-17 -31 6 -25 5 -26 -17 -11 -12 8 -36 32 -53 52 -27 34 -30 45 -30 105 0 56
4 74 27 108 52 79 172 108 250 60z m38 -278 c0 -21 -59 -69 -87 -71 -44 -2
-66 1 -90 14 -48 24 -18 47 62 48 22 0 47 5 55 10 20 13 60 13 60 -1z"/>
<path d="M3110 7727 c-36 -18 -48 -59 -27 -91 39 -59 117 -37 117 32 0 31 -5
41 -29 55 -34 20 -30 20 -61 4z m63 -21 c20 -15 23 -56 5 -74 -7 -7 -24 -12
-38 -12 -33 0 -50 17 -50 52 0 42 46 61 83 34z"/>
<path d="M4445 7788 c-51 -13 -127 -71 -162 -121 -52 -75 -80 -264 -49 -325
25 -48 83 -72 210 -84 192 -20 370 12 410 74 21 32 8 256 -19 308 -29 57 -95
113 -155 132 -72 22 -185 30 -235 16z m209 -55 c72 -20 136 -74 162 -136 10
-26 19 -81 21 -142 5 -92 3 -102 -16 -122 -40 -42 -121 -58 -286 -57 -169 2
-218 11 -265 53 -28 24 -34 37 -38 82 -7 92 42 207 118 277 68 62 182 79 304
45z"/>
<path d="M4407 7690 c-81 -51 -118 -135 -98 -223 49 -219 355 -222 413 -4 46
175 -161 325 -315 227z m191 -4 c86 -45 131 -149 101 -235 -10 -29 -29 -43
-29 -21 0 17 -48 11 -90 -10 -22 -11 -51 -20 -65 -20 -44 0 -68 -18 -61 -46 8
-29 1 -30 -39 -6 -50 31 -85 91 -86 148 -1 28 2 61 6 75 12 39 53 88 93 109
44 23 131 26 170 6z m54 -301 c-18 -38 -95 -70 -141 -59 -26 7 -36 14 -36 29
0 15 9 21 42 27 23 3 61 16 85 27 50 23 67 14 50 -24z"/>
<path d="M4382 7600 c-28 -26 -28 -60 -2 -88 24 -26 72 -29 94 -6 9 8 16 30
16 48 0 61 -63 87 -108 46z m90 -13 c28 -44 -18 -97 -66 -76 -52 24 -23 108
33 94 14 -4 29 -12 33 -18z"/>
<path d="M3780 7287 c-85 -28 -120 -66 -120 -129 0 -73 131 -148 258 -148 176
0 286 81 240 176 -17 36 -89 81 -159 99 -64 17 -170 18 -219 2z m264 -38 c122
-45 129 -135 14 -184 -56 -23 -194 -20 -259 5 -93 37 -121 72 -98 124 10 22
55 50 109 69 8 3 52 6 97 6 60 1 97 -5 137 -20z"/>
<path d="M3404 6936 c-3 -8 4 -29 15 -45 12 -16 21 -32 21 -36 0 -4 20 -38 44
-75 84 -127 190 -197 317 -208 100 -8 241 48 330 131 54 50 149 161 149 174 0
5 -28 7 -63 5 -45 -3 -82 2 -131 17 -78 24 -117 26 -179 9 -39 -10 -49 -9 -91
12 -50 24 -72 24 -218 1 -56 -9 -75 -8 -110 5 -73 26 -77 27 -84 10z m418 -47
c40 -21 44 -21 93 -5 64 20 81 20 136 1 24 -9 67 -19 94 -24 l50 -7 -56 -17
c-102 -31 -200 -39 -311 -27 -107 11 -244 43 -288 66 -24 12 -22 13 30 15 30
0 66 5 80 9 50 16 129 11 172 -11z m-237 -123 c91 -85 131 -101 245 -101 79 1
105 5 158 27 71 29 172 88 172 100 0 14 -23 8 -54 -15 -49 -35 -112 -67 -137
-69 -13 -1 -55 7 -93 17 -59 16 -76 17 -125 7 -32 -7 -64 -12 -72 -12 -9 0
-47 30 -85 66 -38 36 -60 63 -49 59 149 -53 415 -73 549 -41 52 12 61 12 74
-1 14 -14 10 -21 -40 -69 -34 -33 -88 -70 -139 -96 -78 -39 -90 -42 -164 -42
-128 1 -211 48 -304 172 -87 115 -61 114 64 -2z m284 -58 c33 -7 47 -14 39
-20 -19 -12 -133 -10 -165 4 l-28 11 30 7 c46 11 69 11 124 -2z"/>
<path d="M4775 1240 c-3 -5 -17 -10 -31 -10 -19 0 -24 -5 -24 -24 0 -13 6 -26
13 -29 10 -4 10 -7 0 -18 -23 -24 -16 -75 13 -98 35 -28 55 -26 84 4 17 18 24
37 24 63 0 20 6 43 13 50 7 7 13 22 13 33 0 14 -7 19 -29 19 -17 0 -33 5 -36
10 -3 6 -12 10 -20 10 -8 0 -17 -4 -20 -10z m27 -25 c0 -5 -5 -11 -11 -13 -6
-2 -11 4 -11 13 0 9 5 15 11 13 6 -2 11 -8 11 -13z m61 -20 c-6 -18 -19 -19
-29 -4 -7 12 15 31 28 23 4 -3 5 -11 1 -19z m-113 5 c0 -5 -4 -10 -10 -10 -5
0 -10 5 -10 10 0 6 5 10 10 10 6 0 10 -4 10 -10z m70 -20 c0 -5 -13 -10 -30
-10 -16 0 -30 5 -30 10 0 6 14 10 30 10 17 0 30 -4 30 -10z m16 -45 c7 -18
-20 -63 -42 -72 -24 -9 -68 40 -59 66 5 17 14 21 51 21 31 0 46 -5 50 -15z"/>
<path d="M3733 1223 c-15 -3 -23 -12 -23 -24 0 -13 -6 -19 -17 -17 -13 2 -19
-5 -21 -24 -2 -20 1 -28 12 -28 9 0 16 7 16 16 0 9 9 18 20 21 11 3 20 9 20
14 0 5 9 9 20 9 13 0 20 7 20 20 0 20 -5 21 -47 13z"/>
<path d="M6930 270 c0 -46 3 -81 6 -77 3 3 6 38 6 77 0 39 -3 74 -6 77 -3 4
-6 -31 -6 -77z"/>
<path d="M5566 333 c-10 -10 -7 -143 3 -143 6 0 11 24 13 53 l3 52 25 -37 c14
-21 27 -38 30 -38 3 0 16 17 30 37 l25 37 3 -57 c2 -33 7 -55 13 -52 12 8 12
142 -1 150 -5 3 -22 -14 -37 -39 -15 -26 -30 -46 -34 -46 -3 0 -15 18 -28 40
-24 43 -35 53 -45 43z"/>
<path d="M6059 315 c-3 -26 -8 -30 -30 -27 -51 6 -79 -57 -41 -91 10 -10 32
-17 49 -17 l31 0 4 66 c3 70 -7 123 -13 69z m-7 -62 c8 -36 -3 -54 -31 -51
-26 3 -38 26 -27 54 8 20 54 18 58 -3z"/>
<path d="M6306 333 c-10 -10 -7 -141 4 -148 6 -4 10 16 11 52 0 49 2 55 12 40
7 -10 20 -28 30 -40 16 -19 20 -20 27 -6 5 9 18 27 29 40 l20 24 1 -58 c0 -36
4 -56 10 -52 12 8 13 142 1 149 -5 4 -22 -14 -38 -39 -15 -25 -31 -45 -35 -45
-4 0 -13 10 -19 23 -20 36 -46 67 -53 60z"/>
<path d="M6787 328 c-4 -10 -9 -24 -11 -32 -3 -8 -14 -12 -28 -9 -43 8 -69
-55 -38 -92 16 -19 79 -20 86 -2 8 22 0 154 -9 135z m-12 -77 c9 -28 -5 -51
-30 -51 -25 0 -39 23 -30 51 8 25 52 25 60 0z"/>
<path d="M5752 278 c-16 -16 -15 -66 2 -84 18 -17 58 -18 74 -2 7 7 12 26 12
43 0 38 -16 55 -50 55 -14 0 -31 -5 -38 -12z m67 -22 c18 -22 -3 -56 -34 -56
-21 0 -25 5 -25 28 0 16 3 32 7 35 11 12 40 8 52 -7z"/>
<path d="M5860 234 c0 -34 4 -53 10 -49 6 3 10 24 10 46 0 36 2 40 23 37 17
-2 23 -11 25 -38 5 -54 22 -61 22 -9 0 54 -13 69 -57 69 l-33 0 0 -56z"/>
<path d="M6107 283 c-15 -15 -5 -22 23 -16 41 8 39 -14 -2 -25 -26 -6 -33 -14
-33 -33 0 -21 4 -24 40 -24 39 1 40 2 43 39 2 20 -2 44 -9 52 -12 14 -51 19
-62 7z m51 -65 c-5 -15 -48 -24 -48 -10 0 14 12 22 33 22 10 0 17 -5 15 -12z"/>
<path d="M6201 278 c-1 -10 6 -36 15 -58 16 -38 15 -42 -2 -62 -18 -20 -18
-20 -1 -17 18 4 67 104 67 136 0 24 -18 4 -25 -27 -9 -40 -19 -38 -38 8 -8 20
-15 29 -16 20z"/>
<path d="M6497 283 c-14 -14 -6 -19 23 -15 40 6 38 -13 -2 -24 -61 -18 -46
-72 16 -60 29 6 36 11 36 31 0 44 -18 75 -43 75 -13 0 -27 -3 -30 -7z m51 -65
c-5 -15 -48 -24 -48 -10 0 14 12 22 33 22 10 0 17 -5 15 -12z"/>
<path d="M6590 233 c1 -44 3 -54 11 -41 5 10 9 24 8 30 -5 37 2 49 24 46 18
-2 23 -10 25 -46 4 -47 22 -48 22 -1 0 49 -16 69 -55 69 l-35 0 0 -57z"/>
<path d="M6837 283 c-15 -14 -6 -23 12 -13 14 7 22 7 27 -1 8 -13 -5 -26 -31
-31 -14 -2 -20 -11 -20 -28 0 -23 4 -25 40 -24 l40 0 -1 43 c-1 24 -8 47 -15
52 -17 10 -43 12 -52 2z m47 -68 c-6 -16 -44 -21 -44 -7 0 14 12 22 31 22 12
0 16 -5 13 -15z"/>
<path d="M6987 283 c-14 -13 -6 -23 11 -15 18 10 42 5 42 -8 0 -5 -13 -11 -29
-15 -66 -14 -61 -67 5 -62 32 2 34 4 34 39 0 20 -3 43 -6 52 -6 16 -45 22 -57
9z m51 -65 c-5 -15 -58 -24 -58 -10 0 15 12 22 38 22 14 0 22 -5 20 -12z"/>
<path d="M7126 275 c-17 -18 -19 -28 -10 -62 7 -25 34 -37 64 -28 30 10 24 20
-12 20 -30 0 -33 3 -33 30 0 27 3 30 33 30 17 0 31 4 29 10 -6 17 -54 17 -71
0z"/>
<path d="M7236 274 c-34 -33 -9 -94 38 -94 31 0 46 18 46 55 0 17 -5 36 -12
43 -17 17 -54 15 -72 -4z m67 -18 c3 -8 3 -24 0 -36 -4 -16 -12 -20 -32 -18
-26 3 -38 26 -27 54 7 18 52 18 59 0z"/>
<path d="M7342 240 c0 -28 4 -53 9 -56 5 -3 9 15 9 40 0 42 2 46 25 46 23 0
25 -4 25 -40 0 -22 5 -40 10 -40 6 0 10 18 10 41 0 36 2 40 23 37 18 -2 23
-11 28 -48 4 -35 7 -41 14 -26 4 10 4 35 -1 55 l-9 36 -72 2 -72 3 1 -50z"/>
</g>
</svg>
