<?xml version="1.0" standalone="no"?>
<!DOCTYPE svg PUBLIC "-//W3C//DTD SVG 20010904//EN"
 "http://www.w3.org/TR/2001/REC-SVG-20010904/DTD/svg10.dtd">
<svg version="1.0" xmlns="http://www.w3.org/2000/svg"
 width="816.000000pt" height="1056.000000pt" viewBox="0 0 816.000000 1056.000000"
 preserveAspectRatio="xMidYMid meet">
<metadata>
Created by potrace 1.16, written by Peter Selinger 2001-2019
</metadata>
<g transform="translate(0.000000,1056.000000) scale(0.100000,-0.100000)"
fill="#000000" stroke="none">
<path d="M225 10318 c-3 -7 -4 -2283 -3 -5058 l3 -5045 2613 0 c1436 0 2612 3
2612 8 0 4 -1172 7 -2605 7 l-2605 0 0 5035 c0 4021 3 5035 13 5035 6 0 1732
1 3835 3 l3822 2 0 -5031 0 -5032 -22 -6 c-13 -3 -83 -6 -155 -6 -82 0 -133
-4 -133 -10 0 -6 61 -10 164 -10 140 0 165 2 170 16 3 9 6 2283 6 5054 0 4585
-1 5038 -16 5044 -9 3 -1743 6 -3855 6 -3063 0 -3841 -3 -3844 -12z"/>
<path d="M2269 8390 c-54 -29 -100 -88 -133 -171 -27 -70 -29 -85 -37 -304 -4
-126 -15 -275 -24 -329 -8 -55 -15 -111 -15 -126 0 -17 -11 -37 -32 -57 -134
-123 -288 -353 -357 -530 -27 -69 -71 -244 -71 -281 0 -57 -55 -137 -241 -352
-31 -36 -63 -74 -72 -85 -38 -49 -87 -116 -87 -120 0 -2 -13 -24 -30 -48 -16
-25 -30 -50 -30 -56 0 -6 -4 -11 -9 -11 -5 0 -12 -13 -16 -30 -4 -16 -11 -32
-16 -35 -5 -4 -75 34 -156 83 -175 104 -224 126 -270 117 -67 -12 -143 -107
-143 -177 0 -64 56 -106 308 -232 109 -55 190 -101 187 -107 -4 -5 -10 -58
-13 -117 l-7 -107 -205 0 c-188 0 -208 -2 -244 -21 -58 -30 -79 -64 -84 -132
-4 -54 -2 -62 24 -90 40 -44 109 -59 322 -72 232 -14 222 -12 222 -59 0 -58
47 -253 87 -361 43 -115 113 -248 171 -323 22 -29 169 -176 205 -205 30 -25
153 -94 229 -130 36 -16 52 -31 63 -58 21 -52 20 -57 -27 -92 -190 -139 -279
-357 -233 -569 16 -77 57 -175 82 -201 7 -7 13 -16 13 -20 1 -17 95 -106 151
-142 111 -71 157 -84 304 -85 134 0 138 1 257 53 l58 25 45 -51 c112 -124 300
-213 490 -231 40 -4 69 -11 68 -17 -38 -208 -19 -311 69 -374 50 -36 89 -48
306 -96 208 -45 365 -55 461 -29 57 15 161 70 161 85 0 4 8 15 18 26 41 45
108 230 133 367 l12 66 46 6 c25 3 62 8 82 11 21 3 39 2 41 -3 3 -4 -3 -48
-14 -98 -24 -115 -34 -297 -19 -351 39 -145 159 -194 512 -210 118 -6 159 -4
222 10 120 27 153 59 229 219 20 42 122 488 137 597 l6 45 60 17 c227 64 374
162 485 323 19 28 37 52 40 55 7 7 43 81 73 150 24 55 54 135 97 260 30 88 52
110 107 110 54 0 129 -37 272 -132 143 -97 176 -110 275 -111 97 0 147 12 209
54 58 38 130 138 146 201 48 200 -54 442 -254 595 -60 46 -173 82 -305 96
l-114 13 47 27 c117 69 271 220 363 356 60 89 134 264 134 316 0 32 3 32 235
45 243 14 249 15 296 60 35 33 39 42 39 86 0 109 -41 134 -216 134 -66 0 -168
3 -227 6 l-105 7 -4 66 c-2 36 -6 73 -8 81 -5 15 63 53 245 137 178 82 225
122 225 186 0 33 -7 46 -40 79 -38 38 -43 40 -88 36 -33 -3 -100 -31 -228 -95
-100 -50 -186 -88 -191 -84 -10 7 -93 177 -93 192 0 5 -3 9 -8 9 -4 0 -16 17
-27 38 -11 20 -22 39 -25 42 -3 3 -18 23 -33 46 -15 22 -35 49 -45 60 -9 11
-34 40 -55 66 -21 26 -44 53 -50 60 -37 38 -128 160 -152 203 -26 46 -28 62
-35 200 -8 164 -15 190 -92 340 -42 83 -85 141 -174 234 l-52 54 -6 84 c-4 46
-4 87 -1 93 7 11 -7 204 -34 475 -19 198 -32 246 -80 289 -16 15 -31 18 -74
14 -43 -3 -69 -14 -127 -51 -73 -47 -95 -64 -229 -175 -66 -55 -144 -112 -199
-147 -9 -5 -22 -15 -29 -22 -17 -15 -79 -33 -115 -33 -15 0 -51 9 -80 19 -75
27 -102 32 -438 86 -460 72 -976 80 -1439 20 -172 -22 -228 -4 -496 160 -82
51 -168 101 -190 112 -127 64 -256 80 -326 43z m175 -35 c32 -8 88 -30 124
-47 63 -30 221 -124 232 -137 6 -7 37 -24 166 -90 l90 -47 -80 -28 c-45 -15
-104 -37 -133 -48 l-52 -21 -108 53 c-124 61 -172 70 -223 42 -56 -30 -71 -73
-72 -200 0 -60 -3 -113 -6 -119 -4 -5 -24 -21 -45 -35 -20 -14 -69 -54 -109
-89 -87 -78 -118 -102 -123 -98 -2 2 3 31 11 64 8 35 18 161 24 302 10 252 16
301 49 374 24 54 46 80 96 113 43 30 77 32 159 11z m3538 -29 c30 -22 48 -82
58 -189 6 -56 17 -172 25 -257 15 -151 21 -400 10 -400 -3 0 -38 28 -78 63
-40 34 -87 73 -106 87 -33 25 -33 26 -41 136 -5 61 -15 127 -23 147 -29 67
-86 75 -165 22 -28 -20 -75 -49 -104 -66 l-51 -30 -89 37 c-48 20 -88 38 -88
39 0 2 17 13 38 25 44 26 215 154 257 192 17 16 35 28 40 28 6 0 15 8 22 19
14 23 126 103 190 136 54 28 80 30 105 11z m-1657 -271 c110 -8 270 -26 355
-40 85 -14 189 -30 230 -36 101 -15 288 -63 380 -99 233 -90 550 -246 550
-272 0 -4 5 -8 11 -8 6 0 16 -6 24 -12 7 -7 23 -21 36 -32 122 -97 286 -255
329 -316 13 -19 27 -37 30 -40 17 -16 85 -156 113 -230 15 -41 21 -89 25 -190
3 -97 9 -145 22 -175 15 -34 120 -190 139 -205 17 -14 125 -145 177 -215 50
-68 184 -312 184 -334 0 -4 -11 -14 -25 -21 -13 -7 -31 -27 -39 -45 -14 -29
-14 -37 -1 -76 17 -49 65 -89 108 -89 33 0 35 -3 43 -83 l7 -67 -29 0 c-87 0
-131 -116 -84 -224 14 -33 29 -51 55 -63 20 -10 35 -24 35 -34 0 -32 -90 -253
-109 -269 -3 -3 -15 -20 -25 -39 -27 -49 -49 -74 -156 -182 -179 -181 -401
-296 -730 -379 -185 -47 -589 -121 -821 -150 -134 -17 -284 -37 -334 -45 -49
-8 -160 -21 -245 -30 -85 -9 -195 -23 -245 -30 -49 -8 -169 -24 -265 -35 -96
-11 -301 -38 -455 -60 -719 -101 -1005 -123 -1278 -101 -408 34 -703 147 -908
351 -179 177 -282 396 -339 720 -14 77 -13 79 18 86 43 10 88 41 101 71 21 47
26 164 8 199 -17 32 -67 54 -125 54 -29 0 -31 3 -38 45 -6 41 -3 69 12 148 5
25 10 28 33 24 57 -11 129 47 152 122 16 55 0 91 -62 133 -27 18 -49 37 -49
41 0 17 33 86 73 147 37 59 123 177 137 190 14 13 130 150 161 190 18 25 37
47 40 50 15 14 67 100 81 135 9 22 21 76 28 120 18 123 65 250 135 370 32 55
105 167 114 175 4 3 19 23 35 45 40 55 223 235 326 321 72 60 262 194 275 194
2 0 26 13 52 28 26 15 64 34 83 42 19 8 37 16 40 19 10 11 156 74 252 107 53
19 141 43 195 53 89 17 344 47 468 54 144 9 514 5 690 -8z m-1653 -84 l99 -48
-38 -18 c-97 -44 -222 -111 -268 -141 -27 -19 -54 -34 -58 -34 -5 0 -8 49 -6
108 5 121 18 153 72 178 44 19 84 10 199 -45z m3120 -38 c8 -10 20 -39 27 -65
12 -52 15 -192 4 -186 -5 2 -68 34 -140 71 -122 61 -156 87 -119 87 8 0 36 17
63 39 91 71 137 86 165 54z m-5027 -1947 c28 -12 104 -56 170 -96 66 -40 145
-89 176 -107 32 -19 70 -48 85 -64 l29 -30 -25 -45 c-30 -57 -60 -78 -100 -70
-26 5 -300 137 -426 206 -67 36 -95 65 -96 99 -2 54 64 131 111 131 14 0 49
-11 76 -24z m6695 -8 c26 -43 25 -54 -4 -81 -50 -46 -467 -241 -495 -232 -25
8 -61 56 -61 82 0 29 22 45 160 113 69 34 165 82 214 106 112 56 157 59 186
12z m67 -574 c30 -8 48 -56 37 -96 -18 -63 -35 -67 -303 -84 -264 -17 -288
-14 -310 32 -15 34 -14 137 2 153 10 11 65 12 282 7 149 -3 280 -9 292 -12z
m-6360 -156 c20 -21 21 -124 1 -166 -26 -54 -45 -57 -264 -43 -269 17 -342 28
-372 58 -21 21 -23 31 -18 65 4 22 13 50 22 62 29 42 63 46 346 43 236 -2 270
-4 285 -19z m5590 -892 c141 -40 293 -195 347 -357 59 -177 44 -278 -59 -385
-48 -50 -71 -65 -114 -78 -126 -37 -213 -16 -361 85 -58 39 -136 88 -175 107
-60 31 -80 35 -138 35 l-68 0 5 36 c3 20 8 79 11 131 7 107 31 296 46 352 8
33 16 39 82 68 l72 31 150 -5 c84 -3 173 -12 202 -20z m-562 -118 c-3 -29 -10
-75 -15 -103 -5 -27 -14 -117 -20 -200 -5 -82 -14 -177 -20 -210 -26 -145
-146 -453 -199 -513 -9 -9 -23 -30 -31 -46 -22 -44 -119 -141 -173 -176 -107
-67 -140 -80 -497 -193 -283 -90 -369 -107 -620 -127 -190 -15 -538 -48 -645
-61 -133 -17 -937 -24 -1054 -9 -148 19 -254 59 -357 135 -48 36 -124 113
-124 126 0 4 25 32 55 63 64 67 92 113 132 225 31 87 23 272 -17 366 -5 11
-14 35 -22 53 -7 17 -16 32 -20 32 -5 0 -8 4 -8 10 0 13 -23 41 -87 106 -29
29 -53 56 -53 59 0 3 31 5 69 5 56 0 70 -3 76 -17 4 -10 20 -55 36 -99 62
-179 258 -649 266 -641 4 5 -127 393 -157 462 -40 91 -107 281 -102 287 4 4
67 10 140 14 l132 7 0 -34 c0 -35 35 -154 65 -224 10 -22 33 -73 51 -113 19
-40 34 -75 34 -78 0 -2 18 -44 41 -92 22 -48 49 -109 60 -137 19 -49 39 -86
39 -74 0 4 -20 62 -45 130 -25 68 -45 128 -45 132 0 5 -7 23 -15 40 -28 62
-132 343 -144 390 -6 26 -9 52 -7 56 3 4 45 11 93 14 77 6 223 25 321 42 l32
6 0 -54 c0 -96 111 -481 171 -589 5 -10 9 -24 9 -32 0 -8 4 -17 9 -20 10 -7 5
19 -38 169 -87 307 -114 430 -109 495 l3 35 85 12 c47 7 137 20 200 28 63 8
124 17 135 20 19 4 20 0 17 -79 -4 -83 32 -323 63 -426 8 -25 19 -71 25 -103
17 -84 25 -62 11 30 -47 328 -63 478 -56 528 8 64 -23 54 270 90 109 14 202
21 206 17 21 -24 56 -268 66 -467 9 -187 21 -132 22 107 1 146 -17 293 -44
361 -4 9 -3 17 1 17 8 0 277 31 405 46 57 6 57 6 63 -22 23 -114 55 -470 57
-644 1 -89 2 -92 10 -45 17 91 13 459 -5 568 -9 53 -21 109 -26 122 -8 22 -6
27 13 34 24 9 346 51 393 51 l29 0 -6 -102 c-4 -57 -17 -157 -29 -223 -24
-138 -70 -435 -69 -450 2 -25 20 54 89 378 31 147 53 319 48 377 l-3 34 80 12
c44 7 112 20 150 28 39 9 76 16 84 16 23 0 7 -186 -38 -455 -23 -132 -40 -249
-40 -260 0 -11 16 48 35 130 19 83 50 214 70 292 28 114 35 159 33 225 l-2 83
109 22 c60 12 115 22 122 23 23 0 14 -166 -18 -337 -55 -285 -81 -438 -77
-458 4 -23 0 -37 47 165 17 74 38 162 46 195 49 196 65 291 61 383 l-2 63 65
24 c100 36 103 35 95 -27z m-4276 -384 c2 -2 -9 -8 -25 -14 -23 -9 -31 -8 -41
6 -18 25 -7 34 30 22 17 -6 34 -12 36 -14z m258 -54 c140 -20 155 -25 218 -74
138 -106 205 -244 205 -422 0 -81 -4 -106 -30 -173 -58 -151 -157 -249 -308
-308 -58 -23 -81 -27 -177 -26 -126 0 -190 19 -285 83 -356 242 -286 774 121
920 68 24 93 24 256 0z m3179 -1037 c-3 -10 -13 -56 -21 -103 -9 -47 -39 -177
-67 -290 -64 -262 -92 -317 -178 -361 -39 -20 -63 -24 -175 -27 -150 -5 -347
11 -422 33 -60 18 -102 50 -135 103 -20 33 -23 49 -23 142 1 59 8 138 17 180
9 41 20 94 23 118 4 24 12 45 18 47 7 2 100 11 207 20 276 22 309 27 535 91
28 7 82 25 120 39 85 30 108 32 101 8z m-1244 -188 c10 -10 -62 -277 -92 -340
-91 -194 -280 -216 -780 -93 -160 39 -203 82 -208 207 -1 42 3 103 10 136 l13
60 315 -2 c289 -3 445 5 726 36 6 0 13 -1 16 -4z"/>
<path d="M4597 7925 c-41 -28 -52 -57 -44 -114 6 -51 48 -113 186 -280 20 -24
43 -54 51 -65 22 -33 93 -101 117 -114 60 -32 152 15 170 86 7 27 -11 94 -35
131 -48 74 -214 284 -262 331 -57 57 -122 66 -183 25z m157 -63 c39 -38 157
-186 234 -294 50 -71 56 -121 20 -155 -52 -48 -97 -28 -178 77 -19 25 -37 47
-40 50 -3 3 -30 37 -61 75 -134 170 -149 197 -129 245 13 32 52 51 90 44 14
-3 42 -22 64 -42z"/>
<path d="M3845 7909 c-32 -18 -144 -98 -165 -119 -3 -3 -31 -24 -62 -48 -134
-102 -174 -170 -148 -255 14 -49 69 -106 102 -108 83 -4 139 33 337 224 116
112 141 147 141 201 0 48 -17 76 -64 105 -43 27 -91 27 -141 0z m128 -39 c33
-26 43 -70 24 -107 -25 -48 -232 -243 -326 -306 -76 -52 -106 -48 -149 21 -39
66 -2 133 128 232 25 19 47 37 50 40 15 17 139 107 169 122 46 23 72 23 104
-2z"/>
<path d="M4250 7792 c-41 -22 -70 -72 -70 -121 0 -45 27 -274 46 -390 25 -154
66 -208 149 -198 88 9 146 83 146 185 0 31 -4 86 -10 122 -5 36 -18 115 -27
175 -26 172 -73 245 -158 245 -23 0 -57 -8 -76 -18z m131 -48 c25 -22 49 -108
65 -234 8 -63 19 -133 24 -155 16 -67 12 -124 -11 -165 -24 -42 -54 -60 -103
-60 -59 0 -85 77 -112 339 -20 197 -19 247 6 269 40 34 97 36 131 6z"/>
<path d="M2472 6205 c-106 -30 -197 -99 -264 -203 -181 -276 -86 -607 185
-646 154 -23 343 101 430 281 67 139 68 317 3 427 -72 122 -216 180 -354 141z
m206 -59 c73 -37 110 -86 138 -182 16 -57 16 -173 -1 -217 -7 -15 -9 -16 -19
-2 -6 8 -26 18 -44 21 -30 6 -38 1 -115 -76 -100 -97 -97 -96 -167 -117 -94
-28 -128 -60 -110 -107 5 -14 26 -34 47 -45 l38 -20 -37 -1 c-47 0 -122 32
-158 69 -67 67 -96 156 -87 274 7 95 26 148 82 235 43 66 60 79 48 35 -5 -16
-8 -50 -8 -76 0 -42 5 -53 33 -78 97 -87 272 34 272 188 0 57 -19 89 -64 109
-30 13 -29 13 37 14 52 0 78 -5 115 -24z m-142 -29 c80 -69 -23 -257 -140
-257 -13 0 -35 9 -50 21 -61 48 -9 202 84 246 40 19 77 15 106 -10z m232 -389
c16 -16 15 -69 0 -99 -37 -69 -110 -146 -168 -176 -19 -10 -37 -21 -40 -24
-22 -26 -131 -10 -165 25 -37 37 -9 68 87 97 67 19 78 27 155 105 82 82 107
96 131 72z"/>
<path d="M5925 6081 c-72 -20 -185 -85 -185 -106 0 -28 20 -24 102 20 76 41
89 45 156 45 78 0 122 -14 185 -57 27 -19 41 -23 48 -16 15 15 -39 65 -99 94
-51 24 -156 34 -207 20z"/>
<path d="M4157 5925 c-122 -25 -180 -73 -163 -138 11 -44 106 -80 269 -102
l48 -6 -7 -52 c-13 -115 -42 -170 -105 -202 -92 -48 -223 26 -244 138 -7 38
-32 57 -41 32 -14 -36 16 -115 62 -162 36 -37 110 -73 152 -73 73 0 154 53
184 121 7 16 15 29 18 29 3 -1 20 -24 38 -53 19 -29 47 -63 64 -76 32 -26 96
-37 151 -27 68 13 149 126 151 211 1 58 -26 54 -40 -6 -21 -85 -66 -143 -125
-160 -48 -15 -80 -6 -124 33 -47 41 -78 109 -83 185 l-4 61 48 7 c140 18 215
48 239 95 34 67 -35 122 -184 146 -105 17 -214 17 -304 -1z m361 -56 c95 -32
115 -61 63 -92 -98 -58 -376 -62 -496 -7 -71 32 -68 57 10 91 92 41 312 45
423 8z"/>
<path d="M6930 265 c0 -49 3 -86 6 -82 3 3 6 40 6 82 0 42 -3 79 -6 82 -3 4
-6 -33 -6 -82z"/>
<path d="M5566 333 c-10 -11 -7 -143 4 -143 6 0 10 23 10 50 0 28 3 50 8 50 4
0 16 -16 26 -35 11 -19 22 -35 25 -35 3 0 17 17 31 37 l25 37 3 -52 c2 -29 7
-52 13 -52 12 0 12 137 -1 145 -5 3 -22 -14 -37 -39 -15 -26 -30 -46 -34 -46
-3 0 -15 18 -28 40 -24 43 -35 53 -45 43z"/>
<path d="M6307 333 c-11 -10 -8 -141 2 -148 6 -3 11 19 13 52 l3 58 23 -37
c13 -21 27 -38 30 -38 4 0 18 17 32 38 l25 37 3 -58 c2 -33 7 -55 13 -52 12 8
12 142 0 149 -5 4 -22 -14 -38 -39 -15 -25 -30 -45 -33 -45 -3 1 -19 21 -36
45 -17 25 -33 42 -37 38z"/>
<path d="M6060 310 c0 -15 -7 -20 -29 -20 -35 0 -61 -23 -61 -54 0 -31 30 -56
67 -56 l31 0 4 75 c2 41 0 75 -4 75 -5 0 -8 -9 -8 -20z m-7 -54 c3 -8 3 -24 0
-36 -4 -16 -12 -20 -32 -18 -26 3 -38 26 -27 54 7 18 52 18 59 0z"/>
<path d="M6778 308 c-2 -18 -9 -22 -29 -20 -30 4 -51 -18 -51 -53 0 -39 20
-56 61 -53 l36 3 3 73 c2 42 -1 72 -7 72 -5 0 -11 -10 -13 -22z m-3 -49 c4 -5
4 -21 1 -35 -5 -17 -13 -24 -30 -24 -26 0 -40 23 -31 51 7 21 49 26 60 8z"/>
<path d="M5752 278 c-16 -16 -15 -66 2 -84 18 -17 58 -18 74 -2 7 7 12 26 12
43 0 38 -16 55 -50 55 -14 0 -31 -5 -38 -12z m71 -30 c14 -22 -7 -48 -39 -48
-20 0 -24 5 -24 28 0 16 3 32 7 36 12 11 45 2 56 -16z"/>
<path d="M5860 234 c0 -34 4 -53 10 -49 6 3 10 24 10 46 0 36 2 40 23 37 17
-2 23 -11 25 -38 5 -54 22 -61 22 -9 0 54 -13 69 -57 69 l-33 0 0 -56z"/>
<path d="M6107 283 c-15 -15 -5 -22 23 -16 41 8 39 -14 -2 -25 -26 -6 -33 -14
-33 -33 0 -21 4 -24 40 -24 39 1 40 2 43 39 2 20 -2 44 -9 52 -12 14 -51 19
-62 7z m51 -65 c-5 -15 -48 -24 -48 -10 0 14 12 22 33 22 10 0 17 -5 15 -12z"/>
<path d="M6201 278 c-1 -10 6 -36 15 -58 15 -38 15 -42 -1 -60 -16 -18 -16
-20 -2 -20 10 0 25 19 37 48 26 58 37 108 22 98 -6 -3 -13 -20 -17 -36 -9 -40
-19 -38 -38 8 -8 20 -15 29 -16 20z"/>
<path d="M6497 283 c-14 -14 -6 -19 23 -15 40 6 38 -13 -2 -24 -61 -18 -46
-72 16 -60 29 6 36 11 36 31 0 44 -18 75 -43 75 -13 0 -27 -3 -30 -7z m51 -65
c-5 -15 -48 -24 -48 -10 0 14 12 22 33 22 10 0 17 -5 15 -12z"/>
<path d="M6590 233 c1 -44 3 -54 11 -41 5 10 9 24 8 30 -5 37 2 49 24 46 18
-2 23 -10 25 -46 4 -47 22 -48 22 -1 0 49 -16 69 -55 69 l-35 0 0 -57z"/>
<path d="M6837 283 c-15 -14 -6 -23 12 -13 14 7 22 7 27 -1 8 -13 -5 -26 -31
-31 -14 -2 -20 -11 -20 -28 0 -22 4 -25 37 -25 21 -1 39 4 42 10 7 20 -4 79
-17 87 -15 10 -41 10 -50 1z m51 -65 c-5 -15 -48 -24 -48 -10 0 14 12 22 33
22 10 0 17 -5 15 -12z"/>
<path d="M6987 283 c-14 -13 -6 -23 11 -15 18 10 42 5 42 -8 0 -5 -13 -11 -29
-15 -66 -14 -61 -67 5 -62 32 2 34 4 34 39 0 20 -3 43 -6 52 -6 16 -45 22 -57
9z m51 -65 c-5 -15 -58 -24 -58 -10 0 15 12 22 38 22 14 0 22 -5 20 -12z"/>
<path d="M7126 275 c-17 -18 -19 -28 -10 -62 7 -25 34 -37 64 -28 31 10 24 23
-12 21 -30 -1 -33 2 -33 29 0 27 3 30 33 30 17 0 31 4 29 10 -6 17 -54 17 -71
0z"/>
<path d="M7236 274 c-34 -33 -9 -94 38 -94 31 0 46 18 46 55 0 17 -5 36 -12
43 -17 17 -54 15 -72 -4z m67 -18 c3 -8 3 -24 0 -36 -4 -16 -12 -20 -32 -18
-26 3 -38 26 -27 54 7 18 52 18 59 0z"/>
<path d="M7342 240 c0 -28 4 -53 9 -56 5 -3 9 16 9 41 0 42 2 46 23 43 18 -2
23 -10 25 -40 4 -51 22 -48 22 3 0 36 2 40 23 37 18 -2 23 -11 28 -48 4 -35 7
-41 14 -26 4 10 4 35 -1 55 l-9 36 -72 2 -72 3 1 -50z"/>
</g>
</svg>
