<?xml version="1.0" standalone="no"?>
<!DOCTYPE svg PUBLIC "-//W3C//DTD SVG 20010904//EN"
 "http://www.w3.org/TR/2001/REC-SVG-20010904/DTD/svg10.dtd">
<svg version="1.0" xmlns="http://www.w3.org/2000/svg"
 width="816.000000pt" height="1056.000000pt" viewBox="0 0 816.000000 1056.000000"
 preserveAspectRatio="xMidYMid meet">
<metadata>
Created by potrace 1.16, written by Peter Selinger 2001-2019
</metadata>
<g transform="translate(0.000000,1056.000000) scale(0.100000,-0.100000)"
fill="#000000" stroke="none">
<path d="M225 10318 c-3 -7 -4 -2283 -3 -5058 l3 -5045 2613 0 c1436 0 2612 3
2612 8 0 4 -1172 7 -2605 7 l-2605 0 0 2244 0 2244 42 36 c57 49 106 50 153 3
48 -48 67 -171 33 -214 -5 -7 -7 -17 -3 -23 8 -13 35 6 35 25 0 22 48 45 93
45 38 0 50 -6 86 -40 36 -35 41 -45 41 -86 0 -55 22 -57 31 -3 7 46 13 54 53
73 64 30 121 17 168 -39 14 -16 17 -17 18 -4 0 27 -38 67 -76 79 -45 15 -88 7
-137 -26 l-39 -26 -29 35 c-16 19 -47 42 -69 51 -37 15 -56 15 -111 0 -13 -4
-17 7 -22 51 -7 67 -31 112 -77 142 -44 30 -93 29 -147 -2 l-43 -26 0 620 0
621 23 14 c34 22 66 28 101 22 26 -5 40 -19 77 -75 51 -78 87 -107 158 -126
64 -17 113 -45 127 -73 12 -25 24 -19 24 13 0 12 13 36 28 53 22 25 37 32 65
32 50 0 54 -22 26 -162 -31 -157 -32 -396 0 -550 34 -172 119 -376 181 -438
30 -30 110 -131 110 -138 0 -6 -16 -61 -35 -122 -20 -65 -35 -132 -35 -161 0
-86 72 -195 154 -232 44 -21 169 -37 296 -39 65 -2 94 2 125 17 74 35 192 118
215 152 18 26 27 32 44 27 11 -4 120 -8 241 -9 258 -2 289 -9 447 -101 31 -18
89 -44 129 -59 68 -24 80 -26 188 -20 109 6 120 5 191 -20 41 -15 87 -29 103
-32 39 -7 41 -18 9 -45 -35 -29 -78 -115 -93 -188 -13 -61 -7 -255 11 -380 20
-139 75 -241 197 -370 123 -132 161 -143 463 -141 442 3 533 25 673 167 43 44
115 166 129 220 l5 21 137 -28 c177 -36 385 -53 556 -45 133 6 361 36 430 56
66 19 70 17 70 -51 0 -69 23 -169 48 -208 25 -39 51 -59 112 -89 66 -31 102
-32 508 -14 282 12 437 30 507 58 81 33 91 40 155 104 143 144 200 349 154
553 -18 79 -68 186 -110 236 -14 17 -24 34 -21 37 3 3 33 -13 67 -36 51 -34
67 -41 102 -38 47 3 64 23 55 60 -7 26 -15 32 -329 233 -115 74 -111 68 -87
133 11 28 25 27 214 -19 300 -74 355 -78 368 -27 7 24 -5 59 -24 75 -15 12
-366 98 -442 109 -26 3 -49 9 -52 13 -2 4 0 25 6 47 51 212 49 464 -5 686 -17
73 -11 78 87 88 43 4 90 16 116 29 54 28 107 30 126 5 13 -18 14 -17 15 11 0
69 43 154 88 174 50 23 108 10 144 -33 17 -20 24 -13 19 18 -1 5 3 49 8 98 12
108 35 148 85 148 41 0 113 -45 154 -97 l32 -41 0 -2635 0 -2635 -22 -6 c-13
-3 -83 -6 -155 -6 -84 0 -133 -4 -133 -10 0 -7 58 -10 168 -8 l167 3 3 5049
c2 4033 0 5051 -10 5058 -7 4 -1742 8 -3856 8 -3065 0 -3844 -3 -3847 -12z
m7683 -317 l-3 -303 -53 -20 c-32 -12 -72 -38 -102 -68 l-51 -49 -35 39 c-82
91 -214 121 -326 75 -14 -5 -18 -2 -18 14 0 81 -157 237 -280 277 -114 37
-284 -5 -355 -89 -49 -58 -67 -118 -56 -189 6 -31 14 -66 20 -76 10 -18 6 -20
-74 -24 -70 -4 -94 -10 -150 -38 -108 -55 -171 -141 -162 -220 l6 -47 -87 -6
c-119 -8 -248 -61 -378 -153 -137 -98 -184 -201 -150 -333 16 -64 53 -126 103
-173 63 -60 202 -98 362 -98 47 0 52 -2 46 -17 -40 -93 -22 -199 46 -277 52
-58 148 -125 207 -142 79 -24 202 -13 224 20 4 6 8 -14 8 -44 0 -164 188 -236
314 -120 l42 39 35 -52 c103 -154 371 -182 531 -56 165 130 238 332 178 491
-11 29 -20 56 -20 61 0 4 17 7 38 7 21 0 61 11 88 25 27 14 50 25 52 25 1 0 2
-660 2 -1467 l0 -1467 -47 46 c-85 82 -139 97 -192 52 -33 -28 -46 -63 -56
-161 l-7 -63 -28 15 c-83 43 -180 -14 -210 -123 -10 -41 -12 -42 -52 -42 -23
0 -62 -10 -87 -22 -25 -12 -77 -27 -116 -34 -38 -6 -77 -13 -85 -15 -23 -6
-31 81 -34 391 -4 318 -18 462 -68 675 -39 168 -98 296 -164 354 -42 37 -52
41 -100 41 -29 0 -66 -5 -81 -12 -28 -12 -114 -66 -123 -78 -3 -3 -34 -28 -70
-55 -36 -27 -69 -53 -75 -57 -14 -12 -141 -108 -184 -140 -45 -34 -78 -35
-144 -4 -53 24 -168 71 -245 100 -188 71 -498 126 -708 126 -52 0 -94 2 -94 5
0 3 29 39 64 79 94 107 107 172 48 229 -53 51 -144 71 -374 84 -100 5 -124 3
-156 -11 -48 -22 -72 -61 -72 -119 0 -74 52 -119 168 -147 l52 -12 -37 -30
c-66 -53 -69 -53 -111 -11 -21 21 -74 83 -116 138 -207 266 -237 298 -306 332
-20 10 -57 18 -86 17 -77 0 -143 -47 -206 -147 -17 -26 -32 -46 -35 -44 -2 3
1 34 8 69 22 117 -4 168 -86 168 -60 0 -279 -110 -306 -154 -27 -45 -24 -82
10 -117 33 -33 55 -35 124 -14 57 17 57 15 23 -76 -21 -56 -27 -64 -48 -61
-12 1 -90 6 -173 11 -103 7 -174 16 -225 31 -67 20 -101 23 -325 25 -261 3
-287 6 -450 50 -92 25 -110 26 -235 21 -74 -3 -174 -9 -222 -12 -101 -7 -119
-2 -220 63 -135 87 -255 207 -341 342 -16 24 -34 49 -40 56 -7 7 -34 40 -62
73 -99 118 -216 185 -325 186 -64 1 -160 -21 -160 -36 0 -4 -6 -8 -13 -8 -22
0 -85 -72 -108 -125 -48 -107 -34 -325 31 -463 99 -212 322 -427 515 -497 28
-10 52 -20 54 -21 3 -3 -54 -81 -69 -94 -23 -21 -170 -295 -170 -317 0 -18
-50 -128 -58 -131 -6 -2 -13 2 -17 7 -3 6 -24 11 -45 11 -34 0 -44 -6 -76 -45
-33 -39 -40 -43 -53 -31 -21 18 -77 43 -127 55 -56 15 -86 41 -122 103 -16 29
-39 61 -50 72 -27 24 -87 25 -131 3 -19 -9 -36 -17 -38 -17 -1 0 -3 960 -3
2134 0 1991 1 2135 17 2138 9 2 1735 3 3835 3 l3818 0 -2 -304z m-823 -73
c110 -57 225 -192 225 -265 l0 -22 43 19 c49 23 125 25 179 6 47 -17 108 -66
139 -111 25 -36 49 -46 49 -20 0 25 86 104 136 125 25 11 48 20 50 20 2 0 4
-260 4 -578 l0 -579 -22 -20 c-33 -29 -102 -53 -153 -53 -33 0 -45 -4 -45 -14
0 -8 4 -18 10 -21 15 -9 50 -133 50 -179 0 -141 -115 -314 -258 -387 -42 -21
-60 -24 -162 -24 -105 0 -119 3 -167 27 -57 31 -111 89 -128 139 -15 44 -30
47 -49 10 -42 -81 -166 -118 -240 -72 -50 32 -76 78 -76 139 0 28 -4 54 -10
57 -5 3 -28 -4 -51 -16 -61 -30 -154 -24 -233 16 -73 37 -165 125 -194 186
-34 70 -28 151 15 193 13 13 20 26 16 29 -4 2 -48 5 -98 6 -117 2 -218 17
-258 37 -100 52 -155 113 -183 202 -43 142 24 264 201 369 122 73 215 104 326
110 94 6 98 7 87 26 -18 34 -4 110 28 155 64 90 172 137 295 130 43 -3 79 -1
79 3 0 4 -11 31 -25 61 -14 29 -25 67 -25 83 0 93 64 178 165 221 82 34 205
31 280 -8z m-6086 -2440 c76 -36 155 -110 249 -235 63 -84 76 -110 45 -99 -59
23 -196 13 -268 -19 -16 -7 -41 -16 -55 -20 -46 -11 -156 -101 -191 -155 l-33
-52 -24 29 c-79 96 -100 143 -109 248 -16 198 88 334 256 335 51 0 76 -6 130
-32z m281 -343 c19 -4 46 -15 60 -25 24 -18 23 -18 -75 -13 -90 5 -106 3 -168
-20 -37 -15 -87 -40 -111 -56 -48 -33 -107 -108 -131 -165 l-16 -37 -30 22
c-17 12 -33 28 -36 35 -16 43 93 161 193 208 65 31 216 67 254 61 14 -3 41 -7
60 -10z m2472 -61 c15 -31 -2 -139 -37 -246 -14 -40 -25 -79 -25 -85 0 -19 39
-16 105 7 75 26 91 25 110 -4 27 -41 5 -68 -94 -114 -160 -75 -190 -86 -242
-83 -51 2 -44 84 21 251 39 103 34 111 -55 82 -36 -12 -72 -22 -80 -22 -21 0
-55 40 -55 65 0 32 33 58 154 119 128 65 179 73 198 30z m-2428 0 c96 -25 90
-34 -22 -33 -56 0 -119 -5 -140 -12 -92 -30 -201 -137 -234 -230 -7 -19 -15
-28 -24 -25 -42 18 -47 16 -22 -6 22 -19 27 -33 30 -81 1 -31 0 -57 -3 -57 -3
0 -18 13 -34 30 -26 27 -27 33 -23 93 7 82 35 144 95 208 66 72 183 124 287
128 15 1 56 -6 90 -15z m2764 -54 c49 -26 72 -45 72 -59 0 -6 4 -11 9 -11 8 0
113 -129 221 -270 26 -34 29 -38 93 -111 l38 -43 -31 -27 c-17 -15 -50 -31
-73 -34 -38 -7 -43 -5 -70 26 -16 19 -47 61 -70 94 -88 129 -162 161 -244 108
-33 -22 -59 -76 -143 -299 -40 -104 -79 -195 -89 -202 -9 -7 -23 -18 -31 -25
-8 -7 -31 -23 -50 -37 -37 -26 -91 -72 -121 -104 -11 -11 -21 -17 -24 -14 -8
8 23 160 72 352 l47 178 65 30 c165 73 186 90 185 151 -2 61 -31 81 -107 72
l-59 -7 37 68 c89 166 174 217 273 164z m-2671 -8 c17 -9 62 -42 100 -72 67
-55 112 -86 186 -130 21 -12 37 -23 35 -25 -2 -1 -32 -15 -68 -31 -72 -31
-223 -121 -228 -135 -5 -14 -113 -11 -189 6 -146 31 -313 104 -313 136 0 64
106 195 190 236 65 31 66 31 165 32 68 1 98 -3 122 -17z m-696 -110 c20 -23
26 -62 9 -62 -5 0 -10 7 -10 15 0 8 -4 15 -8 15 -7 0 -52 83 -52 97 0 3 9 -5
21 -18 11 -13 29 -34 40 -47z m4039 -27 c215 -19 280 -45 280 -110 0 -54 -98
-168 -245 -284 -44 -34 -83 -69 -87 -76 -12 -20 10 -32 131 -68 63 -19 118
-41 123 -48 14 -21 2 -89 -19 -105 -26 -21 -174 -11 -346 24 -158 33 -190 50
-195 104 -3 30 4 42 52 91 30 30 101 90 158 133 122 92 128 98 128 118 0 16
-35 29 -128 47 -70 13 -122 53 -122 92 1 48 48 96 95 96 11 0 90 -6 175 -14z
m-3957 -51 c29 -23 32 -29 28 -71 l-3 -46 -39 44 c-36 41 -48 76 -32 92 9 10
11 9 46 -19z m1429 -24 c16 0 27 -4 24 -8 -3 -5 -51 -12 -107 -16 -125 -8
-272 -37 -357 -70 -209 -82 -449 -275 -567 -456 -152 -234 -248 -572 -247
-880 0 -263 68 -497 183 -628 23 -26 28 -39 23 -60 -10 -40 -12 -40 -47 -1
-111 121 -156 212 -214 429 -20 78 -26 127 -30 270 -5 161 -3 185 21 305 29
148 70 265 145 413 79 157 121 213 271 362 130 130 270 222 430 283 119 45
267 69 384 61 32 -2 72 -4 88 -4z m198 -50 c25 -5 103 -12 173 -16 70 -4 124
-10 120 -14 -4 -3 -42 -19 -83 -35 -187 -70 -335 -168 -480 -316 -71 -73 -177
-214 -209 -279 -10 -19 -32 -62 -48 -95 -80 -157 -164 -459 -183 -659 -21
-221 2 -364 89 -557 39 -87 108 -208 131 -229 3 -3 24 -30 48 -61 54 -72 147
-161 192 -184 55 -29 19 -28 -77 0 -132 40 -131 39 -139 82 -10 59 -37 102
-110 181 -52 57 -64 76 -53 82 11 7 9 17 -11 57 -20 40 -25 44 -28 26 -2 -12
2 -32 8 -43 6 -12 10 -24 8 -26 -6 -5 -104 98 -148 156 -92 119 -160 170 -230
170 -59 0 -114 -41 -148 -112 -17 -35 -37 -78 -43 -97 l-13 -34 -31 36 c-67
77 -131 250 -156 417 -15 104 -7 334 16 450 44 226 124 435 228 597 127 198
412 404 642 463 165 43 425 62 535 40z m-1335 -98 c82 -28 169 -49 238 -57
l57 -7 -74 -73 -74 -74 -46 14 c-108 33 -228 109 -255 162 -6 12 -11 43 -11
68 l0 46 53 -29 c28 -16 79 -39 112 -50z m2001 53 c76 -20 129 -27 229 -29 72
-1 143 -8 159 -14 24 -11 27 -16 22 -40 -4 -15 -16 -33 -26 -41 -28 -19 -25
-34 5 -27 37 9 30 -9 -12 -35 -100 -60 -199 -142 -313 -257 -69 -70 -139 -145
-155 -167 -16 -22 -33 -42 -36 -45 -18 -15 -124 -184 -164 -260 -46 -91 -105
-255 -124 -352 -17 -84 -41 -363 -41 -473 1 -94 10 -190 25 -260 6 -28 4 -31
-28 -43 -32 -12 -57 -45 -57 -78 0 -29 47 -64 85 -64 45 0 75 -15 75 -38 0
-10 27 -64 60 -122 56 -96 60 -106 44 -117 -10 -7 -22 -13 -27 -13 -18 0 -67
-60 -67 -81 0 -11 5 -29 10 -40 14 -25 -3 -25 -58 1 -22 11 -45 20 -51 20 -5
0 -11 3 -13 8 -10 23 -166 86 -271 108 -73 15 -101 29 -91 46 6 9 -32 48 -48
48 -5 0 -4 -9 2 -20 17 -32 -4 -24 -67 26 -175 140 -309 337 -387 567 -66 194
-57 471 25 754 52 179 98 289 192 456 7 12 39 58 71 102 163 221 351 358 638
465 92 34 114 38 199 39 73 1 120 -5 195 -24z m1062 -51 c33 -23 165 -205 155
-213 -4 -4 -48 -22 -98 -40 -98 -37 -219 -92 -277 -128 -20 -12 -39 -19 -42
-14 -3 4 8 43 25 87 17 43 34 90 39 104 24 73 72 175 91 196 27 28 74 32 107
8z m2582 -81 c30 -27 92 -146 116 -220 58 -189 94 -481 94 -764 0 -109 -3
-199 -7 -199 -5 0 -21 26 -38 58 -16 31 -32 59 -35 62 -4 3 -9 12 -13 20 -10
22 -28 50 -59 91 -41 54 -47 77 -58 227 -16 219 -35 310 -82 393 -19 35 -71
69 -104 69 -24 0 -70 -27 -122 -73 -131 -114 -127 -113 -229 -52 -91 55 -92
56 -75 62 7 3 18 10 25 17 16 16 325 253 383 294 81 57 152 62 204 15z m-3105
-77 c-31 -105 -96 -378 -106 -443 -13 -89 -27 -118 -102 -212 -130 -164 -222
-360 -279 -590 -29 -116 -32 -435 -5 -550 9 -41 15 -77 12 -79 -2 -2 -46 1
-97 8 -172 22 -323 39 -344 40 -17 0 -23 10 -33 53 -22 94 -25 299 -7 502 23
257 53 369 147 553 142 274 376 537 618 693 69 45 77 47 138 46 60 0 64 -2 58
-21z m1635 -31 c278 -38 507 -109 755 -233 50 -25 100 -50 112 -56 13 -6 23
-14 23 -18 0 -5 5 -8 10 -8 10 0 144 -90 205 -137 109 -85 219 -194 295 -293
19 -24 40 -50 47 -58 7 -7 20 -26 30 -42 9 -17 21 -30 25 -30 4 0 8 -5 8 -11
0 -6 9 -23 19 -37 44 -63 124 -236 160 -347 52 -158 71 -279 71 -439 0 -195
-32 -360 -104 -533 -46 -111 -149 -283 -170 -283 -6 0 -46 -15 -88 -34 -43
-19 -78 -32 -78 -29 0 3 20 27 44 54 276 307 362 785 217 1206 -17 49 -49 126
-71 171 -37 76 -116 210 -130 222 -4 3 -17 21 -31 41 -54 80 -224 259 -314
329 -22 17 -49 38 -59 47 -47 39 -221 145 -312 191 -306 153 -662 242 -972
242 -101 0 -182 13 -182 28 1 4 20 21 43 39 l42 32 150 0 c83 0 197 -6 255
-14z m-894 -80 c-8 -9 -18 -31 -22 -50 -6 -32 -11 -36 -73 -56 -82 -27 -275
-119 -339 -161 -304 -203 -504 -480 -578 -803 -15 -63 -19 -119 -19 -270 1
-175 3 -199 28 -295 77 -291 214 -527 437 -750 52 -52 116 -111 142 -130 26
-19 48 -38 48 -42 1 -31 -261 33 -290 71 -13 17 -119 89 -163 111 -42 21 -61
40 -109 110 -189 278 -276 571 -265 895 6 195 44 353 123 520 29 61 103 190
125 220 5 5 29 37 55 70 131 168 338 332 566 447 85 43 303 127 331 128 17 0
17 -2 3 -15z m696 -85 c-3 -56 9 -80 32 -61 10 9 16 30 16 57 0 43 1 44 33 43
17 0 64 -6 102 -12 69 -13 70 -13 68 -42 -2 -45 6 -75 21 -75 14 0 26 29 26
68 0 27 -7 27 98 1 117 -29 117 -29 113 -82 -4 -71 28 -71 44 1 3 17 8 32 10
32 14 0 153 -59 241 -103 668 -331 1056 -919 1003 -1521 -19 -216 -79 -380
-211 -572 -53 -78 -180 -214 -200 -214 -256 -10 -324 -18 -388 -47 -97 -45
-176 -130 -220 -237 l-22 -52 -62 -13 c-136 -27 -166 -31 -276 -41 -241 -23
-564 15 -819 95 -81 26 -87 30 -170 114 -98 100 -139 120 -281 140 -101 14
-136 31 -232 110 -136 110 -269 250 -347 363 -20 29 -39 55 -43 56 -5 2 -8 9
-8 15 0 6 -6 18 -14 26 -27 31 -104 197 -140 301 -53 159 -69 275 -62 455 5
150 15 207 56 329 100 302 372 593 687 737 49 22 95 43 103 47 8 5 41 17 72
27 l58 19 20 -22 c11 -12 34 -29 50 -37 34 -18 234 -58 367 -74 131 -16 176
-1 208 66 21 44 14 97 -15 123 -30 26 -25 31 33 28 l52 -3 -3 -45z m1513 -42
c37 -17 70 -97 88 -213 17 -108 30 -275 22 -275 -3 0 -40 35 -82 79 -94 95
-237 222 -286 253 -6 4 -9 8 -7 10 3 2 21 12 40 22 19 11 41 26 49 34 21 21
114 88 131 95 8 3 16 6 17 6 1 1 14 -4 28 -11z m-5111 -1337 c30 -20 60 -52
105 -111 27 -36 60 -73 133 -151 179 -189 213 -240 205 -301 -8 -61 -81 -163
-148 -209 -66 -44 -75 -47 -84 -20 -14 44 -132 52 -184 13 -20 -15 -25 -27
-23 -51 l2 -32 -52 6 c-126 14 -145 18 -173 35 -66 41 -98 83 -115 152 -11 44
-8 68 24 173 23 77 43 153 60 235 24 109 73 225 108 255 37 31 100 34 142 6z
m1376 -311 c41 -4 127 -14 192 -20 64 -7 121 -16 126 -19 5 -3 13 -21 17 -40
7 -32 6 -33 -16 -28 -13 3 -93 13 -178 22 -84 9 -176 20 -203 25 -28 6 -67 10
-87 10 -45 0 -77 21 -68 44 7 18 88 21 217 6z m-33 -110 c26 -5 117 -17 201
-25 153 -16 202 -26 202 -44 0 -9 -185 -103 -291 -149 l-45 -19 -42 63 c-66
98 -102 184 -77 184 2 0 26 -4 52 -10z m433 -140 c6 -11 8 -25 4 -31 -4 -7
-50 -32 -103 -56 -53 -25 -145 -69 -205 -99 -121 -60 -146 -66 -146 -31 0 16
13 30 45 50 25 15 48 27 52 27 10 0 146 64 238 112 50 25 93 47 97 47 4 1 12
-8 18 -19z m-1100 -107 c8 -7 -198 0 -212 8 -8 5 -7 14 5 32 l16 25 93 -30
c51 -16 95 -32 98 -35z m4962 52 c40 -8 109 -23 153 -34 44 -11 100 -24 125
-30 112 -27 142 -43 105 -58 -9 -3 -77 9 -153 27 -75 18 -180 41 -232 52 -97
19 -117 28 -106 47 9 14 20 14 108 -4z m-3796 -77 c28 -56 102 -168 119 -180
15 -11 -4 -23 -62 -37 -60 -14 -119 -6 -230 33 -40 15 -81 26 -91 26 -22 0
-59 25 -72 50 -9 18 -4 23 51 47 34 16 99 46 143 69 45 23 89 42 98 43 12 1
26 -16 44 -51z m-1665 -97 l24 -20 -22 -22 c-47 -47 -192 -21 -152 27 31 38
113 46 150 15z m1317 -23 c26 -26 12 -35 -55 -37 -74 -2 -75 0 -17 29 46 23
56 24 72 8z m4100 -83 c35 -22 107 -68 160 -102 53 -35 100 -63 104 -63 5 0 8
-7 8 -15 0 -8 -8 -15 -19 -15 -10 0 -24 7 -31 15 -7 8 -16 15 -21 15 -8 0
-104 65 -144 97 -5 5 -51 37 -102 73 -51 36 -92 69 -93 73 0 8 28 -7 138 -78z
m-158 -10 c7 -8 41 -35 75 -60 170 -121 253 -260 280 -470 15 -122 -60 -320
-159 -416 -64 -62 -131 -94 -237 -114 -86 -16 -521 -39 -734 -40 -108 0 -124
3 -163 24 -55 30 -89 81 -104 156 -9 48 -9 60 2 63 7 3 28 19 47 36 46 43 66
130 39 171 -16 24 -22 27 -56 21 -35 -5 -37 -4 -33 18 4 22 9 24 39 19 42 -7
68 13 95 72 25 54 24 103 -2 131 l-20 21 41 36 c67 57 133 75 305 82 159 7
179 12 320 79 88 42 137 56 200 56 l50 1 -23 19 c-12 10 -27 20 -34 22 -12 4
36 88 51 88 5 0 14 -7 21 -15z m-3345 -70 c22 -13 66 -43 98 -68 32 -24 81
-52 109 -62 l51 -18 -45 -23 c-48 -24 -122 -98 -115 -117 7 -23 27 -17 69 24
91 89 200 107 410 69 l123 -23 47 -51 c39 -42 48 -47 54 -33 3 9 4 24 0 32
-24 64 157 -90 185 -157 10 -25 8 -30 -25 -58 -20 -18 -36 -39 -36 -48 0 -12
-5 -9 -17 8 -22 33 -33 40 -64 40 -56 0 -109 -68 -109 -141 0 -80 78 -107 138
-48 17 17 34 40 38 51 6 19 6 19 21 -2 13 -18 22 -21 48 -17 18 3 35 3 38 1 3
-3 -2 -23 -11 -45 -10 -27 -19 -36 -26 -29 -18 18 -86 11 -143 -16 -65 -31
-171 -131 -196 -186 -9 -20 -17 -54 -17 -76 l0 -40 -62 -7 c-35 -3 -175 -7
-313 -8 l-250 -2 -55 26 c-133 63 -281 260 -309 411 -18 101 -25 358 -11 419
24 107 78 171 177 209 60 24 141 18 198 -15z m2423 -372 c4 -36 -32 -119 -55
-127 -19 -8 -43 11 -43 33 0 20 34 95 52 116 21 23 43 13 46 -22z m-1333 -83
c109 -42 335 -85 529 -101 168 -15 382 -2 545 31 52 11 96 18 96 17 1 -1 -3
-31 -9 -66 l-11 -65 -70 -18 c-278 -70 -649 -75 -962 -12 -67 13 -124 24 -127
24 -2 0 -7 38 -11 85 -4 47 -11 88 -16 91 -5 3 -7 10 -4 15 8 11 8 11 40 -1z
m-70 -74 c10 -61 4 -79 -28 -90 -22 -8 -30 -7 -38 4 -16 24 -3 93 21 112 32
26 38 23 45 -26z m-134 -7 c15 -28 4 -78 -24 -111 -31 -37 -61 -44 -86 -19
-33 33 -25 77 22 129 27 29 72 29 88 1z m1487 -92 c4 -47 -30 -123 -59 -130
-27 -7 -33 12 -25 81 10 91 77 130 84 49z m-1402 -112 c9 -24 -53 -126 -112
-182 -60 -57 -128 -94 -177 -97 -29 -1 -32 2 -35 31 -9 88 179 263 281 263 24
0 40 -5 43 -15z"/>
<path d="M3600 10053 c-43 -22 -59 -38 -77 -73 -12 -25 -23 -63 -24 -85 -2
-22 -4 -43 -6 -47 -2 -3 -27 6 -56 20 -48 25 -62 27 -172 27 -113 0 -123 -2
-180 -30 -112 -57 -185 -150 -185 -239 0 -83 44 -141 137 -182 60 -27 78 -51
87 -116 12 -81 88 -173 183 -220 58 -28 69 -30 142 -26 65 4 87 10 120 31 l40
27 11 -41 c21 -77 143 -182 226 -195 66 -10 108 2 166 49 l53 42 125 0 c123 0
126 0 188 34 83 45 180 149 206 220 14 39 17 70 14 121 -6 86 -35 140 -108
198 -70 57 -72 62 -60 114 28 124 4 214 -81 300 -64 64 -125 91 -211 91 -57 0
-74 -4 -109 -27 -22 -15 -49 -42 -60 -61 l-20 -34 -40 39 c-54 52 -122 83
-194 87 -51 4 -68 0 -115 -24z m193 -9 c29 -10 69 -37 104 -70 32 -30 58 -54
59 -54 0 0 9 18 19 40 37 82 145 119 247 84 76 -27 170 -123 194 -197 16 -51
16 -58 0 -130 -10 -43 -15 -86 -11 -96 3 -11 32 -39 65 -62 32 -24 65 -55 74
-70 23 -39 47 -138 40 -168 -11 -51 -36 -121 -42 -121 -4 0 -18 -16 -31 -36
-32 -47 -124 -116 -185 -138 -41 -16 -65 -17 -150 -12 l-102 7 -68 -50 c-57
-42 -76 -51 -111 -51 -68 0 -129 27 -188 83 -43 42 -57 63 -67 105 -8 28 -17
52 -21 52 -4 0 -33 -13 -64 -30 -46 -24 -69 -30 -122 -30 -135 0 -263 105
-292 238 -16 75 -25 89 -79 113 -102 46 -142 94 -142 173 0 116 121 229 274
257 97 18 222 -9 301 -66 20 -14 21 -13 21 54 0 58 4 75 27 110 50 76 146 101
250 65z"/>
<path d="M873 9805 c-42 -18 -68 -70 -59 -118 9 -46 50 -81 116 -98 27 -7 50
-16 50 -20 0 -3 -30 -29 -67 -57 -96 -70 -183 -164 -183 -196 0 -67 35 -95
160 -124 138 -32 293 -47 330 -32 35 14 60 55 60 97 -1 50 -35 76 -145 108
l-60 17 35 26 c19 14 74 65 121 112 102 101 123 145 94 199 -24 48 -81 68
-236 86 -162 18 -175 18 -216 0z m242 -39 c159 -22 207 -55 177 -121 -17 -38
-129 -151 -203 -206 -38 -28 -69 -57 -69 -65 0 -8 33 -23 88 -40 111 -33 132
-46 132 -84 0 -53 -23 -64 -120 -57 -79 6 -249 36 -295 53 -99 36 -64 106 128
251 91 69 114 99 85 107 -7 2 -44 11 -82 20 -83 19 -106 37 -106 82 0 75 59
88 265 60z"/>
<path d="M2523 8990 c-45 -9 -70 -17 -240 -79 -128 -46 -158 -60 -193 -93 -39
-36 -50 -63 -50 -120 0 -57 18 -87 74 -123 33 -22 125 -24 195 -6 23 7 45 10
48 7 3 -2 -21 -53 -52 -113 -66 -127 -125 -280 -125 -327 0 -39 35 -95 70
-113 56 -29 216 -2 471 78 118 38 167 64 196 108 48 71 18 170 -60 200 -34 13
-51 12 -148 -3 -61 -10 -112 -16 -114 -14 -1 1 13 35 32 73 75 149 123 303
123 391 0 52 -4 67 -26 93 -39 46 -104 60 -201 41z m119 -50 c21 -6 42 -19 48
-30 32 -60 -15 -231 -125 -451 -25 -50 -45 -97 -45 -104 0 -22 30 -33 64 -24
17 4 78 15 135 23 90 13 107 13 131 1 48 -25 49 -110 1 -144 -56 -40 -442
-151 -523 -151 -46 0 -80 20 -91 53 -13 41 23 143 116 326 107 209 103 226
-38 187 -32 -9 -85 -16 -116 -16 -52 0 -60 3 -83 31 -35 42 -35 89 2 128 29
31 124 73 302 134 152 51 163 53 222 37z"/>
<path d="M3788 7945 c-35 -19 -48 -44 -48 -90 0 -47 23 -80 76 -111 24 -14 44
-30 44 -34 0 -4 -31 -17 -69 -29 -102 -31 -197 -79 -227 -114 -58 -69 -4 -130
210 -238 123 -61 146 -70 181 -65 49 6 85 46 85 94 0 37 -41 83 -104 117 -20
11 -36 24 -36 30 0 5 18 16 41 23 53 17 121 48 192 91 130 76 112 169 -46 245
-197 94 -250 109 -299 81z m166 -59 c194 -80 254 -129 226 -182 -8 -13 -23
-30 -34 -37 -59 -39 -144 -81 -218 -108 -46 -17 -87 -34 -91 -38 -10 -10 26
-46 68 -68 16 -9 35 -22 43 -29 7 -7 22 -20 34 -28 45 -32 15 -95 -45 -96 -46
0 -313 139 -344 179 -18 23 -16 55 5 74 28 25 110 63 212 97 135 45 144 57 70
97 -87 46 -118 84 -104 127 18 55 65 58 178 12z"/>
<path d="M4684 7674 c-99 -20 -177 -55 -192 -87 -27 -57 7 -97 84 -97 30 0 54
-2 54 -5 0 -3 -10 -22 -23 -43 -61 -98 -79 -161 -54 -193 20 -26 52 -28 144
-9 167 35 203 53 203 104 -1 46 -26 61 -94 59 l-64 -2 28 57 c16 31 36 81 46
111 15 48 16 57 3 80 -19 33 -59 41 -135 25z m100 -20 c10 -4 16 -18 16 -35 0
-35 -41 -140 -76 -192 -13 -21 -22 -42 -18 -48 3 -6 31 -8 75 -3 76 7 101 -3
92 -37 -3 -11 -15 -27 -27 -34 -24 -16 -191 -55 -235 -55 -64 0 -62 50 9 165
21 34 41 72 45 84 7 23 6 23 -53 16 -69 -8 -102 4 -102 38 0 34 10 43 75 66
100 35 167 47 199 35z"/>
<path d="M2560 6705 c0 -13 4 -14 20 -5 11 6 20 13 20 15 0 3 -9 5 -20 5 -11
0 -20 -7 -20 -15z"/>
<path d="M2418 6657 c-41 -24 -54 -45 -39 -60 6 -6 27 6 58 36 51 50 42 61
-19 24z"/>
<path d="M2206 6511 c-16 -17 -25 -34 -21 -41 7 -12 24 2 64 53 24 30 -12 21
-43 -12z"/>
<path d="M2085 6382 c-57 -49 -93 -112 -62 -112 10 0 84 94 95 122 6 14 -12 8
-33 -10z"/>
<path d="M1910 6156 c-31 -46 -37 -70 -20 -81 8 -5 70 101 70 120 0 17 -23 -1
-50 -39z"/>
<path d="M1791 5909 c-23 -57 -26 -75 -11 -84 11 -7 36 48 46 100 9 52 -10 43
-35 -16z"/>
<path d="M1715 5685 c-24 -56 -32 -119 -14 -113 13 4 43 123 35 143 -2 5 -12
-8 -21 -30z"/>
<path d="M1660 5370 c0 -40 4 -70 10 -70 6 0 10 30 10 70 0 40 -4 70 -10 70
-6 0 -10 -30 -10 -70z"/>
<path d="M1662 5123 c3 -51 28 -75 28 -26 0 39 -10 73 -22 73 -5 0 -8 -21 -6
-47z"/>
<path d="M1690 4957 c0 -41 28 -103 41 -90 7 7 5 24 -7 54 -22 58 -34 70 -34
36z"/>
<path d="M2785 6695 c-19 -15 -19 -15 10 -13 17 2 29 7 28 13 -3 16 -18 16
-38 0z"/>
<path d="M2594 6616 c-10 -8 -16 -17 -13 -21 8 -7 59 15 59 27 0 13 -24 10
-46 -6z"/>
<path d="M2430 6530 c-14 -11 -20 -20 -13 -20 18 0 63 22 63 32 0 14 -24 8
-50 -12z"/>
<path d="M3336 6497 c-43 -34 -15 -45 29 -11 19 14 35 28 35 30 0 12 -39 0
-64 -19z"/>
<path d="M2269 6419 c-16 -17 -29 -38 -29 -46 0 -19 13 -10 50 37 37 47 21 54
-21 9z"/>
<path d="M3218 6405 c-27 -23 -36 -45 -20 -45 10 0 62 53 62 63 0 13 -15 7
-42 -18z"/>
<path d="M3081 6284 c-29 -24 -41 -54 -23 -54 10 0 72 63 72 73 0 14 -19 7
-49 -19z"/>
<path d="M2095 6224 c-17 -28 -23 -50 -18 -55 6 -6 20 9 36 40 29 53 32 61 18
61 -5 0 -21 -21 -36 -46z"/>
<path d="M2954 6132 c-41 -50 -46 -60 -35 -67 10 -5 81 80 81 96 0 18 -16 8
-46 -29z"/>
<path d="M1968 6028 c-24 -39 -51 -108 -45 -114 12 -12 25 7 46 67 24 64 23
85 -1 47z"/>
<path d="M2818 5939 c-20 -35 -23 -49 -8 -49 10 0 40 52 40 70 0 19 -15 10
-32 -21z"/>
<path d="M2727 5765 c-18 -38 -22 -65 -9 -65 10 0 42 65 42 85 0 26 -16 16
-33 -20z"/>
<path d="M1857 5733 c-15 -26 -38 -116 -33 -129 11 -27 23 -5 36 61 11 59 10
90 -3 68z"/>
<path d="M2651 5543 c-15 -51 -14 -86 1 -81 15 5 26 40 27 86 1 44 -16 41 -28
-5z"/>
<path d="M1776 5394 c-9 -25 -7 -114 3 -114 5 0 11 27 13 61 3 60 -4 84 -16
53z"/>
<path d="M2618 5355 c-13 -21 -21 -135 -9 -135 6 0 14 6 17 14 7 19 0 133 -8
121z"/>
<path d="M1769 5136 c-9 -10 7 -120 18 -123 9 -3 11 9 6 49 -6 53 -15 82 -24
74z"/>
<path d="M2592 5117 c-14 -34 -16 -123 -2 -132 16 -10 21 17 18 91 -3 65 -4
67 -16 41z"/>
<path d="M1820 4897 c0 -23 35 -97 46 -97 8 0 14 2 14 5 0 13 -45 95 -52 95
-4 0 -8 -1 -8 -3z"/>
<path d="M2590 4831 c0 -50 17 -98 30 -85 11 11 -9 124 -22 124 -4 0 -8 -18
-8 -39z"/>
<path d="M1920 4677 c0 -20 53 -97 67 -97 18 0 16 25 -3 41 -8 7 -22 25 -30
41 -15 29 -34 38 -34 15z"/>
<path d="M2670 4491 c0 -16 38 -99 48 -105 22 -13 19 11 -6 62 -23 47 -42 67
-42 43z"/>
<path d="M2070 4482 c0 -13 47 -62 60 -62 17 0 12 15 -12 37 -31 27 -48 36
-48 25z"/>
<path d="M3508 6463 c-20 -5 -24 -23 -5 -23 17 0 41 17 31 22 -5 2 -17 3 -26
1z"/>
<path d="M3320 6330 c-23 -20 -30 -30 -19 -30 19 0 69 37 69 51 0 15 -13 10
-50 -21z"/>
<path d="M3148 6194 c-42 -50 -51 -78 -16 -48 50 43 68 64 68 79 0 24 -12 17
-52 -31z"/>
<path d="M2994 6018 c-48 -54 -65 -100 -44 -113 5 -3 21 18 34 48 13 30 29 58
35 61 13 8 15 26 3 26 -5 0 -17 -10 -28 -22z"/>
<path d="M3408 5919 c-24 -23 -28 -33 -19 -42 10 -9 18 -6 37 16 22 26 32 57
18 57 -3 0 -19 -14 -36 -31z"/>
<path d="M3290 5750 c-22 -43 -25 -60 -10 -60 10 0 33 39 44 78 12 37 -12 25
-34 -18z"/>
<path d="M2830 5699 c-12 -45 -5 -86 10 -59 4 8 11 34 15 58 9 55 -10 56 -25
1z"/>
<path d="M3179 5526 c-20 -45 -20 -84 0 -72 11 7 34 106 26 114 -2 3 -14 -16
-26 -42z"/>
<path d="M2745 5488 c-12 -83 -11 -103 5 -103 12 0 16 16 18 73 3 79 -13 100
-23 30z"/>
<path d="M3086 5283 c-5 -18 -9 -75 -7 -102 1 -10 4 -12 11 -5 14 14 25 124
12 124 -6 0 -13 -8 -16 -17z"/>
<path d="M2717 5223 c-11 -10 -8 -133 3 -133 6 0 10 30 10 70 0 70 -1 76 -13
63z"/>
<path d="M3066 5045 c-7 -20 5 -115 15 -115 12 0 12 117 0 124 -5 3 -11 -1
-15 -9z"/>
<path d="M2716 4931 c-12 -18 10 -141 25 -141 12 0 11 34 -5 100 -8 34 -15 49
-20 41z"/>
<path d="M3076 4841 c-9 -13 3 -79 15 -87 5 -3 9 12 9 33 0 43 -13 72 -24 54z"/>
<path d="M5067 6163 c-3 -5 -8 -38 -12 -75 -6 -63 -5 -68 13 -68 22 0 32 33
32 106 0 32 -4 44 -14 44 -8 0 -17 -3 -19 -7z"/>
<path d="M5314 6134 c-12 -48 -10 -137 3 -141 19 -7 33 40 33 108 0 45 -3 59
-15 59 -8 0 -18 -12 -21 -26z"/>
<path d="M5565 6078 c-12 -48 -10 -131 2 -135 18 -7 33 40 33 103 0 41 -4 54
-15 54 -8 0 -17 -10 -20 -22z"/>
<path d="M5036 5915 c-3 -8 -9 -52 -12 -96 -7 -76 -6 -81 12 -77 22 4 36 61
32 132 -3 49 -20 71 -32 41z"/>
<path d="M5297 5903 c-3 -5 -10 -36 -16 -69 -15 -79 -4 -113 27 -82 14 14 16
144 3 153 -5 3 -12 2 -14 -2z"/>
<path d="M5530 5764 c-10 -46 -9 -58 1 -65 24 -14 39 12 39 67 0 76 -24 74
-40 -2z"/>
<path d="M5261 5618 c-16 -51 -18 -140 -4 -145 19 -7 33 41 33 113 0 69 -12
83 -29 32z"/>
<path d="M4010 5113 c0 -5 7 -20 14 -35 51 -97 201 -190 340 -209 91 -14 154
-3 253 41 90 41 193 116 193 140 0 17 -35 11 -56 -9 -36 -33 -167 -100 -229
-116 -105 -27 -193 -16 -306 40 -60 29 -159 117 -159 141 0 8 -10 14 -25 14
-14 0 -25 -3 -25 -7z"/>
<path d="M5636 4923 c-31 -31 111 -193 216 -246 146 -72 384 -41 506 67 38 34
24 37 -35 7 -136 -68 -265 -91 -367 -66 -108 27 -150 56 -232 160 -58 72 -77
89 -88 78z"/>
<path d="M5035 4886 c-50 -22 -69 -50 -62 -93 7 -46 50 -85 122 -112 l50 -19
3 -53 c3 -70 -27 -133 -85 -173 -34 -24 -53 -29 -100 -30 -69 -1 -106 18 -146
75 -31 42 -47 43 -47 2 0 -36 66 -97 124 -114 l46 -13 0 -74 c0 -87 21 -137
77 -179 53 -41 139 -36 188 12 31 30 68 90 80 127 11 40 15 43 43 40 84 -9
199 64 172 108 -7 12 -14 10 -37 -12 -54 -51 -127 -62 -191 -29 -72 37 -103
106 -83 185 6 25 11 61 11 80 0 35 1 36 38 36 61 0 140 28 158 56 42 63 -22
143 -142 179 -60 18 -179 19 -219 1z m231 -47 c61 -23 104 -60 104 -89 0 -12
-13 -28 -32 -41 -28 -17 -45 -20 -113 -16 -92 5 -161 32 -200 79 -23 27 -24
33 -12 52 31 46 149 53 253 15z m-112 -432 c3 -13 26 -42 51 -66 25 -23 45
-47 45 -54 0 -28 -50 -115 -81 -141 -28 -24 -39 -27 -77 -23 -81 9 -127 99
-106 204 5 24 14 32 53 46 26 9 56 25 66 36 27 26 42 26 49 -2z"/>
<path d="M3950 4739 c-90 -41 -139 -112 -148 -216 -12 -154 98 -273 255 -273
81 0 136 24 188 82 50 55 68 101 67 175 -2 107 -80 218 -171 243 -59 16 -142
12 -191 -11z m228 -36 c28 -17 58 -48 77 -77 26 -43 30 -59 30 -121 0 -62 -4
-78 -30 -121 -106 -170 -353 -143 -420 45 -22 62 -19 115 11 176 25 54 53 81
122 117 55 28 148 20 210 -19z"/>
<path d="M4020 4700 c-11 -7 -12 -12 -4 -20 12 -12 64 6 64 22 0 11 -41 10
-60 -2z"/>
<path d="M4116 4671 c-8 -13 20 -33 40 -29 17 3 17 4 0 21 -19 19 -32 22 -40
8z"/>
<path d="M3937 4663 c-13 -12 -7 -23 13 -23 11 0 20 7 20 15 0 15 -21 21 -33
8z"/>
<path d="M3877 4603 c-12 -12 -7 -43 7 -43 13 0 26 20 26 41 0 10 -23 12 -33
2z"/>
<path d="M4212 4569 c1 -12 9 -24 16 -27 9 -3 13 3 10 19 -1 12 -9 24 -16 27
-9 3 -13 -3 -10 -19z"/>
<path d="M3867 4493 c-11 -10 -8 -41 4 -49 17 -10 32 12 24 35 -6 21 -16 26
-28 14z"/>
<path d="M4214 4455 c-7 -29 -1 -41 15 -30 14 8 14 55 1 55 -5 0 -12 -11 -16
-25z"/>
<path d="M3917 4403 c-4 -6 1 -20 10 -32 11 -16 18 -20 26 -12 8 8 5 17 -10
32 -11 12 -23 17 -26 12z"/>
<path d="M4135 4367 c-12 -10 -14 -16 -7 -21 15 -9 54 12 47 25 -8 12 -18 11
-40 -4z"/>
<path d="M4017 4343 c-15 -15 -5 -23 30 -23 22 0 33 4 28 9 -15 13 -50 22 -58
14z"/>
<path d="M6105 4409 c-93 -49 -137 -119 -138 -219 -1 -98 47 -173 138 -216 97
-46 204 -25 278 55 44 47 67 108 67 175 0 74 -72 174 -148 207 -60 26 -146 25
-197 -2z m166 -9 c41 -12 113 -70 133 -109 25 -47 29 -112 11 -166 -55 -163
-251 -207 -368 -81 -148 160 12 415 224 356z"/>
<path d="M6126 4347 c-28 -21 -16 -41 12 -22 22 16 30 35 14 35 -5 0 -16 -6
-26 -13z"/>
<path d="M6195 4350 c-4 -6 5 -10 19 -10 14 0 26 5 26 10 0 6 -9 10 -19 10
-11 0 -23 -4 -26 -10z"/>
<path d="M6276 4331 c-3 -5 5 -11 19 -13 17 -4 25 -1 25 8 0 15 -36 19 -44 5z"/>
<path d="M6067 4272 c-19 -20 -23 -42 -7 -42 12 0 32 38 28 51 -2 6 -11 2 -21
-9z"/>
<path d="M6360 4241 c0 -20 17 -37 27 -28 7 8 -7 47 -18 47 -5 0 -9 -9 -9 -19z"/>
<path d="M6025 4178 c-9 -23 2 -51 17 -46 18 6 20 22 4 43 -14 19 -15 19 -21
3z"/>
<path d="M6356 4144 c-11 -27 -7 -37 9 -24 16 14 20 40 6 40 -5 0 -12 -7 -15
-16z"/>
<path d="M6080 4081 c0 -13 28 -33 41 -29 8 3 6 9 -5 21 -19 18 -36 22 -36 8z"/>
<path d="M6275 4067 c-12 -10 -14 -16 -7 -21 13 -8 52 10 52 24 0 14 -23 12
-45 -3z"/>
<path d="M6176 4040 c-18 -6 -18 -7 -2 -13 25 -10 46 -9 46 2 0 13 -22 19 -44
11z"/>
<path d="M2820 4475 c0 -15 42 -85 50 -85 14 0 12 14 -7 55 -9 19 -23 35 -30
35 -7 0 -13 -2 -13 -5z"/>
<path d="M3042 4138 c18 -26 38 -35 38 -16 0 18 -20 38 -38 38 -12 0 -12 -3 0
-22z"/>
<path d="M6183 3740 c-28 -11 -30 -40 -4 -40 23 0 54 28 46 41 -7 11 -13 11
-42 -1z"/>
<path d="M6071 3697 c-14 -7 -26 -18 -29 -24 -6 -20 57 -17 65 3 9 24 -9 35
-36 21z"/>
<path d="M6197 3612 c-40 -41 -45 -52 -22 -52 33 0 95 50 95 77 0 25 -36 13
-73 -25z"/>
<path d="M6038 3493 c-21 -14 -38 -32 -38 -39 0 -17 -2 -17 51 1 43 16 59 29
59 53 0 19 -32 13 -72 -15z"/>
<path d="M4142 3723 c2 -5 14 -30 26 -56 23 -52 45 -58 50 -15 2 18 -6 33 -28
52 -30 25 -56 35 -48 19z"/>
<path d="M4390 3585 c0 -28 24 -65 42 -65 23 0 23 14 1 51 -18 31 -43 39 -43
14z"/>
<path d="M4240 3508 c0 -30 25 -78 40 -76 22 5 24 41 2 66 -21 24 -42 29 -42
10z"/>
<path d="M4185 3308 c-30 -18 -40 -30 -53 -66 -24 -68 9 -123 74 -125 31 -1
42 5 71 38 24 28 33 48 33 75 0 69 -67 111 -125 78z m76 -26 c28 -24 30 -73 2
-110 -22 -30 -42 -37 -78 -28 -49 12 -43 105 8 137 39 23 39 23 68 1z"/>
<path d="M1119 4005 c-25 -13 -59 -69 -59 -95 0 -8 -7 -9 -22 -3 -13 4 -49 8
-80 8 -46 0 -61 -4 -82 -24 -28 -26 -42 -76 -31 -110 12 -38 27 -23 20 19 -6
34 -3 43 18 64 32 32 64 40 118 29 34 -7 49 -16 64 -40 11 -18 26 -32 33 -33
16 0 15 2 -4 44 -20 40 -14 74 19 112 41 47 81 17 119 -89 l18 -52 -5 50 c-6
54 -37 108 -73 124 -27 13 -21 13 -53 -4z"/>
<path d="M2684 3661 c-73 -44 -99 -117 -91 -249 6 -87 5 -93 -11 -86 -61 28
-190 10 -240 -34 -28 -25 -62 -84 -62 -108 0 -21 -4 -22 -92 -21 -102 2 -171
-20 -208 -65 -36 -43 -34 -115 3 -139 5 -4 -7 -19 -26 -34 -45 -33 -73 -99
-58 -137 14 -38 51 -68 82 -68 42 0 44 18 5 34 -46 19 -60 47 -47 89 13 39 56
67 103 67 18 0 39 4 47 9 19 13 9 34 -19 38 -58 9 -91 81 -52 116 62 57 236
64 288 13 22 -22 63 -31 77 -16 9 9 3 19 -27 44 -34 29 -37 36 -31 64 8 39 39
78 73 96 64 32 169 25 221 -16 52 -40 71 -15 43 58 -45 115 -36 232 23 291
105 105 252 -47 256 -261 1 -34 4 -72 9 -86 l7 -25 12 28 c6 16 11 58 11 94 0
106 -29 189 -88 255 -60 67 -146 87 -208 49z"/>
<path d="M3118 2695 c-167 -46 -284 -129 -338 -240 -21 -43 -25 -64 -25 -150
0 -91 3 -106 31 -165 17 -36 46 -83 64 -103 l32 -37 -57 0 c-102 0 -246 -52
-345 -124 -115 -83 -175 -181 -174 -282 1 -102 61 -174 181 -215 59 -21 87
-24 210 -24 79 0 143 -3 143 -6 0 -4 -9 -18 -20 -32 -11 -14 -32 -56 -45 -92
-80 -213 -26 -396 142 -480 54 -28 66 -30 168 -30 105 0 114 2 177 33 111 54
190 149 239 285 13 37 26 67 29 67 3 0 16 -16 29 -35 22 -32 52 -62 107 -105
37 -28 112 -59 175 -70 80 -15 166 -5 249 28 199 79 274 316 149 473 -34 43
-124 116 -176 143 -45 22 -41 32 12 38 51 6 137 47 190 90 46 38 111 134 141
209 46 113 42 280 -9 369 -34 59 -62 87 -117 115 -120 61 -265 38 -418 -67
-44 -30 -62 -30 -62 1 0 44 -73 188 -135 265 -43 55 -140 121 -212 145 -87 29
-218 28 -335 -4z m379 -59 c64 -34 107 -71 164 -143 46 -57 118 -255 105 -288
-2 -7 1 -18 8 -25 11 -8 26 0 67 35 30 26 88 63 128 83 65 32 86 37 158 41 95
4 148 -16 200 -72 98 -108 89 -330 -21 -486 -72 -101 -145 -151 -252 -170 -58
-11 -76 -9 -186 15 -23 5 -28 3 -28 -14 0 -16 27 -34 133 -85 205 -100 282
-185 281 -313 -1 -153 -129 -272 -304 -282 -135 -8 -228 27 -316 117 -46 46
-84 108 -84 134 0 8 -7 20 -15 27 -21 18 -45 -4 -45 -42 0 -85 -70 -239 -140
-309 -76 -76 -143 -103 -260 -103 -76 -1 -104 3 -141 20 -63 29 -110 74 -139
131 -32 62 -35 191 -7 268 43 117 97 195 136 195 21 0 36 29 22 43 -6 6 -48 3
-113 -8 -184 -31 -364 -8 -439 57 -61 53 -77 154 -38 234 32 67 140 161 234
204 104 49 166 63 268 60 45 -2 90 -2 100 -1 26 2 20 29 -10 45 -54 30 -104
85 -135 152 -63 134 -36 291 65 379 106 93 268 146 432 141 94 -2 105 -5 172
-40z"/>
<path d="M3320 2296 c0 -3 9 -25 20 -48 10 -24 26 -65 34 -93 l14 -50 1 41 c1
44 -29 123 -54 144 -8 7 -15 10 -15 6z"/>
<path d="M3444 2258 c3 -13 6 -40 6 -60 0 -21 5 -38 10 -38 11 0 14 78 4 104
-9 25 -27 19 -20 -6z"/>
<path d="M3409 2020 c-152 -39 -274 -131 -333 -253 -69 -140 -26 -279 103
-333 90 -38 221 -25 335 33 66 33 175 144 206 208 36 74 35 184 -2 241 -28 43
-61 71 -113 93 -38 16 -150 23 -196 11z m198 -53 c41 -22 82 -62 94 -94 5 -13
9 -48 9 -77 0 -167 -212 -346 -410 -346 -137 0 -228 84 -218 203 11 134 124
257 288 315 76 27 184 26 237 -1z"/>
<path d="M3945 1974 c-44 -16 -81 -41 -74 -49 3 -2 22 4 43 14 20 11 59 22 86
26 28 4 47 11 44 16 -8 13 -53 10 -99 -7z"/>
<path d="M2770 1759 c0 -5 21 -9 46 -9 25 0 54 -5 65 -10 13 -8 19 -7 19 0 0
14 -13 18 -77 23 -29 2 -53 0 -53 -4z"/>
<path d="M2755 1673 c93 -7 126 -15 160 -39 31 -21 36 -22 33 -7 -6 33 -66 53
-153 51 -44 -1 -62 -3 -40 -5z"/>
<path d="M3285 1248 c-3 -18 -11 -46 -17 -61 -15 -38 -3 -46 15 -10 19 37 31
103 18 103 -5 0 -12 -15 -16 -32z"/>
<path d="M6549 2692 c-31 -32 -60 -100 -66 -154 l-5 -53 -71 35 c-58 29 -84
36 -146 38 -65 3 -83 0 -121 -20 -28 -15 -52 -38 -65 -62 -16 -29 -24 -35 -40
-30 -11 3 -56 8 -100 11 -115 6 -182 -27 -215 -106 -24 -60 24 -141 85 -141
13 0 10 8 -14 39 -59 74 -29 139 74 162 68 15 164 -3 205 -38 49 -40 85 -25
49 21 -13 17 -18 33 -14 46 11 33 56 68 96 75 76 13 201 -29 274 -91 16 -13
33 -23 39 -21 6 2 12 33 12 70 2 116 32 190 78 190 53 0 93 -89 105 -231 6
-76 26 -108 38 -62 7 26 40 40 93 40 34 0 41 -4 46 -26 7 -26 0 -96 -12 -127
-5 -13 -1 -17 19 -17 23 0 27 6 37 57 16 75 2 126 -42 149 -30 15 -80 15 -118
0 -13 -5 -18 7 -26 62 -13 78 -47 155 -83 183 -29 24 -90 24 -112 1z"/>
<path d="M1905 1315 c-5 -2 -22 -6 -36 -9 -34 -7 -59 -59 -59 -120 0 -25 -2
-46 -5 -46 -3 0 -17 7 -31 16 -33 22 -111 14 -151 -15 -39 -29 -71 -93 -80
-161 l-8 -54 -67 3 c-85 3 -138 -19 -195 -82 -39 -42 -43 -52 -43 -97 0 -43 5
-55 36 -90 33 -37 70 -51 87 -34 3 4 -15 26 -40 50 -41 40 -45 48 -40 79 7 45
59 100 113 121 63 24 124 15 169 -25 50 -43 72 -26 42 32 -21 40 -4 150 28
193 14 19 35 39 46 45 44 23 121 -18 155 -83 15 -28 38 -36 49 -18 3 5 -2 35
-11 66 -18 64 -12 155 12 175 43 35 129 -58 168 -181 14 -42 29 -109 35 -149
5 -40 12 -76 16 -79 16 -16 26 29 22 98 -8 115 -53 233 -116 303 -35 39 -78
66 -96 62z"/>
<path d="M7025 1262 c-45 -29 -61 -51 -81 -112 -9 -30 -19 -57 -21 -59 -2 -3
-13 5 -26 16 -125 115 -287 64 -287 -91 0 -28 5 -27 -76 -11 -75 16 -176 -28
-182 -79 -4 -32 22 -66 50 -66 23 0 23 18 1 42 -15 17 -15 20 0 35 33 33 217
24 247 -13 14 -16 46 -19 55 -4 3 5 -4 19 -16 31 -33 33 -37 115 -8 149 17 20
30 25 69 24 61 -1 123 -44 166 -117 20 -34 37 -52 50 -52 13 0 18 6 16 20 -14
94 -13 108 3 157 36 112 101 133 178 60 53 -50 93 -159 112 -304 13 -97 42
-37 32 66 -21 215 -171 379 -282 308z"/>
<path d="M6930 265 c0 -49 3 -86 6 -83 8 9 9 156 1 165 -4 3 -7 -33 -7 -82z"/>
<path d="M5566 333 c-10 -11 -7 -143 4 -143 6 0 10 23 10 50 0 28 3 50 8 50 4
0 16 -16 26 -35 11 -19 22 -35 25 -35 3 0 17 17 31 37 l25 37 3 -57 c2 -33 7
-55 13 -52 12 8 12 142 -1 150 -5 3 -22 -14 -37 -39 -15 -26 -30 -46 -34 -46
-3 0 -15 18 -28 40 -24 43 -35 53 -45 43z"/>
<path d="M6059 315 c-3 -26 -8 -30 -30 -27 -51 6 -79 -57 -41 -91 10 -10 32
-17 49 -17 l31 0 4 66 c3 70 -7 123 -13 69z m-7 -62 c8 -36 -3 -54 -31 -51
-26 3 -38 26 -27 54 8 20 54 18 58 -3z"/>
<path d="M6307 333 c-11 -10 -8 -141 2 -148 6 -3 11 19 13 52 l3 58 23 -37
c13 -21 27 -38 30 -38 4 0 18 17 32 38 l25 37 3 -58 c2 -33 7 -55 13 -52 12 8
12 142 0 149 -5 4 -22 -14 -38 -39 -15 -25 -30 -45 -33 -45 -3 1 -19 21 -36
45 -17 25 -33 42 -37 38z"/>
<path d="M6787 328 c-4 -10 -9 -24 -11 -32 -3 -8 -14 -12 -28 -9 -43 8 -69
-55 -38 -92 16 -19 79 -20 86 -2 8 22 0 154 -9 135z m-12 -77 c9 -28 -5 -51
-30 -51 -25 0 -39 23 -30 51 8 25 52 25 60 0z"/>
<path d="M5752 278 c-16 -16 -15 -66 2 -84 18 -17 58 -18 74 -2 7 7 12 26 12
43 0 38 -16 55 -50 55 -14 0 -31 -5 -38 -12z m67 -22 c18 -22 -3 -56 -34 -56
-21 0 -25 5 -25 28 0 16 3 32 7 35 11 12 40 8 52 -7z"/>
<path d="M5860 234 c0 -34 4 -53 10 -49 6 3 10 24 10 46 0 36 2 40 23 37 17
-2 23 -11 25 -38 5 -54 22 -61 22 -9 0 54 -13 69 -57 69 l-33 0 0 -56z"/>
<path d="M6107 283 c-15 -15 -5 -22 23 -16 19 3 30 1 30 -6 0 -6 -13 -14 -30
-17 -29 -6 -47 -34 -35 -54 4 -6 23 -10 43 -8 33 3 37 7 40 35 4 43 -13 73
-42 73 -12 0 -26 -3 -29 -7z m51 -65 c-5 -15 -48 -24 -48 -10 0 14 12 22 33
22 10 0 17 -5 15 -12z"/>
<path d="M6200 271 c0 -11 8 -36 17 -55 16 -34 16 -37 -3 -57 -18 -20 -18 -21
-1 -18 18 4 67 104 67 136 0 24 -18 4 -25 -27 -8 -39 -24 -38 -32 0 -7 36 -23
50 -23 21z"/>
<path d="M6497 283 c-14 -14 -6 -19 23 -15 40 6 38 -13 -2 -24 -61 -18 -46
-72 16 -60 29 6 36 11 36 31 0 44 -18 75 -43 75 -13 0 -27 -3 -30 -7z m51 -65
c-5 -15 -48 -24 -48 -10 0 14 12 22 33 22 10 0 17 -5 15 -12z"/>
<path d="M6590 233 c1 -44 3 -54 11 -41 5 10 9 24 8 30 -5 37 2 49 24 46 18
-2 23 -10 25 -46 4 -47 22 -48 22 -1 0 49 -16 69 -55 69 l-35 0 0 -57z"/>
<path d="M6837 283 c-15 -14 -6 -23 12 -13 14 7 22 7 27 -1 8 -13 -5 -26 -31
-31 -14 -2 -20 -11 -20 -28 0 -22 4 -25 38 -26 20 -1 38 4 38 10 4 41 -2 80
-13 87 -16 10 -42 11 -51 2z m51 -65 c-5 -15 -48 -24 -48 -10 0 14 12 22 33
22 10 0 17 -5 15 -12z"/>
<path d="M6987 283 c-14 -13 -6 -23 11 -15 18 10 42 5 42 -8 0 -5 -13 -11 -29
-15 -66 -14 -61 -67 5 -62 32 2 34 4 34 39 0 20 -3 43 -6 52 -6 16 -45 22 -57
9z m51 -65 c-5 -15 -58 -24 -58 -10 0 15 12 22 38 22 14 0 22 -5 20 -12z"/>
<path d="M7126 275 c-17 -18 -19 -28 -10 -62 7 -25 34 -37 64 -28 30 10 24 20
-12 20 -30 0 -33 3 -33 30 0 27 3 30 33 30 17 0 31 4 29 10 -6 17 -54 17 -71
0z"/>
<path d="M7236 274 c-34 -33 -9 -94 38 -94 31 0 46 18 46 55 0 17 -5 36 -12
43 -17 17 -54 15 -72 -4z m66 -21 c8 -36 -3 -54 -31 -51 -26 3 -38 26 -27 54
8 20 54 18 58 -3z"/>
<path d="M7343 240 c-1 -28 3 -53 8 -56 5 -3 9 15 9 40 0 42 2 46 25 46 23 0
25 -4 25 -40 0 -22 5 -40 10 -40 6 0 10 18 10 41 0 36 2 40 23 37 18 -2 23
-11 28 -48 4 -35 7 -41 14 -26 4 10 4 35 -1 55 l-9 36 -71 2 -71 2 0 -49z"/>
</g>
</svg>
