<?xml version="1.0" standalone="no"?>
<!DOCTYPE svg PUBLIC "-//W3C//DTD SVG 20010904//EN"
 "http://www.w3.org/TR/2001/REC-SVG-20010904/DTD/svg10.dtd">
<svg version="1.0" xmlns="http://www.w3.org/2000/svg"
 width="816.000000pt" height="1056.000000pt" viewBox="0 0 816.000000 1056.000000"
 preserveAspectRatio="xMidYMid meet">
<metadata>
Created by potrace 1.16, written by Peter Selinger 2001-2019
</metadata>
<g transform="translate(0.000000,1056.000000) scale(0.100000,-0.100000)"
fill="#000000" stroke="none">
<path d="M225 10318 c-3 -7 -4 -2283 -3 -5058 l3 -5045 2613 0 c1436 0 2611 3
2610 8 -2 4 -453 7 -1003 7 -550 0 -1006 4 -1013 8 -17 11 64 87 121 113 57
25 139 25 194 -2 56 -27 69 -17 76 61 13 146 157 260 331 262 85 0 141 -13
220 -54 103 -53 133 -60 170 -43 17 9 53 36 80 60 27 25 65 50 84 56 51 17
127 5 204 -30 36 -17 75 -31 86 -31 26 0 55 27 81 77 51 100 148 162 234 149
57 -9 118 -48 148 -97 16 -26 31 -39 45 -39 26 0 32 13 40 88 14 127 48 214
105 270 28 28 40 32 85 32 110 0 241 -96 327 -239 17 -30 44 -63 58 -73 24
-18 29 -18 60 -5 19 8 41 21 49 28 27 26 85 56 123 63 78 15 171 -36 203 -111
18 -42 51 -45 60 -5 21 84 121 214 191 247 21 10 80 22 133 27 61 6 100 14
110 24 11 11 16 47 20 137 4 99 9 130 28 168 70 143 280 108 425 -70 25 -31
37 -18 37 39 0 110 67 240 140 270 39 16 120 7 169 -18 l36 -19 3 -665 2 -666
-22 -6 c-13 -3 -83 -6 -155 -6 -84 0 -133 -4 -133 -10 0 -7 58 -10 168 -8
l167 3 3 5049 c2 4033 0 5051 -10 5058 -7 4 -1742 8 -3856 8 -3065 0 -3844 -3
-3847 -12z m7685 -1550 l0 -1537 -51 31 c-38 24 -65 33 -110 36 -54 4 -65 1
-110 -27 -28 -17 -53 -31 -57 -31 -4 0 -15 25 -24 55 -43 134 -156 184 -261
114 -26 -17 -52 -29 -59 -27 -6 2 -30 35 -53 74 -53 86 -111 130 -190 139 -62
8 -75 22 -75 81 0 97 -46 164 -112 164 -21 0 -38 1 -38 3 0 1 14 35 30 76 66
162 41 314 -60 366 -41 21 -136 19 -189 -5 -24 -11 -44 -20 -45 -20 -2 0 -2
37 -2 83 1 99 -20 167 -69 225 -97 113 -235 107 -429 -16 -27 -17 -52 -29 -56
-27 -5 3 -3 24 2 47 17 73 5 188 -25 249 -31 63 -67 90 -163 122 -81 28 -85
36 -55 125 27 79 26 127 -1 182 -22 43 -46 61 -129 95 -21 9 -25 18 -30 82 -4
57 -11 78 -32 107 -40 52 -84 62 -197 47 -99 -14 -110 -11 -170 47 -63 61
-167 70 -266 23 -72 -34 -111 -78 -143 -163 -44 -114 -61 -119 -144 -41 -110
103 -216 111 -317 24 -51 -45 -79 -41 -128 18 -75 88 -182 115 -282 70 -57
-25 -152 -125 -176 -184 -11 -25 -24 -45 -30 -45 -6 0 -37 11 -68 25 -103 46
-191 31 -249 -42 -10 -13 -22 -23 -25 -23 -4 0 -32 20 -62 45 -91 75 -231 105
-331 70 -61 -22 -76 -39 -126 -143 -60 -127 -67 -170 -41 -249 11 -34 18 -68
15 -76 -3 -9 -28 -16 -67 -20 -70 -8 -100 -26 -130 -80 -17 -30 -21 -51 -18
-95 l3 -57 -60 -6 c-114 -11 -186 -64 -221 -160 -16 -43 -24 -53 -39 -51 -93
15 -135 14 -177 -7 -78 -39 -127 -95 -158 -183 -17 -49 -20 -52 -69 -65 -79
-20 -167 -70 -231 -132 -13 -13 -16 -4 -21 75 -8 125 -36 171 -116 193 -21 6
-54 11 -74 11 -48 0 -65 15 -102 90 -39 78 -75 103 -150 103 -74 0 -129 -31
-212 -119 -39 -41 -79 -74 -89 -74 -10 0 -48 29 -85 65 -85 84 -110 100 -190
121 -36 9 -73 23 -81 31 -10 9 -17 42 -20 103 -5 69 -10 94 -25 111 -31 34
-94 59 -152 59 l-53 0 0 724 c0 670 1 725 17 728 9 2 1735 3 3835 3 l3818 0 0
-1537z m-2827 876 c18 -9 51 -34 74 -55 47 -43 73 -48 176 -29 114 22 181 -20
192 -117 11 -102 10 -101 79 -132 37 -16 72 -40 82 -56 27 -41 29 -111 5 -179
-26 -74 -27 -112 -2 -125 10 -6 47 -20 82 -31 74 -25 85 -32 121 -80 38 -51
52 -136 39 -233 -19 -136 -15 -140 83 -81 113 68 156 85 225 91 57 5 74 2 111
-17 56 -29 65 -38 97 -102 24 -47 26 -62 25 -156 -1 -57 0 -108 3 -112 6 -10
77 17 86 32 3 5 33 12 66 15 78 7 134 -21 162 -81 41 -88 36 -163 -19 -280
-17 -34 -30 -70 -30 -78 0 -16 28 -28 67 -28 40 0 73 -40 79 -95 11 -109 13
-112 48 -129 19 -9 49 -16 66 -16 61 0 130 -61 179 -157 33 -65 51 -70 126
-34 88 43 122 41 171 -8 37 -35 44 -52 72 -150 9 -30 25 -37 44 -18 36 37 99
67 140 67 51 0 119 -32 153 -72 l25 -30 0 -807 0 -808 -39 -11 c-51 -16 -82
-15 -155 4 -74 20 -170 14 -217 -12 -19 -11 -72 -48 -119 -83 -47 -35 -105
-73 -129 -84 l-43 -19 -41 39 c-23 21 -44 40 -47 43 -33 32 -167 88 -270 113
-265 66 -500 39 -744 -84 -55 -28 -103 -54 -106 -58 -3 -4 -26 -23 -52 -42
-25 -20 -68 -60 -95 -89 -82 -91 -80 -90 -128 -90 -25 0 -45 2 -45 5 0 3 13
31 29 63 33 66 75 192 91 274 6 32 12 120 13 197 2 127 0 142 -19 168 -27 36
-41 38 -140 23 -72 -11 -86 -11 -135 5 -92 31 -139 89 -250 315 -53 107 -107
227 -119 265 -47 145 -66 172 -171 238 -44 28 -62 47 -83 90 -14 30 -26 71
-26 91 0 70 -38 123 -122 174 -16 9 -28 20 -28 24 0 4 -6 8 -12 8 -17 0 -65
46 -114 107 -22 26 -41 50 -44 53 -3 3 -30 34 -62 70 -42 50 -76 77 -136 109
-44 23 -85 53 -92 66 -10 20 -10 45 4 140 9 64 24 137 33 163 11 35 13 62 8
107 -5 33 -9 110 -10 170 -1 61 -3 148 -4 195 -1 47 3 101 9 120 5 19 13 78
16 131 6 81 4 99 -11 122 -61 93 -290 -77 -403 -299 -21 -42 -59 -74 -87 -74
-22 0 -68 -53 -84 -97 -7 -21 -35 -68 -62 -106 -57 -78 -103 -167 -114 -217
-4 -19 -11 -39 -15 -45 -7 -11 -48 -175 -52 -215 -3 -24 -7 -25 -78 -32 -41
-3 -104 -15 -140 -27 -35 -11 -65 -19 -65 -18 -1 1 -10 22 -19 47 -26 67 -42
88 -94 121 -30 19 -59 29 -84 29 -38 0 -110 -30 -123 -50 -12 -19 -44 -10 -65
20 -51 71 -115 88 -210 55 -23 -8 -44 -15 -46 -15 -2 0 -15 23 -29 51 -20 39
-36 55 -68 70 -23 10 -49 19 -58 19 -13 0 -18 14 -24 58 -19 161 -105 215
-261 165 l-54 -17 -59 57 c-33 31 -64 57 -70 57 -29 0 11 106 61 160 64 71
129 91 208 65 49 -16 52 -16 71 1 10 9 19 21 19 26 0 5 11 33 25 63 35 72 91
110 179 120 39 4 70 13 77 22 8 9 12 38 11 72 -4 93 50 151 140 151 40 0 78
24 78 48 0 10 -9 44 -21 77 -25 72 -20 101 47 240 40 84 50 98 86 116 35 18
54 21 117 16 90 -5 148 -29 213 -86 25 -22 56 -41 69 -41 15 0 39 18 69 50 41
44 51 50 86 50 21 0 66 -12 99 -26 93 -41 112 -42 126 -8 25 63 36 80 83 131
63 69 109 93 181 93 67 0 103 -17 153 -72 77 -86 102 -89 187 -24 103 79 174
69 295 -44 65 -60 104 -60 133 2 8 18 26 58 41 88 14 31 39 70 56 87 61 63
187 91 253 57z m-4697 -842 c48 -26 59 -50 60 -138 1 -100 12 -117 87 -135 90
-21 130 -44 201 -117 103 -105 118 -104 227 8 73 76 119 100 188 100 62 0 86
-19 124 -97 34 -73 64 -93 138 -93 60 0 106 -26 131 -73 18 -36 20 -54 16
-134 -5 -86 -4 -93 14 -93 10 0 47 23 81 52 90 75 194 117 255 103 16 -3 54
-30 84 -60 61 -60 73 -63 145 -39 136 47 203 1 220 -152 l8 -69 35 -5 c55 -9
98 -40 114 -81 22 -54 39 -60 104 -38 90 31 109 27 167 -36 29 -30 60 -55 71
-55 10 0 39 14 64 31 38 26 52 30 92 26 68 -6 110 -41 137 -117 13 -34 21 -63
19 -64 -1 -2 -28 -12 -58 -24 -128 -50 -316 -82 -393 -68 -24 4 -38 14 -46 34
-23 50 -93 147 -139 190 -48 47 -78 62 -121 62 -29 0 -55 24 -116 105 -72 96
-113 125 -180 125 -109 0 -174 -95 -220 -323 -13 -67 -38 -153 -54 -192 -22
-49 -31 -86 -31 -125 0 -30 -5 -110 -12 -177 -11 -113 -10 -130 11 -249 37
-204 27 -291 -53 -466 -37 -81 -71 -178 -102 -293 -26 -94 -28 -114 -30 -337
-2 -261 -3 -266 -45 -389 -36 -109 -52 -199 -54 -315 -1 -72 -6 -98 -22 -125
-11 -19 -44 -104 -73 -189 -56 -168 -89 -239 -152 -334 -59 -86 -203 -223
-292 -276 -91 -55 -97 -75 -34 -120 54 -39 142 -66 248 -75 91 -8 130 -18 130
-35 0 -5 -13 -24 -29 -42 -28 -31 -30 -32 -68 -20 -117 35 -187 -4 -258 -145
-28 -57 -41 -60 -69 -12 -53 89 -125 138 -204 139 -45 0 -142 -35 -142 -52 0
-5 -10 -8 -22 -6 -17 2 -25 14 -33 48 -28 109 -79 160 -158 160 -30 0 -60 -7
-71 -15 -11 -8 -23 -15 -28 -15 -4 0 -8 1091 -8 2424 l0 2425 38 3 c40 3 78
-4 108 -20z m3889 -163 c8 -23 1 -95 -20 -209 -16 -88 -13 -414 5 -479 9 -33
7 -56 -9 -123 -30 -126 -44 -232 -39 -283 7 -54 33 -82 117 -124 63 -32 133
-99 210 -201 39 -52 113 -124 149 -145 18 -11 32 -23 32 -27 0 -4 6 -8 13 -8
7 0 29 -16 48 -35 32 -30 37 -42 42 -95 3 -41 15 -77 36 -115 17 -30 31 -57
31 -59 0 -8 -135 -93 -190 -118 -77 -37 -269 -118 -278 -118 -4 0 -43 -14 -87
-31 -74 -28 -339 -109 -358 -109 -13 0 -1 40 33 112 54 116 62 155 68 309 5
158 -4 207 -54 294 -12 22 -26 58 -30 80 -18 105 -105 203 -289 327 -39 25
-94 59 -122 74 -31 15 -53 34 -53 43 0 27 49 223 70 279 29 76 55 125 100 185
22 28 52 77 66 107 30 64 51 90 72 90 29 0 79 43 102 89 36 70 103 161 157
213 96 92 164 122 178 77z m-2110 -741 c7 -7 21 -20 31 -29 20 -16 88 -96 114
-133 24 -34 53 -55 78 -56 94 -1 169 -88 301 -351 83 -165 120 -211 231 -289
19 -13 53 -41 75 -61 117 -107 172 -152 201 -164 33 -14 74 -10 86 8 3 6 39
-20 81 -59 41 -38 93 -78 115 -89 23 -11 42 -23 42 -27 0 -5 4 -8 10 -8 15 0
179 -99 240 -146 30 -23 77 -65 104 -94 39 -41 46 -54 35 -61 -18 -11 -330
-112 -430 -139 -42 -11 -144 -34 -228 -50 -263 -52 -406 -92 -504 -141 -54
-28 -91 -20 -271 60 -74 33 -153 65 -175 72 -23 7 -41 14 -41 16 0 3 10 13 22
23 l23 18 -38 16 c-166 69 -320 91 -450 63 -37 -7 -69 -11 -71 -8 -2 3 17 51
41 106 25 55 56 141 70 190 27 100 27 153 -4 322 -14 79 -15 118 -6 290 10
185 12 201 37 250 15 28 36 96 47 150 28 137 37 171 66 230 38 79 64 103 113
103 23 0 47 -6 55 -12z m1410 -390 c33 -16 98 -57 145 -91 141 -102 212 -182
225 -252 3 -22 22 -73 42 -114 44 -93 56 -170 48 -291 -8 -113 -25 -188 -63
-267 -43 -90 -38 -88 -93 -36 -70 66 -132 111 -245 177 -178 105 -233 145
-277 201 -23 30 -48 55 -56 55 -8 0 -25 -10 -37 -21 -28 -26 -57 -21 -99 18
-16 16 -64 57 -105 93 -41 36 -77 68 -80 71 -3 3 -14 12 -26 20 -95 65 -184
174 -229 283 l-16 39 31 -6 c70 -15 279 30 430 91 116 46 233 73 295 66 28 -3
77 -19 110 -36z m1399 -822 c63 -37 92 -79 127 -185 29 -89 160 -358 298 -615
33 -60 67 -138 75 -172 25 -99 21 -241 -10 -359 -25 -97 -78 -226 -96 -233 -4
-2 -8 -8 -8 -14 0 -21 -84 -109 -128 -135 -36 -21 -61 -28 -127 -31 -78 -4
-89 -2 -236 49 -150 52 -157 53 -264 53 -99 0 -116 -2 -165 -26 -56 -27 -111
-59 -120 -68 -3 -3 -21 -17 -40 -30 -44 -30 -127 -115 -199 -205 -30 -38 -98
-113 -151 -165 -149 -149 -285 -231 -457 -277 -85 -23 -119 -26 -248 -26 -152
-1 -169 2 -385 55 -80 19 -162 47 -204 70 -120 64 -144 84 -315 260 -80 82
-167 165 -193 185 -70 51 -165 88 -303 118 -168 36 -223 55 -246 83 -21 27
-24 69 -9 122 6 19 15 69 20 110 6 42 20 100 31 130 12 30 26 74 31 96 l11 42
61 -1 c114 -2 352 93 676 269 369 200 515 254 865 320 145 28 347 83 530 145
188 63 218 73 350 108 116 32 390 134 539 203 129 59 169 82 216 125 14 13 27
23 29 23 2 0 23 -11 45 -24z m-2911 -436 c90 -23 167 -51 167 -62 0 -4 -9 -10
-21 -13 -37 -12 -13 -29 92 -66 57 -20 145 -55 196 -78 50 -22 103 -43 117
-47 36 -9 32 -21 -11 -42 -21 -9 -107 -54 -191 -99 -84 -46 -157 -83 -162 -83
-6 0 -10 -4 -10 -10 0 -5 -4 -10 -10 -10 -5 0 -61 -24 -123 -54 -195 -92 -377
-144 -416 -117 -47 31 -37 391 15 579 20 72 34 84 124 105 90 21 138 20 233
-3z m3491 -390 c24 -5 64 -2 105 6 81 17 76 17 95 -2 13 -12 16 -39 16 -127
-1 -272 -58 -431 -274 -764 -25 -39 -52 -78 -59 -85 -7 -7 -24 -29 -37 -48
-60 -86 -298 -333 -400 -416 -19 -16 -51 -44 -70 -64 -36 -36 -176 -153 -216
-180 -84 -58 -150 -104 -154 -110 -3 -4 -12 -10 -20 -13 -8 -4 -28 -16 -45
-27 -16 -11 -37 -23 -45 -27 -8 -3 -33 -18 -55 -33 -43 -29 -261 -135 -335
-164 -25 -10 -58 -24 -75 -31 -58 -26 -245 -85 -362 -114 -269 -66 -438 -82
-762 -70 -274 10 -371 19 -576 54 -135 24 -201 44 -430 133 -55 21 -129 45
-165 52 -87 19 -261 17 -325 -4 -27 -9 -54 -16 -58 -16 -4 0 8 21 28 46 33 45
44 86 27 110 -15 23 -50 32 -152 43 -106 10 -167 26 -221 58 -29 17 -38 33
-18 33 21 0 121 73 195 143 157 147 237 285 324 562 27 86 60 165 69 165 4 0
16 -7 28 -15 11 -8 89 -31 173 -50 288 -68 302 -76 530 -305 96 -97 197 -191
223 -209 82 -56 196 -102 357 -144 154 -40 157 -40 345 -41 199 -1 254 8 385
60 56 22 180 95 234 137 68 52 195 178 249 247 29 35 59 72 67 80 8 9 30 34
48 55 28 34 35 38 50 27 49 -36 107 -54 192 -59 l90 -6 -6 -41 c-11 -84 -26
-124 -61 -158 -31 -30 -40 -33 -91 -32 -31 0 -68 4 -80 9 -21 7 -23 5 -20 -16
5 -37 72 -57 134 -41 76 20 116 58 144 136 l11 29 27 -26 c39 -37 102 -53 150
-39 46 14 112 75 112 102 0 30 -18 24 -66 -20 -38 -35 -50 -40 -90 -40 -41 0
-51 5 -80 36 -27 28 -34 44 -34 74 0 32 5 42 33 61 82 56 131 126 125 177 -3
32 -13 34 162 -25 125 -42 140 -45 211 -40 98 6 159 37 231 116 134 148 216
423 188 635 -11 79 -43 191 -61 211 -17 18 -9 27 19 20 15 -4 44 -11 66 -15z
m1227 -346 c46 -9 88 -18 92 -21 5 -3 -28 -15 -74 -27 -46 -12 -111 -37 -144
-54 -279 -150 -521 -485 -590 -818 -22 -107 -20 -267 5 -346 24 -78 81 -169
121 -192 36 -21 39 -39 4 -26 -35 13 -109 52 -115 59 -3 4 -21 18 -40 31 -72
51 -199 200 -216 253 -4 12 -10 24 -14 27 -8 6 -55 130 -76 205 -25 85 -29
260 -9 350 52 237 298 461 594 540 116 32 119 32 257 34 75 0 154 -5 205 -15z
m959 0 c70 -16 95 -14 164 12 8 3 10 -483 9 -1943 -2 -1070 -5 -1948 -7 -1951
-3 -2 -28 4 -56 13 -135 45 -233 1 -296 -133 -14 -30 -28 -69 -31 -88 -3 -19
-7 -34 -8 -34 -1 0 -32 20 -69 45 -69 46 -110 62 -187 72 -75 9 -165 -42 -203
-115 -23 -45 -38 -140 -31 -192 4 -27 4 -63 0 -80 -6 -29 -8 -30 -66 -30 -151
0 -260 -66 -341 -207 -31 -55 -42 -63 -51 -39 -3 8 -27 29 -53 46 -38 27 -59
34 -113 37 -74 5 -128 -13 -196 -67 -21 -16 -43 -30 -49 -30 -14 0 -56 53 -56
70 0 5 -4 10 -10 10 -5 0 -10 5 -10 11 0 14 -59 87 -104 130 -17 16 -64 46
-104 66 -59 30 -84 36 -133 36 -83 0 -132 -34 -177 -124 -26 -51 -57 -166 -62
-228 0 -3 -15 9 -32 25 -57 52 -109 74 -176 74 -101 0 -169 -43 -239 -152 -50
-78 -59 -81 -136 -41 -40 22 -69 29 -128 31 -90 5 -136 -13 -216 -83 -28 -25
-58 -45 -66 -45 -8 0 -54 20 -103 43 -112 55 -181 71 -276 65 -171 -12 -309
-123 -348 -280 l-12 -47 -40 16 c-106 43 -272 -29 -355 -154 l-15 -23 -1559 0
-1559 0 0 1853 0 1853 39 22 c22 13 56 22 79 22 33 0 45 -6 68 -32 34 -41 63
-105 64 -139 0 -51 24 -56 93 -21 77 40 113 47 163 33 42 -11 105 -68 147
-131 40 -61 68 -53 111 33 45 91 97 137 154 137 39 0 98 -25 83 -35 -7 -4 -17
-19 -22 -33 -17 -45 8 -53 89 -30 146 43 241 49 368 23 66 -14 233 -71 274
-93 8 -5 57 -22 107 -38 51 -16 93 -33 93 -38 0 -4 -12 -6 -27 -3 -41 8 -128
-9 -213 -40 -99 -37 -194 -128 -230 -218 -36 -91 -85 -183 -135 -250 -69 -93
-99 -163 -115 -267 -31 -206 60 -416 212 -494 73 -38 187 -40 235 -6 68 48
103 138 103 267 0 295 129 485 331 485 96 0 136 -29 165 -120 13 -42 34 -72
89 -130 81 -86 90 -99 130 -195 39 -96 152 -314 212 -410 51 -83 113 -153 173
-195 19 -13 37 -27 40 -30 3 -3 34 -20 71 -37 86 -43 176 -63 277 -63 100 0
105 -11 38 -86 -25 -27 -61 -83 -82 -124 -31 -62 -38 -86 -38 -136 -1 -73 16
-98 78 -115 23 -6 52 -16 65 -22 30 -15 97 -13 116 3 11 9 23 8 59 -5 32 -12
64 -16 110 -13 54 3 72 9 103 34 61 50 69 93 42 238 -20 112 -21 129 -10 290
13 197 25 250 81 361 56 114 123 183 148 152 31 -39 54 -110 77 -248 25 -142
64 -287 84 -313 19 -25 41 -151 41 -237 l0 -92 39 -37 c34 -33 48 -38 137 -54
71 -12 108 -14 131 -7 20 6 35 6 38 0 10 -16 62 -10 86 10 19 15 34 18 69 14
40 -5 49 -2 77 24 36 34 58 100 49 148 -10 52 -46 108 -120 187 -102 108 -158
198 -196 320 -18 56 -48 150 -68 208 -34 101 -36 112 -42 295 -6 181 -8 194
-39 280 -18 50 -36 102 -41 116 l-8 27 67 4 c78 4 117 27 147 85 10 21 20 40
21 42 2 4 286 -184 307 -203 20 -19 97 -53 201 -91 100 -36 203 -76 260 -100
82 -36 162 -57 201 -52 59 6 89 30 141 116 26 42 88 141 138 221 137 216 156
252 162 313 6 61 -15 113 -64 158 -56 52 -214 149 -371 229 -79 40 -83 44 -77
69 11 44 160 340 183 363 5 5 21 -7 38 -29 16 -21 64 -73 108 -116 62 -62 97
-87 171 -123 146 -71 194 -73 425 -16 79 20 269 128 309 176 7 8 29 19 50 22
20 4 46 14 59 22 21 14 26 14 52 -1 47 -28 151 -17 188 20 30 29 51 34 61 14
19 -34 75 -61 128 -61 90 0 153 67 153 162 0 42 -5 53 -42 92 -29 29 -55 46
-78 51 l-35 6 0 87 c0 102 -18 142 -76 170 -50 23 -60 59 -43 148 25 130 13
275 -30 365 -13 29 -23 56 -21 59 2 4 22 12 44 20 23 7 67 34 98 59 157 126
211 141 373 105z m-708 -94 c92 -34 151 -100 189 -210 17 -52 22 -89 23 -187
0 -67 -3 -125 -7 -129 -4 -5 -18 -2 -30 5 -12 8 -52 16 -88 19 -58 4 -68 7
-72 26 -3 11 -10 35 -15 51 -6 17 -16 48 -21 70 -6 22 -21 53 -35 68 -13 15
-27 44 -31 64 -16 85 -77 168 -145 197 -30 12 -32 16 -16 22 74 29 178 31 248
4z m-195 -73 c28 -22 50 -51 68 -90 15 -32 25 -60 23 -62 -8 -8 -102 25 -121
43 -14 13 -37 17 -91 17 -100 0 -180 -41 -291 -150 -90 -89 -139 -166 -191
-304 -47 -125 -60 -226 -40 -319 21 -101 58 -144 148 -175 26 -8 53 -21 60
-27 7 -6 22 -17 33 -25 19 -13 19 -15 3 -31 -11 -12 -38 -19 -76 -22 -101 -7
-195 50 -252 153 -20 35 -22 49 -16 115 31 348 253 704 553 886 51 31 63 34
103 29 27 -4 61 -19 87 -38z m-73 -108 c29 -8 36 -13 25 -20 -8 -5 -25 -9 -38
-9 -13 0 -53 -14 -90 -32 -116 -55 -248 -206 -304 -348 -29 -76 -57 -208 -57
-273 0 -72 23 -177 46 -212 24 -37 -3 -33 -57 9 -109 82 -112 288 -9 513 82
177 241 332 378 369 59 16 59 16 106 3z m151 -78 c42 -28 85 -92 85 -128 0
-21 -2 -22 -26 -11 -14 6 -40 26 -59 44 -75 71 -188 49 -303 -60 -106 -99
-162 -194 -188 -317 -18 -85 -14 -138 18 -211 30 -71 83 -108 155 -108 30 0
67 7 82 15 l29 14 6 -37 c10 -62 8 -67 -39 -90 -68 -33 -171 -31 -227 5 -68
42 -91 75 -113 160 -22 82 -19 175 9 280 35 135 86 231 172 322 139 148 290
194 399 122z m-1155 -10 c0 -5 -4 -11 -9 -13 -18 -6 -60 -119 -75 -198 -20
-104 -20 -172 0 -277 15 -82 15 -83 -10 -159 -14 -41 -41 -103 -60 -137 -18
-34 -55 -102 -81 -152 -63 -119 -69 -129 -75 -135 -3 -3 -17 -27 -30 -55 -14
-27 -28 -53 -33 -56 -4 -3 -109 45 -233 107 -156 79 -240 115 -274 120 -45 6
-63 17 -42 26 8 3 55 44 222 193 77 69 213 207 290 294 36 41 71 80 78 87 6 7
12 17 12 22 0 6 4 12 9 14 8 3 142 201 190 280 12 20 27 39 34 42 21 8 87 6
87 -3z m1138 -95 l27 -26 -25 0 c-84 0 -227 -121 -295 -250 -39 -73 -40 -78
-40 -176 0 -95 2 -103 28 -138 17 -22 40 -39 58 -43 37 -7 37 -21 2 -29 -16
-3 -33 -7 -39 -9 -33 -10 -96 20 -128 59 -104 129 -52 359 122 536 80 81 144
112 221 106 30 -3 51 -12 69 -30z m75 -57 c30 -16 57 -50 57 -75 0 -14 -11
-24 -35 -34 -19 -8 -35 -18 -35 -22 0 -5 -13 1 -29 13 -26 19 -33 20 -66 9
-120 -40 -230 -245 -165 -310 19 -19 21 -28 15 -81 -7 -56 -8 -59 -35 -59 -86
0 -124 122 -80 263 58 188 264 351 373 296z m-2287 -24 c23 -35 11 -71 -37
-117 -66 -63 -90 -71 -195 -66 -97 5 -166 29 -172 59 -3 18 129 110 193 133
22 8 75 15 117 15 72 1 79 -1 94 -24z m2240 -109 c3 -9 -12 -32 -38 -58 -66
-65 -98 -108 -125 -165 -30 -64 -36 -69 -53 -38 -31 58 27 177 124 253 32 25
84 29 92 8z m238 0 c34 -14 79 -62 73 -79 -1 -5 -27 -19 -57 -30 -149 -55
-270 -285 -231 -438 13 -48 12 -53 -5 -66 -27 -20 -92 -16 -125 8 -41 29 -61
82 -63 164 -1 90 21 162 77 246 53 78 87 114 148 156 72 50 128 62 183 39z
m136 -149 c35 -17 60 -73 60 -132 0 -73 -9 -93 -45 -110 -38 -19 -75 -80 -75
-127 0 -41 -26 -67 -94 -93 -60 -23 -102 -12 -134 35 -21 31 -23 45 -20 110 2
61 9 88 36 142 69 141 188 217 272 175z m-1545 -300 c35 -82 36 -89 21 -106
-9 -9 -16 -21 -16 -24 0 -4 -17 -35 -38 -69 -38 -63 -95 -177 -148 -295 -16
-37 -35 -65 -47 -69 -10 -3 -39 2 -63 11 -54 20 -57 41 -16 117 16 29 53 98
82 153 30 55 57 102 62 103 4 2 8 10 8 17 0 7 18 44 39 82 33 59 51 100 68
162 5 19 6 18 48 -82z m1712 14 c47 -34 55 -113 16 -165 -20 -28 -41 -36 -97
-36 -31 0 -45 7 -72 36 -46 48 -47 99 -4 148 43 49 105 55 157 17z m-1227
-225 c35 -16 73 -26 103 -26 53 0 114 22 123 44 4 11 13 12 42 4 56 -16 176 7
207 39 15 15 19 14 40 -10 14 -14 34 -32 47 -41 22 -16 22 -16 3 -31 -288
-221 -566 -214 -670 19 -13 28 -26 67 -30 86 l-7 35 43 -47 c24 -26 69 -58 99
-72z m-1102 -171 c215 -106 228 -114 237 -146 20 -69 150 -106 202 -57 l23 21
77 -38 c43 -21 80 -41 83 -44 3 -4 18 -12 34 -19 27 -12 81 -45 178 -110 61
-40 115 -91 97 -92 -27 0 -429 145 -509 184 -116 58 -708 405 -709 417 -2 19
87 -17 287 -116z m-246 57 c51 -27 131 -73 178 -103 105 -68 189 -119 195
-119 3 0 23 -11 45 -25 22 -14 68 -40 102 -57 112 -57 117 -69 65 -157 -19
-31 -53 -94 -77 -141 -23 -47 -46 -89 -50 -95 -4 -5 -45 -82 -90 -170 -46 -88
-87 -165 -92 -172 -13 -16 -76 15 -178 88 -41 30 -100 70 -130 89 -30 19 -56
38 -58 42 -2 5 -9 8 -17 8 -7 0 -18 7 -25 15 -10 12 -9 22 4 49 19 40 20 60 5
88 -15 27 6 51 24 27 20 -27 114 -69 154 -69 35 0 70 16 98 45 28 27 59 113
59 159 0 44 -5 53 -34 77 -21 18 -58 33 -107 44 -70 16 -78 16 -119 0 -24 -9
-44 -21 -44 -26 0 -22 -32 -20 -54 3 -24 27 -122 68 -161 68 -14 0 -25 3 -25
7 0 9 63 147 70 153 3 3 25 43 49 90 44 86 80 130 106 130 8 0 56 -22 107 -48z
m-232 -15 c0 -1 -27 -54 -59 -117 -68 -131 -41 -118 -214 -104 l-87 7 102 59
c57 33 135 81 173 108 63 43 85 55 85 47z m-172 -274 c37 -9 22 -35 -30 -54
-26 -9 -69 -28 -97 -42 -37 -18 -53 -22 -59 -13 -13 15 -55 100 -54 106 4 17
173 19 240 3z m-291 -23 c3 -11 8 -20 12 -20 10 0 43 -71 36 -78 -18 -18 -225
26 -225 48 0 8 30 23 95 49 64 25 76 26 82 1z m-211 -77 c40 -37 153 -73 226
-73 29 0 36 -3 32 -15 -4 -8 -11 -15 -18 -15 -6 0 -24 -10 -39 -23 -20 -15
-26 -27 -22 -40 4 -9 10 -17 14 -17 4 0 15 -6 25 -13 17 -12 15 -16 -19 -50
-35 -35 -37 -41 -32 -81 l6 -43 -150 -8 c-144 -7 -153 -6 -195 15 -23 13 -83
64 -131 114 -48 50 -100 99 -116 109 -15 9 -27 21 -27 25 0 5 26 13 59 20 70
15 167 43 276 82 99 35 88 33 111 13z m634 6 c36 -8 63 -22 91 -48 37 -36 39
-41 39 -99 0 -48 -3 -62 -15 -62 -8 0 -15 4 -15 9 0 19 -88 52 -132 49 -59 -4
-59 -30 0 -40 61 -10 93 -28 119 -67 43 -64 19 -129 -30 -83 -34 30 -83 52
-125 55 -55 3 -48 -23 13 -45 78 -28 99 -48 103 -98 3 -33 -2 -48 -19 -66 -29
-31 -82 -48 -125 -39 -32 5 -50 14 -120 54 -30 17 -154 71 -163 71 -22 0 -61
55 -61 86 0 35 16 56 61 79 38 20 37 31 -7 57 -34 20 -35 22 -18 35 11 7 35
29 54 47 35 34 180 100 236 109 52 7 62 7 114 -4z m1030 -35 c52 -19 111 -41
130 -49 132 -51 202 -76 253 -92 35 -11 59 -25 63 -36 7 -22 -11 -77 -49 -145
-30 -56 -178 -288 -196 -309 -6 -7 -11 -14 -11 -17 0 -3 -16 -32 -36 -66 -74
-126 -101 -130 -324 -40 -52 21 -137 53 -187 71 -68 24 -93 38 -93 50 0 10 26
68 59 131 32 62 92 178 133 258 42 80 92 172 112 204 20 33 36 63 36 68 0 13
9 10 110 -28z m-703 -6 c19 -15 26 -73 14 -111 -21 -64 -76 -95 -131 -74 -29
11 -30 13 -30 77 1 38 6 72 14 82 32 42 97 54 133 26z m101 -25 c55 -55 -40
-236 -115 -217 -20 5 -18 8 17 41 46 41 64 89 57 149 -5 48 10 58 41 27z
m-2578 -72 c257 -32 632 -39 810 -17 58 8 108 12 113 9 21 -12 -1 -346 -38
-559 -45 -257 -134 -554 -166 -554 -22 0 -88 146 -170 375 -64 181 -94 229
-219 355 -63 63 -135 139 -159 169 -68 81 -136 142 -204 183 -88 53 -97 59
-72 54 11 -3 58 -10 105 -15z m1013 -8 c84 -46 93 -57 110 -140 31 -148 31
-196 2 -358 -24 -131 -26 -166 -21 -280 3 -71 10 -148 15 -170 5 -22 11 -74
13 -115 l3 -75 -35 -4 c-19 -2 -99 2 -178 9 -125 11 -143 15 -138 29 77 224
98 297 120 406 50 253 58 321 63 518 3 108 7 197 9 197 2 0 19 -8 37 -17z
m-1303 -1 c0 -4 -13 -22 -30 -40 -35 -39 -33 -24 -35 -187 -2 -110 0 -136 16
-167 10 -20 23 -40 29 -43 16 -10 -8 -35 -32 -35 -60 0 -130 72 -163 169 -18
54 -37 87 -70 122 -27 28 -45 58 -45 71 0 31 27 68 49 68 9 0 21 4 27 10 26
26 254 55 254 32z m202 -49 c36 -19 74 -43 84 -54 16 -18 16 -19 -13 -19 -44
0 -78 -32 -97 -92 -10 -29 -26 -72 -37 -95 -10 -24 -19 -58 -19 -76 0 -32 -2
-34 -51 -45 -60 -14 -72 -8 -95 46 -17 42 -20 272 -3 305 6 12 25 34 43 50 27
24 36 27 76 21 25 -3 75 -21 112 -41z m-552 -86 c0 -10 20 -39 45 -65 35 -36
50 -63 66 -116 16 -54 30 -77 67 -113 25 -25 57 -49 70 -54 l24 -9 -34 -38
c-18 -20 -44 -54 -56 -74 l-24 -38 -71 0 c-93 0 -143 26 -174 90 -73 149 -78
196 -32 305 36 85 97 164 110 143 5 -7 9 -21 9 -31z m1958 -120 c26 -14 65
-28 87 -31 l40 -7 1 -117 c0 -106 3 -125 33 -207 40 -110 70 -151 128 -177 38
-17 51 -18 97 -8 43 9 58 8 82 -5 69 -36 99 -12 144 114 27 74 32 100 32 189
1 56 4 102 7 102 4 0 16 -35 28 -77 12 -43 31 -109 43 -148 18 -56 23 -106 29
-255 6 -163 10 -194 33 -260 15 -41 41 -122 58 -180 18 -57 44 -129 58 -160
45 -97 44 -90 16 -80 -47 18 -89 12 -129 -20 -40 -32 -56 -38 -115 -42 -24 -2
-38 -10 -46 -25 l-11 -23 -10 23 c-31 65 -53 130 -67 202 -50 256 -60 301 -77
340 -17 39 -84 115 -101 115 -4 0 -32 20 -63 45 -53 43 -55 44 -55 21 0 -16
15 -37 45 -64 l44 -39 -49 -53 c-28 -30 -50 -60 -50 -66 0 -7 -3 -14 -7 -16
-11 -5 -42 -73 -69 -153 -27 -80 -43 -203 -45 -355 -2 -81 -5 -100 -13 -85 -6
11 -24 32 -39 48 -24 26 -33 29 -67 23 -21 -3 -45 -8 -53 -12 -8 -3 -27 6 -42
20 -16 15 -40 26 -56 26 -26 0 -28 3 -35 56 -8 69 0 151 27 269 33 143 35 259
9 421 -21 128 -22 148 -11 254 7 63 19 142 27 174 16 62 15 256 -1 321 -7 29
-6 28 45 -21 28 -29 73 -63 98 -77z m-1250 94 c12 -11 22 -21 22 -23 0 -3 18
-24 40 -47 22 -23 40 -46 40 -50 0 -5 -14 -11 -31 -15 -29 -6 -51 -26 -140
-128 l-24 -27 -57 16 c-61 17 -69 28 -57 78 15 62 69 190 86 203 25 18 94 14
121 -7z m1702 -146 c125 -51 159 -74 166 -113 18 -96 -26 -303 -76 -356 -16
-17 -22 -17 -68 -6 -36 10 -60 10 -90 3 -22 -6 -52 -8 -66 -6 -80 16 -169 217
-170 383 -1 58 3 92 12 103 29 35 197 30 292 -8z m-1538 -42 c19 -21 52 -54
74 -74 21 -19 48 -46 59 -59 l20 -23 -28 5 c-33 6 -185 -32 -221 -55 -13 -9
-30 -30 -37 -47 -8 -16 -18 -29 -24 -27 -5 2 -18 28 -27 57 -10 30 -22 58 -28
64 -20 20 -10 58 25 94 19 20 37 44 40 53 7 20 61 48 91 49 11 0 36 -17 56
-37z m-1013 -141 c51 -143 90 -172 230 -172 51 0 62 -3 58 -14 -13 -33 -36
-166 -42 -243 l-7 -83 -62 0 -63 0 -77 76 -76 77 -61 -7 c-74 -7 -92 1 -109
54 -12 36 -11 50 5 117 10 43 27 93 38 113 27 49 119 180 126 180 3 0 21 -44
40 -98z m1188 -58 c18 -14 33 -29 33 -34 0 -5 11 -33 24 -62 38 -83 77 -189
74 -198 -2 -5 -28 0 -58 11 -72 26 -182 29 -208 6 -27 -25 -35 -21 -56 25 -11
23 -39 61 -64 85 -39 39 -43 47 -38 77 9 45 30 62 112 90 95 32 139 32 181 0z
m35 -298 c55 -13 128 -56 128 -76 0 -10 53 -132 70 -162 14 -25 13 -26 -22
-30 -28 -3 -34 -8 -38 -33 -4 -27 -9 -30 -42 -31 -42 -1 -66 -17 -79 -53 -13
-32 -16 -27 -84 103 -74 140 -116 242 -108 262 13 34 82 42 175 20z m-1407
-32 c19 -12 36 -15 71 -9 52 7 77 -5 128 -63 55 -63 61 -67 90 -80 19 -9 47
-11 84 -6 l54 7 -7 -34 c-11 -52 -41 -104 -71 -124 -36 -23 -142 -17 -199 12
-77 40 -137 126 -169 245 -22 78 -22 79 19 52z m1635 -261 c14 -9 45 -34 70
-56 25 -21 76 -57 113 -79 65 -39 67 -41 45 -52 -15 -7 -29 -30 -39 -61 -9
-28 -26 -66 -38 -85 -11 -19 -21 -47 -21 -62 0 -22 -5 -28 -21 -28 -23 0 -129
60 -129 72 0 5 -6 8 -13 8 -13 0 -97 83 -135 134 -25 32 -30 114 -10 134 7 7
34 12 60 12 48 0 48 0 48 34 0 47 28 58 70 29z m257 -43 c39 -5 101 -10 137
-10 74 0 72 2 54 -77 -15 -62 -23 -64 -107 -33 -98 38 -221 110 -221 130 0 9
8 8 137 -10z m104 -167 l61 -18 -8 -55 c-5 -30 -8 -84 -9 -120 l0 -65 -87 2
c-47 2 -103 6 -125 11 -33 7 -38 12 -41 40 -2 20 6 47 22 74 13 24 29 62 36
86 17 64 50 74 151 45z m1215 -248 c31 -14 65 -35 76 -48 11 -12 41 -44 67
-72 79 -82 101 -121 101 -177 0 -42 -5 -54 -30 -80 -16 -16 -38 -28 -47 -26
-15 3 -17 12 -15 58 3 47 -1 62 -27 103 -17 26 -35 47 -41 47 -21 0 -21 -28
-1 -61 31 -51 29 -123 -5 -154 -39 -36 -60 -31 -44 11 23 59 -28 189 -61 157
-9 -9 -8 -19 5 -46 20 -44 21 -101 0 -121 -18 -19 -54 -19 -152 -2 -114 20
-117 26 -117 196 0 88 4 143 11 150 6 6 31 13 56 15 33 2 58 13 93 39 25 20
53 36 60 36 8 0 40 -11 71 -25z m-1050 -106 c17 -19 26 -21 86 -15 l68 6 25
-38 c31 -47 75 -171 82 -233 10 -86 -51 -137 -151 -125 -87 10 -115 64 -86
166 14 49 -4 61 -29 19 -15 -25 -21 -51 -21 -96 0 -51 -3 -64 -19 -73 -27 -14
-62 -12 -85 5 -18 14 -19 42 -4 150 2 11 -1 22 -7 24 -16 7 -45 -54 -52 -108
-6 -54 -13 -61 -33 -36 -33 40 15 195 86 273 19 20 44 52 56 69 27 38 57 42
84 12z"/>
<path d="M5482 8579 c-24 -12 -54 -37 -68 -55 -29 -38 -54 -112 -54 -160 0
-38 -14 -51 -34 -31 -8 7 -37 28 -65 46 -138 89 -308 82 -409 -17 -119 -116
-83 -268 90 -377 27 -17 48 -32 48 -35 0 -3 -19 -14 -42 -25 -168 -80 -265
-302 -195 -442 29 -56 83 -108 136 -131 84 -36 241 -11 352 57 l45 28 0 -76
c0 -65 5 -86 32 -143 51 -105 131 -165 252 -187 115 -21 217 11 311 97 111
102 127 217 54 384 -20 46 -37 87 -38 93 -1 5 25 13 58 16 144 16 310 120 360
225 57 121 32 230 -65 279 -50 26 -167 31 -271 11 -47 -9 -90 -16 -96 -16 -5
0 -13 35 -17 78 -16 200 -90 341 -202 388 -50 21 -132 18 -182 -7z m159 -11
c116 -34 183 -160 196 -366 4 -78 10 -105 21 -109 8 -3 53 1 101 11 94 18 209
21 257 7 102 -29 132 -132 73 -250 -59 -119 -236 -221 -381 -221 -33 0 -38 -3
-38 -24 0 -13 13 -52 30 -87 32 -70 60 -167 60 -211 0 -46 -44 -131 -90 -172
-23 -21 -68 -50 -99 -65 -47 -22 -70 -26 -146 -26 -83 0 -95 3 -150 33 -66 36
-120 97 -147 164 -19 49 -24 169 -7 200 22 41 -7 39 -72 -5 -109 -73 -256
-106 -336 -76 -142 53 -198 211 -125 354 47 93 146 181 225 200 42 11 32 31
-32 65 -110 59 -171 140 -171 227 1 107 95 189 228 200 83 6 144 -15 252 -86
41 -27 78 -47 83 -44 4 2 7 23 7 47 0 99 56 202 125 232 38 17 86 17 136 2z"/>
<path d="M5375 8111 c-79 -19 -132 -68 -150 -138 -23 -91 20 -186 113 -247 69
-46 121 -59 199 -53 177 14 244 203 121 342 -61 70 -198 116 -283 96z m181
-54 c91 -46 155 -151 140 -231 -16 -82 -122 -147 -213 -130 -55 10 -111 31
-131 49 -87 79 -119 143 -107 213 9 52 64 109 120 125 44 13 141 0 191 -26z"/>
<path d="M6670 7235 c-30 -6 -69 -19 -86 -28 -47 -25 -100 -92 -113 -143 -19
-73 -2 -113 74 -180 36 -31 65 -60 65 -65 0 -5 -33 -25 -73 -44 -120 -57 -182
-131 -193 -233 -11 -102 64 -164 196 -162 41 1 79 1 84 1 5 -1 0 -11 -11 -23
-46 -51 -58 -89 -58 -183 0 -81 3 -96 30 -145 18 -33 47 -66 73 -85 39 -27 51
-30 115 -30 60 1 81 6 124 29 90 49 133 102 148 181 4 22 11 43 17 46 6 4 31
-3 57 -14 87 -40 223 -18 326 53 53 36 75 74 75 127 0 83 -81 160 -187 178
-52 8 -60 18 -30 38 41 27 89 82 114 132 32 62 36 167 10 229 -56 128 -231
164 -352 72 l-31 -24 -12 58 c-14 68 -62 145 -111 177 -61 41 -163 57 -251 38z
m175 -26 c60 -17 102 -54 136 -121 24 -47 31 -75 32 -120 0 -41 4 -58 14 -58
7 0 13 5 13 11 0 7 12 22 28 35 72 63 171 80 243 44 86 -44 114 -101 107 -214
-4 -55 -11 -81 -32 -114 -28 -45 -94 -111 -127 -126 -37 -18 -19 -33 60 -50
68 -14 87 -23 126 -59 40 -36 48 -49 52 -90 6 -46 4 -49 -39 -91 -93 -89 -245
-124 -340 -78 -60 30 -77 21 -95 -49 -33 -131 -181 -223 -303 -189 -87 24
-150 123 -150 236 0 67 21 124 65 178 19 24 35 46 35 49 0 3 -44 3 -98 0 -110
-6 -157 7 -188 54 -20 32 -21 106 -1 153 23 52 94 116 157 140 62 25 90 46 90
70 0 9 -31 44 -69 78 -57 51 -70 69 -76 101 -13 78 48 164 141 201 56 22 157
26 219 9z"/>
<path d="M6795 6781 c-54 -32 -70 -67 -70 -151 0 -61 5 -84 27 -126 54 -103
140 -163 234 -164 124 0 184 115 139 267 -41 139 -227 237 -330 174z m193 -35
c70 -48 130 -156 131 -234 3 -203 -238 -201 -341 1 -27 54 -30 68 -26 130 4
65 6 71 42 104 36 33 41 35 96 31 43 -3 69 -12 98 -32z"/>
<path d="M735 7422 c-46 -22 -108 -81 -133 -126 -27 -50 -22 -149 11 -214 15
-30 27 -55 27 -57 0 -1 -33 -5 -74 -7 -56 -4 -85 -11 -119 -31 -135 -80 -145
-192 -22 -269 27 -18 51 -33 53 -34 2 -1 -19 -24 -46 -51 -139 -139 -129 -422
17 -519 47 -30 126 -35 186 -10 21 9 40 15 41 13 2 -2 8 -33 13 -69 17 -123
73 -207 174 -260 33 -18 58 -23 122 -23 71 0 88 4 150 35 92 47 165 120 188
189 33 102 17 220 -44 322 -16 27 -29 51 -29 53 0 2 28 6 63 8 46 3 84 15 147
45 106 50 167 104 205 179 26 52 30 71 33 164 4 120 -14 186 -69 253 -99 120
-284 165 -423 103 -32 -14 -62 -26 -65 -26 -4 0 -5 29 -3 65 7 109 -46 203
-142 252 -69 36 -201 43 -261 15z m206 -19 c39 -12 69 -32 105 -68 64 -64 84
-130 67 -223 -6 -31 -9 -60 -7 -64 3 -4 37 9 76 29 97 48 181 56 270 23 128
-47 188 -113 218 -239 17 -73 8 -186 -20 -241 -36 -70 -98 -129 -185 -173 -79
-41 -82 -42 -183 -42 -70 0 -102 -4 -102 -11 0 -7 6 -14 13 -17 22 -8 83 -107
107 -175 26 -72 23 -154 -8 -225 -24 -54 -92 -116 -167 -153 -52 -25 -71 -29
-145 -29 -79 0 -88 2 -130 31 -101 71 -133 136 -134 271 -1 51 -4 93 -7 93 -3
0 -14 -9 -23 -19 -10 -11 -39 -29 -64 -41 -91 -43 -181 -8 -230 90 -24 49 -27
66 -27 155 0 82 5 109 23 150 28 60 75 112 120 132 42 18 37 33 -19 52 -24 9
-63 35 -86 58 -34 34 -43 50 -43 77 0 96 193 191 295 144 38 -17 54 3 25 32
-37 37 -72 129 -72 186 1 81 65 170 146 201 46 17 126 15 187 -4z"/>
<path d="M880 6920 c-92 -22 -187 -102 -242 -205 -31 -56 -33 -66 -33 -160 0
-110 9 -137 66 -193 126 -123 360 -45 453 152 80 168 46 324 -85 390 -54 27
-96 31 -159 16z m156 -45 c55 -32 79 -66 94 -137 43 -192 -119 -408 -306 -408
-60 0 -104 19 -149 64 -98 98 -49 342 90 446 63 47 95 58 169 59 46 1 69 -5
102 -24z"/>
<path d="M4040 8000 c-62 -67 -120 -197 -132 -298 -19 -145 9 -211 82 -197 19
3 54 9 78 12 72 10 78 28 63 187 -8 81 -10 168 -6 225 6 74 5 95 -6 102 -25
16 -42 9 -79 -31z m41 -91 c-5 -40 -4 -115 4 -194 14 -155 13 -157 -72 -159
l-58 -1 -3 75 c-3 81 8 138 43 212 39 81 82 145 92 135 1 -1 -2 -32 -6 -68z"/>
<path d="M2219 7471 c-23 -19 -24 -23 -24 -188 0 -92 -4 -220 -9 -284 -9 -111
-8 -117 13 -138 30 -30 49 -27 119 19 42 26 92 47 154 64 151 39 188 65 188
130 0 23 -40 89 -86 141 -23 27 -59 76 -89 124 -23 37 -111 115 -149 132 -53
24 -88 24 -117 0z m129 -63 c52 -35 75 -59 100 -100 9 -16 20 -28 24 -28 4 0
8 -5 8 -11 0 -6 6 -16 13 -23 6 -7 23 -28 37 -46 14 -18 30 -38 35 -44 27 -28
45 -63 45 -87 0 -22 -8 -31 -42 -47 -24 -11 -69 -26 -101 -32 -73 -15 -107
-29 -177 -75 -76 -49 -77 -47 -49 210 6 59 6 120 0 178 -16 142 12 170 107
105z"/>
<path d="M5070 6041 c-125 -40 -201 -98 -402 -305 -52 -53 -74 -96 -49 -96 4
0 51 42 102 93 192 187 229 216 362 281 42 21 77 40 77 42 0 8 -37 2 -90 -15z"/>
<path d="M5199 5758 c-98 -59 -226 -121 -359 -173 -128 -50 -149 -63 -155
-100 -8 -40 25 -145 70 -220 81 -137 204 -202 336 -176 33 7 80 21 105 31 59
26 133 103 170 176 25 51 29 73 32 165 7 187 -27 316 -89 338 -23 8 -38 3
-110 -41z m136 -11 c16 -24 49 -167 40 -175 -3 -3 -6 -3 -7 -1 -2 2 -14 26
-28 52 -14 27 -44 67 -67 90 l-42 41 26 18 c30 19 54 12 78 -25z m-34 -97 c49
-72 69 -133 69 -210 0 -87 -13 -129 -59 -190 -67 -89 -149 -133 -217 -116 -46
12 -131 102 -154 164 -27 71 -37 205 -20 256 11 33 22 42 118 91 59 30 120 63
137 74 29 20 30 20 60 2 16 -11 46 -43 66 -71z m-407 -191 c4 -143 27 -210 95
-278 25 -25 55 -51 66 -58 18 -10 16 -12 -20 -12 -113 0 -225 89 -291 233 -27
58 -40 134 -26 154 8 12 163 82 170 76 2 -1 4 -53 6 -115z"/>
<path d="M5010 5402 c-26 -26 -30 -38 -30 -82 0 -44 4 -56 29 -81 34 -33 74
-38 110 -13 26 19 51 71 51 109 0 37 -48 85 -92 92 -32 5 -41 1 -68 -25z m96
-7 c34 -23 49 -69 34 -105 -39 -93 -140 -69 -140 33 0 70 56 108 106 72z"/>
<path d="M3485 5519 c-143 -12 -274 -39 -351 -70 -74 -31 -170 -87 -162 -95 3
-2 36 7 74 22 178 67 318 93 554 101 147 5 163 4 307 -26 174 -36 173 -36 173
-16 0 32 -289 96 -423 94 -45 -1 -122 -5 -172 -10z"/>
<path d="M3970 5255 c-41 -14 -136 -45 -210 -70 -151 -50 -374 -106 -495 -125
-204 -31 -227 -39 -244 -84 -13 -33 4 -111 41 -186 36 -74 160 -205 224 -238
117 -59 351 -54 479 11 153 76 272 193 341 333 52 106 62 222 25 316 -9 23
-63 68 -81 68 -3 0 -39 -12 -80 -25z m119 -31 c41 -52 49 -156 19 -259 -12
-40 -12 -39 -18 46 -7 91 -32 152 -79 191 -26 22 -27 35 -3 41 40 11 62 6 81
-19z m-95 -35 c47 -41 76 -120 76 -207 -2 -150 -92 -268 -285 -372 -55 -29
-65 -31 -127 -27 -113 9 -184 62 -236 176 -35 75 -38 205 -6 266 19 36 25 40
82 52 63 13 382 116 411 133 28 16 49 11 85 -21z m-610 -171 c-29 -56 -24
-169 11 -257 47 -114 98 -165 199 -196 l41 -12 -67 -8 c-103 -11 -193 2 -261
37 -136 73 -277 285 -253 382 7 30 14 32 144 51 59 9 121 20 137 25 17 4 38 9
48 9 17 1 17 -1 1 -31z"/>
<path d="M3558 4894 c-36 -19 -58 -63 -58 -114 0 -104 135 -138 190 -48 37 61
21 136 -35 163 -41 19 -62 19 -97 -1z m110 -30 c11 -12 17 -33 17 -67 0 -42
-4 -52 -30 -73 -63 -50 -135 -17 -135 64 0 35 6 49 30 74 26 26 36 30 66 25
19 -3 42 -14 52 -23z"/>
<path d="M7214 3301 c-47 -21 -103 -83 -119 -132 -11 -32 -13 -33 -69 -35
-103 -3 -188 -85 -188 -181 l1 -48 -87 0 c-107 -1 -179 -23 -235 -74 -42 -38
-76 -100 -77 -139 0 -20 -3 -21 -27 -15 -16 5 -66 8 -113 8 -95 -1 -141 -18
-194 -74 -39 -41 -46 -111 -16 -160 25 -40 47 -31 30 13 -5 15 -10 44 -10 65
0 115 211 170 357 94 27 -14 35 -15 45 -4 11 10 9 16 -9 31 -32 25 -31 84 2
132 55 81 210 119 341 83 35 -9 68 -15 71 -11 4 4 -8 20 -25 36 -36 33 -36 34
-21 96 8 32 23 54 52 79 35 30 48 35 92 35 45 0 54 -3 74 -30 29 -39 44 -30
36 23 -8 52 11 98 58 148 39 41 79 54 136 44 46 -8 107 -66 144 -140 16 -30
26 -42 26 -30 -1 66 -85 177 -147 195 -52 14 -81 12 -128 -9z"/>
<path d="M768 2016 c-47 -17 -88 -43 -88 -56 0 -14 5 -13 60 15 53 27 117 33
153 14 39 -20 67 -52 67 -75 0 -29 10 -54 21 -54 5 0 15 14 24 30 14 27 20 30
66 30 80 0 158 -51 173 -112 9 -40 31 -34 45 11 7 26 28 54 58 80 38 34 53 41
87 41 85 -1 141 -97 117 -201 -10 -45 0 -67 19 -44 8 9 16 43 18 74 8 108 -60
202 -146 203 -67 1 -111 -28 -169 -111 -2 -3 -13 5 -26 16 -61 57 -185 91
-234 65 -17 -9 -23 -7 -42 18 -25 34 -97 70 -138 70 -15 -1 -45 -7 -65 -14z"/>
<path d="M2988 1583 c-28 -18 -68 -80 -68 -106 0 -22 -18 -31 -35 -17 -22 18
-139 25 -175 10 -17 -7 -41 -25 -54 -41 -22 -25 -27 -27 -57 -19 -49 14 -99
12 -151 -6 -51 -17 -73 -37 -83 -74 -7 -31 27 -80 56 -80 23 0 25 16 4 36 -40
41 1 76 97 82 70 4 75 3 112 -27 22 -17 44 -30 50 -28 15 5 20 47 7 47 -24 0
-9 41 22 60 61 38 142 21 198 -42 20 -22 42 -38 47 -34 7 4 9 30 6 69 -4 51
-2 68 15 95 26 40 59 54 101 42 39 -11 95 -52 117 -86 15 -23 14 -27 -2 -57
-19 -35 -17 -72 3 -72 6 0 20 16 30 35 10 21 28 39 45 45 27 9 32 6 66 -34 30
-34 39 -40 48 -30 27 34 -40 109 -97 109 -30 0 -41 6 -56 28 -59 91 -178 137
-246 95z"/>
<path d="M4613 1355 c-31 -16 -53 -34 -57 -47 -3 -12 -4 -23 -2 -25 1 -2 24 8
50 22 57 30 101 33 116 6 5 -11 7 -26 5 -34 -3 -7 1 -19 9 -26 12 -10 22 -5
55 28 64 64 126 67 181 8 25 -26 32 -29 40 -17 12 19 -14 62 -50 84 -39 22
-107 20 -155 -5 -33 -18 -40 -19 -49 -7 -10 13 -67 38 -86 38 -3 0 -29 -11
-57 -25z"/>
<path d="M7359 870 c-20 -16 -42 -42 -48 -58 -11 -27 -17 -30 -76 -35 -163
-13 -269 -140 -205 -244 25 -42 55 -45 45 -5 -18 72 -17 101 4 131 30 42 96
71 162 71 43 0 57 -4 67 -20 18 -29 52 -26 52 4 0 13 -5 26 -12 28 -17 6 -2
53 27 83 52 51 98 43 131 -24 21 -44 29 -49 38 -26 9 23 -22 92 -49 109 -40
26 -95 20 -136 -14z"/>
<path d="M6930 270 c0 -46 3 -81 6 -77 8 8 9 145 1 154 -4 3 -7 -31 -7 -77z"/>
<path d="M5566 333 c-10 -10 -7 -143 3 -143 6 0 11 24 13 53 l3 52 25 -37 c14
-21 27 -38 30 -38 3 0 16 17 30 37 l25 37 3 -57 c2 -33 7 -55 13 -52 12 8 12
142 -1 150 -5 3 -22 -14 -37 -39 -15 -26 -30 -46 -34 -46 -3 0 -15 18 -28 40
-24 43 -35 53 -45 43z"/>
<path d="M6059 315 c-3 -26 -8 -30 -30 -27 -51 6 -79 -57 -41 -91 10 -10 32
-17 49 -17 l31 0 4 66 c3 70 -7 123 -13 69z m-7 -62 c8 -36 -3 -54 -31 -51
-26 3 -38 26 -27 54 8 20 54 18 58 -3z"/>
<path d="M6306 333 c-10 -10 -7 -141 4 -148 6 -4 10 16 11 52 0 49 2 55 12 40
7 -10 20 -28 30 -40 16 -19 20 -20 27 -6 5 9 18 27 29 40 l20 24 1 -58 c0 -36
4 -56 10 -52 12 8 13 142 1 149 -5 4 -22 -14 -38 -39 -15 -25 -31 -45 -35 -45
-4 0 -13 10 -19 23 -20 36 -46 67 -53 60z"/>
<path d="M6787 328 c-4 -10 -9 -24 -11 -32 -3 -8 -14 -12 -28 -9 -43 8 -69
-55 -38 -92 16 -19 79 -20 86 -2 8 22 0 154 -9 135z m-12 -77 c9 -28 -5 -51
-30 -51 -25 0 -39 23 -30 51 8 25 52 25 60 0z"/>
<path d="M5752 278 c-16 -16 -15 -66 2 -84 18 -17 58 -18 74 -2 7 7 12 26 12
43 0 38 -16 55 -50 55 -14 0 -31 -5 -38 -12z m67 -22 c18 -22 -3 -56 -34 -56
-21 0 -25 5 -25 28 0 16 3 32 7 35 11 12 40 8 52 -7z"/>
<path d="M5860 234 c0 -34 4 -53 10 -49 6 3 10 24 10 46 0 36 2 40 23 37 17
-2 23 -11 25 -38 5 -54 22 -61 22 -9 0 54 -13 69 -57 69 l-33 0 0 -56z"/>
<path d="M6107 283 c-15 -15 -5 -22 23 -16 19 3 30 1 30 -6 0 -6 -13 -14 -30
-17 -29 -6 -47 -34 -35 -54 4 -6 23 -10 43 -8 33 3 37 7 40 35 4 43 -13 73
-42 73 -12 0 -26 -3 -29 -7z m51 -65 c-5 -15 -48 -24 -48 -10 0 14 12 22 33
22 10 0 17 -5 15 -12z"/>
<path d="M6200 271 c0 -11 8 -36 17 -55 16 -34 16 -37 -3 -57 -18 -20 -18 -21
-1 -18 18 4 67 104 67 136 0 24 -18 4 -25 -27 -8 -39 -24 -38 -32 0 -7 36 -23
50 -23 21z"/>
<path d="M6497 283 c-14 -14 -6 -19 23 -15 40 6 38 -13 -2 -24 -61 -18 -46
-72 16 -60 29 6 36 11 36 31 0 44 -18 75 -43 75 -13 0 -27 -3 -30 -7z m51 -65
c-5 -15 -48 -24 -48 -10 0 14 12 22 33 22 10 0 17 -5 15 -12z"/>
<path d="M6590 233 c1 -44 3 -54 11 -41 5 10 9 24 8 30 -5 37 2 49 24 46 18
-2 23 -10 25 -46 4 -47 22 -48 22 -1 0 49 -16 69 -55 69 l-35 0 0 -57z"/>
<path d="M6837 283 c-15 -14 -6 -23 12 -13 14 7 22 7 27 -1 8 -13 -5 -26 -31
-31 -14 -2 -20 -11 -20 -28 0 -22 4 -25 40 -25 l40 0 -1 44 c-1 24 -8 47 -15
52 -17 10 -43 12 -52 2z m47 -68 c-6 -16 -44 -21 -44 -7 0 14 12 22 31 22 12
0 16 -5 13 -15z"/>
<path d="M6987 283 c-14 -13 -6 -23 11 -15 18 10 42 5 42 -8 0 -5 -13 -11 -29
-15 -66 -14 -61 -67 5 -62 32 2 34 4 34 39 0 20 -3 43 -6 52 -6 16 -45 22 -57
9z m51 -65 c-5 -15 -58 -24 -58 -10 0 15 12 22 38 22 14 0 22 -5 20 -12z"/>
<path d="M7126 275 c-17 -18 -19 -28 -10 -62 7 -25 34 -37 64 -28 30 10 24 20
-12 20 -30 0 -33 3 -33 30 0 27 3 30 33 30 17 0 31 4 29 10 -6 17 -54 17 -71
0z"/>
<path d="M7236 274 c-34 -33 -9 -94 38 -94 31 0 46 18 46 55 0 17 -5 36 -12
43 -17 17 -54 15 -72 -4z m66 -21 c8 -36 -3 -54 -31 -51 -26 3 -38 26 -27 54
8 20 54 18 58 -3z"/>
<path d="M7343 240 c-1 -28 3 -53 8 -56 5 -3 9 15 9 40 0 42 2 46 25 46 23 0
25 -4 25 -40 0 -22 5 -40 10 -40 6 0 10 18 10 41 0 36 2 40 23 37 18 -2 23
-11 28 -48 4 -35 7 -41 14 -26 4 10 4 35 -1 55 l-9 36 -71 2 -71 2 0 -49z"/>
</g>
</svg>
